%TF.GenerationSoftware,KiCad,Pcbnew,8.0.1*%
%TF.CreationDate,2024-04-30T15:38:52+08:00*%
%TF.ProjectId,prototype,70726f74-6f74-4797-9065-2e6b69636164,rev?*%
%TF.SameCoordinates,Original*%
%TF.FileFunction,Soldermask,Top*%
%TF.FilePolarity,Negative*%
%FSLAX46Y46*%
G04 Gerber Fmt 4.6, Leading zero omitted, Abs format (unit mm)*
G04 Created by KiCad (PCBNEW 8.0.1) date 2024-04-30 15:38:52*
%MOMM*%
%LPD*%
G01*
G04 APERTURE LIST*
G04 Aperture macros list*
%AMRoundRect*
0 Rectangle with rounded corners*
0 $1 Rounding radius*
0 $2 $3 $4 $5 $6 $7 $8 $9 X,Y pos of 4 corners*
0 Add a 4 corners polygon primitive as box body*
4,1,4,$2,$3,$4,$5,$6,$7,$8,$9,$2,$3,0*
0 Add four circle primitives for the rounded corners*
1,1,$1+$1,$2,$3*
1,1,$1+$1,$4,$5*
1,1,$1+$1,$6,$7*
1,1,$1+$1,$8,$9*
0 Add four rect primitives between the rounded corners*
20,1,$1+$1,$2,$3,$4,$5,0*
20,1,$1+$1,$4,$5,$6,$7,0*
20,1,$1+$1,$6,$7,$8,$9,0*
20,1,$1+$1,$8,$9,$2,$3,0*%
%AMFreePoly0*
4,1,26,1.935306,0.780194,1.989950,0.741421,2.341421,0.389950,2.388777,0.314585,2.400000,0.248529,2.400000,-0.248529,2.380194,-0.335306,2.341421,-0.389950,1.989950,-0.741421,1.914585,-0.788777,1.848529,-0.800000,0.000000,-0.800000,-0.248529,-0.800000,-0.335306,-0.780194,-0.389950,-0.741421,-0.741421,-0.389950,-0.788777,-0.314585,-0.800000,-0.248529,-0.800000,0.248529,-0.780194,0.335306,
-0.741421,0.389950,-0.389950,0.741421,-0.314585,0.788777,-0.248529,0.800000,1.848529,0.800000,1.935306,0.780194,1.935306,0.780194,$1*%
%AMFreePoly1*
4,1,26,0.335306,0.780194,0.389950,0.741421,0.741421,0.389950,0.788777,0.314585,0.800000,0.248529,0.800000,-0.248529,0.780194,-0.335306,0.741421,-0.389950,0.389950,-0.741421,0.314585,-0.788777,0.248529,-0.800000,0.000000,-0.800000,-0.248529,-0.800000,-0.335306,-0.780194,-0.389950,-0.741421,-0.741421,-0.389950,-0.788777,-0.314585,-0.800000,-0.248529,-0.800000,0.248529,-0.780194,0.335306,
-0.741421,0.389950,-0.389950,0.741421,-0.314585,0.788777,-0.248529,0.800000,0.248529,0.800000,0.335306,0.780194,0.335306,0.780194,$1*%
%AMFreePoly2*
4,1,26,0.335306,2.380194,0.389950,2.341421,0.741421,1.989950,0.788777,1.914585,0.800000,1.848529,0.800000,-0.248529,0.780194,-0.335306,0.741421,-0.389950,0.389950,-0.741421,0.314585,-0.788777,0.248529,-0.800000,0.000000,-0.800000,-0.248529,-0.800000,-0.335306,-0.780194,-0.389950,-0.741421,-0.741421,-0.389950,-0.788777,-0.314585,-0.800000,-0.248529,-0.800000,1.848529,-0.780194,1.935306,
-0.741421,1.989950,-0.389950,2.341421,-0.314585,2.388777,-0.248529,2.400000,0.248529,2.400000,0.335306,2.380194,0.335306,2.380194,$1*%
%AMFreePoly3*
4,1,6,0.500000,-0.750000,-0.650000,-0.750000,-0.150000,0.000000,-0.650000,0.750000,0.500000,0.750000,0.500000,-0.750000,0.500000,-0.750000,$1*%
%AMFreePoly4*
4,1,6,1.000000,0.000000,0.500000,-0.750000,-0.500000,-0.750000,-0.500000,0.750000,0.500000,0.750000,1.000000,0.000000,1.000000,0.000000,$1*%
%AMFreePoly5*
4,1,19,0.500000,-0.750000,0.000000,-0.750000,0.000000,-0.744911,-0.071157,-0.744911,-0.207708,-0.704816,-0.327430,-0.627875,-0.420627,-0.520320,-0.479746,-0.390866,-0.500000,-0.250000,-0.500000,0.250000,-0.479746,0.390866,-0.420627,0.520320,-0.327430,0.627875,-0.207708,0.704816,-0.071157,0.744911,0.000000,0.744911,0.000000,0.750000,0.500000,0.750000,0.500000,-0.750000,0.500000,-0.750000,
$1*%
%AMFreePoly6*
4,1,19,0.000000,0.744911,0.071157,0.744911,0.207708,0.704816,0.327430,0.627875,0.420627,0.520320,0.479746,0.390866,0.500000,0.250000,0.500000,-0.250000,0.479746,-0.390866,0.420627,-0.520320,0.327430,-0.627875,0.207708,-0.704816,0.071157,-0.744911,0.000000,-0.744911,0.000000,-0.750000,-0.500000,-0.750000,-0.500000,0.750000,0.000000,0.750000,0.000000,0.744911,0.000000,0.744911,
$1*%
G04 Aperture macros list end*
%ADD10C,0.500000*%
%ADD11O,1.800000X1.100000*%
%ADD12O,1.450000X1.050000*%
%ADD13FreePoly0,90.000000*%
%ADD14FreePoly1,90.000000*%
%ADD15O,1.600000X3.200000*%
%ADD16C,1.600000*%
%ADD17RoundRect,0.200000X0.600000X-1.400000X0.600000X1.400000X-0.600000X1.400000X-0.600000X-1.400000X0*%
%ADD18RoundRect,0.200000X0.600000X-0.600000X0.600000X0.600000X-0.600000X0.600000X-0.600000X-0.600000X0*%
%ADD19FreePoly2,90.000000*%
%ADD20C,1.574800*%
%ADD21RoundRect,0.200000X1.400000X-0.600000X1.400000X0.600000X-1.400000X0.600000X-1.400000X-0.600000X0*%
%ADD22R,1.574800X1.574800*%
%ADD23O,3.200000X1.600000*%
%ADD24RoundRect,0.300000X0.450000X-0.450000X0.450000X0.450000X-0.450000X0.450000X-0.450000X-0.450000X0*%
%ADD25R,4.528000X5.544000*%
%ADD26R,1.700000X1.700000*%
%ADD27RoundRect,1.132000X1.132000X1.640000X-1.132000X1.640000X-1.132000X-1.640000X1.132000X-1.640000X0*%
%ADD28C,1.700000*%
%ADD29C,1.524000*%
%ADD30FreePoly3,180.000000*%
%ADD31FreePoly4,180.000000*%
%ADD32FreePoly5,270.000000*%
%ADD33FreePoly6,270.000000*%
%ADD34FreePoly3,0.000000*%
%ADD35FreePoly4,0.000000*%
%ADD36O,1.700000X1.950000*%
%ADD37RoundRect,0.250000X-0.600000X-0.725000X0.600000X-0.725000X0.600000X0.725000X-0.600000X0.725000X0*%
%ADD38RoundRect,0.250000X0.725000X-0.600000X0.725000X0.600000X-0.725000X0.600000X-0.725000X-0.600000X0*%
%ADD39O,1.950000X1.700000*%
%ADD40RoundRect,0.250000X-0.250000X-1.150000X0.250000X-1.150000X0.250000X1.150000X-0.250000X1.150000X0*%
%ADD41RoundRect,0.150000X-0.150000X-0.700000X0.150000X-0.700000X0.150000X0.700000X-0.150000X0.700000X0*%
%ADD42C,6.400000*%
%ADD43R,3.800000X3.800000*%
%ADD44C,4.000000*%
%ADD45RoundRect,0.250000X-0.600000X-0.750000X0.600000X-0.750000X0.600000X0.750000X-0.600000X0.750000X0*%
%ADD46O,1.700000X2.000000*%
%ADD47O,1.700000X1.700000*%
%ADD48RoundRect,1.500000X1.500000X-1.500000X1.500000X1.500000X-1.500000X1.500000X-1.500000X-1.500000X0*%
%ADD49C,6.000000*%
%ADD50C,4.200000*%
%ADD51R,1.190000X3.000000*%
%ADD52C,5.600000*%
%ADD53RoundRect,0.250000X0.600000X0.750000X-0.600000X0.750000X-0.600000X-0.750000X0.600000X-0.750000X0*%
%ADD54C,10.000000*%
G04 APERTURE END LIST*
D10*
%TO.C,M3*%
X56108600Y-108940600D03*
%TD*%
%TO.C,M10*%
X56108600Y-109575600D03*
%TD*%
D11*
%TO.C,U1*%
X64534000Y-88208000D03*
D12*
X67564000Y-87908000D03*
X67564000Y-83058000D03*
D11*
X64534000Y-82758000D03*
D13*
X64404000Y-95973000D03*
D14*
X64404000Y-94373000D03*
D15*
X66944000Y-95173000D03*
D16*
X66944000Y-94373000D03*
D17*
X69484000Y-95173000D03*
D18*
X69484000Y-94373000D03*
D15*
X72024000Y-95173000D03*
D16*
X72024000Y-94373000D03*
D15*
X74564000Y-95173000D03*
D16*
X74564000Y-94373000D03*
D15*
X77104000Y-95173000D03*
D16*
X77104000Y-94373000D03*
D15*
X79644000Y-95173000D03*
D16*
X79644000Y-94373000D03*
D17*
X82184000Y-95173000D03*
D18*
X82184000Y-94373000D03*
D15*
X84724000Y-95173000D03*
D16*
X84724000Y-94373000D03*
D15*
X87264000Y-95173000D03*
D16*
X87264000Y-94373000D03*
D15*
X89804000Y-95173000D03*
D16*
X89804000Y-94373000D03*
D15*
X92344000Y-95173000D03*
D16*
X92344000Y-94373000D03*
D17*
X94884000Y-95173000D03*
D18*
X94884000Y-94373000D03*
D15*
X97424000Y-95173000D03*
D16*
X97424000Y-94373000D03*
D15*
X99964000Y-95173000D03*
D16*
X99964000Y-94373000D03*
D15*
X102504000Y-95173000D03*
D16*
X102504000Y-94373000D03*
D15*
X105044000Y-95173000D03*
D16*
X105044000Y-94373000D03*
D17*
X107584000Y-95173000D03*
D18*
X107584000Y-94373000D03*
D15*
X110124000Y-95173000D03*
D16*
X110124000Y-94373000D03*
D15*
X112664000Y-95173000D03*
D16*
X112664000Y-94373000D03*
X112664000Y-76593000D03*
D15*
X112664000Y-75793000D03*
D16*
X110124000Y-76593000D03*
D15*
X110124000Y-75793000D03*
D18*
X107584000Y-76593000D03*
D17*
X107584000Y-75793000D03*
D16*
X105044000Y-76593000D03*
D15*
X105044000Y-75793000D03*
D16*
X102504000Y-76593000D03*
D15*
X102504000Y-75793000D03*
D16*
X99964000Y-76593000D03*
D15*
X99964000Y-75793000D03*
D16*
X97424000Y-76593000D03*
D15*
X97424000Y-75793000D03*
D18*
X94884000Y-76593000D03*
D17*
X94884000Y-75793000D03*
D16*
X92344000Y-76593000D03*
D15*
X92344000Y-75793000D03*
D16*
X89804000Y-76593000D03*
D15*
X89804000Y-75793000D03*
D16*
X87264000Y-76593000D03*
D15*
X87264000Y-75793000D03*
D16*
X84724000Y-76593000D03*
D15*
X84724000Y-75793000D03*
D18*
X82184000Y-76593000D03*
D17*
X82184000Y-75793000D03*
D16*
X79644000Y-76593000D03*
D15*
X79644000Y-75793000D03*
D16*
X77104000Y-76593000D03*
D15*
X77104000Y-75793000D03*
D16*
X74564000Y-76593000D03*
D15*
X74564000Y-75793000D03*
D16*
X72024000Y-76593000D03*
D15*
X72024000Y-75793000D03*
D18*
X69484000Y-76593000D03*
D17*
X69484000Y-75793000D03*
D16*
X66944000Y-76593000D03*
D15*
X66944000Y-75793000D03*
D16*
X64404000Y-76593000D03*
D15*
X64404000Y-75793000D03*
D14*
X112434000Y-88023000D03*
D19*
X114034000Y-88023000D03*
D20*
X94234000Y-84898800D03*
D18*
X112434000Y-85483000D03*
D21*
X113234000Y-85483000D03*
D22*
X94234000Y-82358800D03*
D16*
X112434000Y-82943000D03*
D23*
X113234000Y-82943000D03*
D20*
X94234000Y-79818800D03*
D24*
X67534000Y-85483000D03*
X64234000Y-84483000D03*
X64234000Y-86483000D03*
X71034000Y-87983000D03*
X73534000Y-87983000D03*
X76034000Y-87983000D03*
%TD*%
D25*
%TO.C,U2*%
X121188000Y-105410000D03*
D26*
X119918000Y-103632000D03*
X122458000Y-103632000D03*
D27*
X132596000Y-105432000D03*
D28*
X131348000Y-103632000D03*
X133888000Y-103632000D03*
X131348000Y-77632000D03*
X133888000Y-77632000D03*
D27*
X132618000Y-75832000D03*
D26*
X119918000Y-77632000D03*
X122458000Y-77632000D03*
D25*
X121188000Y-75832000D03*
D29*
X118872000Y-84836000D03*
%TD*%
D30*
%TO.C,JP8*%
X57441000Y-92964000D03*
D31*
X58891000Y-92964000D03*
%TD*%
D30*
%TO.C,JP7*%
X57441000Y-90424000D03*
D31*
X58891000Y-90424000D03*
%TD*%
D32*
%TO.C,JP10*%
X125857000Y-76693000D03*
D33*
X125857000Y-77993000D03*
%TD*%
D32*
%TO.C,JP9*%
X128651000Y-76708000D03*
D33*
X128651000Y-78008000D03*
%TD*%
D30*
%TO.C,JP6*%
X57441000Y-82296000D03*
D31*
X58891000Y-82296000D03*
%TD*%
%TO.C,JP5*%
X58891000Y-84836000D03*
D30*
X57441000Y-84836000D03*
%TD*%
%TO.C,JP4*%
X126021000Y-100330000D03*
D31*
X127471000Y-100330000D03*
%TD*%
%TO.C,JP3*%
X127471000Y-102870000D03*
D30*
X126021000Y-102870000D03*
%TD*%
D34*
%TO.C,JP2*%
X134837000Y-97790000D03*
D35*
X133387000Y-97790000D03*
%TD*%
%TO.C,JP1*%
X133387000Y-100330000D03*
D34*
X134837000Y-100330000D03*
%TD*%
D36*
%TO.C,J19*%
X131572000Y-70104000D03*
D37*
X129072000Y-70104000D03*
D36*
X126572000Y-70104000D03*
D37*
X124072000Y-70104000D03*
%TD*%
D38*
%TO.C,J18*%
X80247000Y-122622000D03*
D39*
X80247000Y-120122000D03*
X80247000Y-117622000D03*
X80247000Y-115122000D03*
%TD*%
D40*
%TO.C,TM1*%
X73829000Y-121536000D03*
X66379000Y-121536000D03*
D41*
X71979000Y-124886000D03*
X70729000Y-124886000D03*
X69479000Y-124886000D03*
X68229000Y-124886000D03*
%TD*%
D37*
%TO.C,L1*%
X67564000Y-106680000D03*
D36*
X70064000Y-106680000D03*
X72564000Y-106680000D03*
X75064000Y-106680000D03*
X77564000Y-106680000D03*
X80064000Y-106680000D03*
%TD*%
D37*
%TO.C,J17*%
X66548000Y-114808000D03*
D36*
X69048000Y-114808000D03*
X71548000Y-114808000D03*
X74048000Y-114808000D03*
%TD*%
D37*
%TO.C,J6*%
X139000000Y-82000000D03*
D36*
X141500000Y-82000000D03*
X144000000Y-82000000D03*
%TD*%
D42*
%TO.C,H2*%
X100000000Y-128000000D03*
%TD*%
D10*
%TO.C,M36*%
X114706400Y-66802000D03*
%TD*%
%TO.C,M11*%
X57404000Y-109550200D03*
%TD*%
D16*
%TO.C,R2*%
X132080000Y-111760000D03*
X132080000Y-116840000D03*
%TD*%
D43*
%TO.C,J12*%
X104024000Y-55292000D03*
D44*
X104024000Y-50292000D03*
%TD*%
D10*
%TO.C,M24*%
X83921600Y-66802000D03*
%TD*%
%TO.C,M37*%
X115824000Y-66802000D03*
%TD*%
%TO.C,M5*%
X57912000Y-109296200D03*
%TD*%
%TO.C,M38*%
X116433600Y-66802000D03*
%TD*%
%TO.C,M4*%
X57480200Y-108864400D03*
%TD*%
D45*
%TO.C,J8*%
X139000000Y-89000000D03*
D46*
X141500000Y-89000000D03*
%TD*%
D10*
%TO.C,M26*%
X85547200Y-66802000D03*
%TD*%
%TO.C,M14*%
X59436000Y-109575600D03*
%TD*%
D26*
%TO.C,J3*%
X64262000Y-101600000D03*
D47*
X66802000Y-101600000D03*
X69342000Y-101600000D03*
X71882000Y-101600000D03*
X74422000Y-101600000D03*
X76962000Y-101600000D03*
X79502000Y-101600000D03*
X82042000Y-101600000D03*
X84582000Y-101600000D03*
X87122000Y-101600000D03*
X89662000Y-101600000D03*
X92202000Y-101600000D03*
X94742000Y-101600000D03*
X97282000Y-101600000D03*
X99822000Y-101600000D03*
X102362000Y-101600000D03*
X104902000Y-101600000D03*
X107442000Y-101600000D03*
X109982000Y-101600000D03*
X112522000Y-101600000D03*
%TD*%
D42*
%TO.C,H3*%
X124748737Y-94547727D03*
%TD*%
D26*
%TO.C,J7*%
X55880000Y-73914000D03*
%TD*%
D38*
%TO.C,J14*%
X79993000Y-56054000D03*
D39*
X79993000Y-53554000D03*
X79993000Y-51054000D03*
X79993000Y-48554000D03*
%TD*%
D10*
%TO.C,M25*%
X84734400Y-66802000D03*
%TD*%
%TO.C,M8*%
X54762400Y-109575600D03*
%TD*%
%TO.C,M29*%
X114147600Y-65176400D03*
%TD*%
%TO.C,M17*%
X83058000Y-65176400D03*
%TD*%
%TO.C,M30*%
X114706400Y-65176400D03*
%TD*%
%TO.C,M23*%
X83058000Y-66802000D03*
%TD*%
%TO.C,M35*%
X114147600Y-66802000D03*
%TD*%
%TO.C,M39*%
X117602000Y-66751200D03*
%TD*%
D48*
%TO.C,J2*%
X70358000Y-56388000D03*
D49*
X70358000Y-49188000D03*
%TD*%
D10*
%TO.C,M20*%
X85547200Y-65176400D03*
%TD*%
D50*
%TO.C,H1*%
X56500000Y-121412000D03*
%TD*%
D43*
%TO.C,J10*%
X89524000Y-55292000D03*
D44*
X89524000Y-50292000D03*
%TD*%
D10*
%TO.C,M40*%
X118364000Y-66751200D03*
%TD*%
%TO.C,M22*%
X82245200Y-66802000D03*
%TD*%
%TO.C,M27*%
X95453200Y-66243200D03*
%TD*%
D16*
%TO.C,R3*%
X54356000Y-101600000D03*
X59436000Y-101600000D03*
%TD*%
D42*
%TO.C,H4*%
X144547727Y-74748737D03*
%TD*%
D10*
%TO.C,M1*%
X54762400Y-108940600D03*
%TD*%
D51*
%TO.C,D1*%
X54239500Y-105548000D03*
X59429500Y-105548000D03*
%TD*%
D52*
%TO.C,H6*%
X63000000Y-62000000D03*
%TD*%
D48*
%TO.C,J1*%
X129540000Y-56134000D03*
D49*
X129540000Y-48934000D03*
%TD*%
D10*
%TO.C,M28*%
X96953200Y-66243200D03*
%TD*%
%TO.C,M16*%
X82245200Y-65176400D03*
%TD*%
D53*
%TO.C,J16*%
X125730000Y-124460000D03*
D46*
X123230000Y-124460000D03*
%TD*%
D10*
%TO.C,M32*%
X116433600Y-65176400D03*
%TD*%
%TO.C,M34*%
X118364000Y-65176400D03*
%TD*%
%TO.C,M18*%
X83921600Y-65176400D03*
%TD*%
D45*
%TO.C,J9*%
X139000000Y-96000000D03*
D46*
X141500000Y-96000000D03*
%TD*%
D10*
%TO.C,M7*%
X59563000Y-108864400D03*
%TD*%
D52*
%TO.C,H5*%
X63000000Y-43000000D03*
%TD*%
D10*
%TO.C,M15*%
X81432400Y-65176400D03*
%TD*%
%TO.C,M33*%
X117602000Y-65176400D03*
%TD*%
%TO.C,M13*%
X58420000Y-109575600D03*
%TD*%
%TO.C,M31*%
X115824000Y-65176400D03*
%TD*%
D54*
%TO.C,H9*%
X124000000Y-114000000D03*
%TD*%
D10*
%TO.C,M6*%
X58343800Y-108839000D03*
%TD*%
D26*
%TO.C,J4*%
X112522000Y-69088000D03*
D47*
X109982000Y-69088000D03*
X107442000Y-69088000D03*
X104902000Y-69088000D03*
X102362000Y-69088000D03*
X99822000Y-69088000D03*
X97282000Y-69088000D03*
X94742000Y-69088000D03*
X92202000Y-69088000D03*
X89662000Y-69088000D03*
X87122000Y-69088000D03*
X84582000Y-69088000D03*
X82042000Y-69088000D03*
X79502000Y-69088000D03*
X76962000Y-69088000D03*
X74422000Y-69088000D03*
X71882000Y-69088000D03*
X69342000Y-69088000D03*
X66802000Y-69088000D03*
X64262000Y-69088000D03*
%TD*%
D52*
%TO.C,H7*%
X137000000Y-43000000D03*
%TD*%
%TO.C,H8*%
X137000000Y-62000000D03*
%TD*%
D10*
%TO.C,M21*%
X81432400Y-66802000D03*
%TD*%
%TO.C,M19*%
X84734400Y-65176400D03*
%TD*%
D43*
%TO.C,J13*%
X111274000Y-55292000D03*
D44*
X111274000Y-50292000D03*
%TD*%
D28*
%TO.C,J5*%
X59040000Y-111252000D03*
D26*
X56500000Y-111252000D03*
D47*
X53960000Y-111252000D03*
%TD*%
D38*
%TO.C,J15*%
X120396000Y-56014000D03*
D39*
X120396000Y-53514000D03*
X120396000Y-51014000D03*
X120396000Y-48514000D03*
%TD*%
D43*
%TO.C,J11*%
X96774000Y-55292000D03*
D44*
X96774000Y-50292000D03*
%TD*%
M02*
