M48
; DRILL file {KiCad 8.0.1} date 2024-04-30T15:38:52+0800
; FORMAT={-:-/ absolute / inch / decimal}
; #@! TF.CreationDate,2024-04-30T15:38:52+08:00
; #@! TF.GenerationSoftware,Kicad,Pcbnew,8.0.1
; #@! TF.FileFunction,Plated,1,2,PTH
FMAT,2
INCH
; #@! TA.AperFunction,Plated,PTH,ViaDrill
T1C0.0118
; #@! TA.AperFunction,Plated,PTH,ComponentDrill
T2C0.0300
; #@! TA.AperFunction,Plated,PTH,ComponentDrill
T3C0.0315
; #@! TA.AperFunction,Plated,PTH,ComponentDrill
T4C0.0374
; #@! TA.AperFunction,Plated,PTH,ComponentDrill
T5C0.0394
; #@! TA.AperFunction,Plated,PTH,ComponentDrill
T6C0.0402
; #@! TA.AperFunction,Plated,PTH,ComponentDrill
T7C0.1063
; #@! TA.AperFunction,Plated,PTH,ComponentDrill
T8C0.1260
; #@! TA.AperFunction,Plated,PTH,ComponentDrill
T9C0.1772
; #@! TA.AperFunction,Plated,PTH,ComponentDrill
T10C0.3307
%
G90
G05
T1
X2.125Y-4.155
X2.1457Y-4.7
X2.1752Y-4.3346
X2.1792Y-4.275
X2.23Y-3.24
X2.23Y-3.34
X2.23Y-3.56
X2.23Y-3.66
X2.2382Y-4.2736
X2.2382Y-4.3327
X2.3031Y-4.7
X2.31Y-3.92
X2.3209Y-4.2736
X2.3209Y-4.3327
X2.35Y-3.24
X2.35Y-3.34
X2.35Y-3.56
X2.35Y-3.66
X2.36Y-2.98
X2.48Y-4.14
X2.48Y-4.205
X2.7846Y-4.9168
X3.28Y-4.5
X4.5374Y-2.5394
X4.5374Y-2.6555
X4.6063Y-2.5394
X4.6063Y-2.6555
X4.71Y-3.83
T2
X4.68Y-3.34
T3
X2.14Y-4.0
X2.34Y-4.0
X5.2Y-4.4
X5.2Y-4.6
T4
X2.62Y-4.52
X2.66Y-4.2
X2.7184Y-4.52
X2.7584Y-4.2
X2.8169Y-4.52
X2.8569Y-4.2
X2.9153Y-4.52
X2.9553Y-4.2
X3.0537Y-4.2
X3.1493Y-1.9116
X3.1493Y-2.01
X3.1493Y-2.1084
X3.1493Y-2.2069
X3.1521Y-4.2
X3.1593Y-4.5324
X3.1593Y-4.6308
X3.1593Y-4.7292
X3.1593Y-4.8276
X4.74Y-1.91
X4.74Y-2.0084
X4.74Y-2.1069
X4.74Y-2.2053
X4.8847Y-2.76
X4.9831Y-2.76
X5.0816Y-2.76
X5.18Y-2.76
X5.4724Y-3.2283
X5.5709Y-3.2283
X5.6693Y-3.2283
T5
X2.1244Y-4.38
X2.2Y-2.91
X2.2244Y-4.38
X2.3244Y-4.38
X2.53Y-2.72
X2.53Y-4.0
X2.5356Y-3.0155
X2.5356Y-3.7155
X2.63Y-2.72
X2.63Y-4.0
X2.6356Y-3.0155
X2.6356Y-3.7155
X2.73Y-2.72
X2.73Y-4.0
X2.7356Y-3.0155
X2.7356Y-3.7155
X2.83Y-2.72
X2.83Y-4.0
X2.8356Y-3.0155
X2.8356Y-3.7155
X2.93Y-2.72
X2.93Y-4.0
X2.9356Y-3.0155
X2.9356Y-3.7155
X3.03Y-2.72
X3.03Y-4.0
X3.0356Y-3.0155
X3.0356Y-3.7155
X3.13Y-2.72
X3.13Y-4.0
X3.1356Y-3.0155
X3.1356Y-3.7155
X3.23Y-2.72
X3.23Y-4.0
X3.2356Y-3.0155
X3.2356Y-3.7155
X3.33Y-2.72
X3.33Y-4.0
X3.3356Y-3.0155
X3.3356Y-3.7155
X3.43Y-2.72
X3.43Y-4.0
X3.4356Y-3.0155
X3.4356Y-3.7155
X3.53Y-2.72
X3.53Y-4.0
X3.5356Y-3.0155
X3.5356Y-3.7155
X3.63Y-2.72
X3.63Y-4.0
X3.6356Y-3.0155
X3.6356Y-3.7155
X3.71Y-3.1425
X3.71Y-3.2425
X3.71Y-3.3425
X3.73Y-2.72
X3.73Y-4.0
X3.7356Y-3.0155
X3.7356Y-3.7155
X3.83Y-2.72
X3.83Y-4.0
X3.8356Y-3.0155
X3.8356Y-3.7155
X3.93Y-2.72
X3.93Y-4.0
X3.9356Y-3.0155
X3.9356Y-3.7155
X4.03Y-2.72
X4.03Y-4.0
X4.0356Y-3.0155
X4.0356Y-3.7155
X4.13Y-2.72
X4.13Y-4.0
X4.1356Y-3.0155
X4.1356Y-3.7155
X4.23Y-2.72
X4.23Y-4.0
X4.2356Y-3.0155
X4.2356Y-3.7155
X4.33Y-2.72
X4.33Y-4.0
X4.3356Y-3.0155
X4.3356Y-3.7155
X4.4265Y-3.2655
X4.4265Y-3.3655
X4.4265Y-3.4655
X4.43Y-2.72
X4.43Y-4.0
X4.4356Y-3.0155
X4.4356Y-3.7155
X4.8516Y-4.9
X4.95Y-4.9
X5.4724Y-3.5039
X5.4724Y-3.7795
X5.5709Y-3.5039
X5.5709Y-3.7795
T6
X4.7212Y-3.0564
X4.7212Y-4.08
X4.8212Y-3.0564
X4.8212Y-4.08
X5.1712Y-3.0564
X5.1712Y-4.08
X5.2712Y-3.0564
X5.2712Y-4.08
T7
X3.5246Y-1.98
X3.5246Y-2.1769
X3.81Y-1.98
X3.81Y-2.1769
X4.0954Y-1.98
X4.0954Y-2.1769
X4.3809Y-1.98
X4.3809Y-2.1769
T8
X2.2244Y-4.78
X2.4803Y-1.6929
X2.4803Y-2.4409
X3.937Y-5.0394
X4.9114Y-3.7224
X5.3937Y-1.6929
X5.3937Y-2.4409
X5.6909Y-2.9429
T9
X2.77Y-1.9365
X2.77Y-2.22
X5.1Y-1.9265
X5.1Y-2.21
T10
X4.8819Y-4.4882
M30
