%TF.GenerationSoftware,KiCad,Pcbnew,8.0.1*%
%TF.CreationDate,2024-04-30T15:38:52+08:00*%
%TF.ProjectId,prototype,70726f74-6f74-4797-9065-2e6b69636164,rev?*%
%TF.SameCoordinates,Original*%
%TF.FileFunction,Other,Comment*%
%FSLAX46Y46*%
G04 Gerber Fmt 4.6, Leading zero omitted, Abs format (unit mm)*
G04 Created by KiCad (PCBNEW 8.0.1) date 2024-04-30 15:38:52*
%MOMM*%
%LPD*%
G01*
G04 APERTURE LIST*
%ADD10C,0.150000*%
G04 APERTURE END LIST*
D10*
X107753104Y-91515857D02*
X107753104Y-91039667D01*
X108038819Y-91611095D02*
X107038819Y-91277762D01*
X107038819Y-91277762D02*
X108038819Y-90944429D01*
X107372152Y-90611095D02*
X108038819Y-90611095D01*
X107467390Y-90611095D02*
X107419771Y-90563476D01*
X107419771Y-90563476D02*
X107372152Y-90468238D01*
X107372152Y-90468238D02*
X107372152Y-90325381D01*
X107372152Y-90325381D02*
X107419771Y-90230143D01*
X107419771Y-90230143D02*
X107515009Y-90182524D01*
X107515009Y-90182524D02*
X108038819Y-90182524D01*
X107372152Y-89849190D02*
X107372152Y-89468238D01*
X107038819Y-89706333D02*
X107895961Y-89706333D01*
X107895961Y-89706333D02*
X107991200Y-89658714D01*
X107991200Y-89658714D02*
X108038819Y-89563476D01*
X108038819Y-89563476D02*
X108038819Y-89468238D01*
X107991200Y-88753952D02*
X108038819Y-88849190D01*
X108038819Y-88849190D02*
X108038819Y-89039666D01*
X108038819Y-89039666D02*
X107991200Y-89134904D01*
X107991200Y-89134904D02*
X107895961Y-89182523D01*
X107895961Y-89182523D02*
X107515009Y-89182523D01*
X107515009Y-89182523D02*
X107419771Y-89134904D01*
X107419771Y-89134904D02*
X107372152Y-89039666D01*
X107372152Y-89039666D02*
X107372152Y-88849190D01*
X107372152Y-88849190D02*
X107419771Y-88753952D01*
X107419771Y-88753952D02*
X107515009Y-88706333D01*
X107515009Y-88706333D02*
X107610247Y-88706333D01*
X107610247Y-88706333D02*
X107705485Y-89182523D01*
X107372152Y-88277761D02*
X108038819Y-88277761D01*
X107467390Y-88277761D02*
X107419771Y-88230142D01*
X107419771Y-88230142D02*
X107372152Y-88134904D01*
X107372152Y-88134904D02*
X107372152Y-87992047D01*
X107372152Y-87992047D02*
X107419771Y-87896809D01*
X107419771Y-87896809D02*
X107515009Y-87849190D01*
X107515009Y-87849190D02*
X108038819Y-87849190D01*
X107372152Y-87372999D02*
X108038819Y-87372999D01*
X107467390Y-87372999D02*
X107419771Y-87325380D01*
X107419771Y-87325380D02*
X107372152Y-87230142D01*
X107372152Y-87230142D02*
X107372152Y-87087285D01*
X107372152Y-87087285D02*
X107419771Y-86992047D01*
X107419771Y-86992047D02*
X107515009Y-86944428D01*
X107515009Y-86944428D02*
X108038819Y-86944428D01*
X108038819Y-86039666D02*
X107515009Y-86039666D01*
X107515009Y-86039666D02*
X107419771Y-86087285D01*
X107419771Y-86087285D02*
X107372152Y-86182523D01*
X107372152Y-86182523D02*
X107372152Y-86372999D01*
X107372152Y-86372999D02*
X107419771Y-86468237D01*
X107991200Y-86039666D02*
X108038819Y-86134904D01*
X108038819Y-86134904D02*
X108038819Y-86372999D01*
X108038819Y-86372999D02*
X107991200Y-86468237D01*
X107991200Y-86468237D02*
X107895961Y-86515856D01*
X107895961Y-86515856D02*
X107800723Y-86515856D01*
X107800723Y-86515856D02*
X107705485Y-86468237D01*
X107705485Y-86468237D02*
X107657866Y-86372999D01*
X107657866Y-86372999D02*
X107657866Y-86134904D01*
X107657866Y-86134904D02*
X107610247Y-86039666D01*
X108038819Y-84801570D02*
X107038819Y-84801570D01*
X108038819Y-84230142D02*
X107467390Y-84658713D01*
X107038819Y-84230142D02*
X107610247Y-84801570D01*
X107991200Y-83420618D02*
X108038819Y-83515856D01*
X108038819Y-83515856D02*
X108038819Y-83706332D01*
X108038819Y-83706332D02*
X107991200Y-83801570D01*
X107991200Y-83801570D02*
X107895961Y-83849189D01*
X107895961Y-83849189D02*
X107515009Y-83849189D01*
X107515009Y-83849189D02*
X107419771Y-83801570D01*
X107419771Y-83801570D02*
X107372152Y-83706332D01*
X107372152Y-83706332D02*
X107372152Y-83515856D01*
X107372152Y-83515856D02*
X107419771Y-83420618D01*
X107419771Y-83420618D02*
X107515009Y-83372999D01*
X107515009Y-83372999D02*
X107610247Y-83372999D01*
X107610247Y-83372999D02*
X107705485Y-83849189D01*
X107991200Y-82563475D02*
X108038819Y-82658713D01*
X108038819Y-82658713D02*
X108038819Y-82849189D01*
X108038819Y-82849189D02*
X107991200Y-82944427D01*
X107991200Y-82944427D02*
X107895961Y-82992046D01*
X107895961Y-82992046D02*
X107515009Y-82992046D01*
X107515009Y-82992046D02*
X107419771Y-82944427D01*
X107419771Y-82944427D02*
X107372152Y-82849189D01*
X107372152Y-82849189D02*
X107372152Y-82658713D01*
X107372152Y-82658713D02*
X107419771Y-82563475D01*
X107419771Y-82563475D02*
X107515009Y-82515856D01*
X107515009Y-82515856D02*
X107610247Y-82515856D01*
X107610247Y-82515856D02*
X107705485Y-82992046D01*
X107372152Y-82087284D02*
X108372152Y-82087284D01*
X107419771Y-82087284D02*
X107372152Y-81992046D01*
X107372152Y-81992046D02*
X107372152Y-81801570D01*
X107372152Y-81801570D02*
X107419771Y-81706332D01*
X107419771Y-81706332D02*
X107467390Y-81658713D01*
X107467390Y-81658713D02*
X107562628Y-81611094D01*
X107562628Y-81611094D02*
X107848342Y-81611094D01*
X107848342Y-81611094D02*
X107943580Y-81658713D01*
X107943580Y-81658713D02*
X107991200Y-81706332D01*
X107991200Y-81706332D02*
X108038819Y-81801570D01*
X108038819Y-81801570D02*
X108038819Y-81992046D01*
X108038819Y-81992046D02*
X107991200Y-82087284D01*
X108038819Y-81039665D02*
X107991200Y-81134903D01*
X107991200Y-81134903D02*
X107943580Y-81182522D01*
X107943580Y-81182522D02*
X107848342Y-81230141D01*
X107848342Y-81230141D02*
X107562628Y-81230141D01*
X107562628Y-81230141D02*
X107467390Y-81182522D01*
X107467390Y-81182522D02*
X107419771Y-81134903D01*
X107419771Y-81134903D02*
X107372152Y-81039665D01*
X107372152Y-81039665D02*
X107372152Y-80896808D01*
X107372152Y-80896808D02*
X107419771Y-80801570D01*
X107419771Y-80801570D02*
X107467390Y-80753951D01*
X107467390Y-80753951D02*
X107562628Y-80706332D01*
X107562628Y-80706332D02*
X107848342Y-80706332D01*
X107848342Y-80706332D02*
X107943580Y-80753951D01*
X107943580Y-80753951D02*
X107991200Y-80801570D01*
X107991200Y-80801570D02*
X108038819Y-80896808D01*
X108038819Y-80896808D02*
X108038819Y-81039665D01*
X107372152Y-79849189D02*
X108038819Y-79849189D01*
X107372152Y-80277760D02*
X107895961Y-80277760D01*
X107895961Y-80277760D02*
X107991200Y-80230141D01*
X107991200Y-80230141D02*
X108038819Y-80134903D01*
X108038819Y-80134903D02*
X108038819Y-79992046D01*
X108038819Y-79992046D02*
X107991200Y-79896808D01*
X107991200Y-79896808D02*
X107943580Y-79849189D01*
X107372152Y-79515855D02*
X107372152Y-79134903D01*
X107038819Y-79372998D02*
X107895961Y-79372998D01*
X107895961Y-79372998D02*
X107991200Y-79325379D01*
X107991200Y-79325379D02*
X108038819Y-79230141D01*
X108038819Y-79230141D02*
X108038819Y-79134903D01*
%TO.C,H2*%
X103200000Y-128000000D02*
G75*
G02*
X96800000Y-128000000I-3200000J0D01*
G01*
X96800000Y-128000000D02*
G75*
G02*
X103200000Y-128000000I3200000J0D01*
G01*
%TO.C,H3*%
X127948737Y-94547727D02*
G75*
G02*
X121548737Y-94547727I-3200000J0D01*
G01*
X121548737Y-94547727D02*
G75*
G02*
X127948737Y-94547727I3200000J0D01*
G01*
%TO.C,H1*%
X58700000Y-121412000D02*
G75*
G02*
X54300000Y-121412000I-2200000J0D01*
G01*
X54300000Y-121412000D02*
G75*
G02*
X58700000Y-121412000I2200000J0D01*
G01*
%TO.C,H4*%
X147747727Y-74748737D02*
G75*
G02*
X141347727Y-74748737I-3200000J0D01*
G01*
X141347727Y-74748737D02*
G75*
G02*
X147747727Y-74748737I3200000J0D01*
G01*
%TO.C,H6*%
X65800000Y-62000000D02*
G75*
G02*
X60200000Y-62000000I-2800000J0D01*
G01*
X60200000Y-62000000D02*
G75*
G02*
X65800000Y-62000000I2800000J0D01*
G01*
%TO.C,H5*%
X65800000Y-43000000D02*
G75*
G02*
X60200000Y-43000000I-2800000J0D01*
G01*
X60200000Y-43000000D02*
G75*
G02*
X65800000Y-43000000I2800000J0D01*
G01*
%TO.C,H9*%
X129000000Y-114000000D02*
G75*
G02*
X119000000Y-114000000I-5000000J0D01*
G01*
X119000000Y-114000000D02*
G75*
G02*
X129000000Y-114000000I5000000J0D01*
G01*
%TO.C,H7*%
X139800000Y-43000000D02*
G75*
G02*
X134200000Y-43000000I-2800000J0D01*
G01*
X134200000Y-43000000D02*
G75*
G02*
X139800000Y-43000000I2800000J0D01*
G01*
%TO.C,H8*%
X139800000Y-62000000D02*
G75*
G02*
X134200000Y-62000000I-2800000J0D01*
G01*
X134200000Y-62000000D02*
G75*
G02*
X139800000Y-62000000I2800000J0D01*
G01*
%TD*%
M02*
