%TF.GenerationSoftware,KiCad,Pcbnew,7.0.9*%
%TF.CreationDate,2024-01-03T16:13:30+08:00*%
%TF.ProjectId,bottom-rounded,626f7474-6f6d-42d7-926f-756e6465642e,rev?*%
%TF.SameCoordinates,Original*%
%TF.FileFunction,Drillmap*%
%TF.FilePolarity,Positive*%
%FSLAX45Y45*%
G04 Gerber Fmt 4.5, Leading zero omitted, Abs format (unit mm)*
G04 Created by KiCad (PCBNEW 7.0.9) date 2024-01-03 16:13:30*
%MOMM*%
%LPD*%
G01*
G04 APERTURE LIST*
%ADD10C,0.200000*%
%ADD11C,0.100000*%
%ADD12C,0.102000*%
%ADD13C,0.130000*%
%ADD14C,0.330000*%
G04 APERTURE END LIST*
D10*
X12429468Y-3388551D02*
G75*
G03*
X12429468Y-3954237I282842J-282843D01*
G01*
X16143933Y-13961955D02*
G75*
G03*
X16400000Y-13855887I106067J106065D01*
G01*
X1856066Y-13961953D02*
X2388552Y-13429468D01*
X2700000Y-12100000D02*
X2700000Y-11500000D01*
X11493452Y-5474517D02*
G75*
G03*
X11493452Y-5474517I-160000J0D01*
G01*
X3657500Y-10000000D02*
G75*
G03*
X3657500Y-10000000I-157500J0D01*
G01*
X16143934Y-6038046D02*
X15611448Y-6570532D01*
X9900000Y-5100000D02*
X9900000Y-4500000D01*
X2700000Y-7900000D02*
X3300000Y-7900000D01*
X2388552Y-6570532D02*
G75*
G03*
X2954237Y-6570532I282843J282843D01*
G01*
X13064206Y-17246187D02*
X12429468Y-16611448D01*
X11100000Y-16700000D02*
X11100000Y-17300000D01*
X15611448Y-13429468D02*
G75*
G03*
X15045763Y-13429468I-282843J-282843D01*
G01*
X4598943Y-2300954D02*
X4607392Y-2281976D01*
X4619007Y-2264334D01*
X4624407Y-2257982D01*
X14657500Y-10000000D02*
G75*
G03*
X14657500Y-10000000I-157500J0D01*
G01*
X14604722Y-6747309D02*
G75*
G03*
X14604722Y-6747309I-160000J0D01*
G01*
X4641095Y-2459115D02*
X5570532Y-3388552D01*
X3715278Y-13252691D02*
G75*
G03*
X3715278Y-13252691I-160000J0D01*
G01*
X12429468Y-16045763D02*
X15045763Y-13429468D01*
X10383975Y-3200000D02*
G75*
G03*
X11683013Y-2450000I-1J1500001D01*
G01*
X4935790Y-17246184D02*
G75*
G03*
X4970755Y-17484329I106070J-106066D01*
G01*
X2700000Y-11500000D02*
X3300000Y-11500000D01*
X12429468Y-16045763D02*
G75*
G03*
X12429468Y-16611448I282844J-282843D01*
G01*
X6826548Y-5474517D02*
G75*
G03*
X6826548Y-5474517I-160000J0D01*
G01*
X3300000Y-11500000D02*
X3300000Y-12100000D01*
X6900000Y-16700000D02*
X7500000Y-16700000D01*
X16400000Y-13855887D02*
X16400000Y-6144112D01*
X2954237Y-13429468D02*
X5570532Y-16045763D01*
X12429468Y-3388552D02*
X13358905Y-2459115D01*
X13325744Y-2221958D02*
X13343216Y-2232024D01*
X13360509Y-2243984D01*
X13375239Y-2257596D01*
X13379865Y-2262930D01*
X6316987Y-2450000D02*
X5883975Y-1700000D01*
X3715278Y-6747309D02*
G75*
G03*
X3715278Y-6747309I-160000J0D01*
G01*
X16157500Y-6800000D02*
G75*
G03*
X16157500Y-6800000I-157500J0D01*
G01*
X8100000Y-4500000D02*
X8100000Y-5100000D01*
X16157500Y-10000000D02*
G75*
G03*
X16157500Y-10000000I-157500J0D01*
G01*
X14700000Y-11500000D02*
X15300000Y-11500000D01*
X2157500Y-13200000D02*
G75*
G03*
X2157500Y-13200000I-157500J0D01*
G01*
X14700000Y-7900000D02*
X15300000Y-7900000D01*
X5907309Y-4555278D02*
G75*
G03*
X5907309Y-4555278I-160000J0D01*
G01*
X4590043Y-2357973D02*
X4590887Y-2336294D01*
X4594312Y-2316542D01*
X4598943Y-2300954D01*
X15611448Y-13429468D02*
X16143934Y-13961953D01*
X4634517Y-7666548D02*
G75*
G03*
X4634517Y-7666548I-160000J0D01*
G01*
X16399998Y-6144112D02*
G75*
G03*
X16143934Y-6038046I-149998J3D01*
G01*
X7500000Y-5100000D02*
X7500000Y-4500000D01*
X6826548Y-14525483D02*
G75*
G03*
X6826548Y-14525483I-160000J0D01*
G01*
X7500000Y-4500000D02*
X8100000Y-4500000D01*
X14700000Y-12100000D02*
X14700000Y-11500000D01*
X5570532Y-3954237D02*
G75*
G03*
X5570532Y-3388552I-282844J282843D01*
G01*
X12155000Y-2900000D02*
G75*
G03*
X12155000Y-2900000I-155000J0D01*
G01*
X2954237Y-13429468D02*
G75*
G03*
X2388552Y-13429468I-282843J-282843D01*
G01*
X3300000Y-12100000D02*
X2700000Y-12100000D01*
X10500000Y-16700000D02*
X11100000Y-16700000D01*
X11255000Y-3700000D02*
G75*
G03*
X11255000Y-3700000I-155000J0D01*
G01*
X5787524Y-1700000D02*
G75*
G03*
X4674256Y-2221958I3212416J-8299870D01*
G01*
X2388552Y-6570532D02*
X1856066Y-6038046D01*
X13379865Y-2262930D02*
X13391491Y-2279936D01*
X13400004Y-2298097D01*
X13402671Y-2305725D01*
X5570532Y-16611448D02*
X4935794Y-17246187D01*
X16157500Y-13200000D02*
G75*
G03*
X16157500Y-13200000I-157500J0D01*
G01*
X13396918Y-2411112D02*
X13386378Y-2428395D01*
X13373003Y-2444611D01*
X13358905Y-2459115D01*
X10383975Y-3200000D02*
X7616025Y-3200000D01*
X15300000Y-12100000D02*
X14700000Y-12100000D01*
X6316987Y-2450000D02*
G75*
G03*
X7616025Y-3200000I1299038J749999D01*
G01*
X13685483Y-7666548D02*
G75*
G03*
X13685483Y-7666548I-160000J0D01*
G01*
X13409684Y-2363331D02*
X13406735Y-2383590D01*
X13400396Y-2403536D01*
X13396918Y-2411112D01*
X11493452Y-14525483D02*
G75*
G03*
X11493452Y-14525483I-160000J0D01*
G01*
X2157500Y-6800000D02*
G75*
G03*
X2157500Y-6800000I-157500J0D01*
G01*
X12116025Y-1700000D02*
X11683013Y-2450000D01*
X13685483Y-12333452D02*
G75*
G03*
X13685483Y-12333452I-160000J0D01*
G01*
X1856067Y-6038046D02*
G75*
G03*
X1600000Y-6144112I-106068J-106063D01*
G01*
X1600002Y-13855887D02*
G75*
G03*
X1856066Y-13961953I149998J-3D01*
G01*
X12212476Y-1700000D02*
X12116025Y-1700000D01*
X11100000Y-17300000D02*
X10500000Y-17300000D01*
X3300000Y-8500000D02*
X2700000Y-8500000D01*
X12412691Y-4555278D02*
G75*
G03*
X12412691Y-4555278I-160000J0D01*
G01*
X13325745Y-2221958D02*
G75*
G03*
X12212476Y-1700000I-4325795J-7778152D01*
G01*
X9900000Y-4500000D02*
X10500000Y-4500000D01*
X13029244Y-17484327D02*
G75*
G03*
X13064206Y-17246187I-71114J132077D01*
G01*
X7055000Y-3700000D02*
G75*
G03*
X7055000Y-3700000I-155000J0D01*
G01*
X6155000Y-2900000D02*
G75*
G03*
X6155000Y-2900000I-155000J0D01*
G01*
X1600000Y-6144112D02*
X1600000Y-13855887D01*
X7157500Y-17850000D02*
G75*
G03*
X7157500Y-17850000I-157500J0D01*
G01*
X15300000Y-7900000D02*
X15300000Y-8500000D01*
X12412691Y-15444722D02*
G75*
G03*
X12412691Y-15444722I-160000J0D01*
G01*
X4641095Y-2459115D02*
X4627037Y-2444652D01*
X4613662Y-2428445D01*
X4603209Y-2411363D01*
X4600218Y-2404983D01*
X13402671Y-2305725D02*
X13407809Y-2326926D01*
X13409911Y-2346978D01*
X13409684Y-2363331D01*
X4970755Y-17484329D02*
G75*
G03*
X13029245Y-17484329I4029245J7484330D01*
G01*
X15300000Y-8500000D02*
X14700000Y-8500000D01*
X14604722Y-13252691D02*
G75*
G03*
X14604722Y-13252691I-160000J0D01*
G01*
X4634517Y-12333452D02*
G75*
G03*
X4634517Y-12333452I-160000J0D01*
G01*
X11157500Y-17850000D02*
G75*
G03*
X11157500Y-17850000I-157500J0D01*
G01*
X2157500Y-10000000D02*
G75*
G03*
X2157500Y-10000000I-157500J0D01*
G01*
X10500000Y-17300000D02*
X10500000Y-16700000D01*
X4624407Y-2257982D02*
X4639320Y-2244116D01*
X4656675Y-2232089D01*
X4674256Y-2221958D01*
X3300000Y-7900000D02*
X3300000Y-8500000D01*
X15045763Y-6570532D02*
G75*
G03*
X15611448Y-6570532I282843J282843D01*
G01*
X8100000Y-5100000D02*
X7500000Y-5100000D01*
X5570532Y-16611449D02*
G75*
G03*
X5570532Y-16045763I-282842J282843D01*
G01*
X10500000Y-5100000D02*
X9900000Y-5100000D01*
X5907309Y-15444722D02*
G75*
G03*
X5907309Y-15444722I-160000J0D01*
G01*
X7500000Y-16700000D02*
X7500000Y-17300000D01*
X5883975Y-1700000D02*
X5787524Y-1700000D01*
X14700000Y-8500000D02*
X14700000Y-7900000D01*
X15300000Y-11500000D02*
X15300000Y-12100000D01*
X5570532Y-3954237D02*
X2954237Y-6570532D01*
X7500000Y-17300000D02*
X6900000Y-17300000D01*
X4600218Y-2404983D02*
X4593725Y-2385604D01*
X4590391Y-2364393D01*
X4590043Y-2357973D01*
X6900000Y-17300000D02*
X6900000Y-16700000D01*
X15045763Y-6570532D02*
X12429468Y-3954237D01*
X10500000Y-4500000D02*
X10500000Y-5100000D01*
X2700000Y-8500000D02*
X2700000Y-7900000D01*
D11*
X4013520Y-11994200D02*
X4053520Y-12034200D01*
X4053520Y-11994200D02*
X4013520Y-12034200D01*
X4023680Y-8387400D02*
X4063680Y-8427400D01*
X4063680Y-8387400D02*
X4023680Y-8427400D01*
X5085400Y-9505000D02*
X5125400Y-9545000D01*
X5125400Y-9505000D02*
X5085400Y-9545000D01*
X5987100Y-9174800D02*
X6027100Y-9214800D01*
X6027100Y-9174800D02*
X5987100Y-9214800D01*
X5987100Y-9809800D02*
X6027100Y-9849800D01*
X6027100Y-9809800D02*
X5987100Y-9849800D01*
X7092000Y-12426000D02*
X7132000Y-12466000D01*
X7132000Y-12426000D02*
X7092000Y-12466000D01*
X7092000Y-12680000D02*
X7132000Y-12720000D01*
X7132000Y-12680000D02*
X7092000Y-12720000D01*
X7219000Y-12172000D02*
X7259000Y-12212000D01*
X7259000Y-12172000D02*
X7219000Y-12212000D01*
X7282500Y-15915960D02*
X7322500Y-15955960D01*
X7322500Y-15915960D02*
X7282500Y-15955960D01*
X7329250Y-12760250D02*
X7369250Y-12800250D01*
X7369250Y-12760250D02*
X7329250Y-12800250D01*
X7361000Y-12538000D02*
X7401000Y-12578000D01*
X7401000Y-12538000D02*
X7361000Y-12578000D01*
X7424500Y-12347500D02*
X7464500Y-12387500D01*
X7464500Y-12347500D02*
X7424500Y-12387500D01*
X7561900Y-5816920D02*
X7601900Y-5856920D01*
X7601900Y-5816920D02*
X7561900Y-5856920D01*
X8499160Y-5319080D02*
X8539160Y-5359080D01*
X8539160Y-5319080D02*
X8499160Y-5359080D01*
X8870000Y-6584000D02*
X8910000Y-6624000D01*
X8910000Y-6584000D02*
X8870000Y-6624000D01*
X10241600Y-5852480D02*
X10281600Y-5892480D01*
X10281600Y-5852480D02*
X10241600Y-5892480D01*
X10876600Y-15921040D02*
X10916600Y-15961040D01*
X10916600Y-15921040D02*
X10876600Y-15961040D01*
X13914440Y-8082600D02*
X13954440Y-8122600D01*
X13954440Y-8082600D02*
X13914440Y-8122600D01*
X13929680Y-11689400D02*
X13969680Y-11729400D01*
X13969680Y-11689400D02*
X13929680Y-11729400D01*
X5125000Y-2286000D02*
G75*
G03*
X5125000Y-2286000I-45000J0D01*
G01*
X5125000Y-2540000D02*
G75*
G03*
X5125000Y-2540000I-45000J0D01*
G01*
X11595100Y-6924800D02*
X11595100Y-7019800D01*
X11547600Y-6972300D02*
X11642600Y-6972300D01*
X11595100Y-7174800D02*
X11595100Y-7269800D01*
X11547600Y-7222300D02*
X11642600Y-7222300D01*
X11595100Y-7424800D02*
X11595100Y-7519800D01*
X11547600Y-7472300D02*
X11642600Y-7472300D01*
X11595100Y-7674800D02*
X11595100Y-7769800D01*
X11547600Y-7722300D02*
X11642600Y-7722300D01*
X2778556Y-7801720D02*
X2778556Y-7731008D01*
X2707844Y-7731008D01*
X2707844Y-7801720D01*
X2778556Y-7801720D01*
X2778556Y-11408520D02*
X2778556Y-11337808D01*
X2707844Y-11337808D01*
X2707844Y-11408520D01*
X2778556Y-11408520D01*
X3032556Y-7801720D02*
X3032556Y-7731008D01*
X2961844Y-7731008D01*
X2961844Y-7801720D01*
X3032556Y-7801720D01*
X3032556Y-11408520D02*
X3032556Y-11337808D01*
X2961844Y-11337808D01*
X2961844Y-11408520D01*
X3032556Y-11408520D01*
X3286556Y-7801720D02*
X3286556Y-7731008D01*
X3215844Y-7731008D01*
X3215844Y-7801720D01*
X3286556Y-7801720D01*
X3286556Y-11408520D02*
X3286556Y-11337808D01*
X3215844Y-11337808D01*
X3215844Y-11408520D01*
X3286556Y-11408520D01*
X5548856Y-11276856D02*
X5548856Y-11206144D01*
X5478144Y-11206144D01*
X5478144Y-11276856D01*
X5548856Y-11276856D01*
X5548856Y-11526856D02*
X5548856Y-11456144D01*
X5478144Y-11456144D01*
X5478144Y-11526856D01*
X5548856Y-11526856D01*
X5559856Y-8167356D02*
X5559856Y-8096644D01*
X5489144Y-8096644D01*
X5489144Y-8167356D01*
X5559856Y-8167356D01*
X5559856Y-8417356D02*
X5559856Y-8346644D01*
X5489144Y-8346644D01*
X5489144Y-8417356D01*
X5559856Y-8417356D01*
X6512356Y-8167356D02*
X6512356Y-8096644D01*
X6441644Y-8096644D01*
X6441644Y-8167356D01*
X6512356Y-8167356D01*
X6512356Y-8417356D02*
X6512356Y-8346644D01*
X6441644Y-8346644D01*
X6441644Y-8417356D01*
X6512356Y-8417356D01*
X6829856Y-12227356D02*
X6829856Y-12156644D01*
X6759144Y-12156644D01*
X6759144Y-12227356D01*
X6829856Y-12227356D01*
X6829856Y-12481356D02*
X6829856Y-12410644D01*
X6759144Y-12410644D01*
X6759144Y-12481356D01*
X6829856Y-12481356D01*
X6829856Y-12735356D02*
X6829856Y-12664644D01*
X6759144Y-12664644D01*
X6759144Y-12735356D01*
X6829856Y-12735356D01*
X7337856Y-9306356D02*
X7337856Y-9235644D01*
X7267144Y-9235644D01*
X7267144Y-9306356D01*
X7337856Y-9306356D01*
X7337856Y-9560356D02*
X7337856Y-9489644D01*
X7267144Y-9489644D01*
X7267144Y-9560356D01*
X7337856Y-9560356D01*
X7337856Y-9814356D02*
X7337856Y-9743644D01*
X7267144Y-9743644D01*
X7267144Y-9814356D01*
X7337856Y-9814356D01*
X7337856Y-10068356D02*
X7337856Y-9997644D01*
X7267144Y-9997644D01*
X7267144Y-10068356D01*
X7337856Y-10068356D01*
X7674091Y-16786656D02*
X7674091Y-16715944D01*
X7603380Y-16715944D01*
X7603380Y-16786656D01*
X7674091Y-16786656D01*
X7674091Y-17040656D02*
X7674091Y-16969944D01*
X7603380Y-16969944D01*
X7603380Y-17040656D01*
X7674091Y-17040656D01*
X7674091Y-17294656D02*
X7674091Y-17223944D01*
X7603380Y-17223944D01*
X7603380Y-17294656D01*
X7674091Y-17294656D01*
X8099856Y-14703856D02*
X8099856Y-14633144D01*
X8029144Y-14633144D01*
X8029144Y-14703856D01*
X8099856Y-14703856D01*
X8264956Y-4581956D02*
X8264956Y-4511244D01*
X8194244Y-4511244D01*
X8194244Y-4581956D01*
X8264956Y-4581956D01*
X8264956Y-4835956D02*
X8264956Y-4765244D01*
X8194244Y-4765244D01*
X8194244Y-4835956D01*
X8264956Y-4835956D01*
X8264956Y-5089956D02*
X8264956Y-5019244D01*
X8194244Y-5019244D01*
X8194244Y-5089956D01*
X8264956Y-5089956D01*
X10671292Y-4581956D02*
X10671292Y-4511244D01*
X10600580Y-4511244D01*
X10600580Y-4581956D01*
X10671292Y-4581956D01*
X10671292Y-4835956D02*
X10671292Y-4765244D01*
X10600580Y-4765244D01*
X10600580Y-4835956D01*
X10671292Y-4835956D01*
X10671292Y-5089956D02*
X10671292Y-5019244D01*
X10600580Y-5019244D01*
X10600580Y-5089956D01*
X10671292Y-5089956D01*
X10703356Y-9433356D02*
X10703356Y-9362644D01*
X10632644Y-9362644D01*
X10632644Y-9433356D01*
X10703356Y-9433356D01*
X10703356Y-9750856D02*
X10703356Y-9680144D01*
X10632644Y-9680144D01*
X10632644Y-9750856D01*
X10703356Y-9750856D01*
X10703356Y-10004856D02*
X10703356Y-9934144D01*
X10632644Y-9934144D01*
X10632644Y-10004856D01*
X10703356Y-10004856D01*
X10703356Y-10258856D02*
X10703356Y-10188144D01*
X10632644Y-10188144D01*
X10632644Y-10258856D01*
X10703356Y-10258856D01*
X10703356Y-10512856D02*
X10703356Y-10442144D01*
X10632644Y-10442144D01*
X10632644Y-10512856D01*
X10703356Y-10512856D01*
X10703356Y-10766856D02*
X10703356Y-10696144D01*
X10632644Y-10696144D01*
X10632644Y-10766856D01*
X10703356Y-10766856D01*
X10703356Y-11020856D02*
X10703356Y-10950144D01*
X10632644Y-10950144D01*
X10632644Y-11020856D01*
X10703356Y-11020856D01*
X10703356Y-11274856D02*
X10703356Y-11204144D01*
X10632644Y-11204144D01*
X10632644Y-11274856D01*
X10703356Y-11274856D01*
X10703356Y-11528856D02*
X10703356Y-11458144D01*
X10632644Y-11458144D01*
X10632644Y-11528856D01*
X10703356Y-11528856D01*
X10703356Y-11782856D02*
X10703356Y-11712144D01*
X10632644Y-11712144D01*
X10632644Y-11782856D01*
X10703356Y-11782856D01*
X10703356Y-12036856D02*
X10703356Y-11966144D01*
X10632644Y-11966144D01*
X10632644Y-12036856D01*
X10703356Y-12036856D01*
X10703356Y-12925856D02*
X10703356Y-12855144D01*
X10632644Y-12855144D01*
X10632644Y-12925856D01*
X10703356Y-12925856D01*
X10703356Y-13179856D02*
X10703356Y-13109144D01*
X10632644Y-13109144D01*
X10632644Y-13179856D01*
X10703356Y-13179856D01*
X10703356Y-13433856D02*
X10703356Y-13363144D01*
X10632644Y-13363144D01*
X10632644Y-13433856D01*
X10703356Y-13433856D01*
X10703356Y-13687856D02*
X10703356Y-13617144D01*
X10632644Y-13617144D01*
X10632644Y-13687856D01*
X10703356Y-13687856D01*
X10703356Y-13941856D02*
X10703356Y-13871144D01*
X10632644Y-13871144D01*
X10632644Y-13941856D01*
X10703356Y-13941856D01*
X11268191Y-16786656D02*
X11268191Y-16715944D01*
X11197480Y-16715944D01*
X11197480Y-16786656D01*
X11268191Y-16786656D01*
X11268191Y-17040656D02*
X11268191Y-16969944D01*
X11197480Y-16969944D01*
X11197480Y-17040656D01*
X11268191Y-17040656D01*
X11268191Y-17294656D02*
X11268191Y-17223944D01*
X11197480Y-17223944D01*
X11197480Y-17294656D01*
X11268191Y-17294656D01*
X11349356Y-11784856D02*
X11349356Y-11714144D01*
X11278644Y-11714144D01*
X11278644Y-11784856D01*
X11349356Y-11784856D01*
X11349356Y-12034856D02*
X11349356Y-11964144D01*
X11278644Y-11964144D01*
X11278644Y-12034856D01*
X11349356Y-12034856D01*
X11810214Y-4327987D02*
X11810214Y-4257275D01*
X11739502Y-4257275D01*
X11739502Y-4327987D01*
X11810214Y-4327987D01*
X11989819Y-4148381D02*
X11989819Y-4077670D01*
X11919108Y-4077670D01*
X11919108Y-4148381D01*
X11989819Y-4148381D01*
X12011456Y-2439089D02*
X12011456Y-2368377D01*
X11940744Y-2368377D01*
X11940744Y-2439089D01*
X12011456Y-2439089D01*
X12138456Y-2219118D02*
X12138456Y-2148407D01*
X12067744Y-2148407D01*
X12067744Y-2219118D01*
X12138456Y-2219118D01*
X12169424Y-3968776D02*
X12169424Y-3898065D01*
X12098713Y-3898065D01*
X12098713Y-3968776D01*
X12169424Y-3968776D01*
X12265456Y-1999148D02*
X12265456Y-1928436D01*
X12194744Y-1928436D01*
X12194744Y-1999148D01*
X12265456Y-1999148D01*
X12989356Y-9560356D02*
X12989356Y-9489644D01*
X12918644Y-9489644D01*
X12918644Y-9560356D01*
X12989356Y-9560356D01*
X12989356Y-9810356D02*
X12989356Y-9739644D01*
X12918644Y-9739644D01*
X12918644Y-9810356D01*
X12989356Y-9810356D01*
X14780056Y-7798356D02*
X14780056Y-7727644D01*
X14709344Y-7727644D01*
X14709344Y-7798356D01*
X14780056Y-7798356D01*
X14780056Y-11395820D02*
X14780056Y-11325108D01*
X14709344Y-11325108D01*
X14709344Y-11395820D01*
X14780056Y-11395820D01*
X15034056Y-7798356D02*
X15034056Y-7727644D01*
X14963344Y-7727644D01*
X14963344Y-7798356D01*
X15034056Y-7798356D01*
X15034056Y-11395820D02*
X15034056Y-11325108D01*
X14963344Y-11325108D01*
X14963344Y-11395820D01*
X15034056Y-11395820D01*
X15288056Y-7798356D02*
X15288056Y-7727644D01*
X15217344Y-7727644D01*
X15217344Y-7798356D01*
X15288056Y-7798356D01*
X15288056Y-11395820D02*
X15288056Y-11325108D01*
X15217344Y-11325108D01*
X15217344Y-11395820D01*
X15288056Y-11395820D01*
D12*
X7645400Y-6731200D02*
X7696400Y-6680200D01*
X7645400Y-6629200D01*
X7594400Y-6680200D01*
X7645400Y-6731200D01*
X7645400Y-6985200D02*
X7696400Y-6934200D01*
X7645400Y-6883200D01*
X7594400Y-6934200D01*
X7645400Y-6985200D01*
X7645400Y-7874200D02*
X7696400Y-7823200D01*
X7645400Y-7772200D01*
X7594400Y-7823200D01*
X7645400Y-7874200D01*
X7645400Y-8128200D02*
X7696400Y-8077200D01*
X7645400Y-8026200D01*
X7594400Y-8077200D01*
X7645400Y-8128200D01*
X8075000Y-9493000D02*
X8126000Y-9442000D01*
X8075000Y-9391000D01*
X8024000Y-9442000D01*
X8075000Y-9493000D01*
X8075000Y-9747000D02*
X8126000Y-9696000D01*
X8075000Y-9645000D01*
X8024000Y-9696000D01*
X8075000Y-9747000D01*
X8075000Y-10001000D02*
X8126000Y-9950000D01*
X8075000Y-9899000D01*
X8024000Y-9950000D01*
X8075000Y-10001000D01*
X8075000Y-10255000D02*
X8126000Y-10204000D01*
X8075000Y-10153000D01*
X8024000Y-10204000D01*
X8075000Y-10255000D01*
X8075000Y-10509000D02*
X8126000Y-10458000D01*
X8075000Y-10407000D01*
X8024000Y-10458000D01*
X8075000Y-10509000D01*
X8075000Y-10763000D02*
X8126000Y-10712000D01*
X8075000Y-10661000D01*
X8024000Y-10712000D01*
X8075000Y-10763000D01*
X8075000Y-11017000D02*
X8126000Y-10966000D01*
X8075000Y-10915000D01*
X8024000Y-10966000D01*
X8075000Y-11017000D01*
X8075000Y-11271000D02*
X8126000Y-11220000D01*
X8075000Y-11169000D01*
X8024000Y-11220000D01*
X8075000Y-11271000D01*
X8075000Y-11525000D02*
X8126000Y-11474000D01*
X8075000Y-11423000D01*
X8024000Y-11474000D01*
X8075000Y-11525000D01*
X8075000Y-11779000D02*
X8126000Y-11728000D01*
X8075000Y-11677000D01*
X8024000Y-11728000D01*
X8075000Y-11779000D01*
X8075000Y-12033000D02*
X8126000Y-11982000D01*
X8075000Y-11931000D01*
X8024000Y-11982000D01*
X8075000Y-12033000D01*
X8075000Y-12287000D02*
X8126000Y-12236000D01*
X8075000Y-12185000D01*
X8024000Y-12236000D01*
X8075000Y-12287000D01*
X8075000Y-12541000D02*
X8126000Y-12490000D01*
X8075000Y-12439000D01*
X8024000Y-12490000D01*
X8075000Y-12541000D01*
X8075000Y-12795000D02*
X8126000Y-12744000D01*
X8075000Y-12693000D01*
X8024000Y-12744000D01*
X8075000Y-12795000D01*
X8075000Y-13049000D02*
X8126000Y-12998000D01*
X8075000Y-12947000D01*
X8024000Y-12998000D01*
X8075000Y-13049000D01*
X8075000Y-13303000D02*
X8126000Y-13252000D01*
X8075000Y-13201000D01*
X8024000Y-13252000D01*
X8075000Y-13303000D01*
X8075000Y-13557000D02*
X8126000Y-13506000D01*
X8075000Y-13455000D01*
X8024000Y-13506000D01*
X8075000Y-13557000D01*
X8075000Y-13811000D02*
X8126000Y-13760000D01*
X8075000Y-13709000D01*
X8024000Y-13760000D01*
X8075000Y-13811000D01*
X8075000Y-14065000D02*
X8126000Y-14014000D01*
X8075000Y-13963000D01*
X8024000Y-14014000D01*
X8075000Y-14065000D01*
X8075000Y-14319000D02*
X8126000Y-14268000D01*
X8075000Y-14217000D01*
X8024000Y-14268000D01*
X8075000Y-14319000D01*
X8255373Y-6135086D02*
X8306373Y-6084086D01*
X8255373Y-6033086D01*
X8204373Y-6084086D01*
X8255373Y-6135086D01*
X8255373Y-8735086D02*
X8306373Y-8684086D01*
X8255373Y-8633086D01*
X8204373Y-8684086D01*
X8255373Y-8735086D01*
X8509373Y-6135086D02*
X8560373Y-6084086D01*
X8509373Y-6033086D01*
X8458373Y-6084086D01*
X8509373Y-6135086D01*
X8509373Y-8735086D02*
X8560373Y-8684086D01*
X8509373Y-8633086D01*
X8458373Y-8684086D01*
X8509373Y-8735086D01*
X9398373Y-6135086D02*
X9449373Y-6084086D01*
X9398373Y-6033086D01*
X9347373Y-6084086D01*
X9398373Y-6135086D01*
X9398373Y-8735086D02*
X9449373Y-8684086D01*
X9398373Y-8633086D01*
X9347373Y-8684086D01*
X9398373Y-8735086D01*
X9652373Y-6135086D02*
X9703373Y-6084086D01*
X9652373Y-6033086D01*
X9601373Y-6084086D01*
X9652373Y-6135086D01*
X9652373Y-8735086D02*
X9703373Y-8684086D01*
X9652373Y-8633086D01*
X9601373Y-8684086D01*
X9652373Y-8735086D01*
X9853000Y-9493000D02*
X9904000Y-9442000D01*
X9853000Y-9391000D01*
X9802000Y-9442000D01*
X9853000Y-9493000D01*
X9853000Y-9747000D02*
X9904000Y-9696000D01*
X9853000Y-9645000D01*
X9802000Y-9696000D01*
X9853000Y-9747000D01*
X9853000Y-10001000D02*
X9904000Y-9950000D01*
X9853000Y-9899000D01*
X9802000Y-9950000D01*
X9853000Y-10001000D01*
X9853000Y-10255000D02*
X9904000Y-10204000D01*
X9853000Y-10153000D01*
X9802000Y-10204000D01*
X9853000Y-10255000D01*
X9853000Y-10509000D02*
X9904000Y-10458000D01*
X9853000Y-10407000D01*
X9802000Y-10458000D01*
X9853000Y-10509000D01*
X9853000Y-10763000D02*
X9904000Y-10712000D01*
X9853000Y-10661000D01*
X9802000Y-10712000D01*
X9853000Y-10763000D01*
X9853000Y-11017000D02*
X9904000Y-10966000D01*
X9853000Y-10915000D01*
X9802000Y-10966000D01*
X9853000Y-11017000D01*
X9853000Y-11271000D02*
X9904000Y-11220000D01*
X9853000Y-11169000D01*
X9802000Y-11220000D01*
X9853000Y-11271000D01*
X9853000Y-11525000D02*
X9904000Y-11474000D01*
X9853000Y-11423000D01*
X9802000Y-11474000D01*
X9853000Y-11525000D01*
X9853000Y-11779000D02*
X9904000Y-11728000D01*
X9853000Y-11677000D01*
X9802000Y-11728000D01*
X9853000Y-11779000D01*
X9853000Y-12033000D02*
X9904000Y-11982000D01*
X9853000Y-11931000D01*
X9802000Y-11982000D01*
X9853000Y-12033000D01*
X9853000Y-12287000D02*
X9904000Y-12236000D01*
X9853000Y-12185000D01*
X9802000Y-12236000D01*
X9853000Y-12287000D01*
X9853000Y-12541000D02*
X9904000Y-12490000D01*
X9853000Y-12439000D01*
X9802000Y-12490000D01*
X9853000Y-12541000D01*
X9853000Y-12795000D02*
X9904000Y-12744000D01*
X9853000Y-12693000D01*
X9802000Y-12744000D01*
X9853000Y-12795000D01*
X9853000Y-13049000D02*
X9904000Y-12998000D01*
X9853000Y-12947000D01*
X9802000Y-12998000D01*
X9853000Y-13049000D01*
X9853000Y-13303000D02*
X9904000Y-13252000D01*
X9853000Y-13201000D01*
X9802000Y-13252000D01*
X9853000Y-13303000D01*
X9853000Y-13557000D02*
X9904000Y-13506000D01*
X9853000Y-13455000D01*
X9802000Y-13506000D01*
X9853000Y-13557000D01*
X9853000Y-13811000D02*
X9904000Y-13760000D01*
X9853000Y-13709000D01*
X9802000Y-13760000D01*
X9853000Y-13811000D01*
X9853000Y-14065000D02*
X9904000Y-14014000D01*
X9853000Y-13963000D01*
X9802000Y-14014000D01*
X9853000Y-14065000D01*
X9853000Y-14319000D02*
X9904000Y-14268000D01*
X9853000Y-14217000D01*
X9802000Y-14268000D01*
X9853000Y-14319000D01*
X10245400Y-6731200D02*
X10296400Y-6680200D01*
X10245400Y-6629200D01*
X10194400Y-6680200D01*
X10245400Y-6731200D01*
X10245400Y-6985200D02*
X10296400Y-6934200D01*
X10245400Y-6883200D01*
X10194400Y-6934200D01*
X10245400Y-6985200D01*
X10245400Y-7874200D02*
X10296400Y-7823200D01*
X10245400Y-7772200D01*
X10194400Y-7823200D01*
X10245400Y-7874200D01*
X10245400Y-8128200D02*
X10296400Y-8077200D01*
X10245400Y-8026200D01*
X10194400Y-8077200D01*
X10245400Y-8128200D01*
D13*
X11238000Y-8861204D02*
X11368000Y-8991204D01*
X11368000Y-8861204D02*
X11238000Y-8991204D01*
X11368000Y-8926204D02*
G75*
G03*
X11368000Y-8926204I-65000J0D01*
G01*
X11238000Y-10311204D02*
X11368000Y-10441204D01*
X11368000Y-10311204D02*
X11238000Y-10441204D01*
X11368000Y-10376204D02*
G75*
G03*
X11368000Y-10376204I-65000J0D01*
G01*
X12048000Y-10311204D02*
X12178000Y-10441204D01*
X12178000Y-10311204D02*
X12048000Y-10441204D01*
X12178000Y-10376204D02*
G75*
G03*
X12178000Y-10376204I-65000J0D01*
G01*
X12049220Y-8861204D02*
X12179220Y-8991204D01*
X12179220Y-8861204D02*
X12049220Y-8991204D01*
X12179220Y-8926204D02*
G75*
G03*
X12179220Y-8926204I-65000J0D01*
G01*
D14*
X2832200Y-8601364D02*
X3162200Y-8931364D01*
X3162200Y-8601364D02*
X2832200Y-8931364D01*
X2997200Y-8601364D02*
X2997200Y-8931364D01*
X2832200Y-8766364D02*
X3162200Y-8766364D01*
X2832200Y-12208164D02*
X3162200Y-12538164D01*
X3162200Y-12208164D02*
X2832200Y-12538164D01*
X2997200Y-12208164D02*
X2997200Y-12538164D01*
X2832200Y-12373164D02*
X3162200Y-12373164D01*
X6473736Y-16840300D02*
X6803736Y-17170300D01*
X6803736Y-16840300D02*
X6473736Y-17170300D01*
X6638736Y-16840300D02*
X6638736Y-17170300D01*
X6473736Y-17005300D02*
X6803736Y-17005300D01*
X7064600Y-4635600D02*
X7394600Y-4965600D01*
X7394600Y-4635600D02*
X7064600Y-4965600D01*
X7229600Y-4635600D02*
X7229600Y-4965600D01*
X7064600Y-4800600D02*
X7394600Y-4800600D01*
X9470936Y-4635600D02*
X9800936Y-4965600D01*
X9800936Y-4635600D02*
X9470936Y-4965600D01*
X9635936Y-4635600D02*
X9635936Y-4965600D01*
X9470936Y-4800600D02*
X9800936Y-4800600D01*
X10067836Y-16840300D02*
X10397836Y-17170300D01*
X10397836Y-16840300D02*
X10067836Y-17170300D01*
X10232836Y-16840300D02*
X10232836Y-17170300D01*
X10067836Y-17005300D02*
X10397836Y-17005300D01*
X14833700Y-8598000D02*
X15163700Y-8928000D01*
X15163700Y-8598000D02*
X14833700Y-8928000D01*
X14998700Y-8598000D02*
X14998700Y-8928000D01*
X14833700Y-8763000D02*
X15163700Y-8763000D01*
X14833700Y-12195464D02*
X15163700Y-12525464D01*
X15163700Y-12195464D02*
X14833700Y-12525464D01*
X14998700Y-12195464D02*
X14998700Y-12525464D01*
X14833700Y-12360464D02*
X15163700Y-12360464D01*
D10*
X1850777Y-18821484D02*
X1850777Y-18621484D01*
X1850777Y-18621484D02*
X1898396Y-18621484D01*
X1898396Y-18621484D02*
X1926967Y-18631008D01*
X1926967Y-18631008D02*
X1946015Y-18650055D01*
X1946015Y-18650055D02*
X1955539Y-18669103D01*
X1955539Y-18669103D02*
X1965062Y-18707198D01*
X1965062Y-18707198D02*
X1965062Y-18735770D01*
X1965062Y-18735770D02*
X1955539Y-18773865D01*
X1955539Y-18773865D02*
X1946015Y-18792912D01*
X1946015Y-18792912D02*
X1926967Y-18811960D01*
X1926967Y-18811960D02*
X1898396Y-18821484D01*
X1898396Y-18821484D02*
X1850777Y-18821484D01*
X2050777Y-18821484D02*
X2050777Y-18688150D01*
X2050777Y-18726246D02*
X2060301Y-18707198D01*
X2060301Y-18707198D02*
X2069824Y-18697674D01*
X2069824Y-18697674D02*
X2088872Y-18688150D01*
X2088872Y-18688150D02*
X2107920Y-18688150D01*
X2174586Y-18821484D02*
X2174586Y-18688150D01*
X2174586Y-18621484D02*
X2165063Y-18631008D01*
X2165063Y-18631008D02*
X2174586Y-18640531D01*
X2174586Y-18640531D02*
X2184110Y-18631008D01*
X2184110Y-18631008D02*
X2174586Y-18621484D01*
X2174586Y-18621484D02*
X2174586Y-18640531D01*
X2298396Y-18821484D02*
X2279348Y-18811960D01*
X2279348Y-18811960D02*
X2269824Y-18792912D01*
X2269824Y-18792912D02*
X2269824Y-18621484D01*
X2403158Y-18821484D02*
X2384110Y-18811960D01*
X2384110Y-18811960D02*
X2374586Y-18792912D01*
X2374586Y-18792912D02*
X2374586Y-18621484D01*
X2631729Y-18821484D02*
X2631729Y-18621484D01*
X2631729Y-18621484D02*
X2698396Y-18764341D01*
X2698396Y-18764341D02*
X2765063Y-18621484D01*
X2765063Y-18621484D02*
X2765063Y-18821484D01*
X2946015Y-18821484D02*
X2946015Y-18716722D01*
X2946015Y-18716722D02*
X2936491Y-18697674D01*
X2936491Y-18697674D02*
X2917443Y-18688150D01*
X2917443Y-18688150D02*
X2879348Y-18688150D01*
X2879348Y-18688150D02*
X2860301Y-18697674D01*
X2946015Y-18811960D02*
X2926967Y-18821484D01*
X2926967Y-18821484D02*
X2879348Y-18821484D01*
X2879348Y-18821484D02*
X2860301Y-18811960D01*
X2860301Y-18811960D02*
X2850777Y-18792912D01*
X2850777Y-18792912D02*
X2850777Y-18773865D01*
X2850777Y-18773865D02*
X2860301Y-18754817D01*
X2860301Y-18754817D02*
X2879348Y-18745293D01*
X2879348Y-18745293D02*
X2926967Y-18745293D01*
X2926967Y-18745293D02*
X2946015Y-18735770D01*
X3041253Y-18688150D02*
X3041253Y-18888150D01*
X3041253Y-18697674D02*
X3060301Y-18688150D01*
X3060301Y-18688150D02*
X3098396Y-18688150D01*
X3098396Y-18688150D02*
X3117443Y-18697674D01*
X3117443Y-18697674D02*
X3126967Y-18707198D01*
X3126967Y-18707198D02*
X3136491Y-18726246D01*
X3136491Y-18726246D02*
X3136491Y-18783389D01*
X3136491Y-18783389D02*
X3126967Y-18802436D01*
X3126967Y-18802436D02*
X3117443Y-18811960D01*
X3117443Y-18811960D02*
X3098396Y-18821484D01*
X3098396Y-18821484D02*
X3060301Y-18821484D01*
X3060301Y-18821484D02*
X3041253Y-18811960D01*
X3222205Y-18802436D02*
X3231729Y-18811960D01*
X3231729Y-18811960D02*
X3222205Y-18821484D01*
X3222205Y-18821484D02*
X3212682Y-18811960D01*
X3212682Y-18811960D02*
X3222205Y-18802436D01*
X3222205Y-18802436D02*
X3222205Y-18821484D01*
X3222205Y-18697674D02*
X3231729Y-18707198D01*
X3231729Y-18707198D02*
X3222205Y-18716722D01*
X3222205Y-18716722D02*
X3212682Y-18707198D01*
X3212682Y-18707198D02*
X3222205Y-18697674D01*
X3222205Y-18697674D02*
X3222205Y-18716722D01*
D11*
X1550000Y-19130000D02*
X1590000Y-19170000D01*
X1590000Y-19130000D02*
X1550000Y-19170000D01*
D10*
X1888872Y-19041484D02*
X1907920Y-19041484D01*
X1907920Y-19041484D02*
X1926967Y-19051008D01*
X1926967Y-19051008D02*
X1936491Y-19060531D01*
X1936491Y-19060531D02*
X1946015Y-19079579D01*
X1946015Y-19079579D02*
X1955539Y-19117674D01*
X1955539Y-19117674D02*
X1955539Y-19165293D01*
X1955539Y-19165293D02*
X1946015Y-19203389D01*
X1946015Y-19203389D02*
X1936491Y-19222436D01*
X1936491Y-19222436D02*
X1926967Y-19231960D01*
X1926967Y-19231960D02*
X1907920Y-19241484D01*
X1907920Y-19241484D02*
X1888872Y-19241484D01*
X1888872Y-19241484D02*
X1869824Y-19231960D01*
X1869824Y-19231960D02*
X1860301Y-19222436D01*
X1860301Y-19222436D02*
X1850777Y-19203389D01*
X1850777Y-19203389D02*
X1841253Y-19165293D01*
X1841253Y-19165293D02*
X1841253Y-19117674D01*
X1841253Y-19117674D02*
X1850777Y-19079579D01*
X1850777Y-19079579D02*
X1860301Y-19060531D01*
X1860301Y-19060531D02*
X1869824Y-19051008D01*
X1869824Y-19051008D02*
X1888872Y-19041484D01*
X2041253Y-19222436D02*
X2050777Y-19231960D01*
X2050777Y-19231960D02*
X2041253Y-19241484D01*
X2041253Y-19241484D02*
X2031729Y-19231960D01*
X2031729Y-19231960D02*
X2041253Y-19222436D01*
X2041253Y-19222436D02*
X2041253Y-19241484D01*
X2222205Y-19108150D02*
X2222205Y-19241484D01*
X2174586Y-19031960D02*
X2126967Y-19174817D01*
X2126967Y-19174817D02*
X2250777Y-19174817D01*
X2365063Y-19041484D02*
X2384110Y-19041484D01*
X2384110Y-19041484D02*
X2403158Y-19051008D01*
X2403158Y-19051008D02*
X2412682Y-19060531D01*
X2412682Y-19060531D02*
X2422205Y-19079579D01*
X2422205Y-19079579D02*
X2431729Y-19117674D01*
X2431729Y-19117674D02*
X2431729Y-19165293D01*
X2431729Y-19165293D02*
X2422205Y-19203389D01*
X2422205Y-19203389D02*
X2412682Y-19222436D01*
X2412682Y-19222436D02*
X2403158Y-19231960D01*
X2403158Y-19231960D02*
X2384110Y-19241484D01*
X2384110Y-19241484D02*
X2365063Y-19241484D01*
X2365063Y-19241484D02*
X2346015Y-19231960D01*
X2346015Y-19231960D02*
X2336491Y-19222436D01*
X2336491Y-19222436D02*
X2326967Y-19203389D01*
X2326967Y-19203389D02*
X2317444Y-19165293D01*
X2317444Y-19165293D02*
X2317444Y-19117674D01*
X2317444Y-19117674D02*
X2326967Y-19079579D01*
X2326967Y-19079579D02*
X2336491Y-19060531D01*
X2336491Y-19060531D02*
X2346015Y-19051008D01*
X2346015Y-19051008D02*
X2365063Y-19041484D01*
X2555539Y-19041484D02*
X2574586Y-19041484D01*
X2574586Y-19041484D02*
X2593634Y-19051008D01*
X2593634Y-19051008D02*
X2603158Y-19060531D01*
X2603158Y-19060531D02*
X2612682Y-19079579D01*
X2612682Y-19079579D02*
X2622205Y-19117674D01*
X2622205Y-19117674D02*
X2622205Y-19165293D01*
X2622205Y-19165293D02*
X2612682Y-19203389D01*
X2612682Y-19203389D02*
X2603158Y-19222436D01*
X2603158Y-19222436D02*
X2593634Y-19231960D01*
X2593634Y-19231960D02*
X2574586Y-19241484D01*
X2574586Y-19241484D02*
X2555539Y-19241484D01*
X2555539Y-19241484D02*
X2536491Y-19231960D01*
X2536491Y-19231960D02*
X2526967Y-19222436D01*
X2526967Y-19222436D02*
X2517444Y-19203389D01*
X2517444Y-19203389D02*
X2507920Y-19165293D01*
X2507920Y-19165293D02*
X2507920Y-19117674D01*
X2507920Y-19117674D02*
X2517444Y-19079579D01*
X2517444Y-19079579D02*
X2526967Y-19060531D01*
X2526967Y-19060531D02*
X2536491Y-19051008D01*
X2536491Y-19051008D02*
X2555539Y-19041484D01*
X2707920Y-19241484D02*
X2707920Y-19108150D01*
X2707920Y-19127198D02*
X2717444Y-19117674D01*
X2717444Y-19117674D02*
X2736491Y-19108150D01*
X2736491Y-19108150D02*
X2765063Y-19108150D01*
X2765063Y-19108150D02*
X2784110Y-19117674D01*
X2784110Y-19117674D02*
X2793634Y-19136722D01*
X2793634Y-19136722D02*
X2793634Y-19241484D01*
X2793634Y-19136722D02*
X2803158Y-19117674D01*
X2803158Y-19117674D02*
X2822205Y-19108150D01*
X2822205Y-19108150D02*
X2850777Y-19108150D01*
X2850777Y-19108150D02*
X2869824Y-19117674D01*
X2869824Y-19117674D02*
X2879348Y-19136722D01*
X2879348Y-19136722D02*
X2879348Y-19241484D01*
X2974586Y-19241484D02*
X2974586Y-19108150D01*
X2974586Y-19127198D02*
X2984110Y-19117674D01*
X2984110Y-19117674D02*
X3003158Y-19108150D01*
X3003158Y-19108150D02*
X3031729Y-19108150D01*
X3031729Y-19108150D02*
X3050777Y-19117674D01*
X3050777Y-19117674D02*
X3060301Y-19136722D01*
X3060301Y-19136722D02*
X3060301Y-19241484D01*
X3060301Y-19136722D02*
X3069824Y-19117674D01*
X3069824Y-19117674D02*
X3088872Y-19108150D01*
X3088872Y-19108150D02*
X3117443Y-19108150D01*
X3117443Y-19108150D02*
X3136491Y-19117674D01*
X3136491Y-19117674D02*
X3146015Y-19136722D01*
X3146015Y-19136722D02*
X3146015Y-19241484D01*
X3536491Y-19031960D02*
X3365063Y-19289103D01*
X3793634Y-19041484D02*
X3812682Y-19041484D01*
X3812682Y-19041484D02*
X3831729Y-19051008D01*
X3831729Y-19051008D02*
X3841253Y-19060531D01*
X3841253Y-19060531D02*
X3850777Y-19079579D01*
X3850777Y-19079579D02*
X3860301Y-19117674D01*
X3860301Y-19117674D02*
X3860301Y-19165293D01*
X3860301Y-19165293D02*
X3850777Y-19203389D01*
X3850777Y-19203389D02*
X3841253Y-19222436D01*
X3841253Y-19222436D02*
X3831729Y-19231960D01*
X3831729Y-19231960D02*
X3812682Y-19241484D01*
X3812682Y-19241484D02*
X3793634Y-19241484D01*
X3793634Y-19241484D02*
X3774586Y-19231960D01*
X3774586Y-19231960D02*
X3765063Y-19222436D01*
X3765063Y-19222436D02*
X3755539Y-19203389D01*
X3755539Y-19203389D02*
X3746015Y-19165293D01*
X3746015Y-19165293D02*
X3746015Y-19117674D01*
X3746015Y-19117674D02*
X3755539Y-19079579D01*
X3755539Y-19079579D02*
X3765063Y-19060531D01*
X3765063Y-19060531D02*
X3774586Y-19051008D01*
X3774586Y-19051008D02*
X3793634Y-19041484D01*
X3946015Y-19222436D02*
X3955539Y-19231960D01*
X3955539Y-19231960D02*
X3946015Y-19241484D01*
X3946015Y-19241484D02*
X3936491Y-19231960D01*
X3936491Y-19231960D02*
X3946015Y-19222436D01*
X3946015Y-19222436D02*
X3946015Y-19241484D01*
X4079348Y-19041484D02*
X4098396Y-19041484D01*
X4098396Y-19041484D02*
X4117444Y-19051008D01*
X4117444Y-19051008D02*
X4126967Y-19060531D01*
X4126967Y-19060531D02*
X4136491Y-19079579D01*
X4136491Y-19079579D02*
X4146015Y-19117674D01*
X4146015Y-19117674D02*
X4146015Y-19165293D01*
X4146015Y-19165293D02*
X4136491Y-19203389D01*
X4136491Y-19203389D02*
X4126967Y-19222436D01*
X4126967Y-19222436D02*
X4117444Y-19231960D01*
X4117444Y-19231960D02*
X4098396Y-19241484D01*
X4098396Y-19241484D02*
X4079348Y-19241484D01*
X4079348Y-19241484D02*
X4060301Y-19231960D01*
X4060301Y-19231960D02*
X4050777Y-19222436D01*
X4050777Y-19222436D02*
X4041253Y-19203389D01*
X4041253Y-19203389D02*
X4031729Y-19165293D01*
X4031729Y-19165293D02*
X4031729Y-19117674D01*
X4031729Y-19117674D02*
X4041253Y-19079579D01*
X4041253Y-19079579D02*
X4050777Y-19060531D01*
X4050777Y-19060531D02*
X4060301Y-19051008D01*
X4060301Y-19051008D02*
X4079348Y-19041484D01*
X4336491Y-19241484D02*
X4222206Y-19241484D01*
X4279348Y-19241484D02*
X4279348Y-19041484D01*
X4279348Y-19041484D02*
X4260301Y-19070055D01*
X4260301Y-19070055D02*
X4241253Y-19089103D01*
X4241253Y-19089103D02*
X4222206Y-19098627D01*
X4517444Y-19041484D02*
X4422206Y-19041484D01*
X4422206Y-19041484D02*
X4412682Y-19136722D01*
X4412682Y-19136722D02*
X4422206Y-19127198D01*
X4422206Y-19127198D02*
X4441253Y-19117674D01*
X4441253Y-19117674D02*
X4488872Y-19117674D01*
X4488872Y-19117674D02*
X4507920Y-19127198D01*
X4507920Y-19127198D02*
X4517444Y-19136722D01*
X4517444Y-19136722D02*
X4526968Y-19155770D01*
X4526968Y-19155770D02*
X4526968Y-19203389D01*
X4526968Y-19203389D02*
X4517444Y-19222436D01*
X4517444Y-19222436D02*
X4507920Y-19231960D01*
X4507920Y-19231960D02*
X4488872Y-19241484D01*
X4488872Y-19241484D02*
X4441253Y-19241484D01*
X4441253Y-19241484D02*
X4422206Y-19231960D01*
X4422206Y-19231960D02*
X4412682Y-19222436D01*
X4593634Y-19041484D02*
X4726968Y-19041484D01*
X4726968Y-19041484D02*
X4641253Y-19241484D01*
X4793634Y-19041484D02*
X4793634Y-19079579D01*
X4869825Y-19041484D02*
X4869825Y-19079579D01*
X5165063Y-19317674D02*
X5155539Y-19308150D01*
X5155539Y-19308150D02*
X5136491Y-19279579D01*
X5136491Y-19279579D02*
X5126968Y-19260531D01*
X5126968Y-19260531D02*
X5117444Y-19231960D01*
X5117444Y-19231960D02*
X5107920Y-19184341D01*
X5107920Y-19184341D02*
X5107920Y-19146246D01*
X5107920Y-19146246D02*
X5117444Y-19098627D01*
X5117444Y-19098627D02*
X5126968Y-19070055D01*
X5126968Y-19070055D02*
X5136491Y-19051008D01*
X5136491Y-19051008D02*
X5155539Y-19022436D01*
X5155539Y-19022436D02*
X5165063Y-19012912D01*
X5346015Y-19241484D02*
X5231730Y-19241484D01*
X5288872Y-19241484D02*
X5288872Y-19041484D01*
X5288872Y-19041484D02*
X5269825Y-19070055D01*
X5269825Y-19070055D02*
X5250777Y-19089103D01*
X5250777Y-19089103D02*
X5231730Y-19098627D01*
X5441253Y-19241484D02*
X5479349Y-19241484D01*
X5479349Y-19241484D02*
X5498396Y-19231960D01*
X5498396Y-19231960D02*
X5507920Y-19222436D01*
X5507920Y-19222436D02*
X5526968Y-19193865D01*
X5526968Y-19193865D02*
X5536491Y-19155770D01*
X5536491Y-19155770D02*
X5536491Y-19079579D01*
X5536491Y-19079579D02*
X5526968Y-19060531D01*
X5526968Y-19060531D02*
X5517444Y-19051008D01*
X5517444Y-19051008D02*
X5498396Y-19041484D01*
X5498396Y-19041484D02*
X5460301Y-19041484D01*
X5460301Y-19041484D02*
X5441253Y-19051008D01*
X5441253Y-19051008D02*
X5431730Y-19060531D01*
X5431730Y-19060531D02*
X5422206Y-19079579D01*
X5422206Y-19079579D02*
X5422206Y-19127198D01*
X5422206Y-19127198D02*
X5431730Y-19146246D01*
X5431730Y-19146246D02*
X5441253Y-19155770D01*
X5441253Y-19155770D02*
X5460301Y-19165293D01*
X5460301Y-19165293D02*
X5498396Y-19165293D01*
X5498396Y-19165293D02*
X5517444Y-19155770D01*
X5517444Y-19155770D02*
X5526968Y-19146246D01*
X5526968Y-19146246D02*
X5536491Y-19127198D01*
X5774587Y-19241484D02*
X5774587Y-19041484D01*
X5860301Y-19241484D02*
X5860301Y-19136722D01*
X5860301Y-19136722D02*
X5850777Y-19117674D01*
X5850777Y-19117674D02*
X5831730Y-19108150D01*
X5831730Y-19108150D02*
X5803158Y-19108150D01*
X5803158Y-19108150D02*
X5784110Y-19117674D01*
X5784110Y-19117674D02*
X5774587Y-19127198D01*
X5984110Y-19241484D02*
X5965063Y-19231960D01*
X5965063Y-19231960D02*
X5955539Y-19222436D01*
X5955539Y-19222436D02*
X5946015Y-19203389D01*
X5946015Y-19203389D02*
X5946015Y-19146246D01*
X5946015Y-19146246D02*
X5955539Y-19127198D01*
X5955539Y-19127198D02*
X5965063Y-19117674D01*
X5965063Y-19117674D02*
X5984110Y-19108150D01*
X5984110Y-19108150D02*
X6012682Y-19108150D01*
X6012682Y-19108150D02*
X6031730Y-19117674D01*
X6031730Y-19117674D02*
X6041253Y-19127198D01*
X6041253Y-19127198D02*
X6050777Y-19146246D01*
X6050777Y-19146246D02*
X6050777Y-19203389D01*
X6050777Y-19203389D02*
X6041253Y-19222436D01*
X6041253Y-19222436D02*
X6031730Y-19231960D01*
X6031730Y-19231960D02*
X6012682Y-19241484D01*
X6012682Y-19241484D02*
X5984110Y-19241484D01*
X6165063Y-19241484D02*
X6146015Y-19231960D01*
X6146015Y-19231960D02*
X6136491Y-19212912D01*
X6136491Y-19212912D02*
X6136491Y-19041484D01*
X6317444Y-19231960D02*
X6298396Y-19241484D01*
X6298396Y-19241484D02*
X6260301Y-19241484D01*
X6260301Y-19241484D02*
X6241253Y-19231960D01*
X6241253Y-19231960D02*
X6231730Y-19212912D01*
X6231730Y-19212912D02*
X6231730Y-19136722D01*
X6231730Y-19136722D02*
X6241253Y-19117674D01*
X6241253Y-19117674D02*
X6260301Y-19108150D01*
X6260301Y-19108150D02*
X6298396Y-19108150D01*
X6298396Y-19108150D02*
X6317444Y-19117674D01*
X6317444Y-19117674D02*
X6326968Y-19136722D01*
X6326968Y-19136722D02*
X6326968Y-19155770D01*
X6326968Y-19155770D02*
X6231730Y-19174817D01*
X6403158Y-19231960D02*
X6422206Y-19241484D01*
X6422206Y-19241484D02*
X6460301Y-19241484D01*
X6460301Y-19241484D02*
X6479349Y-19231960D01*
X6479349Y-19231960D02*
X6488872Y-19212912D01*
X6488872Y-19212912D02*
X6488872Y-19203389D01*
X6488872Y-19203389D02*
X6479349Y-19184341D01*
X6479349Y-19184341D02*
X6460301Y-19174817D01*
X6460301Y-19174817D02*
X6431730Y-19174817D01*
X6431730Y-19174817D02*
X6412682Y-19165293D01*
X6412682Y-19165293D02*
X6403158Y-19146246D01*
X6403158Y-19146246D02*
X6403158Y-19136722D01*
X6403158Y-19136722D02*
X6412682Y-19117674D01*
X6412682Y-19117674D02*
X6431730Y-19108150D01*
X6431730Y-19108150D02*
X6460301Y-19108150D01*
X6460301Y-19108150D02*
X6479349Y-19117674D01*
X6555539Y-19317674D02*
X6565063Y-19308150D01*
X6565063Y-19308150D02*
X6584111Y-19279579D01*
X6584111Y-19279579D02*
X6593634Y-19260531D01*
X6593634Y-19260531D02*
X6603158Y-19231960D01*
X6603158Y-19231960D02*
X6612682Y-19184341D01*
X6612682Y-19184341D02*
X6612682Y-19146246D01*
X6612682Y-19146246D02*
X6603158Y-19098627D01*
X6603158Y-19098627D02*
X6593634Y-19070055D01*
X6593634Y-19070055D02*
X6584111Y-19051008D01*
X6584111Y-19051008D02*
X6565063Y-19022436D01*
X6565063Y-19022436D02*
X6555539Y-19012912D01*
D11*
X1590000Y-19414000D02*
G75*
G03*
X1590000Y-19414000I-45000J0D01*
G01*
D10*
X1888872Y-19305484D02*
X1907920Y-19305484D01*
X1907920Y-19305484D02*
X1926967Y-19315008D01*
X1926967Y-19315008D02*
X1936491Y-19324531D01*
X1936491Y-19324531D02*
X1946015Y-19343579D01*
X1946015Y-19343579D02*
X1955539Y-19381674D01*
X1955539Y-19381674D02*
X1955539Y-19429293D01*
X1955539Y-19429293D02*
X1946015Y-19467389D01*
X1946015Y-19467389D02*
X1936491Y-19486436D01*
X1936491Y-19486436D02*
X1926967Y-19495960D01*
X1926967Y-19495960D02*
X1907920Y-19505484D01*
X1907920Y-19505484D02*
X1888872Y-19505484D01*
X1888872Y-19505484D02*
X1869824Y-19495960D01*
X1869824Y-19495960D02*
X1860301Y-19486436D01*
X1860301Y-19486436D02*
X1850777Y-19467389D01*
X1850777Y-19467389D02*
X1841253Y-19429293D01*
X1841253Y-19429293D02*
X1841253Y-19381674D01*
X1841253Y-19381674D02*
X1850777Y-19343579D01*
X1850777Y-19343579D02*
X1860301Y-19324531D01*
X1860301Y-19324531D02*
X1869824Y-19315008D01*
X1869824Y-19315008D02*
X1888872Y-19305484D01*
X2041253Y-19486436D02*
X2050777Y-19495960D01*
X2050777Y-19495960D02*
X2041253Y-19505484D01*
X2041253Y-19505484D02*
X2031729Y-19495960D01*
X2031729Y-19495960D02*
X2041253Y-19486436D01*
X2041253Y-19486436D02*
X2041253Y-19505484D01*
X2146015Y-19505484D02*
X2184110Y-19505484D01*
X2184110Y-19505484D02*
X2203158Y-19495960D01*
X2203158Y-19495960D02*
X2212682Y-19486436D01*
X2212682Y-19486436D02*
X2231729Y-19457865D01*
X2231729Y-19457865D02*
X2241253Y-19419770D01*
X2241253Y-19419770D02*
X2241253Y-19343579D01*
X2241253Y-19343579D02*
X2231729Y-19324531D01*
X2231729Y-19324531D02*
X2222205Y-19315008D01*
X2222205Y-19315008D02*
X2203158Y-19305484D01*
X2203158Y-19305484D02*
X2165063Y-19305484D01*
X2165063Y-19305484D02*
X2146015Y-19315008D01*
X2146015Y-19315008D02*
X2136491Y-19324531D01*
X2136491Y-19324531D02*
X2126967Y-19343579D01*
X2126967Y-19343579D02*
X2126967Y-19391198D01*
X2126967Y-19391198D02*
X2136491Y-19410246D01*
X2136491Y-19410246D02*
X2146015Y-19419770D01*
X2146015Y-19419770D02*
X2165063Y-19429293D01*
X2165063Y-19429293D02*
X2203158Y-19429293D01*
X2203158Y-19429293D02*
X2222205Y-19419770D01*
X2222205Y-19419770D02*
X2231729Y-19410246D01*
X2231729Y-19410246D02*
X2241253Y-19391198D01*
X2365063Y-19305484D02*
X2384110Y-19305484D01*
X2384110Y-19305484D02*
X2403158Y-19315008D01*
X2403158Y-19315008D02*
X2412682Y-19324531D01*
X2412682Y-19324531D02*
X2422205Y-19343579D01*
X2422205Y-19343579D02*
X2431729Y-19381674D01*
X2431729Y-19381674D02*
X2431729Y-19429293D01*
X2431729Y-19429293D02*
X2422205Y-19467389D01*
X2422205Y-19467389D02*
X2412682Y-19486436D01*
X2412682Y-19486436D02*
X2403158Y-19495960D01*
X2403158Y-19495960D02*
X2384110Y-19505484D01*
X2384110Y-19505484D02*
X2365063Y-19505484D01*
X2365063Y-19505484D02*
X2346015Y-19495960D01*
X2346015Y-19495960D02*
X2336491Y-19486436D01*
X2336491Y-19486436D02*
X2326967Y-19467389D01*
X2326967Y-19467389D02*
X2317444Y-19429293D01*
X2317444Y-19429293D02*
X2317444Y-19381674D01*
X2317444Y-19381674D02*
X2326967Y-19343579D01*
X2326967Y-19343579D02*
X2336491Y-19324531D01*
X2336491Y-19324531D02*
X2346015Y-19315008D01*
X2346015Y-19315008D02*
X2365063Y-19305484D01*
X2555539Y-19305484D02*
X2574586Y-19305484D01*
X2574586Y-19305484D02*
X2593634Y-19315008D01*
X2593634Y-19315008D02*
X2603158Y-19324531D01*
X2603158Y-19324531D02*
X2612682Y-19343579D01*
X2612682Y-19343579D02*
X2622205Y-19381674D01*
X2622205Y-19381674D02*
X2622205Y-19429293D01*
X2622205Y-19429293D02*
X2612682Y-19467389D01*
X2612682Y-19467389D02*
X2603158Y-19486436D01*
X2603158Y-19486436D02*
X2593634Y-19495960D01*
X2593634Y-19495960D02*
X2574586Y-19505484D01*
X2574586Y-19505484D02*
X2555539Y-19505484D01*
X2555539Y-19505484D02*
X2536491Y-19495960D01*
X2536491Y-19495960D02*
X2526967Y-19486436D01*
X2526967Y-19486436D02*
X2517444Y-19467389D01*
X2517444Y-19467389D02*
X2507920Y-19429293D01*
X2507920Y-19429293D02*
X2507920Y-19381674D01*
X2507920Y-19381674D02*
X2517444Y-19343579D01*
X2517444Y-19343579D02*
X2526967Y-19324531D01*
X2526967Y-19324531D02*
X2536491Y-19315008D01*
X2536491Y-19315008D02*
X2555539Y-19305484D01*
X2707920Y-19505484D02*
X2707920Y-19372150D01*
X2707920Y-19391198D02*
X2717444Y-19381674D01*
X2717444Y-19381674D02*
X2736491Y-19372150D01*
X2736491Y-19372150D02*
X2765063Y-19372150D01*
X2765063Y-19372150D02*
X2784110Y-19381674D01*
X2784110Y-19381674D02*
X2793634Y-19400722D01*
X2793634Y-19400722D02*
X2793634Y-19505484D01*
X2793634Y-19400722D02*
X2803158Y-19381674D01*
X2803158Y-19381674D02*
X2822205Y-19372150D01*
X2822205Y-19372150D02*
X2850777Y-19372150D01*
X2850777Y-19372150D02*
X2869824Y-19381674D01*
X2869824Y-19381674D02*
X2879348Y-19400722D01*
X2879348Y-19400722D02*
X2879348Y-19505484D01*
X2974586Y-19505484D02*
X2974586Y-19372150D01*
X2974586Y-19391198D02*
X2984110Y-19381674D01*
X2984110Y-19381674D02*
X3003158Y-19372150D01*
X3003158Y-19372150D02*
X3031729Y-19372150D01*
X3031729Y-19372150D02*
X3050777Y-19381674D01*
X3050777Y-19381674D02*
X3060301Y-19400722D01*
X3060301Y-19400722D02*
X3060301Y-19505484D01*
X3060301Y-19400722D02*
X3069824Y-19381674D01*
X3069824Y-19381674D02*
X3088872Y-19372150D01*
X3088872Y-19372150D02*
X3117443Y-19372150D01*
X3117443Y-19372150D02*
X3136491Y-19381674D01*
X3136491Y-19381674D02*
X3146015Y-19400722D01*
X3146015Y-19400722D02*
X3146015Y-19505484D01*
X3536491Y-19295960D02*
X3365063Y-19553103D01*
X3793634Y-19305484D02*
X3812682Y-19305484D01*
X3812682Y-19305484D02*
X3831729Y-19315008D01*
X3831729Y-19315008D02*
X3841253Y-19324531D01*
X3841253Y-19324531D02*
X3850777Y-19343579D01*
X3850777Y-19343579D02*
X3860301Y-19381674D01*
X3860301Y-19381674D02*
X3860301Y-19429293D01*
X3860301Y-19429293D02*
X3850777Y-19467389D01*
X3850777Y-19467389D02*
X3841253Y-19486436D01*
X3841253Y-19486436D02*
X3831729Y-19495960D01*
X3831729Y-19495960D02*
X3812682Y-19505484D01*
X3812682Y-19505484D02*
X3793634Y-19505484D01*
X3793634Y-19505484D02*
X3774586Y-19495960D01*
X3774586Y-19495960D02*
X3765063Y-19486436D01*
X3765063Y-19486436D02*
X3755539Y-19467389D01*
X3755539Y-19467389D02*
X3746015Y-19429293D01*
X3746015Y-19429293D02*
X3746015Y-19381674D01*
X3746015Y-19381674D02*
X3755539Y-19343579D01*
X3755539Y-19343579D02*
X3765063Y-19324531D01*
X3765063Y-19324531D02*
X3774586Y-19315008D01*
X3774586Y-19315008D02*
X3793634Y-19305484D01*
X3946015Y-19486436D02*
X3955539Y-19495960D01*
X3955539Y-19495960D02*
X3946015Y-19505484D01*
X3946015Y-19505484D02*
X3936491Y-19495960D01*
X3936491Y-19495960D02*
X3946015Y-19486436D01*
X3946015Y-19486436D02*
X3946015Y-19505484D01*
X4079348Y-19305484D02*
X4098396Y-19305484D01*
X4098396Y-19305484D02*
X4117444Y-19315008D01*
X4117444Y-19315008D02*
X4126967Y-19324531D01*
X4126967Y-19324531D02*
X4136491Y-19343579D01*
X4136491Y-19343579D02*
X4146015Y-19381674D01*
X4146015Y-19381674D02*
X4146015Y-19429293D01*
X4146015Y-19429293D02*
X4136491Y-19467389D01*
X4136491Y-19467389D02*
X4126967Y-19486436D01*
X4126967Y-19486436D02*
X4117444Y-19495960D01*
X4117444Y-19495960D02*
X4098396Y-19505484D01*
X4098396Y-19505484D02*
X4079348Y-19505484D01*
X4079348Y-19505484D02*
X4060301Y-19495960D01*
X4060301Y-19495960D02*
X4050777Y-19486436D01*
X4050777Y-19486436D02*
X4041253Y-19467389D01*
X4041253Y-19467389D02*
X4031729Y-19429293D01*
X4031729Y-19429293D02*
X4031729Y-19381674D01*
X4031729Y-19381674D02*
X4041253Y-19343579D01*
X4041253Y-19343579D02*
X4050777Y-19324531D01*
X4050777Y-19324531D02*
X4060301Y-19315008D01*
X4060301Y-19315008D02*
X4079348Y-19305484D01*
X4212682Y-19305484D02*
X4336491Y-19305484D01*
X4336491Y-19305484D02*
X4269825Y-19381674D01*
X4269825Y-19381674D02*
X4298396Y-19381674D01*
X4298396Y-19381674D02*
X4317444Y-19391198D01*
X4317444Y-19391198D02*
X4326968Y-19400722D01*
X4326968Y-19400722D02*
X4336491Y-19419770D01*
X4336491Y-19419770D02*
X4336491Y-19467389D01*
X4336491Y-19467389D02*
X4326968Y-19486436D01*
X4326968Y-19486436D02*
X4317444Y-19495960D01*
X4317444Y-19495960D02*
X4298396Y-19505484D01*
X4298396Y-19505484D02*
X4241253Y-19505484D01*
X4241253Y-19505484D02*
X4222206Y-19495960D01*
X4222206Y-19495960D02*
X4212682Y-19486436D01*
X4517444Y-19305484D02*
X4422206Y-19305484D01*
X4422206Y-19305484D02*
X4412682Y-19400722D01*
X4412682Y-19400722D02*
X4422206Y-19391198D01*
X4422206Y-19391198D02*
X4441253Y-19381674D01*
X4441253Y-19381674D02*
X4488872Y-19381674D01*
X4488872Y-19381674D02*
X4507920Y-19391198D01*
X4507920Y-19391198D02*
X4517444Y-19400722D01*
X4517444Y-19400722D02*
X4526968Y-19419770D01*
X4526968Y-19419770D02*
X4526968Y-19467389D01*
X4526968Y-19467389D02*
X4517444Y-19486436D01*
X4517444Y-19486436D02*
X4507920Y-19495960D01*
X4507920Y-19495960D02*
X4488872Y-19505484D01*
X4488872Y-19505484D02*
X4441253Y-19505484D01*
X4441253Y-19505484D02*
X4422206Y-19495960D01*
X4422206Y-19495960D02*
X4412682Y-19486436D01*
X4698396Y-19372150D02*
X4698396Y-19505484D01*
X4650777Y-19295960D02*
X4603158Y-19438817D01*
X4603158Y-19438817D02*
X4726968Y-19438817D01*
X4793634Y-19305484D02*
X4793634Y-19343579D01*
X4869825Y-19305484D02*
X4869825Y-19343579D01*
X5165063Y-19581674D02*
X5155539Y-19572150D01*
X5155539Y-19572150D02*
X5136491Y-19543579D01*
X5136491Y-19543579D02*
X5126968Y-19524531D01*
X5126968Y-19524531D02*
X5117444Y-19495960D01*
X5117444Y-19495960D02*
X5107920Y-19448341D01*
X5107920Y-19448341D02*
X5107920Y-19410246D01*
X5107920Y-19410246D02*
X5117444Y-19362627D01*
X5117444Y-19362627D02*
X5126968Y-19334055D01*
X5126968Y-19334055D02*
X5136491Y-19315008D01*
X5136491Y-19315008D02*
X5155539Y-19286436D01*
X5155539Y-19286436D02*
X5165063Y-19276912D01*
X5231730Y-19324531D02*
X5241253Y-19315008D01*
X5241253Y-19315008D02*
X5260301Y-19305484D01*
X5260301Y-19305484D02*
X5307920Y-19305484D01*
X5307920Y-19305484D02*
X5326968Y-19315008D01*
X5326968Y-19315008D02*
X5336491Y-19324531D01*
X5336491Y-19324531D02*
X5346015Y-19343579D01*
X5346015Y-19343579D02*
X5346015Y-19362627D01*
X5346015Y-19362627D02*
X5336491Y-19391198D01*
X5336491Y-19391198D02*
X5222206Y-19505484D01*
X5222206Y-19505484D02*
X5346015Y-19505484D01*
X5584111Y-19505484D02*
X5584111Y-19305484D01*
X5669825Y-19505484D02*
X5669825Y-19400722D01*
X5669825Y-19400722D02*
X5660301Y-19381674D01*
X5660301Y-19381674D02*
X5641253Y-19372150D01*
X5641253Y-19372150D02*
X5612682Y-19372150D01*
X5612682Y-19372150D02*
X5593634Y-19381674D01*
X5593634Y-19381674D02*
X5584111Y-19391198D01*
X5793634Y-19505484D02*
X5774587Y-19495960D01*
X5774587Y-19495960D02*
X5765063Y-19486436D01*
X5765063Y-19486436D02*
X5755539Y-19467389D01*
X5755539Y-19467389D02*
X5755539Y-19410246D01*
X5755539Y-19410246D02*
X5765063Y-19391198D01*
X5765063Y-19391198D02*
X5774587Y-19381674D01*
X5774587Y-19381674D02*
X5793634Y-19372150D01*
X5793634Y-19372150D02*
X5822206Y-19372150D01*
X5822206Y-19372150D02*
X5841253Y-19381674D01*
X5841253Y-19381674D02*
X5850777Y-19391198D01*
X5850777Y-19391198D02*
X5860301Y-19410246D01*
X5860301Y-19410246D02*
X5860301Y-19467389D01*
X5860301Y-19467389D02*
X5850777Y-19486436D01*
X5850777Y-19486436D02*
X5841253Y-19495960D01*
X5841253Y-19495960D02*
X5822206Y-19505484D01*
X5822206Y-19505484D02*
X5793634Y-19505484D01*
X5974587Y-19505484D02*
X5955539Y-19495960D01*
X5955539Y-19495960D02*
X5946015Y-19476912D01*
X5946015Y-19476912D02*
X5946015Y-19305484D01*
X6126968Y-19495960D02*
X6107920Y-19505484D01*
X6107920Y-19505484D02*
X6069825Y-19505484D01*
X6069825Y-19505484D02*
X6050777Y-19495960D01*
X6050777Y-19495960D02*
X6041253Y-19476912D01*
X6041253Y-19476912D02*
X6041253Y-19400722D01*
X6041253Y-19400722D02*
X6050777Y-19381674D01*
X6050777Y-19381674D02*
X6069825Y-19372150D01*
X6069825Y-19372150D02*
X6107920Y-19372150D01*
X6107920Y-19372150D02*
X6126968Y-19381674D01*
X6126968Y-19381674D02*
X6136491Y-19400722D01*
X6136491Y-19400722D02*
X6136491Y-19419770D01*
X6136491Y-19419770D02*
X6041253Y-19438817D01*
X6212682Y-19495960D02*
X6231730Y-19505484D01*
X6231730Y-19505484D02*
X6269825Y-19505484D01*
X6269825Y-19505484D02*
X6288872Y-19495960D01*
X6288872Y-19495960D02*
X6298396Y-19476912D01*
X6298396Y-19476912D02*
X6298396Y-19467389D01*
X6298396Y-19467389D02*
X6288872Y-19448341D01*
X6288872Y-19448341D02*
X6269825Y-19438817D01*
X6269825Y-19438817D02*
X6241253Y-19438817D01*
X6241253Y-19438817D02*
X6222206Y-19429293D01*
X6222206Y-19429293D02*
X6212682Y-19410246D01*
X6212682Y-19410246D02*
X6212682Y-19400722D01*
X6212682Y-19400722D02*
X6222206Y-19381674D01*
X6222206Y-19381674D02*
X6241253Y-19372150D01*
X6241253Y-19372150D02*
X6269825Y-19372150D01*
X6269825Y-19372150D02*
X6288872Y-19381674D01*
X6365063Y-19581674D02*
X6374587Y-19572150D01*
X6374587Y-19572150D02*
X6393634Y-19543579D01*
X6393634Y-19543579D02*
X6403158Y-19524531D01*
X6403158Y-19524531D02*
X6412682Y-19495960D01*
X6412682Y-19495960D02*
X6422206Y-19448341D01*
X6422206Y-19448341D02*
X6422206Y-19410246D01*
X6422206Y-19410246D02*
X6412682Y-19362627D01*
X6412682Y-19362627D02*
X6403158Y-19334055D01*
X6403158Y-19334055D02*
X6393634Y-19315008D01*
X6393634Y-19315008D02*
X6374587Y-19286436D01*
X6374587Y-19286436D02*
X6365063Y-19276912D01*
D11*
X1542500Y-19630500D02*
X1542500Y-19725500D01*
X1495000Y-19678000D02*
X1590000Y-19678000D01*
D10*
X1888872Y-19569484D02*
X1907920Y-19569484D01*
X1907920Y-19569484D02*
X1926967Y-19579008D01*
X1926967Y-19579008D02*
X1936491Y-19588531D01*
X1936491Y-19588531D02*
X1946015Y-19607579D01*
X1946015Y-19607579D02*
X1955539Y-19645674D01*
X1955539Y-19645674D02*
X1955539Y-19693293D01*
X1955539Y-19693293D02*
X1946015Y-19731389D01*
X1946015Y-19731389D02*
X1936491Y-19750436D01*
X1936491Y-19750436D02*
X1926967Y-19759960D01*
X1926967Y-19759960D02*
X1907920Y-19769484D01*
X1907920Y-19769484D02*
X1888872Y-19769484D01*
X1888872Y-19769484D02*
X1869824Y-19759960D01*
X1869824Y-19759960D02*
X1860301Y-19750436D01*
X1860301Y-19750436D02*
X1850777Y-19731389D01*
X1850777Y-19731389D02*
X1841253Y-19693293D01*
X1841253Y-19693293D02*
X1841253Y-19645674D01*
X1841253Y-19645674D02*
X1850777Y-19607579D01*
X1850777Y-19607579D02*
X1860301Y-19588531D01*
X1860301Y-19588531D02*
X1869824Y-19579008D01*
X1869824Y-19579008D02*
X1888872Y-19569484D01*
X2041253Y-19750436D02*
X2050777Y-19759960D01*
X2050777Y-19759960D02*
X2041253Y-19769484D01*
X2041253Y-19769484D02*
X2031729Y-19759960D01*
X2031729Y-19759960D02*
X2041253Y-19750436D01*
X2041253Y-19750436D02*
X2041253Y-19769484D01*
X2146015Y-19769484D02*
X2184110Y-19769484D01*
X2184110Y-19769484D02*
X2203158Y-19759960D01*
X2203158Y-19759960D02*
X2212682Y-19750436D01*
X2212682Y-19750436D02*
X2231729Y-19721865D01*
X2231729Y-19721865D02*
X2241253Y-19683770D01*
X2241253Y-19683770D02*
X2241253Y-19607579D01*
X2241253Y-19607579D02*
X2231729Y-19588531D01*
X2231729Y-19588531D02*
X2222205Y-19579008D01*
X2222205Y-19579008D02*
X2203158Y-19569484D01*
X2203158Y-19569484D02*
X2165063Y-19569484D01*
X2165063Y-19569484D02*
X2146015Y-19579008D01*
X2146015Y-19579008D02*
X2136491Y-19588531D01*
X2136491Y-19588531D02*
X2126967Y-19607579D01*
X2126967Y-19607579D02*
X2126967Y-19655198D01*
X2126967Y-19655198D02*
X2136491Y-19674246D01*
X2136491Y-19674246D02*
X2146015Y-19683770D01*
X2146015Y-19683770D02*
X2165063Y-19693293D01*
X2165063Y-19693293D02*
X2203158Y-19693293D01*
X2203158Y-19693293D02*
X2222205Y-19683770D01*
X2222205Y-19683770D02*
X2231729Y-19674246D01*
X2231729Y-19674246D02*
X2241253Y-19655198D01*
X2422205Y-19569484D02*
X2326967Y-19569484D01*
X2326967Y-19569484D02*
X2317444Y-19664722D01*
X2317444Y-19664722D02*
X2326967Y-19655198D01*
X2326967Y-19655198D02*
X2346015Y-19645674D01*
X2346015Y-19645674D02*
X2393634Y-19645674D01*
X2393634Y-19645674D02*
X2412682Y-19655198D01*
X2412682Y-19655198D02*
X2422205Y-19664722D01*
X2422205Y-19664722D02*
X2431729Y-19683770D01*
X2431729Y-19683770D02*
X2431729Y-19731389D01*
X2431729Y-19731389D02*
X2422205Y-19750436D01*
X2422205Y-19750436D02*
X2412682Y-19759960D01*
X2412682Y-19759960D02*
X2393634Y-19769484D01*
X2393634Y-19769484D02*
X2346015Y-19769484D01*
X2346015Y-19769484D02*
X2326967Y-19759960D01*
X2326967Y-19759960D02*
X2317444Y-19750436D01*
X2555539Y-19569484D02*
X2574586Y-19569484D01*
X2574586Y-19569484D02*
X2593634Y-19579008D01*
X2593634Y-19579008D02*
X2603158Y-19588531D01*
X2603158Y-19588531D02*
X2612682Y-19607579D01*
X2612682Y-19607579D02*
X2622205Y-19645674D01*
X2622205Y-19645674D02*
X2622205Y-19693293D01*
X2622205Y-19693293D02*
X2612682Y-19731389D01*
X2612682Y-19731389D02*
X2603158Y-19750436D01*
X2603158Y-19750436D02*
X2593634Y-19759960D01*
X2593634Y-19759960D02*
X2574586Y-19769484D01*
X2574586Y-19769484D02*
X2555539Y-19769484D01*
X2555539Y-19769484D02*
X2536491Y-19759960D01*
X2536491Y-19759960D02*
X2526967Y-19750436D01*
X2526967Y-19750436D02*
X2517444Y-19731389D01*
X2517444Y-19731389D02*
X2507920Y-19693293D01*
X2507920Y-19693293D02*
X2507920Y-19645674D01*
X2507920Y-19645674D02*
X2517444Y-19607579D01*
X2517444Y-19607579D02*
X2526967Y-19588531D01*
X2526967Y-19588531D02*
X2536491Y-19579008D01*
X2536491Y-19579008D02*
X2555539Y-19569484D01*
X2707920Y-19769484D02*
X2707920Y-19636150D01*
X2707920Y-19655198D02*
X2717444Y-19645674D01*
X2717444Y-19645674D02*
X2736491Y-19636150D01*
X2736491Y-19636150D02*
X2765063Y-19636150D01*
X2765063Y-19636150D02*
X2784110Y-19645674D01*
X2784110Y-19645674D02*
X2793634Y-19664722D01*
X2793634Y-19664722D02*
X2793634Y-19769484D01*
X2793634Y-19664722D02*
X2803158Y-19645674D01*
X2803158Y-19645674D02*
X2822205Y-19636150D01*
X2822205Y-19636150D02*
X2850777Y-19636150D01*
X2850777Y-19636150D02*
X2869824Y-19645674D01*
X2869824Y-19645674D02*
X2879348Y-19664722D01*
X2879348Y-19664722D02*
X2879348Y-19769484D01*
X2974586Y-19769484D02*
X2974586Y-19636150D01*
X2974586Y-19655198D02*
X2984110Y-19645674D01*
X2984110Y-19645674D02*
X3003158Y-19636150D01*
X3003158Y-19636150D02*
X3031729Y-19636150D01*
X3031729Y-19636150D02*
X3050777Y-19645674D01*
X3050777Y-19645674D02*
X3060301Y-19664722D01*
X3060301Y-19664722D02*
X3060301Y-19769484D01*
X3060301Y-19664722D02*
X3069824Y-19645674D01*
X3069824Y-19645674D02*
X3088872Y-19636150D01*
X3088872Y-19636150D02*
X3117443Y-19636150D01*
X3117443Y-19636150D02*
X3136491Y-19645674D01*
X3136491Y-19645674D02*
X3146015Y-19664722D01*
X3146015Y-19664722D02*
X3146015Y-19769484D01*
X3536491Y-19559960D02*
X3365063Y-19817103D01*
X3793634Y-19569484D02*
X3812682Y-19569484D01*
X3812682Y-19569484D02*
X3831729Y-19579008D01*
X3831729Y-19579008D02*
X3841253Y-19588531D01*
X3841253Y-19588531D02*
X3850777Y-19607579D01*
X3850777Y-19607579D02*
X3860301Y-19645674D01*
X3860301Y-19645674D02*
X3860301Y-19693293D01*
X3860301Y-19693293D02*
X3850777Y-19731389D01*
X3850777Y-19731389D02*
X3841253Y-19750436D01*
X3841253Y-19750436D02*
X3831729Y-19759960D01*
X3831729Y-19759960D02*
X3812682Y-19769484D01*
X3812682Y-19769484D02*
X3793634Y-19769484D01*
X3793634Y-19769484D02*
X3774586Y-19759960D01*
X3774586Y-19759960D02*
X3765063Y-19750436D01*
X3765063Y-19750436D02*
X3755539Y-19731389D01*
X3755539Y-19731389D02*
X3746015Y-19693293D01*
X3746015Y-19693293D02*
X3746015Y-19645674D01*
X3746015Y-19645674D02*
X3755539Y-19607579D01*
X3755539Y-19607579D02*
X3765063Y-19588531D01*
X3765063Y-19588531D02*
X3774586Y-19579008D01*
X3774586Y-19579008D02*
X3793634Y-19569484D01*
X3946015Y-19750436D02*
X3955539Y-19759960D01*
X3955539Y-19759960D02*
X3946015Y-19769484D01*
X3946015Y-19769484D02*
X3936491Y-19759960D01*
X3936491Y-19759960D02*
X3946015Y-19750436D01*
X3946015Y-19750436D02*
X3946015Y-19769484D01*
X4079348Y-19569484D02*
X4098396Y-19569484D01*
X4098396Y-19569484D02*
X4117444Y-19579008D01*
X4117444Y-19579008D02*
X4126967Y-19588531D01*
X4126967Y-19588531D02*
X4136491Y-19607579D01*
X4136491Y-19607579D02*
X4146015Y-19645674D01*
X4146015Y-19645674D02*
X4146015Y-19693293D01*
X4146015Y-19693293D02*
X4136491Y-19731389D01*
X4136491Y-19731389D02*
X4126967Y-19750436D01*
X4126967Y-19750436D02*
X4117444Y-19759960D01*
X4117444Y-19759960D02*
X4098396Y-19769484D01*
X4098396Y-19769484D02*
X4079348Y-19769484D01*
X4079348Y-19769484D02*
X4060301Y-19759960D01*
X4060301Y-19759960D02*
X4050777Y-19750436D01*
X4050777Y-19750436D02*
X4041253Y-19731389D01*
X4041253Y-19731389D02*
X4031729Y-19693293D01*
X4031729Y-19693293D02*
X4031729Y-19645674D01*
X4031729Y-19645674D02*
X4041253Y-19607579D01*
X4041253Y-19607579D02*
X4050777Y-19588531D01*
X4050777Y-19588531D02*
X4060301Y-19579008D01*
X4060301Y-19579008D02*
X4079348Y-19569484D01*
X4212682Y-19569484D02*
X4336491Y-19569484D01*
X4336491Y-19569484D02*
X4269825Y-19645674D01*
X4269825Y-19645674D02*
X4298396Y-19645674D01*
X4298396Y-19645674D02*
X4317444Y-19655198D01*
X4317444Y-19655198D02*
X4326968Y-19664722D01*
X4326968Y-19664722D02*
X4336491Y-19683770D01*
X4336491Y-19683770D02*
X4336491Y-19731389D01*
X4336491Y-19731389D02*
X4326968Y-19750436D01*
X4326968Y-19750436D02*
X4317444Y-19759960D01*
X4317444Y-19759960D02*
X4298396Y-19769484D01*
X4298396Y-19769484D02*
X4241253Y-19769484D01*
X4241253Y-19769484D02*
X4222206Y-19759960D01*
X4222206Y-19759960D02*
X4212682Y-19750436D01*
X4403158Y-19569484D02*
X4536491Y-19569484D01*
X4536491Y-19569484D02*
X4450777Y-19769484D01*
X4698396Y-19636150D02*
X4698396Y-19769484D01*
X4650777Y-19559960D02*
X4603158Y-19702817D01*
X4603158Y-19702817D02*
X4726968Y-19702817D01*
X4793634Y-19569484D02*
X4793634Y-19607579D01*
X4869825Y-19569484D02*
X4869825Y-19607579D01*
X5165063Y-19845674D02*
X5155539Y-19836150D01*
X5155539Y-19836150D02*
X5136491Y-19807579D01*
X5136491Y-19807579D02*
X5126968Y-19788531D01*
X5126968Y-19788531D02*
X5117444Y-19759960D01*
X5117444Y-19759960D02*
X5107920Y-19712341D01*
X5107920Y-19712341D02*
X5107920Y-19674246D01*
X5107920Y-19674246D02*
X5117444Y-19626627D01*
X5117444Y-19626627D02*
X5126968Y-19598055D01*
X5126968Y-19598055D02*
X5136491Y-19579008D01*
X5136491Y-19579008D02*
X5155539Y-19550436D01*
X5155539Y-19550436D02*
X5165063Y-19540912D01*
X5326968Y-19636150D02*
X5326968Y-19769484D01*
X5279349Y-19559960D02*
X5231730Y-19702817D01*
X5231730Y-19702817D02*
X5355539Y-19702817D01*
X5584111Y-19769484D02*
X5584111Y-19569484D01*
X5669825Y-19769484D02*
X5669825Y-19664722D01*
X5669825Y-19664722D02*
X5660301Y-19645674D01*
X5660301Y-19645674D02*
X5641253Y-19636150D01*
X5641253Y-19636150D02*
X5612682Y-19636150D01*
X5612682Y-19636150D02*
X5593634Y-19645674D01*
X5593634Y-19645674D02*
X5584111Y-19655198D01*
X5793634Y-19769484D02*
X5774587Y-19759960D01*
X5774587Y-19759960D02*
X5765063Y-19750436D01*
X5765063Y-19750436D02*
X5755539Y-19731389D01*
X5755539Y-19731389D02*
X5755539Y-19674246D01*
X5755539Y-19674246D02*
X5765063Y-19655198D01*
X5765063Y-19655198D02*
X5774587Y-19645674D01*
X5774587Y-19645674D02*
X5793634Y-19636150D01*
X5793634Y-19636150D02*
X5822206Y-19636150D01*
X5822206Y-19636150D02*
X5841253Y-19645674D01*
X5841253Y-19645674D02*
X5850777Y-19655198D01*
X5850777Y-19655198D02*
X5860301Y-19674246D01*
X5860301Y-19674246D02*
X5860301Y-19731389D01*
X5860301Y-19731389D02*
X5850777Y-19750436D01*
X5850777Y-19750436D02*
X5841253Y-19759960D01*
X5841253Y-19759960D02*
X5822206Y-19769484D01*
X5822206Y-19769484D02*
X5793634Y-19769484D01*
X5974587Y-19769484D02*
X5955539Y-19759960D01*
X5955539Y-19759960D02*
X5946015Y-19740912D01*
X5946015Y-19740912D02*
X5946015Y-19569484D01*
X6126968Y-19759960D02*
X6107920Y-19769484D01*
X6107920Y-19769484D02*
X6069825Y-19769484D01*
X6069825Y-19769484D02*
X6050777Y-19759960D01*
X6050777Y-19759960D02*
X6041253Y-19740912D01*
X6041253Y-19740912D02*
X6041253Y-19664722D01*
X6041253Y-19664722D02*
X6050777Y-19645674D01*
X6050777Y-19645674D02*
X6069825Y-19636150D01*
X6069825Y-19636150D02*
X6107920Y-19636150D01*
X6107920Y-19636150D02*
X6126968Y-19645674D01*
X6126968Y-19645674D02*
X6136491Y-19664722D01*
X6136491Y-19664722D02*
X6136491Y-19683770D01*
X6136491Y-19683770D02*
X6041253Y-19702817D01*
X6212682Y-19759960D02*
X6231730Y-19769484D01*
X6231730Y-19769484D02*
X6269825Y-19769484D01*
X6269825Y-19769484D02*
X6288872Y-19759960D01*
X6288872Y-19759960D02*
X6298396Y-19740912D01*
X6298396Y-19740912D02*
X6298396Y-19731389D01*
X6298396Y-19731389D02*
X6288872Y-19712341D01*
X6288872Y-19712341D02*
X6269825Y-19702817D01*
X6269825Y-19702817D02*
X6241253Y-19702817D01*
X6241253Y-19702817D02*
X6222206Y-19693293D01*
X6222206Y-19693293D02*
X6212682Y-19674246D01*
X6212682Y-19674246D02*
X6212682Y-19664722D01*
X6212682Y-19664722D02*
X6222206Y-19645674D01*
X6222206Y-19645674D02*
X6241253Y-19636150D01*
X6241253Y-19636150D02*
X6269825Y-19636150D01*
X6269825Y-19636150D02*
X6288872Y-19645674D01*
X6365063Y-19845674D02*
X6374587Y-19836150D01*
X6374587Y-19836150D02*
X6393634Y-19807579D01*
X6393634Y-19807579D02*
X6403158Y-19788531D01*
X6403158Y-19788531D02*
X6412682Y-19759960D01*
X6412682Y-19759960D02*
X6422206Y-19712341D01*
X6422206Y-19712341D02*
X6422206Y-19674246D01*
X6422206Y-19674246D02*
X6412682Y-19626627D01*
X6412682Y-19626627D02*
X6403158Y-19598055D01*
X6403158Y-19598055D02*
X6393634Y-19579008D01*
X6393634Y-19579008D02*
X6374587Y-19550436D01*
X6374587Y-19550436D02*
X6365063Y-19540912D01*
D11*
X1575356Y-19977356D02*
X1575356Y-19906644D01*
X1504644Y-19906644D01*
X1504644Y-19977356D01*
X1575356Y-19977356D01*
D10*
X1955539Y-20033484D02*
X1841253Y-20033484D01*
X1898396Y-20033484D02*
X1898396Y-19833484D01*
X1898396Y-19833484D02*
X1879348Y-19862055D01*
X1879348Y-19862055D02*
X1860301Y-19881103D01*
X1860301Y-19881103D02*
X1841253Y-19890627D01*
X2041253Y-20014436D02*
X2050777Y-20023960D01*
X2050777Y-20023960D02*
X2041253Y-20033484D01*
X2041253Y-20033484D02*
X2031729Y-20023960D01*
X2031729Y-20023960D02*
X2041253Y-20014436D01*
X2041253Y-20014436D02*
X2041253Y-20033484D01*
X2174586Y-19833484D02*
X2193634Y-19833484D01*
X2193634Y-19833484D02*
X2212682Y-19843008D01*
X2212682Y-19843008D02*
X2222205Y-19852531D01*
X2222205Y-19852531D02*
X2231729Y-19871579D01*
X2231729Y-19871579D02*
X2241253Y-19909674D01*
X2241253Y-19909674D02*
X2241253Y-19957293D01*
X2241253Y-19957293D02*
X2231729Y-19995389D01*
X2231729Y-19995389D02*
X2222205Y-20014436D01*
X2222205Y-20014436D02*
X2212682Y-20023960D01*
X2212682Y-20023960D02*
X2193634Y-20033484D01*
X2193634Y-20033484D02*
X2174586Y-20033484D01*
X2174586Y-20033484D02*
X2155539Y-20023960D01*
X2155539Y-20023960D02*
X2146015Y-20014436D01*
X2146015Y-20014436D02*
X2136491Y-19995389D01*
X2136491Y-19995389D02*
X2126967Y-19957293D01*
X2126967Y-19957293D02*
X2126967Y-19909674D01*
X2126967Y-19909674D02*
X2136491Y-19871579D01*
X2136491Y-19871579D02*
X2146015Y-19852531D01*
X2146015Y-19852531D02*
X2155539Y-19843008D01*
X2155539Y-19843008D02*
X2174586Y-19833484D01*
X2365063Y-19833484D02*
X2384110Y-19833484D01*
X2384110Y-19833484D02*
X2403158Y-19843008D01*
X2403158Y-19843008D02*
X2412682Y-19852531D01*
X2412682Y-19852531D02*
X2422205Y-19871579D01*
X2422205Y-19871579D02*
X2431729Y-19909674D01*
X2431729Y-19909674D02*
X2431729Y-19957293D01*
X2431729Y-19957293D02*
X2422205Y-19995389D01*
X2422205Y-19995389D02*
X2412682Y-20014436D01*
X2412682Y-20014436D02*
X2403158Y-20023960D01*
X2403158Y-20023960D02*
X2384110Y-20033484D01*
X2384110Y-20033484D02*
X2365063Y-20033484D01*
X2365063Y-20033484D02*
X2346015Y-20023960D01*
X2346015Y-20023960D02*
X2336491Y-20014436D01*
X2336491Y-20014436D02*
X2326967Y-19995389D01*
X2326967Y-19995389D02*
X2317444Y-19957293D01*
X2317444Y-19957293D02*
X2317444Y-19909674D01*
X2317444Y-19909674D02*
X2326967Y-19871579D01*
X2326967Y-19871579D02*
X2336491Y-19852531D01*
X2336491Y-19852531D02*
X2346015Y-19843008D01*
X2346015Y-19843008D02*
X2365063Y-19833484D01*
X2555539Y-19833484D02*
X2574586Y-19833484D01*
X2574586Y-19833484D02*
X2593634Y-19843008D01*
X2593634Y-19843008D02*
X2603158Y-19852531D01*
X2603158Y-19852531D02*
X2612682Y-19871579D01*
X2612682Y-19871579D02*
X2622205Y-19909674D01*
X2622205Y-19909674D02*
X2622205Y-19957293D01*
X2622205Y-19957293D02*
X2612682Y-19995389D01*
X2612682Y-19995389D02*
X2603158Y-20014436D01*
X2603158Y-20014436D02*
X2593634Y-20023960D01*
X2593634Y-20023960D02*
X2574586Y-20033484D01*
X2574586Y-20033484D02*
X2555539Y-20033484D01*
X2555539Y-20033484D02*
X2536491Y-20023960D01*
X2536491Y-20023960D02*
X2526967Y-20014436D01*
X2526967Y-20014436D02*
X2517444Y-19995389D01*
X2517444Y-19995389D02*
X2507920Y-19957293D01*
X2507920Y-19957293D02*
X2507920Y-19909674D01*
X2507920Y-19909674D02*
X2517444Y-19871579D01*
X2517444Y-19871579D02*
X2526967Y-19852531D01*
X2526967Y-19852531D02*
X2536491Y-19843008D01*
X2536491Y-19843008D02*
X2555539Y-19833484D01*
X2707920Y-20033484D02*
X2707920Y-19900150D01*
X2707920Y-19919198D02*
X2717444Y-19909674D01*
X2717444Y-19909674D02*
X2736491Y-19900150D01*
X2736491Y-19900150D02*
X2765063Y-19900150D01*
X2765063Y-19900150D02*
X2784110Y-19909674D01*
X2784110Y-19909674D02*
X2793634Y-19928722D01*
X2793634Y-19928722D02*
X2793634Y-20033484D01*
X2793634Y-19928722D02*
X2803158Y-19909674D01*
X2803158Y-19909674D02*
X2822205Y-19900150D01*
X2822205Y-19900150D02*
X2850777Y-19900150D01*
X2850777Y-19900150D02*
X2869824Y-19909674D01*
X2869824Y-19909674D02*
X2879348Y-19928722D01*
X2879348Y-19928722D02*
X2879348Y-20033484D01*
X2974586Y-20033484D02*
X2974586Y-19900150D01*
X2974586Y-19919198D02*
X2984110Y-19909674D01*
X2984110Y-19909674D02*
X3003158Y-19900150D01*
X3003158Y-19900150D02*
X3031729Y-19900150D01*
X3031729Y-19900150D02*
X3050777Y-19909674D01*
X3050777Y-19909674D02*
X3060301Y-19928722D01*
X3060301Y-19928722D02*
X3060301Y-20033484D01*
X3060301Y-19928722D02*
X3069824Y-19909674D01*
X3069824Y-19909674D02*
X3088872Y-19900150D01*
X3088872Y-19900150D02*
X3117443Y-19900150D01*
X3117443Y-19900150D02*
X3136491Y-19909674D01*
X3136491Y-19909674D02*
X3146015Y-19928722D01*
X3146015Y-19928722D02*
X3146015Y-20033484D01*
X3536491Y-19823960D02*
X3365063Y-20081103D01*
X3793634Y-19833484D02*
X3812682Y-19833484D01*
X3812682Y-19833484D02*
X3831729Y-19843008D01*
X3831729Y-19843008D02*
X3841253Y-19852531D01*
X3841253Y-19852531D02*
X3850777Y-19871579D01*
X3850777Y-19871579D02*
X3860301Y-19909674D01*
X3860301Y-19909674D02*
X3860301Y-19957293D01*
X3860301Y-19957293D02*
X3850777Y-19995389D01*
X3850777Y-19995389D02*
X3841253Y-20014436D01*
X3841253Y-20014436D02*
X3831729Y-20023960D01*
X3831729Y-20023960D02*
X3812682Y-20033484D01*
X3812682Y-20033484D02*
X3793634Y-20033484D01*
X3793634Y-20033484D02*
X3774586Y-20023960D01*
X3774586Y-20023960D02*
X3765063Y-20014436D01*
X3765063Y-20014436D02*
X3755539Y-19995389D01*
X3755539Y-19995389D02*
X3746015Y-19957293D01*
X3746015Y-19957293D02*
X3746015Y-19909674D01*
X3746015Y-19909674D02*
X3755539Y-19871579D01*
X3755539Y-19871579D02*
X3765063Y-19852531D01*
X3765063Y-19852531D02*
X3774586Y-19843008D01*
X3774586Y-19843008D02*
X3793634Y-19833484D01*
X3946015Y-20014436D02*
X3955539Y-20023960D01*
X3955539Y-20023960D02*
X3946015Y-20033484D01*
X3946015Y-20033484D02*
X3936491Y-20023960D01*
X3936491Y-20023960D02*
X3946015Y-20014436D01*
X3946015Y-20014436D02*
X3946015Y-20033484D01*
X4079348Y-19833484D02*
X4098396Y-19833484D01*
X4098396Y-19833484D02*
X4117444Y-19843008D01*
X4117444Y-19843008D02*
X4126967Y-19852531D01*
X4126967Y-19852531D02*
X4136491Y-19871579D01*
X4136491Y-19871579D02*
X4146015Y-19909674D01*
X4146015Y-19909674D02*
X4146015Y-19957293D01*
X4146015Y-19957293D02*
X4136491Y-19995389D01*
X4136491Y-19995389D02*
X4126967Y-20014436D01*
X4126967Y-20014436D02*
X4117444Y-20023960D01*
X4117444Y-20023960D02*
X4098396Y-20033484D01*
X4098396Y-20033484D02*
X4079348Y-20033484D01*
X4079348Y-20033484D02*
X4060301Y-20023960D01*
X4060301Y-20023960D02*
X4050777Y-20014436D01*
X4050777Y-20014436D02*
X4041253Y-19995389D01*
X4041253Y-19995389D02*
X4031729Y-19957293D01*
X4031729Y-19957293D02*
X4031729Y-19909674D01*
X4031729Y-19909674D02*
X4041253Y-19871579D01*
X4041253Y-19871579D02*
X4050777Y-19852531D01*
X4050777Y-19852531D02*
X4060301Y-19843008D01*
X4060301Y-19843008D02*
X4079348Y-19833484D01*
X4212682Y-19833484D02*
X4336491Y-19833484D01*
X4336491Y-19833484D02*
X4269825Y-19909674D01*
X4269825Y-19909674D02*
X4298396Y-19909674D01*
X4298396Y-19909674D02*
X4317444Y-19919198D01*
X4317444Y-19919198D02*
X4326968Y-19928722D01*
X4326968Y-19928722D02*
X4336491Y-19947770D01*
X4336491Y-19947770D02*
X4336491Y-19995389D01*
X4336491Y-19995389D02*
X4326968Y-20014436D01*
X4326968Y-20014436D02*
X4317444Y-20023960D01*
X4317444Y-20023960D02*
X4298396Y-20033484D01*
X4298396Y-20033484D02*
X4241253Y-20033484D01*
X4241253Y-20033484D02*
X4222206Y-20023960D01*
X4222206Y-20023960D02*
X4212682Y-20014436D01*
X4431729Y-20033484D02*
X4469825Y-20033484D01*
X4469825Y-20033484D02*
X4488872Y-20023960D01*
X4488872Y-20023960D02*
X4498396Y-20014436D01*
X4498396Y-20014436D02*
X4517444Y-19985865D01*
X4517444Y-19985865D02*
X4526968Y-19947770D01*
X4526968Y-19947770D02*
X4526968Y-19871579D01*
X4526968Y-19871579D02*
X4517444Y-19852531D01*
X4517444Y-19852531D02*
X4507920Y-19843008D01*
X4507920Y-19843008D02*
X4488872Y-19833484D01*
X4488872Y-19833484D02*
X4450777Y-19833484D01*
X4450777Y-19833484D02*
X4431729Y-19843008D01*
X4431729Y-19843008D02*
X4422206Y-19852531D01*
X4422206Y-19852531D02*
X4412682Y-19871579D01*
X4412682Y-19871579D02*
X4412682Y-19919198D01*
X4412682Y-19919198D02*
X4422206Y-19938246D01*
X4422206Y-19938246D02*
X4431729Y-19947770D01*
X4431729Y-19947770D02*
X4450777Y-19957293D01*
X4450777Y-19957293D02*
X4488872Y-19957293D01*
X4488872Y-19957293D02*
X4507920Y-19947770D01*
X4507920Y-19947770D02*
X4517444Y-19938246D01*
X4517444Y-19938246D02*
X4526968Y-19919198D01*
X4698396Y-19900150D02*
X4698396Y-20033484D01*
X4650777Y-19823960D02*
X4603158Y-19966817D01*
X4603158Y-19966817D02*
X4726968Y-19966817D01*
X4793634Y-19833484D02*
X4793634Y-19871579D01*
X4869825Y-19833484D02*
X4869825Y-19871579D01*
X5165063Y-20109674D02*
X5155539Y-20100150D01*
X5155539Y-20100150D02*
X5136491Y-20071579D01*
X5136491Y-20071579D02*
X5126968Y-20052531D01*
X5126968Y-20052531D02*
X5117444Y-20023960D01*
X5117444Y-20023960D02*
X5107920Y-19976341D01*
X5107920Y-19976341D02*
X5107920Y-19938246D01*
X5107920Y-19938246D02*
X5117444Y-19890627D01*
X5117444Y-19890627D02*
X5126968Y-19862055D01*
X5126968Y-19862055D02*
X5136491Y-19843008D01*
X5136491Y-19843008D02*
X5155539Y-19814436D01*
X5155539Y-19814436D02*
X5165063Y-19804912D01*
X5326968Y-19833484D02*
X5288872Y-19833484D01*
X5288872Y-19833484D02*
X5269825Y-19843008D01*
X5269825Y-19843008D02*
X5260301Y-19852531D01*
X5260301Y-19852531D02*
X5241253Y-19881103D01*
X5241253Y-19881103D02*
X5231730Y-19919198D01*
X5231730Y-19919198D02*
X5231730Y-19995389D01*
X5231730Y-19995389D02*
X5241253Y-20014436D01*
X5241253Y-20014436D02*
X5250777Y-20023960D01*
X5250777Y-20023960D02*
X5269825Y-20033484D01*
X5269825Y-20033484D02*
X5307920Y-20033484D01*
X5307920Y-20033484D02*
X5326968Y-20023960D01*
X5326968Y-20023960D02*
X5336491Y-20014436D01*
X5336491Y-20014436D02*
X5346015Y-19995389D01*
X5346015Y-19995389D02*
X5346015Y-19947770D01*
X5346015Y-19947770D02*
X5336491Y-19928722D01*
X5336491Y-19928722D02*
X5326968Y-19919198D01*
X5326968Y-19919198D02*
X5307920Y-19909674D01*
X5307920Y-19909674D02*
X5269825Y-19909674D01*
X5269825Y-19909674D02*
X5250777Y-19919198D01*
X5250777Y-19919198D02*
X5241253Y-19928722D01*
X5241253Y-19928722D02*
X5231730Y-19947770D01*
X5517444Y-19900150D02*
X5517444Y-20033484D01*
X5469825Y-19823960D02*
X5422206Y-19966817D01*
X5422206Y-19966817D02*
X5546015Y-19966817D01*
X5774587Y-20033484D02*
X5774587Y-19833484D01*
X5860301Y-20033484D02*
X5860301Y-19928722D01*
X5860301Y-19928722D02*
X5850777Y-19909674D01*
X5850777Y-19909674D02*
X5831730Y-19900150D01*
X5831730Y-19900150D02*
X5803158Y-19900150D01*
X5803158Y-19900150D02*
X5784110Y-19909674D01*
X5784110Y-19909674D02*
X5774587Y-19919198D01*
X5984110Y-20033484D02*
X5965063Y-20023960D01*
X5965063Y-20023960D02*
X5955539Y-20014436D01*
X5955539Y-20014436D02*
X5946015Y-19995389D01*
X5946015Y-19995389D02*
X5946015Y-19938246D01*
X5946015Y-19938246D02*
X5955539Y-19919198D01*
X5955539Y-19919198D02*
X5965063Y-19909674D01*
X5965063Y-19909674D02*
X5984110Y-19900150D01*
X5984110Y-19900150D02*
X6012682Y-19900150D01*
X6012682Y-19900150D02*
X6031730Y-19909674D01*
X6031730Y-19909674D02*
X6041253Y-19919198D01*
X6041253Y-19919198D02*
X6050777Y-19938246D01*
X6050777Y-19938246D02*
X6050777Y-19995389D01*
X6050777Y-19995389D02*
X6041253Y-20014436D01*
X6041253Y-20014436D02*
X6031730Y-20023960D01*
X6031730Y-20023960D02*
X6012682Y-20033484D01*
X6012682Y-20033484D02*
X5984110Y-20033484D01*
X6165063Y-20033484D02*
X6146015Y-20023960D01*
X6146015Y-20023960D02*
X6136491Y-20004912D01*
X6136491Y-20004912D02*
X6136491Y-19833484D01*
X6317444Y-20023960D02*
X6298396Y-20033484D01*
X6298396Y-20033484D02*
X6260301Y-20033484D01*
X6260301Y-20033484D02*
X6241253Y-20023960D01*
X6241253Y-20023960D02*
X6231730Y-20004912D01*
X6231730Y-20004912D02*
X6231730Y-19928722D01*
X6231730Y-19928722D02*
X6241253Y-19909674D01*
X6241253Y-19909674D02*
X6260301Y-19900150D01*
X6260301Y-19900150D02*
X6298396Y-19900150D01*
X6298396Y-19900150D02*
X6317444Y-19909674D01*
X6317444Y-19909674D02*
X6326968Y-19928722D01*
X6326968Y-19928722D02*
X6326968Y-19947770D01*
X6326968Y-19947770D02*
X6231730Y-19966817D01*
X6403158Y-20023960D02*
X6422206Y-20033484D01*
X6422206Y-20033484D02*
X6460301Y-20033484D01*
X6460301Y-20033484D02*
X6479349Y-20023960D01*
X6479349Y-20023960D02*
X6488872Y-20004912D01*
X6488872Y-20004912D02*
X6488872Y-19995389D01*
X6488872Y-19995389D02*
X6479349Y-19976341D01*
X6479349Y-19976341D02*
X6460301Y-19966817D01*
X6460301Y-19966817D02*
X6431730Y-19966817D01*
X6431730Y-19966817D02*
X6412682Y-19957293D01*
X6412682Y-19957293D02*
X6403158Y-19938246D01*
X6403158Y-19938246D02*
X6403158Y-19928722D01*
X6403158Y-19928722D02*
X6412682Y-19909674D01*
X6412682Y-19909674D02*
X6431730Y-19900150D01*
X6431730Y-19900150D02*
X6460301Y-19900150D01*
X6460301Y-19900150D02*
X6479349Y-19909674D01*
X6555539Y-20109674D02*
X6565063Y-20100150D01*
X6565063Y-20100150D02*
X6584111Y-20071579D01*
X6584111Y-20071579D02*
X6593634Y-20052531D01*
X6593634Y-20052531D02*
X6603158Y-20023960D01*
X6603158Y-20023960D02*
X6612682Y-19976341D01*
X6612682Y-19976341D02*
X6612682Y-19938246D01*
X6612682Y-19938246D02*
X6603158Y-19890627D01*
X6603158Y-19890627D02*
X6593634Y-19862055D01*
X6593634Y-19862055D02*
X6584111Y-19843008D01*
X6584111Y-19843008D02*
X6565063Y-19814436D01*
X6565063Y-19814436D02*
X6555539Y-19804912D01*
D12*
X1539000Y-20257000D02*
X1590000Y-20206000D01*
X1539000Y-20155000D01*
X1488000Y-20206000D01*
X1539000Y-20257000D01*
D10*
X1955539Y-20297484D02*
X1841253Y-20297484D01*
X1898396Y-20297484D02*
X1898396Y-20097484D01*
X1898396Y-20097484D02*
X1879348Y-20126055D01*
X1879348Y-20126055D02*
X1860301Y-20145103D01*
X1860301Y-20145103D02*
X1841253Y-20154627D01*
X2041253Y-20278436D02*
X2050777Y-20287960D01*
X2050777Y-20287960D02*
X2041253Y-20297484D01*
X2041253Y-20297484D02*
X2031729Y-20287960D01*
X2031729Y-20287960D02*
X2041253Y-20278436D01*
X2041253Y-20278436D02*
X2041253Y-20297484D01*
X2174586Y-20097484D02*
X2193634Y-20097484D01*
X2193634Y-20097484D02*
X2212682Y-20107008D01*
X2212682Y-20107008D02*
X2222205Y-20116531D01*
X2222205Y-20116531D02*
X2231729Y-20135579D01*
X2231729Y-20135579D02*
X2241253Y-20173674D01*
X2241253Y-20173674D02*
X2241253Y-20221293D01*
X2241253Y-20221293D02*
X2231729Y-20259389D01*
X2231729Y-20259389D02*
X2222205Y-20278436D01*
X2222205Y-20278436D02*
X2212682Y-20287960D01*
X2212682Y-20287960D02*
X2193634Y-20297484D01*
X2193634Y-20297484D02*
X2174586Y-20297484D01*
X2174586Y-20297484D02*
X2155539Y-20287960D01*
X2155539Y-20287960D02*
X2146015Y-20278436D01*
X2146015Y-20278436D02*
X2136491Y-20259389D01*
X2136491Y-20259389D02*
X2126967Y-20221293D01*
X2126967Y-20221293D02*
X2126967Y-20173674D01*
X2126967Y-20173674D02*
X2136491Y-20135579D01*
X2136491Y-20135579D02*
X2146015Y-20116531D01*
X2146015Y-20116531D02*
X2155539Y-20107008D01*
X2155539Y-20107008D02*
X2174586Y-20097484D01*
X2317444Y-20116531D02*
X2326967Y-20107008D01*
X2326967Y-20107008D02*
X2346015Y-20097484D01*
X2346015Y-20097484D02*
X2393634Y-20097484D01*
X2393634Y-20097484D02*
X2412682Y-20107008D01*
X2412682Y-20107008D02*
X2422205Y-20116531D01*
X2422205Y-20116531D02*
X2431729Y-20135579D01*
X2431729Y-20135579D02*
X2431729Y-20154627D01*
X2431729Y-20154627D02*
X2422205Y-20183198D01*
X2422205Y-20183198D02*
X2307920Y-20297484D01*
X2307920Y-20297484D02*
X2431729Y-20297484D01*
X2555539Y-20097484D02*
X2574586Y-20097484D01*
X2574586Y-20097484D02*
X2593634Y-20107008D01*
X2593634Y-20107008D02*
X2603158Y-20116531D01*
X2603158Y-20116531D02*
X2612682Y-20135579D01*
X2612682Y-20135579D02*
X2622205Y-20173674D01*
X2622205Y-20173674D02*
X2622205Y-20221293D01*
X2622205Y-20221293D02*
X2612682Y-20259389D01*
X2612682Y-20259389D02*
X2603158Y-20278436D01*
X2603158Y-20278436D02*
X2593634Y-20287960D01*
X2593634Y-20287960D02*
X2574586Y-20297484D01*
X2574586Y-20297484D02*
X2555539Y-20297484D01*
X2555539Y-20297484D02*
X2536491Y-20287960D01*
X2536491Y-20287960D02*
X2526967Y-20278436D01*
X2526967Y-20278436D02*
X2517444Y-20259389D01*
X2517444Y-20259389D02*
X2507920Y-20221293D01*
X2507920Y-20221293D02*
X2507920Y-20173674D01*
X2507920Y-20173674D02*
X2517444Y-20135579D01*
X2517444Y-20135579D02*
X2526967Y-20116531D01*
X2526967Y-20116531D02*
X2536491Y-20107008D01*
X2536491Y-20107008D02*
X2555539Y-20097484D01*
X2707920Y-20297484D02*
X2707920Y-20164150D01*
X2707920Y-20183198D02*
X2717444Y-20173674D01*
X2717444Y-20173674D02*
X2736491Y-20164150D01*
X2736491Y-20164150D02*
X2765063Y-20164150D01*
X2765063Y-20164150D02*
X2784110Y-20173674D01*
X2784110Y-20173674D02*
X2793634Y-20192722D01*
X2793634Y-20192722D02*
X2793634Y-20297484D01*
X2793634Y-20192722D02*
X2803158Y-20173674D01*
X2803158Y-20173674D02*
X2822205Y-20164150D01*
X2822205Y-20164150D02*
X2850777Y-20164150D01*
X2850777Y-20164150D02*
X2869824Y-20173674D01*
X2869824Y-20173674D02*
X2879348Y-20192722D01*
X2879348Y-20192722D02*
X2879348Y-20297484D01*
X2974586Y-20297484D02*
X2974586Y-20164150D01*
X2974586Y-20183198D02*
X2984110Y-20173674D01*
X2984110Y-20173674D02*
X3003158Y-20164150D01*
X3003158Y-20164150D02*
X3031729Y-20164150D01*
X3031729Y-20164150D02*
X3050777Y-20173674D01*
X3050777Y-20173674D02*
X3060301Y-20192722D01*
X3060301Y-20192722D02*
X3060301Y-20297484D01*
X3060301Y-20192722D02*
X3069824Y-20173674D01*
X3069824Y-20173674D02*
X3088872Y-20164150D01*
X3088872Y-20164150D02*
X3117443Y-20164150D01*
X3117443Y-20164150D02*
X3136491Y-20173674D01*
X3136491Y-20173674D02*
X3146015Y-20192722D01*
X3146015Y-20192722D02*
X3146015Y-20297484D01*
X3536491Y-20087960D02*
X3365063Y-20345103D01*
X3793634Y-20097484D02*
X3812682Y-20097484D01*
X3812682Y-20097484D02*
X3831729Y-20107008D01*
X3831729Y-20107008D02*
X3841253Y-20116531D01*
X3841253Y-20116531D02*
X3850777Y-20135579D01*
X3850777Y-20135579D02*
X3860301Y-20173674D01*
X3860301Y-20173674D02*
X3860301Y-20221293D01*
X3860301Y-20221293D02*
X3850777Y-20259389D01*
X3850777Y-20259389D02*
X3841253Y-20278436D01*
X3841253Y-20278436D02*
X3831729Y-20287960D01*
X3831729Y-20287960D02*
X3812682Y-20297484D01*
X3812682Y-20297484D02*
X3793634Y-20297484D01*
X3793634Y-20297484D02*
X3774586Y-20287960D01*
X3774586Y-20287960D02*
X3765063Y-20278436D01*
X3765063Y-20278436D02*
X3755539Y-20259389D01*
X3755539Y-20259389D02*
X3746015Y-20221293D01*
X3746015Y-20221293D02*
X3746015Y-20173674D01*
X3746015Y-20173674D02*
X3755539Y-20135579D01*
X3755539Y-20135579D02*
X3765063Y-20116531D01*
X3765063Y-20116531D02*
X3774586Y-20107008D01*
X3774586Y-20107008D02*
X3793634Y-20097484D01*
X3946015Y-20278436D02*
X3955539Y-20287960D01*
X3955539Y-20287960D02*
X3946015Y-20297484D01*
X3946015Y-20297484D02*
X3936491Y-20287960D01*
X3936491Y-20287960D02*
X3946015Y-20278436D01*
X3946015Y-20278436D02*
X3946015Y-20297484D01*
X4079348Y-20097484D02*
X4098396Y-20097484D01*
X4098396Y-20097484D02*
X4117444Y-20107008D01*
X4117444Y-20107008D02*
X4126967Y-20116531D01*
X4126967Y-20116531D02*
X4136491Y-20135579D01*
X4136491Y-20135579D02*
X4146015Y-20173674D01*
X4146015Y-20173674D02*
X4146015Y-20221293D01*
X4146015Y-20221293D02*
X4136491Y-20259389D01*
X4136491Y-20259389D02*
X4126967Y-20278436D01*
X4126967Y-20278436D02*
X4117444Y-20287960D01*
X4117444Y-20287960D02*
X4098396Y-20297484D01*
X4098396Y-20297484D02*
X4079348Y-20297484D01*
X4079348Y-20297484D02*
X4060301Y-20287960D01*
X4060301Y-20287960D02*
X4050777Y-20278436D01*
X4050777Y-20278436D02*
X4041253Y-20259389D01*
X4041253Y-20259389D02*
X4031729Y-20221293D01*
X4031729Y-20221293D02*
X4031729Y-20173674D01*
X4031729Y-20173674D02*
X4041253Y-20135579D01*
X4041253Y-20135579D02*
X4050777Y-20116531D01*
X4050777Y-20116531D02*
X4060301Y-20107008D01*
X4060301Y-20107008D02*
X4079348Y-20097484D01*
X4317444Y-20164150D02*
X4317444Y-20297484D01*
X4269825Y-20087960D02*
X4222206Y-20230817D01*
X4222206Y-20230817D02*
X4346015Y-20230817D01*
X4460301Y-20097484D02*
X4479349Y-20097484D01*
X4479349Y-20097484D02*
X4498396Y-20107008D01*
X4498396Y-20107008D02*
X4507920Y-20116531D01*
X4507920Y-20116531D02*
X4517444Y-20135579D01*
X4517444Y-20135579D02*
X4526968Y-20173674D01*
X4526968Y-20173674D02*
X4526968Y-20221293D01*
X4526968Y-20221293D02*
X4517444Y-20259389D01*
X4517444Y-20259389D02*
X4507920Y-20278436D01*
X4507920Y-20278436D02*
X4498396Y-20287960D01*
X4498396Y-20287960D02*
X4479349Y-20297484D01*
X4479349Y-20297484D02*
X4460301Y-20297484D01*
X4460301Y-20297484D02*
X4441253Y-20287960D01*
X4441253Y-20287960D02*
X4431729Y-20278436D01*
X4431729Y-20278436D02*
X4422206Y-20259389D01*
X4422206Y-20259389D02*
X4412682Y-20221293D01*
X4412682Y-20221293D02*
X4412682Y-20173674D01*
X4412682Y-20173674D02*
X4422206Y-20135579D01*
X4422206Y-20135579D02*
X4431729Y-20116531D01*
X4431729Y-20116531D02*
X4441253Y-20107008D01*
X4441253Y-20107008D02*
X4460301Y-20097484D01*
X4603158Y-20116531D02*
X4612682Y-20107008D01*
X4612682Y-20107008D02*
X4631729Y-20097484D01*
X4631729Y-20097484D02*
X4679349Y-20097484D01*
X4679349Y-20097484D02*
X4698396Y-20107008D01*
X4698396Y-20107008D02*
X4707920Y-20116531D01*
X4707920Y-20116531D02*
X4717444Y-20135579D01*
X4717444Y-20135579D02*
X4717444Y-20154627D01*
X4717444Y-20154627D02*
X4707920Y-20183198D01*
X4707920Y-20183198D02*
X4593634Y-20297484D01*
X4593634Y-20297484D02*
X4717444Y-20297484D01*
X4793634Y-20097484D02*
X4793634Y-20135579D01*
X4869825Y-20097484D02*
X4869825Y-20135579D01*
X5165063Y-20373674D02*
X5155539Y-20364150D01*
X5155539Y-20364150D02*
X5136491Y-20335579D01*
X5136491Y-20335579D02*
X5126968Y-20316531D01*
X5126968Y-20316531D02*
X5117444Y-20287960D01*
X5117444Y-20287960D02*
X5107920Y-20240341D01*
X5107920Y-20240341D02*
X5107920Y-20202246D01*
X5107920Y-20202246D02*
X5117444Y-20154627D01*
X5117444Y-20154627D02*
X5126968Y-20126055D01*
X5126968Y-20126055D02*
X5136491Y-20107008D01*
X5136491Y-20107008D02*
X5155539Y-20078436D01*
X5155539Y-20078436D02*
X5165063Y-20068912D01*
X5336491Y-20097484D02*
X5241253Y-20097484D01*
X5241253Y-20097484D02*
X5231730Y-20192722D01*
X5231730Y-20192722D02*
X5241253Y-20183198D01*
X5241253Y-20183198D02*
X5260301Y-20173674D01*
X5260301Y-20173674D02*
X5307920Y-20173674D01*
X5307920Y-20173674D02*
X5326968Y-20183198D01*
X5326968Y-20183198D02*
X5336491Y-20192722D01*
X5336491Y-20192722D02*
X5346015Y-20211770D01*
X5346015Y-20211770D02*
X5346015Y-20259389D01*
X5346015Y-20259389D02*
X5336491Y-20278436D01*
X5336491Y-20278436D02*
X5326968Y-20287960D01*
X5326968Y-20287960D02*
X5307920Y-20297484D01*
X5307920Y-20297484D02*
X5260301Y-20297484D01*
X5260301Y-20297484D02*
X5241253Y-20287960D01*
X5241253Y-20287960D02*
X5231730Y-20278436D01*
X5517444Y-20097484D02*
X5479349Y-20097484D01*
X5479349Y-20097484D02*
X5460301Y-20107008D01*
X5460301Y-20107008D02*
X5450777Y-20116531D01*
X5450777Y-20116531D02*
X5431730Y-20145103D01*
X5431730Y-20145103D02*
X5422206Y-20183198D01*
X5422206Y-20183198D02*
X5422206Y-20259389D01*
X5422206Y-20259389D02*
X5431730Y-20278436D01*
X5431730Y-20278436D02*
X5441253Y-20287960D01*
X5441253Y-20287960D02*
X5460301Y-20297484D01*
X5460301Y-20297484D02*
X5498396Y-20297484D01*
X5498396Y-20297484D02*
X5517444Y-20287960D01*
X5517444Y-20287960D02*
X5526968Y-20278436D01*
X5526968Y-20278436D02*
X5536491Y-20259389D01*
X5536491Y-20259389D02*
X5536491Y-20211770D01*
X5536491Y-20211770D02*
X5526968Y-20192722D01*
X5526968Y-20192722D02*
X5517444Y-20183198D01*
X5517444Y-20183198D02*
X5498396Y-20173674D01*
X5498396Y-20173674D02*
X5460301Y-20173674D01*
X5460301Y-20173674D02*
X5441253Y-20183198D01*
X5441253Y-20183198D02*
X5431730Y-20192722D01*
X5431730Y-20192722D02*
X5422206Y-20211770D01*
X5774587Y-20297484D02*
X5774587Y-20097484D01*
X5860301Y-20297484D02*
X5860301Y-20192722D01*
X5860301Y-20192722D02*
X5850777Y-20173674D01*
X5850777Y-20173674D02*
X5831730Y-20164150D01*
X5831730Y-20164150D02*
X5803158Y-20164150D01*
X5803158Y-20164150D02*
X5784110Y-20173674D01*
X5784110Y-20173674D02*
X5774587Y-20183198D01*
X5984110Y-20297484D02*
X5965063Y-20287960D01*
X5965063Y-20287960D02*
X5955539Y-20278436D01*
X5955539Y-20278436D02*
X5946015Y-20259389D01*
X5946015Y-20259389D02*
X5946015Y-20202246D01*
X5946015Y-20202246D02*
X5955539Y-20183198D01*
X5955539Y-20183198D02*
X5965063Y-20173674D01*
X5965063Y-20173674D02*
X5984110Y-20164150D01*
X5984110Y-20164150D02*
X6012682Y-20164150D01*
X6012682Y-20164150D02*
X6031730Y-20173674D01*
X6031730Y-20173674D02*
X6041253Y-20183198D01*
X6041253Y-20183198D02*
X6050777Y-20202246D01*
X6050777Y-20202246D02*
X6050777Y-20259389D01*
X6050777Y-20259389D02*
X6041253Y-20278436D01*
X6041253Y-20278436D02*
X6031730Y-20287960D01*
X6031730Y-20287960D02*
X6012682Y-20297484D01*
X6012682Y-20297484D02*
X5984110Y-20297484D01*
X6165063Y-20297484D02*
X6146015Y-20287960D01*
X6146015Y-20287960D02*
X6136491Y-20268912D01*
X6136491Y-20268912D02*
X6136491Y-20097484D01*
X6317444Y-20287960D02*
X6298396Y-20297484D01*
X6298396Y-20297484D02*
X6260301Y-20297484D01*
X6260301Y-20297484D02*
X6241253Y-20287960D01*
X6241253Y-20287960D02*
X6231730Y-20268912D01*
X6231730Y-20268912D02*
X6231730Y-20192722D01*
X6231730Y-20192722D02*
X6241253Y-20173674D01*
X6241253Y-20173674D02*
X6260301Y-20164150D01*
X6260301Y-20164150D02*
X6298396Y-20164150D01*
X6298396Y-20164150D02*
X6317444Y-20173674D01*
X6317444Y-20173674D02*
X6326968Y-20192722D01*
X6326968Y-20192722D02*
X6326968Y-20211770D01*
X6326968Y-20211770D02*
X6231730Y-20230817D01*
X6403158Y-20287960D02*
X6422206Y-20297484D01*
X6422206Y-20297484D02*
X6460301Y-20297484D01*
X6460301Y-20297484D02*
X6479349Y-20287960D01*
X6479349Y-20287960D02*
X6488872Y-20268912D01*
X6488872Y-20268912D02*
X6488872Y-20259389D01*
X6488872Y-20259389D02*
X6479349Y-20240341D01*
X6479349Y-20240341D02*
X6460301Y-20230817D01*
X6460301Y-20230817D02*
X6431730Y-20230817D01*
X6431730Y-20230817D02*
X6412682Y-20221293D01*
X6412682Y-20221293D02*
X6403158Y-20202246D01*
X6403158Y-20202246D02*
X6403158Y-20192722D01*
X6403158Y-20192722D02*
X6412682Y-20173674D01*
X6412682Y-20173674D02*
X6431730Y-20164150D01*
X6431730Y-20164150D02*
X6460301Y-20164150D01*
X6460301Y-20164150D02*
X6479349Y-20173674D01*
X6555539Y-20373674D02*
X6565063Y-20364150D01*
X6565063Y-20364150D02*
X6584111Y-20335579D01*
X6584111Y-20335579D02*
X6593634Y-20316531D01*
X6593634Y-20316531D02*
X6603158Y-20287960D01*
X6603158Y-20287960D02*
X6612682Y-20240341D01*
X6612682Y-20240341D02*
X6612682Y-20202246D01*
X6612682Y-20202246D02*
X6603158Y-20154627D01*
X6603158Y-20154627D02*
X6593634Y-20126055D01*
X6593634Y-20126055D02*
X6584111Y-20107008D01*
X6584111Y-20107008D02*
X6565063Y-20078436D01*
X6565063Y-20078436D02*
X6555539Y-20068912D01*
D13*
X1460000Y-20405000D02*
X1590000Y-20535000D01*
X1590000Y-20405000D02*
X1460000Y-20535000D01*
X1590000Y-20470000D02*
G75*
G03*
X1590000Y-20470000I-65000J0D01*
G01*
D10*
X1955539Y-20561484D02*
X1841253Y-20561484D01*
X1898396Y-20561484D02*
X1898396Y-20361484D01*
X1898396Y-20361484D02*
X1879348Y-20390055D01*
X1879348Y-20390055D02*
X1860301Y-20409103D01*
X1860301Y-20409103D02*
X1841253Y-20418627D01*
X2041253Y-20542436D02*
X2050777Y-20551960D01*
X2050777Y-20551960D02*
X2041253Y-20561484D01*
X2041253Y-20561484D02*
X2031729Y-20551960D01*
X2031729Y-20551960D02*
X2041253Y-20542436D01*
X2041253Y-20542436D02*
X2041253Y-20561484D01*
X2117444Y-20361484D02*
X2241253Y-20361484D01*
X2241253Y-20361484D02*
X2174586Y-20437674D01*
X2174586Y-20437674D02*
X2203158Y-20437674D01*
X2203158Y-20437674D02*
X2222205Y-20447198D01*
X2222205Y-20447198D02*
X2231729Y-20456722D01*
X2231729Y-20456722D02*
X2241253Y-20475770D01*
X2241253Y-20475770D02*
X2241253Y-20523389D01*
X2241253Y-20523389D02*
X2231729Y-20542436D01*
X2231729Y-20542436D02*
X2222205Y-20551960D01*
X2222205Y-20551960D02*
X2203158Y-20561484D01*
X2203158Y-20561484D02*
X2146015Y-20561484D01*
X2146015Y-20561484D02*
X2126967Y-20551960D01*
X2126967Y-20551960D02*
X2117444Y-20542436D01*
X2365063Y-20361484D02*
X2384110Y-20361484D01*
X2384110Y-20361484D02*
X2403158Y-20371008D01*
X2403158Y-20371008D02*
X2412682Y-20380531D01*
X2412682Y-20380531D02*
X2422205Y-20399579D01*
X2422205Y-20399579D02*
X2431729Y-20437674D01*
X2431729Y-20437674D02*
X2431729Y-20485293D01*
X2431729Y-20485293D02*
X2422205Y-20523389D01*
X2422205Y-20523389D02*
X2412682Y-20542436D01*
X2412682Y-20542436D02*
X2403158Y-20551960D01*
X2403158Y-20551960D02*
X2384110Y-20561484D01*
X2384110Y-20561484D02*
X2365063Y-20561484D01*
X2365063Y-20561484D02*
X2346015Y-20551960D01*
X2346015Y-20551960D02*
X2336491Y-20542436D01*
X2336491Y-20542436D02*
X2326967Y-20523389D01*
X2326967Y-20523389D02*
X2317444Y-20485293D01*
X2317444Y-20485293D02*
X2317444Y-20437674D01*
X2317444Y-20437674D02*
X2326967Y-20399579D01*
X2326967Y-20399579D02*
X2336491Y-20380531D01*
X2336491Y-20380531D02*
X2346015Y-20371008D01*
X2346015Y-20371008D02*
X2365063Y-20361484D01*
X2555539Y-20361484D02*
X2574586Y-20361484D01*
X2574586Y-20361484D02*
X2593634Y-20371008D01*
X2593634Y-20371008D02*
X2603158Y-20380531D01*
X2603158Y-20380531D02*
X2612682Y-20399579D01*
X2612682Y-20399579D02*
X2622205Y-20437674D01*
X2622205Y-20437674D02*
X2622205Y-20485293D01*
X2622205Y-20485293D02*
X2612682Y-20523389D01*
X2612682Y-20523389D02*
X2603158Y-20542436D01*
X2603158Y-20542436D02*
X2593634Y-20551960D01*
X2593634Y-20551960D02*
X2574586Y-20561484D01*
X2574586Y-20561484D02*
X2555539Y-20561484D01*
X2555539Y-20561484D02*
X2536491Y-20551960D01*
X2536491Y-20551960D02*
X2526967Y-20542436D01*
X2526967Y-20542436D02*
X2517444Y-20523389D01*
X2517444Y-20523389D02*
X2507920Y-20485293D01*
X2507920Y-20485293D02*
X2507920Y-20437674D01*
X2507920Y-20437674D02*
X2517444Y-20399579D01*
X2517444Y-20399579D02*
X2526967Y-20380531D01*
X2526967Y-20380531D02*
X2536491Y-20371008D01*
X2536491Y-20371008D02*
X2555539Y-20361484D01*
X2707920Y-20561484D02*
X2707920Y-20428150D01*
X2707920Y-20447198D02*
X2717444Y-20437674D01*
X2717444Y-20437674D02*
X2736491Y-20428150D01*
X2736491Y-20428150D02*
X2765063Y-20428150D01*
X2765063Y-20428150D02*
X2784110Y-20437674D01*
X2784110Y-20437674D02*
X2793634Y-20456722D01*
X2793634Y-20456722D02*
X2793634Y-20561484D01*
X2793634Y-20456722D02*
X2803158Y-20437674D01*
X2803158Y-20437674D02*
X2822205Y-20428150D01*
X2822205Y-20428150D02*
X2850777Y-20428150D01*
X2850777Y-20428150D02*
X2869824Y-20437674D01*
X2869824Y-20437674D02*
X2879348Y-20456722D01*
X2879348Y-20456722D02*
X2879348Y-20561484D01*
X2974586Y-20561484D02*
X2974586Y-20428150D01*
X2974586Y-20447198D02*
X2984110Y-20437674D01*
X2984110Y-20437674D02*
X3003158Y-20428150D01*
X3003158Y-20428150D02*
X3031729Y-20428150D01*
X3031729Y-20428150D02*
X3050777Y-20437674D01*
X3050777Y-20437674D02*
X3060301Y-20456722D01*
X3060301Y-20456722D02*
X3060301Y-20561484D01*
X3060301Y-20456722D02*
X3069824Y-20437674D01*
X3069824Y-20437674D02*
X3088872Y-20428150D01*
X3088872Y-20428150D02*
X3117443Y-20428150D01*
X3117443Y-20428150D02*
X3136491Y-20437674D01*
X3136491Y-20437674D02*
X3146015Y-20456722D01*
X3146015Y-20456722D02*
X3146015Y-20561484D01*
X3536491Y-20351960D02*
X3365063Y-20609103D01*
X3793634Y-20361484D02*
X3812682Y-20361484D01*
X3812682Y-20361484D02*
X3831729Y-20371008D01*
X3831729Y-20371008D02*
X3841253Y-20380531D01*
X3841253Y-20380531D02*
X3850777Y-20399579D01*
X3850777Y-20399579D02*
X3860301Y-20437674D01*
X3860301Y-20437674D02*
X3860301Y-20485293D01*
X3860301Y-20485293D02*
X3850777Y-20523389D01*
X3850777Y-20523389D02*
X3841253Y-20542436D01*
X3841253Y-20542436D02*
X3831729Y-20551960D01*
X3831729Y-20551960D02*
X3812682Y-20561484D01*
X3812682Y-20561484D02*
X3793634Y-20561484D01*
X3793634Y-20561484D02*
X3774586Y-20551960D01*
X3774586Y-20551960D02*
X3765063Y-20542436D01*
X3765063Y-20542436D02*
X3755539Y-20523389D01*
X3755539Y-20523389D02*
X3746015Y-20485293D01*
X3746015Y-20485293D02*
X3746015Y-20437674D01*
X3746015Y-20437674D02*
X3755539Y-20399579D01*
X3755539Y-20399579D02*
X3765063Y-20380531D01*
X3765063Y-20380531D02*
X3774586Y-20371008D01*
X3774586Y-20371008D02*
X3793634Y-20361484D01*
X3946015Y-20542436D02*
X3955539Y-20551960D01*
X3955539Y-20551960D02*
X3946015Y-20561484D01*
X3946015Y-20561484D02*
X3936491Y-20551960D01*
X3936491Y-20551960D02*
X3946015Y-20542436D01*
X3946015Y-20542436D02*
X3946015Y-20561484D01*
X4079348Y-20361484D02*
X4098396Y-20361484D01*
X4098396Y-20361484D02*
X4117444Y-20371008D01*
X4117444Y-20371008D02*
X4126967Y-20380531D01*
X4126967Y-20380531D02*
X4136491Y-20399579D01*
X4136491Y-20399579D02*
X4146015Y-20437674D01*
X4146015Y-20437674D02*
X4146015Y-20485293D01*
X4146015Y-20485293D02*
X4136491Y-20523389D01*
X4136491Y-20523389D02*
X4126967Y-20542436D01*
X4126967Y-20542436D02*
X4117444Y-20551960D01*
X4117444Y-20551960D02*
X4098396Y-20561484D01*
X4098396Y-20561484D02*
X4079348Y-20561484D01*
X4079348Y-20561484D02*
X4060301Y-20551960D01*
X4060301Y-20551960D02*
X4050777Y-20542436D01*
X4050777Y-20542436D02*
X4041253Y-20523389D01*
X4041253Y-20523389D02*
X4031729Y-20485293D01*
X4031729Y-20485293D02*
X4031729Y-20437674D01*
X4031729Y-20437674D02*
X4041253Y-20399579D01*
X4041253Y-20399579D02*
X4050777Y-20380531D01*
X4050777Y-20380531D02*
X4060301Y-20371008D01*
X4060301Y-20371008D02*
X4079348Y-20361484D01*
X4326968Y-20361484D02*
X4231729Y-20361484D01*
X4231729Y-20361484D02*
X4222206Y-20456722D01*
X4222206Y-20456722D02*
X4231729Y-20447198D01*
X4231729Y-20447198D02*
X4250777Y-20437674D01*
X4250777Y-20437674D02*
X4298396Y-20437674D01*
X4298396Y-20437674D02*
X4317444Y-20447198D01*
X4317444Y-20447198D02*
X4326968Y-20456722D01*
X4326968Y-20456722D02*
X4336491Y-20475770D01*
X4336491Y-20475770D02*
X4336491Y-20523389D01*
X4336491Y-20523389D02*
X4326968Y-20542436D01*
X4326968Y-20542436D02*
X4317444Y-20551960D01*
X4317444Y-20551960D02*
X4298396Y-20561484D01*
X4298396Y-20561484D02*
X4250777Y-20561484D01*
X4250777Y-20561484D02*
X4231729Y-20551960D01*
X4231729Y-20551960D02*
X4222206Y-20542436D01*
X4526968Y-20561484D02*
X4412682Y-20561484D01*
X4469825Y-20561484D02*
X4469825Y-20361484D01*
X4469825Y-20361484D02*
X4450777Y-20390055D01*
X4450777Y-20390055D02*
X4431729Y-20409103D01*
X4431729Y-20409103D02*
X4412682Y-20418627D01*
X4603158Y-20380531D02*
X4612682Y-20371008D01*
X4612682Y-20371008D02*
X4631729Y-20361484D01*
X4631729Y-20361484D02*
X4679349Y-20361484D01*
X4679349Y-20361484D02*
X4698396Y-20371008D01*
X4698396Y-20371008D02*
X4707920Y-20380531D01*
X4707920Y-20380531D02*
X4717444Y-20399579D01*
X4717444Y-20399579D02*
X4717444Y-20418627D01*
X4717444Y-20418627D02*
X4707920Y-20447198D01*
X4707920Y-20447198D02*
X4593634Y-20561484D01*
X4593634Y-20561484D02*
X4717444Y-20561484D01*
X4793634Y-20361484D02*
X4793634Y-20399579D01*
X4869825Y-20361484D02*
X4869825Y-20399579D01*
X5165063Y-20637674D02*
X5155539Y-20628150D01*
X5155539Y-20628150D02*
X5136491Y-20599579D01*
X5136491Y-20599579D02*
X5126968Y-20580531D01*
X5126968Y-20580531D02*
X5117444Y-20551960D01*
X5117444Y-20551960D02*
X5107920Y-20504341D01*
X5107920Y-20504341D02*
X5107920Y-20466246D01*
X5107920Y-20466246D02*
X5117444Y-20418627D01*
X5117444Y-20418627D02*
X5126968Y-20390055D01*
X5126968Y-20390055D02*
X5136491Y-20371008D01*
X5136491Y-20371008D02*
X5155539Y-20342436D01*
X5155539Y-20342436D02*
X5165063Y-20332912D01*
X5326968Y-20428150D02*
X5326968Y-20561484D01*
X5279349Y-20351960D02*
X5231730Y-20494817D01*
X5231730Y-20494817D02*
X5355539Y-20494817D01*
X5584111Y-20561484D02*
X5584111Y-20361484D01*
X5669825Y-20561484D02*
X5669825Y-20456722D01*
X5669825Y-20456722D02*
X5660301Y-20437674D01*
X5660301Y-20437674D02*
X5641253Y-20428150D01*
X5641253Y-20428150D02*
X5612682Y-20428150D01*
X5612682Y-20428150D02*
X5593634Y-20437674D01*
X5593634Y-20437674D02*
X5584111Y-20447198D01*
X5793634Y-20561484D02*
X5774587Y-20551960D01*
X5774587Y-20551960D02*
X5765063Y-20542436D01*
X5765063Y-20542436D02*
X5755539Y-20523389D01*
X5755539Y-20523389D02*
X5755539Y-20466246D01*
X5755539Y-20466246D02*
X5765063Y-20447198D01*
X5765063Y-20447198D02*
X5774587Y-20437674D01*
X5774587Y-20437674D02*
X5793634Y-20428150D01*
X5793634Y-20428150D02*
X5822206Y-20428150D01*
X5822206Y-20428150D02*
X5841253Y-20437674D01*
X5841253Y-20437674D02*
X5850777Y-20447198D01*
X5850777Y-20447198D02*
X5860301Y-20466246D01*
X5860301Y-20466246D02*
X5860301Y-20523389D01*
X5860301Y-20523389D02*
X5850777Y-20542436D01*
X5850777Y-20542436D02*
X5841253Y-20551960D01*
X5841253Y-20551960D02*
X5822206Y-20561484D01*
X5822206Y-20561484D02*
X5793634Y-20561484D01*
X5974587Y-20561484D02*
X5955539Y-20551960D01*
X5955539Y-20551960D02*
X5946015Y-20532912D01*
X5946015Y-20532912D02*
X5946015Y-20361484D01*
X6126968Y-20551960D02*
X6107920Y-20561484D01*
X6107920Y-20561484D02*
X6069825Y-20561484D01*
X6069825Y-20561484D02*
X6050777Y-20551960D01*
X6050777Y-20551960D02*
X6041253Y-20532912D01*
X6041253Y-20532912D02*
X6041253Y-20456722D01*
X6041253Y-20456722D02*
X6050777Y-20437674D01*
X6050777Y-20437674D02*
X6069825Y-20428150D01*
X6069825Y-20428150D02*
X6107920Y-20428150D01*
X6107920Y-20428150D02*
X6126968Y-20437674D01*
X6126968Y-20437674D02*
X6136491Y-20456722D01*
X6136491Y-20456722D02*
X6136491Y-20475770D01*
X6136491Y-20475770D02*
X6041253Y-20494817D01*
X6212682Y-20551960D02*
X6231730Y-20561484D01*
X6231730Y-20561484D02*
X6269825Y-20561484D01*
X6269825Y-20561484D02*
X6288872Y-20551960D01*
X6288872Y-20551960D02*
X6298396Y-20532912D01*
X6298396Y-20532912D02*
X6298396Y-20523389D01*
X6298396Y-20523389D02*
X6288872Y-20504341D01*
X6288872Y-20504341D02*
X6269825Y-20494817D01*
X6269825Y-20494817D02*
X6241253Y-20494817D01*
X6241253Y-20494817D02*
X6222206Y-20485293D01*
X6222206Y-20485293D02*
X6212682Y-20466246D01*
X6212682Y-20466246D02*
X6212682Y-20456722D01*
X6212682Y-20456722D02*
X6222206Y-20437674D01*
X6222206Y-20437674D02*
X6241253Y-20428150D01*
X6241253Y-20428150D02*
X6269825Y-20428150D01*
X6269825Y-20428150D02*
X6288872Y-20437674D01*
X6365063Y-20637674D02*
X6374587Y-20628150D01*
X6374587Y-20628150D02*
X6393634Y-20599579D01*
X6393634Y-20599579D02*
X6403158Y-20580531D01*
X6403158Y-20580531D02*
X6412682Y-20551960D01*
X6412682Y-20551960D02*
X6422206Y-20504341D01*
X6422206Y-20504341D02*
X6422206Y-20466246D01*
X6422206Y-20466246D02*
X6412682Y-20418627D01*
X6412682Y-20418627D02*
X6403158Y-20390055D01*
X6403158Y-20390055D02*
X6393634Y-20371008D01*
X6393634Y-20371008D02*
X6374587Y-20342436D01*
X6374587Y-20342436D02*
X6365063Y-20332912D01*
X1390000Y-20634000D02*
X1590000Y-20834000D01*
X1590000Y-20634000D02*
X1390000Y-20834000D01*
X1490000Y-20634000D02*
X1490000Y-20834000D01*
X1390000Y-20734000D02*
X1590000Y-20734000D01*
X1831729Y-20625484D02*
X1955539Y-20625484D01*
X1955539Y-20625484D02*
X1888872Y-20701674D01*
X1888872Y-20701674D02*
X1917443Y-20701674D01*
X1917443Y-20701674D02*
X1936491Y-20711198D01*
X1936491Y-20711198D02*
X1946015Y-20720722D01*
X1946015Y-20720722D02*
X1955539Y-20739770D01*
X1955539Y-20739770D02*
X1955539Y-20787389D01*
X1955539Y-20787389D02*
X1946015Y-20806436D01*
X1946015Y-20806436D02*
X1936491Y-20815960D01*
X1936491Y-20815960D02*
X1917443Y-20825484D01*
X1917443Y-20825484D02*
X1860301Y-20825484D01*
X1860301Y-20825484D02*
X1841253Y-20815960D01*
X1841253Y-20815960D02*
X1831729Y-20806436D01*
X2041253Y-20806436D02*
X2050777Y-20815960D01*
X2050777Y-20815960D02*
X2041253Y-20825484D01*
X2041253Y-20825484D02*
X2031729Y-20815960D01*
X2031729Y-20815960D02*
X2041253Y-20806436D01*
X2041253Y-20806436D02*
X2041253Y-20825484D01*
X2117444Y-20625484D02*
X2241253Y-20625484D01*
X2241253Y-20625484D02*
X2174586Y-20701674D01*
X2174586Y-20701674D02*
X2203158Y-20701674D01*
X2203158Y-20701674D02*
X2222205Y-20711198D01*
X2222205Y-20711198D02*
X2231729Y-20720722D01*
X2231729Y-20720722D02*
X2241253Y-20739770D01*
X2241253Y-20739770D02*
X2241253Y-20787389D01*
X2241253Y-20787389D02*
X2231729Y-20806436D01*
X2231729Y-20806436D02*
X2222205Y-20815960D01*
X2222205Y-20815960D02*
X2203158Y-20825484D01*
X2203158Y-20825484D02*
X2146015Y-20825484D01*
X2146015Y-20825484D02*
X2126967Y-20815960D01*
X2126967Y-20815960D02*
X2117444Y-20806436D01*
X2365063Y-20625484D02*
X2384110Y-20625484D01*
X2384110Y-20625484D02*
X2403158Y-20635008D01*
X2403158Y-20635008D02*
X2412682Y-20644531D01*
X2412682Y-20644531D02*
X2422205Y-20663579D01*
X2422205Y-20663579D02*
X2431729Y-20701674D01*
X2431729Y-20701674D02*
X2431729Y-20749293D01*
X2431729Y-20749293D02*
X2422205Y-20787389D01*
X2422205Y-20787389D02*
X2412682Y-20806436D01*
X2412682Y-20806436D02*
X2403158Y-20815960D01*
X2403158Y-20815960D02*
X2384110Y-20825484D01*
X2384110Y-20825484D02*
X2365063Y-20825484D01*
X2365063Y-20825484D02*
X2346015Y-20815960D01*
X2346015Y-20815960D02*
X2336491Y-20806436D01*
X2336491Y-20806436D02*
X2326967Y-20787389D01*
X2326967Y-20787389D02*
X2317444Y-20749293D01*
X2317444Y-20749293D02*
X2317444Y-20701674D01*
X2317444Y-20701674D02*
X2326967Y-20663579D01*
X2326967Y-20663579D02*
X2336491Y-20644531D01*
X2336491Y-20644531D02*
X2346015Y-20635008D01*
X2346015Y-20635008D02*
X2365063Y-20625484D01*
X2555539Y-20625484D02*
X2574586Y-20625484D01*
X2574586Y-20625484D02*
X2593634Y-20635008D01*
X2593634Y-20635008D02*
X2603158Y-20644531D01*
X2603158Y-20644531D02*
X2612682Y-20663579D01*
X2612682Y-20663579D02*
X2622205Y-20701674D01*
X2622205Y-20701674D02*
X2622205Y-20749293D01*
X2622205Y-20749293D02*
X2612682Y-20787389D01*
X2612682Y-20787389D02*
X2603158Y-20806436D01*
X2603158Y-20806436D02*
X2593634Y-20815960D01*
X2593634Y-20815960D02*
X2574586Y-20825484D01*
X2574586Y-20825484D02*
X2555539Y-20825484D01*
X2555539Y-20825484D02*
X2536491Y-20815960D01*
X2536491Y-20815960D02*
X2526967Y-20806436D01*
X2526967Y-20806436D02*
X2517444Y-20787389D01*
X2517444Y-20787389D02*
X2507920Y-20749293D01*
X2507920Y-20749293D02*
X2507920Y-20701674D01*
X2507920Y-20701674D02*
X2517444Y-20663579D01*
X2517444Y-20663579D02*
X2526967Y-20644531D01*
X2526967Y-20644531D02*
X2536491Y-20635008D01*
X2536491Y-20635008D02*
X2555539Y-20625484D01*
X2707920Y-20825484D02*
X2707920Y-20692150D01*
X2707920Y-20711198D02*
X2717444Y-20701674D01*
X2717444Y-20701674D02*
X2736491Y-20692150D01*
X2736491Y-20692150D02*
X2765063Y-20692150D01*
X2765063Y-20692150D02*
X2784110Y-20701674D01*
X2784110Y-20701674D02*
X2793634Y-20720722D01*
X2793634Y-20720722D02*
X2793634Y-20825484D01*
X2793634Y-20720722D02*
X2803158Y-20701674D01*
X2803158Y-20701674D02*
X2822205Y-20692150D01*
X2822205Y-20692150D02*
X2850777Y-20692150D01*
X2850777Y-20692150D02*
X2869824Y-20701674D01*
X2869824Y-20701674D02*
X2879348Y-20720722D01*
X2879348Y-20720722D02*
X2879348Y-20825484D01*
X2974586Y-20825484D02*
X2974586Y-20692150D01*
X2974586Y-20711198D02*
X2984110Y-20701674D01*
X2984110Y-20701674D02*
X3003158Y-20692150D01*
X3003158Y-20692150D02*
X3031729Y-20692150D01*
X3031729Y-20692150D02*
X3050777Y-20701674D01*
X3050777Y-20701674D02*
X3060301Y-20720722D01*
X3060301Y-20720722D02*
X3060301Y-20825484D01*
X3060301Y-20720722D02*
X3069824Y-20701674D01*
X3069824Y-20701674D02*
X3088872Y-20692150D01*
X3088872Y-20692150D02*
X3117443Y-20692150D01*
X3117443Y-20692150D02*
X3136491Y-20701674D01*
X3136491Y-20701674D02*
X3146015Y-20720722D01*
X3146015Y-20720722D02*
X3146015Y-20825484D01*
X3536491Y-20615960D02*
X3365063Y-20873103D01*
X3793634Y-20625484D02*
X3812682Y-20625484D01*
X3812682Y-20625484D02*
X3831729Y-20635008D01*
X3831729Y-20635008D02*
X3841253Y-20644531D01*
X3841253Y-20644531D02*
X3850777Y-20663579D01*
X3850777Y-20663579D02*
X3860301Y-20701674D01*
X3860301Y-20701674D02*
X3860301Y-20749293D01*
X3860301Y-20749293D02*
X3850777Y-20787389D01*
X3850777Y-20787389D02*
X3841253Y-20806436D01*
X3841253Y-20806436D02*
X3831729Y-20815960D01*
X3831729Y-20815960D02*
X3812682Y-20825484D01*
X3812682Y-20825484D02*
X3793634Y-20825484D01*
X3793634Y-20825484D02*
X3774586Y-20815960D01*
X3774586Y-20815960D02*
X3765063Y-20806436D01*
X3765063Y-20806436D02*
X3755539Y-20787389D01*
X3755539Y-20787389D02*
X3746015Y-20749293D01*
X3746015Y-20749293D02*
X3746015Y-20701674D01*
X3746015Y-20701674D02*
X3755539Y-20663579D01*
X3755539Y-20663579D02*
X3765063Y-20644531D01*
X3765063Y-20644531D02*
X3774586Y-20635008D01*
X3774586Y-20635008D02*
X3793634Y-20625484D01*
X3946015Y-20806436D02*
X3955539Y-20815960D01*
X3955539Y-20815960D02*
X3946015Y-20825484D01*
X3946015Y-20825484D02*
X3936491Y-20815960D01*
X3936491Y-20815960D02*
X3946015Y-20806436D01*
X3946015Y-20806436D02*
X3946015Y-20825484D01*
X4146015Y-20825484D02*
X4031729Y-20825484D01*
X4088872Y-20825484D02*
X4088872Y-20625484D01*
X4088872Y-20625484D02*
X4069825Y-20654055D01*
X4069825Y-20654055D02*
X4050777Y-20673103D01*
X4050777Y-20673103D02*
X4031729Y-20682627D01*
X4222206Y-20644531D02*
X4231729Y-20635008D01*
X4231729Y-20635008D02*
X4250777Y-20625484D01*
X4250777Y-20625484D02*
X4298396Y-20625484D01*
X4298396Y-20625484D02*
X4317444Y-20635008D01*
X4317444Y-20635008D02*
X4326968Y-20644531D01*
X4326968Y-20644531D02*
X4336491Y-20663579D01*
X4336491Y-20663579D02*
X4336491Y-20682627D01*
X4336491Y-20682627D02*
X4326968Y-20711198D01*
X4326968Y-20711198D02*
X4212682Y-20825484D01*
X4212682Y-20825484D02*
X4336491Y-20825484D01*
X4431729Y-20825484D02*
X4469825Y-20825484D01*
X4469825Y-20825484D02*
X4488872Y-20815960D01*
X4488872Y-20815960D02*
X4498396Y-20806436D01*
X4498396Y-20806436D02*
X4517444Y-20777865D01*
X4517444Y-20777865D02*
X4526968Y-20739770D01*
X4526968Y-20739770D02*
X4526968Y-20663579D01*
X4526968Y-20663579D02*
X4517444Y-20644531D01*
X4517444Y-20644531D02*
X4507920Y-20635008D01*
X4507920Y-20635008D02*
X4488872Y-20625484D01*
X4488872Y-20625484D02*
X4450777Y-20625484D01*
X4450777Y-20625484D02*
X4431729Y-20635008D01*
X4431729Y-20635008D02*
X4422206Y-20644531D01*
X4422206Y-20644531D02*
X4412682Y-20663579D01*
X4412682Y-20663579D02*
X4412682Y-20711198D01*
X4412682Y-20711198D02*
X4422206Y-20730246D01*
X4422206Y-20730246D02*
X4431729Y-20739770D01*
X4431729Y-20739770D02*
X4450777Y-20749293D01*
X4450777Y-20749293D02*
X4488872Y-20749293D01*
X4488872Y-20749293D02*
X4507920Y-20739770D01*
X4507920Y-20739770D02*
X4517444Y-20730246D01*
X4517444Y-20730246D02*
X4526968Y-20711198D01*
X4622206Y-20825484D02*
X4660301Y-20825484D01*
X4660301Y-20825484D02*
X4679349Y-20815960D01*
X4679349Y-20815960D02*
X4688872Y-20806436D01*
X4688872Y-20806436D02*
X4707920Y-20777865D01*
X4707920Y-20777865D02*
X4717444Y-20739770D01*
X4717444Y-20739770D02*
X4717444Y-20663579D01*
X4717444Y-20663579D02*
X4707920Y-20644531D01*
X4707920Y-20644531D02*
X4698396Y-20635008D01*
X4698396Y-20635008D02*
X4679349Y-20625484D01*
X4679349Y-20625484D02*
X4641253Y-20625484D01*
X4641253Y-20625484D02*
X4622206Y-20635008D01*
X4622206Y-20635008D02*
X4612682Y-20644531D01*
X4612682Y-20644531D02*
X4603158Y-20663579D01*
X4603158Y-20663579D02*
X4603158Y-20711198D01*
X4603158Y-20711198D02*
X4612682Y-20730246D01*
X4612682Y-20730246D02*
X4622206Y-20739770D01*
X4622206Y-20739770D02*
X4641253Y-20749293D01*
X4641253Y-20749293D02*
X4679349Y-20749293D01*
X4679349Y-20749293D02*
X4698396Y-20739770D01*
X4698396Y-20739770D02*
X4707920Y-20730246D01*
X4707920Y-20730246D02*
X4717444Y-20711198D01*
X4793634Y-20625484D02*
X4793634Y-20663579D01*
X4869825Y-20625484D02*
X4869825Y-20663579D01*
X5165063Y-20901674D02*
X5155539Y-20892150D01*
X5155539Y-20892150D02*
X5136491Y-20863579D01*
X5136491Y-20863579D02*
X5126968Y-20844531D01*
X5126968Y-20844531D02*
X5117444Y-20815960D01*
X5117444Y-20815960D02*
X5107920Y-20768341D01*
X5107920Y-20768341D02*
X5107920Y-20730246D01*
X5107920Y-20730246D02*
X5117444Y-20682627D01*
X5117444Y-20682627D02*
X5126968Y-20654055D01*
X5126968Y-20654055D02*
X5136491Y-20635008D01*
X5136491Y-20635008D02*
X5155539Y-20606436D01*
X5155539Y-20606436D02*
X5165063Y-20596912D01*
X5269825Y-20711198D02*
X5250777Y-20701674D01*
X5250777Y-20701674D02*
X5241253Y-20692150D01*
X5241253Y-20692150D02*
X5231730Y-20673103D01*
X5231730Y-20673103D02*
X5231730Y-20663579D01*
X5231730Y-20663579D02*
X5241253Y-20644531D01*
X5241253Y-20644531D02*
X5250777Y-20635008D01*
X5250777Y-20635008D02*
X5269825Y-20625484D01*
X5269825Y-20625484D02*
X5307920Y-20625484D01*
X5307920Y-20625484D02*
X5326968Y-20635008D01*
X5326968Y-20635008D02*
X5336491Y-20644531D01*
X5336491Y-20644531D02*
X5346015Y-20663579D01*
X5346015Y-20663579D02*
X5346015Y-20673103D01*
X5346015Y-20673103D02*
X5336491Y-20692150D01*
X5336491Y-20692150D02*
X5326968Y-20701674D01*
X5326968Y-20701674D02*
X5307920Y-20711198D01*
X5307920Y-20711198D02*
X5269825Y-20711198D01*
X5269825Y-20711198D02*
X5250777Y-20720722D01*
X5250777Y-20720722D02*
X5241253Y-20730246D01*
X5241253Y-20730246D02*
X5231730Y-20749293D01*
X5231730Y-20749293D02*
X5231730Y-20787389D01*
X5231730Y-20787389D02*
X5241253Y-20806436D01*
X5241253Y-20806436D02*
X5250777Y-20815960D01*
X5250777Y-20815960D02*
X5269825Y-20825484D01*
X5269825Y-20825484D02*
X5307920Y-20825484D01*
X5307920Y-20825484D02*
X5326968Y-20815960D01*
X5326968Y-20815960D02*
X5336491Y-20806436D01*
X5336491Y-20806436D02*
X5346015Y-20787389D01*
X5346015Y-20787389D02*
X5346015Y-20749293D01*
X5346015Y-20749293D02*
X5336491Y-20730246D01*
X5336491Y-20730246D02*
X5326968Y-20720722D01*
X5326968Y-20720722D02*
X5307920Y-20711198D01*
X5584111Y-20825484D02*
X5584111Y-20625484D01*
X5669825Y-20825484D02*
X5669825Y-20720722D01*
X5669825Y-20720722D02*
X5660301Y-20701674D01*
X5660301Y-20701674D02*
X5641253Y-20692150D01*
X5641253Y-20692150D02*
X5612682Y-20692150D01*
X5612682Y-20692150D02*
X5593634Y-20701674D01*
X5593634Y-20701674D02*
X5584111Y-20711198D01*
X5793634Y-20825484D02*
X5774587Y-20815960D01*
X5774587Y-20815960D02*
X5765063Y-20806436D01*
X5765063Y-20806436D02*
X5755539Y-20787389D01*
X5755539Y-20787389D02*
X5755539Y-20730246D01*
X5755539Y-20730246D02*
X5765063Y-20711198D01*
X5765063Y-20711198D02*
X5774587Y-20701674D01*
X5774587Y-20701674D02*
X5793634Y-20692150D01*
X5793634Y-20692150D02*
X5822206Y-20692150D01*
X5822206Y-20692150D02*
X5841253Y-20701674D01*
X5841253Y-20701674D02*
X5850777Y-20711198D01*
X5850777Y-20711198D02*
X5860301Y-20730246D01*
X5860301Y-20730246D02*
X5860301Y-20787389D01*
X5860301Y-20787389D02*
X5850777Y-20806436D01*
X5850777Y-20806436D02*
X5841253Y-20815960D01*
X5841253Y-20815960D02*
X5822206Y-20825484D01*
X5822206Y-20825484D02*
X5793634Y-20825484D01*
X5974587Y-20825484D02*
X5955539Y-20815960D01*
X5955539Y-20815960D02*
X5946015Y-20796912D01*
X5946015Y-20796912D02*
X5946015Y-20625484D01*
X6126968Y-20815960D02*
X6107920Y-20825484D01*
X6107920Y-20825484D02*
X6069825Y-20825484D01*
X6069825Y-20825484D02*
X6050777Y-20815960D01*
X6050777Y-20815960D02*
X6041253Y-20796912D01*
X6041253Y-20796912D02*
X6041253Y-20720722D01*
X6041253Y-20720722D02*
X6050777Y-20701674D01*
X6050777Y-20701674D02*
X6069825Y-20692150D01*
X6069825Y-20692150D02*
X6107920Y-20692150D01*
X6107920Y-20692150D02*
X6126968Y-20701674D01*
X6126968Y-20701674D02*
X6136491Y-20720722D01*
X6136491Y-20720722D02*
X6136491Y-20739770D01*
X6136491Y-20739770D02*
X6041253Y-20758817D01*
X6212682Y-20815960D02*
X6231730Y-20825484D01*
X6231730Y-20825484D02*
X6269825Y-20825484D01*
X6269825Y-20825484D02*
X6288872Y-20815960D01*
X6288872Y-20815960D02*
X6298396Y-20796912D01*
X6298396Y-20796912D02*
X6298396Y-20787389D01*
X6298396Y-20787389D02*
X6288872Y-20768341D01*
X6288872Y-20768341D02*
X6269825Y-20758817D01*
X6269825Y-20758817D02*
X6241253Y-20758817D01*
X6241253Y-20758817D02*
X6222206Y-20749293D01*
X6222206Y-20749293D02*
X6212682Y-20730246D01*
X6212682Y-20730246D02*
X6212682Y-20720722D01*
X6212682Y-20720722D02*
X6222206Y-20701674D01*
X6222206Y-20701674D02*
X6241253Y-20692150D01*
X6241253Y-20692150D02*
X6269825Y-20692150D01*
X6269825Y-20692150D02*
X6288872Y-20701674D01*
X6365063Y-20901674D02*
X6374587Y-20892150D01*
X6374587Y-20892150D02*
X6393634Y-20863579D01*
X6393634Y-20863579D02*
X6403158Y-20844531D01*
X6403158Y-20844531D02*
X6412682Y-20815960D01*
X6412682Y-20815960D02*
X6422206Y-20768341D01*
X6422206Y-20768341D02*
X6422206Y-20730246D01*
X6422206Y-20730246D02*
X6412682Y-20682627D01*
X6412682Y-20682627D02*
X6403158Y-20654055D01*
X6403158Y-20654055D02*
X6393634Y-20635008D01*
X6393634Y-20635008D02*
X6374587Y-20606436D01*
X6374587Y-20606436D02*
X6365063Y-20596912D01*
M02*
