%TF.GenerationSoftware,KiCad,Pcbnew,7.0.10*%
%TF.CreationDate,2024-01-30T15:19:49+08:00*%
%TF.ProjectId,imu-rounded,696d752d-726f-4756-9e64-65642e6b6963,rev?*%
%TF.SameCoordinates,Original*%
%TF.FileFunction,Legend,Bot*%
%TF.FilePolarity,Positive*%
%FSLAX46Y46*%
G04 Gerber Fmt 4.6, Leading zero omitted, Abs format (unit mm)*
G04 Created by KiCad (PCBNEW 7.0.10) date 2024-01-30 15:19:49*
%MOMM*%
%LPD*%
G01*
G04 APERTURE LIST*
%ADD10C,0.150000*%
%ADD11C,0.120000*%
G04 APERTURE END LIST*
D10*
X114897819Y-81288095D02*
X114897819Y-81859523D01*
X115897819Y-81573809D02*
X114897819Y-81573809D01*
X115897819Y-82764285D02*
X115421628Y-82430952D01*
X115897819Y-82192857D02*
X114897819Y-82192857D01*
X114897819Y-82192857D02*
X114897819Y-82573809D01*
X114897819Y-82573809D02*
X114945438Y-82669047D01*
X114945438Y-82669047D02*
X114993057Y-82716666D01*
X114993057Y-82716666D02*
X115088295Y-82764285D01*
X115088295Y-82764285D02*
X115231152Y-82764285D01*
X115231152Y-82764285D02*
X115326390Y-82716666D01*
X115326390Y-82716666D02*
X115374009Y-82669047D01*
X115374009Y-82669047D02*
X115421628Y-82573809D01*
X115421628Y-82573809D02*
X115421628Y-82192857D01*
X115897819Y-83716666D02*
X115897819Y-83145238D01*
X115897819Y-83430952D02*
X114897819Y-83430952D01*
X114897819Y-83430952D02*
X115040676Y-83335714D01*
X115040676Y-83335714D02*
X115135914Y-83240476D01*
X115135914Y-83240476D02*
X115183533Y-83145238D01*
X95196819Y-118681571D02*
X95196819Y-118205381D01*
X95196819Y-118205381D02*
X94196819Y-118205381D01*
X95196819Y-119491095D02*
X95196819Y-119014905D01*
X95196819Y-119014905D02*
X94196819Y-119014905D01*
X95196819Y-120348238D02*
X95196819Y-119776810D01*
X95196819Y-120062524D02*
X94196819Y-120062524D01*
X94196819Y-120062524D02*
X94339676Y-119967286D01*
X94339676Y-119967286D02*
X94434914Y-119872048D01*
X94434914Y-119872048D02*
X94482533Y-119776810D01*
X136897904Y-109817819D02*
X136326476Y-109817819D01*
X136612190Y-110817819D02*
X136612190Y-109817819D01*
X135659809Y-110294009D02*
X135516952Y-110341628D01*
X135516952Y-110341628D02*
X135469333Y-110389247D01*
X135469333Y-110389247D02*
X135421714Y-110484485D01*
X135421714Y-110484485D02*
X135421714Y-110627342D01*
X135421714Y-110627342D02*
X135469333Y-110722580D01*
X135469333Y-110722580D02*
X135516952Y-110770200D01*
X135516952Y-110770200D02*
X135612190Y-110817819D01*
X135612190Y-110817819D02*
X135993142Y-110817819D01*
X135993142Y-110817819D02*
X135993142Y-109817819D01*
X135993142Y-109817819D02*
X135659809Y-109817819D01*
X135659809Y-109817819D02*
X135564571Y-109865438D01*
X135564571Y-109865438D02*
X135516952Y-109913057D01*
X135516952Y-109913057D02*
X135469333Y-110008295D01*
X135469333Y-110008295D02*
X135469333Y-110103533D01*
X135469333Y-110103533D02*
X135516952Y-110198771D01*
X135516952Y-110198771D02*
X135564571Y-110246390D01*
X135564571Y-110246390D02*
X135659809Y-110294009D01*
X135659809Y-110294009D02*
X135993142Y-110294009D01*
X134469333Y-110817819D02*
X135040761Y-110817819D01*
X134755047Y-110817819D02*
X134755047Y-109817819D01*
X134755047Y-109817819D02*
X134850285Y-109960676D01*
X134850285Y-109960676D02*
X134945523Y-110055914D01*
X134945523Y-110055914D02*
X135040761Y-110103533D01*
X82490238Y-81994819D02*
X82966428Y-81994819D01*
X82966428Y-81994819D02*
X82966428Y-80994819D01*
X81823571Y-81471009D02*
X82156904Y-81471009D01*
X82156904Y-81994819D02*
X82156904Y-80994819D01*
X82156904Y-80994819D02*
X81680714Y-80994819D01*
X80775952Y-81994819D02*
X81347380Y-81994819D01*
X81061666Y-81994819D02*
X81061666Y-80994819D01*
X81061666Y-80994819D02*
X81156904Y-81137676D01*
X81156904Y-81137676D02*
X81252142Y-81232914D01*
X81252142Y-81232914D02*
X81347380Y-81280533D01*
%TO.C,kibuzzard-65B88CCD*%
G36*
X105358406Y-114710369D02*
G01*
X105158381Y-114710369D01*
X105064719Y-114675444D01*
X105018681Y-114570669D01*
X105064719Y-114465100D01*
X105159969Y-114429381D01*
X105358406Y-114429381D01*
X105358406Y-114710369D01*
G37*
G36*
X103104156Y-114775456D02*
G01*
X103141066Y-114824470D01*
X103153369Y-114892138D01*
X103140669Y-114959606D01*
X103102569Y-115008025D01*
X102999381Y-115046919D01*
X102894606Y-115007231D01*
X102855316Y-114958019D01*
X102842219Y-114889756D01*
X102854522Y-114821891D01*
X102891431Y-114773869D01*
X102997794Y-114735769D01*
X103104156Y-114775456D01*
G37*
G36*
X106604947Y-114706400D02*
G01*
X105970123Y-115658635D01*
X105639394Y-115658635D01*
X105499694Y-115658635D01*
X104497981Y-115658635D01*
X103823294Y-115658635D01*
X102997794Y-115658635D01*
X101916706Y-115658635D01*
X100911819Y-115658635D01*
X100098225Y-115658635D01*
X99225894Y-115658635D01*
X99084606Y-115658635D01*
X98753877Y-115658635D01*
X98431791Y-115175506D01*
X99084606Y-115175506D01*
X99086987Y-115230275D01*
X99102069Y-115272344D01*
X99144137Y-115304491D01*
X99225894Y-115315206D01*
X99305666Y-115304887D01*
X99348131Y-115273931D01*
X99363212Y-115230275D01*
X99365594Y-115172331D01*
X99365594Y-114605594D01*
X99386231Y-114624644D01*
X99497356Y-114673856D01*
X99593400Y-114618294D01*
X99643406Y-114519869D01*
X99586256Y-114426206D01*
X99483347Y-114333337D01*
X99706906Y-114333337D01*
X99740244Y-114421444D01*
X99798981Y-114485737D01*
X99851369Y-114507169D01*
X99932331Y-114472244D01*
X100010119Y-114431762D01*
X100110131Y-114418269D01*
X100212525Y-114436128D01*
X100313331Y-114489706D01*
X100392706Y-114588131D01*
X100416519Y-114655798D01*
X100424456Y-114731800D01*
X100416519Y-114807802D01*
X100392706Y-114875469D01*
X100311744Y-114975481D01*
X100212922Y-115027869D01*
X100110131Y-115045331D01*
X100017262Y-115032631D01*
X99954556Y-115007231D01*
X99925981Y-114986594D01*
X99849781Y-114954844D01*
X99798584Y-114977069D01*
X99743419Y-115043744D01*
X99708494Y-115132644D01*
X99729925Y-115188206D01*
X99779931Y-115227894D01*
X99834700Y-115261231D01*
X99941856Y-115302506D01*
X100021430Y-115321556D01*
X100098225Y-115327906D01*
X100174028Y-115322945D01*
X100250625Y-115308063D01*
X100328809Y-115281472D01*
X100409375Y-115241388D01*
X100486964Y-115189397D01*
X100503285Y-115174713D01*
X100768944Y-115174713D01*
X100779262Y-115254881D01*
X100813394Y-115296156D01*
X100911819Y-115315206D01*
X101532531Y-115315206D01*
X101630956Y-115272344D01*
X101672231Y-115172331D01*
X101775419Y-115172331D01*
X101777800Y-115227894D01*
X101792881Y-115269169D01*
X101834950Y-115301316D01*
X101916706Y-115312031D01*
X102004812Y-115296950D01*
X102046881Y-115251706D01*
X102056406Y-115170744D01*
X102056406Y-114892931D01*
X102561231Y-114892931D01*
X102578297Y-115017352D01*
X102629494Y-115127088D01*
X102705098Y-115215988D01*
X102795388Y-115277900D01*
X102894805Y-115314214D01*
X102997794Y-115326319D01*
X103100981Y-115313420D01*
X103200994Y-115274725D01*
X103291680Y-115210828D01*
X103348676Y-115143756D01*
X103513731Y-115143756D01*
X103535559Y-115202097D01*
X103601044Y-115256469D01*
X103701850Y-115304094D01*
X103823294Y-115319969D01*
X103920484Y-115308151D01*
X104015205Y-115272697D01*
X104107456Y-115213606D01*
X104147011Y-115173919D01*
X104358281Y-115173919D01*
X104360662Y-115228687D01*
X104375744Y-115270756D01*
X104416622Y-115301713D01*
X104497981Y-115312031D01*
X104578547Y-115301316D01*
X104620219Y-115269169D01*
X104633712Y-115227894D01*
X104636094Y-115172331D01*
X104636094Y-114615119D01*
X104634161Y-114570669D01*
X104739281Y-114570669D01*
X104749600Y-114668895D01*
X104780556Y-114757200D01*
X104827784Y-114832011D01*
X104886919Y-114889756D01*
X104975819Y-114946201D01*
X105066835Y-114980067D01*
X105159969Y-114991356D01*
X105358406Y-114991356D01*
X105358406Y-115170744D01*
X105360788Y-115225513D01*
X105375869Y-115267581D01*
X105417937Y-115299728D01*
X105499694Y-115310444D01*
X105587800Y-115295759D01*
X105629869Y-115251706D01*
X105639394Y-115169156D01*
X105639394Y-114288094D01*
X105637012Y-114233325D01*
X105621931Y-114191256D01*
X105579863Y-114159109D01*
X105498106Y-114148394D01*
X105158381Y-114148394D01*
X105066130Y-114159683D01*
X104975642Y-114193549D01*
X104886919Y-114249994D01*
X104827784Y-114307937D01*
X104780556Y-114383344D01*
X104749600Y-114472244D01*
X104739281Y-114570669D01*
X104634161Y-114570669D01*
X104633712Y-114560350D01*
X104620219Y-114518281D01*
X104578150Y-114487325D01*
X104497188Y-114477106D01*
X104496394Y-114477006D01*
X104388444Y-114503994D01*
X104359869Y-114572256D01*
X104358281Y-114618294D01*
X104358281Y-115173919D01*
X104147011Y-115173919D01*
X104166591Y-115154273D01*
X104213819Y-115077875D01*
X104244775Y-114988578D01*
X104255094Y-114890550D01*
X104244775Y-114792919D01*
X104213819Y-114704813D01*
X104166591Y-114629605D01*
X104107456Y-114570669D01*
X104017674Y-114512460D01*
X103924012Y-114477535D01*
X103826469Y-114465894D01*
X103708994Y-114482562D01*
X103624856Y-114515106D01*
X103599456Y-114530981D01*
X103555006Y-114561144D01*
X103513731Y-114633375D01*
X103547069Y-114724656D01*
X103603028Y-114790141D01*
X103656606Y-114811969D01*
X103742331Y-114777044D01*
X103824087Y-114750056D01*
X103923306Y-114788156D01*
X103969344Y-114893725D01*
X103924894Y-114998500D01*
X103830437Y-115035806D01*
X103736775Y-115006437D01*
X103666131Y-114977069D01*
X103613347Y-114998103D01*
X103550244Y-115061206D01*
X103513731Y-115143756D01*
X103348676Y-115143756D01*
X103366887Y-115122325D01*
X103417489Y-115014970D01*
X103434356Y-114894519D01*
X103419540Y-114774927D01*
X103375090Y-114670152D01*
X103301006Y-114580194D01*
X103207873Y-114511402D01*
X103106273Y-114470127D01*
X102996206Y-114456369D01*
X102886316Y-114470039D01*
X102785245Y-114511049D01*
X102692994Y-114579400D01*
X102619792Y-114668917D01*
X102575872Y-114773428D01*
X102561231Y-114892931D01*
X102056406Y-114892931D01*
X102056406Y-114288094D01*
X102054025Y-114233325D01*
X102050895Y-114224594D01*
X104358281Y-114224594D01*
X104360662Y-114279363D01*
X104374950Y-114320638D01*
X104417019Y-114353181D01*
X104497188Y-114362706D01*
X104577356Y-114353181D01*
X104619425Y-114319844D01*
X104633712Y-114277775D01*
X104636094Y-114223006D01*
X104633712Y-114168237D01*
X104620219Y-114127756D01*
X104578150Y-114095609D01*
X104496394Y-114084894D01*
X104416225Y-114095609D01*
X104375744Y-114127756D01*
X104360662Y-114169825D01*
X104358281Y-114224594D01*
X102050895Y-114224594D01*
X102038944Y-114191256D01*
X101996875Y-114159109D01*
X101915119Y-114148394D01*
X101826616Y-114163078D01*
X101783356Y-114207131D01*
X101775419Y-114289681D01*
X101775419Y-115172331D01*
X101672231Y-115172331D01*
X101657348Y-115089980D01*
X101612700Y-115014375D01*
X101547017Y-114947303D01*
X101469031Y-114890550D01*
X101384894Y-114839353D01*
X101300756Y-114788950D01*
X101222770Y-114735570D01*
X101157087Y-114675444D01*
X101112439Y-114609959D01*
X101097556Y-114540506D01*
X101108669Y-114500025D01*
X101133275Y-114457163D01*
X101175344Y-114426206D01*
X101254719Y-114411919D01*
X101342825Y-114449225D01*
X101384894Y-114523044D01*
X101391244Y-114559556D01*
X101391244Y-114569081D01*
X101393625Y-114621469D01*
X101408706Y-114661156D01*
X101451569Y-114689731D01*
X101532531Y-114699256D01*
X101621034Y-114684175D01*
X101664294Y-114638931D01*
X101672231Y-114557969D01*
X101659090Y-114451694D01*
X101619667Y-114353005D01*
X101553962Y-114261900D01*
X101467003Y-114189140D01*
X101363815Y-114145483D01*
X101244400Y-114130931D01*
X101124897Y-114145660D01*
X101021444Y-114189845D01*
X100934044Y-114263487D01*
X100867898Y-114356003D01*
X100828210Y-114456810D01*
X100814981Y-114565906D01*
X100824903Y-114654013D01*
X100854669Y-114737356D01*
X100898325Y-114810381D01*
X100949919Y-114867531D01*
X101061044Y-114955241D01*
X101159469Y-115008819D01*
X101199156Y-115024694D01*
X101199156Y-115032631D01*
X100908644Y-115032631D01*
X100815775Y-115047713D01*
X100778469Y-115093750D01*
X100768944Y-115174713D01*
X100503285Y-115174713D01*
X100556219Y-115127088D01*
X100615552Y-115050094D01*
X100663375Y-114954050D01*
X100694927Y-114843917D01*
X100705444Y-114724656D01*
X100695125Y-114606586D01*
X100664169Y-114500025D01*
X100617139Y-114407950D01*
X100558600Y-114333337D01*
X100489742Y-114272814D01*
X100411756Y-114223006D01*
X100307863Y-114175381D01*
X100203617Y-114146806D01*
X100099019Y-114137281D01*
X100023811Y-114143036D01*
X99947412Y-114160300D01*
X99830731Y-114207131D01*
X99792631Y-114229356D01*
X99748181Y-114257931D01*
X99706906Y-114333337D01*
X99483347Y-114333337D01*
X99325906Y-114191256D01*
X99321144Y-114188081D01*
X99231450Y-114146806D01*
X99156044Y-114154744D01*
X99114769Y-114173000D01*
X99092544Y-114207131D01*
X99084606Y-114291269D01*
X99084606Y-115175506D01*
X98431791Y-115175506D01*
X98119053Y-114706400D01*
X98753877Y-113754165D01*
X99084606Y-113754165D01*
X105639394Y-113754165D01*
X105970123Y-113754165D01*
X106604947Y-114706400D01*
G37*
%TO.C,kibuzzard-65B88A9E*%
G36*
X109101930Y-65612318D02*
G01*
X109152531Y-65672295D01*
X109182892Y-65772258D01*
X109193013Y-65912206D01*
X109182991Y-66052154D01*
X109152928Y-66152117D01*
X109102823Y-66212095D01*
X109032675Y-66232088D01*
X108961138Y-66212641D01*
X108910041Y-66154300D01*
X108879382Y-66057066D01*
X108869162Y-65920938D01*
X108869162Y-65911413D01*
X108879283Y-65771812D01*
X108909644Y-65672097D01*
X108960245Y-65612268D01*
X109031088Y-65592325D01*
X109101930Y-65612318D01*
G37*
G36*
X113344149Y-65913000D02*
G01*
X112722554Y-66845392D01*
X112391825Y-66845392D01*
X112252125Y-66845392D01*
X110866237Y-66845392D01*
X110092331Y-66845392D01*
X109029500Y-66845392D01*
X108588175Y-66845392D01*
X108257446Y-66845392D01*
X107635851Y-65913000D01*
X108588175Y-65913000D01*
X108595914Y-66049227D01*
X108619131Y-66170572D01*
X108657827Y-66277034D01*
X108712000Y-66368613D01*
X108766967Y-66426556D01*
X108839794Y-66473388D01*
X108928098Y-66504344D01*
X109029500Y-66514663D01*
X109131298Y-66504145D01*
X109220794Y-66472594D01*
X109295009Y-66425564D01*
X109350969Y-66368613D01*
X109393633Y-66300747D01*
X109427963Y-66220975D01*
X109453539Y-66125901D01*
X109468885Y-66022714D01*
X109472249Y-65949513D01*
X109577187Y-65949513D01*
X109585323Y-66051906D01*
X109609731Y-66149538D01*
X109650411Y-66242406D01*
X109707362Y-66330513D01*
X109779991Y-66403736D01*
X109870875Y-66461481D01*
X109976245Y-66498986D01*
X110092331Y-66511488D01*
X110208219Y-66498788D01*
X110312994Y-66460688D01*
X110402886Y-66401950D01*
X110449873Y-66352738D01*
X110729712Y-66352738D01*
X110744794Y-66439653D01*
X110790037Y-66481325D01*
X110866237Y-66490850D01*
X110939262Y-66482913D01*
X110980537Y-66463863D01*
X111002762Y-66432113D01*
X111010700Y-66349563D01*
X111010700Y-65817750D01*
X111059516Y-65881448D01*
X111126587Y-65974119D01*
X111188897Y-66061233D01*
X111223425Y-66108263D01*
X111252000Y-66145569D01*
X111290894Y-66174144D01*
X111357569Y-66192400D01*
X111422656Y-66175731D01*
X111464725Y-66143188D01*
X111477425Y-66125725D01*
X111524653Y-66063614D01*
X111602838Y-65956656D01*
X111675069Y-65857239D01*
X111704437Y-65817750D01*
X111704437Y-66352738D01*
X111706819Y-66407506D01*
X111721900Y-66447988D01*
X111764762Y-66480134D01*
X111845725Y-66490850D01*
X111924306Y-66480134D01*
X111966375Y-66447988D01*
X111981456Y-66406713D01*
X111983705Y-66352738D01*
X112110838Y-66352738D01*
X112113219Y-66408300D01*
X112128300Y-66449575D01*
X112170369Y-66481722D01*
X112252125Y-66492438D01*
X112340231Y-66477356D01*
X112382300Y-66432113D01*
X112391825Y-66351150D01*
X112391825Y-65468500D01*
X112389444Y-65413731D01*
X112374362Y-65371663D01*
X112332294Y-65339516D01*
X112250537Y-65328800D01*
X112162034Y-65343484D01*
X112118775Y-65387537D01*
X112110838Y-65470088D01*
X112110838Y-66352738D01*
X111983705Y-66352738D01*
X111983837Y-66349563D01*
X111983837Y-65468500D01*
X111981456Y-65413731D01*
X111966375Y-65371663D01*
X111923512Y-65340706D01*
X111842550Y-65330387D01*
X111768731Y-65340706D01*
X111728250Y-65362138D01*
X111718725Y-65371663D01*
X111358362Y-65844738D01*
X111257588Y-65711578D01*
X111171164Y-65597850D01*
X111099092Y-65503552D01*
X111041370Y-65428685D01*
X110998000Y-65373250D01*
X110952558Y-65341103D01*
X110870206Y-65330387D01*
X110789045Y-65341103D01*
X110747175Y-65373250D01*
X110732094Y-65416112D01*
X110729712Y-65471675D01*
X110729712Y-66352738D01*
X110449873Y-66352738D01*
X110474125Y-66327338D01*
X110530382Y-66240422D01*
X110570566Y-66147950D01*
X110594676Y-66049922D01*
X110602712Y-65946338D01*
X110602712Y-65468500D01*
X110600331Y-65412144D01*
X110585250Y-65370075D01*
X110542387Y-65336737D01*
X110461425Y-65327213D01*
X110380462Y-65336737D01*
X110339187Y-65370075D01*
X110320137Y-65470088D01*
X110320137Y-65946338D01*
X110308231Y-66040794D01*
X110272512Y-66130488D01*
X110201075Y-66201925D01*
X110088362Y-66228913D01*
X109987159Y-66207481D01*
X109915325Y-66143188D01*
X109872462Y-66050716D01*
X109858175Y-65944750D01*
X109858175Y-65458975D01*
X109842300Y-65371663D01*
X109796262Y-65336737D01*
X109720856Y-65327213D01*
X109648625Y-65335150D01*
X109607350Y-65354200D01*
X109586713Y-65387537D01*
X109577187Y-65470088D01*
X109577187Y-65949513D01*
X109472249Y-65949513D01*
X109474000Y-65911413D01*
X109469855Y-65810694D01*
X109457419Y-65720207D01*
X109436694Y-65639950D01*
X109397205Y-65539342D01*
X109353350Y-65462944D01*
X109297986Y-65403809D01*
X109223969Y-65354994D01*
X109134077Y-65322252D01*
X109031088Y-65311337D01*
X108928495Y-65322053D01*
X108839794Y-65354200D01*
X108766769Y-65402222D01*
X108711206Y-65460563D01*
X108668939Y-65529619D01*
X108635800Y-65609788D01*
X108609342Y-65706978D01*
X108593467Y-65808049D01*
X108588175Y-65913000D01*
X107635851Y-65913000D01*
X108257446Y-64980608D01*
X108588175Y-64980608D01*
X112391825Y-64980608D01*
X112722554Y-64980608D01*
X113344149Y-65913000D01*
G37*
%TO.C,kibuzzard-65B88D4B*%
G36*
X115702556Y-79455169D02*
G01*
X115744625Y-79555181D01*
X115701762Y-79652813D01*
X115607306Y-79691706D01*
X115511263Y-79654400D01*
X115466812Y-79554388D01*
X115511263Y-79452788D01*
X115608100Y-79413894D01*
X115702556Y-79455169D01*
G37*
G36*
X116356342Y-75030806D02*
G01*
X116356342Y-77015181D01*
X116356342Y-77931169D01*
X116356342Y-78893194D01*
X116356342Y-79854425D01*
X116356342Y-79979044D01*
X116356342Y-80309773D01*
X115443000Y-80918667D01*
X114529658Y-80309773D01*
X114529658Y-79979044D01*
X114529658Y-79828231D01*
X115189000Y-79828231D01*
X115198525Y-79920306D01*
X115231862Y-79962375D01*
X115273931Y-79976663D01*
X115328700Y-79979044D01*
X115884325Y-79979044D01*
X115939094Y-79976663D01*
X115981163Y-79963169D01*
X116012119Y-79924870D01*
X116022438Y-79854425D01*
X116001006Y-79738538D01*
X115938300Y-79704406D01*
X116001403Y-79626023D01*
X116022438Y-79508350D01*
X116008503Y-79419009D01*
X115966699Y-79334078D01*
X115897025Y-79253556D01*
X115808919Y-79188292D01*
X115711817Y-79149134D01*
X115605719Y-79136081D01*
X115499709Y-79149222D01*
X115402872Y-79188645D01*
X115315206Y-79254350D01*
X115245974Y-79335753D01*
X115204434Y-79422272D01*
X115190587Y-79513906D01*
X115209637Y-79612331D01*
X115245356Y-79674244D01*
X115277900Y-79702819D01*
X115211225Y-79738934D01*
X115189000Y-79828231D01*
X114529658Y-79828231D01*
X114529658Y-78663006D01*
X115189000Y-78663006D01*
X115202494Y-78762931D01*
X115242975Y-78851037D01*
X115310444Y-78927325D01*
X115397315Y-78985974D01*
X115496005Y-79021164D01*
X115606513Y-79032894D01*
X115885912Y-79032894D01*
X115940681Y-79030513D01*
X115981163Y-79017019D01*
X116013309Y-78974950D01*
X116024025Y-78893194D01*
X116009341Y-78804294D01*
X115965288Y-78763019D01*
X115884325Y-78753494D01*
X115604925Y-78753494D01*
X115503325Y-78716187D01*
X115466812Y-78616175D01*
X115504912Y-78514575D01*
X115604925Y-78475681D01*
X115885912Y-78475681D01*
X115940681Y-78473300D01*
X115981163Y-78458219D01*
X116013309Y-78417341D01*
X116024025Y-78335981D01*
X116013309Y-78255416D01*
X115981163Y-78213744D01*
X115939094Y-78200250D01*
X115884325Y-78197869D01*
X115322350Y-78197869D01*
X115269169Y-78200250D01*
X115228687Y-78215331D01*
X115198922Y-78257003D01*
X115189000Y-78337569D01*
X115198128Y-78415753D01*
X115225512Y-78456631D01*
X115290600Y-78472506D01*
X115258850Y-78501081D01*
X115225512Y-78543944D01*
X115189000Y-78663006D01*
X114529658Y-78663006D01*
X114529658Y-77932756D01*
X115187412Y-77932756D01*
X115198128Y-78013322D01*
X115230275Y-78054994D01*
X115272344Y-78068488D01*
X115327112Y-78070869D01*
X115889087Y-78070869D01*
X115942269Y-78068488D01*
X115982750Y-78053406D01*
X116013706Y-78010941D01*
X116024025Y-77931169D01*
X116014500Y-77852984D01*
X115985925Y-77812106D01*
X115920838Y-77796231D01*
X115952588Y-77767656D01*
X115987513Y-77724794D01*
X116022438Y-77607319D01*
X116008944Y-77506513D01*
X115968463Y-77417877D01*
X115900994Y-77341413D01*
X115814122Y-77282763D01*
X115715433Y-77247574D01*
X115604925Y-77235844D01*
X115327112Y-77235844D01*
X115271550Y-77238225D01*
X115230275Y-77251719D01*
X115198128Y-77293788D01*
X115187412Y-77375544D01*
X115202494Y-77463650D01*
X115247737Y-77505719D01*
X115328700Y-77515244D01*
X115606513Y-77515244D01*
X115708113Y-77552550D01*
X115744625Y-77652563D01*
X115706525Y-77754163D01*
X115606513Y-77793056D01*
X115325525Y-77793056D01*
X115270756Y-77795438D01*
X115228687Y-77810519D01*
X115197731Y-77851397D01*
X115187412Y-77932756D01*
X114529658Y-77932756D01*
X114529658Y-76445269D01*
X114861975Y-76445269D01*
X114876659Y-76533772D01*
X114920712Y-76577031D01*
X115003262Y-76584969D01*
X115790663Y-76584969D01*
X115790663Y-77016769D01*
X115802569Y-77092969D01*
X115839875Y-77124719D01*
X115907344Y-77132656D01*
X115974812Y-77124719D01*
X116009738Y-77097731D01*
X116025613Y-77015181D01*
X116025613Y-76443681D01*
X116010531Y-76355575D01*
X115965288Y-76313506D01*
X115884325Y-76303981D01*
X115001675Y-76303981D01*
X114946906Y-76306363D01*
X114904837Y-76321444D01*
X114872691Y-76363513D01*
X114861975Y-76445269D01*
X114529658Y-76445269D01*
X114529658Y-75661044D01*
X114861975Y-75661044D01*
X114864356Y-75715813D01*
X114879437Y-75757088D01*
X114922300Y-75789631D01*
X115003262Y-75799156D01*
X115084225Y-75789631D01*
X115126294Y-75756294D01*
X115140581Y-75714225D01*
X115142963Y-75657869D01*
X115142963Y-75172094D01*
X115303300Y-75172094D01*
X115303300Y-75484831D01*
X115305681Y-75541188D01*
X115320762Y-75583256D01*
X115364022Y-75614213D01*
X115446175Y-75624531D01*
X115534678Y-75609450D01*
X115577937Y-75564206D01*
X115585875Y-75483244D01*
X115585875Y-75172094D01*
X115885912Y-75172094D01*
X115941475Y-75169713D01*
X115982750Y-75154631D01*
X116014897Y-75112563D01*
X116025613Y-75030806D01*
X116010531Y-74942700D01*
X115965288Y-74900631D01*
X115884325Y-74891106D01*
X115001675Y-74891106D01*
X114891344Y-74921269D01*
X114861975Y-75035569D01*
X114861975Y-75661044D01*
X114529658Y-75661044D01*
X114529658Y-74689494D01*
X114860387Y-74689494D01*
X114872294Y-74764106D01*
X114909600Y-74795856D01*
X114976275Y-74803794D01*
X115042156Y-74795856D01*
X115076287Y-74768869D01*
X115090575Y-74687906D01*
X115090575Y-74384694D01*
X115889087Y-74384694D01*
X115943062Y-74382312D01*
X115983544Y-74368025D01*
X116016088Y-74325956D01*
X116025613Y-74246581D01*
X116016088Y-74168000D01*
X115983544Y-74126725D01*
X115942269Y-74112437D01*
X115887500Y-74110056D01*
X115090575Y-74110056D01*
X115090575Y-73805256D01*
X115078669Y-73730644D01*
X115041362Y-73698894D01*
X114974687Y-73690956D01*
X114908806Y-73698894D01*
X114874675Y-73725881D01*
X114860387Y-73806844D01*
X114860387Y-74689494D01*
X114529658Y-74689494D01*
X114529658Y-73690956D01*
X114529658Y-73360227D01*
X115443000Y-72751333D01*
X116356342Y-73360227D01*
X116356342Y-73690956D01*
X116356342Y-74246581D01*
X116356342Y-75030806D01*
G37*
D11*
%TO.C,TR1*%
X122765000Y-85995000D02*
X121515000Y-85995000D01*
X116505000Y-85705000D02*
X116505000Y-68085000D01*
X122475000Y-85705000D02*
X116505000Y-85705000D01*
X120215000Y-85695000D02*
X120215000Y-84945000D01*
X121715000Y-85695000D02*
X121715000Y-83895000D01*
X122465000Y-85695000D02*
X121715000Y-85695000D01*
X117265000Y-84945000D02*
X117265000Y-76895000D01*
X120215000Y-84945000D02*
X117265000Y-84945000D01*
X122765000Y-84745000D02*
X122765000Y-85995000D01*
X121715000Y-83895000D02*
X122465000Y-83895000D01*
X122465000Y-83895000D02*
X122465000Y-85695000D01*
X121715000Y-82395000D02*
X121715000Y-71395000D01*
X122465000Y-82395000D02*
X121715000Y-82395000D01*
X121715000Y-71395000D02*
X122465000Y-71395000D01*
X122465000Y-71395000D02*
X122465000Y-82395000D01*
X121715000Y-69895000D02*
X121715000Y-68095000D01*
X122465000Y-69895000D02*
X121715000Y-69895000D01*
X117265000Y-68845000D02*
X117265000Y-76895000D01*
X120215000Y-68845000D02*
X117265000Y-68845000D01*
X120215000Y-68095000D02*
X120215000Y-68845000D01*
X121715000Y-68095000D02*
X122465000Y-68095000D01*
X122465000Y-68095000D02*
X122465000Y-69895000D01*
X116505000Y-68085000D02*
X122475000Y-68085000D01*
X122475000Y-68085000D02*
X122475000Y-85705000D01*
%TO.C,kibuzzard-65B88AB7*%
G36*
X110626349Y-132969000D02*
G01*
X110011104Y-133891867D01*
X109680375Y-133891867D01*
X109540675Y-133891867D01*
X108154788Y-133891867D01*
X107380881Y-133891867D01*
X106360913Y-133891867D01*
X106219625Y-133891867D01*
X105888896Y-133891867D01*
X105564692Y-133405562D01*
X106219625Y-133405562D01*
X106222006Y-133460331D01*
X106237088Y-133502400D01*
X106279156Y-133534547D01*
X106360913Y-133545262D01*
X106440684Y-133534944D01*
X106483150Y-133503988D01*
X106498231Y-133460331D01*
X106500613Y-133402387D01*
X106500613Y-132999162D01*
X106865737Y-132999162D01*
X106873873Y-133101556D01*
X106898281Y-133199188D01*
X106938961Y-133292056D01*
X106995913Y-133380163D01*
X107068541Y-133453386D01*
X107159425Y-133511131D01*
X107264795Y-133548636D01*
X107380881Y-133561138D01*
X107496769Y-133548437D01*
X107601544Y-133510337D01*
X107691436Y-133451600D01*
X107738424Y-133402387D01*
X108018263Y-133402387D01*
X108033344Y-133489303D01*
X108078588Y-133530975D01*
X108154788Y-133540500D01*
X108227813Y-133532563D01*
X108269088Y-133513513D01*
X108291313Y-133481763D01*
X108299250Y-133399213D01*
X108299250Y-132867400D01*
X108348066Y-132931098D01*
X108415138Y-133023769D01*
X108477447Y-133110883D01*
X108511975Y-133157912D01*
X108540550Y-133195219D01*
X108579444Y-133223794D01*
X108646119Y-133242050D01*
X108711206Y-133225381D01*
X108753275Y-133192837D01*
X108765975Y-133175375D01*
X108813203Y-133113264D01*
X108891388Y-133006306D01*
X108963619Y-132906889D01*
X108992988Y-132867400D01*
X108992988Y-133402387D01*
X108995369Y-133457156D01*
X109010450Y-133497638D01*
X109053313Y-133529784D01*
X109134275Y-133540500D01*
X109212856Y-133529784D01*
X109254925Y-133497638D01*
X109270006Y-133456363D01*
X109272256Y-133402387D01*
X109399388Y-133402387D01*
X109401769Y-133457950D01*
X109416850Y-133499225D01*
X109458919Y-133531372D01*
X109540675Y-133542088D01*
X109628781Y-133527006D01*
X109670850Y-133481763D01*
X109680375Y-133400800D01*
X109680375Y-132518150D01*
X109677994Y-132463381D01*
X109662913Y-132421312D01*
X109620844Y-132389166D01*
X109539088Y-132378450D01*
X109450584Y-132393134D01*
X109407325Y-132437187D01*
X109399388Y-132519737D01*
X109399388Y-133402387D01*
X109272256Y-133402387D01*
X109272388Y-133399213D01*
X109272388Y-132518150D01*
X109270006Y-132463381D01*
X109254925Y-132421312D01*
X109212063Y-132390356D01*
X109131100Y-132380037D01*
X109057281Y-132390356D01*
X109016800Y-132411787D01*
X109007275Y-132421312D01*
X108646913Y-132894387D01*
X108546138Y-132761228D01*
X108459714Y-132647499D01*
X108387642Y-132553202D01*
X108329920Y-132478335D01*
X108286550Y-132422900D01*
X108241108Y-132390753D01*
X108158756Y-132380037D01*
X108077595Y-132390753D01*
X108035725Y-132422900D01*
X108020644Y-132465762D01*
X108018263Y-132521325D01*
X108018263Y-133402387D01*
X107738424Y-133402387D01*
X107762675Y-133376988D01*
X107818932Y-133290072D01*
X107859116Y-133197600D01*
X107883226Y-133099572D01*
X107891263Y-132995987D01*
X107891263Y-132518150D01*
X107888881Y-132461794D01*
X107873800Y-132419725D01*
X107830938Y-132386387D01*
X107749975Y-132376862D01*
X107669013Y-132386387D01*
X107627738Y-132419725D01*
X107608687Y-132519737D01*
X107608687Y-132995987D01*
X107596781Y-133090444D01*
X107561063Y-133180137D01*
X107489625Y-133251575D01*
X107376913Y-133278562D01*
X107275709Y-133257131D01*
X107203875Y-133192837D01*
X107161013Y-133100366D01*
X107146725Y-132994400D01*
X107146725Y-132508625D01*
X107130850Y-132421312D01*
X107084812Y-132386387D01*
X107009406Y-132376862D01*
X106937175Y-132384800D01*
X106895900Y-132403850D01*
X106875263Y-132437187D01*
X106865737Y-132519737D01*
X106865737Y-132999162D01*
X106500613Y-132999162D01*
X106500613Y-132835650D01*
X106521250Y-132854700D01*
X106632375Y-132903912D01*
X106728419Y-132848350D01*
X106778425Y-132749925D01*
X106721275Y-132656262D01*
X106460925Y-132421312D01*
X106456163Y-132418137D01*
X106366469Y-132376862D01*
X106291063Y-132384800D01*
X106249787Y-132403056D01*
X106227563Y-132437187D01*
X106219625Y-132521325D01*
X106219625Y-133405562D01*
X105564692Y-133405562D01*
X105273651Y-132969000D01*
X105888896Y-132046133D01*
X106219625Y-132046133D01*
X109680375Y-132046133D01*
X110011104Y-132046133D01*
X110626349Y-132969000D01*
G37*
%TO.C,kibuzzard-65B8A084*%
G36*
X142970250Y-93724236D02*
G01*
X142974695Y-93859809D01*
X142959137Y-94042054D01*
X142901352Y-94199851D01*
X142781337Y-94313199D01*
X142583535Y-94357649D01*
X142296832Y-94230966D01*
X142210155Y-93890924D01*
X142210155Y-93597554D01*
X142956915Y-93597554D01*
X142970250Y-93724236D01*
G37*
G36*
X141756765Y-93810914D02*
G01*
X141665642Y-94126509D01*
X141414500Y-94233189D01*
X141256702Y-94202074D01*
X141163357Y-94117619D01*
X141118907Y-93993159D01*
X141107795Y-93846474D01*
X141112240Y-93717569D01*
X141125575Y-93597554D01*
X141756765Y-93597554D01*
X141756765Y-93810914D01*
G37*
G36*
X141947900Y-78160069D02*
G01*
X141920674Y-78401210D01*
X141838997Y-78564564D01*
X141530070Y-78689024D01*
X141341157Y-78655686D01*
X141210030Y-78555674D01*
X141133354Y-78401210D01*
X141107795Y-78204519D01*
X141110017Y-78128954D01*
X141121130Y-78040054D01*
X141947900Y-78040054D01*
X141947900Y-78160069D01*
G37*
G36*
X141947900Y-102607569D02*
G01*
X141920674Y-102848710D01*
X141838997Y-103012064D01*
X141530070Y-103136524D01*
X141341157Y-103103186D01*
X141210030Y-103003174D01*
X141133354Y-102848710D01*
X141107795Y-102652019D01*
X141110017Y-102576454D01*
X141121130Y-102487554D01*
X141947900Y-102487554D01*
X141947900Y-102607569D01*
G37*
G36*
X142230713Y-84600318D02*
G01*
X142412402Y-84611986D01*
X142716885Y-84674216D01*
X142921355Y-84805344D01*
X142996920Y-85032039D01*
X142921355Y-85256511D01*
X142714662Y-85389861D01*
X142410180Y-85452091D01*
X142230157Y-85463759D01*
X142036800Y-85467649D01*
X141842887Y-85463759D01*
X141661197Y-85452091D01*
X141356715Y-85389861D01*
X141152245Y-85258734D01*
X141076680Y-85032039D01*
X141152245Y-84805344D01*
X141358937Y-84674216D01*
X141663420Y-84611986D01*
X141843442Y-84600318D01*
X142036800Y-84596429D01*
X142230713Y-84600318D01*
G37*
G36*
X142230713Y-100157818D02*
G01*
X142412402Y-100169486D01*
X142716885Y-100231716D01*
X142921355Y-100362844D01*
X142996920Y-100589539D01*
X142921355Y-100814011D01*
X142714662Y-100947361D01*
X142410180Y-101009591D01*
X142230157Y-101021259D01*
X142036800Y-101025149D01*
X141842887Y-101021259D01*
X141661197Y-101009591D01*
X141356715Y-100947361D01*
X141152245Y-100816234D01*
X141076680Y-100589539D01*
X141152245Y-100362844D01*
X141358937Y-100231716D01*
X141663420Y-100169486D01*
X141843442Y-100157818D01*
X142036800Y-100153929D01*
X142230713Y-100157818D01*
G37*
G36*
X144398577Y-79755824D02*
G01*
X144398577Y-83818554D01*
X144398577Y-85036484D01*
X144398577Y-86970059D01*
X144398577Y-88645824D01*
X144398577Y-93815359D01*
X144398577Y-95313324D01*
X144398577Y-97535824D01*
X144398577Y-100593984D01*
X144398577Y-103874394D01*
X144398577Y-104203324D01*
X144398577Y-108648324D01*
X144398577Y-112635489D01*
X144398577Y-113053319D01*
X144398577Y-116280389D01*
X144398577Y-119280764D01*
X144398577Y-120867629D01*
X144398577Y-121592164D01*
X144398577Y-122518205D01*
X142036800Y-124092723D01*
X139675023Y-122518205D01*
X139675023Y-121592164D01*
X140663295Y-121592164D01*
X141116685Y-121592164D01*
X141116685Y-120867629D01*
X143414750Y-120867629D01*
X143414750Y-120316449D01*
X141116685Y-120316449D01*
X141116685Y-119591914D01*
X140663295Y-119591914D01*
X140663295Y-121592164D01*
X139675023Y-121592164D01*
X139675023Y-119280764D01*
X140663295Y-119280764D01*
X143414750Y-119280764D01*
X143414750Y-118734029D01*
X142201265Y-118734029D01*
X142201265Y-118005049D01*
X143414750Y-118005049D01*
X143414750Y-117458314D01*
X140663295Y-117458314D01*
X140663295Y-118005049D01*
X141747875Y-118005049D01*
X141747875Y-118734029D01*
X140663295Y-118734029D01*
X140663295Y-119280764D01*
X139675023Y-119280764D01*
X139675023Y-116347064D01*
X140601065Y-116347064D01*
X140625512Y-116633766D01*
X140681075Y-116853794D01*
X140747750Y-117007146D01*
X140801090Y-117098269D01*
X141236700Y-116956029D01*
X141125575Y-116715999D01*
X141076680Y-116422629D01*
X141147800Y-116093699D01*
X141345602Y-115873671D01*
X141647862Y-115749211D01*
X141832886Y-115720874D01*
X142036800Y-115711429D01*
X142336837Y-115728715D01*
X142579090Y-115780573D01*
X142763558Y-115867004D01*
X142938579Y-116059250D01*
X142996920Y-116324839D01*
X142992475Y-116431519D01*
X142979140Y-116538199D01*
X141974570Y-116538199D01*
X141974570Y-117084934D01*
X143348075Y-117084934D01*
X143428085Y-116780451D01*
X143461423Y-116552089D01*
X143472535Y-116280389D01*
X143449754Y-116035358D01*
X143381412Y-115815886D01*
X143268065Y-115624195D01*
X143110267Y-115462509D01*
X142908020Y-115332492D01*
X142661322Y-115235814D01*
X142370731Y-115175806D01*
X142036800Y-115155804D01*
X141706203Y-115179140D01*
X141416722Y-115249149D01*
X141169469Y-115359162D01*
X140965555Y-115502514D01*
X140806091Y-115676980D01*
X140692187Y-115880339D01*
X140623846Y-116105922D01*
X140601065Y-116347064D01*
X139675023Y-116347064D01*
X139675023Y-114800204D01*
X140663295Y-114800204D01*
X141116685Y-114800204D01*
X141116685Y-114204574D01*
X142961360Y-114204574D01*
X142961360Y-114800204D01*
X143414750Y-114800204D01*
X143414750Y-113053319D01*
X142961360Y-113053319D01*
X142961360Y-113653394D01*
X141116685Y-113653394D01*
X141116685Y-113053319D01*
X140663295Y-113053319D01*
X140663295Y-114800204D01*
X139675023Y-114800204D01*
X139675023Y-111457564D01*
X140663295Y-111457564D01*
X142961360Y-111457564D01*
X142961360Y-112635489D01*
X143414750Y-112635489D01*
X143414750Y-110906384D01*
X140663295Y-110906384D01*
X140663295Y-111457564D01*
X139675023Y-111457564D01*
X139675023Y-110332979D01*
X140663295Y-110332979D01*
X141116685Y-110332979D01*
X141116685Y-109195059D01*
X141783435Y-109195059D01*
X141783435Y-110190739D01*
X142236825Y-110190739D01*
X142236825Y-109195059D01*
X143414750Y-109195059D01*
X143414750Y-108648324D01*
X140663295Y-108648324D01*
X140663295Y-110332979D01*
X139675023Y-110332979D01*
X139675023Y-105870199D01*
X140663295Y-105870199D01*
X141116685Y-105870199D01*
X141116685Y-104750059D01*
X141734540Y-104750059D01*
X141734540Y-105723514D01*
X142187930Y-105723514D01*
X142187930Y-104750059D01*
X142961360Y-104750059D01*
X142961360Y-105967989D01*
X143414750Y-105967989D01*
X143414750Y-104203324D01*
X140663295Y-104203324D01*
X140663295Y-105870199D01*
X139675023Y-105870199D01*
X139675023Y-102652019D01*
X140632180Y-102652019D01*
X140645515Y-102876491D01*
X140685520Y-103078739D01*
X140753306Y-103256539D01*
X140849985Y-103407669D01*
X141132242Y-103618806D01*
X141318377Y-103673813D01*
X141534515Y-103692149D01*
X141763432Y-103667701D01*
X141970125Y-103594359D01*
X142142369Y-103464342D01*
X142267940Y-103269874D01*
X142523527Y-103429894D01*
X142816897Y-103594359D01*
X143123602Y-103747711D01*
X143414750Y-103874394D01*
X143414750Y-103300989D01*
X143153051Y-103190419D01*
X142901352Y-103063181D01*
X142652988Y-102922608D01*
X142401290Y-102772034D01*
X142401290Y-102487554D01*
X143414750Y-102487554D01*
X143414750Y-101940819D01*
X140703300Y-101940819D01*
X140669962Y-102116396D01*
X140647737Y-102309754D01*
X140636625Y-102496444D01*
X140632180Y-102652019D01*
X139675023Y-102652019D01*
X139675023Y-100589539D01*
X140601065Y-100589539D01*
X140641317Y-100886860D01*
X140762073Y-101132816D01*
X140963332Y-101327409D01*
X141166275Y-101438256D01*
X141412833Y-101517432D01*
X141703008Y-101564938D01*
X142036800Y-101580774D01*
X142370592Y-101564660D01*
X142660767Y-101516321D01*
X142907325Y-101435755D01*
X143110267Y-101322964D01*
X143311527Y-101127384D01*
X143432283Y-100884390D01*
X143472535Y-100593984D01*
X143432283Y-100296416D01*
X143311527Y-100049718D01*
X143110267Y-99853891D01*
X142907325Y-99742072D01*
X142660767Y-99662200D01*
X142370592Y-99614278D01*
X142036800Y-99598304D01*
X141703008Y-99614695D01*
X141412833Y-99663867D01*
X141166275Y-99745822D01*
X140963332Y-99860559D01*
X140762073Y-100058114D01*
X140641317Y-100301108D01*
X140601065Y-100589539D01*
X139675023Y-100589539D01*
X139675023Y-99220479D01*
X140663295Y-99220479D01*
X141116685Y-99220479D01*
X141116685Y-98082559D01*
X141783435Y-98082559D01*
X141783435Y-99078239D01*
X142236825Y-99078239D01*
X142236825Y-98082559D01*
X143414750Y-98082559D01*
X143414750Y-97535824D01*
X140663295Y-97535824D01*
X140663295Y-99220479D01*
X139675023Y-99220479D01*
X139675023Y-96980199D01*
X140663295Y-96980199D01*
X141116685Y-96980199D01*
X141116685Y-95860059D01*
X141734540Y-95860059D01*
X141734540Y-96833514D01*
X142187930Y-96833514D01*
X142187930Y-95860059D01*
X142961360Y-95860059D01*
X142961360Y-97077989D01*
X143414750Y-97077989D01*
X143414750Y-95313324D01*
X140663295Y-95313324D01*
X140663295Y-96980199D01*
X139675023Y-96980199D01*
X139675023Y-93762019D01*
X140632180Y-93762019D01*
X140648293Y-94044276D01*
X140696632Y-94268749D01*
X140865542Y-94575454D01*
X141098905Y-94726584D01*
X141356715Y-94766589D01*
X141541182Y-94742697D01*
X141703425Y-94671021D01*
X141943455Y-94415434D01*
X142063470Y-94650463D01*
X142219045Y-94795481D01*
X142396845Y-94870490D01*
X142583535Y-94895494D01*
X142811897Y-94874380D01*
X142999142Y-94811039D01*
X143265842Y-94582121D01*
X143351409Y-94424324D01*
X143408082Y-94239856D01*
X143439753Y-94034830D01*
X143450310Y-93815359D01*
X143445309Y-93629780D01*
X143430307Y-93437534D01*
X143405304Y-93243065D01*
X143370300Y-93050819D01*
X140698855Y-93050819D01*
X140652182Y-93393084D01*
X140632180Y-93762019D01*
X139675023Y-93762019D01*
X139675023Y-90312699D01*
X140663295Y-90312699D01*
X141116685Y-90312699D01*
X141116685Y-89192559D01*
X141734540Y-89192559D01*
X141734540Y-90166014D01*
X142187930Y-90166014D01*
X142187930Y-89192559D01*
X142961360Y-89192559D01*
X142961360Y-90410489D01*
X143414750Y-90410489D01*
X143414750Y-88645824D01*
X140663295Y-88645824D01*
X140663295Y-90312699D01*
X139675023Y-90312699D01*
X139675023Y-88312449D01*
X140663295Y-88312449D01*
X140945552Y-88252997D01*
X141258925Y-88181321D01*
X141596189Y-88097977D01*
X141950122Y-88003521D01*
X142193116Y-87934624D01*
X142439073Y-87861281D01*
X142687992Y-87783494D01*
X142935678Y-87702496D01*
X143177930Y-87619523D01*
X143414750Y-87534574D01*
X143414750Y-86970059D01*
X143088042Y-86860045D01*
X142721330Y-86743364D01*
X142463767Y-86664835D01*
X142206698Y-86589270D01*
X141950122Y-86516669D01*
X141698486Y-86448018D01*
X141456234Y-86384306D01*
X141223365Y-86325534D01*
X140912215Y-86252191D01*
X140663295Y-86201074D01*
X140663295Y-86778924D01*
X140893879Y-86812261D01*
X141158912Y-86858934D01*
X141445615Y-86915052D01*
X141741207Y-86976726D01*
X142039022Y-87043401D01*
X142332392Y-87114521D01*
X142608538Y-87187308D01*
X142854680Y-87258984D01*
X142611872Y-87330104D01*
X142336837Y-87401224D01*
X142043467Y-87470121D01*
X141745652Y-87534574D01*
X141449504Y-87594581D01*
X141161135Y-87650144D01*
X140894435Y-87699039D01*
X140663295Y-87739044D01*
X140663295Y-88312449D01*
X139675023Y-88312449D01*
X139675023Y-85032039D01*
X140601065Y-85032039D01*
X140641317Y-85329360D01*
X140762073Y-85575316D01*
X140963332Y-85769909D01*
X141166275Y-85880756D01*
X141412833Y-85959932D01*
X141703008Y-86007438D01*
X142036800Y-86023274D01*
X142370592Y-86007160D01*
X142660767Y-85958821D01*
X142907325Y-85878255D01*
X143110267Y-85765464D01*
X143311527Y-85569884D01*
X143432283Y-85326890D01*
X143472535Y-85036484D01*
X143432283Y-84738916D01*
X143311527Y-84492218D01*
X143110267Y-84296391D01*
X142907325Y-84184572D01*
X142660767Y-84104700D01*
X142370592Y-84056778D01*
X142036800Y-84040804D01*
X141703008Y-84057195D01*
X141412833Y-84106367D01*
X141166275Y-84188322D01*
X140963332Y-84303059D01*
X140762073Y-84500614D01*
X140641317Y-84743607D01*
X140601065Y-85032039D01*
X139675023Y-85032039D01*
X139675023Y-83654089D01*
X140663295Y-83654089D01*
X141018895Y-83684648D01*
X141365605Y-83714096D01*
X141706203Y-83740766D01*
X142043467Y-83762991D01*
X142380176Y-83781327D01*
X142719107Y-83796329D01*
X143063039Y-83808552D01*
X143414750Y-83818554D01*
X143414750Y-83316269D01*
X141276705Y-83342939D01*
X142441295Y-83005119D01*
X142441295Y-82605069D01*
X141276705Y-82280584D01*
X143414750Y-82302809D01*
X143414750Y-81800524D01*
X143070262Y-81814414D01*
X142712440Y-81829416D01*
X142349061Y-81845529D01*
X141987905Y-81862754D01*
X141633416Y-81882200D01*
X141290040Y-81904981D01*
X140964444Y-81931095D01*
X140663295Y-81960544D01*
X140663295Y-82413934D01*
X140903325Y-82491721D01*
X141218920Y-82591734D01*
X141561185Y-82698414D01*
X141881225Y-82800649D01*
X141541182Y-82911774D01*
X141203362Y-83022899D01*
X140898880Y-83120689D01*
X140663295Y-83200699D01*
X140663295Y-83654089D01*
X139675023Y-83654089D01*
X139675023Y-81422699D01*
X140663295Y-81422699D01*
X141116685Y-81422699D01*
X141116685Y-80302559D01*
X141734540Y-80302559D01*
X141734540Y-81276014D01*
X142187930Y-81276014D01*
X142187930Y-80302559D01*
X142961360Y-80302559D01*
X142961360Y-81520489D01*
X143414750Y-81520489D01*
X143414750Y-79755824D01*
X140663295Y-79755824D01*
X140663295Y-81422699D01*
X139675023Y-81422699D01*
X139675023Y-78204519D01*
X140632180Y-78204519D01*
X140645515Y-78428991D01*
X140685520Y-78631239D01*
X140753306Y-78809039D01*
X140849985Y-78960169D01*
X141132242Y-79171306D01*
X141318377Y-79226313D01*
X141534515Y-79244649D01*
X141763432Y-79220201D01*
X141970125Y-79146859D01*
X142142369Y-79016842D01*
X142267940Y-78822374D01*
X142523527Y-78982394D01*
X142816897Y-79146859D01*
X143123602Y-79300211D01*
X143414750Y-79426894D01*
X143414750Y-78853489D01*
X143153051Y-78742919D01*
X142901352Y-78615681D01*
X142652988Y-78475108D01*
X142401290Y-78324534D01*
X142401290Y-78040054D01*
X143414750Y-78040054D01*
X143414750Y-77493319D01*
X140703300Y-77493319D01*
X140669962Y-77668896D01*
X140647737Y-77862254D01*
X140636625Y-78048944D01*
X140632180Y-78204519D01*
X139675023Y-78204519D01*
X139675023Y-77493319D01*
X139675023Y-76567277D01*
X144398577Y-76567277D01*
X144398577Y-77493319D01*
X144398577Y-79426894D01*
X144398577Y-79755824D01*
G37*
%TO.C,LL1*%
X87420000Y-115935000D02*
X88670000Y-115935000D01*
X93680000Y-116225000D02*
X93680000Y-133845000D01*
X87710000Y-116225000D02*
X93680000Y-116225000D01*
X89970000Y-116235000D02*
X89970000Y-116985000D01*
X88470000Y-116235000D02*
X88470000Y-118035000D01*
X87720000Y-116235000D02*
X88470000Y-116235000D01*
X92920000Y-116985000D02*
X92920000Y-125035000D01*
X89970000Y-116985000D02*
X92920000Y-116985000D01*
X87420000Y-117185000D02*
X87420000Y-115935000D01*
X88470000Y-118035000D02*
X87720000Y-118035000D01*
X87720000Y-118035000D02*
X87720000Y-116235000D01*
X88470000Y-119535000D02*
X88470000Y-130535000D01*
X87720000Y-119535000D02*
X88470000Y-119535000D01*
X88470000Y-130535000D02*
X87720000Y-130535000D01*
X87720000Y-130535000D02*
X87720000Y-119535000D01*
X88470000Y-132035000D02*
X88470000Y-133835000D01*
X87720000Y-132035000D02*
X88470000Y-132035000D01*
X92920000Y-133085000D02*
X92920000Y-125035000D01*
X89970000Y-133085000D02*
X92920000Y-133085000D01*
X89970000Y-133835000D02*
X89970000Y-133085000D01*
X88470000Y-133835000D02*
X87720000Y-133835000D01*
X87720000Y-133835000D02*
X87720000Y-132035000D01*
X93680000Y-133845000D02*
X87710000Y-133845000D01*
X87710000Y-133845000D02*
X87710000Y-116225000D01*
%TO.C,kibuzzard-65B88D4B*%
G36*
X95001556Y-127715169D02*
G01*
X95043625Y-127815181D01*
X95000762Y-127912813D01*
X94906306Y-127951706D01*
X94810263Y-127914400D01*
X94765812Y-127814388D01*
X94810263Y-127712788D01*
X94907100Y-127673894D01*
X95001556Y-127715169D01*
G37*
G36*
X95655342Y-123290806D02*
G01*
X95655342Y-125275181D01*
X95655342Y-126191169D01*
X95655342Y-127153194D01*
X95655342Y-128114425D01*
X95655342Y-128239044D01*
X95655342Y-128569773D01*
X94742000Y-129178667D01*
X93828658Y-128569773D01*
X93828658Y-128239044D01*
X93828658Y-128088231D01*
X94488000Y-128088231D01*
X94497525Y-128180306D01*
X94530862Y-128222375D01*
X94572931Y-128236663D01*
X94627700Y-128239044D01*
X95183325Y-128239044D01*
X95238094Y-128236663D01*
X95280163Y-128223169D01*
X95311119Y-128184870D01*
X95321438Y-128114425D01*
X95300006Y-127998538D01*
X95237300Y-127964406D01*
X95300403Y-127886023D01*
X95321438Y-127768350D01*
X95307503Y-127679009D01*
X95265699Y-127594078D01*
X95196025Y-127513556D01*
X95107919Y-127448292D01*
X95010817Y-127409134D01*
X94904719Y-127396081D01*
X94798709Y-127409222D01*
X94701872Y-127448645D01*
X94614206Y-127514350D01*
X94544974Y-127595753D01*
X94503434Y-127682272D01*
X94489587Y-127773906D01*
X94508637Y-127872331D01*
X94544356Y-127934244D01*
X94576900Y-127962819D01*
X94510225Y-127998934D01*
X94488000Y-128088231D01*
X93828658Y-128088231D01*
X93828658Y-126923006D01*
X94488000Y-126923006D01*
X94501494Y-127022931D01*
X94541975Y-127111037D01*
X94609444Y-127187325D01*
X94696315Y-127245974D01*
X94795005Y-127281164D01*
X94905513Y-127292894D01*
X95184912Y-127292894D01*
X95239681Y-127290513D01*
X95280163Y-127277019D01*
X95312309Y-127234950D01*
X95323025Y-127153194D01*
X95308341Y-127064294D01*
X95264288Y-127023019D01*
X95183325Y-127013494D01*
X94903925Y-127013494D01*
X94802325Y-126976187D01*
X94765812Y-126876175D01*
X94803912Y-126774575D01*
X94903925Y-126735681D01*
X95184912Y-126735681D01*
X95239681Y-126733300D01*
X95280163Y-126718219D01*
X95312309Y-126677341D01*
X95323025Y-126595981D01*
X95312309Y-126515416D01*
X95280163Y-126473744D01*
X95238094Y-126460250D01*
X95183325Y-126457869D01*
X94621350Y-126457869D01*
X94568169Y-126460250D01*
X94527687Y-126475331D01*
X94497922Y-126517003D01*
X94488000Y-126597569D01*
X94497128Y-126675753D01*
X94524512Y-126716631D01*
X94589600Y-126732506D01*
X94557850Y-126761081D01*
X94524512Y-126803944D01*
X94488000Y-126923006D01*
X93828658Y-126923006D01*
X93828658Y-126192756D01*
X94486412Y-126192756D01*
X94497128Y-126273322D01*
X94529275Y-126314994D01*
X94571344Y-126328488D01*
X94626112Y-126330869D01*
X95188087Y-126330869D01*
X95241269Y-126328488D01*
X95281750Y-126313406D01*
X95312706Y-126270941D01*
X95323025Y-126191169D01*
X95313500Y-126112984D01*
X95284925Y-126072106D01*
X95219838Y-126056231D01*
X95251588Y-126027656D01*
X95286513Y-125984794D01*
X95321438Y-125867319D01*
X95307944Y-125766513D01*
X95267463Y-125677877D01*
X95199994Y-125601413D01*
X95113122Y-125542763D01*
X95014433Y-125507574D01*
X94903925Y-125495844D01*
X94626112Y-125495844D01*
X94570550Y-125498225D01*
X94529275Y-125511719D01*
X94497128Y-125553788D01*
X94486412Y-125635544D01*
X94501494Y-125723650D01*
X94546737Y-125765719D01*
X94627700Y-125775244D01*
X94905513Y-125775244D01*
X95007113Y-125812550D01*
X95043625Y-125912563D01*
X95005525Y-126014163D01*
X94905513Y-126053056D01*
X94624525Y-126053056D01*
X94569756Y-126055438D01*
X94527687Y-126070519D01*
X94496731Y-126111397D01*
X94486412Y-126192756D01*
X93828658Y-126192756D01*
X93828658Y-124705269D01*
X94160975Y-124705269D01*
X94175659Y-124793772D01*
X94219712Y-124837031D01*
X94302262Y-124844969D01*
X95089663Y-124844969D01*
X95089663Y-125276769D01*
X95101569Y-125352969D01*
X95138875Y-125384719D01*
X95206344Y-125392656D01*
X95273812Y-125384719D01*
X95308738Y-125357731D01*
X95324613Y-125275181D01*
X95324613Y-124703681D01*
X95309531Y-124615575D01*
X95264288Y-124573506D01*
X95183325Y-124563981D01*
X94300675Y-124563981D01*
X94245906Y-124566363D01*
X94203837Y-124581444D01*
X94171691Y-124623513D01*
X94160975Y-124705269D01*
X93828658Y-124705269D01*
X93828658Y-123921044D01*
X94160975Y-123921044D01*
X94163356Y-123975813D01*
X94178437Y-124017088D01*
X94221300Y-124049631D01*
X94302262Y-124059156D01*
X94383225Y-124049631D01*
X94425294Y-124016294D01*
X94439581Y-123974225D01*
X94441963Y-123917869D01*
X94441963Y-123432094D01*
X94602300Y-123432094D01*
X94602300Y-123744831D01*
X94604681Y-123801188D01*
X94619762Y-123843256D01*
X94663022Y-123874213D01*
X94745175Y-123884531D01*
X94833678Y-123869450D01*
X94876937Y-123824206D01*
X94884875Y-123743244D01*
X94884875Y-123432094D01*
X95184912Y-123432094D01*
X95240475Y-123429713D01*
X95281750Y-123414631D01*
X95313897Y-123372563D01*
X95324613Y-123290806D01*
X95309531Y-123202700D01*
X95264288Y-123160631D01*
X95183325Y-123151106D01*
X94300675Y-123151106D01*
X94190344Y-123181269D01*
X94160975Y-123295569D01*
X94160975Y-123921044D01*
X93828658Y-123921044D01*
X93828658Y-122949494D01*
X94159387Y-122949494D01*
X94171294Y-123024106D01*
X94208600Y-123055856D01*
X94275275Y-123063794D01*
X94341156Y-123055856D01*
X94375287Y-123028869D01*
X94389575Y-122947906D01*
X94389575Y-122644694D01*
X95188087Y-122644694D01*
X95242062Y-122642312D01*
X95282544Y-122628025D01*
X95315088Y-122585956D01*
X95324613Y-122506581D01*
X95315088Y-122428000D01*
X95282544Y-122386725D01*
X95241269Y-122372437D01*
X95186500Y-122370056D01*
X94389575Y-122370056D01*
X94389575Y-122065256D01*
X94377669Y-121990644D01*
X94340362Y-121958894D01*
X94273687Y-121950956D01*
X94207806Y-121958894D01*
X94173675Y-121985881D01*
X94159387Y-122066844D01*
X94159387Y-122949494D01*
X93828658Y-122949494D01*
X93828658Y-121950956D01*
X93828658Y-121620227D01*
X94742000Y-121011333D01*
X95655342Y-121620227D01*
X95655342Y-121950956D01*
X95655342Y-122506581D01*
X95655342Y-123290806D01*
G37*
G36*
X127557212Y-110431263D02*
G01*
X127596106Y-110528100D01*
X127554831Y-110622556D01*
X127454819Y-110664625D01*
X127357187Y-110621762D01*
X127318294Y-110527306D01*
X127355600Y-110431263D01*
X127455612Y-110386812D01*
X127557212Y-110431263D01*
G37*
G36*
X134258667Y-110363000D02*
G01*
X133649773Y-111276342D01*
X133319044Y-111276342D01*
X132763419Y-111276342D01*
X131979194Y-111276342D01*
X129994819Y-111276342D01*
X129078831Y-111276342D01*
X128116806Y-111276342D01*
X127155575Y-111276342D01*
X127030956Y-111276342D01*
X126700227Y-111276342D01*
X126385549Y-110804325D01*
X127030956Y-110804325D01*
X127033337Y-110859094D01*
X127046831Y-110901163D01*
X127085130Y-110932119D01*
X127155575Y-110942438D01*
X127271462Y-110921006D01*
X127305594Y-110858300D01*
X127383977Y-110921403D01*
X127501650Y-110942438D01*
X127590991Y-110928503D01*
X127675922Y-110886699D01*
X127756444Y-110817025D01*
X127764676Y-110805912D01*
X127977106Y-110805912D01*
X127979487Y-110860681D01*
X127992981Y-110901163D01*
X128035050Y-110933309D01*
X128116806Y-110944025D01*
X128205706Y-110929341D01*
X128246981Y-110885288D01*
X128256506Y-110804325D01*
X128256506Y-110524925D01*
X128293813Y-110423325D01*
X128393825Y-110386812D01*
X128495425Y-110424912D01*
X128534319Y-110524925D01*
X128534319Y-110805912D01*
X128536700Y-110860681D01*
X128551781Y-110901163D01*
X128592659Y-110933309D01*
X128674019Y-110944025D01*
X128754584Y-110933309D01*
X128796256Y-110901163D01*
X128809750Y-110859094D01*
X128811924Y-110809087D01*
X128939131Y-110809087D01*
X128941512Y-110862269D01*
X128956594Y-110902750D01*
X128999059Y-110933706D01*
X129078831Y-110944025D01*
X129157016Y-110934500D01*
X129197894Y-110905925D01*
X129213769Y-110840838D01*
X129242344Y-110872588D01*
X129285206Y-110907513D01*
X129402681Y-110942438D01*
X129503487Y-110928944D01*
X129592123Y-110888463D01*
X129661390Y-110827344D01*
X129877344Y-110827344D01*
X129885281Y-110894812D01*
X129912269Y-110929738D01*
X129994819Y-110945613D01*
X130566319Y-110945613D01*
X130654425Y-110930531D01*
X130696494Y-110885288D01*
X130706019Y-110804325D01*
X130706019Y-109923262D01*
X131210844Y-109923262D01*
X131220369Y-110004225D01*
X131253706Y-110046294D01*
X131295775Y-110060581D01*
X131352131Y-110062963D01*
X131837906Y-110062963D01*
X131837906Y-110223300D01*
X131525169Y-110223300D01*
X131468812Y-110225681D01*
X131426744Y-110240762D01*
X131395787Y-110284022D01*
X131385469Y-110366175D01*
X131400550Y-110454678D01*
X131445794Y-110497937D01*
X131526756Y-110505875D01*
X131837906Y-110505875D01*
X131837906Y-110805912D01*
X131840287Y-110861475D01*
X131855369Y-110902750D01*
X131897437Y-110934897D01*
X131979194Y-110945613D01*
X132067300Y-110930531D01*
X132109369Y-110885288D01*
X132118894Y-110804325D01*
X132118894Y-109921675D01*
X132111950Y-109896275D01*
X132206206Y-109896275D01*
X132214144Y-109962156D01*
X132241131Y-109996287D01*
X132322094Y-110010575D01*
X132625306Y-110010575D01*
X132625306Y-110809087D01*
X132627688Y-110863062D01*
X132641975Y-110903544D01*
X132684044Y-110936088D01*
X132763419Y-110945613D01*
X132842000Y-110936088D01*
X132883275Y-110903544D01*
X132897563Y-110862269D01*
X132899944Y-110807500D01*
X132899944Y-110010575D01*
X133204744Y-110010575D01*
X133279356Y-109998669D01*
X133311106Y-109961362D01*
X133319044Y-109894687D01*
X133311106Y-109828806D01*
X133284119Y-109794675D01*
X133203156Y-109780387D01*
X132320506Y-109780387D01*
X132245894Y-109792294D01*
X132214144Y-109829600D01*
X132206206Y-109896275D01*
X132111950Y-109896275D01*
X132088731Y-109811344D01*
X131974431Y-109781975D01*
X131348956Y-109781975D01*
X131294187Y-109784356D01*
X131252912Y-109799437D01*
X131220369Y-109842300D01*
X131210844Y-109923262D01*
X130706019Y-109923262D01*
X130706019Y-109921675D01*
X130703637Y-109866906D01*
X130688556Y-109824837D01*
X130646487Y-109792691D01*
X130564731Y-109781975D01*
X130476228Y-109796659D01*
X130432969Y-109840712D01*
X130425031Y-109923262D01*
X130425031Y-110710663D01*
X129993231Y-110710663D01*
X129917031Y-110722569D01*
X129885281Y-110759875D01*
X129877344Y-110827344D01*
X129661390Y-110827344D01*
X129668587Y-110820994D01*
X129727237Y-110734122D01*
X129762426Y-110635433D01*
X129774156Y-110524925D01*
X129774156Y-110247112D01*
X129771775Y-110191550D01*
X129758281Y-110150275D01*
X129716212Y-110118128D01*
X129634456Y-110107412D01*
X129546350Y-110122494D01*
X129504281Y-110167737D01*
X129494756Y-110248700D01*
X129494756Y-110526513D01*
X129457450Y-110628113D01*
X129357437Y-110664625D01*
X129255837Y-110626525D01*
X129216944Y-110526513D01*
X129216944Y-110245525D01*
X129214562Y-110190756D01*
X129199481Y-110148687D01*
X129158603Y-110117731D01*
X129077244Y-110107412D01*
X128996678Y-110118128D01*
X128955006Y-110150275D01*
X128941512Y-110192344D01*
X128939131Y-110247112D01*
X128939131Y-110809087D01*
X128811924Y-110809087D01*
X128812131Y-110804325D01*
X128812131Y-110242350D01*
X128809750Y-110189169D01*
X128794669Y-110148687D01*
X128752997Y-110118922D01*
X128672431Y-110109000D01*
X128594247Y-110118128D01*
X128553369Y-110145512D01*
X128537494Y-110210600D01*
X128508919Y-110178850D01*
X128466056Y-110145512D01*
X128346994Y-110109000D01*
X128247069Y-110122494D01*
X128158963Y-110162975D01*
X128082675Y-110230444D01*
X128024026Y-110317315D01*
X127988836Y-110416005D01*
X127977106Y-110526513D01*
X127977106Y-110805912D01*
X127764676Y-110805912D01*
X127821708Y-110728919D01*
X127860866Y-110631817D01*
X127873919Y-110525719D01*
X127860778Y-110419709D01*
X127821355Y-110322872D01*
X127755650Y-110235206D01*
X127674247Y-110165974D01*
X127587728Y-110124434D01*
X127496094Y-110110587D01*
X127397669Y-110129637D01*
X127335756Y-110165356D01*
X127307181Y-110197900D01*
X127271066Y-110131225D01*
X127181769Y-110109000D01*
X127089694Y-110118525D01*
X127047625Y-110151862D01*
X127033337Y-110193931D01*
X127030956Y-110248700D01*
X127030956Y-110804325D01*
X126385549Y-110804325D01*
X126091333Y-110363000D01*
X126700227Y-109449658D01*
X127030956Y-109449658D01*
X133319044Y-109449658D01*
X133649773Y-109449658D01*
X134258667Y-110363000D01*
G37*
%TO.C,TB1*%
X121175000Y-117685000D02*
X121175000Y-116435000D01*
X121465000Y-111425000D02*
X139085000Y-111425000D01*
X121465000Y-117395000D02*
X121465000Y-111425000D01*
X121475000Y-115135000D02*
X122225000Y-115135000D01*
X121475000Y-116635000D02*
X123275000Y-116635000D01*
X121475000Y-117385000D02*
X121475000Y-116635000D01*
X122225000Y-112185000D02*
X130275000Y-112185000D01*
X122225000Y-115135000D02*
X122225000Y-112185000D01*
X122425000Y-117685000D02*
X121175000Y-117685000D01*
X123275000Y-116635000D02*
X123275000Y-117385000D01*
X123275000Y-117385000D02*
X121475000Y-117385000D01*
X124775000Y-116635000D02*
X135775000Y-116635000D01*
X124775000Y-117385000D02*
X124775000Y-116635000D01*
X135775000Y-116635000D02*
X135775000Y-117385000D01*
X135775000Y-117385000D02*
X124775000Y-117385000D01*
X137275000Y-116635000D02*
X139075000Y-116635000D01*
X137275000Y-117385000D02*
X137275000Y-116635000D01*
X138325000Y-112185000D02*
X130275000Y-112185000D01*
X138325000Y-115135000D02*
X138325000Y-112185000D01*
X139075000Y-115135000D02*
X138325000Y-115135000D01*
X139075000Y-116635000D02*
X139075000Y-117385000D01*
X139075000Y-117385000D02*
X137275000Y-117385000D01*
X139085000Y-111425000D02*
X139085000Y-117395000D01*
X139085000Y-117395000D02*
X121465000Y-117395000D01*
%TO.C,LF1*%
X90995000Y-82340000D02*
X90995000Y-83590000D01*
X90705000Y-88600000D02*
X73085000Y-88600000D01*
X90705000Y-82630000D02*
X90705000Y-88600000D01*
X90695000Y-84890000D02*
X89945000Y-84890000D01*
X90695000Y-83390000D02*
X88895000Y-83390000D01*
X90695000Y-82640000D02*
X90695000Y-83390000D01*
X89945000Y-87840000D02*
X81895000Y-87840000D01*
X89945000Y-84890000D02*
X89945000Y-87840000D01*
X89745000Y-82340000D02*
X90995000Y-82340000D01*
X88895000Y-83390000D02*
X88895000Y-82640000D01*
X88895000Y-82640000D02*
X90695000Y-82640000D01*
X87395000Y-83390000D02*
X76395000Y-83390000D01*
X87395000Y-82640000D02*
X87395000Y-83390000D01*
X76395000Y-83390000D02*
X76395000Y-82640000D01*
X76395000Y-82640000D02*
X87395000Y-82640000D01*
X74895000Y-83390000D02*
X73095000Y-83390000D01*
X74895000Y-82640000D02*
X74895000Y-83390000D01*
X73845000Y-87840000D02*
X81895000Y-87840000D01*
X73845000Y-84890000D02*
X73845000Y-87840000D01*
X73095000Y-84890000D02*
X73845000Y-84890000D01*
X73095000Y-83390000D02*
X73095000Y-82640000D01*
X73095000Y-82640000D02*
X74895000Y-82640000D01*
X73085000Y-88600000D02*
X73085000Y-82630000D01*
X73085000Y-82630000D02*
X90705000Y-82630000D01*
%TO.C,kibuzzard-65B88D4B*%
G36*
X79297212Y-89730263D02*
G01*
X79336106Y-89827100D01*
X79294831Y-89921556D01*
X79194819Y-89963625D01*
X79097187Y-89920762D01*
X79058294Y-89826306D01*
X79095600Y-89730263D01*
X79195612Y-89685812D01*
X79297212Y-89730263D01*
G37*
G36*
X85998667Y-89662000D02*
G01*
X85389773Y-90575342D01*
X85059044Y-90575342D01*
X84503419Y-90575342D01*
X83719194Y-90575342D01*
X81734819Y-90575342D01*
X80818831Y-90575342D01*
X79856806Y-90575342D01*
X78895575Y-90575342D01*
X78770956Y-90575342D01*
X78440227Y-90575342D01*
X78125549Y-90103325D01*
X78770956Y-90103325D01*
X78773337Y-90158094D01*
X78786831Y-90200163D01*
X78825130Y-90231119D01*
X78895575Y-90241438D01*
X79011462Y-90220006D01*
X79045594Y-90157300D01*
X79123977Y-90220403D01*
X79241650Y-90241438D01*
X79330991Y-90227503D01*
X79415922Y-90185699D01*
X79496444Y-90116025D01*
X79504676Y-90104912D01*
X79717106Y-90104912D01*
X79719487Y-90159681D01*
X79732981Y-90200163D01*
X79775050Y-90232309D01*
X79856806Y-90243025D01*
X79945706Y-90228341D01*
X79986981Y-90184288D01*
X79996506Y-90103325D01*
X79996506Y-89823925D01*
X80033813Y-89722325D01*
X80133825Y-89685812D01*
X80235425Y-89723912D01*
X80274319Y-89823925D01*
X80274319Y-90104912D01*
X80276700Y-90159681D01*
X80291781Y-90200163D01*
X80332659Y-90232309D01*
X80414019Y-90243025D01*
X80494584Y-90232309D01*
X80536256Y-90200163D01*
X80549750Y-90158094D01*
X80551924Y-90108087D01*
X80679131Y-90108087D01*
X80681512Y-90161269D01*
X80696594Y-90201750D01*
X80739059Y-90232706D01*
X80818831Y-90243025D01*
X80897016Y-90233500D01*
X80937894Y-90204925D01*
X80953769Y-90139838D01*
X80982344Y-90171588D01*
X81025206Y-90206513D01*
X81142681Y-90241438D01*
X81243487Y-90227944D01*
X81332123Y-90187463D01*
X81401390Y-90126344D01*
X81617344Y-90126344D01*
X81625281Y-90193812D01*
X81652269Y-90228738D01*
X81734819Y-90244613D01*
X82306319Y-90244613D01*
X82394425Y-90229531D01*
X82436494Y-90184288D01*
X82446019Y-90103325D01*
X82446019Y-89222262D01*
X82950844Y-89222262D01*
X82960369Y-89303225D01*
X82993706Y-89345294D01*
X83035775Y-89359581D01*
X83092131Y-89361963D01*
X83577906Y-89361963D01*
X83577906Y-89522300D01*
X83265169Y-89522300D01*
X83208812Y-89524681D01*
X83166744Y-89539762D01*
X83135787Y-89583022D01*
X83125469Y-89665175D01*
X83140550Y-89753678D01*
X83185794Y-89796937D01*
X83266756Y-89804875D01*
X83577906Y-89804875D01*
X83577906Y-90104912D01*
X83580287Y-90160475D01*
X83595369Y-90201750D01*
X83637437Y-90233897D01*
X83719194Y-90244613D01*
X83807300Y-90229531D01*
X83849369Y-90184288D01*
X83858894Y-90103325D01*
X83858894Y-89220675D01*
X83851950Y-89195275D01*
X83946206Y-89195275D01*
X83954144Y-89261156D01*
X83981131Y-89295287D01*
X84062094Y-89309575D01*
X84365306Y-89309575D01*
X84365306Y-90108087D01*
X84367688Y-90162062D01*
X84381975Y-90202544D01*
X84424044Y-90235088D01*
X84503419Y-90244613D01*
X84582000Y-90235088D01*
X84623275Y-90202544D01*
X84637563Y-90161269D01*
X84639944Y-90106500D01*
X84639944Y-89309575D01*
X84944744Y-89309575D01*
X85019356Y-89297669D01*
X85051106Y-89260362D01*
X85059044Y-89193687D01*
X85051106Y-89127806D01*
X85024119Y-89093675D01*
X84943156Y-89079387D01*
X84060506Y-89079387D01*
X83985894Y-89091294D01*
X83954144Y-89128600D01*
X83946206Y-89195275D01*
X83851950Y-89195275D01*
X83828731Y-89110344D01*
X83714431Y-89080975D01*
X83088956Y-89080975D01*
X83034187Y-89083356D01*
X82992912Y-89098437D01*
X82960369Y-89141300D01*
X82950844Y-89222262D01*
X82446019Y-89222262D01*
X82446019Y-89220675D01*
X82443637Y-89165906D01*
X82428556Y-89123837D01*
X82386487Y-89091691D01*
X82304731Y-89080975D01*
X82216228Y-89095659D01*
X82172969Y-89139712D01*
X82165031Y-89222262D01*
X82165031Y-90009663D01*
X81733231Y-90009663D01*
X81657031Y-90021569D01*
X81625281Y-90058875D01*
X81617344Y-90126344D01*
X81401390Y-90126344D01*
X81408587Y-90119994D01*
X81467237Y-90033122D01*
X81502426Y-89934433D01*
X81514156Y-89823925D01*
X81514156Y-89546112D01*
X81511775Y-89490550D01*
X81498281Y-89449275D01*
X81456212Y-89417128D01*
X81374456Y-89406412D01*
X81286350Y-89421494D01*
X81244281Y-89466737D01*
X81234756Y-89547700D01*
X81234756Y-89825513D01*
X81197450Y-89927113D01*
X81097437Y-89963625D01*
X80995837Y-89925525D01*
X80956944Y-89825513D01*
X80956944Y-89544525D01*
X80954562Y-89489756D01*
X80939481Y-89447687D01*
X80898603Y-89416731D01*
X80817244Y-89406412D01*
X80736678Y-89417128D01*
X80695006Y-89449275D01*
X80681512Y-89491344D01*
X80679131Y-89546112D01*
X80679131Y-90108087D01*
X80551924Y-90108087D01*
X80552131Y-90103325D01*
X80552131Y-89541350D01*
X80549750Y-89488169D01*
X80534669Y-89447687D01*
X80492997Y-89417922D01*
X80412431Y-89408000D01*
X80334247Y-89417128D01*
X80293369Y-89444512D01*
X80277494Y-89509600D01*
X80248919Y-89477850D01*
X80206056Y-89444512D01*
X80086994Y-89408000D01*
X79987069Y-89421494D01*
X79898963Y-89461975D01*
X79822675Y-89529444D01*
X79764026Y-89616315D01*
X79728836Y-89715005D01*
X79717106Y-89825513D01*
X79717106Y-90104912D01*
X79504676Y-90104912D01*
X79561708Y-90027919D01*
X79600866Y-89930817D01*
X79613919Y-89824719D01*
X79600778Y-89718709D01*
X79561355Y-89621872D01*
X79495650Y-89534206D01*
X79414247Y-89464974D01*
X79327728Y-89423434D01*
X79236094Y-89409587D01*
X79137669Y-89428637D01*
X79075756Y-89464356D01*
X79047181Y-89496900D01*
X79011066Y-89430225D01*
X78921769Y-89408000D01*
X78829694Y-89417525D01*
X78787625Y-89450862D01*
X78773337Y-89492931D01*
X78770956Y-89547700D01*
X78770956Y-90103325D01*
X78125549Y-90103325D01*
X77831333Y-89662000D01*
X78440227Y-88748658D01*
X78770956Y-88748658D01*
X85059044Y-88748658D01*
X85389773Y-88748658D01*
X85998667Y-89662000D01*
G37*
%TO.C,kibuzzard-65B88CBD*%
G36*
X110482856Y-83693794D02*
G01*
X110282831Y-83693794D01*
X110189169Y-83658869D01*
X110143131Y-83554094D01*
X110189169Y-83448525D01*
X110284419Y-83412806D01*
X110482856Y-83412806D01*
X110482856Y-83693794D01*
G37*
G36*
X108228606Y-83758881D02*
G01*
X108265516Y-83807895D01*
X108277819Y-83875563D01*
X108265119Y-83943031D01*
X108227019Y-83991450D01*
X108123831Y-84030344D01*
X108019056Y-83990656D01*
X107979766Y-83941444D01*
X107966669Y-83873181D01*
X107978972Y-83805316D01*
X108015881Y-83757294D01*
X108122244Y-83719194D01*
X108228606Y-83758881D01*
G37*
G36*
X104379911Y-83415336D02*
G01*
X104430513Y-83475314D01*
X104460873Y-83575277D01*
X104470994Y-83715225D01*
X104460973Y-83855173D01*
X104430909Y-83955136D01*
X104380804Y-84015114D01*
X104310656Y-84035106D01*
X104239120Y-84015659D01*
X104188022Y-83957319D01*
X104157363Y-83860084D01*
X104147144Y-83723956D01*
X104147144Y-83714431D01*
X104157264Y-83574830D01*
X104187625Y-83475116D01*
X104238227Y-83415287D01*
X104309069Y-83395344D01*
X104379911Y-83415336D01*
G37*
G36*
X111731513Y-83693000D02*
G01*
X111094573Y-84648410D01*
X110763844Y-84648410D01*
X110624144Y-84648410D01*
X109622431Y-84648410D01*
X108947744Y-84648410D01*
X108122244Y-84648410D01*
X107041156Y-84648410D01*
X106036269Y-84648410D01*
X105222675Y-84648410D01*
X104307481Y-84648410D01*
X103866156Y-84648410D01*
X103535427Y-84648410D01*
X102913833Y-83716019D01*
X103866156Y-83716019D01*
X103873895Y-83852246D01*
X103897113Y-83973591D01*
X103935808Y-84080052D01*
X103989981Y-84171631D01*
X104044948Y-84229575D01*
X104117775Y-84276406D01*
X104206080Y-84307363D01*
X104307481Y-84317681D01*
X104409280Y-84307164D01*
X104498775Y-84275613D01*
X104572991Y-84228583D01*
X104628950Y-84171631D01*
X104671614Y-84103766D01*
X104705944Y-84023994D01*
X104731520Y-83928920D01*
X104746866Y-83825733D01*
X104751981Y-83714431D01*
X104747836Y-83613713D01*
X104735401Y-83523226D01*
X104714675Y-83442969D01*
X104675186Y-83342361D01*
X104660491Y-83316762D01*
X104831356Y-83316762D01*
X104864694Y-83404869D01*
X104923431Y-83469162D01*
X104975819Y-83490594D01*
X105056781Y-83455669D01*
X105134569Y-83415188D01*
X105234581Y-83401694D01*
X105336975Y-83419553D01*
X105437781Y-83473131D01*
X105517156Y-83571556D01*
X105540969Y-83639223D01*
X105548906Y-83715225D01*
X105540969Y-83791227D01*
X105517156Y-83858894D01*
X105436194Y-83958906D01*
X105337372Y-84011294D01*
X105234581Y-84028756D01*
X105141712Y-84016056D01*
X105079006Y-83990656D01*
X105050431Y-83970019D01*
X104974231Y-83938269D01*
X104923034Y-83960494D01*
X104867869Y-84027169D01*
X104832944Y-84116069D01*
X104854375Y-84171631D01*
X104904381Y-84211319D01*
X104959150Y-84244656D01*
X105066306Y-84285931D01*
X105145880Y-84304981D01*
X105222675Y-84311331D01*
X105298478Y-84306370D01*
X105375075Y-84291488D01*
X105453259Y-84264897D01*
X105533825Y-84224812D01*
X105611414Y-84172822D01*
X105627735Y-84158138D01*
X105893394Y-84158138D01*
X105903713Y-84238306D01*
X105937844Y-84279581D01*
X106036269Y-84298631D01*
X106656981Y-84298631D01*
X106755406Y-84255769D01*
X106796681Y-84155756D01*
X106899869Y-84155756D01*
X106902250Y-84211319D01*
X106917331Y-84252594D01*
X106959400Y-84284741D01*
X107041156Y-84295456D01*
X107129262Y-84280375D01*
X107171331Y-84235131D01*
X107180856Y-84154169D01*
X107180856Y-83876356D01*
X107685681Y-83876356D01*
X107702747Y-84000777D01*
X107753944Y-84110513D01*
X107829548Y-84199413D01*
X107919838Y-84261325D01*
X108019255Y-84297639D01*
X108122244Y-84309744D01*
X108225431Y-84296845D01*
X108325444Y-84258150D01*
X108416130Y-84194253D01*
X108473126Y-84127181D01*
X108638181Y-84127181D01*
X108660009Y-84185522D01*
X108725494Y-84239894D01*
X108826300Y-84287519D01*
X108947744Y-84303394D01*
X109044934Y-84291576D01*
X109139655Y-84256122D01*
X109231906Y-84197031D01*
X109271461Y-84157344D01*
X109482731Y-84157344D01*
X109485113Y-84212113D01*
X109500194Y-84254181D01*
X109541072Y-84285138D01*
X109622431Y-84295456D01*
X109702997Y-84284741D01*
X109744669Y-84252594D01*
X109758163Y-84211319D01*
X109760544Y-84155756D01*
X109760544Y-83598544D01*
X109758612Y-83554094D01*
X109863731Y-83554094D01*
X109874050Y-83652320D01*
X109905006Y-83740625D01*
X109952234Y-83815436D01*
X110011369Y-83873181D01*
X110100269Y-83929626D01*
X110191285Y-83963492D01*
X110284419Y-83974781D01*
X110482856Y-83974781D01*
X110482856Y-84154169D01*
X110485238Y-84208938D01*
X110500319Y-84251006D01*
X110542388Y-84283153D01*
X110624144Y-84293869D01*
X110712250Y-84279184D01*
X110754319Y-84235131D01*
X110763844Y-84152581D01*
X110763844Y-83271519D01*
X110761463Y-83216750D01*
X110746381Y-83174681D01*
X110704313Y-83142534D01*
X110622556Y-83131819D01*
X110282831Y-83131819D01*
X110190580Y-83143108D01*
X110100092Y-83176974D01*
X110011369Y-83233419D01*
X109952234Y-83291362D01*
X109905006Y-83366769D01*
X109874050Y-83455669D01*
X109863731Y-83554094D01*
X109758612Y-83554094D01*
X109758163Y-83543775D01*
X109744669Y-83501706D01*
X109702600Y-83470750D01*
X109621638Y-83460531D01*
X109620844Y-83460431D01*
X109512894Y-83487419D01*
X109484319Y-83555681D01*
X109482731Y-83601719D01*
X109482731Y-84157344D01*
X109271461Y-84157344D01*
X109291041Y-84137698D01*
X109338269Y-84061300D01*
X109369225Y-83972003D01*
X109379544Y-83873975D01*
X109369225Y-83776344D01*
X109338269Y-83688238D01*
X109291041Y-83613030D01*
X109231906Y-83554094D01*
X109142124Y-83495885D01*
X109048462Y-83460960D01*
X108950919Y-83449319D01*
X108833444Y-83465987D01*
X108749306Y-83498531D01*
X108723906Y-83514406D01*
X108679456Y-83544569D01*
X108638181Y-83616800D01*
X108671519Y-83708081D01*
X108727478Y-83773566D01*
X108781056Y-83795394D01*
X108866781Y-83760469D01*
X108948538Y-83733481D01*
X109047756Y-83771581D01*
X109093794Y-83877150D01*
X109049344Y-83981925D01*
X108954888Y-84019231D01*
X108861225Y-83989863D01*
X108790581Y-83960494D01*
X108737797Y-83981528D01*
X108674694Y-84044631D01*
X108638181Y-84127181D01*
X108473126Y-84127181D01*
X108491338Y-84105750D01*
X108541939Y-83998395D01*
X108558806Y-83877944D01*
X108543990Y-83758352D01*
X108499540Y-83653577D01*
X108425456Y-83563619D01*
X108332323Y-83494827D01*
X108230723Y-83453552D01*
X108120656Y-83439794D01*
X108010766Y-83453464D01*
X107909695Y-83494474D01*
X107817444Y-83562825D01*
X107744242Y-83652342D01*
X107700322Y-83756853D01*
X107685681Y-83876356D01*
X107180856Y-83876356D01*
X107180856Y-83271519D01*
X107178475Y-83216750D01*
X107175345Y-83208019D01*
X109482731Y-83208019D01*
X109485113Y-83262787D01*
X109499400Y-83304063D01*
X109541469Y-83336606D01*
X109621638Y-83346131D01*
X109701806Y-83336606D01*
X109743875Y-83303269D01*
X109758163Y-83261200D01*
X109760544Y-83206431D01*
X109758163Y-83151662D01*
X109744669Y-83111181D01*
X109702600Y-83079034D01*
X109620844Y-83068319D01*
X109540675Y-83079034D01*
X109500194Y-83111181D01*
X109485113Y-83153250D01*
X109482731Y-83208019D01*
X107175345Y-83208019D01*
X107163394Y-83174681D01*
X107121325Y-83142534D01*
X107039569Y-83131819D01*
X106951066Y-83146503D01*
X106907806Y-83190556D01*
X106899869Y-83273106D01*
X106899869Y-84155756D01*
X106796681Y-84155756D01*
X106781798Y-84073405D01*
X106737150Y-83997800D01*
X106671467Y-83930728D01*
X106593481Y-83873975D01*
X106509344Y-83822778D01*
X106425206Y-83772375D01*
X106347220Y-83718995D01*
X106281537Y-83658869D01*
X106236889Y-83593384D01*
X106222006Y-83523931D01*
X106233119Y-83483450D01*
X106257725Y-83440588D01*
X106299794Y-83409631D01*
X106379169Y-83395344D01*
X106467275Y-83432650D01*
X106509344Y-83506469D01*
X106515694Y-83542981D01*
X106515694Y-83552506D01*
X106518075Y-83604894D01*
X106533156Y-83644581D01*
X106576019Y-83673156D01*
X106656981Y-83682681D01*
X106745484Y-83667600D01*
X106788744Y-83622356D01*
X106796681Y-83541394D01*
X106783540Y-83435119D01*
X106744117Y-83336430D01*
X106678413Y-83245325D01*
X106591453Y-83172565D01*
X106488265Y-83128908D01*
X106368850Y-83114356D01*
X106249347Y-83129085D01*
X106145894Y-83173270D01*
X106058494Y-83246913D01*
X105992348Y-83339428D01*
X105952660Y-83440235D01*
X105939431Y-83549331D01*
X105949353Y-83637438D01*
X105979119Y-83720781D01*
X106022775Y-83793806D01*
X106074369Y-83850956D01*
X106185494Y-83938666D01*
X106283919Y-83992244D01*
X106323606Y-84008119D01*
X106323606Y-84016056D01*
X106033094Y-84016056D01*
X105940225Y-84031138D01*
X105902919Y-84077175D01*
X105893394Y-84158138D01*
X105627735Y-84158138D01*
X105680669Y-84110513D01*
X105740002Y-84033519D01*
X105787825Y-83937475D01*
X105819377Y-83827342D01*
X105829894Y-83708081D01*
X105819575Y-83590011D01*
X105788619Y-83483450D01*
X105741589Y-83391375D01*
X105683050Y-83316762D01*
X105614192Y-83256239D01*
X105536206Y-83206431D01*
X105432313Y-83158806D01*
X105328067Y-83130231D01*
X105223469Y-83120706D01*
X105148261Y-83126461D01*
X105071862Y-83143725D01*
X104955181Y-83190556D01*
X104917081Y-83212781D01*
X104872631Y-83241356D01*
X104831356Y-83316762D01*
X104660491Y-83316762D01*
X104631331Y-83265963D01*
X104575967Y-83206828D01*
X104501950Y-83158012D01*
X104412058Y-83125270D01*
X104309069Y-83114356D01*
X104206477Y-83125072D01*
X104117775Y-83157219D01*
X104044750Y-83205241D01*
X103989188Y-83263581D01*
X103946920Y-83332637D01*
X103913781Y-83412806D01*
X103887323Y-83509997D01*
X103871448Y-83611067D01*
X103866156Y-83716019D01*
X102913833Y-83716019D01*
X102898487Y-83693000D01*
X103535427Y-82737590D01*
X103866156Y-82737590D01*
X110763844Y-82737590D01*
X111094573Y-82737590D01*
X111731513Y-83693000D01*
G37*
%TD*%
M02*
