M48
; DRILL file {KiCad 7.0.10} date 
; FORMAT={-:-/ absolute / metric / decimal}
; #@! TF.CreationDate,2024-01-30T15:19:55+08:00
; #@! TF.GenerationSoftware,Kicad,Pcbnew,7.0.10
; #@! TF.FileFunction,Plated,1,2,PTH
FMAT,2
METRIC
; #@! TA.AperFunction,Plated,PTH,ViaDrill
T1C0.400
; #@! TA.AperFunction,Plated,PTH,ComponentDrill
T2C0.950
; #@! TA.AperFunction,Plated,PTH,ComponentDrill
T3C1.000
; #@! TA.AperFunction,Plated,PTH,ComponentDrill
T4C1.300
%
G90
G05
T1
X46.482Y-98.806
X46.99Y-130.81
X48.26Y-100.076
X49.53Y-111.76
X49.53Y-118.745
X50.8Y-106.426
X52.07Y-118.364
X52.07Y-119.38
X52.07Y-121.285
X54.864Y-118.364
X57.15Y-97.282
X58.928Y-94.996
X58.928Y-107.696
X58.928Y-112.776
X58.928Y-115.316
X58.933Y-110.231
X59.69Y-102.108
X59.944Y-138.43
X60.452Y-92.456
X64.77Y-131.445
X66.04Y-77.216
X71.374Y-78.015
X71.755Y-86.995
X73.152Y-113.03
X73.66Y-88.9
X73.66Y-132.08
X74.295Y-113.03
X74.93Y-76.2
X75.565Y-80.01
X76.2Y-83.058
X79.375Y-88.9
X86.36Y-130.175
X88.9Y-135.636
X93.218Y-98.044
X93.98Y-85.09
X94.428Y-92.71
X97.827Y-96.52
X99.06Y-92.075
X100.838Y-70.829
X102.108Y-74.764
X104.775Y-130.175
T2
X75.645Y-85.09
X78.145Y-85.09
X80.645Y-85.09
X83.145Y-85.09
X85.645Y-85.09
X88.145Y-85.09
X90.17Y-118.785
X90.17Y-121.285
X90.17Y-123.785
X90.17Y-126.285
X90.17Y-128.785
X90.17Y-131.285
X97.91Y-135.255
X100.41Y-135.255
X102.91Y-135.255
X105.41Y-135.255
X107.91Y-135.255
X109.975Y-63.5
X112.475Y-63.5
X114.975Y-63.5
X117.475Y-63.5
X119.975Y-63.5
X120.015Y-70.645
X120.015Y-73.145
X120.015Y-75.645
X120.015Y-78.145
X120.015Y-80.645
X120.015Y-83.145
X124.025Y-114.935
X126.525Y-114.935
X129.025Y-114.935
X131.525Y-114.935
X134.025Y-114.935
X136.525Y-114.935
T3
X48.26Y-88.265
X48.26Y-103.505
X48.3Y-82.55
X50.8Y-82.55
X50.8Y-88.265
X50.8Y-103.505
X50.8Y-126.365
X53.34Y-88.265
X53.34Y-103.505
X53.34Y-126.365
X55.88Y-88.265
X55.88Y-103.505
X55.88Y-126.365
X55.88Y-132.12
X55.88Y-134.62
X58.42Y-88.265
X58.42Y-103.505
X58.42Y-126.365
X60.96Y-88.265
X60.96Y-103.505
X60.96Y-126.365
X63.5Y-88.265
X63.5Y-103.505
X63.5Y-126.365
X64.79Y-82.44
X66.04Y-88.265
X66.04Y-103.505
X66.04Y-126.365
X67.29Y-82.44
X68.58Y-88.265
X68.58Y-90.805
X68.58Y-93.345
X68.58Y-95.885
X68.58Y-98.425
X68.58Y-100.965
X68.58Y-103.505
X68.58Y-126.365
X88.9Y-92.075
X88.9Y-94.615
X88.9Y-97.155
X88.9Y-99.695
X88.9Y-102.235
X88.9Y-104.775
X101.005Y-118.745
X102.184Y-88.646
X103.505Y-118.745
X104.724Y-88.646
X106.085Y-81.28
X107.264Y-88.646
X108.585Y-81.28
X109.804Y-88.646
T4
X50.062Y-65.352
X50.062Y-73.452
X64.562Y-65.352
X64.562Y-73.464
M30
