%TF.GenerationSoftware,KiCad,Pcbnew,8.0.3*%
%TF.CreationDate,2024-06-17T20:38:05+08:00*%
%TF.ProjectId,top-rounded,746f702d-726f-4756-9e64-65642e6b6963,1.0.0*%
%TF.SameCoordinates,Original*%
%TF.FileFunction,Soldermask,Top*%
%TF.FilePolarity,Negative*%
%FSLAX46Y46*%
G04 Gerber Fmt 4.6, Leading zero omitted, Abs format (unit mm)*
G04 Created by KiCad (PCBNEW 8.0.3) date 2024-06-17 20:38:05*
%MOMM*%
%LPD*%
G01*
G04 APERTURE LIST*
G04 Aperture macros list*
%AMRoundRect*
0 Rectangle with rounded corners*
0 $1 Rounding radius*
0 $2 $3 $4 $5 $6 $7 $8 $9 X,Y pos of 4 corners*
0 Add a 4 corners polygon primitive as box body*
4,1,4,$2,$3,$4,$5,$6,$7,$8,$9,$2,$3,0*
0 Add four circle primitives for the rounded corners*
1,1,$1+$1,$2,$3*
1,1,$1+$1,$4,$5*
1,1,$1+$1,$6,$7*
1,1,$1+$1,$8,$9*
0 Add four rect primitives between the rounded corners*
20,1,$1+$1,$2,$3,$4,$5,0*
20,1,$1+$1,$4,$5,$6,$7,0*
20,1,$1+$1,$6,$7,$8,$9,0*
20,1,$1+$1,$8,$9,$2,$3,0*%
%AMHorizOval*
0 Thick line with rounded ends*
0 $1 width*
0 $2 $3 position (X,Y) of the first rounded end (center of the circle)*
0 $4 $5 position (X,Y) of the second rounded end (center of the circle)*
0 Add line between two ends*
20,1,$1,$2,$3,$4,$5,0*
0 Add two circle primitives to create the rounded ends*
1,1,$1,$2,$3*
1,1,$1,$4,$5*%
%AMRotRect*
0 Rectangle, with rotation*
0 The origin of the aperture is its center*
0 $1 length*
0 $2 width*
0 $3 Rotation angle, in degrees counterclockwise*
0 Add horizontal line*
21,1,$1,$2,0,0,$3*%
%AMOutline5P*
0 Free polygon, 5 corners , with rotation*
0 The origin of the aperture is its center*
0 number of corners: always 5*
0 $1 to $10 corner X, Y*
0 $11 Rotation angle, in degrees counterclockwise*
0 create outline with 5 corners*
4,1,5,$1,$2,$3,$4,$5,$6,$7,$8,$9,$10,$1,$2,$11*%
%AMOutline6P*
0 Free polygon, 6 corners , with rotation*
0 The origin of the aperture is its center*
0 number of corners: always 6*
0 $1 to $12 corner X, Y*
0 $13 Rotation angle, in degrees counterclockwise*
0 create outline with 6 corners*
4,1,6,$1,$2,$3,$4,$5,$6,$7,$8,$9,$10,$11,$12,$1,$2,$13*%
%AMOutline7P*
0 Free polygon, 7 corners , with rotation*
0 The origin of the aperture is its center*
0 number of corners: always 7*
0 $1 to $14 corner X, Y*
0 $15 Rotation angle, in degrees counterclockwise*
0 create outline with 7 corners*
4,1,7,$1,$2,$3,$4,$5,$6,$7,$8,$9,$10,$11,$12,$13,$14,$1,$2,$15*%
%AMOutline8P*
0 Free polygon, 8 corners , with rotation*
0 The origin of the aperture is its center*
0 number of corners: always 8*
0 $1 to $16 corner X, Y*
0 $17 Rotation angle, in degrees counterclockwise*
0 create outline with 8 corners*
4,1,8,$1,$2,$3,$4,$5,$6,$7,$8,$9,$10,$11,$12,$13,$14,$15,$16,$1,$2,$17*%
%AMFreePoly0*
4,1,26,1.935306,0.780194,1.989950,0.741421,2.341421,0.389950,2.388777,0.314585,2.400000,0.248529,2.400000,-0.248529,2.380194,-0.335306,2.341421,-0.389950,1.989950,-0.741421,1.914585,-0.788777,1.848529,-0.800000,0.000000,-0.800000,-0.248529,-0.800000,-0.335306,-0.780194,-0.389950,-0.741421,-0.741421,-0.389950,-0.788777,-0.314585,-0.800000,-0.248529,-0.800000,0.248529,-0.780194,0.335306,
-0.741421,0.389950,-0.389950,0.741421,-0.314585,0.788777,-0.248529,0.800000,1.848529,0.800000,1.935306,0.780194,1.935306,0.780194,$1*%
%AMFreePoly1*
4,1,26,0.335306,0.780194,0.389950,0.741421,0.741421,0.389950,0.788777,0.314585,0.800000,0.248529,0.800000,-0.248529,0.780194,-0.335306,0.741421,-0.389950,0.389950,-0.741421,0.314585,-0.788777,0.248529,-0.800000,0.000000,-0.800000,-0.248529,-0.800000,-0.335306,-0.780194,-0.389950,-0.741421,-0.741421,-0.389950,-0.788777,-0.314585,-0.800000,-0.248529,-0.800000,0.248529,-0.780194,0.335306,
-0.741421,0.389950,-0.389950,0.741421,-0.314585,0.788777,-0.248529,0.800000,0.248529,0.800000,0.335306,0.780194,0.335306,0.780194,$1*%
G04 Aperture macros list end*
%ADD10RoundRect,0.250000X-0.600000X-0.750000X0.600000X-0.750000X0.600000X0.750000X-0.600000X0.750000X0*%
%ADD11O,1.700000X2.000000*%
%ADD12C,0.800000*%
%ADD13C,6.400000*%
%ADD14C,5.600000*%
%ADD15C,1.524000*%
%ADD16Outline8P,-0.762000X0.381000X-0.381000X0.762000X0.381000X0.762000X0.762000X0.381000X0.762000X-0.381000X0.381000X-0.762000X-0.381000X-0.762000X-0.762000X-0.381000X270.000000*%
%ADD17R,1.524000X1.524000*%
%ADD18C,5.400000*%
%ADD19RoundRect,0.250000X0.750000X-0.600000X0.750000X0.600000X-0.750000X0.600000X-0.750000X-0.600000X0*%
%ADD20O,2.000000X1.700000*%
%ADD21R,1.700000X1.700000*%
%ADD22O,1.700000X1.700000*%
%ADD23C,2.000000*%
%ADD24FreePoly0,0.000000*%
%ADD25FreePoly1,0.000000*%
%ADD26O,3.200000X1.600000*%
%ADD27C,1.600000*%
%ADD28RoundRect,0.200000X-1.400000X-0.600000X1.400000X-0.600000X1.400000X0.600000X-1.400000X0.600000X0*%
%ADD29RoundRect,0.200000X-0.600000X-0.600000X0.600000X-0.600000X0.600000X0.600000X-0.600000X0.600000X0*%
%ADD30C,1.574800*%
%ADD31R,1.574800X1.574800*%
%ADD32RoundRect,0.300000X-0.450000X-0.450000X0.450000X-0.450000X0.450000X0.450000X-0.450000X0.450000X0*%
%ADD33RoundRect,0.250000X0.476065X-0.811780X0.886489X0.315851X-0.476065X0.811780X-0.886489X-0.315851X0*%
%ADD34HorizOval,1.700000X-0.117462X0.042753X0.117462X-0.042753X0*%
%ADD35RotRect,4.528000X5.544000X315.000000*%
%ADD36RotRect,1.700000X1.700000X315.000000*%
%ADD37RoundRect,1.132000X-1.960100X-0.359210X-0.359210X-1.960100X1.960100X0.359210X0.359210X1.960100X0*%
%ADD38C,1.700000*%
%ADD39RoundRect,0.250000X-0.750000X0.600000X-0.750000X-0.600000X0.750000X-0.600000X0.750000X0.600000X0*%
%ADD40C,1.400000*%
%ADD41O,1.400000X1.400000*%
%ADD42C,0.900000*%
%ADD43C,12.800000*%
%ADD44RoundRect,0.250000X0.600000X0.725000X-0.600000X0.725000X-0.600000X-0.725000X0.600000X-0.725000X0*%
%ADD45O,1.700000X1.950000*%
%ADD46RoundRect,0.250000X-0.725000X0.600000X-0.725000X-0.600000X0.725000X-0.600000X0.725000X0.600000X0*%
%ADD47O,1.950000X1.700000*%
%ADD48RoundRect,0.250000X0.600000X0.750000X-0.600000X0.750000X-0.600000X-0.750000X0.600000X-0.750000X0*%
G04 APERTURE END LIST*
D10*
%TO.C,J8*%
X137750000Y-137975000D03*
D11*
X140250000Y-137975000D03*
%TD*%
D10*
%TO.C,J2*%
X162500000Y-70500000D03*
D11*
X165000000Y-70500000D03*
%TD*%
D12*
%TO.C,H13*%
X23600000Y-115000000D03*
X24302944Y-113302944D03*
X24302944Y-116697056D03*
X26000000Y-112600000D03*
D13*
X26000000Y-115000000D03*
D12*
X26000000Y-117400000D03*
X27697056Y-113302944D03*
X27697056Y-116697056D03*
X28400000Y-115000000D03*
%TD*%
D14*
%TO.C,U2*%
X105198000Y-85268000D03*
X105200000Y-114732000D03*
D15*
X83100000Y-83871000D03*
X80560000Y-83871000D03*
X78020000Y-83871000D03*
X75480000Y-83871000D03*
X72940000Y-83871000D03*
X70400000Y-83871000D03*
X67860000Y-83871000D03*
D16*
X65320000Y-83871000D03*
D17*
X65320000Y-116129000D03*
D16*
X67860000Y-116129000D03*
D15*
X70400000Y-116129000D03*
X72940000Y-116129000D03*
X75480000Y-116129000D03*
X78020000Y-116129000D03*
X80560000Y-116129000D03*
X83100000Y-116129000D03*
D17*
X70400000Y-112319000D03*
D16*
X72940000Y-112319000D03*
D15*
X75480000Y-112319000D03*
X78020000Y-112319000D03*
X80560000Y-112319000D03*
X83100000Y-112319000D03*
%TD*%
D12*
%TO.C,H28*%
X93225000Y-158300000D03*
X93818109Y-156868109D03*
X93818109Y-159731891D03*
X95250000Y-156275000D03*
D18*
X95250000Y-158300000D03*
D12*
X95250000Y-160325000D03*
X96681891Y-156868109D03*
X96681891Y-159731891D03*
X97275000Y-158300000D03*
%TD*%
%TO.C,H1*%
X23600000Y-85000000D03*
X24302944Y-83302944D03*
X24302944Y-86697056D03*
X26000000Y-82600000D03*
D13*
X26000000Y-85000000D03*
D12*
X26000000Y-87400000D03*
X27697056Y-83302944D03*
X27697056Y-86697056D03*
X28400000Y-85000000D03*
%TD*%
D10*
%TO.C,J9*%
X147413217Y-137874728D03*
D11*
X149913217Y-137874728D03*
%TD*%
D12*
%TO.C,H22*%
X142147727Y-75251263D03*
X142850671Y-73554207D03*
X142850671Y-76948319D03*
X144547727Y-72851263D03*
D13*
X144547727Y-75251263D03*
D12*
X144547727Y-77651263D03*
X146244783Y-73554207D03*
X146244783Y-76948319D03*
X146947727Y-75251263D03*
%TD*%
D19*
%TO.C,J6*%
X36300000Y-72226252D03*
D20*
X36300000Y-69726252D03*
%TD*%
D12*
%TO.C,H4*%
X53052273Y-75251263D03*
X53755217Y-73554207D03*
X53755217Y-76948319D03*
X55452273Y-72851263D03*
D13*
X55452273Y-75251263D03*
D12*
X55452273Y-77651263D03*
X57149329Y-73554207D03*
X57149329Y-76948319D03*
X57852273Y-75251263D03*
%TD*%
%TO.C,H12*%
X113600000Y-158000000D03*
X114302944Y-156302944D03*
X114302944Y-159697056D03*
X116000000Y-155600000D03*
D13*
X116000000Y-158000000D03*
D12*
X116000000Y-160400000D03*
X117697056Y-156302944D03*
X117697056Y-159697056D03*
X118400000Y-158000000D03*
%TD*%
D21*
%TO.C,J1*%
X83100000Y-75500000D03*
D22*
X80560000Y-75500000D03*
X78020000Y-75500000D03*
X75480000Y-75500000D03*
X72940000Y-75500000D03*
X70400000Y-75500000D03*
X67860000Y-75500000D03*
X65320000Y-75500000D03*
%TD*%
D23*
%TO.C,SW2*%
X124750002Y-174591199D03*
X124750002Y-168091199D03*
X129250002Y-174591199D03*
X129250002Y-168091199D03*
%TD*%
D21*
%TO.C,J7*%
X83500000Y-122500000D03*
D22*
X86040000Y-122500000D03*
X88580000Y-122500000D03*
%TD*%
D12*
%TO.C,H29*%
X102725000Y-137700000D03*
X103318109Y-136268109D03*
X103318109Y-139131891D03*
X104750000Y-135675000D03*
D18*
X104750000Y-137700000D03*
D12*
X104750000Y-139725000D03*
X106181891Y-136268109D03*
X106181891Y-139131891D03*
X106775000Y-137700000D03*
%TD*%
%TO.C,H15*%
X120100000Y-65500000D03*
X120802944Y-63802944D03*
X120802944Y-67197056D03*
X122500000Y-63100000D03*
D13*
X122500000Y-65500000D03*
D12*
X122500000Y-67900000D03*
X124197056Y-63802944D03*
X124197056Y-67197056D03*
X124900000Y-65500000D03*
%TD*%
D24*
%TO.C,U1*%
X109500000Y-75870000D03*
D25*
X111100000Y-75870000D03*
D26*
X110300000Y-78410000D03*
D27*
X111100000Y-78410000D03*
D28*
X110300000Y-80950000D03*
D29*
X111100000Y-80950000D03*
D26*
X110300000Y-83490000D03*
D27*
X111100000Y-83490000D03*
D26*
X110300000Y-86030000D03*
D27*
X111100000Y-86030000D03*
D26*
X110300000Y-88570000D03*
D27*
X111100000Y-88570000D03*
D26*
X110300000Y-91110000D03*
D27*
X111100000Y-91110000D03*
D28*
X110300000Y-93650000D03*
D29*
X111100000Y-93650000D03*
D26*
X110300000Y-96190000D03*
D27*
X111100000Y-96190000D03*
D26*
X110300000Y-98730000D03*
D27*
X111100000Y-98730000D03*
D26*
X110300000Y-101270000D03*
D27*
X111100000Y-101270000D03*
D26*
X110300000Y-103810000D03*
D27*
X111100000Y-103810000D03*
D28*
X110300000Y-106350000D03*
D29*
X111100000Y-106350000D03*
D26*
X110300000Y-108890000D03*
D27*
X111100000Y-108890000D03*
D26*
X110300000Y-111430000D03*
D27*
X111100000Y-111430000D03*
D26*
X110300000Y-113970000D03*
D27*
X111100000Y-113970000D03*
D26*
X110300000Y-116510000D03*
D27*
X111100000Y-116510000D03*
D28*
X110300000Y-119050000D03*
D29*
X111100000Y-119050000D03*
D26*
X110300000Y-121590000D03*
D27*
X111100000Y-121590000D03*
D26*
X110300000Y-124130000D03*
D27*
X111100000Y-124130000D03*
X128880000Y-124130000D03*
D26*
X129680000Y-124130000D03*
D27*
X128880000Y-121590000D03*
D26*
X129680000Y-121590000D03*
D29*
X128880000Y-119050000D03*
D28*
X129680000Y-119050000D03*
D27*
X128880000Y-116510000D03*
D26*
X129680000Y-116510000D03*
D27*
X128880000Y-113970000D03*
D26*
X129680000Y-113970000D03*
D27*
X128880000Y-111430000D03*
D26*
X129680000Y-111430000D03*
D27*
X128880000Y-108890000D03*
D26*
X129680000Y-108890000D03*
D29*
X128880000Y-106350000D03*
D28*
X129680000Y-106350000D03*
D27*
X128880000Y-103810000D03*
D26*
X129680000Y-103810000D03*
D27*
X128880000Y-101270000D03*
D26*
X129680000Y-101270000D03*
D27*
X128880000Y-98730000D03*
D26*
X129680000Y-98730000D03*
D27*
X128880000Y-96190000D03*
D26*
X129680000Y-96190000D03*
D29*
X128880000Y-93650000D03*
D28*
X129680000Y-93650000D03*
D27*
X128880000Y-91110000D03*
D26*
X129680000Y-91110000D03*
D27*
X128880000Y-88570000D03*
D26*
X129680000Y-88570000D03*
D27*
X128880000Y-86030000D03*
D26*
X129680000Y-86030000D03*
D27*
X128880000Y-83490000D03*
D26*
X129680000Y-83490000D03*
D29*
X128880000Y-80950000D03*
D28*
X129680000Y-80950000D03*
D27*
X128880000Y-78410000D03*
D26*
X129680000Y-78410000D03*
D27*
X128880000Y-75870000D03*
D26*
X129680000Y-75870000D03*
D30*
X120574200Y-105700000D03*
D31*
X123114200Y-105700000D03*
D30*
X125654200Y-105700000D03*
D32*
X119990000Y-79000000D03*
X120990000Y-75700000D03*
X118990000Y-75700000D03*
X117490000Y-82500000D03*
X117490000Y-85000000D03*
X117490000Y-87500000D03*
%TD*%
D12*
%TO.C,H23*%
X122348737Y-144547727D03*
X123051681Y-142850671D03*
X123051681Y-146244783D03*
X124748737Y-142147727D03*
D13*
X124748737Y-144547727D03*
D12*
X124748737Y-146947727D03*
X126445793Y-142850671D03*
X126445793Y-146244783D03*
X127148737Y-144547727D03*
%TD*%
%TO.C,H10*%
X53052273Y-124748737D03*
X53755217Y-123051681D03*
X53755217Y-126445793D03*
X55452273Y-122348737D03*
D13*
X55452273Y-124748737D03*
D12*
X55452273Y-127148737D03*
X57149329Y-123051681D03*
X57149329Y-126445793D03*
X57852273Y-124748737D03*
%TD*%
%TO.C,H27*%
X93225000Y-137700000D03*
X93818109Y-136268109D03*
X93818109Y-139131891D03*
X95250000Y-135675000D03*
D18*
X95250000Y-137700000D03*
D12*
X95250000Y-139725000D03*
X96681891Y-136268109D03*
X96681891Y-139131891D03*
X97275000Y-137700000D03*
%TD*%
%TO.C,H9*%
X72851263Y-55452273D03*
X73554207Y-53755217D03*
X73554207Y-57149329D03*
X75251263Y-53052273D03*
D13*
X75251263Y-55452273D03*
D12*
X75251263Y-57852273D03*
X76948319Y-53755217D03*
X76948319Y-57149329D03*
X77651263Y-55452273D03*
%TD*%
%TO.C,H6*%
X84600000Y-167000000D03*
X85302944Y-165302944D03*
X85302944Y-168697056D03*
X87000000Y-164600000D03*
D13*
X87000000Y-167000000D03*
D12*
X87000000Y-169400000D03*
X88697056Y-165302944D03*
X88697056Y-168697056D03*
X89400000Y-167000000D03*
%TD*%
%TO.C,H21*%
X75100000Y-65500000D03*
X75802944Y-63802944D03*
X75802944Y-67197056D03*
X77500000Y-63100000D03*
D13*
X77500000Y-65500000D03*
D12*
X77500000Y-67900000D03*
X79197056Y-63802944D03*
X79197056Y-67197056D03*
X79900000Y-65500000D03*
%TD*%
%TO.C,H7*%
X23600000Y-100000000D03*
X24302944Y-98302944D03*
X24302944Y-101697056D03*
X26000000Y-97600000D03*
D13*
X26000000Y-100000000D03*
D12*
X26000000Y-102400000D03*
X27697056Y-98302944D03*
X27697056Y-101697056D03*
X28400000Y-100000000D03*
%TD*%
%TO.C,H14*%
X171600000Y-100000000D03*
X172302944Y-98302944D03*
X172302944Y-101697056D03*
X174000000Y-97600000D03*
D13*
X174000000Y-100000000D03*
D12*
X174000000Y-102400000D03*
X175697056Y-98302944D03*
X175697056Y-101697056D03*
X176400000Y-100000000D03*
%TD*%
D10*
%TO.C,J12*%
X152500000Y-70500000D03*
D11*
X155000000Y-70500000D03*
%TD*%
D33*
%TO.C,J3*%
X168650000Y-130000000D03*
D34*
X169505050Y-127650768D03*
X170360101Y-125301537D03*
%TD*%
D21*
%TO.C,J13*%
X136500000Y-98730000D03*
D22*
X136500000Y-96190000D03*
X136500000Y-93650000D03*
%TD*%
D35*
%TO.C,U3*%
X76597882Y-131847912D03*
D36*
X76238672Y-134003174D03*
X74442621Y-132207123D03*
D37*
X68546764Y-123765682D03*
D38*
X68156441Y-125920943D03*
X66360390Y-124124892D03*
X49771665Y-144305720D03*
X47975614Y-142509668D03*
D37*
X47600847Y-144680486D03*
D36*
X57853895Y-152387950D03*
X56057844Y-150591899D03*
D35*
X55683078Y-152762717D03*
D15*
X63687526Y-148033587D03*
%TD*%
D12*
%TO.C,H16*%
X142147727Y-124748737D03*
X142850671Y-123051681D03*
X142850671Y-126445793D03*
X144547727Y-122348737D03*
D13*
X144547727Y-124748737D03*
D12*
X144547727Y-127148737D03*
X146244783Y-123051681D03*
X146244783Y-126445793D03*
X146947727Y-124748737D03*
%TD*%
%TO.C,H8*%
X171600000Y-85000000D03*
X172302944Y-83302944D03*
X172302944Y-86697056D03*
X174000000Y-82600000D03*
D13*
X174000000Y-85000000D03*
D12*
X174000000Y-87400000D03*
X175697056Y-83302944D03*
X175697056Y-86697056D03*
X176400000Y-85000000D03*
%TD*%
D39*
%TO.C,J5*%
X89600000Y-173700000D03*
D20*
X89600000Y-176200000D03*
%TD*%
D12*
%TO.C,H5*%
X75100000Y-122500000D03*
X75802944Y-120802944D03*
X75802944Y-124197056D03*
X77500000Y-120100000D03*
D13*
X77500000Y-122500000D03*
D12*
X77500000Y-124900000D03*
X79197056Y-120802944D03*
X79197056Y-124197056D03*
X79900000Y-122500000D03*
%TD*%
%TO.C,H2*%
X169920341Y-70780686D03*
X170623285Y-69083630D03*
X170623285Y-72477742D03*
X172320341Y-68380686D03*
D13*
X172320341Y-70780686D03*
D12*
X172320341Y-73180686D03*
X174017397Y-69083630D03*
X174017397Y-72477742D03*
X174720341Y-70780686D03*
%TD*%
D40*
%TO.C,R1*%
X136500000Y-91040000D03*
D41*
X136500000Y-85960000D03*
%TD*%
D12*
%TO.C,H25*%
X84600000Y-139000000D03*
X85302944Y-137302944D03*
X85302944Y-140697056D03*
X87000000Y-136600000D03*
D13*
X87000000Y-139000000D03*
D12*
X87000000Y-141400000D03*
X88697056Y-137302944D03*
X88697056Y-140697056D03*
X89400000Y-139000000D03*
%TD*%
%TO.C,H11*%
X120100000Y-122500000D03*
X120802944Y-120802944D03*
X120802944Y-124197056D03*
X122500000Y-120100000D03*
D13*
X122500000Y-122500000D03*
D12*
X122500000Y-124900000D03*
X124197056Y-120802944D03*
X124197056Y-124197056D03*
X124900000Y-122500000D03*
%TD*%
%TO.C,H26*%
X110600000Y-139000000D03*
X111302944Y-137302944D03*
X111302944Y-140697056D03*
X113000000Y-136600000D03*
D13*
X113000000Y-139000000D03*
D12*
X113000000Y-141400000D03*
X114697056Y-137302944D03*
X114697056Y-140697056D03*
X115400000Y-139000000D03*
%TD*%
%TO.C,H3*%
X122348737Y-55452273D03*
X123051681Y-53755217D03*
X123051681Y-57149329D03*
X124748737Y-53052273D03*
D13*
X124748737Y-55452273D03*
D12*
X124748737Y-57852273D03*
X126445793Y-53755217D03*
X126445793Y-57149329D03*
X127148737Y-55452273D03*
%TD*%
%TO.C,H30*%
X102725000Y-158300000D03*
X103318109Y-156868109D03*
X103318109Y-159731891D03*
X104750000Y-156275000D03*
D18*
X104750000Y-158300000D03*
D12*
X104750000Y-160325000D03*
X106181891Y-156868109D03*
X106181891Y-159731891D03*
X106775000Y-158300000D03*
%TD*%
D42*
%TO.C,H24*%
X71200000Y-167000000D03*
X72605887Y-163605887D03*
X72605887Y-170394113D03*
X76000000Y-162200000D03*
D43*
X76000000Y-167000000D03*
D42*
X76000000Y-171800000D03*
X79394113Y-163605887D03*
X79394113Y-170394113D03*
X80800000Y-167000000D03*
%TD*%
D12*
%TO.C,H18*%
X97600000Y-178000000D03*
X98302944Y-176302944D03*
X98302944Y-179697056D03*
X100000000Y-175600000D03*
D13*
X100000000Y-178000000D03*
D12*
X100000000Y-180400000D03*
X101697056Y-176302944D03*
X101697056Y-179697056D03*
X102400000Y-178000000D03*
%TD*%
%TO.C,H20*%
X171600000Y-115000000D03*
X172302944Y-113302944D03*
X172302944Y-116697056D03*
X174000000Y-112600000D03*
D13*
X174000000Y-115000000D03*
D12*
X174000000Y-117400000D03*
X175697056Y-113302944D03*
X175697056Y-116697056D03*
X176400000Y-115000000D03*
%TD*%
D10*
%TO.C,J4*%
X45000000Y-70500000D03*
D11*
X47500000Y-70500000D03*
%TD*%
D12*
%TO.C,H19*%
X25279659Y-70780686D03*
X25982603Y-69083630D03*
X25982603Y-72477742D03*
X27679659Y-68380686D03*
D13*
X27679659Y-70780686D03*
D12*
X27679659Y-73180686D03*
X29376715Y-69083630D03*
X29376715Y-72477742D03*
X30079659Y-70780686D03*
%TD*%
%TO.C,H17*%
X72851263Y-144547727D03*
X73554207Y-142850671D03*
X73554207Y-146244783D03*
X75251263Y-142147727D03*
D13*
X75251263Y-144547727D03*
D12*
X75251263Y-146947727D03*
X76948319Y-142850671D03*
X76948319Y-146244783D03*
X77651263Y-144547727D03*
%TD*%
D23*
%TO.C,SW1*%
X114750000Y-174591199D03*
X114750000Y-168091199D03*
X119250000Y-174591199D03*
X119250000Y-168091199D03*
%TD*%
D10*
%TO.C,SW10*%
X75000000Y-156000000D03*
D11*
X77500000Y-156000000D03*
%TD*%
D44*
%TO.C,M3*%
X93250000Y-47500000D03*
D45*
X90750000Y-47500000D03*
D44*
X88250000Y-47500000D03*
D45*
X85750000Y-47500000D03*
%TD*%
D46*
%TO.C,J11*%
X65500000Y-93750000D03*
D47*
X65500000Y-96250000D03*
X65500000Y-98750000D03*
X65500000Y-101250000D03*
X65500000Y-103750000D03*
X65500000Y-106250000D03*
%TD*%
D48*
%TO.C,P2*%
X96250000Y-129500000D03*
D11*
X93750000Y-129500000D03*
%TD*%
D48*
%TO.C,P1*%
X106250000Y-129500000D03*
D11*
X103750000Y-129500000D03*
%TD*%
D44*
%TO.C,M1*%
X93250000Y-40500000D03*
D45*
X90750000Y-40500000D03*
D44*
X88250000Y-40500000D03*
D45*
X85750000Y-40500000D03*
%TD*%
D44*
%TO.C,J10*%
X103750000Y-165000000D03*
D45*
X101250000Y-165000000D03*
X98750000Y-165000000D03*
D44*
X96250000Y-165000000D03*
%TD*%
%TO.C,M4*%
X114250000Y-47500000D03*
D45*
X111750000Y-47500000D03*
D44*
X109250000Y-47500000D03*
D45*
X106750000Y-47500000D03*
%TD*%
D44*
%TO.C,M2*%
X114250000Y-40500000D03*
D45*
X111750000Y-40500000D03*
D44*
X109250000Y-40500000D03*
D45*
X106750000Y-40500000D03*
%TD*%
M02*
