%TF.GenerationSoftware,KiCad,Pcbnew,8.0.3*%
%TF.CreationDate,2024-06-18T02:00:58+08:00*%
%TF.ProjectId,top-rounded,746f702d-726f-4756-9e64-65642e6b6963,1.0.0*%
%TF.SameCoordinates,Original*%
%TF.FileFunction,Soldermask,Bot*%
%TF.FilePolarity,Negative*%
%FSLAX46Y46*%
G04 Gerber Fmt 4.6, Leading zero omitted, Abs format (unit mm)*
G04 Created by KiCad (PCBNEW 8.0.3) date 2024-06-18 02:00:58*
%MOMM*%
%LPD*%
G01*
G04 APERTURE LIST*
G04 Aperture macros list*
%AMRoundRect*
0 Rectangle with rounded corners*
0 $1 Rounding radius*
0 $2 $3 $4 $5 $6 $7 $8 $9 X,Y pos of 4 corners*
0 Add a 4 corners polygon primitive as box body*
4,1,4,$2,$3,$4,$5,$6,$7,$8,$9,$2,$3,0*
0 Add four circle primitives for the rounded corners*
1,1,$1+$1,$2,$3*
1,1,$1+$1,$4,$5*
1,1,$1+$1,$6,$7*
1,1,$1+$1,$8,$9*
0 Add four rect primitives between the rounded corners*
20,1,$1+$1,$2,$3,$4,$5,0*
20,1,$1+$1,$4,$5,$6,$7,0*
20,1,$1+$1,$6,$7,$8,$9,0*
20,1,$1+$1,$8,$9,$2,$3,0*%
%AMHorizOval*
0 Thick line with rounded ends*
0 $1 width*
0 $2 $3 position (X,Y) of the first rounded end (center of the circle)*
0 $4 $5 position (X,Y) of the second rounded end (center of the circle)*
0 Add line between two ends*
20,1,$1,$2,$3,$4,$5,0*
0 Add two circle primitives to create the rounded ends*
1,1,$1,$2,$3*
1,1,$1,$4,$5*%
%AMRotRect*
0 Rectangle, with rotation*
0 The origin of the aperture is its center*
0 $1 length*
0 $2 width*
0 $3 Rotation angle, in degrees counterclockwise*
0 Add horizontal line*
21,1,$1,$2,0,0,$3*%
%AMOutline5P*
0 Free polygon, 5 corners , with rotation*
0 The origin of the aperture is its center*
0 number of corners: always 5*
0 $1 to $10 corner X, Y*
0 $11 Rotation angle, in degrees counterclockwise*
0 create outline with 5 corners*
4,1,5,$1,$2,$3,$4,$5,$6,$7,$8,$9,$10,$1,$2,$11*%
%AMOutline6P*
0 Free polygon, 6 corners , with rotation*
0 The origin of the aperture is its center*
0 number of corners: always 6*
0 $1 to $12 corner X, Y*
0 $13 Rotation angle, in degrees counterclockwise*
0 create outline with 6 corners*
4,1,6,$1,$2,$3,$4,$5,$6,$7,$8,$9,$10,$11,$12,$1,$2,$13*%
%AMOutline7P*
0 Free polygon, 7 corners , with rotation*
0 The origin of the aperture is its center*
0 number of corners: always 7*
0 $1 to $14 corner X, Y*
0 $15 Rotation angle, in degrees counterclockwise*
0 create outline with 7 corners*
4,1,7,$1,$2,$3,$4,$5,$6,$7,$8,$9,$10,$11,$12,$13,$14,$1,$2,$15*%
%AMOutline8P*
0 Free polygon, 8 corners , with rotation*
0 The origin of the aperture is its center*
0 number of corners: always 8*
0 $1 to $16 corner X, Y*
0 $17 Rotation angle, in degrees counterclockwise*
0 create outline with 8 corners*
4,1,8,$1,$2,$3,$4,$5,$6,$7,$8,$9,$10,$11,$12,$13,$14,$15,$16,$1,$2,$17*%
%AMFreePoly0*
4,1,26,0.335306,0.780194,0.389950,0.741421,0.741421,0.389950,0.788777,0.314585,0.800000,0.248529,0.800000,-0.248529,0.780194,-0.335306,0.741421,-0.389950,0.389950,-0.741421,0.314585,-0.788777,0.248529,-0.800000,0.000000,-0.800000,-0.248529,-0.800000,-0.335306,-0.780194,-0.389950,-0.741421,-0.741421,-0.389950,-0.788777,-0.314585,-0.800000,-0.248529,-0.800000,0.248529,-0.780194,0.335306,
-0.741421,0.389950,-0.389950,0.741421,-0.314585,0.788777,-0.248529,0.800000,0.248529,0.800000,0.335306,0.780194,0.335306,0.780194,$1*%
G04 Aperture macros list end*
%ADD10C,0.000000*%
%ADD11RoundRect,0.250000X-0.600000X-0.750000X0.600000X-0.750000X0.600000X0.750000X-0.600000X0.750000X0*%
%ADD12O,1.700000X2.000000*%
%ADD13C,0.800000*%
%ADD14C,6.400000*%
%ADD15C,5.600000*%
%ADD16C,1.524000*%
%ADD17Outline8P,-0.762000X0.381000X-0.381000X0.762000X0.381000X0.762000X0.762000X0.381000X0.762000X-0.381000X0.381000X-0.762000X-0.381000X-0.762000X-0.762000X-0.381000X270.000000*%
%ADD18R,1.524000X1.524000*%
%ADD19C,5.400000*%
%ADD20RoundRect,0.250000X0.750000X-0.600000X0.750000X0.600000X-0.750000X0.600000X-0.750000X-0.600000X0*%
%ADD21O,2.000000X1.700000*%
%ADD22R,1.700000X1.700000*%
%ADD23O,1.700000X1.700000*%
%ADD24C,2.000000*%
%ADD25FreePoly0,0.000000*%
%ADD26C,1.600000*%
%ADD27RoundRect,0.200000X-0.600000X-0.600000X0.600000X-0.600000X0.600000X0.600000X-0.600000X0.600000X0*%
%ADD28C,1.574800*%
%ADD29R,1.574800X1.574800*%
%ADD30RoundRect,0.250000X0.476065X-0.811780X0.886489X0.315851X-0.476065X0.811780X-0.886489X-0.315851X0*%
%ADD31HorizOval,1.700000X-0.117462X0.042753X0.117462X-0.042753X0*%
%ADD32RotRect,1.700000X1.700000X315.000000*%
%ADD33C,1.700000*%
%ADD34RoundRect,0.250000X-0.750000X0.600000X-0.750000X-0.600000X0.750000X-0.600000X0.750000X0.600000X0*%
%ADD35C,1.400000*%
%ADD36O,1.400000X1.400000*%
%ADD37C,0.900000*%
%ADD38C,12.800000*%
%ADD39RoundRect,0.250000X0.600000X0.725000X-0.600000X0.725000X-0.600000X-0.725000X0.600000X-0.725000X0*%
%ADD40O,1.700000X1.950000*%
%ADD41RoundRect,0.250000X-0.725000X0.600000X-0.725000X-0.600000X0.725000X-0.600000X0.725000X0.600000X0*%
%ADD42O,1.950000X1.700000*%
%ADD43RoundRect,0.250000X0.600000X0.750000X-0.600000X0.750000X-0.600000X-0.750000X0.600000X-0.750000X0*%
G04 APERTURE END LIST*
D10*
%TO.C,G\u002A\u002A\u002A*%
G36*
X102479095Y-99374301D02*
G01*
X102479095Y-101691079D01*
X101954861Y-101691079D01*
X101430626Y-101691079D01*
X101430626Y-99374301D01*
X101430626Y-97057524D01*
X101954861Y-97057524D01*
X102479095Y-97057524D01*
X102479095Y-99374301D01*
G37*
G36*
X95094579Y-99281292D02*
G01*
X95142674Y-99382641D01*
X95261772Y-99633220D01*
X95355992Y-99830618D01*
X95428261Y-99980769D01*
X95481506Y-100089607D01*
X95518655Y-100163066D01*
X95542634Y-100207080D01*
X95556371Y-100227583D01*
X95562792Y-100230509D01*
X95567957Y-100221070D01*
X95597332Y-100160673D01*
X95648735Y-100052181D01*
X95718012Y-99904431D01*
X95801012Y-99726258D01*
X95893585Y-99526498D01*
X96214106Y-98833156D01*
X96793072Y-98823902D01*
X96947742Y-98822255D01*
X97116962Y-98822621D01*
X97251378Y-98825413D01*
X97340050Y-98830377D01*
X97372038Y-98837262D01*
X97368373Y-98847921D01*
X97337728Y-98913848D01*
X97275948Y-99039053D01*
X97182990Y-99223624D01*
X97058808Y-99467647D01*
X96903359Y-99771210D01*
X96716598Y-100134401D01*
X96498480Y-100557306D01*
X96248960Y-101040014D01*
X95912104Y-101691079D01*
X95564493Y-101691079D01*
X95216882Y-101691079D01*
X95114525Y-101496605D01*
X95104919Y-101478331D01*
X95045257Y-101364327D01*
X94965756Y-101211878D01*
X94875641Y-101038685D01*
X94784132Y-100862451D01*
X94689301Y-100679614D01*
X94533031Y-100378392D01*
X94402532Y-100126974D01*
X94294318Y-99918665D01*
X94204899Y-99746768D01*
X94130788Y-99604588D01*
X94068497Y-99485429D01*
X94014537Y-99382595D01*
X93965422Y-99289390D01*
X93917662Y-99199120D01*
X93868078Y-99103866D01*
X93808740Y-98984460D01*
X93768162Y-98895890D01*
X93753130Y-98852449D01*
X93753589Y-98850383D01*
X93794140Y-98835397D01*
X93900633Y-98824735D01*
X94073592Y-98818362D01*
X94313540Y-98816245D01*
X94873949Y-98816245D01*
X95094579Y-99281292D01*
G37*
G36*
X88835062Y-98730129D02*
G01*
X89112185Y-98785065D01*
X89357894Y-98878801D01*
X89559514Y-99010333D01*
X89622295Y-99070074D01*
X89752870Y-99246508D01*
X89841783Y-99448565D01*
X89887000Y-99662429D01*
X89886487Y-99874283D01*
X89838208Y-100070311D01*
X89740129Y-100236697D01*
X89702153Y-100277957D01*
X89601803Y-100358399D01*
X89469074Y-100428905D01*
X89292325Y-100495049D01*
X89059916Y-100562406D01*
X88920308Y-100602426D01*
X88752541Y-100665241D01*
X88649137Y-100729063D01*
X88608111Y-100796051D01*
X88627480Y-100868361D01*
X88705260Y-100948154D01*
X88754985Y-100978741D01*
X88895377Y-101013367D01*
X89071223Y-101005232D01*
X89271859Y-100955468D01*
X89486622Y-100865206D01*
X89526619Y-100845220D01*
X89634771Y-100793363D01*
X89712135Y-100759566D01*
X89744077Y-100750360D01*
X89771599Y-100791927D01*
X89820423Y-100881477D01*
X89878760Y-100998763D01*
X89939934Y-101129104D01*
X89997263Y-101257819D01*
X90044070Y-101370229D01*
X90073676Y-101451652D01*
X90079401Y-101487409D01*
X90040480Y-101512716D01*
X89947670Y-101557901D01*
X89823117Y-101610980D01*
X89685009Y-101664633D01*
X89551534Y-101711539D01*
X89440879Y-101744381D01*
X89283016Y-101771497D01*
X89072189Y-101786457D01*
X88847121Y-101786243D01*
X88634556Y-101770957D01*
X88461236Y-101740698D01*
X88312298Y-101694900D01*
X88058613Y-101574471D01*
X87858949Y-101415354D01*
X87714658Y-101219145D01*
X87627093Y-100987437D01*
X87597604Y-100721826D01*
X87613941Y-100522790D01*
X87678276Y-100322472D01*
X87793872Y-100157555D01*
X87844004Y-100109421D01*
X87947413Y-100034744D01*
X88080316Y-99968531D01*
X88255234Y-99904995D01*
X88484687Y-99838353D01*
X88832091Y-99744976D01*
X88832091Y-99628281D01*
X88807595Y-99526277D01*
X88731443Y-99457117D01*
X88607736Y-99428171D01*
X88440648Y-99440371D01*
X88234356Y-99494650D01*
X88131697Y-99524821D01*
X88045790Y-99541010D01*
X88003977Y-99536927D01*
X87991434Y-99518087D01*
X87950658Y-99447992D01*
X87891450Y-99341289D01*
X87821846Y-99212300D01*
X87663441Y-98915013D01*
X87774264Y-98868728D01*
X87941961Y-98808177D01*
X88237275Y-98740679D01*
X88539201Y-98714998D01*
X88835062Y-98730129D01*
G37*
G36*
X93596825Y-99926246D02*
G01*
X93600299Y-100063954D01*
X93600933Y-100253662D01*
X93600906Y-100316177D01*
X93599737Y-100488449D01*
X93595045Y-100613495D01*
X93584396Y-100707059D01*
X93565359Y-100784888D01*
X93535501Y-100862724D01*
X93492389Y-100956314D01*
X93467921Y-101005354D01*
X93300461Y-101254165D01*
X93082886Y-101464083D01*
X92823851Y-101628053D01*
X92532014Y-101739020D01*
X92477351Y-101751662D01*
X92292630Y-101776830D01*
X92075114Y-101788335D01*
X91849295Y-101786142D01*
X91639658Y-101770218D01*
X91470694Y-101740526D01*
X91461147Y-101738013D01*
X91178503Y-101634273D01*
X90944265Y-101484733D01*
X90754035Y-101285808D01*
X90603418Y-101033918D01*
X90506286Y-100828629D01*
X90999626Y-100819253D01*
X91492967Y-100809876D01*
X91609022Y-100911773D01*
X91705233Y-100985175D01*
X91806843Y-101030044D01*
X91929947Y-101046976D01*
X92096642Y-101041865D01*
X92107749Y-101040988D01*
X92289683Y-100999495D01*
X92428353Y-100908212D01*
X92526570Y-100764406D01*
X92587150Y-100565343D01*
X92610724Y-100439681D01*
X91536557Y-100439681D01*
X90462390Y-100439681D01*
X90482339Y-100157001D01*
X90496290Y-100022260D01*
X90545467Y-99802073D01*
X91453263Y-99802073D01*
X91469752Y-99809029D01*
X91543084Y-99817727D01*
X91664938Y-99824655D01*
X91824152Y-99829237D01*
X92009559Y-99830893D01*
X92565856Y-99830893D01*
X92532059Y-99733944D01*
X92517222Y-99696768D01*
X92415568Y-99551512D01*
X92258467Y-99438576D01*
X92253723Y-99436189D01*
X92124315Y-99401071D01*
X91968667Y-99398482D01*
X91816382Y-99426143D01*
X91697067Y-99481775D01*
X91675955Y-99498747D01*
X91602033Y-99572896D01*
X91529830Y-99661891D01*
X91475016Y-99745146D01*
X91453263Y-99802073D01*
X90545467Y-99802073D01*
X90566190Y-99709288D01*
X90683525Y-99429988D01*
X90844442Y-99192249D01*
X91045091Y-99003962D01*
X91163985Y-98927344D01*
X91425496Y-98811862D01*
X91717988Y-98739435D01*
X92025978Y-98712057D01*
X92333986Y-98731720D01*
X92626532Y-98800416D01*
X92692201Y-98823521D01*
X92958992Y-98946736D01*
X93174947Y-99104286D01*
X93350477Y-99305253D01*
X93495996Y-99558718D01*
X93507281Y-99582618D01*
X93545737Y-99668726D01*
X93571905Y-99744273D01*
X93588147Y-99824899D01*
X93588660Y-99830893D01*
X93596825Y-99926246D01*
G37*
G36*
X100884710Y-100174996D02*
G01*
X100874911Y-100455465D01*
X100820582Y-100714159D01*
X100693675Y-101004636D01*
X100512763Y-101257559D01*
X100282391Y-101467342D01*
X100006445Y-101630451D01*
X99688815Y-101743350D01*
X99656371Y-101750812D01*
X99495576Y-101773614D01*
X99297995Y-101786177D01*
X99087617Y-101788121D01*
X98888429Y-101779066D01*
X98724422Y-101758631D01*
X98510515Y-101697418D01*
X98275171Y-101592377D01*
X98054659Y-101459220D01*
X97875384Y-101311844D01*
X97861504Y-101297702D01*
X97708359Y-101106630D01*
X97578791Y-100881575D01*
X97551561Y-100824076D01*
X97506673Y-100721321D01*
X97478810Y-100633559D01*
X97463983Y-100540133D01*
X97458199Y-100420387D01*
X97457468Y-100253662D01*
X97457475Y-100251491D01*
X98555793Y-100251491D01*
X98559154Y-100328369D01*
X98576445Y-100448554D01*
X98603506Y-100534370D01*
X98607051Y-100541009D01*
X98696885Y-100663599D01*
X98816333Y-100772666D01*
X98938487Y-100843388D01*
X98982644Y-100858324D01*
X99171283Y-100884580D01*
X99349346Y-100854743D01*
X99508706Y-100777514D01*
X99641233Y-100661592D01*
X99738801Y-100515678D01*
X99793280Y-100348472D01*
X99796544Y-100168673D01*
X99740464Y-99984982D01*
X99679211Y-99877149D01*
X99557822Y-99745857D01*
X99402308Y-99667374D01*
X99202135Y-99634848D01*
X99102468Y-99631437D01*
X99003869Y-99638411D01*
X98924863Y-99664446D01*
X98837937Y-99715644D01*
X98807097Y-99736932D01*
X98665623Y-99875323D01*
X98582785Y-100045076D01*
X98555793Y-100251491D01*
X97457475Y-100251491D01*
X97457575Y-100220260D01*
X97460056Y-100060184D01*
X97468320Y-99944006D01*
X97485974Y-99851476D01*
X97516628Y-99762348D01*
X97563888Y-99656371D01*
X97713874Y-99399136D01*
X97925188Y-99161560D01*
X98186331Y-98969465D01*
X98497890Y-98822329D01*
X98541410Y-98806485D01*
X98644409Y-98773221D01*
X98741549Y-98751655D01*
X98851198Y-98739392D01*
X98991724Y-98734036D01*
X99181492Y-98733193D01*
X99267062Y-98733618D01*
X99433063Y-98736866D01*
X99556761Y-98745245D01*
X99656046Y-98761224D01*
X99748811Y-98787272D01*
X99852948Y-98825859D01*
X99933320Y-98859601D01*
X100218825Y-99016789D01*
X100461755Y-99212457D01*
X100654516Y-99439588D01*
X100789512Y-99691165D01*
X100850776Y-99899062D01*
X100883932Y-100168673D01*
X100884710Y-100174996D01*
G37*
G36*
X106530537Y-100377961D02*
G01*
X106502064Y-100634073D01*
X106418856Y-100929660D01*
X106283113Y-101182727D01*
X106094453Y-101393790D01*
X105852496Y-101563364D01*
X105556858Y-101691966D01*
X105354622Y-101741168D01*
X105088453Y-101757625D01*
X104829439Y-101723991D01*
X104597858Y-101641335D01*
X104509117Y-101593019D01*
X104411424Y-101531327D01*
X104351387Y-101482840D01*
X104301133Y-101435705D01*
X104263136Y-101430230D01*
X104243936Y-101482901D01*
X104239301Y-101598070D01*
X104257433Y-101798774D01*
X104320826Y-101987396D01*
X104431897Y-102131844D01*
X104592943Y-102236258D01*
X104723326Y-102280220D01*
X104900828Y-102296933D01*
X105068675Y-102269131D01*
X105210766Y-102200029D01*
X105310995Y-102092844D01*
X105368513Y-101995473D01*
X105936187Y-101995473D01*
X106108132Y-101995366D01*
X106282393Y-101997322D01*
X106401221Y-102006025D01*
X106471572Y-102026219D01*
X106500401Y-102062647D01*
X106494664Y-102120054D01*
X106461318Y-102203183D01*
X106407317Y-102316778D01*
X106365996Y-102395076D01*
X106202848Y-102613647D01*
X105988425Y-102802473D01*
X105732900Y-102953694D01*
X105446446Y-103059446D01*
X105350440Y-103078647D01*
X105175702Y-103097477D01*
X104971682Y-103107126D01*
X104760295Y-103107220D01*
X104563458Y-103097386D01*
X104403085Y-103077250D01*
X104363336Y-103069101D01*
X104113813Y-102989606D01*
X103874320Y-102868338D01*
X103659253Y-102715285D01*
X103483010Y-102540432D01*
X103359988Y-102353764D01*
X103335494Y-102299475D01*
X103308539Y-102225379D01*
X103286208Y-102140425D01*
X103268080Y-102038305D01*
X103253731Y-101912709D01*
X103242740Y-101757329D01*
X103234684Y-101565856D01*
X103229141Y-101331980D01*
X103225689Y-101049393D01*
X103223904Y-100711786D01*
X103223365Y-100312850D01*
X103223355Y-100233905D01*
X104220906Y-100233905D01*
X104221902Y-100307564D01*
X104232848Y-100422131D01*
X104261826Y-100511918D01*
X104316152Y-100605458D01*
X104410703Y-100716667D01*
X104552903Y-100813631D01*
X104603956Y-100834381D01*
X104797914Y-100873729D01*
X104988613Y-100857063D01*
X105162819Y-100788973D01*
X105307301Y-100674044D01*
X105408826Y-100516866D01*
X105431399Y-100449166D01*
X105453072Y-100283847D01*
X105441072Y-100112777D01*
X105396153Y-99968584D01*
X105378497Y-99938202D01*
X105301389Y-99839114D01*
X105208929Y-99750266D01*
X105192528Y-99737406D01*
X105102958Y-99680538D01*
X105005617Y-99650062D01*
X104870713Y-99635906D01*
X104779292Y-99634377D01*
X104605482Y-99662784D01*
X104459580Y-99741887D01*
X104323218Y-99879869D01*
X104274707Y-99944787D01*
X104239883Y-100016362D01*
X104224416Y-100104196D01*
X104220906Y-100233905D01*
X103223355Y-100233905D01*
X103223170Y-98816245D01*
X103730493Y-98816245D01*
X104237817Y-98816245D01*
X104237817Y-98953126D01*
X104237817Y-99090006D01*
X104367412Y-98985860D01*
X104449574Y-98926731D01*
X104678528Y-98816247D01*
X104932363Y-98757642D01*
X105198338Y-98750523D01*
X105463711Y-98794500D01*
X105715743Y-98889182D01*
X105941690Y-99034178D01*
X105953679Y-99044019D01*
X106172377Y-99258692D01*
X106335923Y-99500019D01*
X106455422Y-99784212D01*
X106468075Y-99823576D01*
X106508104Y-99963455D01*
X106529397Y-100083032D01*
X106535645Y-100211478D01*
X106533425Y-100283847D01*
X106530537Y-100377961D01*
G37*
%TD*%
D11*
%TO.C,J8*%
X137750000Y-137975000D03*
D12*
X140250000Y-137975000D03*
%TD*%
D11*
%TO.C,J2*%
X162500000Y-70500000D03*
D12*
X165000000Y-70500000D03*
%TD*%
D13*
%TO.C,H13*%
X23600000Y-115000000D03*
X24302944Y-113302944D03*
X24302944Y-116697056D03*
X26000000Y-112600000D03*
D14*
X26000000Y-115000000D03*
D13*
X26000000Y-117400000D03*
X27697056Y-113302944D03*
X27697056Y-116697056D03*
X28400000Y-115000000D03*
%TD*%
D15*
%TO.C,U2*%
X105198000Y-85268000D03*
X105200000Y-114732000D03*
D16*
X83100000Y-83871000D03*
X80560000Y-83871000D03*
X78020000Y-83871000D03*
X75480000Y-83871000D03*
X72940000Y-83871000D03*
X70400000Y-83871000D03*
X67860000Y-83871000D03*
D17*
X65320000Y-83871000D03*
D18*
X65320000Y-116129000D03*
D17*
X67860000Y-116129000D03*
D16*
X70400000Y-116129000D03*
X72940000Y-116129000D03*
X75480000Y-116129000D03*
X78020000Y-116129000D03*
X80560000Y-116129000D03*
X83100000Y-116129000D03*
D18*
X70400000Y-112319000D03*
D17*
X72940000Y-112319000D03*
D16*
X75480000Y-112319000D03*
X78020000Y-112319000D03*
X80560000Y-112319000D03*
X83100000Y-112319000D03*
%TD*%
D13*
%TO.C,H28*%
X93225000Y-158300000D03*
X93818109Y-156868109D03*
X93818109Y-159731891D03*
X95250000Y-156275000D03*
D19*
X95250000Y-158300000D03*
D13*
X95250000Y-160325000D03*
X96681891Y-156868109D03*
X96681891Y-159731891D03*
X97275000Y-158300000D03*
%TD*%
%TO.C,H1*%
X23600000Y-85000000D03*
X24302944Y-83302944D03*
X24302944Y-86697056D03*
X26000000Y-82600000D03*
D14*
X26000000Y-85000000D03*
D13*
X26000000Y-87400000D03*
X27697056Y-83302944D03*
X27697056Y-86697056D03*
X28400000Y-85000000D03*
%TD*%
D11*
%TO.C,J9*%
X147413217Y-137874728D03*
D12*
X149913217Y-137874728D03*
%TD*%
D13*
%TO.C,H22*%
X142147727Y-75251263D03*
X142850671Y-73554207D03*
X142850671Y-76948319D03*
X144547727Y-72851263D03*
D14*
X144547727Y-75251263D03*
D13*
X144547727Y-77651263D03*
X146244783Y-73554207D03*
X146244783Y-76948319D03*
X146947727Y-75251263D03*
%TD*%
D20*
%TO.C,J6*%
X36300000Y-72226252D03*
D21*
X36300000Y-69726252D03*
%TD*%
D13*
%TO.C,H4*%
X53052273Y-75251263D03*
X53755217Y-73554207D03*
X53755217Y-76948319D03*
X55452273Y-72851263D03*
D14*
X55452273Y-75251263D03*
D13*
X55452273Y-77651263D03*
X57149329Y-73554207D03*
X57149329Y-76948319D03*
X57852273Y-75251263D03*
%TD*%
%TO.C,H12*%
X113600000Y-158000000D03*
X114302944Y-156302944D03*
X114302944Y-159697056D03*
X116000000Y-155600000D03*
D14*
X116000000Y-158000000D03*
D13*
X116000000Y-160400000D03*
X117697056Y-156302944D03*
X117697056Y-159697056D03*
X118400000Y-158000000D03*
%TD*%
D22*
%TO.C,J1*%
X83100000Y-75500000D03*
D23*
X80560000Y-75500000D03*
X78020000Y-75500000D03*
X75480000Y-75500000D03*
X72940000Y-75500000D03*
X70400000Y-75500000D03*
X67860000Y-75500000D03*
X65320000Y-75500000D03*
%TD*%
D24*
%TO.C,SW2*%
X124750002Y-174591199D03*
X124750002Y-168091199D03*
X129250002Y-174591199D03*
X129250002Y-168091199D03*
%TD*%
D22*
%TO.C,J7*%
X83500000Y-122500000D03*
D23*
X86040000Y-122500000D03*
X88580000Y-122500000D03*
%TD*%
D13*
%TO.C,H29*%
X102725000Y-137700000D03*
X103318109Y-136268109D03*
X103318109Y-139131891D03*
X104750000Y-135675000D03*
D19*
X104750000Y-137700000D03*
D13*
X104750000Y-139725000D03*
X106181891Y-136268109D03*
X106181891Y-139131891D03*
X106775000Y-137700000D03*
%TD*%
%TO.C,H15*%
X120100000Y-65500000D03*
X120802944Y-63802944D03*
X120802944Y-67197056D03*
X122500000Y-63100000D03*
D14*
X122500000Y-65500000D03*
D13*
X122500000Y-67900000D03*
X124197056Y-63802944D03*
X124197056Y-67197056D03*
X124900000Y-65500000D03*
%TD*%
D25*
%TO.C,U1*%
X111100000Y-75870000D03*
D26*
X111100000Y-78410000D03*
D27*
X111100000Y-80950000D03*
D26*
X111100000Y-83490000D03*
X111100000Y-86030000D03*
X111100000Y-88570000D03*
X111100000Y-91110000D03*
D27*
X111100000Y-93650000D03*
D26*
X111100000Y-96190000D03*
X111100000Y-98730000D03*
X111100000Y-101270000D03*
X111100000Y-103810000D03*
D27*
X111100000Y-106350000D03*
D26*
X111100000Y-108890000D03*
X111100000Y-111430000D03*
X111100000Y-113970000D03*
X111100000Y-116510000D03*
D27*
X111100000Y-119050000D03*
D26*
X111100000Y-121590000D03*
X111100000Y-124130000D03*
X128880000Y-124130000D03*
X128880000Y-121590000D03*
D27*
X128880000Y-119050000D03*
D26*
X128880000Y-116510000D03*
X128880000Y-113970000D03*
X128880000Y-111430000D03*
X128880000Y-108890000D03*
D27*
X128880000Y-106350000D03*
D26*
X128880000Y-103810000D03*
X128880000Y-101270000D03*
X128880000Y-98730000D03*
X128880000Y-96190000D03*
D27*
X128880000Y-93650000D03*
D26*
X128880000Y-91110000D03*
X128880000Y-88570000D03*
X128880000Y-86030000D03*
X128880000Y-83490000D03*
D27*
X128880000Y-80950000D03*
D26*
X128880000Y-78410000D03*
X128880000Y-75870000D03*
D28*
X120574200Y-105700000D03*
D29*
X123114200Y-105700000D03*
D28*
X125654200Y-105700000D03*
%TD*%
D13*
%TO.C,H23*%
X122348737Y-144547727D03*
X123051681Y-142850671D03*
X123051681Y-146244783D03*
X124748737Y-142147727D03*
D14*
X124748737Y-144547727D03*
D13*
X124748737Y-146947727D03*
X126445793Y-142850671D03*
X126445793Y-146244783D03*
X127148737Y-144547727D03*
%TD*%
%TO.C,H10*%
X53052273Y-124748737D03*
X53755217Y-123051681D03*
X53755217Y-126445793D03*
X55452273Y-122348737D03*
D14*
X55452273Y-124748737D03*
D13*
X55452273Y-127148737D03*
X57149329Y-123051681D03*
X57149329Y-126445793D03*
X57852273Y-124748737D03*
%TD*%
%TO.C,H27*%
X93225000Y-137700000D03*
X93818109Y-136268109D03*
X93818109Y-139131891D03*
X95250000Y-135675000D03*
D19*
X95250000Y-137700000D03*
D13*
X95250000Y-139725000D03*
X96681891Y-136268109D03*
X96681891Y-139131891D03*
X97275000Y-137700000D03*
%TD*%
%TO.C,H9*%
X72851263Y-55452273D03*
X73554207Y-53755217D03*
X73554207Y-57149329D03*
X75251263Y-53052273D03*
D14*
X75251263Y-55452273D03*
D13*
X75251263Y-57852273D03*
X76948319Y-53755217D03*
X76948319Y-57149329D03*
X77651263Y-55452273D03*
%TD*%
%TO.C,H6*%
X84600000Y-167000000D03*
X85302944Y-165302944D03*
X85302944Y-168697056D03*
X87000000Y-164600000D03*
D14*
X87000000Y-167000000D03*
D13*
X87000000Y-169400000D03*
X88697056Y-165302944D03*
X88697056Y-168697056D03*
X89400000Y-167000000D03*
%TD*%
%TO.C,H21*%
X75100000Y-65500000D03*
X75802944Y-63802944D03*
X75802944Y-67197056D03*
X77500000Y-63100000D03*
D14*
X77500000Y-65500000D03*
D13*
X77500000Y-67900000D03*
X79197056Y-63802944D03*
X79197056Y-67197056D03*
X79900000Y-65500000D03*
%TD*%
%TO.C,H7*%
X23600000Y-100000000D03*
X24302944Y-98302944D03*
X24302944Y-101697056D03*
X26000000Y-97600000D03*
D14*
X26000000Y-100000000D03*
D13*
X26000000Y-102400000D03*
X27697056Y-98302944D03*
X27697056Y-101697056D03*
X28400000Y-100000000D03*
%TD*%
%TO.C,H14*%
X171600000Y-100000000D03*
X172302944Y-98302944D03*
X172302944Y-101697056D03*
X174000000Y-97600000D03*
D14*
X174000000Y-100000000D03*
D13*
X174000000Y-102400000D03*
X175697056Y-98302944D03*
X175697056Y-101697056D03*
X176400000Y-100000000D03*
%TD*%
D11*
%TO.C,J12*%
X152500000Y-70500000D03*
D12*
X155000000Y-70500000D03*
%TD*%
D30*
%TO.C,J3*%
X168650000Y-130000000D03*
D31*
X169505050Y-127650768D03*
X170360101Y-125301537D03*
%TD*%
D22*
%TO.C,J13*%
X136500000Y-98730000D03*
D23*
X136500000Y-96190000D03*
X136500000Y-93650000D03*
%TD*%
D32*
%TO.C,U3*%
X76238672Y-134003174D03*
X74442621Y-132207123D03*
D33*
X68156441Y-125920943D03*
X66360390Y-124124892D03*
X49771665Y-144305720D03*
X47975614Y-142509668D03*
D32*
X57853895Y-152387950D03*
X56057844Y-150591899D03*
D16*
X63687526Y-148033587D03*
%TD*%
D13*
%TO.C,H16*%
X142147727Y-124748737D03*
X142850671Y-123051681D03*
X142850671Y-126445793D03*
X144547727Y-122348737D03*
D14*
X144547727Y-124748737D03*
D13*
X144547727Y-127148737D03*
X146244783Y-123051681D03*
X146244783Y-126445793D03*
X146947727Y-124748737D03*
%TD*%
%TO.C,H8*%
X171600000Y-85000000D03*
X172302944Y-83302944D03*
X172302944Y-86697056D03*
X174000000Y-82600000D03*
D14*
X174000000Y-85000000D03*
D13*
X174000000Y-87400000D03*
X175697056Y-83302944D03*
X175697056Y-86697056D03*
X176400000Y-85000000D03*
%TD*%
D34*
%TO.C,J5*%
X89600000Y-173700000D03*
D21*
X89600000Y-176200000D03*
%TD*%
D13*
%TO.C,H5*%
X75100000Y-122500000D03*
X75802944Y-120802944D03*
X75802944Y-124197056D03*
X77500000Y-120100000D03*
D14*
X77500000Y-122500000D03*
D13*
X77500000Y-124900000D03*
X79197056Y-120802944D03*
X79197056Y-124197056D03*
X79900000Y-122500000D03*
%TD*%
%TO.C,H2*%
X169920341Y-70780686D03*
X170623285Y-69083630D03*
X170623285Y-72477742D03*
X172320341Y-68380686D03*
D14*
X172320341Y-70780686D03*
D13*
X172320341Y-73180686D03*
X174017397Y-69083630D03*
X174017397Y-72477742D03*
X174720341Y-70780686D03*
%TD*%
D35*
%TO.C,R1*%
X136500000Y-91040000D03*
D36*
X136500000Y-85960000D03*
%TD*%
D13*
%TO.C,H25*%
X84600000Y-139000000D03*
X85302944Y-137302944D03*
X85302944Y-140697056D03*
X87000000Y-136600000D03*
D14*
X87000000Y-139000000D03*
D13*
X87000000Y-141400000D03*
X88697056Y-137302944D03*
X88697056Y-140697056D03*
X89400000Y-139000000D03*
%TD*%
%TO.C,H11*%
X120100000Y-122500000D03*
X120802944Y-120802944D03*
X120802944Y-124197056D03*
X122500000Y-120100000D03*
D14*
X122500000Y-122500000D03*
D13*
X122500000Y-124900000D03*
X124197056Y-120802944D03*
X124197056Y-124197056D03*
X124900000Y-122500000D03*
%TD*%
%TO.C,H26*%
X110600000Y-139000000D03*
X111302944Y-137302944D03*
X111302944Y-140697056D03*
X113000000Y-136600000D03*
D14*
X113000000Y-139000000D03*
D13*
X113000000Y-141400000D03*
X114697056Y-137302944D03*
X114697056Y-140697056D03*
X115400000Y-139000000D03*
%TD*%
%TO.C,H3*%
X122348737Y-55452273D03*
X123051681Y-53755217D03*
X123051681Y-57149329D03*
X124748737Y-53052273D03*
D14*
X124748737Y-55452273D03*
D13*
X124748737Y-57852273D03*
X126445793Y-53755217D03*
X126445793Y-57149329D03*
X127148737Y-55452273D03*
%TD*%
%TO.C,H30*%
X102725000Y-158300000D03*
X103318109Y-156868109D03*
X103318109Y-159731891D03*
X104750000Y-156275000D03*
D19*
X104750000Y-158300000D03*
D13*
X104750000Y-160325000D03*
X106181891Y-156868109D03*
X106181891Y-159731891D03*
X106775000Y-158300000D03*
%TD*%
D37*
%TO.C,H24*%
X71200000Y-167000000D03*
X72605887Y-163605887D03*
X72605887Y-170394113D03*
X76000000Y-162200000D03*
D38*
X76000000Y-167000000D03*
D37*
X76000000Y-171800000D03*
X79394113Y-163605887D03*
X79394113Y-170394113D03*
X80800000Y-167000000D03*
%TD*%
D13*
%TO.C,H18*%
X97600000Y-178000000D03*
X98302944Y-176302944D03*
X98302944Y-179697056D03*
X100000000Y-175600000D03*
D14*
X100000000Y-178000000D03*
D13*
X100000000Y-180400000D03*
X101697056Y-176302944D03*
X101697056Y-179697056D03*
X102400000Y-178000000D03*
%TD*%
%TO.C,H20*%
X171600000Y-115000000D03*
X172302944Y-113302944D03*
X172302944Y-116697056D03*
X174000000Y-112600000D03*
D14*
X174000000Y-115000000D03*
D13*
X174000000Y-117400000D03*
X175697056Y-113302944D03*
X175697056Y-116697056D03*
X176400000Y-115000000D03*
%TD*%
D11*
%TO.C,J4*%
X45000000Y-70500000D03*
D12*
X47500000Y-70500000D03*
%TD*%
D13*
%TO.C,H19*%
X25279659Y-70780686D03*
X25982603Y-69083630D03*
X25982603Y-72477742D03*
X27679659Y-68380686D03*
D14*
X27679659Y-70780686D03*
D13*
X27679659Y-73180686D03*
X29376715Y-69083630D03*
X29376715Y-72477742D03*
X30079659Y-70780686D03*
%TD*%
%TO.C,H17*%
X72851263Y-144547727D03*
X73554207Y-142850671D03*
X73554207Y-146244783D03*
X75251263Y-142147727D03*
D14*
X75251263Y-144547727D03*
D13*
X75251263Y-146947727D03*
X76948319Y-142850671D03*
X76948319Y-146244783D03*
X77651263Y-144547727D03*
%TD*%
D24*
%TO.C,SW1*%
X114750000Y-174591199D03*
X114750000Y-168091199D03*
X119250000Y-174591199D03*
X119250000Y-168091199D03*
%TD*%
D11*
%TO.C,SW10*%
X75000000Y-156000000D03*
D12*
X77500000Y-156000000D03*
%TD*%
D39*
%TO.C,M3*%
X93250000Y-47500000D03*
D40*
X90750000Y-47500000D03*
D39*
X88250000Y-47500000D03*
D40*
X85750000Y-47500000D03*
%TD*%
D41*
%TO.C,J11*%
X65500000Y-93750000D03*
D42*
X65500000Y-96250000D03*
X65500000Y-98750000D03*
X65500000Y-101250000D03*
X65500000Y-103750000D03*
X65500000Y-106250000D03*
%TD*%
D43*
%TO.C,P2*%
X96250000Y-129500000D03*
D12*
X93750000Y-129500000D03*
%TD*%
D43*
%TO.C,P1*%
X106250000Y-129500000D03*
D12*
X103750000Y-129500000D03*
%TD*%
D39*
%TO.C,M1*%
X93250000Y-40500000D03*
D40*
X90750000Y-40500000D03*
D39*
X88250000Y-40500000D03*
D40*
X85750000Y-40500000D03*
%TD*%
D39*
%TO.C,J10*%
X103750000Y-165000000D03*
D40*
X101250000Y-165000000D03*
X98750000Y-165000000D03*
D39*
X96250000Y-165000000D03*
%TD*%
%TO.C,M4*%
X114250000Y-47500000D03*
D40*
X111750000Y-47500000D03*
D39*
X109250000Y-47500000D03*
D40*
X106750000Y-47500000D03*
%TD*%
D39*
%TO.C,M2*%
X114250000Y-40500000D03*
D40*
X111750000Y-40500000D03*
D39*
X109250000Y-40500000D03*
D40*
X106750000Y-40500000D03*
%TD*%
M02*
