M48
; DRILL file {KiCad 8.0.3} date 2024-06-18T02:00:58+0800
; FORMAT={-:-/ absolute / inch / decimal}
; #@! TF.CreationDate,2024-06-18T02:00:58+08:00
; #@! TF.GenerationSoftware,Kicad,Pcbnew,8.0.3
; #@! TF.FileFunction,Plated,1,2,PTH
FMAT,2
INCH
; #@! TA.AperFunction,Plated,PTH,ViaDrill
T1C0.0118
; #@! TA.AperFunction,Plated,PTH,ComponentDrill
T2C0.0197
; #@! TA.AperFunction,Plated,PTH,ComponentDrill
T3C0.0236
; #@! TA.AperFunction,Plated,PTH,ComponentDrill
T4C0.0276
; #@! TA.AperFunction,Plated,PTH,ComponentDrill
T5C0.0300
; #@! TA.AperFunction,Plated,PTH,ComponentDrill
T6C0.0374
; #@! TA.AperFunction,Plated,PTH,ComponentDrill
T7C0.0394
; #@! TA.AperFunction,Plated,PTH,ComponentDrill
T8C0.0402
; #@! TA.AperFunction,Plated,PTH,ComponentDrill
T9C0.0433
; #@! TA.AperFunction,Plated,PTH,ComponentDrill
T10C0.1063
; #@! TA.AperFunction,Plated,PTH,ComponentDrill
T11C0.1260
; #@! TA.AperFunction,Plated,PTH,ComponentDrill
T12C0.2520
%
G90
G05
T1
X1.811Y-2.874
X1.811Y-3.0315
X1.8504Y-2.874
X1.8504Y-3.0709
X1.8898Y-2.874
X1.8898Y-3.0709
X1.8898Y-3.0709
X1.9291Y-3.0315
X2.6181Y-3.3661
X2.8248Y-3.6713
X3.0709Y-5.0591
X3.0906Y-5.0197
X3.1102Y-5.0591
X3.1496Y-5.0984
X3.1496Y-5.1378
X3.189Y-5.1181
X3.248Y-3.7106
X3.248Y-3.8091
X3.3465Y-5.9055
X3.3465Y-7.0079
X3.3465Y-7.0669
X3.3858Y-5.8661
X3.3858Y-6.9685
X3.3858Y-7.0276
X3.3858Y-7.0669
X3.4252Y-5.9055
X3.4252Y-7.0079
X3.4252Y-7.0669
X3.5433Y-6.2598
X3.5433Y-6.2992
X3.5433Y-7.0669
X3.5827Y-6.2598
X3.5827Y-7.0472
X3.5827Y-7.0866
X3.622Y-7.0276
X3.622Y-7.0669
X3.622Y-7.1063
X3.8189Y-6.6831
X3.8189Y-6.7224
X3.8386Y-3.189
X3.8583Y-6.6831
X3.8583Y-6.7224
X3.8976Y-6.6831
X3.8976Y-6.7224
X3.937Y-6.6831
X3.937Y-6.7224
X3.9764Y-6.6831
X3.9764Y-6.7224
X3.9961Y-6.6437
X4.0157Y-6.6831
X4.0354Y-6.6437
X4.2126Y-4.9213
X4.5077Y-4.1533
X4.5374Y-4.4783
X4.5669Y-3.7008
X4.5669Y-4.498
X4.5669Y-4.5276
X4.626Y-3.5236
X4.7638Y-3.7008
X4.8031Y-4.6358
X4.8228Y-3.9764
X4.8228Y-4.6063
X4.8524Y-4.0945
X4.8819Y-3.8386
X4.9409Y-3.6811
X5.0Y-3.5433
X5.2953Y-3.9764
X5.315Y-2.9921
X5.3543Y-4.3307
X5.374Y-3.0512
X5.374Y-3.1299
X5.4134Y-3.0906
X5.4331Y-4.9606
X5.5118Y-4.9213
T2
X0.9291Y-3.3465
X0.9291Y-3.937
X0.9291Y-4.5276
X0.9568Y-3.2796
X0.9568Y-3.4133
X0.9568Y-3.8702
X0.9568Y-4.0038
X0.9568Y-4.4607
X0.9568Y-4.5944
X0.9953Y-2.7866
X1.0229Y-2.7198
X1.0229Y-2.8535
X1.0236Y-3.252
X1.0236Y-3.4409
X1.0236Y-3.8425
X1.0236Y-4.0315
X1.0236Y-4.4331
X1.0236Y-4.622
X1.0898Y-2.6922
X1.0898Y-2.8811
X1.0904Y-3.2796
X1.0904Y-3.4133
X1.0904Y-3.8702
X1.0904Y-4.0038
X1.0904Y-4.4607
X1.0904Y-4.5944
X1.1181Y-3.3465
X1.1181Y-3.937
X1.1181Y-4.5276
X1.1566Y-2.7198
X1.1566Y-2.8535
X1.1842Y-2.7866
X2.0887Y-2.9626
X2.0887Y-4.9114
X2.1163Y-2.8958
X2.1163Y-3.0295
X2.1163Y-4.8446
X2.1163Y-4.9782
X2.1832Y-2.8682
X2.1832Y-3.0571
X2.1832Y-4.8169
X2.1832Y-5.0059
X2.25Y-2.8958
X2.25Y-3.0295
X2.25Y-4.8446
X2.25Y-4.9782
X2.2776Y-2.9626
X2.2776Y-4.9114
X2.8682Y-2.1832
X2.8682Y-5.6909
X2.8958Y-2.1163
X2.8958Y-2.25
X2.8958Y-5.624
X2.8958Y-5.7577
X2.9567Y-2.5787
X2.9567Y-4.8228
X2.9626Y-2.0887
X2.9626Y-2.2776
X2.9626Y-5.5964
X2.9626Y-5.7853
X2.9844Y-2.5119
X2.9844Y-2.6456
X2.9844Y-4.756
X2.9844Y-4.8896
X3.0295Y-2.1163
X3.0295Y-2.25
X3.0295Y-5.624
X3.0295Y-5.7577
X3.0512Y-2.4843
X3.0512Y-2.6732
X3.0512Y-4.7283
X3.0512Y-4.9173
X3.0571Y-2.1832
X3.0571Y-5.6909
X3.118Y-2.5119
X3.118Y-2.6456
X3.118Y-4.756
X3.118Y-4.8896
X3.1457Y-2.5787
X3.1457Y-4.8228
X3.3307Y-5.4724
X3.3307Y-6.5748
X3.3584Y-5.4056
X3.3584Y-5.5393
X3.3584Y-6.508
X3.3584Y-6.6416
X3.4252Y-5.378
X3.4252Y-5.5669
X3.4252Y-6.4803
X3.4252Y-6.6693
X3.492Y-5.4056
X3.492Y-5.5393
X3.492Y-6.508
X3.492Y-6.6416
X3.5197Y-5.4724
X3.5197Y-6.5748
X3.6703Y-5.4213
X3.6703Y-6.2323
X3.6936Y-5.3649
X3.6936Y-5.4776
X3.6936Y-6.1759
X3.6936Y-6.2887
X3.75Y-5.3415
X3.75Y-5.501
X3.75Y-6.1526
X3.75Y-6.312
X3.8064Y-5.3649
X3.8064Y-5.4776
X3.8064Y-6.1759
X3.8064Y-6.2887
X3.8297Y-5.4213
X3.8297Y-6.2323
X3.8425Y-7.0079
X3.8702Y-6.9411
X3.8702Y-7.0747
X3.937Y-6.9134
X3.937Y-7.1024
X4.0038Y-6.9411
X4.0038Y-7.0747
X4.0315Y-7.0079
X4.0443Y-5.4213
X4.0443Y-6.2323
X4.0676Y-5.3649
X4.0676Y-5.4776
X4.0676Y-6.1759
X4.0676Y-6.2887
X4.124Y-5.3415
X4.124Y-5.501
X4.124Y-6.1526
X4.124Y-6.312
X4.1804Y-5.3649
X4.1804Y-5.4776
X4.1804Y-6.1759
X4.1804Y-6.2887
X4.2037Y-5.4213
X4.2037Y-6.2323
X4.3543Y-5.4724
X4.382Y-5.4056
X4.382Y-5.5393
X4.4488Y-5.378
X4.4488Y-5.5669
X4.4724Y-6.2205
X4.5001Y-6.1537
X4.5001Y-6.2873
X4.5156Y-5.4056
X4.5156Y-5.5393
X4.5433Y-5.4724
X4.5669Y-6.126
X4.5669Y-6.315
X4.6337Y-6.1537
X4.6337Y-6.2873
X4.6614Y-6.2205
X4.7283Y-2.5787
X4.7283Y-4.8228
X4.756Y-2.5119
X4.756Y-2.6456
X4.756Y-4.756
X4.756Y-4.8896
X4.8169Y-2.1832
X4.8169Y-5.6909
X4.8228Y-2.4843
X4.8228Y-2.6732
X4.8228Y-4.7283
X4.8228Y-4.9173
X4.8446Y-2.1163
X4.8446Y-2.25
X4.8446Y-5.624
X4.8446Y-5.7577
X4.8896Y-2.5119
X4.8896Y-2.6456
X4.8896Y-4.756
X4.8896Y-4.8896
X4.9114Y-2.0887
X4.9114Y-2.2776
X4.9114Y-5.5964
X4.9114Y-5.7853
X4.9173Y-2.5787
X4.9173Y-4.8228
X4.9782Y-2.1163
X4.9782Y-2.25
X4.9782Y-5.624
X4.9782Y-5.7577
X5.0059Y-2.1832
X5.0059Y-5.6909
X5.5964Y-2.9626
X5.5964Y-4.9114
X5.624Y-2.8958
X5.624Y-3.0295
X5.624Y-4.8446
X5.624Y-4.9782
X5.6909Y-2.8682
X5.6909Y-3.0571
X5.6909Y-4.8169
X5.6909Y-5.0059
X5.7577Y-2.8958
X5.7577Y-3.0295
X5.7577Y-4.8446
X5.7577Y-4.9782
X5.7853Y-2.9626
X5.7853Y-4.9114
X6.6898Y-2.7866
X6.7175Y-2.7198
X6.7175Y-2.8535
X6.7559Y-3.3465
X6.7559Y-3.937
X6.7559Y-4.5276
X6.7836Y-3.2796
X6.7836Y-3.4133
X6.7836Y-3.8702
X6.7836Y-4.0038
X6.7836Y-4.4607
X6.7836Y-4.5944
X6.7843Y-2.6922
X6.7843Y-2.8811
X6.8504Y-3.252
X6.8504Y-3.4409
X6.8504Y-3.8425
X6.8504Y-4.0315
X6.8504Y-4.4331
X6.8504Y-4.622
X6.8511Y-2.7198
X6.8511Y-2.8535
X6.8788Y-2.7866
X6.9172Y-3.2796
X6.9172Y-3.4133
X6.9172Y-3.8702
X6.9172Y-4.0038
X6.9172Y-4.4607
X6.9172Y-4.5944
X6.9449Y-3.3465
X6.9449Y-3.937
X6.9449Y-4.5276
T3
X2.8031Y-6.5748
X2.8585Y-6.4412
X2.8585Y-6.7084
X2.9921Y-6.3858
X2.9921Y-6.7638
X3.1258Y-6.4412
X3.1258Y-6.7084
X3.1811Y-6.5748
T4
X5.374Y-3.3843
X5.374Y-3.5843
T5
X2.5074Y-5.8281
X2.5717Y-3.302
X2.5717Y-4.572
X2.6717Y-3.302
X2.6717Y-4.572
X2.7717Y-3.302
X2.7717Y-4.422
X2.7717Y-4.572
X2.8717Y-3.302
X2.8717Y-4.422
X2.8717Y-4.572
X2.9717Y-3.302
X2.9717Y-4.422
X2.9717Y-4.572
X3.0717Y-3.302
X3.0717Y-4.422
X3.0717Y-4.572
X3.1717Y-3.302
X3.1717Y-4.422
X3.1717Y-4.572
X3.2717Y-3.302
X3.2717Y-4.422
X3.2717Y-4.572
T6
X2.5787Y-3.6909
X2.5787Y-3.7894
X2.5787Y-3.8878
X2.5787Y-3.9862
X2.5787Y-4.0846
X2.5787Y-4.1831
X3.376Y-1.5945
X3.376Y-1.8701
X3.4744Y-1.5945
X3.4744Y-1.8701
X3.5728Y-1.5945
X3.5728Y-1.8701
X3.6713Y-1.5945
X3.6713Y-1.8701
X3.7894Y-6.4961
X3.8878Y-6.4961
X3.9862Y-6.4961
X4.0846Y-6.4961
X4.2028Y-1.5945
X4.2028Y-1.8701
X4.3012Y-1.5945
X4.3012Y-1.8701
X4.3996Y-1.5945
X4.3996Y-1.8701
X4.498Y-1.5945
X4.498Y-1.8701
X6.6398Y-5.1181
X6.6734Y-5.0256
X6.7071Y-4.9331
T7
X1.4291Y-2.7451
X1.4291Y-2.8436
X1.7717Y-2.7756
X1.8701Y-2.7756
X2.5717Y-2.9724
X2.6717Y-2.9724
X2.7717Y-2.9724
X2.8717Y-2.9724
X2.9528Y-6.1417
X2.9717Y-2.9724
X3.0512Y-6.1417
X3.0717Y-2.9724
X3.1717Y-2.9724
X3.2717Y-2.9724
X3.2874Y-4.8228
X3.3874Y-4.8228
X3.4874Y-4.8228
X3.5276Y-6.8386
X3.5276Y-6.937
X3.6909Y-5.0984
X3.7894Y-5.0984
X4.0846Y-5.0984
X4.1831Y-5.0984
X4.374Y-2.987
X4.374Y-3.087
X4.374Y-3.187
X4.374Y-3.287
X4.374Y-3.387
X4.374Y-3.487
X4.374Y-3.587
X4.374Y-3.687
X4.374Y-3.787
X4.374Y-3.887
X4.374Y-3.987
X4.374Y-4.087
X4.374Y-4.187
X4.374Y-4.287
X4.374Y-4.387
X4.374Y-4.487
X4.374Y-4.587
X4.374Y-4.687
X4.374Y-4.787
X4.374Y-4.887
X4.747Y-4.1614
X4.847Y-4.1614
X4.947Y-4.1614
X5.074Y-2.987
X5.074Y-3.087
X5.074Y-3.187
X5.074Y-3.287
X5.074Y-3.387
X5.074Y-3.487
X5.074Y-3.587
X5.074Y-3.687
X5.074Y-3.787
X5.074Y-3.887
X5.074Y-3.987
X5.074Y-4.087
X5.074Y-4.187
X5.074Y-4.287
X5.074Y-4.387
X5.074Y-4.487
X5.074Y-4.587
X5.074Y-4.687
X5.074Y-4.787
X5.074Y-4.887
X5.374Y-3.687
X5.374Y-3.787
X5.374Y-3.887
X5.4232Y-5.4321
X5.5217Y-5.4321
X5.8037Y-5.4281
X5.9021Y-5.4281
X6.0039Y-2.7756
X6.1024Y-2.7756
X6.3976Y-2.7756
X6.4961Y-2.7756
T8
X1.8888Y-5.6106
X1.9595Y-5.6813
X2.207Y-5.9288
X2.2777Y-5.9995
X2.6126Y-4.8868
X2.6833Y-4.9575
X2.9308Y-5.205
X3.0015Y-5.2757
T9
X4.5177Y-6.6178
X4.5177Y-6.8737
X4.6949Y-6.6178
X4.6949Y-6.8737
X4.9114Y-6.6178
X4.9114Y-6.8737
X5.0886Y-6.6178
X5.0886Y-6.8737
T10
X3.75Y-5.4213
X3.75Y-6.2323
X4.124Y-5.4213
X4.124Y-6.2323
T11
X1.0236Y-3.3465
X1.0236Y-3.937
X1.0236Y-4.5276
X1.0898Y-2.7866
X2.1832Y-2.9626
X2.1832Y-4.9114
X2.9626Y-2.1832
X2.9626Y-5.6909
X3.0512Y-2.5787
X3.0512Y-4.8228
X3.4252Y-5.4724
X3.4252Y-6.5748
X3.937Y-7.0079
X4.4488Y-5.4724
X4.5669Y-6.2205
X4.8228Y-2.5787
X4.8228Y-4.8228
X4.9114Y-2.1832
X4.9114Y-5.6909
X5.6909Y-2.9626
X5.6909Y-4.9114
X6.7843Y-2.7866
X6.8504Y-3.3465
X6.8504Y-3.937
X6.8504Y-4.5276
T12
X2.9921Y-6.5748
M30
