M48
; DRILL file {KiCad 8.0.3} date 2024-06-14T01:25:08+0800
; FORMAT={-:-/ absolute / inch / decimal}
; #@! TF.CreationDate,2024-06-14T01:25:08+08:00
; #@! TF.GenerationSoftware,Kicad,Pcbnew,8.0.3
; #@! TF.FileFunction,Plated,1,2,PTH
FMAT,2
INCH
; #@! TA.AperFunction,Plated,PTH,ViaDrill
T1C0.0118
; #@! TA.AperFunction,Plated,PTH,ComponentDrill
T2C0.0197
; #@! TA.AperFunction,Plated,PTH,ComponentDrill
T3C0.0276
; #@! TA.AperFunction,Plated,PTH,ComponentDrill
T4C0.0300
; #@! TA.AperFunction,Plated,PTH,ComponentDrill
T5C0.0374
; #@! TA.AperFunction,Plated,PTH,ComponentDrill
T6C0.0394
; #@! TA.AperFunction,Plated,PTH,ComponentDrill
T7C0.0402
; #@! TA.AperFunction,Plated,PTH,ComponentDrill
T8C0.1260
%
G90
G05
T1
X1.4567Y-4.2126
X1.7126Y-2.9359
X1.824Y-5.4724
X2.6363Y-2.0472
X2.7953Y-5.0
X2.8346Y-6.12
X2.874Y-5.0
X2.9134Y-3.8976
X3.7402Y-7.2244
X3.7598Y-1.6339
X3.7795Y-4.9606
X3.7795Y-5.0591
X3.8189Y-7.2244
X3.878Y-6.2008
X3.878Y-6.2992
X3.8976Y-7.2244
X3.937Y-6.2992
X3.9764Y-6.2008
X3.9764Y-7.2244
X4.0157Y-6.2264
X4.0551Y-6.2992
X4.0551Y-7.2244
X4.0748Y-6.2008
X4.0945Y-6.2992
X4.0988Y-6.2264
X4.1339Y-7.2244
X4.1732Y-6.2992
X4.3504Y-4.9902
X4.3505Y-5.1063
X4.4094Y-6.8406
X4.4094Y-6.998
X4.4488Y-6.8799
X4.4495Y-6.8005
X4.4495Y-6.958
X4.4587Y-5.5315
X4.4587Y-5.5906
X4.4587Y-5.6299
X4.4587Y-5.689
X4.4587Y-5.7283
X4.4587Y-5.7874
X4.4587Y-5.935
X4.4587Y-5.9843
X4.4587Y-6.0335
X4.4587Y-6.0827
X4.4889Y-6.8398
X4.5294Y-6.8804
X4.5965Y-5.5315
X4.5965Y-5.5906
X4.5965Y-5.689
X4.5965Y-5.7874
X4.5965Y-5.935
X4.5965Y-5.9843
X4.5965Y-6.0335
X4.5965Y-6.0811
X5.0394Y-6.12
X5.2362Y-3.3661
X5.2362Y-3.4449
X5.2377Y-2.0472
X5.2756Y-3.3268
X5.2756Y-3.4055
X5.2756Y-3.4843
X5.4921Y-3.3268
X5.4921Y-3.4055
X5.4921Y-3.4843
X5.5315Y-3.3661
X5.5315Y-3.4449
X6.05Y-5.4724
X6.1614Y-2.9359
X6.4173Y-4.2126
T2
X1.1654Y-2.9134
X1.1654Y-4.9606
X1.193Y-2.8466
X1.193Y-2.9802
X1.193Y-4.8938
X1.193Y-5.0274
X1.2598Y-2.8189
X1.2598Y-3.0079
X1.2598Y-4.8661
X1.2598Y-5.0551
X1.3267Y-2.8466
X1.3267Y-2.9802
X1.3267Y-4.8938
X1.3267Y-5.0274
X1.3543Y-2.9134
X1.3543Y-4.9606
X2.0887Y-2.9626
X2.0887Y-4.9114
X2.1163Y-2.8958
X2.1163Y-3.0295
X2.1163Y-4.8446
X2.1163Y-4.9782
X2.1832Y-2.8682
X2.1832Y-3.0571
X2.1832Y-4.8169
X2.1832Y-5.0059
X2.25Y-2.8958
X2.25Y-3.0295
X2.25Y-4.8446
X2.25Y-4.9782
X2.2776Y-2.9626
X2.2776Y-4.9114
X2.5827Y-1.1811
X2.6104Y-1.1143
X2.6104Y-1.2479
X2.6772Y-1.0866
X2.6772Y-1.2756
X2.744Y-1.1143
X2.744Y-1.2479
X2.7717Y-1.1811
X2.8189Y-6.6142
X2.8466Y-6.5474
X2.8466Y-6.681
X2.8682Y-2.1832
X2.8682Y-5.6909
X2.8958Y-2.1163
X2.8958Y-2.25
X2.8958Y-5.624
X2.8958Y-5.7577
X2.9134Y-6.5197
X2.9134Y-6.7087
X2.9567Y-2.5787
X2.9567Y-4.8228
X2.9626Y-2.0887
X2.9626Y-2.2776
X2.9626Y-5.5964
X2.9626Y-5.7853
X2.9802Y-6.5474
X2.9802Y-6.681
X2.9844Y-2.5119
X2.9844Y-2.6456
X2.9844Y-4.756
X2.9844Y-4.8896
X3.0079Y-6.6142
X3.0295Y-2.1163
X3.0295Y-2.25
X3.0295Y-5.624
X3.0295Y-5.7577
X3.0512Y-2.4843
X3.0512Y-2.6732
X3.0512Y-4.7283
X3.0512Y-4.9173
X3.0571Y-2.1832
X3.0571Y-5.6909
X3.118Y-2.5119
X3.118Y-2.6456
X3.118Y-4.756
X3.118Y-4.8896
X3.1457Y-2.5787
X3.1457Y-4.8228
X4.7283Y-2.5787
X4.7283Y-4.8228
X4.756Y-2.5119
X4.756Y-2.6456
X4.756Y-4.756
X4.756Y-4.8896
X4.8169Y-2.1832
X4.8169Y-5.6909
X4.8228Y-2.4843
X4.8228Y-2.6732
X4.8228Y-4.7283
X4.8228Y-4.9173
X4.8446Y-2.1163
X4.8446Y-2.25
X4.8446Y-5.624
X4.8446Y-5.7577
X4.8661Y-6.6142
X4.8896Y-2.5119
X4.8896Y-2.6456
X4.8896Y-4.756
X4.8896Y-4.8896
X4.8938Y-6.5474
X4.8938Y-6.681
X4.9114Y-2.0887
X4.9114Y-2.2776
X4.9114Y-5.5964
X4.9114Y-5.7853
X4.9173Y-2.5787
X4.9173Y-4.8228
X4.9606Y-6.5197
X4.9606Y-6.7087
X4.9782Y-2.1163
X4.9782Y-2.25
X4.9782Y-5.624
X4.9782Y-5.7577
X5.0059Y-2.1832
X5.0059Y-5.6909
X5.0274Y-6.5474
X5.0274Y-6.681
X5.0551Y-6.6142
X5.1024Y-1.1811
X5.13Y-1.1143
X5.13Y-1.2479
X5.1969Y-1.0866
X5.1969Y-1.2756
X5.2637Y-1.1143
X5.2637Y-1.2479
X5.2913Y-1.1811
X5.5964Y-2.9626
X5.5964Y-4.9114
X5.624Y-2.8958
X5.624Y-3.0295
X5.624Y-4.8446
X5.624Y-4.9782
X5.6909Y-2.8682
X5.6909Y-3.0571
X5.6909Y-4.8169
X5.6909Y-5.0059
X5.7577Y-2.8958
X5.7577Y-3.0295
X5.7577Y-4.8446
X5.7577Y-4.9782
X5.7853Y-2.9626
X5.7853Y-4.9114
X6.5197Y-2.9134
X6.5197Y-4.9606
X6.5474Y-2.8466
X6.5474Y-2.9802
X6.5474Y-4.8938
X6.5474Y-5.0274
X6.6142Y-2.8189
X6.6142Y-3.0079
X6.6142Y-4.8661
X6.6142Y-5.0551
X6.681Y-2.8466
X6.681Y-2.9802
X6.681Y-4.8938
X6.681Y-5.0274
X6.7087Y-2.9134
X6.7087Y-4.9606
T3
X3.3268Y-6.0685
X3.3268Y-6.2685
X5.0772Y-3.5433
X5.2772Y-3.5433
T4
X4.1654Y-1.6911
T5
X2.5984Y-3.6909
X2.5984Y-3.7894
X2.5984Y-3.8878
X2.5984Y-3.9862
X2.5984Y-4.0846
X2.5984Y-4.1831
X5.1772Y-3.7894
X5.1772Y-3.8878
X5.1772Y-3.9862
X5.1772Y-4.0846
T6
X2.5984Y-3.2087
X2.5984Y-3.3071
X2.5984Y-4.5669
X2.5984Y-4.6654
X2.8Y-3.5374
X2.8Y-3.6374
X2.8Y-3.7374
X2.8Y-3.8374
X2.8Y-3.9374
X2.8Y-4.0374
X2.8Y-4.1374
X2.8Y-4.2374
X2.8Y-4.3374
X3.587Y-5.1575
X3.587Y-5.2575
X3.587Y-5.3575
X3.587Y-5.4575
X3.587Y-5.5575
X3.587Y-5.6575
X3.587Y-5.7575
X3.587Y-5.8575
X3.587Y-5.9575
X3.587Y-6.0575
X3.587Y-6.1575
X3.587Y-6.2575
X3.587Y-6.3575
X3.587Y-6.4575
X3.587Y-6.5575
X3.587Y-6.6575
X3.587Y-6.7575
X3.587Y-6.8575
X3.587Y-6.9575
X3.587Y-7.0575
X4.287Y-5.1575
X4.287Y-5.2575
X4.287Y-5.3575
X4.287Y-5.4575
X4.287Y-5.5575
X4.287Y-5.6575
X4.287Y-5.7575
X4.287Y-5.8575
X4.287Y-5.9575
X4.287Y-6.0575
X4.287Y-6.1575
X4.287Y-6.2575
X4.287Y-6.3575
X4.287Y-6.4575
X4.287Y-6.5575
X4.287Y-6.6575
X4.287Y-6.7575
X4.287Y-6.8575
X4.287Y-6.9575
X4.287Y-7.0575
X5.1772Y-3.2087
X5.1772Y-3.3071
X5.1772Y-4.5669
X5.1772Y-4.6654
T7
X3.4254Y-1.7323
X3.4254Y-1.8323
X3.4254Y-2.1823
X3.4254Y-2.2823
X4.449Y-1.7323
X4.449Y-1.8323
X4.449Y-2.1823
X4.449Y-2.2823
T8
X1.2598Y-2.9134
X1.2598Y-4.9606
X2.1832Y-2.9626
X2.1832Y-4.9114
X2.6772Y-1.1811
X2.9134Y-6.6142
X2.9626Y-2.1832
X2.9626Y-5.6909
X3.0512Y-2.5787
X3.0512Y-4.8228
X4.8228Y-2.5787
X4.8228Y-4.8228
X4.9114Y-2.1832
X4.9114Y-5.6909
X4.9606Y-6.6142
X5.1969Y-1.1811
X5.6909Y-2.9626
X5.6909Y-4.9114
X6.6142Y-2.9134
X6.6142Y-4.9606
M30
