0
SECTION
2
HEADER
9
$INSUNITS
70
4
9
$ACADVER
1
AC1014
9
$HANDSEED
5
FFFF
0
ENDSEC
0
SECTION
2
TABLES
0
TABLE
2
VPORT
5
8
100
AcDbSymbolTable
0
ENDTAB
0
TABLE
2
LTYPE
5
5
100
AcDbSymbolTable
0
LTYPE
5
14
100
AcDbSymbolTableRecord
100
AcDbLinetypeTableRecord
2
BYBLOCK
70
0
0
LTYPE
5
15
100
AcDbSymbolTableRecord
100
AcDbLinetypeTableRecord
2
BYLAYER
70
0
0
ENDTAB
0
TABLE
2
LAYER
5
2
100
AcDbSymbolTable
70
2
0
LAYER
5
50
100
AcDbSymbolTableRecord
100
AcDbLayerTableRecord
2
0
70
0
6
CONTINUOUS
0
ENDTAB
0
TABLE
2
STYLE
5
3
100
AcDbSymbolTable
70
1
0
STYLE
5
11
100
AcDbSymbolTableRecord
100
AcDbTextStyleTableRecord
2
STANDARD
70
0
0
ENDTAB
0
TABLE
2
VIEW
5
6
100
AcDbSymbolTable
70
0
0
ENDTAB
0
TABLE
2
UCS
5
7
100
AcDbSymbolTable
70
0
0
ENDTAB
0
TABLE
2
APPID
5
9
100
AcDbSymbolTable
70
2
0
APPID
5
12
100
AcDbSymbolTableRecord
100
AcDbRegAppTableRecord
2
ACAD
70
0
0
ENDTAB
0
TABLE
2
DIMSTYLE
5
A
100
AcDbSymbolTable
70
1
0
ENDTAB
0
TABLE
2
BLOCK_RECORD
5
1
100
AcDbSymbolTable
70
1
0
BLOCK_RECORD
5
1F
100
AcDbSymbolTableRecord
100
AcDbBlockTableRecord
2
*MODEL_SPACE
0
BLOCK_RECORD
5
1B
100
AcDbSymbolTableRecord
100
AcDbBlockTableRecord
2
*PAPER_SPACE
0
ENDTAB
0
ENDSEC
0
SECTION
2
BLOCKS
0
BLOCK
5
20
100
AcDbEntity
100
AcDbBlockBegin
2
*MODEL_SPACE
0
ENDBLK
5
21
100
AcDbEntity
100
AcDbBlockEnd
0
BLOCK
5
1C
100
AcDbEntity
100
AcDbBlockBegin
2
*PAPER_SPACE
0
ENDBLK
5
1D
100
AcDbEntity
100
AcDbBlockEnd
0
ENDSEC
0
SECTION
2
ENTITIES
0
LWPOLYLINE
5
100
100
AcDbEntity
8
0
100
AcDbPolyline
90
48
70
1
43
0.0
10
-73.869047619047677
20
42.051917956912099
42
0.13010736454992272
10
-74.000000000000057
20
41.557189510360189
10
-74.000000000000057
20
-41.557189510360189
42
0.1301073645499197
10
-73.869047619047706
20
-42.051917956912106
42
0.00072012543972590885
10
-73.747610727704711
20
-42.264523089169387
42
0.49413911078178657
10
-72.17288499678007
20
-42.474400186953581
10
-67.175144212722046
20
-37.476659402890093
42
-0.41421356237325407
10
-61.518289963228128
20
-37.476659402888536
10
-37.47665940288848
20
-61.518289963228071
42
-0.41421356237325091
10
-37.476659402889979
20
-67.175144212721975
10
-42.474400186953467
20
-72.172884996780155
42
0.49413911078177647
10
-42.264523089169288
20
-73.747610727704782
42
0.2662372233221213
10
42.264523089162068
20
-73.747610727708917
42
0.494139110781597
10
42.47440018694688
20
-72.172884996784731
10
37.476659402885986
20
-67.175144212722003
42
-0.41421356237304052
10
37.476659402886519
20
-61.518289963230146
10
61.518289963230259
20
-37.476659402886511
42
-0.41421356237303797
10
67.175144212722088
20
-37.476659402885986
10
72.172884996784788
20
-42.474400186946795
42
0.49413911078157552
10
73.74761072770896
20
-42.26452308916204
42
0.00072012543967773038
10
73.869047619047635
20
-42.051917956912199
42
0.13010736454991301
10
74
20
-41.557189510360303
10
74
20
41.557189510360303
42
0.13010736454991212
10
73.869047619047606
20
42.051917956912206
42
0.00072012543969700174
10
73.747610727707766
20
42.264523089164058
42
0.49413911078164913
10
72.172884996783452
20
42.474400186948685
10
67.175144212722117
20
37.476659402887165
42
-0.41421356237309875
10
61.518289963229691
20
37.476659402887115
10
37.476659402887208
20
61.518289963229471
42
-0.41421356237311363
10
37.476659402887378
20
67.175144212722017
10
45.40023892065156
20
75.098723730485247
42
0.49031439482588801
10
45.201008641049896
20
76.667260403849923
42
0.030998619095077271
10
35.375244701217454
20
81.667570444632361
42
0.38096522076848355
10
31.584744511171362
20
80.414730991442539
10
26.726497308103649
20
71.999999999999972
42
-0.26794919243112142
10
18.066243270259285
20
67.000000000000014
10
-18.066243270259307
20
67.000000000000014
42
-0.26794919243112164
10
-26.726497308103674
20
71.999999999999972
10
-31.584744511171369
20
80.414730991442539
42
0.38096522076847528
10
-35.37524470121739
20
81.667570444632403
42
0.030998619095259958
10
-45.201008641105901
20
76.667260403816925
42
0.49031439482562272
10
-45.400238920707039
20
75.098723730452704
10
-37.476659402932029
20
67.175144212676642
42
-0.41421356237307499
10
-37.476659402932214
20
61.518289963184444
10
-61.518289963214912
20
37.476659402901731
42
-0.41421356237462109
10
-67.175144212722032
20
37.476659402916475
10
-72.172884996750184
20
42.474400186996697
42
0.49413911078303568
10
-73.747610727677795
20
42.264523089216382
42
0.00072012543986080865
0
LWPOLYLINE
5
101
100
AcDbEntity
8
0
100
AcDbPolyline
90
4
70
1
43
0.0
10
-33.017949192431161
20
-61.188765563018485
10
-36.48205080756891
20
-59.188765563018471
10
-34.48205080756891
20
-55.724663947880714
10
-31.017949192431157
20
-57.724663947880714
0
LWPOLYLINE
5
102
100
AcDbEntity
8
0
100
AcDbPolyline
90
4
70
1
43
0.0
10
-36.482050807568868
20
59.188765563018507
10
-33.017949192431118
20
61.188765563018499
10
-31.017949192431114
20
57.72466394788075
10
-34.482050807568868
20
55.724663947880757
0
LWPOLYLINE
5
103
100
AcDbEntity
8
0
100
AcDbPolyline
90
4
70
1
43
0.0
10
61.188765563018492
20
-33.017949192431139
10
59.188765563018499
20
-36.482050807568889
10
55.724663947880735
20
-34.482050807568889
10
57.724663947880728
20
-31.017949192431136
0
CIRCLE
5
104
100
AcDbEntity
8
0
100
AcDbCircle
10
44.54772714099547
20
-24.74873697274424
30
0
40
1.5500000000000025
210
0
220
-0
230
1
0
CIRCLE
5
105
100
AcDbEntity
8
0
100
AcDbCircle
10
22.499999999999993
20
-22.50000000000016
30
0
40
1.5500000000000025
210
0
220
-0
230
1
0
CIRCLE
5
106
100
AcDbEntity
8
0
100
AcDbCircle
10
-44.547727140995477
20
24.74873697274424
30
0
40
1.5499999999999934
210
0
220
-0
230
1
0
CIRCLE
5
107
100
AcDbEntity
8
0
100
AcDbCircle
10
-44.547727140995519
20
-24.748736972744211
30
0
40
1.5499999999999934
210
0
220
-0
230
1
0
CIRCLE
5
108
100
AcDbEntity
8
0
100
AcDbCircle
10
-24.748736972744219
20
44.547727140995534
30
0
40
1.5500000000000025
210
0
220
-0
230
1
0
CIRCLE
5
109
100
AcDbEntity
8
0
100
AcDbCircle
10
24.74873697274424
20
44.54772714099547
30
0
40
1.5500000000000025
210
0
220
-0
230
1
0
CIRCLE
5
110
100
AcDbEntity
8
0
100
AcDbCircle
10
44.547727140995534
20
24.748736972744201
30
0
40
1.5500000000000025
210
0
220
-0
230
1
0
LWPOLYLINE
5
111
100
AcDbEntity
8
0
100
AcDbPolyline
90
4
70
1
43
0.0
10
33.017949192431153
20
61.188765563018485
10
36.482050807568903
20
59.188765563018471
10
34.482050807568903
20
55.724663947880714
10
31.01794919243115
20
57.724663947880714
0
LWPOLYLINE
5
112
100
AcDbEntity
8
0
100
AcDbPolyline
90
4
70
1
43
0.0
10
-61.188765563018478
20
33.017949192431139
10
-59.188765563018478
20
36.482050807568896
10
-55.724663947880721
20
34.482050807568896
10
-57.724663947880714
20
31.017949192431139
0
LWPOLYLINE
5
113
100
AcDbEntity
8
0
100
AcDbPolyline
90
4
70
1
43
0.0
10
2.0000000000000009
20
-69.500000000000014
10
-2.0000000000000009
20
-69.500000000000014
10
-2.0000000000000009
20
-65.5
10
1.9999999999999996
20
-65.5
0
LWPOLYLINE
5
114
100
AcDbEntity
8
0
100
AcDbPolyline
90
4
70
1
43
0.0
10
-59.188765563018528
20
-36.482050807568839
10
-61.188765563018521
20
-33.017949192431082
10
-57.724663947880757
20
-31.017949192431082
10
-55.724663947880764
20
-34.482050807568839
0
LWPOLYLINE
5
115
100
AcDbEntity
8
0
100
AcDbPolyline
90
4
70
1
43
0.0
10
2.0000000000000093
20
62.500000000000007
10
2.0000000000000089
20
58.500000000000007
10
-1.9999999999999916
20
58.500000000000007
10
-1.999999999999992
20
62.500000000000007
0
CIRCLE
5
116
100
AcDbEntity
8
0
100
AcDbCircle
10
24.748736972744201
20
-44.547727140995534
30
0
40
1.5500000000000025
210
0
220
-0
230
1
0
CIRCLE
5
117
100
AcDbEntity
8
0
100
AcDbCircle
10
-32
20
70
30
0
40
1.549999999999998
210
0
220
-0
230
1
0
CIRCLE
5
118
100
AcDbEntity
8
0
100
AcDbCircle
10
22.500000000000103
20
34.499999999999929
30
0
40
1.549999999999998
210
0
220
-0
230
1
0
CIRCLE
5
119
100
AcDbEntity
8
0
100
AcDbCircle
10
-22.500000000000078
20
-22.500000000000078
30
0
40
1.549999999999998
210
0
220
-0
230
1
0
CIRCLE
5
120
100
AcDbEntity
8
0
100
AcDbCircle
10
-24.748736972744233
20
-44.54772714099547
30
0
40
1.549999999999998
210
0
220
-0
230
1
0
CIRCLE
5
121
100
AcDbEntity
8
0
100
AcDbCircle
10
-22.499999999999972
20
34.500000000000014
30
0
40
1.5500000000000025
210
0
220
-0
230
1
0
CIRCLE
5
122
100
AcDbEntity
8
0
100
AcDbCircle
10
32
20
70
30
0
40
1.5500000000000025
210
0
220
-0
230
1
0
LWPOLYLINE
5
123
100
AcDbEntity
8
0
100
AcDbPolyline
90
4
70
1
43
0.0
10
36.482050807568875
20
-59.188765563018499
10
33.017949192431125
20
-61.188765563018492
10
31.017949192431121
20
-57.724663947880742
10
34.482050807568875
20
-55.724663947880742
0
LWPOLYLINE
5
124
100
AcDbEntity
8
0
100
AcDbPolyline
90
4
70
1
43
0.0
10
59.188765563018507
20
36.482050807568868
10
61.188765563018499
20
33.017949192431118
10
57.72466394788075
20
31.017949192431114
10
55.724663947880757
20
34.482050807568868
0
LWPOLYLINE
5
125
100
AcDbEntity
8
0
100
AcDbPolyline
90
4
70
1
43
0.0
10
-69.500000000000014
20
-1.9999999999999851
10
-69.500000000000014
20
2.000000000000016
10
-65.5
20
2.0000000000000151
10
-65.5
20
-1.9999999999999851
0
LWPOLYLINE
5
126
100
AcDbEntity
8
0
100
AcDbPolyline
90
4
70
1
43
0.0
10
69.500000000000028
20
2.0000000000000169
10
69.500000000000028
20
-1.9999999999999858
10
65.500000000000028
20
-1.9999999999999867
10
65.500000000000028
20
2.0000000000000147
0
CIRCLE
5
127
100
AcDbEntity
8
0
100
AcDbCircle
10
-68.000000000000057
20
-26
30
0
40
1.6000000000000014
210
0
220
-0
230
1
0
CIRCLE
5
128
100
AcDbEntity
8
0
100
AcDbCircle
10
26.000000000000018
20
-68
30
0
40
1.6000000000000014
210
0
220
-0
230
1
0
CIRCLE
5
129
100
AcDbEntity
8
0
100
AcDbCircle
10
68
20
26
30
0
40
1.6000000000000014
210
0
220
-0
230
1
0
CIRCLE
5
130
100
AcDbEntity
8
0
100
AcDbCircle
10
68
20
-26
30
0
40
1.6000000000000014
210
0
220
-0
230
1
0
CIRCLE
5
131
100
AcDbEntity
8
0
100
AcDbCircle
10
-25.999999999999982
20
-67.999999999999986
30
0
40
1.6000000000000014
210
0
220
-0
230
1
0
CIRCLE
5
132
100
AcDbEntity
8
0
100
AcDbCircle
10
-68.000000000000085
20
26
30
0
40
1.6000000000000014
210
0
220
-0
230
1
0
ENDSEC
0
SECTION
2
OBJECTS
0
DICTIONARY
5
C
100
AcDbDictionary
3
ACAD_GROUP
350
D
3
ACAD_MLINESTYLE
350
17
0
DICTIONARY
5
D
100
AcDbDictionary
0
DICTIONARY
5
1A
330
C
100
AcDbDictionary
0
DICTIONARY
5
17
100
AcDbDictionary
0
ENDSEC
0
EOF
