M48
; DRILL file {KiCad 8.0.3} date 2024-06-18T01:51:01+0800
; FORMAT={-:-/ absolute / inch / decimal}
; #@! TF.CreationDate,2024-06-18T01:51:01+08:00
; #@! TF.GenerationSoftware,Kicad,Pcbnew,8.0.3
; #@! TF.FileFunction,Plated,1,2,PTH
FMAT,2
INCH
; #@! TA.AperFunction,Plated,PTH,ViaDrill
T1C0.0118
; #@! TA.AperFunction,Plated,PTH,ComponentDrill
T2C0.0197
; #@! TA.AperFunction,Plated,PTH,ComponentDrill
T3C0.0276
; #@! TA.AperFunction,Plated,PTH,ComponentDrill
T4C0.0300
; #@! TA.AperFunction,Plated,PTH,ComponentDrill
T5C0.0374
; #@! TA.AperFunction,Plated,PTH,ComponentDrill
T6C0.0394
; #@! TA.AperFunction,Plated,PTH,ComponentDrill
T7C0.0433
; #@! TA.AperFunction,Plated,PTH,ComponentDrill
T8C0.0512
; #@! TA.AperFunction,Plated,PTH,ComponentDrill
T9C0.1260
%
G90
G05
T1
X2.5Y-4.9606
X2.5Y-5.3248
X2.5295Y-4.9311
X2.5295Y-5.3543
X2.5591Y-4.9606
X2.5591Y-5.3248
X2.5886Y-4.9311
X2.5886Y-5.3543
X2.6181Y-4.9606
X2.6181Y-5.3248
X3.2126Y-3.5187
X3.248Y-3.2677
X3.2677Y-4.5276
X3.2874Y-4.5079
X3.2874Y-4.5472
X3.3821Y-3.4005
X3.4055Y-4.5079
X3.4055Y-4.5472
X3.4252Y-4.5276
X3.5187Y-4.5443
X3.878Y-4.9508
X3.878Y-5.3248
X3.9075Y-4.9213
X3.9075Y-5.3543
X3.937Y-4.9508
X3.937Y-5.3248
X3.9665Y-4.9213
X3.9665Y-5.3543
X3.9961Y-4.9508
X3.9961Y-5.3248
X4.1339Y-5.3248
X4.1339Y-5.6496
X4.185Y-4.6102
X4.3307Y-5.3575
X4.3553Y-3.2047
X4.4919Y-3.4005
X4.5433Y-4.3346
X4.5472Y-4.685
X4.626Y-3.2677
X4.6969Y-4.3543
X4.8Y-4.5146
X5.2Y-3.1594
X5.502Y-3.1594
X5.9646Y-3.1988
T2
X0.9953Y-2.7866
X1.0229Y-2.7198
X1.0229Y-2.8535
X1.0898Y-2.6922
X1.0898Y-2.8811
X1.1566Y-2.7198
X1.1566Y-2.8535
X1.1842Y-2.7866
X2.0709Y-2.1654
X2.0709Y-5.7087
X2.0985Y-2.0985
X2.0985Y-2.2322
X2.0985Y-5.6418
X2.0985Y-5.7755
X2.1654Y-2.0709
X2.1654Y-2.2598
X2.1654Y-5.6142
X2.1654Y-5.8031
X2.2322Y-2.0985
X2.2322Y-2.2322
X2.2322Y-5.6418
X2.2322Y-5.7755
X2.2598Y-2.1654
X2.2598Y-5.7087
X3.0551Y-3.1496
X3.0551Y-4.7244
X3.0828Y-3.0828
X3.0828Y-3.2164
X3.0828Y-4.6576
X3.0828Y-4.7912
X3.1496Y-3.0551
X3.1496Y-3.2441
X3.1496Y-4.6299
X3.1496Y-4.8189
X3.2164Y-3.0828
X3.2164Y-3.2164
X3.2164Y-4.6576
X3.2164Y-4.7912
X3.2441Y-3.1496
X3.2441Y-4.7244
X3.4488Y-3.937
X3.4765Y-3.8702
X3.4765Y-4.0038
X3.5433Y-3.8425
X3.5433Y-4.0315
X3.6101Y-3.8702
X3.6101Y-4.0038
X3.6378Y-3.937
X3.8425Y-7.0079
X3.8702Y-6.9411
X3.8702Y-7.0747
X3.937Y-6.9134
X3.937Y-7.1024
X4.0038Y-6.9411
X4.0038Y-7.0747
X4.0315Y-7.0079
X4.2362Y-3.937
X4.2362Y-4.7244
X4.2639Y-3.8702
X4.2639Y-4.0038
X4.2639Y-4.6576
X4.2639Y-4.7912
X4.3307Y-3.8425
X4.3307Y-4.0315
X4.3307Y-4.6299
X4.3307Y-4.8189
X4.3975Y-3.8702
X4.3975Y-4.0038
X4.3975Y-4.6576
X4.3975Y-4.7912
X4.4252Y-3.937
X4.4252Y-4.7244
X4.4928Y-2.5216
X4.5205Y-2.4548
X4.5205Y-2.5885
X4.5873Y-2.4272
X4.5873Y-2.6161
X4.6299Y-3.1496
X4.6541Y-2.4548
X4.6541Y-2.5885
X4.6576Y-3.0828
X4.6576Y-3.2164
X4.6818Y-2.5216
X4.7244Y-3.0551
X4.7244Y-3.2441
X4.7912Y-3.0828
X4.7912Y-3.2164
X4.8189Y-3.1496
X5.3085Y-2.5216
X5.3362Y-2.4548
X5.3362Y-2.5885
X5.403Y-2.4272
X5.403Y-2.6161
X5.4698Y-2.4548
X5.4698Y-2.5885
X5.4975Y-2.5216
X5.6142Y-2.1654
X5.6142Y-5.7087
X5.6418Y-2.0985
X5.6418Y-2.2322
X5.6418Y-5.6418
X5.6418Y-5.7755
X5.7087Y-2.0709
X5.7087Y-2.2598
X5.7087Y-5.6142
X5.7087Y-5.8031
X5.7755Y-2.0985
X5.7755Y-2.2322
X5.7755Y-5.6418
X5.7755Y-5.7755
X5.8031Y-2.1654
X5.8031Y-5.7087
X6.6898Y-2.7866
X6.7175Y-2.7198
X6.7175Y-2.8535
X6.7843Y-2.6922
X6.7843Y-2.8811
X6.8511Y-2.7198
X6.8511Y-2.8535
X6.8788Y-2.7866
T3
X4.1701Y-4.3701
X4.1701Y-4.4685
X4.3701Y-4.3701
X4.3701Y-4.4685
X5.1122Y-2.6937
X5.1122Y-2.8937
X5.2362Y-2.6937
X5.2362Y-2.8937
T4
X4.7Y-4.7575
X4.7Y-4.8575
X4.7Y-4.9575
X4.7Y-5.0575
X4.7Y-5.1575
X4.7Y-5.2575
X4.7Y-5.3575
X4.7Y-5.4575
X4.7Y-5.5575
X4.8Y-4.7575
X4.9Y-4.7575
X5.0Y-4.7575
X5.1Y-4.7575
X5.2Y-4.7575
X5.3Y-4.7575
X5.3Y-4.8575
X5.3Y-4.9575
X5.3Y-5.0575
X5.3Y-5.1575
X5.3Y-5.2575
X5.3Y-5.3575
X5.3Y-5.4575
X5.3Y-5.5575
T5
X2.5984Y-3.0413
X2.6969Y-3.0413
X2.7953Y-3.0413
X2.8937Y-3.0413
X5.1378Y-3.0512
X5.2362Y-3.0512
X5.3346Y-3.0512
X5.4331Y-3.0512
T6
X1.3501Y-2.9453
X1.387Y-2.854
X2.2343Y-2.687
X2.2343Y-3.0413
X2.3327Y-2.687
X2.3327Y-3.0413
X2.9035Y-5.7293
X3.002Y-5.7293
X4.5472Y-4.812
X4.5472Y-4.912
X5.4921Y-4.7874
X5.4921Y-4.8898
X5.5921Y-4.7874
X5.5921Y-4.8898
X5.6921Y-4.7874
X5.6921Y-4.8898
X5.7921Y-4.7874
X5.7921Y-4.8898
T7
X2.1457Y-5.0787
X2.1457Y-5.3346
X2.3228Y-5.0787
X2.3228Y-5.3346
X5.5512Y-5.0787
X5.5512Y-5.3346
X5.7283Y-5.0787
X5.7283Y-5.3346
T8
X3.3013Y-5.659
X3.3013Y-5.9779
X3.8722Y-5.659
X3.8722Y-5.9783
T9
X1.0898Y-2.7866
X2.1654Y-2.1654
X2.1654Y-5.7087
X3.1496Y-3.1496
X3.1496Y-4.7244
X3.5433Y-3.937
X3.937Y-7.0079
X4.3307Y-3.937
X4.3307Y-4.7244
X4.5873Y-2.5216
X4.7244Y-3.1496
X5.403Y-2.5216
X5.7087Y-2.1654
X5.7087Y-5.7087
X6.7843Y-2.7866
M30
