%TF.GenerationSoftware,KiCad,Pcbnew,8.0.3*%
%TF.CreationDate,2024-06-18T01:51:01+08:00*%
%TF.ProjectId,imu-rounded,696d752d-726f-4756-9e64-65642e6b6963,rev?*%
%TF.SameCoordinates,Original*%
%TF.FileFunction,Soldermask,Bot*%
%TF.FilePolarity,Negative*%
%FSLAX46Y46*%
G04 Gerber Fmt 4.6, Leading zero omitted, Abs format (unit mm)*
G04 Created by KiCad (PCBNEW 8.0.3) date 2024-06-18 01:51:01*
%MOMM*%
%LPD*%
G01*
G04 APERTURE LIST*
G04 Aperture macros list*
%AMRoundRect*
0 Rectangle with rounded corners*
0 $1 Rounding radius*
0 $2 $3 $4 $5 $6 $7 $8 $9 X,Y pos of 4 corners*
0 Add a 4 corners polygon primitive as box body*
4,1,4,$2,$3,$4,$5,$6,$7,$8,$9,$2,$3,0*
0 Add four circle primitives for the rounded corners*
1,1,$1+$1,$2,$3*
1,1,$1+$1,$4,$5*
1,1,$1+$1,$6,$7*
1,1,$1+$1,$8,$9*
0 Add four rect primitives between the rounded corners*
20,1,$1+$1,$2,$3,$4,$5,0*
20,1,$1+$1,$4,$5,$6,$7,0*
20,1,$1+$1,$6,$7,$8,$9,0*
20,1,$1+$1,$8,$9,$2,$3,0*%
%AMHorizOval*
0 Thick line with rounded ends*
0 $1 width*
0 $2 $3 position (X,Y) of the first rounded end (center of the circle)*
0 $4 $5 position (X,Y) of the second rounded end (center of the circle)*
0 Add line between two ends*
20,1,$1,$2,$3,$4,$5,0*
0 Add two circle primitives to create the rounded ends*
1,1,$1,$2,$3*
1,1,$1,$4,$5*%
G04 Aperture macros list end*
%ADD10C,0.000000*%
%ADD11C,0.800000*%
%ADD12C,6.400000*%
%ADD13RoundRect,0.250000X0.600000X0.750000X-0.600000X0.750000X-0.600000X-0.750000X0.600000X-0.750000X0*%
%ADD14O,1.700000X2.000000*%
%ADD15R,2.000000X2.000000*%
%ADD16C,2.000000*%
%ADD17R,1.700000X1.700000*%
%ADD18O,1.700000X1.700000*%
%ADD19RoundRect,0.250000X0.470624X-0.837265X0.920152X0.275355X-0.470624X0.837265X-0.920152X-0.275355X0*%
%ADD20HorizOval,1.700000X-0.139078X0.056191X0.139078X-0.056191X0*%
%ADD21C,1.400000*%
%ADD22O,1.400000X1.400000*%
%ADD23RoundRect,0.250000X-0.600000X-0.725000X0.600000X-0.725000X0.600000X0.725000X-0.600000X0.725000X0*%
%ADD24O,1.700000X1.950000*%
%ADD25RoundRect,0.250000X-0.600000X-0.750000X0.600000X-0.750000X0.600000X0.750000X-0.600000X0.750000X0*%
%ADD26C,1.524000*%
%ADD27RoundRect,0.190500X0.571500X0.571500X-0.571500X0.571500X-0.571500X-0.571500X0.571500X-0.571500X0*%
G04 APERTURE END LIST*
D10*
%TO.C,G\u002A\u002A\u002A*%
G36*
X108213174Y-87562076D02*
G01*
X108213174Y-91034930D01*
X107427345Y-91034930D01*
X106641517Y-91034930D01*
X106641517Y-87562076D01*
X106641517Y-84089222D01*
X107427345Y-84089222D01*
X108213174Y-84089222D01*
X108213174Y-87562076D01*
G37*
G36*
X97143769Y-87422655D02*
G01*
X97215865Y-87574577D01*
X97394392Y-87950196D01*
X97535628Y-88246096D01*
X97643959Y-88471173D01*
X97723774Y-88634321D01*
X97779460Y-88744435D01*
X97815405Y-88810412D01*
X97835996Y-88841146D01*
X97845622Y-88845533D01*
X97853364Y-88831384D01*
X97897398Y-88740848D01*
X97974450Y-88578219D01*
X98078297Y-88356742D01*
X98202715Y-88089660D01*
X98341481Y-87790220D01*
X98821942Y-86750898D01*
X99689814Y-86737027D01*
X99921664Y-86734557D01*
X100175326Y-86735106D01*
X100376816Y-86739291D01*
X100509734Y-86746732D01*
X100557685Y-86757052D01*
X100552191Y-86773030D01*
X100506254Y-86871856D01*
X100413646Y-87059538D01*
X100274301Y-87336210D01*
X100088153Y-87702001D01*
X99855135Y-88157043D01*
X99575179Y-88701467D01*
X99248220Y-89335403D01*
X98874189Y-90058982D01*
X98369241Y-91034930D01*
X97848171Y-91034930D01*
X97327101Y-91034930D01*
X97173668Y-90743413D01*
X97159269Y-90716021D01*
X97069835Y-90545129D01*
X96950664Y-90316607D01*
X96815580Y-90056990D01*
X96678410Y-89792815D01*
X96536257Y-89518742D01*
X96302008Y-89067210D01*
X96106390Y-88690334D01*
X95944176Y-88378078D01*
X95810137Y-88120404D01*
X95699045Y-87907276D01*
X95605670Y-87728656D01*
X95524785Y-87574508D01*
X95451161Y-87434794D01*
X95379569Y-87299478D01*
X95305243Y-87156694D01*
X95216294Y-86977703D01*
X95155469Y-86844937D01*
X95132934Y-86779818D01*
X95133623Y-86776722D01*
X95194409Y-86754258D01*
X95354043Y-86738275D01*
X95613308Y-86728722D01*
X95972990Y-86725549D01*
X96813045Y-86725549D01*
X97143769Y-87422655D01*
G37*
G36*
X87760741Y-86596460D02*
G01*
X88176149Y-86678809D01*
X88544467Y-86819320D01*
X88846697Y-87016487D01*
X88940806Y-87106039D01*
X89136537Y-87370513D01*
X89269818Y-87673397D01*
X89337599Y-87993980D01*
X89336829Y-88311550D01*
X89264460Y-88605396D01*
X89117439Y-88854808D01*
X89060512Y-88916657D01*
X88910087Y-89037240D01*
X88711126Y-89142929D01*
X88446180Y-89242080D01*
X88097797Y-89343047D01*
X87888526Y-89403038D01*
X87637042Y-89497197D01*
X87482039Y-89592867D01*
X87420542Y-89693281D01*
X87449576Y-89801675D01*
X87566168Y-89921284D01*
X87640705Y-89967134D01*
X87851154Y-90019039D01*
X88114747Y-90006845D01*
X88415501Y-89932248D01*
X88737431Y-89796945D01*
X88797387Y-89766986D01*
X88959506Y-89689252D01*
X89075476Y-89638591D01*
X89123356Y-89624790D01*
X89164612Y-89687099D01*
X89237799Y-89821335D01*
X89325247Y-89997147D01*
X89416946Y-90192528D01*
X89502883Y-90385473D01*
X89573047Y-90553975D01*
X89617426Y-90676029D01*
X89626008Y-90729629D01*
X89567665Y-90767564D01*
X89428542Y-90835297D01*
X89241837Y-90914862D01*
X89034814Y-90995287D01*
X88834734Y-91065601D01*
X88668862Y-91114830D01*
X88432226Y-91155477D01*
X88116194Y-91177902D01*
X87778817Y-91177582D01*
X87460182Y-91154667D01*
X87200375Y-91109310D01*
X86977116Y-91040658D01*
X86596842Y-90860135D01*
X86297546Y-90621619D01*
X86081254Y-90327500D01*
X85949993Y-89980169D01*
X85905788Y-89582018D01*
X85930278Y-89283663D01*
X86026716Y-88983386D01*
X86199995Y-88736175D01*
X86275143Y-88664021D01*
X86430153Y-88552081D01*
X86629375Y-88452827D01*
X86891578Y-88357588D01*
X87235529Y-88257690D01*
X87756287Y-88117718D01*
X87756287Y-87942791D01*
X87719568Y-87789887D01*
X87605415Y-87686217D01*
X87419978Y-87642827D01*
X87169514Y-87661115D01*
X86860281Y-87742479D01*
X86706395Y-87787705D01*
X86577621Y-87811972D01*
X86514942Y-87805853D01*
X86496141Y-87777610D01*
X86435017Y-87672539D01*
X86346264Y-87512590D01*
X86241928Y-87319236D01*
X86004479Y-86873602D01*
X86170603Y-86804221D01*
X86421981Y-86713454D01*
X86864657Y-86612275D01*
X87317244Y-86573780D01*
X87760741Y-86596460D01*
G37*
G36*
X94898633Y-88389443D02*
G01*
X94903841Y-88595866D01*
X94904790Y-88880240D01*
X94904750Y-88973950D01*
X94902999Y-89232185D01*
X94895965Y-89419629D01*
X94880002Y-89559883D01*
X94851465Y-89676548D01*
X94806708Y-89793225D01*
X94742084Y-89933517D01*
X94705406Y-90007026D01*
X94454383Y-90379996D01*
X94128237Y-90694663D01*
X93739944Y-90940455D01*
X93302480Y-91106795D01*
X93220540Y-91125744D01*
X92943642Y-91163471D01*
X92617586Y-91180717D01*
X92279082Y-91177430D01*
X91964837Y-91153559D01*
X91711559Y-91109052D01*
X91697248Y-91105284D01*
X91273564Y-90949779D01*
X90922440Y-90725617D01*
X90637286Y-90427428D01*
X90411510Y-90049844D01*
X90265909Y-89742116D01*
X91005427Y-89728061D01*
X91744946Y-89714006D01*
X91918912Y-89866749D01*
X92063133Y-89976779D01*
X92215447Y-90044038D01*
X92399980Y-90069418D01*
X92649856Y-90061757D01*
X92666506Y-90060443D01*
X92939226Y-89998245D01*
X93147091Y-89861412D01*
X93294319Y-89645846D01*
X93385128Y-89347450D01*
X93420466Y-89159082D01*
X91810288Y-89159082D01*
X90200109Y-89159082D01*
X90230013Y-88735345D01*
X90250925Y-88533367D01*
X90324642Y-88203306D01*
X91685429Y-88203306D01*
X91710146Y-88213733D01*
X91820071Y-88226771D01*
X92002732Y-88237158D01*
X92241392Y-88244025D01*
X92519319Y-88246507D01*
X93353208Y-88246507D01*
X93302547Y-88101181D01*
X93280306Y-88045455D01*
X93127927Y-87827715D01*
X92892432Y-87658425D01*
X92885321Y-87654845D01*
X92691338Y-87602204D01*
X92458021Y-87598323D01*
X92229746Y-87639786D01*
X92050892Y-87723179D01*
X92019246Y-87748621D01*
X91908436Y-87859770D01*
X91800203Y-87993174D01*
X91718038Y-88117972D01*
X91685429Y-88203306D01*
X90324642Y-88203306D01*
X90355706Y-88064222D01*
X90531590Y-87645550D01*
X90772806Y-87289179D01*
X91073579Y-87006937D01*
X91251801Y-86892086D01*
X91643807Y-86718978D01*
X92082252Y-86610410D01*
X92543930Y-86569371D01*
X93005635Y-86598845D01*
X93444162Y-86701821D01*
X93542600Y-86736456D01*
X93942520Y-86921154D01*
X94266237Y-87157322D01*
X94529358Y-87458572D01*
X94747491Y-87838517D01*
X94764407Y-87874343D01*
X94822053Y-88003418D01*
X94861279Y-88116664D01*
X94885625Y-88237523D01*
X94886394Y-88246507D01*
X94898633Y-88389443D01*
G37*
G36*
X105823187Y-88762319D02*
G01*
X105808499Y-89182742D01*
X105727060Y-89570525D01*
X105536826Y-90005951D01*
X105265638Y-90385083D01*
X104920309Y-90699548D01*
X104506667Y-90944048D01*
X104030539Y-91113284D01*
X103981905Y-91124470D01*
X103740873Y-91158650D01*
X103444699Y-91177483D01*
X103129341Y-91180397D01*
X102830758Y-91166823D01*
X102584911Y-91136191D01*
X102264264Y-91044432D01*
X101911484Y-90886975D01*
X101580936Y-90687373D01*
X101312202Y-90466456D01*
X101291396Y-90445257D01*
X101061831Y-90158840D01*
X100867609Y-89821482D01*
X100826790Y-89735291D01*
X100759503Y-89581261D01*
X100717737Y-89449706D01*
X100695511Y-89309660D01*
X100686841Y-89130160D01*
X100685745Y-88880240D01*
X100685755Y-88876986D01*
X102332136Y-88876986D01*
X102337175Y-88992225D01*
X102363093Y-89172383D01*
X102403658Y-89301021D01*
X102408972Y-89310972D01*
X102543634Y-89494736D01*
X102722686Y-89658227D01*
X102905796Y-89764240D01*
X102971986Y-89786629D01*
X103254757Y-89825986D01*
X103521674Y-89781261D01*
X103760554Y-89665494D01*
X103959213Y-89491728D01*
X104105467Y-89273002D01*
X104187132Y-89022360D01*
X104192024Y-88752841D01*
X104107960Y-88477487D01*
X104016143Y-88315846D01*
X103834180Y-88119039D01*
X103601064Y-88001392D01*
X103301004Y-87952636D01*
X103151603Y-87947522D01*
X103003804Y-87957977D01*
X102885373Y-87997003D01*
X102755071Y-88073750D01*
X102708841Y-88105660D01*
X102496772Y-88313109D01*
X102372598Y-88567569D01*
X102332136Y-88876986D01*
X100685755Y-88876986D01*
X100685905Y-88830170D01*
X100689624Y-88590216D01*
X100702011Y-88416064D01*
X100728476Y-88277362D01*
X100774426Y-88143758D01*
X100845268Y-87984899D01*
X101070099Y-87599303D01*
X101386857Y-87243177D01*
X101778312Y-86955226D01*
X102245340Y-86734669D01*
X102310576Y-86710919D01*
X102464971Y-86661056D01*
X102610585Y-86628728D01*
X102774949Y-86610345D01*
X102985597Y-86602317D01*
X103270060Y-86601054D01*
X103398330Y-86601691D01*
X103647166Y-86606559D01*
X103832589Y-86619119D01*
X103981418Y-86643072D01*
X104120473Y-86682118D01*
X104276574Y-86739961D01*
X104397053Y-86790539D01*
X104825025Y-87026164D01*
X105189178Y-87319470D01*
X105478126Y-87659940D01*
X105680485Y-88037055D01*
X105772320Y-88348693D01*
X105822021Y-88752841D01*
X105823187Y-88762319D01*
G37*
G36*
X114286293Y-89066563D02*
G01*
X114243612Y-89450476D01*
X114118883Y-89893561D01*
X113915404Y-90272909D01*
X113632603Y-90589293D01*
X113269908Y-90843486D01*
X112826747Y-91036260D01*
X112523595Y-91110014D01*
X112124607Y-91134683D01*
X111736344Y-91084265D01*
X111389204Y-90960365D01*
X111256181Y-90887939D01*
X111109739Y-90795462D01*
X111019744Y-90722780D01*
X110944412Y-90652124D01*
X110887454Y-90643917D01*
X110858674Y-90722871D01*
X110851726Y-90895509D01*
X110878907Y-91196365D01*
X110973932Y-91479110D01*
X111140429Y-91695637D01*
X111381836Y-91852155D01*
X111577281Y-91918054D01*
X111843356Y-91943107D01*
X112094960Y-91901431D01*
X112307953Y-91797847D01*
X112458197Y-91637177D01*
X112544417Y-91491218D01*
X113395362Y-91491218D01*
X113653107Y-91491058D01*
X113914325Y-91493990D01*
X114092449Y-91507035D01*
X114197904Y-91537306D01*
X114241119Y-91591912D01*
X114232520Y-91677965D01*
X114182533Y-91802575D01*
X114101587Y-91972855D01*
X114039647Y-92090223D01*
X113795086Y-92417861D01*
X113473667Y-92700913D01*
X113090635Y-92927592D01*
X112661238Y-93086115D01*
X112517325Y-93114898D01*
X112255393Y-93143123D01*
X111949567Y-93157587D01*
X111632698Y-93157729D01*
X111337638Y-93142988D01*
X111097239Y-93112803D01*
X111037655Y-93100588D01*
X110663620Y-92981424D01*
X110304619Y-92799644D01*
X109982233Y-92570217D01*
X109718044Y-92308112D01*
X109533634Y-92028297D01*
X109496918Y-91946917D01*
X109456512Y-91835847D01*
X109423038Y-91708501D01*
X109395864Y-91555422D01*
X109374355Y-91367154D01*
X109357880Y-91134239D01*
X109345804Y-90847220D01*
X109337494Y-90496640D01*
X109332319Y-90073042D01*
X109329644Y-89566968D01*
X109328837Y-88968962D01*
X109328821Y-88850624D01*
X110824152Y-88850624D01*
X110825645Y-88961039D01*
X110842052Y-89132775D01*
X110885491Y-89267366D01*
X110966926Y-89407583D01*
X111108657Y-89574285D01*
X111321816Y-89719633D01*
X111398344Y-89750739D01*
X111689088Y-89809721D01*
X111974946Y-89784739D01*
X112236081Y-89682671D01*
X112452660Y-89510393D01*
X112604847Y-89274782D01*
X112638684Y-89173300D01*
X112671172Y-88925486D01*
X112653184Y-88669052D01*
X112585849Y-88452906D01*
X112559383Y-88407364D01*
X112443798Y-88258831D01*
X112305200Y-88125648D01*
X112280615Y-88106371D01*
X112146349Y-88021125D01*
X112000435Y-87975442D01*
X111798214Y-87954222D01*
X111661174Y-87951929D01*
X111400632Y-87994512D01*
X111181924Y-88113087D01*
X110977518Y-88319923D01*
X110904800Y-88417235D01*
X110852598Y-88524526D01*
X110829414Y-88656190D01*
X110824152Y-88850624D01*
X109328821Y-88850624D01*
X109328543Y-86725549D01*
X110089022Y-86725549D01*
X110849501Y-86725549D01*
X110849501Y-86930733D01*
X110849501Y-87135916D01*
X111043764Y-86979802D01*
X111166926Y-86891167D01*
X111510128Y-86725552D01*
X111890627Y-86637702D01*
X112289324Y-86627031D01*
X112687120Y-86692953D01*
X113064915Y-86834881D01*
X113403611Y-87052230D01*
X113421583Y-87066983D01*
X113749411Y-87388778D01*
X113994567Y-87750527D01*
X114173696Y-88176532D01*
X114192662Y-88235540D01*
X114252666Y-88445219D01*
X114284585Y-88624465D01*
X114293950Y-88817005D01*
X114290622Y-88925486D01*
X114286293Y-89066563D01*
G37*
%TD*%
D11*
%TO.C,H12*%
X107600000Y-120000000D03*
X108302944Y-118302944D03*
X108302944Y-121697056D03*
X110000000Y-117600000D03*
D12*
X110000000Y-120000000D03*
D11*
X110000000Y-122400000D03*
X111697056Y-118302944D03*
X111697056Y-121697056D03*
X112400000Y-120000000D03*
%TD*%
D13*
%TO.C,J2*%
X76250000Y-145525000D03*
D14*
X73750000Y-145525000D03*
%TD*%
D15*
%TO.C,U1*%
X83853000Y-151837800D03*
D16*
X83853000Y-143737800D03*
X98353000Y-143737800D03*
D15*
X98353000Y-151850000D03*
%TD*%
D17*
%TO.C,J9*%
X115500000Y-122225000D03*
D18*
X115500000Y-124765000D03*
%TD*%
D11*
%TO.C,H13*%
X77600000Y-120000000D03*
X78302944Y-118302944D03*
X78302944Y-121697056D03*
X80000000Y-117600000D03*
D12*
X80000000Y-120000000D03*
D11*
X80000000Y-122400000D03*
X81697056Y-118302944D03*
X81697056Y-121697056D03*
X82400000Y-120000000D03*
%TD*%
%TO.C,H5*%
X25279659Y-70780686D03*
X25982603Y-69083630D03*
X25982603Y-72477742D03*
X27679659Y-68380686D03*
D12*
X27679659Y-70780686D03*
D11*
X27679659Y-73180686D03*
X29376715Y-69083630D03*
X29376715Y-72477742D03*
X30079659Y-70780686D03*
%TD*%
D17*
%TO.C,J7*%
X139500000Y-121600000D03*
D18*
X142040000Y-121600000D03*
X144580000Y-121600000D03*
X147120000Y-121600000D03*
%TD*%
D19*
%TO.C,J6*%
X34293291Y-74809698D03*
D20*
X35229807Y-72491739D03*
%TD*%
D21*
%TO.C,R4*%
X129850000Y-73500000D03*
D22*
X129850000Y-68420000D03*
%TD*%
D21*
%TO.C,R1*%
X111000000Y-113500000D03*
D22*
X105920000Y-113500000D03*
%TD*%
D23*
%TO.C,J5*%
X66000000Y-77250000D03*
D24*
X68500000Y-77250000D03*
X71000000Y-77250000D03*
X73500000Y-77250000D03*
%TD*%
D11*
%TO.C,H7*%
X97600000Y-178000000D03*
X98302944Y-176302944D03*
X98302944Y-179697056D03*
X100000000Y-175600000D03*
D12*
X100000000Y-178000000D03*
D11*
X100000000Y-180400000D03*
X101697056Y-176302944D03*
X101697056Y-179697056D03*
X102400000Y-178000000D03*
%TD*%
D25*
%TO.C,J1*%
X56750000Y-77250000D03*
D14*
X59250000Y-77250000D03*
%TD*%
D11*
%TO.C,H4*%
X142600000Y-145000000D03*
X143302944Y-143302944D03*
X143302944Y-146697056D03*
X145000000Y-142600000D03*
D12*
X145000000Y-145000000D03*
D11*
X145000000Y-147400000D03*
X146697056Y-143302944D03*
X146697056Y-146697056D03*
X147400000Y-145000000D03*
%TD*%
%TO.C,H6*%
X169920341Y-70780686D03*
X170623285Y-69083630D03*
X170623285Y-72477742D03*
X172320341Y-68380686D03*
D12*
X172320341Y-70780686D03*
D11*
X172320341Y-73180686D03*
X174017397Y-69083630D03*
X174017397Y-72477742D03*
X174720341Y-70780686D03*
%TD*%
D17*
%TO.C,J8*%
X147120000Y-124200000D03*
D18*
X144580000Y-124200000D03*
X142040000Y-124200000D03*
X139500000Y-124200000D03*
%TD*%
D16*
%TO.C,SW1*%
X54500000Y-135500000D03*
X54500000Y-129000000D03*
X59000000Y-135500000D03*
X59000000Y-129000000D03*
%TD*%
D11*
%TO.C,H2*%
X142600000Y-55000000D03*
X143302944Y-53302944D03*
X143302944Y-56697056D03*
X145000000Y-52600000D03*
D12*
X145000000Y-55000000D03*
D11*
X145000000Y-57400000D03*
X146697056Y-53302944D03*
X146697056Y-56697056D03*
X147400000Y-55000000D03*
%TD*%
%TO.C,H15*%
X117600000Y-80000000D03*
X118302944Y-78302944D03*
X118302944Y-81697056D03*
X120000000Y-77600000D03*
D12*
X120000000Y-80000000D03*
D11*
X120000000Y-82400000D03*
X121697056Y-78302944D03*
X121697056Y-81697056D03*
X122400000Y-80000000D03*
%TD*%
%TO.C,H10*%
X114116715Y-64049803D03*
X114819659Y-62352747D03*
X114819659Y-65746859D03*
X116516715Y-61649803D03*
D12*
X116516715Y-64049803D03*
D11*
X116516715Y-66449803D03*
X118213771Y-62352747D03*
X118213771Y-65746859D03*
X118916715Y-64049803D03*
%TD*%
D21*
%TO.C,R3*%
X133000000Y-73500000D03*
D22*
X133000000Y-68420000D03*
%TD*%
D11*
%TO.C,H3*%
X52600000Y-145000000D03*
X53302944Y-143302944D03*
X53302944Y-146697056D03*
X55000000Y-142600000D03*
D12*
X55000000Y-145000000D03*
D11*
X55000000Y-147400000D03*
X56697056Y-143302944D03*
X56697056Y-146697056D03*
X57400000Y-145000000D03*
%TD*%
%TO.C,H8*%
X87600000Y-100000000D03*
X88302944Y-98302944D03*
X88302944Y-101697056D03*
X90000000Y-97600000D03*
D12*
X90000000Y-100000000D03*
D11*
X90000000Y-102400000D03*
X91697056Y-98302944D03*
X91697056Y-101697056D03*
X92400000Y-100000000D03*
%TD*%
D26*
%TO.C,U2*%
X119380000Y-141160000D03*
X119380000Y-138620000D03*
X119380000Y-136080000D03*
X119380000Y-133540000D03*
X119380000Y-131000000D03*
X119380000Y-128460000D03*
X119380000Y-125920000D03*
X119380000Y-123380000D03*
X119380000Y-120840000D03*
X121920000Y-120840000D03*
X124460000Y-120840000D03*
X127000000Y-120840000D03*
X129540000Y-120840000D03*
X132080000Y-120840000D03*
X134620000Y-120840000D03*
X134620000Y-123380000D03*
X134620000Y-125920000D03*
X134620000Y-128460000D03*
X134620000Y-131000000D03*
X134620000Y-133540000D03*
X134620000Y-136080000D03*
D27*
X134620000Y-138620000D03*
D26*
X134620000Y-141160000D03*
%TD*%
D11*
%TO.C,H11*%
X134836715Y-64049803D03*
X135539659Y-62352747D03*
X135539659Y-65746859D03*
X137236715Y-61649803D03*
D12*
X137236715Y-64049803D03*
D11*
X137236715Y-66449803D03*
X138933771Y-62352747D03*
X138933771Y-65746859D03*
X139636715Y-64049803D03*
%TD*%
%TO.C,H1*%
X52600000Y-55000000D03*
X53302944Y-53302944D03*
X53302944Y-56697056D03*
X55000000Y-52600000D03*
D12*
X55000000Y-55000000D03*
D11*
X55000000Y-57400000D03*
X56697056Y-53302944D03*
X56697056Y-56697056D03*
X57400000Y-55000000D03*
%TD*%
%TO.C,H14*%
X77600000Y-80000000D03*
X78302944Y-78302944D03*
X78302944Y-81697056D03*
X80000000Y-77600000D03*
D12*
X80000000Y-80000000D03*
D11*
X80000000Y-82400000D03*
X81697056Y-78302944D03*
X81697056Y-81697056D03*
X82400000Y-80000000D03*
%TD*%
D21*
%TO.C,R2*%
X111000000Y-111000000D03*
D22*
X105920000Y-111000000D03*
%TD*%
D23*
%TO.C,J4*%
X130500000Y-77500000D03*
D24*
X133000000Y-77500000D03*
X135500000Y-77500000D03*
X138000000Y-77500000D03*
%TD*%
D11*
%TO.C,H9*%
X107600000Y-100000000D03*
X108302944Y-98302944D03*
X108302944Y-101697056D03*
X110000000Y-97600000D03*
D12*
X110000000Y-100000000D03*
D11*
X110000000Y-102400000D03*
X111697056Y-98302944D03*
X111697056Y-101697056D03*
X112400000Y-100000000D03*
%TD*%
D16*
%TO.C,SW2*%
X145500000Y-129000000D03*
X145500000Y-135500000D03*
X141000000Y-129000000D03*
X141000000Y-135500000D03*
%TD*%
D25*
%TO.C,J3*%
X56750000Y-68250000D03*
D14*
X59250000Y-68250000D03*
%TD*%
M02*
