%TF.GenerationSoftware,KiCad,Pcbnew,8.0.3*%
%TF.CreationDate,2024-06-18T01:56:10+08:00*%
%TF.ProjectId,imu-rounded,696d752d-726f-4756-9e64-65642e6b6963,rev?*%
%TF.SameCoordinates,Original*%
%TF.FileFunction,Other,Comment*%
%FSLAX46Y46*%
G04 Gerber Fmt 4.6, Leading zero omitted, Abs format (unit mm)*
G04 Created by KiCad (PCBNEW 8.0.3) date 2024-06-18 01:56:10*
%MOMM*%
%LPD*%
G01*
G04 APERTURE LIST*
%ADD10C,0.150000*%
G04 APERTURE END LIST*
D10*
%TO.C,H12*%
X113200000Y-120000000D02*
G75*
G02*
X106800000Y-120000000I-3200000J0D01*
G01*
X106800000Y-120000000D02*
G75*
G02*
X113200000Y-120000000I3200000J0D01*
G01*
%TO.C,H13*%
X83200000Y-120000000D02*
G75*
G02*
X76800000Y-120000000I-3200000J0D01*
G01*
X76800000Y-120000000D02*
G75*
G02*
X83200000Y-120000000I3200000J0D01*
G01*
%TO.C,H5*%
X30879659Y-70780686D02*
G75*
G02*
X24479659Y-70780686I-3200000J0D01*
G01*
X24479659Y-70780686D02*
G75*
G02*
X30879659Y-70780686I3200000J0D01*
G01*
%TO.C,H7*%
X103200000Y-178000000D02*
G75*
G02*
X96800000Y-178000000I-3200000J0D01*
G01*
X96800000Y-178000000D02*
G75*
G02*
X103200000Y-178000000I3200000J0D01*
G01*
%TO.C,H4*%
X148200000Y-145000000D02*
G75*
G02*
X141800000Y-145000000I-3200000J0D01*
G01*
X141800000Y-145000000D02*
G75*
G02*
X148200000Y-145000000I3200000J0D01*
G01*
%TO.C,H6*%
X175520341Y-70780686D02*
G75*
G02*
X169120341Y-70780686I-3200000J0D01*
G01*
X169120341Y-70780686D02*
G75*
G02*
X175520341Y-70780686I3200000J0D01*
G01*
%TO.C,H2*%
X148200000Y-55000000D02*
G75*
G02*
X141800000Y-55000000I-3200000J0D01*
G01*
X141800000Y-55000000D02*
G75*
G02*
X148200000Y-55000000I3200000J0D01*
G01*
%TO.C,H15*%
X123200000Y-80000000D02*
G75*
G02*
X116800000Y-80000000I-3200000J0D01*
G01*
X116800000Y-80000000D02*
G75*
G02*
X123200000Y-80000000I3200000J0D01*
G01*
%TO.C,H10*%
X119716715Y-64049803D02*
G75*
G02*
X113316715Y-64049803I-3200000J0D01*
G01*
X113316715Y-64049803D02*
G75*
G02*
X119716715Y-64049803I3200000J0D01*
G01*
%TO.C,H3*%
X58200000Y-145000000D02*
G75*
G02*
X51800000Y-145000000I-3200000J0D01*
G01*
X51800000Y-145000000D02*
G75*
G02*
X58200000Y-145000000I3200000J0D01*
G01*
%TO.C,H8*%
X93200000Y-100000000D02*
G75*
G02*
X86800000Y-100000000I-3200000J0D01*
G01*
X86800000Y-100000000D02*
G75*
G02*
X93200000Y-100000000I3200000J0D01*
G01*
%TO.C,H11*%
X140436715Y-64049803D02*
G75*
G02*
X134036715Y-64049803I-3200000J0D01*
G01*
X134036715Y-64049803D02*
G75*
G02*
X140436715Y-64049803I3200000J0D01*
G01*
%TO.C,H1*%
X58200000Y-55000000D02*
G75*
G02*
X51800000Y-55000000I-3200000J0D01*
G01*
X51800000Y-55000000D02*
G75*
G02*
X58200000Y-55000000I3200000J0D01*
G01*
%TO.C,H14*%
X83200000Y-80000000D02*
G75*
G02*
X76800000Y-80000000I-3200000J0D01*
G01*
X76800000Y-80000000D02*
G75*
G02*
X83200000Y-80000000I3200000J0D01*
G01*
%TO.C,H9*%
X113200000Y-100000000D02*
G75*
G02*
X106800000Y-100000000I-3200000J0D01*
G01*
X106800000Y-100000000D02*
G75*
G02*
X113200000Y-100000000I3200000J0D01*
G01*
%TD*%
M02*
