%TF.GenerationSoftware,KiCad,Pcbnew,8.0.3*%
%TF.CreationDate,2024-06-18T01:56:10+08:00*%
%TF.ProjectId,imu-rounded,696d752d-726f-4756-9e64-65642e6b6963,rev?*%
%TF.SameCoordinates,Original*%
%TF.FileFunction,Legend,Bot*%
%TF.FilePolarity,Positive*%
%FSLAX46Y46*%
G04 Gerber Fmt 4.6, Leading zero omitted, Abs format (unit mm)*
G04 Created by KiCad (PCBNEW 8.0.3) date 2024-06-18 01:56:10*
%MOMM*%
%LPD*%
G01*
G04 APERTURE LIST*
G04 Aperture macros list*
%AMRoundRect*
0 Rectangle with rounded corners*
0 $1 Rounding radius*
0 $2 $3 $4 $5 $6 $7 $8 $9 X,Y pos of 4 corners*
0 Add a 4 corners polygon primitive as box body*
4,1,4,$2,$3,$4,$5,$6,$7,$8,$9,$2,$3,0*
0 Add four circle primitives for the rounded corners*
1,1,$1+$1,$2,$3*
1,1,$1+$1,$4,$5*
1,1,$1+$1,$6,$7*
1,1,$1+$1,$8,$9*
0 Add four rect primitives between the rounded corners*
20,1,$1+$1,$2,$3,$4,$5,0*
20,1,$1+$1,$4,$5,$6,$7,0*
20,1,$1+$1,$6,$7,$8,$9,0*
20,1,$1+$1,$8,$9,$2,$3,0*%
%AMHorizOval*
0 Thick line with rounded ends*
0 $1 width*
0 $2 $3 position (X,Y) of the first rounded end (center of the circle)*
0 $4 $5 position (X,Y) of the second rounded end (center of the circle)*
0 Add line between two ends*
20,1,$1,$2,$3,$4,$5,0*
0 Add two circle primitives to create the rounded ends*
1,1,$1,$2,$3*
1,1,$1,$4,$5*%
G04 Aperture macros list end*
%ADD10C,0.100000*%
%ADD11C,0.150000*%
%ADD12C,0.200000*%
%ADD13C,0.120000*%
%ADD14C,0.000000*%
%ADD15C,0.800000*%
%ADD16C,6.400000*%
%ADD17RoundRect,0.250000X0.600000X0.750000X-0.600000X0.750000X-0.600000X-0.750000X0.600000X-0.750000X0*%
%ADD18O,1.700000X2.000000*%
%ADD19R,2.000000X2.000000*%
%ADD20C,2.000000*%
%ADD21R,1.700000X1.700000*%
%ADD22O,1.700000X1.700000*%
%ADD23RoundRect,0.250000X0.470624X-0.837265X0.920152X0.275355X-0.470624X0.837265X-0.920152X-0.275355X0*%
%ADD24HorizOval,1.700000X-0.139078X0.056191X0.139078X-0.056191X0*%
%ADD25C,1.400000*%
%ADD26O,1.400000X1.400000*%
%ADD27RoundRect,0.250000X-0.600000X-0.725000X0.600000X-0.725000X0.600000X0.725000X-0.600000X0.725000X0*%
%ADD28O,1.700000X1.950000*%
%ADD29RoundRect,0.250000X-0.600000X-0.750000X0.600000X-0.750000X0.600000X0.750000X-0.600000X0.750000X0*%
%ADD30C,1.524000*%
%ADD31RoundRect,0.190500X0.571500X0.571500X-0.571500X0.571500X-0.571500X-0.571500X0.571500X-0.571500X0*%
G04 APERTURE END LIST*
D10*
X73939663Y-80000000D02*
X75250000Y-80000000D01*
X139500000Y-127750000D02*
X147000000Y-127750000D01*
X147000000Y-136750000D01*
X139500000Y-136750000D01*
X139500000Y-127750000D01*
X75250000Y-80000000D02*
X75250000Y-75750000D01*
X55250000Y-66750000D02*
X60750000Y-66750000D01*
X60750000Y-79000000D01*
X55250000Y-79000000D01*
X55250000Y-66750000D01*
X64250000Y-80000000D02*
X65560337Y-80000000D01*
X139750000Y-75750000D02*
X128750000Y-75750000D01*
X139750000Y-80000000D02*
X139750000Y-75750000D01*
X128500000Y-67000000D02*
X134250000Y-67000000D01*
X134250000Y-75000000D01*
X128500000Y-75000000D01*
X128500000Y-67000000D01*
X75250000Y-75750000D02*
X64250000Y-75750000D01*
X128750000Y-75750000D02*
X128750000Y-80000000D01*
X72500000Y-144250000D02*
X77750000Y-144250000D01*
X77750000Y-149250000D01*
X72500000Y-149250000D01*
X72500000Y-144250000D01*
X128750000Y-80000000D02*
X132130009Y-80000000D01*
X104750000Y-109750000D02*
X112250000Y-109750000D01*
X112250000Y-114500000D01*
X104750000Y-114500000D01*
X104750000Y-109750000D01*
X64250000Y-75750000D02*
X64250000Y-80000000D01*
X136369991Y-80000000D02*
X139750000Y-80000000D01*
X52750000Y-127500000D02*
X60500000Y-127500000D01*
X60500000Y-136750000D01*
X52750000Y-136750000D01*
X52750000Y-127500000D01*
D11*
X147498935Y-126170485D02*
X147460839Y-126132390D01*
X147460839Y-126132390D02*
X147384649Y-126094295D01*
X147384649Y-126094295D02*
X147194173Y-126094295D01*
X147194173Y-126094295D02*
X147117982Y-126132390D01*
X147117982Y-126132390D02*
X147079887Y-126170485D01*
X147079887Y-126170485D02*
X147041792Y-126246676D01*
X147041792Y-126246676D02*
X147041792Y-126322866D01*
X147041792Y-126322866D02*
X147079887Y-126437152D01*
X147079887Y-126437152D02*
X147537030Y-126894295D01*
X147537030Y-126894295D02*
X147041792Y-126894295D01*
X146356077Y-126094295D02*
X146508458Y-126094295D01*
X146508458Y-126094295D02*
X146584649Y-126132390D01*
X146584649Y-126132390D02*
X146622744Y-126170485D01*
X146622744Y-126170485D02*
X146698934Y-126284771D01*
X146698934Y-126284771D02*
X146737030Y-126437152D01*
X146737030Y-126437152D02*
X146737030Y-126741914D01*
X146737030Y-126741914D02*
X146698934Y-126818104D01*
X146698934Y-126818104D02*
X146660839Y-126856200D01*
X146660839Y-126856200D02*
X146584649Y-126894295D01*
X146584649Y-126894295D02*
X146432268Y-126894295D01*
X146432268Y-126894295D02*
X146356077Y-126856200D01*
X146356077Y-126856200D02*
X146317982Y-126818104D01*
X146317982Y-126818104D02*
X146279887Y-126741914D01*
X146279887Y-126741914D02*
X146279887Y-126551438D01*
X146279887Y-126551438D02*
X146317982Y-126475247D01*
X146317982Y-126475247D02*
X146356077Y-126437152D01*
X146356077Y-126437152D02*
X146432268Y-126399057D01*
X146432268Y-126399057D02*
X146584649Y-126399057D01*
X146584649Y-126399057D02*
X146660839Y-126437152D01*
X146660839Y-126437152D02*
X146698934Y-126475247D01*
X146698934Y-126475247D02*
X146737030Y-126551438D01*
X145365601Y-126170485D02*
X145327505Y-126132390D01*
X145327505Y-126132390D02*
X145251315Y-126094295D01*
X145251315Y-126094295D02*
X145060839Y-126094295D01*
X145060839Y-126094295D02*
X144984648Y-126132390D01*
X144984648Y-126132390D02*
X144946553Y-126170485D01*
X144946553Y-126170485D02*
X144908458Y-126246676D01*
X144908458Y-126246676D02*
X144908458Y-126322866D01*
X144908458Y-126322866D02*
X144946553Y-126437152D01*
X144946553Y-126437152D02*
X145403696Y-126894295D01*
X145403696Y-126894295D02*
X144908458Y-126894295D01*
X144641791Y-126094295D02*
X144108457Y-126094295D01*
X144108457Y-126094295D02*
X144451315Y-126894295D01*
X143232267Y-126170485D02*
X143194171Y-126132390D01*
X143194171Y-126132390D02*
X143117981Y-126094295D01*
X143117981Y-126094295D02*
X142927505Y-126094295D01*
X142927505Y-126094295D02*
X142851314Y-126132390D01*
X142851314Y-126132390D02*
X142813219Y-126170485D01*
X142813219Y-126170485D02*
X142775124Y-126246676D01*
X142775124Y-126246676D02*
X142775124Y-126322866D01*
X142775124Y-126322866D02*
X142813219Y-126437152D01*
X142813219Y-126437152D02*
X143270362Y-126894295D01*
X143270362Y-126894295D02*
X142775124Y-126894295D01*
X142317981Y-126437152D02*
X142394171Y-126399057D01*
X142394171Y-126399057D02*
X142432266Y-126360961D01*
X142432266Y-126360961D02*
X142470362Y-126284771D01*
X142470362Y-126284771D02*
X142470362Y-126246676D01*
X142470362Y-126246676D02*
X142432266Y-126170485D01*
X142432266Y-126170485D02*
X142394171Y-126132390D01*
X142394171Y-126132390D02*
X142317981Y-126094295D01*
X142317981Y-126094295D02*
X142165600Y-126094295D01*
X142165600Y-126094295D02*
X142089409Y-126132390D01*
X142089409Y-126132390D02*
X142051314Y-126170485D01*
X142051314Y-126170485D02*
X142013219Y-126246676D01*
X142013219Y-126246676D02*
X142013219Y-126284771D01*
X142013219Y-126284771D02*
X142051314Y-126360961D01*
X142051314Y-126360961D02*
X142089409Y-126399057D01*
X142089409Y-126399057D02*
X142165600Y-126437152D01*
X142165600Y-126437152D02*
X142317981Y-126437152D01*
X142317981Y-126437152D02*
X142394171Y-126475247D01*
X142394171Y-126475247D02*
X142432266Y-126513342D01*
X142432266Y-126513342D02*
X142470362Y-126589533D01*
X142470362Y-126589533D02*
X142470362Y-126741914D01*
X142470362Y-126741914D02*
X142432266Y-126818104D01*
X142432266Y-126818104D02*
X142394171Y-126856200D01*
X142394171Y-126856200D02*
X142317981Y-126894295D01*
X142317981Y-126894295D02*
X142165600Y-126894295D01*
X142165600Y-126894295D02*
X142089409Y-126856200D01*
X142089409Y-126856200D02*
X142051314Y-126818104D01*
X142051314Y-126818104D02*
X142013219Y-126741914D01*
X142013219Y-126741914D02*
X142013219Y-126589533D01*
X142013219Y-126589533D02*
X142051314Y-126513342D01*
X142051314Y-126513342D02*
X142089409Y-126475247D01*
X142089409Y-126475247D02*
X142165600Y-126437152D01*
X141098933Y-126170485D02*
X141060837Y-126132390D01*
X141060837Y-126132390D02*
X140984647Y-126094295D01*
X140984647Y-126094295D02*
X140794171Y-126094295D01*
X140794171Y-126094295D02*
X140717980Y-126132390D01*
X140717980Y-126132390D02*
X140679885Y-126170485D01*
X140679885Y-126170485D02*
X140641790Y-126246676D01*
X140641790Y-126246676D02*
X140641790Y-126322866D01*
X140641790Y-126322866D02*
X140679885Y-126437152D01*
X140679885Y-126437152D02*
X141137028Y-126894295D01*
X141137028Y-126894295D02*
X140641790Y-126894295D01*
X140260837Y-126894295D02*
X140108456Y-126894295D01*
X140108456Y-126894295D02*
X140032266Y-126856200D01*
X140032266Y-126856200D02*
X139994170Y-126818104D01*
X139994170Y-126818104D02*
X139917980Y-126703819D01*
X139917980Y-126703819D02*
X139879885Y-126551438D01*
X139879885Y-126551438D02*
X139879885Y-126246676D01*
X139879885Y-126246676D02*
X139917980Y-126170485D01*
X139917980Y-126170485D02*
X139956075Y-126132390D01*
X139956075Y-126132390D02*
X140032266Y-126094295D01*
X140032266Y-126094295D02*
X140184647Y-126094295D01*
X140184647Y-126094295D02*
X140260837Y-126132390D01*
X140260837Y-126132390D02*
X140298932Y-126170485D01*
X140298932Y-126170485D02*
X140337028Y-126246676D01*
X140337028Y-126246676D02*
X140337028Y-126437152D01*
X140337028Y-126437152D02*
X140298932Y-126513342D01*
X140298932Y-126513342D02*
X140260837Y-126551438D01*
X140260837Y-126551438D02*
X140184647Y-126589533D01*
X140184647Y-126589533D02*
X140032266Y-126589533D01*
X140032266Y-126589533D02*
X139956075Y-126551438D01*
X139956075Y-126551438D02*
X139917980Y-126513342D01*
X139917980Y-126513342D02*
X139879885Y-126437152D01*
X146791792Y-119894295D02*
X147248935Y-119894295D01*
X147020363Y-119894295D02*
X147020363Y-119094295D01*
X147020363Y-119094295D02*
X147096554Y-119208580D01*
X147096554Y-119208580D02*
X147172744Y-119284771D01*
X147172744Y-119284771D02*
X147248935Y-119322866D01*
X146525125Y-119094295D02*
X146029887Y-119094295D01*
X146029887Y-119094295D02*
X146296553Y-119399057D01*
X146296553Y-119399057D02*
X146182268Y-119399057D01*
X146182268Y-119399057D02*
X146106077Y-119437152D01*
X146106077Y-119437152D02*
X146067982Y-119475247D01*
X146067982Y-119475247D02*
X146029887Y-119551438D01*
X146029887Y-119551438D02*
X146029887Y-119741914D01*
X146029887Y-119741914D02*
X146067982Y-119818104D01*
X146067982Y-119818104D02*
X146106077Y-119856200D01*
X146106077Y-119856200D02*
X146182268Y-119894295D01*
X146182268Y-119894295D02*
X146410839Y-119894295D01*
X146410839Y-119894295D02*
X146487030Y-119856200D01*
X146487030Y-119856200D02*
X146525125Y-119818104D01*
X144658458Y-119894295D02*
X145115601Y-119894295D01*
X144887029Y-119894295D02*
X144887029Y-119094295D01*
X144887029Y-119094295D02*
X144963220Y-119208580D01*
X144963220Y-119208580D02*
X145039410Y-119284771D01*
X145039410Y-119284771D02*
X145115601Y-119322866D01*
X144353696Y-119170485D02*
X144315600Y-119132390D01*
X144315600Y-119132390D02*
X144239410Y-119094295D01*
X144239410Y-119094295D02*
X144048934Y-119094295D01*
X144048934Y-119094295D02*
X143972743Y-119132390D01*
X143972743Y-119132390D02*
X143934648Y-119170485D01*
X143934648Y-119170485D02*
X143896553Y-119246676D01*
X143896553Y-119246676D02*
X143896553Y-119322866D01*
X143896553Y-119322866D02*
X143934648Y-119437152D01*
X143934648Y-119437152D02*
X144391791Y-119894295D01*
X144391791Y-119894295D02*
X143896553Y-119894295D01*
X142525124Y-119894295D02*
X142982267Y-119894295D01*
X142753695Y-119894295D02*
X142753695Y-119094295D01*
X142753695Y-119094295D02*
X142829886Y-119208580D01*
X142829886Y-119208580D02*
X142906076Y-119284771D01*
X142906076Y-119284771D02*
X142982267Y-119322866D01*
X141763219Y-119894295D02*
X142220362Y-119894295D01*
X141991790Y-119894295D02*
X141991790Y-119094295D01*
X141991790Y-119094295D02*
X142067981Y-119208580D01*
X142067981Y-119208580D02*
X142144171Y-119284771D01*
X142144171Y-119284771D02*
X142220362Y-119322866D01*
X140391790Y-119894295D02*
X140848933Y-119894295D01*
X140620361Y-119894295D02*
X140620361Y-119094295D01*
X140620361Y-119094295D02*
X140696552Y-119208580D01*
X140696552Y-119208580D02*
X140772742Y-119284771D01*
X140772742Y-119284771D02*
X140848933Y-119322866D01*
X139896551Y-119094295D02*
X139820361Y-119094295D01*
X139820361Y-119094295D02*
X139744170Y-119132390D01*
X139744170Y-119132390D02*
X139706075Y-119170485D01*
X139706075Y-119170485D02*
X139667980Y-119246676D01*
X139667980Y-119246676D02*
X139629885Y-119399057D01*
X139629885Y-119399057D02*
X139629885Y-119589533D01*
X139629885Y-119589533D02*
X139667980Y-119741914D01*
X139667980Y-119741914D02*
X139706075Y-119818104D01*
X139706075Y-119818104D02*
X139744170Y-119856200D01*
X139744170Y-119856200D02*
X139820361Y-119894295D01*
X139820361Y-119894295D02*
X139896551Y-119894295D01*
X139896551Y-119894295D02*
X139972742Y-119856200D01*
X139972742Y-119856200D02*
X140010837Y-119818104D01*
X140010837Y-119818104D02*
X140048932Y-119741914D01*
X140048932Y-119741914D02*
X140087028Y-119589533D01*
X140087028Y-119589533D02*
X140087028Y-119399057D01*
X140087028Y-119399057D02*
X140048932Y-119246676D01*
X140048932Y-119246676D02*
X140010837Y-119170485D01*
X140010837Y-119170485D02*
X139972742Y-119132390D01*
X139972742Y-119132390D02*
X139896551Y-119094295D01*
X92957047Y-147907380D02*
X93004666Y-147955000D01*
X93004666Y-147955000D02*
X93147523Y-148002619D01*
X93147523Y-148002619D02*
X93242761Y-148002619D01*
X93242761Y-148002619D02*
X93385618Y-147955000D01*
X93385618Y-147955000D02*
X93480856Y-147859761D01*
X93480856Y-147859761D02*
X93528475Y-147764523D01*
X93528475Y-147764523D02*
X93576094Y-147574047D01*
X93576094Y-147574047D02*
X93576094Y-147431190D01*
X93576094Y-147431190D02*
X93528475Y-147240714D01*
X93528475Y-147240714D02*
X93480856Y-147145476D01*
X93480856Y-147145476D02*
X93385618Y-147050238D01*
X93385618Y-147050238D02*
X93242761Y-147002619D01*
X93242761Y-147002619D02*
X93147523Y-147002619D01*
X93147523Y-147002619D02*
X93004666Y-147050238D01*
X93004666Y-147050238D02*
X92957047Y-147097857D01*
X92528475Y-148002619D02*
X92528475Y-147002619D01*
X92528475Y-147002619D02*
X91957047Y-148002619D01*
X91957047Y-148002619D02*
X91957047Y-147002619D01*
X91576094Y-147002619D02*
X90957047Y-147002619D01*
X90957047Y-147002619D02*
X91290380Y-147383571D01*
X91290380Y-147383571D02*
X91147523Y-147383571D01*
X91147523Y-147383571D02*
X91052285Y-147431190D01*
X91052285Y-147431190D02*
X91004666Y-147478809D01*
X91004666Y-147478809D02*
X90957047Y-147574047D01*
X90957047Y-147574047D02*
X90957047Y-147812142D01*
X90957047Y-147812142D02*
X91004666Y-147907380D01*
X91004666Y-147907380D02*
X91052285Y-147955000D01*
X91052285Y-147955000D02*
X91147523Y-148002619D01*
X91147523Y-148002619D02*
X91433237Y-148002619D01*
X91433237Y-148002619D02*
X91528475Y-147955000D01*
X91528475Y-147955000D02*
X91576094Y-147907380D01*
X90480856Y-148002619D02*
X90290380Y-148002619D01*
X90290380Y-148002619D02*
X90195142Y-147955000D01*
X90195142Y-147955000D02*
X90147523Y-147907380D01*
X90147523Y-147907380D02*
X90052285Y-147764523D01*
X90052285Y-147764523D02*
X90004666Y-147574047D01*
X90004666Y-147574047D02*
X90004666Y-147193095D01*
X90004666Y-147193095D02*
X90052285Y-147097857D01*
X90052285Y-147097857D02*
X90099904Y-147050238D01*
X90099904Y-147050238D02*
X90195142Y-147002619D01*
X90195142Y-147002619D02*
X90385618Y-147002619D01*
X90385618Y-147002619D02*
X90480856Y-147050238D01*
X90480856Y-147050238D02*
X90528475Y-147097857D01*
X90528475Y-147097857D02*
X90576094Y-147193095D01*
X90576094Y-147193095D02*
X90576094Y-147431190D01*
X90576094Y-147431190D02*
X90528475Y-147526428D01*
X90528475Y-147526428D02*
X90480856Y-147574047D01*
X90480856Y-147574047D02*
X90385618Y-147621666D01*
X90385618Y-147621666D02*
X90195142Y-147621666D01*
X90195142Y-147621666D02*
X90099904Y-147574047D01*
X90099904Y-147574047D02*
X90052285Y-147526428D01*
X90052285Y-147526428D02*
X90004666Y-147431190D01*
X89385618Y-147002619D02*
X89290380Y-147002619D01*
X89290380Y-147002619D02*
X89195142Y-147050238D01*
X89195142Y-147050238D02*
X89147523Y-147097857D01*
X89147523Y-147097857D02*
X89099904Y-147193095D01*
X89099904Y-147193095D02*
X89052285Y-147383571D01*
X89052285Y-147383571D02*
X89052285Y-147621666D01*
X89052285Y-147621666D02*
X89099904Y-147812142D01*
X89099904Y-147812142D02*
X89147523Y-147907380D01*
X89147523Y-147907380D02*
X89195142Y-147955000D01*
X89195142Y-147955000D02*
X89290380Y-148002619D01*
X89290380Y-148002619D02*
X89385618Y-148002619D01*
X89385618Y-148002619D02*
X89480856Y-147955000D01*
X89480856Y-147955000D02*
X89528475Y-147907380D01*
X89528475Y-147907380D02*
X89576094Y-147812142D01*
X89576094Y-147812142D02*
X89623713Y-147621666D01*
X89623713Y-147621666D02*
X89623713Y-147383571D01*
X89623713Y-147383571D02*
X89576094Y-147193095D01*
X89576094Y-147193095D02*
X89528475Y-147097857D01*
X89528475Y-147097857D02*
X89480856Y-147050238D01*
X89480856Y-147050238D02*
X89385618Y-147002619D01*
X88718951Y-147002619D02*
X88099904Y-147002619D01*
X88099904Y-147002619D02*
X88433237Y-147383571D01*
X88433237Y-147383571D02*
X88290380Y-147383571D01*
X88290380Y-147383571D02*
X88195142Y-147431190D01*
X88195142Y-147431190D02*
X88147523Y-147478809D01*
X88147523Y-147478809D02*
X88099904Y-147574047D01*
X88099904Y-147574047D02*
X88099904Y-147812142D01*
X88099904Y-147812142D02*
X88147523Y-147907380D01*
X88147523Y-147907380D02*
X88195142Y-147955000D01*
X88195142Y-147955000D02*
X88290380Y-148002619D01*
X88290380Y-148002619D02*
X88576094Y-148002619D01*
X88576094Y-148002619D02*
X88671332Y-147955000D01*
X88671332Y-147955000D02*
X88718951Y-147907380D01*
X113686627Y-123871494D02*
X113767439Y-123898431D01*
X113767439Y-123898431D02*
X113848251Y-123979243D01*
X113848251Y-123979243D02*
X113902126Y-124086993D01*
X113902126Y-124086993D02*
X113902126Y-124194742D01*
X113902126Y-124194742D02*
X113875189Y-124275555D01*
X113875189Y-124275555D02*
X113794376Y-124410242D01*
X113794376Y-124410242D02*
X113713564Y-124491054D01*
X113713564Y-124491054D02*
X113578877Y-124571866D01*
X113578877Y-124571866D02*
X113498065Y-124598803D01*
X113498065Y-124598803D02*
X113390315Y-124598803D01*
X113390315Y-124598803D02*
X113282566Y-124544929D01*
X113282566Y-124544929D02*
X113228691Y-124491054D01*
X113228691Y-124491054D02*
X113174816Y-124383304D01*
X113174816Y-124383304D02*
X113174816Y-124329429D01*
X113174816Y-124329429D02*
X113363378Y-124140868D01*
X113363378Y-124140868D02*
X113471128Y-124248617D01*
X112878505Y-124140868D02*
X113444190Y-123575182D01*
X113444190Y-123575182D02*
X113228691Y-123359683D01*
X113228691Y-123359683D02*
X113147879Y-123332746D01*
X113147879Y-123332746D02*
X113094004Y-123332746D01*
X113094004Y-123332746D02*
X113013192Y-123359683D01*
X113013192Y-123359683D02*
X112932380Y-123440495D01*
X112932380Y-123440495D02*
X112905442Y-123521307D01*
X112905442Y-123521307D02*
X112905442Y-123575182D01*
X112905442Y-123575182D02*
X112932380Y-123655994D01*
X112932380Y-123655994D02*
X113147879Y-123871494D01*
X112932380Y-123063372D02*
X112555256Y-122686248D01*
X112555256Y-122686248D02*
X112232007Y-123494370D01*
X138751001Y-131390868D02*
X138831814Y-131417805D01*
X138831814Y-131417805D02*
X138912626Y-131498618D01*
X138912626Y-131498618D02*
X138966501Y-131606367D01*
X138966501Y-131606367D02*
X138966501Y-131714117D01*
X138966501Y-131714117D02*
X138939563Y-131794929D01*
X138939563Y-131794929D02*
X138858751Y-131929616D01*
X138858751Y-131929616D02*
X138777939Y-132010428D01*
X138777939Y-132010428D02*
X138643252Y-132091241D01*
X138643252Y-132091241D02*
X138562439Y-132118178D01*
X138562439Y-132118178D02*
X138454690Y-132118178D01*
X138454690Y-132118178D02*
X138346940Y-132064303D01*
X138346940Y-132064303D02*
X138293065Y-132010428D01*
X138293065Y-132010428D02*
X138239191Y-131902679D01*
X138239191Y-131902679D02*
X138239191Y-131848804D01*
X138239191Y-131848804D02*
X138427752Y-131660242D01*
X138427752Y-131660242D02*
X138535502Y-131767992D01*
X137942879Y-131660242D02*
X138508565Y-131094557D01*
X138508565Y-131094557D02*
X138293065Y-130879057D01*
X138293065Y-130879057D02*
X138212253Y-130852120D01*
X138212253Y-130852120D02*
X138158378Y-130852120D01*
X138158378Y-130852120D02*
X138077566Y-130879057D01*
X138077566Y-130879057D02*
X137996754Y-130959870D01*
X137996754Y-130959870D02*
X137969817Y-131040682D01*
X137969817Y-131040682D02*
X137969817Y-131094557D01*
X137969817Y-131094557D02*
X137996754Y-131175369D01*
X137996754Y-131175369D02*
X138212253Y-131390868D01*
X137915942Y-130609683D02*
X137915942Y-130555809D01*
X137915942Y-130555809D02*
X137889004Y-130474996D01*
X137889004Y-130474996D02*
X137754317Y-130340309D01*
X137754317Y-130340309D02*
X137673505Y-130313372D01*
X137673505Y-130313372D02*
X137619630Y-130313372D01*
X137619630Y-130313372D02*
X137538818Y-130340309D01*
X137538818Y-130340309D02*
X137484943Y-130394184D01*
X137484943Y-130394184D02*
X137431069Y-130501934D01*
X137431069Y-130501934D02*
X137431069Y-131148431D01*
X137431069Y-131148431D02*
X137080882Y-130798245D01*
X137080882Y-130151747D02*
X137161694Y-130178685D01*
X137161694Y-130178685D02*
X137215569Y-130178685D01*
X137215569Y-130178685D02*
X137296381Y-130151747D01*
X137296381Y-130151747D02*
X137323319Y-130124810D01*
X137323319Y-130124810D02*
X137350256Y-130043998D01*
X137350256Y-130043998D02*
X137350256Y-129990123D01*
X137350256Y-129990123D02*
X137323319Y-129909311D01*
X137323319Y-129909311D02*
X137215569Y-129801561D01*
X137215569Y-129801561D02*
X137134757Y-129774624D01*
X137134757Y-129774624D02*
X137080882Y-129774624D01*
X137080882Y-129774624D02*
X137000070Y-129801561D01*
X137000070Y-129801561D02*
X136973133Y-129828499D01*
X136973133Y-129828499D02*
X136946195Y-129909311D01*
X136946195Y-129909311D02*
X136946195Y-129963186D01*
X136946195Y-129963186D02*
X136973133Y-130043998D01*
X136973133Y-130043998D02*
X137080882Y-130151747D01*
X137080882Y-130151747D02*
X137107820Y-130232560D01*
X137107820Y-130232560D02*
X137107820Y-130286434D01*
X137107820Y-130286434D02*
X137080882Y-130367247D01*
X137080882Y-130367247D02*
X136973133Y-130474996D01*
X136973133Y-130474996D02*
X136892320Y-130501934D01*
X136892320Y-130501934D02*
X136838446Y-130501934D01*
X136838446Y-130501934D02*
X136757633Y-130474996D01*
X136757633Y-130474996D02*
X136649884Y-130367247D01*
X136649884Y-130367247D02*
X136622946Y-130286434D01*
X136622946Y-130286434D02*
X136622946Y-130232560D01*
X136622946Y-130232560D02*
X136649884Y-130151747D01*
X136649884Y-130151747D02*
X136757633Y-130043998D01*
X136757633Y-130043998D02*
X136838446Y-130017060D01*
X136838446Y-130017060D02*
X136892320Y-130017060D01*
X136892320Y-130017060D02*
X136973133Y-130043998D01*
X138456001Y-123140868D02*
X138536814Y-123167805D01*
X138536814Y-123167805D02*
X138617626Y-123248618D01*
X138617626Y-123248618D02*
X138671501Y-123356367D01*
X138671501Y-123356367D02*
X138671501Y-123464117D01*
X138671501Y-123464117D02*
X138644563Y-123544929D01*
X138644563Y-123544929D02*
X138563751Y-123679616D01*
X138563751Y-123679616D02*
X138482939Y-123760428D01*
X138482939Y-123760428D02*
X138348252Y-123841241D01*
X138348252Y-123841241D02*
X138267439Y-123868178D01*
X138267439Y-123868178D02*
X138159690Y-123868178D01*
X138159690Y-123868178D02*
X138051940Y-123814303D01*
X138051940Y-123814303D02*
X137998065Y-123760428D01*
X137998065Y-123760428D02*
X137944191Y-123652679D01*
X137944191Y-123652679D02*
X137944191Y-123598804D01*
X137944191Y-123598804D02*
X138132752Y-123410242D01*
X138132752Y-123410242D02*
X138240502Y-123517992D01*
X137647879Y-123410242D02*
X138213565Y-122844557D01*
X138213565Y-122844557D02*
X137998065Y-122629057D01*
X137998065Y-122629057D02*
X137917253Y-122602120D01*
X137917253Y-122602120D02*
X137863378Y-122602120D01*
X137863378Y-122602120D02*
X137782566Y-122629057D01*
X137782566Y-122629057D02*
X137701754Y-122709870D01*
X137701754Y-122709870D02*
X137674817Y-122790682D01*
X137674817Y-122790682D02*
X137674817Y-122844557D01*
X137674817Y-122844557D02*
X137701754Y-122925369D01*
X137701754Y-122925369D02*
X137917253Y-123140868D01*
X136785882Y-122548245D02*
X137109131Y-122871494D01*
X136947507Y-122709870D02*
X137513192Y-122144184D01*
X137513192Y-122144184D02*
X137486255Y-122278871D01*
X137486255Y-122278871D02*
X137486255Y-122386621D01*
X137486255Y-122386621D02*
X137513192Y-122467433D01*
X136839757Y-121470749D02*
X137109131Y-121740123D01*
X137109131Y-121740123D02*
X136866694Y-122036434D01*
X136866694Y-122036434D02*
X136866694Y-121982560D01*
X136866694Y-121982560D02*
X136839757Y-121901747D01*
X136839757Y-121901747D02*
X136705070Y-121767060D01*
X136705070Y-121767060D02*
X136624258Y-121740123D01*
X136624258Y-121740123D02*
X136570383Y-121740123D01*
X136570383Y-121740123D02*
X136489571Y-121767060D01*
X136489571Y-121767060D02*
X136354884Y-121901747D01*
X136354884Y-121901747D02*
X136327946Y-121982560D01*
X136327946Y-121982560D02*
X136327946Y-122036434D01*
X136327946Y-122036434D02*
X136354884Y-122117247D01*
X136354884Y-122117247D02*
X136489571Y-122251934D01*
X136489571Y-122251934D02*
X136570383Y-122278871D01*
X136570383Y-122278871D02*
X136624258Y-122278871D01*
X138751001Y-128850868D02*
X138831814Y-128877805D01*
X138831814Y-128877805D02*
X138912626Y-128958618D01*
X138912626Y-128958618D02*
X138966501Y-129066367D01*
X138966501Y-129066367D02*
X138966501Y-129174117D01*
X138966501Y-129174117D02*
X138939563Y-129254929D01*
X138939563Y-129254929D02*
X138858751Y-129389616D01*
X138858751Y-129389616D02*
X138777939Y-129470428D01*
X138777939Y-129470428D02*
X138643252Y-129551241D01*
X138643252Y-129551241D02*
X138562439Y-129578178D01*
X138562439Y-129578178D02*
X138454690Y-129578178D01*
X138454690Y-129578178D02*
X138346940Y-129524303D01*
X138346940Y-129524303D02*
X138293065Y-129470428D01*
X138293065Y-129470428D02*
X138239191Y-129362679D01*
X138239191Y-129362679D02*
X138239191Y-129308804D01*
X138239191Y-129308804D02*
X138427752Y-129120242D01*
X138427752Y-129120242D02*
X138535502Y-129227992D01*
X137942879Y-129120242D02*
X138508565Y-128554557D01*
X138508565Y-128554557D02*
X138293065Y-128339057D01*
X138293065Y-128339057D02*
X138212253Y-128312120D01*
X138212253Y-128312120D02*
X138158378Y-128312120D01*
X138158378Y-128312120D02*
X138077566Y-128339057D01*
X138077566Y-128339057D02*
X137996754Y-128419870D01*
X137996754Y-128419870D02*
X137969817Y-128500682D01*
X137969817Y-128500682D02*
X137969817Y-128554557D01*
X137969817Y-128554557D02*
X137996754Y-128635369D01*
X137996754Y-128635369D02*
X138212253Y-128850868D01*
X137915942Y-128069683D02*
X137915942Y-128015809D01*
X137915942Y-128015809D02*
X137889004Y-127934996D01*
X137889004Y-127934996D02*
X137754317Y-127800309D01*
X137754317Y-127800309D02*
X137673505Y-127773372D01*
X137673505Y-127773372D02*
X137619630Y-127773372D01*
X137619630Y-127773372D02*
X137538818Y-127800309D01*
X137538818Y-127800309D02*
X137484943Y-127854184D01*
X137484943Y-127854184D02*
X137431069Y-127961934D01*
X137431069Y-127961934D02*
X137431069Y-128608431D01*
X137431069Y-128608431D02*
X137080882Y-128258245D01*
X137458006Y-127503998D02*
X137080882Y-127126874D01*
X137080882Y-127126874D02*
X136757633Y-127934996D01*
X116891627Y-136201494D02*
X116972439Y-136228431D01*
X116972439Y-136228431D02*
X117053251Y-136309243D01*
X117053251Y-136309243D02*
X117107126Y-136416993D01*
X117107126Y-136416993D02*
X117107126Y-136524742D01*
X117107126Y-136524742D02*
X117080189Y-136605555D01*
X117080189Y-136605555D02*
X116999376Y-136740242D01*
X116999376Y-136740242D02*
X116918564Y-136821054D01*
X116918564Y-136821054D02*
X116783877Y-136901866D01*
X116783877Y-136901866D02*
X116703065Y-136928803D01*
X116703065Y-136928803D02*
X116595315Y-136928803D01*
X116595315Y-136928803D02*
X116487566Y-136874929D01*
X116487566Y-136874929D02*
X116433691Y-136821054D01*
X116433691Y-136821054D02*
X116379816Y-136713304D01*
X116379816Y-136713304D02*
X116379816Y-136659429D01*
X116379816Y-136659429D02*
X116568378Y-136470868D01*
X116568378Y-136470868D02*
X116676128Y-136578617D01*
X116083505Y-136470868D02*
X116649190Y-135905182D01*
X116649190Y-135905182D02*
X116433691Y-135689683D01*
X116433691Y-135689683D02*
X116352879Y-135662746D01*
X116352879Y-135662746D02*
X116299004Y-135662746D01*
X116299004Y-135662746D02*
X116218192Y-135689683D01*
X116218192Y-135689683D02*
X116137380Y-135770495D01*
X116137380Y-135770495D02*
X116110442Y-135851307D01*
X116110442Y-135851307D02*
X116110442Y-135905182D01*
X116110442Y-135905182D02*
X116137380Y-135985994D01*
X116137380Y-135985994D02*
X116352879Y-136201494D01*
X116056567Y-135420309D02*
X116056567Y-135366434D01*
X116056567Y-135366434D02*
X116029630Y-135285622D01*
X116029630Y-135285622D02*
X115894943Y-135150935D01*
X115894943Y-135150935D02*
X115814131Y-135123998D01*
X115814131Y-135123998D02*
X115760256Y-135123998D01*
X115760256Y-135123998D02*
X115679444Y-135150935D01*
X115679444Y-135150935D02*
X115625569Y-135204810D01*
X115625569Y-135204810D02*
X115571694Y-135312559D01*
X115571694Y-135312559D02*
X115571694Y-135959057D01*
X115571694Y-135959057D02*
X115221508Y-135608871D01*
X125416001Y-118055868D02*
X125496814Y-118082805D01*
X125496814Y-118082805D02*
X125577626Y-118163618D01*
X125577626Y-118163618D02*
X125631501Y-118271367D01*
X125631501Y-118271367D02*
X125631501Y-118379117D01*
X125631501Y-118379117D02*
X125604563Y-118459929D01*
X125604563Y-118459929D02*
X125523751Y-118594616D01*
X125523751Y-118594616D02*
X125442939Y-118675428D01*
X125442939Y-118675428D02*
X125308252Y-118756241D01*
X125308252Y-118756241D02*
X125227439Y-118783178D01*
X125227439Y-118783178D02*
X125119690Y-118783178D01*
X125119690Y-118783178D02*
X125011940Y-118729303D01*
X125011940Y-118729303D02*
X124958065Y-118675428D01*
X124958065Y-118675428D02*
X124904191Y-118567679D01*
X124904191Y-118567679D02*
X124904191Y-118513804D01*
X124904191Y-118513804D02*
X125092752Y-118325242D01*
X125092752Y-118325242D02*
X125200502Y-118432992D01*
X124607879Y-118325242D02*
X125173565Y-117759557D01*
X125173565Y-117759557D02*
X124958065Y-117544057D01*
X124958065Y-117544057D02*
X124877253Y-117517120D01*
X124877253Y-117517120D02*
X124823378Y-117517120D01*
X124823378Y-117517120D02*
X124742566Y-117544057D01*
X124742566Y-117544057D02*
X124661754Y-117624870D01*
X124661754Y-117624870D02*
X124634817Y-117705682D01*
X124634817Y-117705682D02*
X124634817Y-117759557D01*
X124634817Y-117759557D02*
X124661754Y-117840369D01*
X124661754Y-117840369D02*
X124877253Y-118055868D01*
X123745882Y-117463245D02*
X124069131Y-117786494D01*
X123907507Y-117624870D02*
X124473192Y-117059184D01*
X124473192Y-117059184D02*
X124446255Y-117193871D01*
X124446255Y-117193871D02*
X124446255Y-117301621D01*
X124446255Y-117301621D02*
X124473192Y-117382433D01*
X123961381Y-116547373D02*
X123907507Y-116493499D01*
X123907507Y-116493499D02*
X123826694Y-116466561D01*
X123826694Y-116466561D02*
X123772820Y-116466561D01*
X123772820Y-116466561D02*
X123692007Y-116493499D01*
X123692007Y-116493499D02*
X123557320Y-116574311D01*
X123557320Y-116574311D02*
X123422633Y-116708998D01*
X123422633Y-116708998D02*
X123341821Y-116843685D01*
X123341821Y-116843685D02*
X123314884Y-116924497D01*
X123314884Y-116924497D02*
X123314884Y-116978372D01*
X123314884Y-116978372D02*
X123341821Y-117059184D01*
X123341821Y-117059184D02*
X123395696Y-117113059D01*
X123395696Y-117113059D02*
X123476508Y-117139996D01*
X123476508Y-117139996D02*
X123530383Y-117139996D01*
X123530383Y-117139996D02*
X123611195Y-117113059D01*
X123611195Y-117113059D02*
X123745882Y-117032247D01*
X123745882Y-117032247D02*
X123880569Y-116897560D01*
X123880569Y-116897560D02*
X123961381Y-116762873D01*
X123961381Y-116762873D02*
X123988319Y-116682060D01*
X123988319Y-116682060D02*
X123988319Y-116628186D01*
X123988319Y-116628186D02*
X123961381Y-116547373D01*
X122606626Y-118055868D02*
X122687438Y-118082805D01*
X122687438Y-118082805D02*
X122768250Y-118163617D01*
X122768250Y-118163617D02*
X122822125Y-118271367D01*
X122822125Y-118271367D02*
X122822125Y-118379116D01*
X122822125Y-118379116D02*
X122795188Y-118459929D01*
X122795188Y-118459929D02*
X122714375Y-118594616D01*
X122714375Y-118594616D02*
X122633563Y-118675428D01*
X122633563Y-118675428D02*
X122498876Y-118756240D01*
X122498876Y-118756240D02*
X122418064Y-118783177D01*
X122418064Y-118783177D02*
X122310314Y-118783177D01*
X122310314Y-118783177D02*
X122202565Y-118729303D01*
X122202565Y-118729303D02*
X122148690Y-118675428D01*
X122148690Y-118675428D02*
X122094815Y-118567678D01*
X122094815Y-118567678D02*
X122094815Y-118513803D01*
X122094815Y-118513803D02*
X122283377Y-118325242D01*
X122283377Y-118325242D02*
X122391127Y-118432991D01*
X121798504Y-118325242D02*
X122364189Y-117759556D01*
X122364189Y-117759556D02*
X122148690Y-117544057D01*
X122148690Y-117544057D02*
X122067878Y-117517120D01*
X122067878Y-117517120D02*
X122014003Y-117517120D01*
X122014003Y-117517120D02*
X121933191Y-117544057D01*
X121933191Y-117544057D02*
X121852379Y-117624869D01*
X121852379Y-117624869D02*
X121825441Y-117705681D01*
X121825441Y-117705681D02*
X121825441Y-117759556D01*
X121825441Y-117759556D02*
X121852379Y-117840368D01*
X121852379Y-117840368D02*
X122067878Y-118055868D01*
X121205881Y-117732619D02*
X121098131Y-117624869D01*
X121098131Y-117624869D02*
X121071194Y-117544057D01*
X121071194Y-117544057D02*
X121071194Y-117490182D01*
X121071194Y-117490182D02*
X121098131Y-117355495D01*
X121098131Y-117355495D02*
X121178944Y-117220808D01*
X121178944Y-117220808D02*
X121394443Y-117005309D01*
X121394443Y-117005309D02*
X121475255Y-116978372D01*
X121475255Y-116978372D02*
X121529130Y-116978372D01*
X121529130Y-116978372D02*
X121609942Y-117005309D01*
X121609942Y-117005309D02*
X121717692Y-117113059D01*
X121717692Y-117113059D02*
X121744629Y-117193871D01*
X121744629Y-117193871D02*
X121744629Y-117247746D01*
X121744629Y-117247746D02*
X121717692Y-117328558D01*
X121717692Y-117328558D02*
X121583005Y-117463245D01*
X121583005Y-117463245D02*
X121502192Y-117490182D01*
X121502192Y-117490182D02*
X121448318Y-117490182D01*
X121448318Y-117490182D02*
X121367505Y-117463245D01*
X121367505Y-117463245D02*
X121259756Y-117355495D01*
X121259756Y-117355495D02*
X121232818Y-117274683D01*
X121232818Y-117274683D02*
X121232818Y-117220808D01*
X121232818Y-117220808D02*
X121259756Y-117139996D01*
X137619630Y-140958245D02*
X137889004Y-141227619D01*
X137889004Y-141227619D02*
X137646567Y-141523930D01*
X137646567Y-141523930D02*
X137646567Y-141470055D01*
X137646567Y-141470055D02*
X137619630Y-141389243D01*
X137619630Y-141389243D02*
X137484943Y-141254556D01*
X137484943Y-141254556D02*
X137404131Y-141227619D01*
X137404131Y-141227619D02*
X137350256Y-141227619D01*
X137350256Y-141227619D02*
X137269444Y-141254556D01*
X137269444Y-141254556D02*
X137134757Y-141389243D01*
X137134757Y-141389243D02*
X137107819Y-141470055D01*
X137107819Y-141470055D02*
X137107819Y-141523930D01*
X137107819Y-141523930D02*
X137134757Y-141604742D01*
X137134757Y-141604742D02*
X137269444Y-141739429D01*
X137269444Y-141739429D02*
X137350256Y-141766367D01*
X137350256Y-141766367D02*
X137404131Y-141766367D01*
X137431068Y-140769683D02*
X136676821Y-141146806D01*
X136676821Y-141146806D02*
X137053944Y-140392559D01*
X116891627Y-128581494D02*
X116972439Y-128608431D01*
X116972439Y-128608431D02*
X117053251Y-128689243D01*
X117053251Y-128689243D02*
X117107126Y-128796993D01*
X117107126Y-128796993D02*
X117107126Y-128904742D01*
X117107126Y-128904742D02*
X117080189Y-128985555D01*
X117080189Y-128985555D02*
X116999376Y-129120242D01*
X116999376Y-129120242D02*
X116918564Y-129201054D01*
X116918564Y-129201054D02*
X116783877Y-129281866D01*
X116783877Y-129281866D02*
X116703065Y-129308803D01*
X116703065Y-129308803D02*
X116595315Y-129308803D01*
X116595315Y-129308803D02*
X116487566Y-129254929D01*
X116487566Y-129254929D02*
X116433691Y-129201054D01*
X116433691Y-129201054D02*
X116379816Y-129093304D01*
X116379816Y-129093304D02*
X116379816Y-129039429D01*
X116379816Y-129039429D02*
X116568378Y-128850868D01*
X116568378Y-128850868D02*
X116676128Y-128958617D01*
X116083505Y-128850868D02*
X116649190Y-128285182D01*
X116649190Y-128285182D02*
X116433691Y-128069683D01*
X116433691Y-128069683D02*
X116352879Y-128042746D01*
X116352879Y-128042746D02*
X116299004Y-128042746D01*
X116299004Y-128042746D02*
X116218192Y-128069683D01*
X116218192Y-128069683D02*
X116137380Y-128150495D01*
X116137380Y-128150495D02*
X116110442Y-128231307D01*
X116110442Y-128231307D02*
X116110442Y-128285182D01*
X116110442Y-128285182D02*
X116137380Y-128365994D01*
X116137380Y-128365994D02*
X116352879Y-128581494D01*
X115814131Y-127450123D02*
X116083505Y-127719497D01*
X116083505Y-127719497D02*
X115841068Y-128015808D01*
X115841068Y-128015808D02*
X115841068Y-127961933D01*
X115841068Y-127961933D02*
X115814131Y-127881121D01*
X115814131Y-127881121D02*
X115679444Y-127746434D01*
X115679444Y-127746434D02*
X115598632Y-127719497D01*
X115598632Y-127719497D02*
X115544757Y-127719497D01*
X115544757Y-127719497D02*
X115463945Y-127746434D01*
X115463945Y-127746434D02*
X115329258Y-127881121D01*
X115329258Y-127881121D02*
X115302320Y-127961933D01*
X115302320Y-127961933D02*
X115302320Y-128015808D01*
X115302320Y-128015808D02*
X115329258Y-128096620D01*
X115329258Y-128096620D02*
X115463945Y-128231307D01*
X115463945Y-128231307D02*
X115544757Y-128258245D01*
X115544757Y-128258245D02*
X115598632Y-128258245D01*
X138751001Y-126310868D02*
X138831814Y-126337805D01*
X138831814Y-126337805D02*
X138912626Y-126418618D01*
X138912626Y-126418618D02*
X138966501Y-126526367D01*
X138966501Y-126526367D02*
X138966501Y-126634117D01*
X138966501Y-126634117D02*
X138939563Y-126714929D01*
X138939563Y-126714929D02*
X138858751Y-126849616D01*
X138858751Y-126849616D02*
X138777939Y-126930428D01*
X138777939Y-126930428D02*
X138643252Y-127011241D01*
X138643252Y-127011241D02*
X138562439Y-127038178D01*
X138562439Y-127038178D02*
X138454690Y-127038178D01*
X138454690Y-127038178D02*
X138346940Y-126984303D01*
X138346940Y-126984303D02*
X138293065Y-126930428D01*
X138293065Y-126930428D02*
X138239191Y-126822679D01*
X138239191Y-126822679D02*
X138239191Y-126768804D01*
X138239191Y-126768804D02*
X138427752Y-126580242D01*
X138427752Y-126580242D02*
X138535502Y-126687992D01*
X137942879Y-126580242D02*
X138508565Y-126014557D01*
X138508565Y-126014557D02*
X138293065Y-125799057D01*
X138293065Y-125799057D02*
X138212253Y-125772120D01*
X138212253Y-125772120D02*
X138158378Y-125772120D01*
X138158378Y-125772120D02*
X138077566Y-125799057D01*
X138077566Y-125799057D02*
X137996754Y-125879870D01*
X137996754Y-125879870D02*
X137969817Y-125960682D01*
X137969817Y-125960682D02*
X137969817Y-126014557D01*
X137969817Y-126014557D02*
X137996754Y-126095369D01*
X137996754Y-126095369D02*
X138212253Y-126310868D01*
X137915942Y-125529683D02*
X137915942Y-125475809D01*
X137915942Y-125475809D02*
X137889004Y-125394996D01*
X137889004Y-125394996D02*
X137754317Y-125260309D01*
X137754317Y-125260309D02*
X137673505Y-125233372D01*
X137673505Y-125233372D02*
X137619630Y-125233372D01*
X137619630Y-125233372D02*
X137538818Y-125260309D01*
X137538818Y-125260309D02*
X137484943Y-125314184D01*
X137484943Y-125314184D02*
X137431069Y-125421934D01*
X137431069Y-125421934D02*
X137431069Y-126068431D01*
X137431069Y-126068431D02*
X137080882Y-125718245D01*
X137161694Y-124667686D02*
X137269444Y-124775436D01*
X137269444Y-124775436D02*
X137296381Y-124856248D01*
X137296381Y-124856248D02*
X137296381Y-124910123D01*
X137296381Y-124910123D02*
X137269444Y-125044810D01*
X137269444Y-125044810D02*
X137188632Y-125179497D01*
X137188632Y-125179497D02*
X136973133Y-125394996D01*
X136973133Y-125394996D02*
X136892320Y-125421934D01*
X136892320Y-125421934D02*
X136838446Y-125421934D01*
X136838446Y-125421934D02*
X136757633Y-125394996D01*
X136757633Y-125394996D02*
X136649884Y-125287247D01*
X136649884Y-125287247D02*
X136622946Y-125206434D01*
X136622946Y-125206434D02*
X136622946Y-125152560D01*
X136622946Y-125152560D02*
X136649884Y-125071747D01*
X136649884Y-125071747D02*
X136784571Y-124937060D01*
X136784571Y-124937060D02*
X136865383Y-124910123D01*
X136865383Y-124910123D02*
X136919258Y-124910123D01*
X136919258Y-124910123D02*
X137000070Y-124937060D01*
X137000070Y-124937060D02*
X137107820Y-125044810D01*
X137107820Y-125044810D02*
X137134757Y-125125622D01*
X137134757Y-125125622D02*
X137134757Y-125179497D01*
X137134757Y-125179497D02*
X137107820Y-125260309D01*
X138751001Y-133930868D02*
X138831814Y-133957805D01*
X138831814Y-133957805D02*
X138912626Y-134038618D01*
X138912626Y-134038618D02*
X138966501Y-134146367D01*
X138966501Y-134146367D02*
X138966501Y-134254117D01*
X138966501Y-134254117D02*
X138939563Y-134334929D01*
X138939563Y-134334929D02*
X138858751Y-134469616D01*
X138858751Y-134469616D02*
X138777939Y-134550428D01*
X138777939Y-134550428D02*
X138643252Y-134631241D01*
X138643252Y-134631241D02*
X138562439Y-134658178D01*
X138562439Y-134658178D02*
X138454690Y-134658178D01*
X138454690Y-134658178D02*
X138346940Y-134604303D01*
X138346940Y-134604303D02*
X138293065Y-134550428D01*
X138293065Y-134550428D02*
X138239191Y-134442679D01*
X138239191Y-134442679D02*
X138239191Y-134388804D01*
X138239191Y-134388804D02*
X138427752Y-134200242D01*
X138427752Y-134200242D02*
X138535502Y-134307992D01*
X137942879Y-134200242D02*
X138508565Y-133634557D01*
X138508565Y-133634557D02*
X138293065Y-133419057D01*
X138293065Y-133419057D02*
X138212253Y-133392120D01*
X138212253Y-133392120D02*
X138158378Y-133392120D01*
X138158378Y-133392120D02*
X138077566Y-133419057D01*
X138077566Y-133419057D02*
X137996754Y-133499870D01*
X137996754Y-133499870D02*
X137969817Y-133580682D01*
X137969817Y-133580682D02*
X137969817Y-133634557D01*
X137969817Y-133634557D02*
X137996754Y-133715369D01*
X137996754Y-133715369D02*
X138212253Y-133930868D01*
X137915942Y-133149683D02*
X137915942Y-133095809D01*
X137915942Y-133095809D02*
X137889004Y-133014996D01*
X137889004Y-133014996D02*
X137754317Y-132880309D01*
X137754317Y-132880309D02*
X137673505Y-132853372D01*
X137673505Y-132853372D02*
X137619630Y-132853372D01*
X137619630Y-132853372D02*
X137538818Y-132880309D01*
X137538818Y-132880309D02*
X137484943Y-132934184D01*
X137484943Y-132934184D02*
X137431069Y-133041934D01*
X137431069Y-133041934D02*
X137431069Y-133688431D01*
X137431069Y-133688431D02*
X137080882Y-133338245D01*
X136811508Y-133068871D02*
X136703759Y-132961121D01*
X136703759Y-132961121D02*
X136676821Y-132880309D01*
X136676821Y-132880309D02*
X136676821Y-132826434D01*
X136676821Y-132826434D02*
X136703759Y-132691747D01*
X136703759Y-132691747D02*
X136784571Y-132557060D01*
X136784571Y-132557060D02*
X137000070Y-132341561D01*
X137000070Y-132341561D02*
X137080882Y-132314624D01*
X137080882Y-132314624D02*
X137134757Y-132314624D01*
X137134757Y-132314624D02*
X137215569Y-132341561D01*
X137215569Y-132341561D02*
X137323319Y-132449311D01*
X137323319Y-132449311D02*
X137350256Y-132530123D01*
X137350256Y-132530123D02*
X137350256Y-132583998D01*
X137350256Y-132583998D02*
X137323319Y-132664810D01*
X137323319Y-132664810D02*
X137188632Y-132799497D01*
X137188632Y-132799497D02*
X137107820Y-132826434D01*
X137107820Y-132826434D02*
X137053945Y-132826434D01*
X137053945Y-132826434D02*
X136973133Y-132799497D01*
X136973133Y-132799497D02*
X136865383Y-132691747D01*
X136865383Y-132691747D02*
X136838446Y-132610935D01*
X136838446Y-132610935D02*
X136838446Y-132557060D01*
X136838446Y-132557060D02*
X136865383Y-132476248D01*
X116891627Y-141281494D02*
X116972439Y-141308431D01*
X116972439Y-141308431D02*
X117053251Y-141389243D01*
X117053251Y-141389243D02*
X117107126Y-141496993D01*
X117107126Y-141496993D02*
X117107126Y-141604742D01*
X117107126Y-141604742D02*
X117080189Y-141685555D01*
X117080189Y-141685555D02*
X116999376Y-141820242D01*
X116999376Y-141820242D02*
X116918564Y-141901054D01*
X116918564Y-141901054D02*
X116783877Y-141981866D01*
X116783877Y-141981866D02*
X116703065Y-142008803D01*
X116703065Y-142008803D02*
X116595315Y-142008803D01*
X116595315Y-142008803D02*
X116487566Y-141954929D01*
X116487566Y-141954929D02*
X116433691Y-141901054D01*
X116433691Y-141901054D02*
X116379816Y-141793304D01*
X116379816Y-141793304D02*
X116379816Y-141739429D01*
X116379816Y-141739429D02*
X116568378Y-141550868D01*
X116568378Y-141550868D02*
X116676128Y-141658617D01*
X116083505Y-141550868D02*
X116649190Y-140985182D01*
X116649190Y-140985182D02*
X116433691Y-140769683D01*
X116433691Y-140769683D02*
X116352879Y-140742746D01*
X116352879Y-140742746D02*
X116299004Y-140742746D01*
X116299004Y-140742746D02*
X116218192Y-140769683D01*
X116218192Y-140769683D02*
X116137380Y-140850495D01*
X116137380Y-140850495D02*
X116110442Y-140931307D01*
X116110442Y-140931307D02*
X116110442Y-140985182D01*
X116110442Y-140985182D02*
X116137380Y-141065994D01*
X116137380Y-141065994D02*
X116352879Y-141281494D01*
X115975755Y-140311747D02*
X115921880Y-140257872D01*
X115921880Y-140257872D02*
X115841068Y-140230935D01*
X115841068Y-140230935D02*
X115787193Y-140230935D01*
X115787193Y-140230935D02*
X115706381Y-140257872D01*
X115706381Y-140257872D02*
X115571694Y-140338685D01*
X115571694Y-140338685D02*
X115437007Y-140473372D01*
X115437007Y-140473372D02*
X115356195Y-140608059D01*
X115356195Y-140608059D02*
X115329258Y-140688871D01*
X115329258Y-140688871D02*
X115329258Y-140742746D01*
X115329258Y-140742746D02*
X115356195Y-140823558D01*
X115356195Y-140823558D02*
X115410070Y-140877433D01*
X115410070Y-140877433D02*
X115490882Y-140904370D01*
X115490882Y-140904370D02*
X115544757Y-140904370D01*
X115544757Y-140904370D02*
X115625569Y-140877433D01*
X115625569Y-140877433D02*
X115760256Y-140796620D01*
X115760256Y-140796620D02*
X115894943Y-140661933D01*
X115894943Y-140661933D02*
X115975755Y-140527246D01*
X115975755Y-140527246D02*
X116002693Y-140446434D01*
X116002693Y-140446434D02*
X116002693Y-140392559D01*
X116002693Y-140392559D02*
X115975755Y-140311747D01*
X138266127Y-138768431D02*
X138346939Y-138795368D01*
X138346939Y-138795368D02*
X138427751Y-138876180D01*
X138427751Y-138876180D02*
X138481626Y-138983930D01*
X138481626Y-138983930D02*
X138481626Y-139091680D01*
X138481626Y-139091680D02*
X138454689Y-139172492D01*
X138454689Y-139172492D02*
X138373877Y-139307179D01*
X138373877Y-139307179D02*
X138293064Y-139387991D01*
X138293064Y-139387991D02*
X138158377Y-139468803D01*
X138158377Y-139468803D02*
X138077565Y-139495741D01*
X138077565Y-139495741D02*
X137969816Y-139495741D01*
X137969816Y-139495741D02*
X137862066Y-139441866D01*
X137862066Y-139441866D02*
X137808191Y-139387991D01*
X137808191Y-139387991D02*
X137754316Y-139280241D01*
X137754316Y-139280241D02*
X137754316Y-139226367D01*
X137754316Y-139226367D02*
X137942878Y-139037805D01*
X137942878Y-139037805D02*
X138050628Y-139145554D01*
X137458005Y-139037805D02*
X138023690Y-138472119D01*
X138023690Y-138472119D02*
X137134756Y-138714556D01*
X137134756Y-138714556D02*
X137700442Y-138148871D01*
X136865382Y-138445182D02*
X137431068Y-137879497D01*
X137431068Y-137879497D02*
X137296381Y-137744810D01*
X137296381Y-137744810D02*
X137188631Y-137690935D01*
X137188631Y-137690935D02*
X137080882Y-137690935D01*
X137080882Y-137690935D02*
X137000069Y-137717872D01*
X137000069Y-137717872D02*
X136865382Y-137798685D01*
X136865382Y-137798685D02*
X136784570Y-137879497D01*
X136784570Y-137879497D02*
X136703758Y-138014184D01*
X136703758Y-138014184D02*
X136676821Y-138094996D01*
X136676821Y-138094996D02*
X136676821Y-138202746D01*
X136676821Y-138202746D02*
X136730695Y-138310495D01*
X136730695Y-138310495D02*
X136865382Y-138445182D01*
X138481627Y-136470868D02*
X138131441Y-136120682D01*
X138131441Y-136120682D02*
X138104503Y-136524743D01*
X138104503Y-136524743D02*
X138023691Y-136443931D01*
X138023691Y-136443931D02*
X137942879Y-136416993D01*
X137942879Y-136416993D02*
X137889004Y-136416993D01*
X137889004Y-136416993D02*
X137808192Y-136443931D01*
X137808192Y-136443931D02*
X137673505Y-136578618D01*
X137673505Y-136578618D02*
X137646568Y-136659430D01*
X137646568Y-136659430D02*
X137646568Y-136713305D01*
X137646568Y-136713305D02*
X137673505Y-136794117D01*
X137673505Y-136794117D02*
X137835129Y-136955741D01*
X137835129Y-136955741D02*
X137915942Y-136982679D01*
X137915942Y-136982679D02*
X137969816Y-136982679D01*
X137969816Y-135959057D02*
X137215569Y-136336181D01*
X137215569Y-136336181D02*
X137592693Y-135581934D01*
X137458006Y-135447247D02*
X137107820Y-135097061D01*
X137107820Y-135097061D02*
X137080882Y-135501122D01*
X137080882Y-135501122D02*
X137000070Y-135420309D01*
X137000070Y-135420309D02*
X136919258Y-135393372D01*
X136919258Y-135393372D02*
X136865383Y-135393372D01*
X136865383Y-135393372D02*
X136784571Y-135420309D01*
X136784571Y-135420309D02*
X136649884Y-135554996D01*
X136649884Y-135554996D02*
X136622946Y-135635809D01*
X136622946Y-135635809D02*
X136622946Y-135689683D01*
X136622946Y-135689683D02*
X136649884Y-135770496D01*
X136649884Y-135770496D02*
X136811508Y-135932120D01*
X136811508Y-135932120D02*
X136892320Y-135959057D01*
X136892320Y-135959057D02*
X136946195Y-135959057D01*
X130496001Y-118055868D02*
X130576814Y-118082805D01*
X130576814Y-118082805D02*
X130657626Y-118163618D01*
X130657626Y-118163618D02*
X130711501Y-118271367D01*
X130711501Y-118271367D02*
X130711501Y-118379117D01*
X130711501Y-118379117D02*
X130684563Y-118459929D01*
X130684563Y-118459929D02*
X130603751Y-118594616D01*
X130603751Y-118594616D02*
X130522939Y-118675428D01*
X130522939Y-118675428D02*
X130388252Y-118756241D01*
X130388252Y-118756241D02*
X130307439Y-118783178D01*
X130307439Y-118783178D02*
X130199690Y-118783178D01*
X130199690Y-118783178D02*
X130091940Y-118729303D01*
X130091940Y-118729303D02*
X130038065Y-118675428D01*
X130038065Y-118675428D02*
X129984191Y-118567679D01*
X129984191Y-118567679D02*
X129984191Y-118513804D01*
X129984191Y-118513804D02*
X130172752Y-118325242D01*
X130172752Y-118325242D02*
X130280502Y-118432992D01*
X129687879Y-118325242D02*
X130253565Y-117759557D01*
X130253565Y-117759557D02*
X130038065Y-117544057D01*
X130038065Y-117544057D02*
X129957253Y-117517120D01*
X129957253Y-117517120D02*
X129903378Y-117517120D01*
X129903378Y-117517120D02*
X129822566Y-117544057D01*
X129822566Y-117544057D02*
X129741754Y-117624870D01*
X129741754Y-117624870D02*
X129714817Y-117705682D01*
X129714817Y-117705682D02*
X129714817Y-117759557D01*
X129714817Y-117759557D02*
X129741754Y-117840369D01*
X129741754Y-117840369D02*
X129957253Y-118055868D01*
X128825882Y-117463245D02*
X129149131Y-117786494D01*
X128987507Y-117624870D02*
X129553192Y-117059184D01*
X129553192Y-117059184D02*
X129526255Y-117193871D01*
X129526255Y-117193871D02*
X129526255Y-117301621D01*
X129526255Y-117301621D02*
X129553192Y-117382433D01*
X129122194Y-116735935D02*
X129122194Y-116682060D01*
X129122194Y-116682060D02*
X129095256Y-116601248D01*
X129095256Y-116601248D02*
X128960569Y-116466561D01*
X128960569Y-116466561D02*
X128879757Y-116439624D01*
X128879757Y-116439624D02*
X128825882Y-116439624D01*
X128825882Y-116439624D02*
X128745070Y-116466561D01*
X128745070Y-116466561D02*
X128691195Y-116520436D01*
X128691195Y-116520436D02*
X128637320Y-116628186D01*
X128637320Y-116628186D02*
X128637320Y-117274683D01*
X128637320Y-117274683D02*
X128287134Y-116924497D01*
X114436627Y-126371494D02*
X114517439Y-126398431D01*
X114517439Y-126398431D02*
X114598251Y-126479243D01*
X114598251Y-126479243D02*
X114652126Y-126586993D01*
X114652126Y-126586993D02*
X114652126Y-126694742D01*
X114652126Y-126694742D02*
X114625189Y-126775555D01*
X114625189Y-126775555D02*
X114544376Y-126910242D01*
X114544376Y-126910242D02*
X114463564Y-126991054D01*
X114463564Y-126991054D02*
X114328877Y-127071866D01*
X114328877Y-127071866D02*
X114248065Y-127098803D01*
X114248065Y-127098803D02*
X114140315Y-127098803D01*
X114140315Y-127098803D02*
X114032566Y-127044929D01*
X114032566Y-127044929D02*
X113978691Y-126991054D01*
X113978691Y-126991054D02*
X113924816Y-126883304D01*
X113924816Y-126883304D02*
X113924816Y-126829429D01*
X113924816Y-126829429D02*
X114113378Y-126640868D01*
X114113378Y-126640868D02*
X114221128Y-126748617D01*
X113628505Y-126640868D02*
X114194190Y-126075182D01*
X114194190Y-126075182D02*
X113978691Y-125859683D01*
X113978691Y-125859683D02*
X113897879Y-125832746D01*
X113897879Y-125832746D02*
X113844004Y-125832746D01*
X113844004Y-125832746D02*
X113763192Y-125859683D01*
X113763192Y-125859683D02*
X113682380Y-125940495D01*
X113682380Y-125940495D02*
X113655442Y-126021307D01*
X113655442Y-126021307D02*
X113655442Y-126075182D01*
X113655442Y-126075182D02*
X113682380Y-126155994D01*
X113682380Y-126155994D02*
X113897879Y-126371494D01*
X113386068Y-125267060D02*
X113493818Y-125374810D01*
X113493818Y-125374810D02*
X113520755Y-125455622D01*
X113520755Y-125455622D02*
X113520755Y-125509497D01*
X113520755Y-125509497D02*
X113493818Y-125644184D01*
X113493818Y-125644184D02*
X113413006Y-125778871D01*
X113413006Y-125778871D02*
X113197506Y-125994370D01*
X113197506Y-125994370D02*
X113116694Y-126021307D01*
X113116694Y-126021307D02*
X113062819Y-126021307D01*
X113062819Y-126021307D02*
X112982007Y-125994370D01*
X112982007Y-125994370D02*
X112874258Y-125886620D01*
X112874258Y-125886620D02*
X112847320Y-125805808D01*
X112847320Y-125805808D02*
X112847320Y-125751933D01*
X112847320Y-125751933D02*
X112874258Y-125671121D01*
X112874258Y-125671121D02*
X113008945Y-125536434D01*
X113008945Y-125536434D02*
X113089757Y-125509497D01*
X113089757Y-125509497D02*
X113143632Y-125509497D01*
X113143632Y-125509497D02*
X113224444Y-125536434D01*
X113224444Y-125536434D02*
X113332193Y-125644184D01*
X113332193Y-125644184D02*
X113359131Y-125724996D01*
X113359131Y-125724996D02*
X113359131Y-125778871D01*
X113359131Y-125778871D02*
X113332193Y-125859683D01*
X133036001Y-118055868D02*
X133116814Y-118082805D01*
X133116814Y-118082805D02*
X133197626Y-118163618D01*
X133197626Y-118163618D02*
X133251501Y-118271367D01*
X133251501Y-118271367D02*
X133251501Y-118379117D01*
X133251501Y-118379117D02*
X133224563Y-118459929D01*
X133224563Y-118459929D02*
X133143751Y-118594616D01*
X133143751Y-118594616D02*
X133062939Y-118675428D01*
X133062939Y-118675428D02*
X132928252Y-118756241D01*
X132928252Y-118756241D02*
X132847439Y-118783178D01*
X132847439Y-118783178D02*
X132739690Y-118783178D01*
X132739690Y-118783178D02*
X132631940Y-118729303D01*
X132631940Y-118729303D02*
X132578065Y-118675428D01*
X132578065Y-118675428D02*
X132524191Y-118567679D01*
X132524191Y-118567679D02*
X132524191Y-118513804D01*
X132524191Y-118513804D02*
X132712752Y-118325242D01*
X132712752Y-118325242D02*
X132820502Y-118432992D01*
X132227879Y-118325242D02*
X132793565Y-117759557D01*
X132793565Y-117759557D02*
X132578065Y-117544057D01*
X132578065Y-117544057D02*
X132497253Y-117517120D01*
X132497253Y-117517120D02*
X132443378Y-117517120D01*
X132443378Y-117517120D02*
X132362566Y-117544057D01*
X132362566Y-117544057D02*
X132281754Y-117624870D01*
X132281754Y-117624870D02*
X132254817Y-117705682D01*
X132254817Y-117705682D02*
X132254817Y-117759557D01*
X132254817Y-117759557D02*
X132281754Y-117840369D01*
X132281754Y-117840369D02*
X132497253Y-118055868D01*
X131365882Y-117463245D02*
X131689131Y-117786494D01*
X131527507Y-117624870D02*
X132093192Y-117059184D01*
X132093192Y-117059184D02*
X132066255Y-117193871D01*
X132066255Y-117193871D02*
X132066255Y-117301621D01*
X132066255Y-117301621D02*
X132093192Y-117382433D01*
X131743006Y-116708998D02*
X131392820Y-116358812D01*
X131392820Y-116358812D02*
X131365882Y-116762873D01*
X131365882Y-116762873D02*
X131285070Y-116682060D01*
X131285070Y-116682060D02*
X131204258Y-116655123D01*
X131204258Y-116655123D02*
X131150383Y-116655123D01*
X131150383Y-116655123D02*
X131069571Y-116682060D01*
X131069571Y-116682060D02*
X130934884Y-116816747D01*
X130934884Y-116816747D02*
X130907946Y-116897560D01*
X130907946Y-116897560D02*
X130907946Y-116951434D01*
X130907946Y-116951434D02*
X130934884Y-117032247D01*
X130934884Y-117032247D02*
X131096508Y-117193871D01*
X131096508Y-117193871D02*
X131177320Y-117220808D01*
X131177320Y-117220808D02*
X131231195Y-117220808D01*
X116891627Y-131121494D02*
X116972439Y-131148431D01*
X116972439Y-131148431D02*
X117053251Y-131229243D01*
X117053251Y-131229243D02*
X117107126Y-131336993D01*
X117107126Y-131336993D02*
X117107126Y-131444742D01*
X117107126Y-131444742D02*
X117080189Y-131525555D01*
X117080189Y-131525555D02*
X116999376Y-131660242D01*
X116999376Y-131660242D02*
X116918564Y-131741054D01*
X116918564Y-131741054D02*
X116783877Y-131821866D01*
X116783877Y-131821866D02*
X116703065Y-131848803D01*
X116703065Y-131848803D02*
X116595315Y-131848803D01*
X116595315Y-131848803D02*
X116487566Y-131794929D01*
X116487566Y-131794929D02*
X116433691Y-131741054D01*
X116433691Y-131741054D02*
X116379816Y-131633304D01*
X116379816Y-131633304D02*
X116379816Y-131579429D01*
X116379816Y-131579429D02*
X116568378Y-131390868D01*
X116568378Y-131390868D02*
X116676128Y-131498617D01*
X116083505Y-131390868D02*
X116649190Y-130825182D01*
X116649190Y-130825182D02*
X116433691Y-130609683D01*
X116433691Y-130609683D02*
X116352879Y-130582746D01*
X116352879Y-130582746D02*
X116299004Y-130582746D01*
X116299004Y-130582746D02*
X116218192Y-130609683D01*
X116218192Y-130609683D02*
X116137380Y-130690495D01*
X116137380Y-130690495D02*
X116110442Y-130771307D01*
X116110442Y-130771307D02*
X116110442Y-130825182D01*
X116110442Y-130825182D02*
X116137380Y-130905994D01*
X116137380Y-130905994D02*
X116352879Y-131121494D01*
X115652506Y-130205622D02*
X115275383Y-130582746D01*
X116002693Y-130124810D02*
X115733319Y-130663558D01*
X115733319Y-130663558D02*
X115383132Y-130313372D01*
X127956001Y-118055868D02*
X128036814Y-118082805D01*
X128036814Y-118082805D02*
X128117626Y-118163618D01*
X128117626Y-118163618D02*
X128171501Y-118271367D01*
X128171501Y-118271367D02*
X128171501Y-118379117D01*
X128171501Y-118379117D02*
X128144563Y-118459929D01*
X128144563Y-118459929D02*
X128063751Y-118594616D01*
X128063751Y-118594616D02*
X127982939Y-118675428D01*
X127982939Y-118675428D02*
X127848252Y-118756241D01*
X127848252Y-118756241D02*
X127767439Y-118783178D01*
X127767439Y-118783178D02*
X127659690Y-118783178D01*
X127659690Y-118783178D02*
X127551940Y-118729303D01*
X127551940Y-118729303D02*
X127498065Y-118675428D01*
X127498065Y-118675428D02*
X127444191Y-118567679D01*
X127444191Y-118567679D02*
X127444191Y-118513804D01*
X127444191Y-118513804D02*
X127632752Y-118325242D01*
X127632752Y-118325242D02*
X127740502Y-118432992D01*
X127147879Y-118325242D02*
X127713565Y-117759557D01*
X127713565Y-117759557D02*
X127498065Y-117544057D01*
X127498065Y-117544057D02*
X127417253Y-117517120D01*
X127417253Y-117517120D02*
X127363378Y-117517120D01*
X127363378Y-117517120D02*
X127282566Y-117544057D01*
X127282566Y-117544057D02*
X127201754Y-117624870D01*
X127201754Y-117624870D02*
X127174817Y-117705682D01*
X127174817Y-117705682D02*
X127174817Y-117759557D01*
X127174817Y-117759557D02*
X127201754Y-117840369D01*
X127201754Y-117840369D02*
X127417253Y-118055868D01*
X126285882Y-117463245D02*
X126609131Y-117786494D01*
X126447507Y-117624870D02*
X127013192Y-117059184D01*
X127013192Y-117059184D02*
X126986255Y-117193871D01*
X126986255Y-117193871D02*
X126986255Y-117301621D01*
X126986255Y-117301621D02*
X127013192Y-117382433D01*
X125747134Y-116924497D02*
X126070383Y-117247746D01*
X125908759Y-117086121D02*
X126474444Y-116520436D01*
X126474444Y-116520436D02*
X126447507Y-116655123D01*
X126447507Y-116655123D02*
X126447507Y-116762873D01*
X126447507Y-116762873D02*
X126474444Y-116843685D01*
X116891627Y-133661494D02*
X116972439Y-133688431D01*
X116972439Y-133688431D02*
X117053251Y-133769243D01*
X117053251Y-133769243D02*
X117107126Y-133876993D01*
X117107126Y-133876993D02*
X117107126Y-133984742D01*
X117107126Y-133984742D02*
X117080189Y-134065555D01*
X117080189Y-134065555D02*
X116999376Y-134200242D01*
X116999376Y-134200242D02*
X116918564Y-134281054D01*
X116918564Y-134281054D02*
X116783877Y-134361866D01*
X116783877Y-134361866D02*
X116703065Y-134388803D01*
X116703065Y-134388803D02*
X116595315Y-134388803D01*
X116595315Y-134388803D02*
X116487566Y-134334929D01*
X116487566Y-134334929D02*
X116433691Y-134281054D01*
X116433691Y-134281054D02*
X116379816Y-134173304D01*
X116379816Y-134173304D02*
X116379816Y-134119429D01*
X116379816Y-134119429D02*
X116568378Y-133930868D01*
X116568378Y-133930868D02*
X116676128Y-134038617D01*
X116083505Y-133930868D02*
X116649190Y-133365182D01*
X116649190Y-133365182D02*
X116433691Y-133149683D01*
X116433691Y-133149683D02*
X116352879Y-133122746D01*
X116352879Y-133122746D02*
X116299004Y-133122746D01*
X116299004Y-133122746D02*
X116218192Y-133149683D01*
X116218192Y-133149683D02*
X116137380Y-133230495D01*
X116137380Y-133230495D02*
X116110442Y-133311307D01*
X116110442Y-133311307D02*
X116110442Y-133365182D01*
X116110442Y-133365182D02*
X116137380Y-133445994D01*
X116137380Y-133445994D02*
X116352879Y-133661494D01*
X116137380Y-132853372D02*
X115787193Y-132503185D01*
X115787193Y-132503185D02*
X115760256Y-132907246D01*
X115760256Y-132907246D02*
X115679444Y-132826434D01*
X115679444Y-132826434D02*
X115598632Y-132799497D01*
X115598632Y-132799497D02*
X115544757Y-132799497D01*
X115544757Y-132799497D02*
X115463945Y-132826434D01*
X115463945Y-132826434D02*
X115329258Y-132961121D01*
X115329258Y-132961121D02*
X115302320Y-133041933D01*
X115302320Y-133041933D02*
X115302320Y-133095808D01*
X115302320Y-133095808D02*
X115329258Y-133176620D01*
X115329258Y-133176620D02*
X115490882Y-133338245D01*
X115490882Y-133338245D02*
X115571694Y-133365182D01*
X115571694Y-133365182D02*
X115625569Y-133365182D01*
X116891627Y-138741494D02*
X116972439Y-138768431D01*
X116972439Y-138768431D02*
X117053251Y-138849243D01*
X117053251Y-138849243D02*
X117107126Y-138956993D01*
X117107126Y-138956993D02*
X117107126Y-139064742D01*
X117107126Y-139064742D02*
X117080189Y-139145555D01*
X117080189Y-139145555D02*
X116999376Y-139280242D01*
X116999376Y-139280242D02*
X116918564Y-139361054D01*
X116918564Y-139361054D02*
X116783877Y-139441866D01*
X116783877Y-139441866D02*
X116703065Y-139468803D01*
X116703065Y-139468803D02*
X116595315Y-139468803D01*
X116595315Y-139468803D02*
X116487566Y-139414929D01*
X116487566Y-139414929D02*
X116433691Y-139361054D01*
X116433691Y-139361054D02*
X116379816Y-139253304D01*
X116379816Y-139253304D02*
X116379816Y-139199429D01*
X116379816Y-139199429D02*
X116568378Y-139010868D01*
X116568378Y-139010868D02*
X116676128Y-139118617D01*
X116083505Y-139010868D02*
X116649190Y-138445182D01*
X116649190Y-138445182D02*
X116433691Y-138229683D01*
X116433691Y-138229683D02*
X116352879Y-138202746D01*
X116352879Y-138202746D02*
X116299004Y-138202746D01*
X116299004Y-138202746D02*
X116218192Y-138229683D01*
X116218192Y-138229683D02*
X116137380Y-138310495D01*
X116137380Y-138310495D02*
X116110442Y-138391307D01*
X116110442Y-138391307D02*
X116110442Y-138445182D01*
X116110442Y-138445182D02*
X116137380Y-138525994D01*
X116137380Y-138525994D02*
X116352879Y-138741494D01*
X115221508Y-138148871D02*
X115544757Y-138472120D01*
X115383132Y-138310495D02*
X115948818Y-137744810D01*
X115948818Y-137744810D02*
X115921880Y-137879497D01*
X115921880Y-137879497D02*
X115921880Y-137987246D01*
X115921880Y-137987246D02*
X115948818Y-138068059D01*
X117686627Y-119121494D02*
X117767439Y-119148431D01*
X117767439Y-119148431D02*
X117848251Y-119229243D01*
X117848251Y-119229243D02*
X117902126Y-119336993D01*
X117902126Y-119336993D02*
X117902126Y-119444742D01*
X117902126Y-119444742D02*
X117875189Y-119525555D01*
X117875189Y-119525555D02*
X117794376Y-119660242D01*
X117794376Y-119660242D02*
X117713564Y-119741054D01*
X117713564Y-119741054D02*
X117578877Y-119821866D01*
X117578877Y-119821866D02*
X117498065Y-119848803D01*
X117498065Y-119848803D02*
X117390315Y-119848803D01*
X117390315Y-119848803D02*
X117282566Y-119794929D01*
X117282566Y-119794929D02*
X117228691Y-119741054D01*
X117228691Y-119741054D02*
X117174816Y-119633304D01*
X117174816Y-119633304D02*
X117174816Y-119579429D01*
X117174816Y-119579429D02*
X117363378Y-119390868D01*
X117363378Y-119390868D02*
X117471128Y-119498617D01*
X116878505Y-119390868D02*
X117444190Y-118825182D01*
X117444190Y-118825182D02*
X117228691Y-118609683D01*
X117228691Y-118609683D02*
X117147879Y-118582746D01*
X117147879Y-118582746D02*
X117094004Y-118582746D01*
X117094004Y-118582746D02*
X117013192Y-118609683D01*
X117013192Y-118609683D02*
X116932380Y-118690495D01*
X116932380Y-118690495D02*
X116905442Y-118771307D01*
X116905442Y-118771307D02*
X116905442Y-118825182D01*
X116905442Y-118825182D02*
X116932380Y-118905994D01*
X116932380Y-118905994D02*
X117147879Y-119121494D01*
X116555256Y-118421121D02*
X116636068Y-118448059D01*
X116636068Y-118448059D02*
X116689943Y-118448059D01*
X116689943Y-118448059D02*
X116770755Y-118421121D01*
X116770755Y-118421121D02*
X116797693Y-118394184D01*
X116797693Y-118394184D02*
X116824630Y-118313372D01*
X116824630Y-118313372D02*
X116824630Y-118259497D01*
X116824630Y-118259497D02*
X116797693Y-118178685D01*
X116797693Y-118178685D02*
X116689943Y-118070935D01*
X116689943Y-118070935D02*
X116609131Y-118043998D01*
X116609131Y-118043998D02*
X116555256Y-118043998D01*
X116555256Y-118043998D02*
X116474444Y-118070935D01*
X116474444Y-118070935D02*
X116447506Y-118097872D01*
X116447506Y-118097872D02*
X116420569Y-118178685D01*
X116420569Y-118178685D02*
X116420569Y-118232559D01*
X116420569Y-118232559D02*
X116447506Y-118313372D01*
X116447506Y-118313372D02*
X116555256Y-118421121D01*
X116555256Y-118421121D02*
X116582193Y-118501933D01*
X116582193Y-118501933D02*
X116582193Y-118555808D01*
X116582193Y-118555808D02*
X116555256Y-118636620D01*
X116555256Y-118636620D02*
X116447506Y-118744370D01*
X116447506Y-118744370D02*
X116366694Y-118771307D01*
X116366694Y-118771307D02*
X116312819Y-118771307D01*
X116312819Y-118771307D02*
X116232007Y-118744370D01*
X116232007Y-118744370D02*
X116124258Y-118636620D01*
X116124258Y-118636620D02*
X116097320Y-118555808D01*
X116097320Y-118555808D02*
X116097320Y-118501933D01*
X116097320Y-118501933D02*
X116124258Y-118421121D01*
X116124258Y-118421121D02*
X116232007Y-118313372D01*
X116232007Y-118313372D02*
X116312819Y-118286434D01*
X116312819Y-118286434D02*
X116366694Y-118286434D01*
X116366694Y-118286434D02*
X116447506Y-118313372D01*
X138206001Y-120140868D02*
X138286814Y-120167805D01*
X138286814Y-120167805D02*
X138367626Y-120248618D01*
X138367626Y-120248618D02*
X138421501Y-120356367D01*
X138421501Y-120356367D02*
X138421501Y-120464117D01*
X138421501Y-120464117D02*
X138394563Y-120544929D01*
X138394563Y-120544929D02*
X138313751Y-120679616D01*
X138313751Y-120679616D02*
X138232939Y-120760428D01*
X138232939Y-120760428D02*
X138098252Y-120841241D01*
X138098252Y-120841241D02*
X138017439Y-120868178D01*
X138017439Y-120868178D02*
X137909690Y-120868178D01*
X137909690Y-120868178D02*
X137801940Y-120814303D01*
X137801940Y-120814303D02*
X137748065Y-120760428D01*
X137748065Y-120760428D02*
X137694191Y-120652679D01*
X137694191Y-120652679D02*
X137694191Y-120598804D01*
X137694191Y-120598804D02*
X137882752Y-120410242D01*
X137882752Y-120410242D02*
X137990502Y-120517992D01*
X137397879Y-120410242D02*
X137963565Y-119844557D01*
X137963565Y-119844557D02*
X137748065Y-119629057D01*
X137748065Y-119629057D02*
X137667253Y-119602120D01*
X137667253Y-119602120D02*
X137613378Y-119602120D01*
X137613378Y-119602120D02*
X137532566Y-119629057D01*
X137532566Y-119629057D02*
X137451754Y-119709870D01*
X137451754Y-119709870D02*
X137424817Y-119790682D01*
X137424817Y-119790682D02*
X137424817Y-119844557D01*
X137424817Y-119844557D02*
X137451754Y-119925369D01*
X137451754Y-119925369D02*
X137667253Y-120140868D01*
X136535882Y-119548245D02*
X136859131Y-119871494D01*
X136697507Y-119709870D02*
X137263192Y-119144184D01*
X137263192Y-119144184D02*
X137236255Y-119278871D01*
X137236255Y-119278871D02*
X137236255Y-119386621D01*
X137236255Y-119386621D02*
X137263192Y-119467433D01*
X136428133Y-118686248D02*
X136051009Y-119063372D01*
X136778319Y-118605436D02*
X136508945Y-119144184D01*
X136508945Y-119144184D02*
X136158759Y-118793998D01*
D12*
X131380952Y-132976219D02*
X131714285Y-132500028D01*
X131952380Y-132976219D02*
X131952380Y-131976219D01*
X131952380Y-131976219D02*
X131571428Y-131976219D01*
X131571428Y-131976219D02*
X131476190Y-132023838D01*
X131476190Y-132023838D02*
X131428571Y-132071457D01*
X131428571Y-132071457D02*
X131380952Y-132166695D01*
X131380952Y-132166695D02*
X131380952Y-132309552D01*
X131380952Y-132309552D02*
X131428571Y-132404790D01*
X131428571Y-132404790D02*
X131476190Y-132452409D01*
X131476190Y-132452409D02*
X131571428Y-132500028D01*
X131571428Y-132500028D02*
X131952380Y-132500028D01*
X130952380Y-132976219D02*
X130952380Y-131976219D01*
X130952380Y-131976219D02*
X130571428Y-131976219D01*
X130571428Y-131976219D02*
X130476190Y-132023838D01*
X130476190Y-132023838D02*
X130428571Y-132071457D01*
X130428571Y-132071457D02*
X130380952Y-132166695D01*
X130380952Y-132166695D02*
X130380952Y-132309552D01*
X130380952Y-132309552D02*
X130428571Y-132404790D01*
X130428571Y-132404790D02*
X130476190Y-132452409D01*
X130476190Y-132452409D02*
X130571428Y-132500028D01*
X130571428Y-132500028D02*
X130952380Y-132500028D01*
X129999999Y-132071457D02*
X129952380Y-132023838D01*
X129952380Y-132023838D02*
X129857142Y-131976219D01*
X129857142Y-131976219D02*
X129619047Y-131976219D01*
X129619047Y-131976219D02*
X129523809Y-132023838D01*
X129523809Y-132023838D02*
X129476190Y-132071457D01*
X129476190Y-132071457D02*
X129428571Y-132166695D01*
X129428571Y-132166695D02*
X129428571Y-132261933D01*
X129428571Y-132261933D02*
X129476190Y-132404790D01*
X129476190Y-132404790D02*
X130047618Y-132976219D01*
X130047618Y-132976219D02*
X129428571Y-132976219D01*
X128809523Y-131976219D02*
X128714285Y-131976219D01*
X128714285Y-131976219D02*
X128619047Y-132023838D01*
X128619047Y-132023838D02*
X128571428Y-132071457D01*
X128571428Y-132071457D02*
X128523809Y-132166695D01*
X128523809Y-132166695D02*
X128476190Y-132357171D01*
X128476190Y-132357171D02*
X128476190Y-132595266D01*
X128476190Y-132595266D02*
X128523809Y-132785742D01*
X128523809Y-132785742D02*
X128571428Y-132880980D01*
X128571428Y-132880980D02*
X128619047Y-132928600D01*
X128619047Y-132928600D02*
X128714285Y-132976219D01*
X128714285Y-132976219D02*
X128809523Y-132976219D01*
X128809523Y-132976219D02*
X128904761Y-132928600D01*
X128904761Y-132928600D02*
X128952380Y-132880980D01*
X128952380Y-132880980D02*
X128999999Y-132785742D01*
X128999999Y-132785742D02*
X129047618Y-132595266D01*
X129047618Y-132595266D02*
X129047618Y-132357171D01*
X129047618Y-132357171D02*
X128999999Y-132166695D01*
X128999999Y-132166695D02*
X128952380Y-132071457D01*
X128952380Y-132071457D02*
X128904761Y-132023838D01*
X128904761Y-132023838D02*
X128809523Y-131976219D01*
X127619047Y-132309552D02*
X127619047Y-132976219D01*
X127857142Y-131928600D02*
X128095237Y-132642885D01*
X128095237Y-132642885D02*
X127476190Y-132642885D01*
X126904761Y-131976219D02*
X126809523Y-131976219D01*
X126809523Y-131976219D02*
X126714285Y-132023838D01*
X126714285Y-132023838D02*
X126666666Y-132071457D01*
X126666666Y-132071457D02*
X126619047Y-132166695D01*
X126619047Y-132166695D02*
X126571428Y-132357171D01*
X126571428Y-132357171D02*
X126571428Y-132595266D01*
X126571428Y-132595266D02*
X126619047Y-132785742D01*
X126619047Y-132785742D02*
X126666666Y-132880980D01*
X126666666Y-132880980D02*
X126714285Y-132928600D01*
X126714285Y-132928600D02*
X126809523Y-132976219D01*
X126809523Y-132976219D02*
X126904761Y-132976219D01*
X126904761Y-132976219D02*
X126999999Y-132928600D01*
X126999999Y-132928600D02*
X127047618Y-132880980D01*
X127047618Y-132880980D02*
X127095237Y-132785742D01*
X127095237Y-132785742D02*
X127142856Y-132595266D01*
X127142856Y-132595266D02*
X127142856Y-132357171D01*
X127142856Y-132357171D02*
X127095237Y-132166695D01*
X127095237Y-132166695D02*
X127047618Y-132071457D01*
X127047618Y-132071457D02*
X126999999Y-132023838D01*
X126999999Y-132023838D02*
X126904761Y-131976219D01*
X126142856Y-132595266D02*
X125380952Y-132595266D01*
X124999999Y-131976219D02*
X124333333Y-131976219D01*
X124333333Y-131976219D02*
X124999999Y-132976219D01*
X124999999Y-132976219D02*
X124333333Y-132976219D01*
X123571428Y-132928600D02*
X123666666Y-132976219D01*
X123666666Y-132976219D02*
X123857142Y-132976219D01*
X123857142Y-132976219D02*
X123952380Y-132928600D01*
X123952380Y-132928600D02*
X123999999Y-132833361D01*
X123999999Y-132833361D02*
X123999999Y-132452409D01*
X123999999Y-132452409D02*
X123952380Y-132357171D01*
X123952380Y-132357171D02*
X123857142Y-132309552D01*
X123857142Y-132309552D02*
X123666666Y-132309552D01*
X123666666Y-132309552D02*
X123571428Y-132357171D01*
X123571428Y-132357171D02*
X123523809Y-132452409D01*
X123523809Y-132452409D02*
X123523809Y-132547647D01*
X123523809Y-132547647D02*
X123999999Y-132642885D01*
X123095237Y-132976219D02*
X123095237Y-132309552D01*
X123095237Y-132500028D02*
X123047618Y-132404790D01*
X123047618Y-132404790D02*
X122999999Y-132357171D01*
X122999999Y-132357171D02*
X122904761Y-132309552D01*
X122904761Y-132309552D02*
X122809523Y-132309552D01*
X122333332Y-132976219D02*
X122428570Y-132928600D01*
X122428570Y-132928600D02*
X122476189Y-132880980D01*
X122476189Y-132880980D02*
X122523808Y-132785742D01*
X122523808Y-132785742D02*
X122523808Y-132500028D01*
X122523808Y-132500028D02*
X122476189Y-132404790D01*
X122476189Y-132404790D02*
X122428570Y-132357171D01*
X122428570Y-132357171D02*
X122333332Y-132309552D01*
X122333332Y-132309552D02*
X122190475Y-132309552D01*
X122190475Y-132309552D02*
X122095237Y-132357171D01*
X122095237Y-132357171D02*
X122047618Y-132404790D01*
X122047618Y-132404790D02*
X121999999Y-132500028D01*
X121999999Y-132500028D02*
X121999999Y-132785742D01*
X121999999Y-132785742D02*
X122047618Y-132880980D01*
X122047618Y-132880980D02*
X122095237Y-132928600D01*
X122095237Y-132928600D02*
X122190475Y-132976219D01*
X122190475Y-132976219D02*
X122333332Y-132976219D01*
%TO.C,U1*%
D13*
X82153000Y-141537800D02*
X100053000Y-141537800D01*
X100053000Y-153937800D01*
X82153000Y-153937800D01*
X82153000Y-141537800D01*
D14*
G36*
X88498733Y-151565778D02*
G01*
X88578972Y-151620983D01*
X88620970Y-151674992D01*
X88646169Y-151738873D01*
X88654569Y-151812628D01*
X88646095Y-151886383D01*
X88620676Y-151950264D01*
X88578309Y-152004273D01*
X88497573Y-152059478D01*
X88407884Y-152077880D01*
X88318362Y-152059975D01*
X88238123Y-152006262D01*
X88196125Y-151953064D01*
X88170926Y-151888962D01*
X88162526Y-151813954D01*
X88171000Y-151738800D01*
X88196420Y-151674255D01*
X88238786Y-151620320D01*
X88319522Y-151565612D01*
X88409211Y-151547376D01*
X88498733Y-151565778D01*
G37*
G36*
X88721095Y-143490950D02*
G01*
X88801334Y-143546155D01*
X88843332Y-143600164D01*
X88868531Y-143664045D01*
X88876931Y-143737800D01*
X88868458Y-143811555D01*
X88843038Y-143875436D01*
X88800671Y-143929445D01*
X88719935Y-143984650D01*
X88630247Y-144003052D01*
X88540724Y-143985147D01*
X88460485Y-143931434D01*
X88418487Y-143878236D01*
X88393288Y-143814134D01*
X88384889Y-143739126D01*
X88393362Y-143663972D01*
X88418782Y-143599427D01*
X88461149Y-143545492D01*
X88541885Y-143490784D01*
X88631573Y-143472548D01*
X88721095Y-143490950D01*
G37*
G36*
X100073247Y-152882680D02*
G01*
X96662606Y-152882680D01*
X96542551Y-152882680D01*
X95560287Y-152882680D01*
X94927272Y-152882680D01*
X94827681Y-152882680D01*
X94486617Y-152882680D01*
X93845553Y-152882680D01*
X94105307Y-152016832D01*
X94827681Y-152016832D01*
X94835184Y-152078906D01*
X94859059Y-152112330D01*
X94927272Y-152124608D01*
X95251965Y-152124608D01*
X95313015Y-152113012D01*
X95343370Y-152078224D01*
X95350191Y-152015468D01*
X95342006Y-151954076D01*
X95316085Y-151921334D01*
X95250601Y-151909056D01*
X94925908Y-151909056D01*
X94865198Y-151920311D01*
X94835867Y-151954076D01*
X94827681Y-152016832D01*
X94105307Y-152016832D01*
X94279250Y-151437023D01*
X95438868Y-151437023D01*
X95438868Y-152194185D01*
X95440914Y-152241934D01*
X95453875Y-152277405D01*
X95490028Y-152305031D01*
X95560287Y-152314240D01*
X95633957Y-152306054D01*
X95668063Y-152280134D01*
X95764546Y-152151590D01*
X95849358Y-152038812D01*
X95922497Y-151941798D01*
X95983964Y-151860549D01*
X96033760Y-151795065D01*
X96071883Y-151745345D01*
X96071883Y-152194185D01*
X96073929Y-152241934D01*
X96086890Y-152277405D01*
X96123043Y-152305031D01*
X96193302Y-152314240D01*
X96261515Y-152305031D01*
X96296985Y-152277405D01*
X96309946Y-152240570D01*
X96311992Y-152192821D01*
X96311992Y-151435659D01*
X96421133Y-151435659D01*
X96421133Y-152194185D01*
X96423179Y-152241934D01*
X96436139Y-152277405D01*
X96472292Y-152305031D01*
X96542551Y-152314240D01*
X96618268Y-152301280D01*
X96654420Y-152262398D01*
X96662606Y-152192821D01*
X96662606Y-151434295D01*
X96660560Y-151387228D01*
X96647599Y-151351075D01*
X96611446Y-151323449D01*
X96541187Y-151314240D01*
X96465130Y-151326859D01*
X96427954Y-151364717D01*
X96421133Y-151435659D01*
X96311992Y-151435659D01*
X96311992Y-151431566D01*
X96299032Y-151355850D01*
X96260150Y-151323790D01*
X96193302Y-151315604D01*
X96128500Y-151323108D01*
X96095075Y-151340161D01*
X96063697Y-151375632D01*
X95973050Y-151498756D01*
X95893014Y-151607100D01*
X95823588Y-151700666D01*
X95764774Y-151779451D01*
X95716570Y-151843458D01*
X95678977Y-151892685D01*
X95678977Y-151431566D01*
X95666017Y-151355850D01*
X95627135Y-151323790D01*
X95562333Y-151315604D01*
X95499577Y-151322426D01*
X95464107Y-151338797D01*
X95447053Y-151367446D01*
X95438868Y-151437023D01*
X94279250Y-151437023D01*
X94486617Y-150745800D01*
X94827681Y-150745800D01*
X96662606Y-150745800D01*
X100073247Y-150745800D01*
X100073247Y-152882680D01*
G37*
G36*
X100111967Y-144806240D02*
G01*
X96701326Y-144806240D01*
X96581271Y-144806240D01*
X95599007Y-144806240D01*
X95063536Y-144806240D01*
X94738161Y-144806240D01*
X94397097Y-144806240D01*
X94114628Y-143864676D01*
X94738161Y-143864676D01*
X94744982Y-143926750D01*
X94768175Y-143959492D01*
X94837752Y-143971770D01*
X94955078Y-143971770D01*
X94955078Y-144082275D01*
X94966674Y-144151852D01*
X95001462Y-144181183D01*
X95063536Y-144188687D01*
X95125610Y-144181183D01*
X95158352Y-144155945D01*
X95170630Y-144080911D01*
X95170630Y-143971770D01*
X95289321Y-143971770D01*
X95354805Y-143960856D01*
X95382090Y-143926067D01*
X95388911Y-143863994D01*
X95381408Y-143801920D01*
X95354805Y-143768496D01*
X95279771Y-143756217D01*
X95170630Y-143756217D01*
X95170630Y-143645713D01*
X95159716Y-143576136D01*
X95124928Y-143546804D01*
X95062854Y-143539301D01*
X95000780Y-143546804D01*
X94967356Y-143572043D01*
X94955078Y-143647077D01*
X94955078Y-143756217D01*
X94844573Y-143756217D01*
X94774996Y-143767814D01*
X94745664Y-143802602D01*
X94738161Y-143864676D01*
X94114628Y-143864676D01*
X93963400Y-143360583D01*
X95477588Y-143360583D01*
X95477588Y-144117745D01*
X95479634Y-144165494D01*
X95492595Y-144200965D01*
X95528748Y-144228591D01*
X95599007Y-144237800D01*
X95672677Y-144229614D01*
X95706783Y-144203694D01*
X95803266Y-144075150D01*
X95888078Y-143962372D01*
X95961217Y-143865358D01*
X96022684Y-143784109D01*
X96072480Y-143718625D01*
X96110603Y-143668905D01*
X96110603Y-144117745D01*
X96112649Y-144165494D01*
X96125610Y-144200965D01*
X96161763Y-144228591D01*
X96232022Y-144237800D01*
X96300235Y-144228591D01*
X96335705Y-144200965D01*
X96348666Y-144164130D01*
X96350712Y-144116381D01*
X96350712Y-143359219D01*
X96459853Y-143359219D01*
X96459853Y-144117745D01*
X96461899Y-144165494D01*
X96474859Y-144200965D01*
X96511012Y-144228591D01*
X96581271Y-144237800D01*
X96656988Y-144224840D01*
X96693141Y-144185958D01*
X96701326Y-144116381D01*
X96701326Y-143357855D01*
X96699280Y-143310788D01*
X96686319Y-143274635D01*
X96650166Y-143247009D01*
X96579907Y-143237800D01*
X96503850Y-143250419D01*
X96466674Y-143288277D01*
X96459853Y-143359219D01*
X96350712Y-143359219D01*
X96350712Y-143355126D01*
X96337752Y-143279410D01*
X96298870Y-143247350D01*
X96232022Y-143239164D01*
X96167220Y-143246668D01*
X96133795Y-143263721D01*
X96102417Y-143299192D01*
X96011770Y-143422316D01*
X95931734Y-143530660D01*
X95862308Y-143624226D01*
X95803494Y-143703011D01*
X95755290Y-143767018D01*
X95717697Y-143816245D01*
X95717697Y-143355126D01*
X95704737Y-143279410D01*
X95665855Y-143247350D01*
X95601053Y-143239164D01*
X95538297Y-143245986D01*
X95502827Y-143262357D01*
X95485774Y-143291006D01*
X95477588Y-143360583D01*
X93963400Y-143360583D01*
X93756033Y-142669360D01*
X94397097Y-142669360D01*
X94738161Y-142669360D01*
X96701326Y-142669360D01*
X100111967Y-142669360D01*
X100111967Y-144806240D01*
G37*
G36*
X89852447Y-152865236D02*
G01*
X89220882Y-152865236D01*
X88889317Y-152865236D01*
X88405232Y-152865236D01*
X87415179Y-152865236D01*
X86447672Y-152865236D01*
X85517964Y-152865236D01*
X85421147Y-152865236D01*
X82105497Y-152865236D01*
X82105497Y-152007588D01*
X85421147Y-152007588D01*
X85428441Y-152067933D01*
X85451651Y-152100426D01*
X85517964Y-152112363D01*
X85833614Y-152112363D01*
X85892964Y-152101090D01*
X85922473Y-152067270D01*
X85929105Y-152006262D01*
X85921147Y-151946580D01*
X85895948Y-151914750D01*
X85832288Y-151902814D01*
X85516638Y-151902814D01*
X85457619Y-151913755D01*
X85429105Y-151946580D01*
X85421147Y-152007588D01*
X82105497Y-152007588D01*
X82105497Y-151420055D01*
X85982155Y-151420055D01*
X85988786Y-151475095D01*
X86011333Y-151503609D01*
X86078972Y-151515546D01*
X86332288Y-151515546D01*
X86332288Y-152182655D01*
X86334277Y-152227747D01*
X86346213Y-152261567D01*
X86381359Y-152288755D01*
X86447672Y-152296713D01*
X86513322Y-152288755D01*
X86547805Y-152261567D01*
X86559741Y-152227084D01*
X86561731Y-152181328D01*
X86561731Y-151515546D01*
X86816373Y-151515546D01*
X86878707Y-151505599D01*
X86905232Y-151474432D01*
X86909021Y-151442601D01*
X86984808Y-151442601D01*
X86984808Y-151843132D01*
X86991605Y-151928676D01*
X87011996Y-152010241D01*
X87045981Y-152087827D01*
X87093561Y-152161434D01*
X87154237Y-152222608D01*
X87230166Y-152270851D01*
X87318196Y-152302184D01*
X87415179Y-152312628D01*
X87511996Y-152302018D01*
X87599529Y-152270188D01*
X87674628Y-152221116D01*
X87734144Y-152158782D01*
X87781144Y-152086169D01*
X87814715Y-152008914D01*
X87834857Y-151927018D01*
X87841571Y-151840479D01*
X87841571Y-151806660D01*
X87927778Y-151806660D01*
X87936399Y-151907870D01*
X87962261Y-152001288D01*
X88005365Y-152086915D01*
X88065709Y-152164750D01*
X88138654Y-152229447D01*
X88219556Y-152275659D01*
X88308415Y-152303386D01*
X88405232Y-152312628D01*
X88502256Y-152303510D01*
X88591737Y-152276156D01*
X88673675Y-152230566D01*
X88748070Y-152166739D01*
X88809866Y-152090314D01*
X88854005Y-152006925D01*
X88880489Y-151916574D01*
X88889317Y-151819259D01*
X88879370Y-151712661D01*
X88849529Y-151613026D01*
X88803110Y-151524664D01*
X88743428Y-151451885D01*
X88672142Y-151393861D01*
X88590908Y-151349763D01*
X88503375Y-151321912D01*
X88413190Y-151312628D01*
X88318279Y-151321497D01*
X88229834Y-151348105D01*
X88147855Y-151392452D01*
X88072341Y-151454538D01*
X88009095Y-151529762D01*
X87963919Y-151613523D01*
X87936814Y-151705823D01*
X87927778Y-151806660D01*
X87841571Y-151806660D01*
X87841571Y-151441275D01*
X87839582Y-151394193D01*
X87826983Y-151359047D01*
X87791174Y-151331196D01*
X87723534Y-151323238D01*
X87655895Y-151331196D01*
X87621412Y-151359047D01*
X87605497Y-151442601D01*
X87605497Y-151840479D01*
X87595550Y-151919392D01*
X87565709Y-151994326D01*
X87506028Y-152054007D01*
X87411863Y-152076554D01*
X87327314Y-152058649D01*
X87267301Y-152004936D01*
X87231492Y-151927681D01*
X87219556Y-151839153D01*
X87219556Y-151433318D01*
X87206293Y-151360373D01*
X87167831Y-151331196D01*
X87104834Y-151323238D01*
X87044489Y-151329869D01*
X87010006Y-151345784D01*
X86992765Y-151373636D01*
X86984808Y-151442601D01*
X86909021Y-151442601D01*
X86911863Y-151418729D01*
X86905232Y-151363689D01*
X86882686Y-151335174D01*
X86815046Y-151323238D01*
X86077646Y-151323238D01*
X86015312Y-151333185D01*
X85988786Y-151364352D01*
X85982155Y-151420055D01*
X82105497Y-151420055D01*
X82105497Y-150760020D01*
X85421147Y-150760020D01*
X88889317Y-150760020D01*
X89220882Y-150760020D01*
X89852447Y-152865236D01*
G37*
G36*
X89443244Y-144790408D02*
G01*
X89111679Y-144790408D01*
X88627594Y-144790408D01*
X87637541Y-144790408D01*
X86670034Y-144790408D01*
X85835154Y-144790408D01*
X85518841Y-144790408D01*
X82203191Y-144790408D01*
X82203191Y-143859153D01*
X85518841Y-143859153D01*
X85525472Y-143919498D01*
X85548019Y-143951328D01*
X85615658Y-143963264D01*
X85729716Y-143963264D01*
X85729716Y-144070691D01*
X85740989Y-144138331D01*
X85774809Y-144166845D01*
X85835154Y-144174140D01*
X85895499Y-144166845D01*
X85927329Y-144142309D01*
X85939265Y-144069365D01*
X85939265Y-143963264D01*
X86054650Y-143963264D01*
X86118310Y-143952654D01*
X86144836Y-143918834D01*
X86151467Y-143858490D01*
X86144172Y-143798145D01*
X86118310Y-143765651D01*
X86045366Y-143753715D01*
X85939265Y-143753715D01*
X85939265Y-143646288D01*
X85928655Y-143578649D01*
X85894836Y-143550134D01*
X85834491Y-143542840D01*
X85774146Y-143550134D01*
X85741653Y-143574670D01*
X85729716Y-143647614D01*
X85729716Y-143753715D01*
X85622289Y-143753715D01*
X85554650Y-143764988D01*
X85526135Y-143798808D01*
X85518841Y-143859153D01*
X82203191Y-143859153D01*
X82203191Y-143345227D01*
X86204517Y-143345227D01*
X86211149Y-143400267D01*
X86233695Y-143428781D01*
X86301334Y-143440718D01*
X86554650Y-143440718D01*
X86554650Y-144107827D01*
X86556639Y-144152919D01*
X86568576Y-144186739D01*
X86603721Y-144213927D01*
X86670034Y-144221885D01*
X86735684Y-144213927D01*
X86770167Y-144186739D01*
X86782103Y-144152256D01*
X86784093Y-144106500D01*
X86784093Y-143440718D01*
X87038735Y-143440718D01*
X87101069Y-143430771D01*
X87127594Y-143399604D01*
X87131383Y-143367773D01*
X87207170Y-143367773D01*
X87207170Y-143768304D01*
X87213967Y-143853848D01*
X87234358Y-143935413D01*
X87268344Y-144012999D01*
X87315923Y-144086606D01*
X87376599Y-144147780D01*
X87452528Y-144196023D01*
X87540558Y-144227356D01*
X87637541Y-144237800D01*
X87734358Y-144227190D01*
X87821891Y-144195360D01*
X87896991Y-144146288D01*
X87956507Y-144083954D01*
X88003506Y-144011341D01*
X88037077Y-143934086D01*
X88057219Y-143852190D01*
X88063934Y-143765651D01*
X88063934Y-143731832D01*
X88150141Y-143731832D01*
X88158761Y-143833042D01*
X88184623Y-143926460D01*
X88227727Y-144012087D01*
X88288072Y-144089922D01*
X88361016Y-144154619D01*
X88441918Y-144200831D01*
X88530777Y-144228558D01*
X88627594Y-144237800D01*
X88724618Y-144228682D01*
X88814099Y-144201328D01*
X88896037Y-144155738D01*
X88970432Y-144091911D01*
X89032228Y-144015486D01*
X89076367Y-143932097D01*
X89102851Y-143841746D01*
X89111679Y-143744431D01*
X89101732Y-143637833D01*
X89071891Y-143538198D01*
X89025472Y-143449836D01*
X88965790Y-143377057D01*
X88894504Y-143319033D01*
X88813271Y-143274935D01*
X88725737Y-143247084D01*
X88635552Y-143237800D01*
X88540641Y-143246669D01*
X88452196Y-143273277D01*
X88370217Y-143317624D01*
X88294703Y-143379710D01*
X88231457Y-143454934D01*
X88186281Y-143538695D01*
X88159176Y-143630995D01*
X88150141Y-143731832D01*
X88063934Y-143731832D01*
X88063934Y-143366447D01*
X88061944Y-143319365D01*
X88049345Y-143284219D01*
X88013536Y-143256368D01*
X87945897Y-143248410D01*
X87878257Y-143256368D01*
X87843775Y-143284219D01*
X87827859Y-143367773D01*
X87827859Y-143765651D01*
X87817912Y-143844564D01*
X87788072Y-143919498D01*
X87728390Y-143979179D01*
X87634225Y-144001726D01*
X87549676Y-143983821D01*
X87489663Y-143930108D01*
X87453854Y-143852853D01*
X87441918Y-143764325D01*
X87441918Y-143358490D01*
X87428655Y-143285545D01*
X87390194Y-143256368D01*
X87327196Y-143248410D01*
X87266851Y-143255041D01*
X87232369Y-143270956D01*
X87215127Y-143298808D01*
X87207170Y-143367773D01*
X87131383Y-143367773D01*
X87134225Y-143343901D01*
X87127594Y-143288861D01*
X87105048Y-143260346D01*
X87037408Y-143248410D01*
X86300008Y-143248410D01*
X86237674Y-143258357D01*
X86211149Y-143289524D01*
X86204517Y-143345227D01*
X82203191Y-143345227D01*
X82203191Y-142685192D01*
X85518841Y-142685192D01*
X89111679Y-142685192D01*
X89443244Y-142685192D01*
X90074809Y-142685192D01*
X89443244Y-144790408D01*
G37*
D12*
%TO.C,U2*%
X118012300Y-141700000D02*
X118012300Y-120200000D01*
X121482300Y-119200000D02*
X119012300Y-119200000D01*
X121482300Y-119200000D02*
X119012300Y-119200000D01*
X122512300Y-142700000D02*
X119012300Y-142700000D01*
X131512300Y-142700000D02*
X122512300Y-142700000D01*
X132542300Y-119200000D02*
X121482300Y-119200000D01*
X135012300Y-142700000D02*
X131512300Y-142700000D01*
X135012301Y-119200000D02*
X132542300Y-119200000D01*
X135012302Y-119200000D02*
X132542300Y-119200000D01*
X136012300Y-120199999D02*
X136012300Y-141700002D01*
X118012300Y-120200000D02*
G75*
G02*
X119012300Y-119200000I1000000J0D01*
G01*
X118012300Y-120200000D02*
G75*
G02*
X119012300Y-119200000I1000000J0D01*
G01*
X119012300Y-142700000D02*
G75*
G02*
X118012300Y-141700000I0J1000000D01*
G01*
X119012300Y-142700000D02*
G75*
G02*
X118012300Y-141700000I0J1000000D01*
G01*
X135012301Y-119200000D02*
G75*
G02*
X136012300Y-120199999I0J-999999D01*
G01*
X135012302Y-119200000D02*
G75*
G02*
X136012300Y-120199999I-3J-1000001D01*
G01*
X136012300Y-141700002D02*
G75*
G02*
X135012301Y-142700000I-1000001J3D01*
G01*
D14*
%TO.C,kibuzzard-66706B28*%
G36*
X59788479Y-73000000D02*
G01*
X59217896Y-73855874D01*
X58876366Y-73855874D01*
X58549863Y-73855874D01*
X57630464Y-73855874D01*
X57123634Y-73855874D01*
X56782104Y-73855874D01*
X56211521Y-73000000D01*
X56480647Y-72596311D01*
X57123634Y-72596311D01*
X57144126Y-72661885D01*
X57521175Y-73426913D01*
X57566940Y-73475410D01*
X57630464Y-73493852D01*
X57644126Y-73493852D01*
X57709016Y-73475410D01*
X57754781Y-73426913D01*
X57881699Y-73169399D01*
X58206967Y-73169399D01*
X58217896Y-73259259D01*
X58250683Y-73340316D01*
X58305328Y-73412568D01*
X58376214Y-73469111D01*
X58457726Y-73503036D01*
X58549863Y-73514344D01*
X58631831Y-73507210D01*
X58708333Y-73485808D01*
X58779372Y-73450137D01*
X58813525Y-73424180D01*
X58824454Y-73414617D01*
X58876366Y-73332650D01*
X58825820Y-73243852D01*
X58746585Y-73198770D01*
X58655055Y-73242486D01*
X58569672Y-73271175D01*
X58479508Y-73245219D01*
X58450137Y-73173497D01*
X58482240Y-73101093D01*
X58555328Y-73074454D01*
X58620902Y-73099044D01*
X58695355Y-73130464D01*
X58781421Y-73104508D01*
X58844945Y-73062842D01*
X58859973Y-73029372D01*
X58853142Y-72965505D01*
X58832650Y-72809426D01*
X58811817Y-72655738D01*
X58803962Y-72599044D01*
X58794399Y-72570355D01*
X58774590Y-72533470D01*
X58739071Y-72504098D01*
X58683743Y-72491120D01*
X58476093Y-72492486D01*
X58347678Y-72492486D01*
X58299863Y-72494536D01*
X58264344Y-72507514D01*
X58236680Y-72544399D01*
X58227459Y-72616803D01*
X58235997Y-72682719D01*
X58261612Y-72716530D01*
X58295082Y-72729508D01*
X58339481Y-72731557D01*
X58578552Y-72731557D01*
X58592213Y-72835383D01*
X58544399Y-72832650D01*
X58460762Y-72843503D01*
X58382893Y-72876063D01*
X58310792Y-72930328D01*
X58253112Y-73000304D01*
X58218503Y-73079994D01*
X58206967Y-73169399D01*
X57881699Y-73169399D01*
X58131831Y-72661885D01*
X58152322Y-72596311D01*
X58132172Y-72550546D01*
X58071721Y-72508880D01*
X58002732Y-72485656D01*
X57966530Y-72491120D01*
X57943306Y-72510246D01*
X57920765Y-72546448D01*
X57902493Y-72584699D01*
X57868169Y-72659836D01*
X57824283Y-72756318D01*
X57777322Y-72858607D01*
X57730191Y-72960895D01*
X57685792Y-73057377D01*
X57652152Y-73130294D01*
X57637295Y-73161885D01*
X57364071Y-72563525D01*
X57344945Y-72522541D01*
X57284836Y-72485656D01*
X57204235Y-72508880D01*
X57143784Y-72550546D01*
X57123634Y-72596311D01*
X56480647Y-72596311D01*
X56782104Y-72144126D01*
X57123634Y-72144126D01*
X58876366Y-72144126D01*
X59217896Y-72144126D01*
X59788479Y-73000000D01*
G37*
G36*
X77038479Y-148000000D02*
G01*
X76467896Y-148855874D01*
X76126366Y-148855874D01*
X75799863Y-148855874D01*
X74880464Y-148855874D01*
X74373634Y-148855874D01*
X74032104Y-148855874D01*
X73461521Y-148000000D01*
X73730647Y-147596311D01*
X74373634Y-147596311D01*
X74394126Y-147661885D01*
X74771175Y-148426913D01*
X74816940Y-148475410D01*
X74880464Y-148493852D01*
X74894126Y-148493852D01*
X74959016Y-148475410D01*
X75004781Y-148426913D01*
X75131699Y-148169399D01*
X75456967Y-148169399D01*
X75467896Y-148259259D01*
X75500683Y-148340316D01*
X75555328Y-148412568D01*
X75626214Y-148469111D01*
X75707726Y-148503036D01*
X75799863Y-148514344D01*
X75881831Y-148507210D01*
X75958333Y-148485808D01*
X76029372Y-148450137D01*
X76063525Y-148424180D01*
X76074454Y-148414617D01*
X76126366Y-148332650D01*
X76075820Y-148243852D01*
X75996585Y-148198770D01*
X75905055Y-148242486D01*
X75819672Y-148271175D01*
X75729508Y-148245219D01*
X75700137Y-148173497D01*
X75732240Y-148101093D01*
X75805328Y-148074454D01*
X75870902Y-148099044D01*
X75945355Y-148130464D01*
X76031421Y-148104508D01*
X76094945Y-148062842D01*
X76109973Y-148029372D01*
X76103142Y-147965505D01*
X76082650Y-147809426D01*
X76061817Y-147655738D01*
X76053962Y-147599044D01*
X76044399Y-147570355D01*
X76024590Y-147533470D01*
X75989071Y-147504098D01*
X75933743Y-147491120D01*
X75726093Y-147492486D01*
X75597678Y-147492486D01*
X75549863Y-147494536D01*
X75514344Y-147507514D01*
X75486680Y-147544399D01*
X75477459Y-147616803D01*
X75485997Y-147682719D01*
X75511612Y-147716530D01*
X75545082Y-147729508D01*
X75589481Y-147731557D01*
X75828552Y-147731557D01*
X75842213Y-147835383D01*
X75794399Y-147832650D01*
X75710762Y-147843503D01*
X75632893Y-147876063D01*
X75560792Y-147930328D01*
X75503112Y-148000304D01*
X75468503Y-148079994D01*
X75456967Y-148169399D01*
X75131699Y-148169399D01*
X75381831Y-147661885D01*
X75402322Y-147596311D01*
X75382172Y-147550546D01*
X75321721Y-147508880D01*
X75252732Y-147485656D01*
X75216530Y-147491120D01*
X75193306Y-147510246D01*
X75170765Y-147546448D01*
X75152493Y-147584699D01*
X75118169Y-147659836D01*
X75074283Y-147756318D01*
X75027322Y-147858607D01*
X74980191Y-147960895D01*
X74935792Y-148057377D01*
X74902152Y-148130294D01*
X74887295Y-148161885D01*
X74614071Y-147563525D01*
X74594945Y-147522541D01*
X74534836Y-147485656D01*
X74454235Y-147508880D01*
X74393784Y-147550546D01*
X74373634Y-147596311D01*
X73730647Y-147596311D01*
X74032104Y-147144126D01*
X74373634Y-147144126D01*
X76126366Y-147144126D01*
X76467896Y-147144126D01*
X77038479Y-148000000D01*
G37*
%TO.C,kibuzzard-667073A4*%
G36*
X136369991Y-80000000D02*
G01*
X135802596Y-80851093D01*
X135461066Y-80851093D01*
X135340847Y-80851093D01*
X134148224Y-80851093D01*
X133482240Y-80851093D01*
X133038934Y-80851093D01*
X132697404Y-80851093D01*
X132130009Y-80000000D01*
X132387750Y-79613388D01*
X133038934Y-79613388D01*
X133038934Y-80025956D01*
X133045936Y-80114071D01*
X133066940Y-80198087D01*
X133101947Y-80278005D01*
X133150956Y-80353825D01*
X133213456Y-80416837D01*
X133291667Y-80466530D01*
X133382343Y-80498805D01*
X133482240Y-80509563D01*
X133581967Y-80498634D01*
X133672131Y-80465847D01*
X133749488Y-80415301D01*
X133810792Y-80351093D01*
X133859204Y-80276298D01*
X133893784Y-80196721D01*
X133914532Y-80112363D01*
X133921448Y-80023224D01*
X133921448Y-79614754D01*
X134030738Y-79614754D01*
X134030738Y-80372951D01*
X134043716Y-80447746D01*
X134082650Y-80483607D01*
X134148224Y-80491803D01*
X134211066Y-80484973D01*
X134246585Y-80468579D01*
X134265710Y-80441257D01*
X134272541Y-80370219D01*
X134272541Y-79912568D01*
X134314549Y-79967384D01*
X134372268Y-80047131D01*
X134425888Y-80122097D01*
X134455601Y-80162568D01*
X134480191Y-80194672D01*
X134513661Y-80219262D01*
X134571038Y-80234973D01*
X134627049Y-80220628D01*
X134663251Y-80192623D01*
X134674180Y-80177596D01*
X134714822Y-80124146D01*
X134782104Y-80032104D01*
X134844262Y-79946551D01*
X134869536Y-79912568D01*
X134869536Y-80372951D01*
X134871585Y-80420082D01*
X134884563Y-80454918D01*
X134921448Y-80482582D01*
X134991120Y-80491803D01*
X135058743Y-80482582D01*
X135094945Y-80454918D01*
X135107923Y-80419399D01*
X135109973Y-80370219D01*
X135109973Y-79613388D01*
X135219262Y-79613388D01*
X135219262Y-80372951D01*
X135221311Y-80420765D01*
X135234290Y-80456284D01*
X135270492Y-80483948D01*
X135340847Y-80493169D01*
X135416667Y-80480191D01*
X135452869Y-80441257D01*
X135461066Y-80371585D01*
X135461066Y-79612022D01*
X135459016Y-79564891D01*
X135446038Y-79528689D01*
X135409836Y-79501025D01*
X135339481Y-79491803D01*
X135263320Y-79504440D01*
X135226093Y-79542350D01*
X135219262Y-79613388D01*
X135109973Y-79613388D01*
X135109973Y-79612022D01*
X135107923Y-79564891D01*
X135094945Y-79528689D01*
X135058060Y-79502049D01*
X134988388Y-79493169D01*
X134924863Y-79502049D01*
X134890027Y-79520492D01*
X134881831Y-79528689D01*
X134571721Y-79935792D01*
X134485000Y-79821202D01*
X134410628Y-79723333D01*
X134348607Y-79642186D01*
X134298934Y-79577760D01*
X134261612Y-79530055D01*
X134222507Y-79502391D01*
X134151639Y-79493169D01*
X134081796Y-79502391D01*
X134045765Y-79530055D01*
X134032787Y-79566940D01*
X134030738Y-79614754D01*
X133921448Y-79614754D01*
X133921448Y-79612022D01*
X133919399Y-79563525D01*
X133906421Y-79527322D01*
X133869536Y-79498634D01*
X133799863Y-79490437D01*
X133730191Y-79498634D01*
X133694672Y-79527322D01*
X133678279Y-79613388D01*
X133678279Y-80023224D01*
X133668033Y-80104508D01*
X133637295Y-80181694D01*
X133575820Y-80243169D01*
X133478825Y-80266393D01*
X133391735Y-80247951D01*
X133329918Y-80192623D01*
X133293033Y-80113046D01*
X133280738Y-80021858D01*
X133280738Y-79603825D01*
X133267077Y-79528689D01*
X133227459Y-79498634D01*
X133162568Y-79490437D01*
X133100410Y-79497268D01*
X133064891Y-79513661D01*
X133047131Y-79542350D01*
X133038934Y-79613388D01*
X132387750Y-79613388D01*
X132697404Y-79148907D01*
X133038934Y-79148907D01*
X135461066Y-79148907D01*
X135802596Y-79148907D01*
X136369991Y-80000000D01*
G37*
%TO.C,kibuzzard-667070EB*%
G36*
X82913934Y-143750000D02*
G01*
X82341530Y-144608607D01*
X82000000Y-144608607D01*
X81621585Y-144608607D01*
X81033470Y-144608607D01*
X80467213Y-144608607D01*
X79506831Y-144608607D01*
X79000000Y-144608607D01*
X78658470Y-144608607D01*
X78086066Y-143750000D01*
X78352459Y-143350410D01*
X79000000Y-143350410D01*
X79020492Y-143415984D01*
X79397541Y-144181011D01*
X79443306Y-144229508D01*
X79506831Y-144247951D01*
X79520492Y-144247951D01*
X79585383Y-144229508D01*
X79631148Y-144181011D01*
X79754362Y-143931011D01*
X80083333Y-143931011D01*
X80095477Y-144022769D01*
X80131906Y-144103142D01*
X80192623Y-144172131D01*
X80271706Y-144224879D01*
X80363236Y-144256527D01*
X80467213Y-144267077D01*
X80570431Y-144256451D01*
X80661506Y-144224575D01*
X80740437Y-144171448D01*
X80779030Y-144128757D01*
X80784771Y-144119536D01*
X80913934Y-144119536D01*
X80913934Y-144125000D01*
X80915984Y-144173497D01*
X80930328Y-144211066D01*
X80966359Y-144240779D01*
X81033470Y-144250683D01*
X81102117Y-144244194D01*
X81142760Y-144224727D01*
X81169399Y-144126366D01*
X81169399Y-144120902D01*
X81167350Y-144073087D01*
X81154372Y-144036202D01*
X81118340Y-144005464D01*
X81051230Y-143995219D01*
X80981387Y-144002391D01*
X80937158Y-144023907D01*
X80913934Y-144119536D01*
X80784771Y-144119536D01*
X80812842Y-144074454D01*
X80827869Y-144038934D01*
X80830601Y-144025273D01*
X80845628Y-143951503D01*
X80834086Y-143931011D01*
X81237705Y-143931011D01*
X81249848Y-144022769D01*
X81286278Y-144103142D01*
X81346995Y-144172131D01*
X81426078Y-144224879D01*
X81517608Y-144256527D01*
X81621585Y-144267077D01*
X81724803Y-144256451D01*
X81815877Y-144224575D01*
X81894809Y-144171448D01*
X81933402Y-144128757D01*
X81967213Y-144074454D01*
X81982240Y-144038934D01*
X81984973Y-144025273D01*
X82000000Y-143951503D01*
X81966530Y-143892077D01*
X81866120Y-143872268D01*
X81793716Y-143885929D01*
X81752732Y-143956967D01*
X81677596Y-144022541D01*
X81620219Y-144030738D01*
X81557377Y-144023395D01*
X81513661Y-144001366D01*
X81479508Y-143935109D01*
X81512978Y-143870219D01*
X81592213Y-143842213D01*
X81654372Y-143839481D01*
X81689891Y-143825820D01*
X81717555Y-143790642D01*
X81726776Y-143720628D01*
X81714139Y-143644467D01*
X81676230Y-143607240D01*
X81605191Y-143600410D01*
X81527322Y-143587090D01*
X81501366Y-143547131D01*
X81528689Y-143492486D01*
X81604508Y-143466530D01*
X81681694Y-143482923D01*
X81717213Y-143515710D01*
X81725410Y-143532104D01*
X81763661Y-143583333D01*
X81815574Y-143600410D01*
X81890710Y-143575820D01*
X81941940Y-143533128D01*
X81959016Y-143484290D01*
X81927596Y-143391393D01*
X81897541Y-143348361D01*
X81840847Y-143294399D01*
X81750683Y-143252049D01*
X81689378Y-143237705D01*
X81621585Y-143232923D01*
X81517456Y-143243549D01*
X81429114Y-143275425D01*
X81356557Y-143328552D01*
X81302672Y-143394961D01*
X81270340Y-143466682D01*
X81259563Y-143543716D01*
X81271403Y-143616044D01*
X81306922Y-143673649D01*
X81366120Y-143716530D01*
X81366120Y-143726093D01*
X81325820Y-143755464D01*
X81282787Y-143799863D01*
X81248975Y-143861339D01*
X81237705Y-143931011D01*
X80834086Y-143931011D01*
X80812158Y-143892077D01*
X80711749Y-143872268D01*
X80639344Y-143885929D01*
X80598361Y-143956967D01*
X80523224Y-144022541D01*
X80465847Y-144030738D01*
X80403005Y-144023395D01*
X80359290Y-144001366D01*
X80325137Y-143935109D01*
X80358607Y-143870219D01*
X80437842Y-143842213D01*
X80500000Y-143839481D01*
X80535519Y-143825820D01*
X80563183Y-143790642D01*
X80572404Y-143720628D01*
X80559768Y-143644467D01*
X80521858Y-143607240D01*
X80450820Y-143600410D01*
X80372951Y-143587090D01*
X80346995Y-143547131D01*
X80374317Y-143492486D01*
X80450137Y-143466530D01*
X80527322Y-143482923D01*
X80562842Y-143515710D01*
X80571038Y-143532104D01*
X80609290Y-143583333D01*
X80661202Y-143600410D01*
X80736339Y-143575820D01*
X80787568Y-143533128D01*
X80804645Y-143484290D01*
X80773224Y-143391393D01*
X80743169Y-143348361D01*
X80686475Y-143294399D01*
X80596311Y-143252049D01*
X80535007Y-143237705D01*
X80467213Y-143232923D01*
X80363084Y-143243549D01*
X80274742Y-143275425D01*
X80202186Y-143328552D01*
X80148300Y-143394961D01*
X80115968Y-143466682D01*
X80105191Y-143543716D01*
X80117031Y-143616044D01*
X80152550Y-143673649D01*
X80211749Y-143716530D01*
X80211749Y-143726093D01*
X80171448Y-143755464D01*
X80128415Y-143799863D01*
X80094604Y-143861339D01*
X80083333Y-143931011D01*
X79754362Y-143931011D01*
X80008197Y-143415984D01*
X80028689Y-143350410D01*
X80008538Y-143304645D01*
X79948087Y-143262978D01*
X79879098Y-143239754D01*
X79842896Y-143245219D01*
X79819672Y-143264344D01*
X79797131Y-143300546D01*
X79778859Y-143338798D01*
X79744536Y-143413934D01*
X79700649Y-143510417D01*
X79653689Y-143612705D01*
X79606557Y-143714993D01*
X79562158Y-143811475D01*
X79528518Y-143884392D01*
X79513661Y-143915984D01*
X79240437Y-143317623D01*
X79221311Y-143276639D01*
X79161202Y-143239754D01*
X79080601Y-143262978D01*
X79020150Y-143304645D01*
X79000000Y-143350410D01*
X78352459Y-143350410D01*
X78658470Y-142891393D01*
X79000000Y-142891393D01*
X82000000Y-142891393D01*
X82341530Y-142891393D01*
X82913934Y-143750000D01*
G37*
%TO.C,kibuzzard-66707423*%
G36*
X142286885Y-132533470D02*
G01*
X142318648Y-132575649D01*
X142329235Y-132633880D01*
X142318306Y-132691940D01*
X142285519Y-132733607D01*
X142196721Y-132767077D01*
X142106557Y-132732923D01*
X142072746Y-132690574D01*
X142061475Y-132631831D01*
X142072063Y-132573429D01*
X142103825Y-132532104D01*
X142195355Y-132499317D01*
X142286885Y-132533470D01*
G37*
G36*
X145245902Y-132752049D02*
G01*
X145021858Y-132752049D01*
X144957309Y-132728825D01*
X144935792Y-132659153D01*
X144943306Y-132607240D01*
X144968579Y-132579918D01*
X145045082Y-132568989D01*
X145118852Y-132549863D01*
X145143443Y-132471311D01*
X145118169Y-132392760D01*
X145034153Y-132373634D01*
X144968579Y-132344945D01*
X144964481Y-132295765D01*
X144987022Y-132247951D01*
X145054645Y-132234290D01*
X145245902Y-132234290D01*
X145245902Y-132752049D01*
G37*
G36*
X146395264Y-132500000D02*
G01*
X145829235Y-133349044D01*
X145487705Y-133349044D01*
X145008197Y-133349044D01*
X144006831Y-133349044D01*
X143396175Y-133349044D01*
X142782787Y-133349044D01*
X142195355Y-133349044D01*
X141132514Y-133349044D01*
X141012295Y-133349044D01*
X140670765Y-133349044D01*
X140194445Y-132634563D01*
X141012295Y-132634563D01*
X141012295Y-132875000D01*
X141014344Y-132922131D01*
X141025956Y-132956967D01*
X141062158Y-132984631D01*
X141132514Y-132993852D01*
X141209016Y-132981216D01*
X141244536Y-132943306D01*
X141252732Y-132873634D01*
X141252732Y-132633197D01*
X141284836Y-132545765D01*
X141370902Y-132514344D01*
X141458333Y-132547131D01*
X141491803Y-132633197D01*
X141491803Y-132875000D01*
X141493852Y-132922131D01*
X141506831Y-132956967D01*
X141542008Y-132984631D01*
X141612022Y-132993852D01*
X141681352Y-132984631D01*
X141717213Y-132956967D01*
X141728825Y-132920765D01*
X141730874Y-132873634D01*
X141730874Y-132634563D01*
X141819672Y-132634563D01*
X141834358Y-132741633D01*
X141878415Y-132836066D01*
X141943477Y-132912568D01*
X142021175Y-132965847D01*
X142106728Y-132997097D01*
X142195355Y-133007514D01*
X142284153Y-132996414D01*
X142370219Y-132963115D01*
X142448258Y-132908128D01*
X142512978Y-132831967D01*
X142556523Y-132739583D01*
X142571038Y-132635929D01*
X142558288Y-132533015D01*
X142520036Y-132442851D01*
X142483285Y-132398224D01*
X142625683Y-132398224D01*
X142634904Y-132467555D01*
X142662568Y-132503415D01*
X142698770Y-132515027D01*
X142745902Y-132517077D01*
X142834699Y-132511612D01*
X142834699Y-132700137D01*
X142823087Y-132753415D01*
X142779372Y-132769809D01*
X142730191Y-132771858D01*
X142693989Y-132784836D01*
X142662568Y-132876366D01*
X142672131Y-132945697D01*
X142700820Y-132981557D01*
X142737022Y-132993169D01*
X142782787Y-132995219D01*
X142869915Y-132988084D01*
X142941864Y-132966682D01*
X142998634Y-132931011D01*
X143039617Y-132878339D01*
X143064208Y-132805935D01*
X143072404Y-132713798D01*
X143072404Y-132511612D01*
X143128415Y-132515710D01*
X143178279Y-132492486D01*
X143198087Y-132413251D01*
X143196824Y-132398224D01*
X143239071Y-132398224D01*
X143248292Y-132467555D01*
X143275956Y-132503415D01*
X143312158Y-132515027D01*
X143359290Y-132517077D01*
X143448087Y-132511612D01*
X143448087Y-132700137D01*
X143436475Y-132753415D01*
X143392760Y-132769809D01*
X143343579Y-132771858D01*
X143307377Y-132784836D01*
X143275956Y-132876366D01*
X143285519Y-132945697D01*
X143314208Y-132981557D01*
X143350410Y-132993169D01*
X143396175Y-132995219D01*
X143483303Y-132988084D01*
X143555252Y-132966682D01*
X143612022Y-132931011D01*
X143653005Y-132878339D01*
X143677596Y-132805935D01*
X143685792Y-132713798D01*
X143685792Y-132511612D01*
X143741803Y-132515710D01*
X143791667Y-132492486D01*
X143811475Y-132413251D01*
X143809868Y-132394126D01*
X143886612Y-132394126D01*
X143886612Y-132877732D01*
X143888661Y-132923497D01*
X143901639Y-132958333D01*
X143938183Y-132984973D01*
X144006831Y-132993852D01*
X144074112Y-132985656D01*
X144109290Y-132961066D01*
X144122951Y-132905055D01*
X144147541Y-132932377D01*
X144184426Y-132962432D01*
X144285519Y-132992486D01*
X144372268Y-132980874D01*
X144448543Y-132946038D01*
X144514344Y-132887978D01*
X144564815Y-132813221D01*
X144595097Y-132728294D01*
X144600986Y-132672814D01*
X144693989Y-132672814D01*
X144705601Y-132758956D01*
X144736794Y-132835231D01*
X144787568Y-132901639D01*
X144852459Y-132952869D01*
X144926002Y-132983607D01*
X145008197Y-132993852D01*
X145367486Y-132993852D01*
X145443306Y-132980874D01*
X145479508Y-132941940D01*
X145487705Y-132870902D01*
X145487705Y-132112705D01*
X145485656Y-132064891D01*
X145472678Y-132029372D01*
X145436475Y-132001708D01*
X145366120Y-131992486D01*
X145021858Y-131992486D01*
X144942623Y-132002201D01*
X144872495Y-132031345D01*
X144811475Y-132079918D01*
X144762143Y-132143063D01*
X144732544Y-132214101D01*
X144722678Y-132293033D01*
X144735656Y-132379440D01*
X144774590Y-132458333D01*
X144729812Y-132524666D01*
X144702945Y-132596160D01*
X144693989Y-132672814D01*
X144600986Y-132672814D01*
X144605191Y-132633197D01*
X144605191Y-132394126D01*
X144603142Y-132346311D01*
X144591530Y-132310792D01*
X144555328Y-132283128D01*
X144484973Y-132273907D01*
X144409153Y-132286885D01*
X144372951Y-132325820D01*
X144364754Y-132395492D01*
X144364754Y-132634563D01*
X144332650Y-132721995D01*
X144246585Y-132753415D01*
X144159153Y-132720628D01*
X144125683Y-132634563D01*
X144125683Y-132392760D01*
X144123634Y-132345628D01*
X144110656Y-132309426D01*
X144075478Y-132282787D01*
X144005464Y-132273907D01*
X143936134Y-132283128D01*
X143900273Y-132310792D01*
X143888661Y-132346995D01*
X143886612Y-132394126D01*
X143809868Y-132394126D01*
X143804645Y-132331967D01*
X143785519Y-132295765D01*
X143730874Y-132278005D01*
X143685792Y-132283470D01*
X143685792Y-132142760D01*
X143683743Y-132096311D01*
X143670765Y-132063525D01*
X143635587Y-132037910D01*
X143565574Y-132029372D01*
X143491462Y-132042008D01*
X143454918Y-132079918D01*
X143448087Y-132149590D01*
X143448087Y-132283470D01*
X143357240Y-132278005D01*
X143310792Y-132280055D01*
X143274590Y-132293033D01*
X143247951Y-132328210D01*
X143239071Y-132398224D01*
X143196824Y-132398224D01*
X143191257Y-132331967D01*
X143172131Y-132295765D01*
X143117486Y-132278005D01*
X143072404Y-132283470D01*
X143072404Y-132142760D01*
X143070355Y-132096311D01*
X143057377Y-132063525D01*
X143022199Y-132037910D01*
X142952186Y-132029372D01*
X142878074Y-132042008D01*
X142841530Y-132079918D01*
X142834699Y-132149590D01*
X142834699Y-132283470D01*
X142743852Y-132278005D01*
X142697404Y-132280055D01*
X142661202Y-132293033D01*
X142634563Y-132328210D01*
X142625683Y-132398224D01*
X142483285Y-132398224D01*
X142456284Y-132365437D01*
X142376138Y-132306239D01*
X142288707Y-132270719D01*
X142193989Y-132258880D01*
X142099423Y-132270644D01*
X142012447Y-132305935D01*
X141933060Y-132364754D01*
X141870067Y-132441788D01*
X141832271Y-132531724D01*
X141819672Y-132634563D01*
X141730874Y-132634563D01*
X141730874Y-132390027D01*
X141728825Y-132344262D01*
X141715847Y-132309426D01*
X141679986Y-132283811D01*
X141610656Y-132275273D01*
X141543374Y-132283128D01*
X141508197Y-132306694D01*
X141494536Y-132362705D01*
X141469945Y-132335383D01*
X141433060Y-132306694D01*
X141330601Y-132275273D01*
X141244611Y-132286885D01*
X141168792Y-132321721D01*
X141103142Y-132379781D01*
X141052672Y-132454539D01*
X141022389Y-132539466D01*
X141012295Y-132634563D01*
X140194445Y-132634563D01*
X140104736Y-132500000D01*
X140670765Y-131650956D01*
X141012295Y-131650956D01*
X145487705Y-131650956D01*
X145829235Y-131650956D01*
X146395264Y-132500000D01*
G37*
%TO.C,kibuzzard-667073EF*%
G36*
X110752277Y-108605874D02*
G01*
X110580146Y-108605874D01*
X110499545Y-108575820D01*
X110459927Y-108485656D01*
X110499545Y-108394809D01*
X110581512Y-108364071D01*
X110752277Y-108364071D01*
X110752277Y-108605874D01*
G37*
G36*
X106555556Y-108675546D02*
G01*
X106586976Y-108756148D01*
X106554872Y-108836066D01*
X106472905Y-108872268D01*
X106388206Y-108836749D01*
X106353370Y-108756148D01*
X106386157Y-108674863D01*
X106471539Y-108638661D01*
X106555556Y-108675546D01*
G37*
G36*
X112133880Y-108750000D02*
G01*
X111449454Y-109776639D01*
X110994080Y-109776639D01*
X110873862Y-109776639D01*
X109532332Y-109776639D01*
X109018670Y-109776639D01*
X108571949Y-109776639D01*
X108006375Y-109776639D01*
X107378643Y-109776639D01*
X106708561Y-109776639D01*
X106119763Y-109776639D01*
X105550546Y-109776639D01*
X104869307Y-108754781D01*
X106119763Y-108754781D01*
X106130768Y-108843883D01*
X106163783Y-108925395D01*
X106218807Y-108999317D01*
X106286278Y-109057757D01*
X106356633Y-109092820D01*
X106429872Y-109104508D01*
X106526526Y-109088798D01*
X106592441Y-109041667D01*
X106592441Y-109317623D01*
X106594490Y-109364071D01*
X106606785Y-109398907D01*
X106641621Y-109426913D01*
X106708561Y-109435109D01*
X106776184Y-109426913D01*
X106811703Y-109399590D01*
X106823998Y-109365437D01*
X106826047Y-109318989D01*
X106826047Y-108521175D01*
X106823998Y-108474727D01*
X106812386Y-108440574D01*
X106779941Y-108412910D01*
X106720856Y-108403689D01*
X106623179Y-108422131D01*
X106593807Y-108476093D01*
X106527038Y-108422814D01*
X106430556Y-108405055D01*
X106357620Y-108416743D01*
X106287265Y-108451806D01*
X106219490Y-108510246D01*
X106164086Y-108584168D01*
X106130844Y-108665680D01*
X106119763Y-108754781D01*
X104869307Y-108754781D01*
X104866120Y-108750000D01*
X105203552Y-108243852D01*
X106935337Y-108243852D01*
X106935337Y-108656421D01*
X106942338Y-108744536D01*
X106963342Y-108828552D01*
X106998349Y-108908470D01*
X107047359Y-108984290D01*
X107109859Y-109047302D01*
X107188069Y-109096995D01*
X107278745Y-109129269D01*
X107378643Y-109140027D01*
X107478370Y-109129098D01*
X107568534Y-109096311D01*
X107645890Y-109045765D01*
X107685021Y-109004781D01*
X108484517Y-109004781D01*
X108491348Y-109074112D01*
X108511840Y-109109973D01*
X108571949Y-109124317D01*
X108681239Y-109118169D01*
X108767987Y-109093921D01*
X108817851Y-109048497D01*
X108832308Y-109004781D01*
X108931239Y-109004781D01*
X108938069Y-109074112D01*
X108958561Y-109109973D01*
X109018670Y-109124317D01*
X109127960Y-109118169D01*
X109214709Y-109093921D01*
X109264572Y-109048497D01*
X109293260Y-108961749D01*
X109302823Y-108835383D01*
X109302823Y-108522541D01*
X109412113Y-108522541D01*
X109412113Y-109006148D01*
X109414162Y-109051913D01*
X109427140Y-109086749D01*
X109463684Y-109113388D01*
X109532332Y-109122268D01*
X109599613Y-109114071D01*
X109634791Y-109089481D01*
X109648452Y-109033470D01*
X109673042Y-109060792D01*
X109709927Y-109090847D01*
X109811020Y-109120902D01*
X109897769Y-109109290D01*
X109974044Y-109074454D01*
X110039845Y-109016393D01*
X110090316Y-108941636D01*
X110120598Y-108856709D01*
X110130692Y-108761612D01*
X110130692Y-108522541D01*
X110129111Y-108485656D01*
X110219490Y-108485656D01*
X110228370Y-108570184D01*
X110255009Y-108646175D01*
X110295651Y-108710553D01*
X110346539Y-108760246D01*
X110423042Y-108808819D01*
X110501366Y-108837963D01*
X110581512Y-108847678D01*
X110752277Y-108847678D01*
X110752277Y-109002049D01*
X110754326Y-109049180D01*
X110767304Y-109085383D01*
X110803506Y-109113046D01*
X110873862Y-109122268D01*
X110949681Y-109109631D01*
X110985883Y-109071721D01*
X110994080Y-109000683D01*
X110994080Y-108242486D01*
X110992031Y-108195355D01*
X110979053Y-108159153D01*
X110942851Y-108131489D01*
X110872495Y-108122268D01*
X110580146Y-108122268D01*
X110500759Y-108131982D01*
X110422890Y-108161126D01*
X110346539Y-108209699D01*
X110295651Y-108259563D01*
X110255009Y-108324454D01*
X110228370Y-108400956D01*
X110219490Y-108485656D01*
X110129111Y-108485656D01*
X110128643Y-108474727D01*
X110117031Y-108439208D01*
X110080829Y-108411544D01*
X110010474Y-108402322D01*
X109934654Y-108415301D01*
X109898452Y-108454235D01*
X109890255Y-108523907D01*
X109890255Y-108762978D01*
X109858151Y-108850410D01*
X109772086Y-108881831D01*
X109684654Y-108849044D01*
X109651184Y-108762978D01*
X109651184Y-108521175D01*
X109649135Y-108474044D01*
X109636157Y-108437842D01*
X109600979Y-108411202D01*
X109530965Y-108402322D01*
X109461635Y-108411544D01*
X109425774Y-108439208D01*
X109414162Y-108475410D01*
X109412113Y-108522541D01*
X109302823Y-108522541D01*
X109302823Y-108185109D01*
X109300774Y-108137978D01*
X109289162Y-108101776D01*
X109252960Y-108074112D01*
X109182605Y-108064891D01*
X109114982Y-108074112D01*
X109078780Y-108101776D01*
X109065801Y-108138661D01*
X109063752Y-108186475D01*
X109063752Y-108818989D01*
X109055556Y-108881148D01*
X109019353Y-108894126D01*
X108981785Y-108896175D01*
X108958561Y-108907787D01*
X108931239Y-109004781D01*
X108832308Y-109004781D01*
X108846539Y-108961749D01*
X108856102Y-108835383D01*
X108856102Y-108185109D01*
X108854053Y-108137978D01*
X108842441Y-108101776D01*
X108806239Y-108074112D01*
X108735883Y-108064891D01*
X108668260Y-108074112D01*
X108632058Y-108101776D01*
X108619080Y-108138661D01*
X108617031Y-108186475D01*
X108617031Y-108818989D01*
X108608834Y-108881148D01*
X108572632Y-108894126D01*
X108535064Y-108896175D01*
X108511840Y-108907787D01*
X108484517Y-109004781D01*
X107685021Y-109004781D01*
X107707195Y-108981557D01*
X107755607Y-108906762D01*
X107790187Y-108827186D01*
X107790523Y-108825820D01*
X107906648Y-108825820D01*
X107914162Y-108887978D01*
X107938069Y-108921448D01*
X108006375Y-108933743D01*
X108331512Y-108933743D01*
X108392646Y-108922131D01*
X108423042Y-108887295D01*
X108429872Y-108824454D01*
X108421676Y-108762978D01*
X108395719Y-108730191D01*
X108330146Y-108717896D01*
X108005009Y-108717896D01*
X107944217Y-108729167D01*
X107914845Y-108762978D01*
X107906648Y-108825820D01*
X107790523Y-108825820D01*
X107810935Y-108742828D01*
X107817851Y-108653689D01*
X107817851Y-108242486D01*
X107815801Y-108193989D01*
X107802823Y-108157787D01*
X107765938Y-108129098D01*
X107696266Y-108120902D01*
X107626594Y-108129098D01*
X107591075Y-108157787D01*
X107574681Y-108243852D01*
X107574681Y-108653689D01*
X107564435Y-108734973D01*
X107533698Y-108812158D01*
X107472222Y-108873634D01*
X107375228Y-108896858D01*
X107288138Y-108878415D01*
X107226321Y-108823087D01*
X107189435Y-108743511D01*
X107177140Y-108652322D01*
X107177140Y-108234290D01*
X107163479Y-108159153D01*
X107123862Y-108129098D01*
X107058971Y-108120902D01*
X106996812Y-108127732D01*
X106961293Y-108144126D01*
X106943534Y-108172814D01*
X106935337Y-108243852D01*
X105203552Y-108243852D01*
X105550546Y-107723361D01*
X106119763Y-107723361D01*
X110994080Y-107723361D01*
X111449454Y-107723361D01*
X112133880Y-108750000D01*
G37*
G36*
X133502277Y-70855874D02*
G01*
X133330146Y-70855874D01*
X133249545Y-70825820D01*
X133209927Y-70735656D01*
X133249545Y-70644809D01*
X133331512Y-70614071D01*
X133502277Y-70614071D01*
X133502277Y-70855874D01*
G37*
G36*
X129305556Y-70925546D02*
G01*
X129336976Y-71006148D01*
X129304872Y-71086066D01*
X129222905Y-71122268D01*
X129138206Y-71086749D01*
X129103370Y-71006148D01*
X129136157Y-70924863D01*
X129221539Y-70888661D01*
X129305556Y-70925546D01*
G37*
G36*
X134883880Y-71000000D02*
G01*
X134199454Y-72026639D01*
X133744080Y-72026639D01*
X133623862Y-72026639D01*
X132282332Y-72026639D01*
X131768670Y-72026639D01*
X131321949Y-72026639D01*
X130756375Y-72026639D01*
X130128643Y-72026639D01*
X129458561Y-72026639D01*
X128869763Y-72026639D01*
X128300546Y-72026639D01*
X127619307Y-71004781D01*
X128869763Y-71004781D01*
X128880768Y-71093883D01*
X128913783Y-71175395D01*
X128968807Y-71249317D01*
X129036278Y-71307757D01*
X129106633Y-71342820D01*
X129179872Y-71354508D01*
X129276526Y-71338798D01*
X129342441Y-71291667D01*
X129342441Y-71567623D01*
X129344490Y-71614071D01*
X129356785Y-71648907D01*
X129391621Y-71676913D01*
X129458561Y-71685109D01*
X129526184Y-71676913D01*
X129561703Y-71649590D01*
X129573998Y-71615437D01*
X129576047Y-71568989D01*
X129576047Y-70771175D01*
X129573998Y-70724727D01*
X129562386Y-70690574D01*
X129529941Y-70662910D01*
X129470856Y-70653689D01*
X129373179Y-70672131D01*
X129343807Y-70726093D01*
X129277038Y-70672814D01*
X129180556Y-70655055D01*
X129107620Y-70666743D01*
X129037265Y-70701806D01*
X128969490Y-70760246D01*
X128914086Y-70834168D01*
X128880844Y-70915680D01*
X128869763Y-71004781D01*
X127619307Y-71004781D01*
X127616120Y-71000000D01*
X127953552Y-70493852D01*
X129685337Y-70493852D01*
X129685337Y-70906421D01*
X129692338Y-70994536D01*
X129713342Y-71078552D01*
X129748349Y-71158470D01*
X129797359Y-71234290D01*
X129859859Y-71297302D01*
X129938069Y-71346995D01*
X130028745Y-71379269D01*
X130128643Y-71390027D01*
X130228370Y-71379098D01*
X130318534Y-71346311D01*
X130395890Y-71295765D01*
X130435021Y-71254781D01*
X131234517Y-71254781D01*
X131241348Y-71324112D01*
X131261840Y-71359973D01*
X131321949Y-71374317D01*
X131431239Y-71368169D01*
X131517987Y-71343921D01*
X131567851Y-71298497D01*
X131582308Y-71254781D01*
X131681239Y-71254781D01*
X131688069Y-71324112D01*
X131708561Y-71359973D01*
X131768670Y-71374317D01*
X131877960Y-71368169D01*
X131964709Y-71343921D01*
X132014572Y-71298497D01*
X132043260Y-71211749D01*
X132052823Y-71085383D01*
X132052823Y-70772541D01*
X132162113Y-70772541D01*
X132162113Y-71256148D01*
X132164162Y-71301913D01*
X132177140Y-71336749D01*
X132213684Y-71363388D01*
X132282332Y-71372268D01*
X132349613Y-71364071D01*
X132384791Y-71339481D01*
X132398452Y-71283470D01*
X132423042Y-71310792D01*
X132459927Y-71340847D01*
X132561020Y-71370902D01*
X132647769Y-71359290D01*
X132724044Y-71324454D01*
X132789845Y-71266393D01*
X132840316Y-71191636D01*
X132870598Y-71106709D01*
X132880692Y-71011612D01*
X132880692Y-70772541D01*
X132879111Y-70735656D01*
X132969490Y-70735656D01*
X132978370Y-70820184D01*
X133005009Y-70896175D01*
X133045651Y-70960553D01*
X133096539Y-71010246D01*
X133173042Y-71058819D01*
X133251366Y-71087963D01*
X133331512Y-71097678D01*
X133502277Y-71097678D01*
X133502277Y-71252049D01*
X133504326Y-71299180D01*
X133517304Y-71335383D01*
X133553506Y-71363046D01*
X133623862Y-71372268D01*
X133699681Y-71359631D01*
X133735883Y-71321721D01*
X133744080Y-71250683D01*
X133744080Y-70492486D01*
X133742031Y-70445355D01*
X133729053Y-70409153D01*
X133692851Y-70381489D01*
X133622495Y-70372268D01*
X133330146Y-70372268D01*
X133250759Y-70381982D01*
X133172890Y-70411126D01*
X133096539Y-70459699D01*
X133045651Y-70509563D01*
X133005009Y-70574454D01*
X132978370Y-70650956D01*
X132969490Y-70735656D01*
X132879111Y-70735656D01*
X132878643Y-70724727D01*
X132867031Y-70689208D01*
X132830829Y-70661544D01*
X132760474Y-70652322D01*
X132684654Y-70665301D01*
X132648452Y-70704235D01*
X132640255Y-70773907D01*
X132640255Y-71012978D01*
X132608151Y-71100410D01*
X132522086Y-71131831D01*
X132434654Y-71099044D01*
X132401184Y-71012978D01*
X132401184Y-70771175D01*
X132399135Y-70724044D01*
X132386157Y-70687842D01*
X132350979Y-70661202D01*
X132280965Y-70652322D01*
X132211635Y-70661544D01*
X132175774Y-70689208D01*
X132164162Y-70725410D01*
X132162113Y-70772541D01*
X132052823Y-70772541D01*
X132052823Y-70435109D01*
X132050774Y-70387978D01*
X132039162Y-70351776D01*
X132002960Y-70324112D01*
X131932605Y-70314891D01*
X131864982Y-70324112D01*
X131828780Y-70351776D01*
X131815801Y-70388661D01*
X131813752Y-70436475D01*
X131813752Y-71068989D01*
X131805556Y-71131148D01*
X131769353Y-71144126D01*
X131731785Y-71146175D01*
X131708561Y-71157787D01*
X131681239Y-71254781D01*
X131582308Y-71254781D01*
X131596539Y-71211749D01*
X131606102Y-71085383D01*
X131606102Y-70435109D01*
X131604053Y-70387978D01*
X131592441Y-70351776D01*
X131556239Y-70324112D01*
X131485883Y-70314891D01*
X131418260Y-70324112D01*
X131382058Y-70351776D01*
X131369080Y-70388661D01*
X131367031Y-70436475D01*
X131367031Y-71068989D01*
X131358834Y-71131148D01*
X131322632Y-71144126D01*
X131285064Y-71146175D01*
X131261840Y-71157787D01*
X131234517Y-71254781D01*
X130435021Y-71254781D01*
X130457195Y-71231557D01*
X130505607Y-71156762D01*
X130540187Y-71077186D01*
X130540523Y-71075820D01*
X130656648Y-71075820D01*
X130664162Y-71137978D01*
X130688069Y-71171448D01*
X130756375Y-71183743D01*
X131081512Y-71183743D01*
X131142646Y-71172131D01*
X131173042Y-71137295D01*
X131179872Y-71074454D01*
X131171676Y-71012978D01*
X131145719Y-70980191D01*
X131080146Y-70967896D01*
X130755009Y-70967896D01*
X130694217Y-70979167D01*
X130664845Y-71012978D01*
X130656648Y-71075820D01*
X130540523Y-71075820D01*
X130560935Y-70992828D01*
X130567851Y-70903689D01*
X130567851Y-70492486D01*
X130565801Y-70443989D01*
X130552823Y-70407787D01*
X130515938Y-70379098D01*
X130446266Y-70370902D01*
X130376594Y-70379098D01*
X130341075Y-70407787D01*
X130324681Y-70493852D01*
X130324681Y-70903689D01*
X130314435Y-70984973D01*
X130283698Y-71062158D01*
X130222222Y-71123634D01*
X130125228Y-71146858D01*
X130038138Y-71128415D01*
X129976321Y-71073087D01*
X129939435Y-70993511D01*
X129927140Y-70902322D01*
X129927140Y-70484290D01*
X129913479Y-70409153D01*
X129873862Y-70379098D01*
X129808971Y-70370902D01*
X129746812Y-70377732D01*
X129711293Y-70394126D01*
X129693534Y-70422814D01*
X129685337Y-70493852D01*
X127953552Y-70493852D01*
X128300546Y-69973361D01*
X128869763Y-69973361D01*
X133744080Y-69973361D01*
X134199454Y-69973361D01*
X134883880Y-71000000D01*
G37*
%TO.C,kibuzzard-66707423*%
G36*
X55536885Y-132283470D02*
G01*
X55568648Y-132325649D01*
X55579235Y-132383880D01*
X55568306Y-132441940D01*
X55535519Y-132483607D01*
X55446721Y-132517077D01*
X55356557Y-132482923D01*
X55322746Y-132440574D01*
X55311475Y-132381831D01*
X55322063Y-132323429D01*
X55353825Y-132282104D01*
X55445355Y-132249317D01*
X55536885Y-132283470D01*
G37*
G36*
X58495902Y-132502049D02*
G01*
X58271858Y-132502049D01*
X58207309Y-132478825D01*
X58185792Y-132409153D01*
X58193306Y-132357240D01*
X58218579Y-132329918D01*
X58295082Y-132318989D01*
X58368852Y-132299863D01*
X58393443Y-132221311D01*
X58368169Y-132142760D01*
X58284153Y-132123634D01*
X58218579Y-132094945D01*
X58214481Y-132045765D01*
X58237022Y-131997951D01*
X58304645Y-131984290D01*
X58495902Y-131984290D01*
X58495902Y-132502049D01*
G37*
G36*
X59645264Y-132250000D02*
G01*
X59079235Y-133099044D01*
X58737705Y-133099044D01*
X58258197Y-133099044D01*
X57256831Y-133099044D01*
X56646175Y-133099044D01*
X56032787Y-133099044D01*
X55445355Y-133099044D01*
X54382514Y-133099044D01*
X54262295Y-133099044D01*
X53920765Y-133099044D01*
X53444445Y-132384563D01*
X54262295Y-132384563D01*
X54262295Y-132625000D01*
X54264344Y-132672131D01*
X54275956Y-132706967D01*
X54312158Y-132734631D01*
X54382514Y-132743852D01*
X54459016Y-132731216D01*
X54494536Y-132693306D01*
X54502732Y-132623634D01*
X54502732Y-132383197D01*
X54534836Y-132295765D01*
X54620902Y-132264344D01*
X54708333Y-132297131D01*
X54741803Y-132383197D01*
X54741803Y-132625000D01*
X54743852Y-132672131D01*
X54756831Y-132706967D01*
X54792008Y-132734631D01*
X54862022Y-132743852D01*
X54931352Y-132734631D01*
X54967213Y-132706967D01*
X54978825Y-132670765D01*
X54980874Y-132623634D01*
X54980874Y-132384563D01*
X55069672Y-132384563D01*
X55084358Y-132491633D01*
X55128415Y-132586066D01*
X55193477Y-132662568D01*
X55271175Y-132715847D01*
X55356728Y-132747097D01*
X55445355Y-132757514D01*
X55534153Y-132746414D01*
X55620219Y-132713115D01*
X55698258Y-132658128D01*
X55762978Y-132581967D01*
X55806523Y-132489583D01*
X55821038Y-132385929D01*
X55808288Y-132283015D01*
X55770036Y-132192851D01*
X55733285Y-132148224D01*
X55875683Y-132148224D01*
X55884904Y-132217555D01*
X55912568Y-132253415D01*
X55948770Y-132265027D01*
X55995902Y-132267077D01*
X56084699Y-132261612D01*
X56084699Y-132450137D01*
X56073087Y-132503415D01*
X56029372Y-132519809D01*
X55980191Y-132521858D01*
X55943989Y-132534836D01*
X55912568Y-132626366D01*
X55922131Y-132695697D01*
X55950820Y-132731557D01*
X55987022Y-132743169D01*
X56032787Y-132745219D01*
X56119915Y-132738084D01*
X56191864Y-132716682D01*
X56248634Y-132681011D01*
X56289617Y-132628339D01*
X56314208Y-132555935D01*
X56322404Y-132463798D01*
X56322404Y-132261612D01*
X56378415Y-132265710D01*
X56428279Y-132242486D01*
X56448087Y-132163251D01*
X56446824Y-132148224D01*
X56489071Y-132148224D01*
X56498292Y-132217555D01*
X56525956Y-132253415D01*
X56562158Y-132265027D01*
X56609290Y-132267077D01*
X56698087Y-132261612D01*
X56698087Y-132450137D01*
X56686475Y-132503415D01*
X56642760Y-132519809D01*
X56593579Y-132521858D01*
X56557377Y-132534836D01*
X56525956Y-132626366D01*
X56535519Y-132695697D01*
X56564208Y-132731557D01*
X56600410Y-132743169D01*
X56646175Y-132745219D01*
X56733303Y-132738084D01*
X56805252Y-132716682D01*
X56862022Y-132681011D01*
X56903005Y-132628339D01*
X56927596Y-132555935D01*
X56935792Y-132463798D01*
X56935792Y-132261612D01*
X56991803Y-132265710D01*
X57041667Y-132242486D01*
X57061475Y-132163251D01*
X57059868Y-132144126D01*
X57136612Y-132144126D01*
X57136612Y-132627732D01*
X57138661Y-132673497D01*
X57151639Y-132708333D01*
X57188183Y-132734973D01*
X57256831Y-132743852D01*
X57324112Y-132735656D01*
X57359290Y-132711066D01*
X57372951Y-132655055D01*
X57397541Y-132682377D01*
X57434426Y-132712432D01*
X57535519Y-132742486D01*
X57622268Y-132730874D01*
X57698543Y-132696038D01*
X57764344Y-132637978D01*
X57814815Y-132563221D01*
X57845097Y-132478294D01*
X57850986Y-132422814D01*
X57943989Y-132422814D01*
X57955601Y-132508956D01*
X57986794Y-132585231D01*
X58037568Y-132651639D01*
X58102459Y-132702869D01*
X58176002Y-132733607D01*
X58258197Y-132743852D01*
X58617486Y-132743852D01*
X58693306Y-132730874D01*
X58729508Y-132691940D01*
X58737705Y-132620902D01*
X58737705Y-131862705D01*
X58735656Y-131814891D01*
X58722678Y-131779372D01*
X58686475Y-131751708D01*
X58616120Y-131742486D01*
X58271858Y-131742486D01*
X58192623Y-131752201D01*
X58122495Y-131781345D01*
X58061475Y-131829918D01*
X58012143Y-131893063D01*
X57982544Y-131964101D01*
X57972678Y-132043033D01*
X57985656Y-132129440D01*
X58024590Y-132208333D01*
X57979812Y-132274666D01*
X57952945Y-132346160D01*
X57943989Y-132422814D01*
X57850986Y-132422814D01*
X57855191Y-132383197D01*
X57855191Y-132144126D01*
X57853142Y-132096311D01*
X57841530Y-132060792D01*
X57805328Y-132033128D01*
X57734973Y-132023907D01*
X57659153Y-132036885D01*
X57622951Y-132075820D01*
X57614754Y-132145492D01*
X57614754Y-132384563D01*
X57582650Y-132471995D01*
X57496585Y-132503415D01*
X57409153Y-132470628D01*
X57375683Y-132384563D01*
X57375683Y-132142760D01*
X57373634Y-132095628D01*
X57360656Y-132059426D01*
X57325478Y-132032787D01*
X57255464Y-132023907D01*
X57186134Y-132033128D01*
X57150273Y-132060792D01*
X57138661Y-132096995D01*
X57136612Y-132144126D01*
X57059868Y-132144126D01*
X57054645Y-132081967D01*
X57035519Y-132045765D01*
X56980874Y-132028005D01*
X56935792Y-132033470D01*
X56935792Y-131892760D01*
X56933743Y-131846311D01*
X56920765Y-131813525D01*
X56885587Y-131787910D01*
X56815574Y-131779372D01*
X56741462Y-131792008D01*
X56704918Y-131829918D01*
X56698087Y-131899590D01*
X56698087Y-132033470D01*
X56607240Y-132028005D01*
X56560792Y-132030055D01*
X56524590Y-132043033D01*
X56497951Y-132078210D01*
X56489071Y-132148224D01*
X56446824Y-132148224D01*
X56441257Y-132081967D01*
X56422131Y-132045765D01*
X56367486Y-132028005D01*
X56322404Y-132033470D01*
X56322404Y-131892760D01*
X56320355Y-131846311D01*
X56307377Y-131813525D01*
X56272199Y-131787910D01*
X56202186Y-131779372D01*
X56128074Y-131792008D01*
X56091530Y-131829918D01*
X56084699Y-131899590D01*
X56084699Y-132033470D01*
X55993852Y-132028005D01*
X55947404Y-132030055D01*
X55911202Y-132043033D01*
X55884563Y-132078210D01*
X55875683Y-132148224D01*
X55733285Y-132148224D01*
X55706284Y-132115437D01*
X55626138Y-132056239D01*
X55538707Y-132020719D01*
X55443989Y-132008880D01*
X55349423Y-132020644D01*
X55262447Y-132055935D01*
X55183060Y-132114754D01*
X55120067Y-132191788D01*
X55082271Y-132281724D01*
X55069672Y-132384563D01*
X54980874Y-132384563D01*
X54980874Y-132140027D01*
X54978825Y-132094262D01*
X54965847Y-132059426D01*
X54929986Y-132033811D01*
X54860656Y-132025273D01*
X54793374Y-132033128D01*
X54758197Y-132056694D01*
X54744536Y-132112705D01*
X54719945Y-132085383D01*
X54683060Y-132056694D01*
X54580601Y-132025273D01*
X54494611Y-132036885D01*
X54418792Y-132071721D01*
X54353142Y-132129781D01*
X54302672Y-132204539D01*
X54272389Y-132289466D01*
X54262295Y-132384563D01*
X53444445Y-132384563D01*
X53354736Y-132250000D01*
X53920765Y-131400956D01*
X54262295Y-131400956D01*
X58737705Y-131400956D01*
X59079235Y-131400956D01*
X59645264Y-132250000D01*
G37*
%TO.C,kibuzzard-6670735F*%
G36*
X70577186Y-80037568D02*
G01*
X70620902Y-80114754D01*
X70448770Y-80114754D01*
X70396858Y-80071038D01*
X70420765Y-80020492D01*
X70489071Y-80001366D01*
X70577186Y-80037568D01*
G37*
G36*
X68375000Y-80058743D02*
G01*
X68406762Y-80100922D01*
X68417350Y-80159153D01*
X68406421Y-80217213D01*
X68373634Y-80258880D01*
X68284836Y-80292350D01*
X68194672Y-80258197D01*
X68160861Y-80215847D01*
X68149590Y-80157104D01*
X68160178Y-80098702D01*
X68191940Y-80057377D01*
X68283470Y-80024590D01*
X68375000Y-80058743D01*
G37*
G36*
X69194672Y-80058743D02*
G01*
X69226434Y-80100922D01*
X69237022Y-80159153D01*
X69226093Y-80217213D01*
X69193306Y-80258880D01*
X69104508Y-80292350D01*
X69014344Y-80258197D01*
X68980533Y-80215847D01*
X68969262Y-80157104D01*
X68979850Y-80098702D01*
X69011612Y-80057377D01*
X69103142Y-80024590D01*
X69194672Y-80058743D01*
G37*
G36*
X72769809Y-80277322D02*
G01*
X72545765Y-80277322D01*
X72481216Y-80254098D01*
X72459699Y-80184426D01*
X72467213Y-80132514D01*
X72492486Y-80105191D01*
X72568989Y-80094262D01*
X72642760Y-80075137D01*
X72667350Y-79996585D01*
X72642077Y-79918033D01*
X72558060Y-79898907D01*
X72492486Y-79870219D01*
X72488388Y-79821038D01*
X72510929Y-79773224D01*
X72578552Y-79759563D01*
X72769809Y-79759563D01*
X72769809Y-80277322D01*
G37*
G36*
X73939663Y-80000000D02*
G01*
X73353142Y-80879781D01*
X73011612Y-80879781D01*
X72532104Y-80879781D01*
X71844945Y-80879781D01*
X71084016Y-80879781D01*
X70487022Y-80879781D01*
X69690574Y-80879781D01*
X69103142Y-80879781D01*
X68283470Y-80879781D01*
X67437842Y-80879781D01*
X66608607Y-80879781D01*
X66488388Y-80879781D01*
X66146858Y-80879781D01*
X65667805Y-80161202D01*
X66488388Y-80161202D01*
X66488388Y-80401639D01*
X66490437Y-80448770D01*
X66503415Y-80484973D01*
X66538593Y-80511612D01*
X66608607Y-80520492D01*
X66676230Y-80511612D01*
X66712432Y-80484973D01*
X66725410Y-80448087D01*
X66727459Y-80398907D01*
X66727459Y-80159836D01*
X66758880Y-80072404D01*
X66838798Y-80040984D01*
X66924180Y-80070355D01*
X66966530Y-80136612D01*
X66966530Y-80401639D01*
X66968579Y-80448770D01*
X66981557Y-80484973D01*
X67016735Y-80511612D01*
X67086749Y-80520492D01*
X67156079Y-80511270D01*
X67191940Y-80483607D01*
X67203552Y-80448087D01*
X67205601Y-80400273D01*
X67205601Y-79923497D01*
X67280738Y-79923497D01*
X67289959Y-79992828D01*
X67317623Y-80028689D01*
X67353825Y-80040301D01*
X67400956Y-80042350D01*
X67489754Y-80036885D01*
X67489754Y-80225410D01*
X67478142Y-80278689D01*
X67434426Y-80295082D01*
X67385246Y-80297131D01*
X67349044Y-80310109D01*
X67317623Y-80401639D01*
X67327186Y-80470970D01*
X67355874Y-80506831D01*
X67392077Y-80518443D01*
X67437842Y-80520492D01*
X67524970Y-80513358D01*
X67596919Y-80491955D01*
X67653689Y-80456284D01*
X67694672Y-80403613D01*
X67719262Y-80331208D01*
X67727459Y-80239071D01*
X67727459Y-80159836D01*
X67907787Y-80159836D01*
X67922473Y-80266906D01*
X67966530Y-80361339D01*
X68031592Y-80437842D01*
X68109290Y-80491120D01*
X68194843Y-80522370D01*
X68283470Y-80532787D01*
X68372268Y-80521687D01*
X68458333Y-80488388D01*
X68536373Y-80433402D01*
X68601093Y-80357240D01*
X68644638Y-80264857D01*
X68659153Y-80161202D01*
X68658984Y-80159836D01*
X68727459Y-80159836D01*
X68742145Y-80266906D01*
X68786202Y-80361339D01*
X68851264Y-80437842D01*
X68928962Y-80491120D01*
X69014515Y-80522370D01*
X69103142Y-80532787D01*
X69191940Y-80521687D01*
X69278005Y-80488388D01*
X69356045Y-80433402D01*
X69420765Y-80357240D01*
X69464310Y-80264857D01*
X69478825Y-80161202D01*
X69466075Y-80058288D01*
X69427823Y-79968124D01*
X69391072Y-79923497D01*
X69533470Y-79923497D01*
X69542691Y-79992828D01*
X69570355Y-80028689D01*
X69606557Y-80040301D01*
X69653689Y-80042350D01*
X69742486Y-80036885D01*
X69742486Y-80225410D01*
X69730874Y-80278689D01*
X69687158Y-80295082D01*
X69637978Y-80297131D01*
X69601776Y-80310109D01*
X69570355Y-80401639D01*
X69579918Y-80470970D01*
X69608607Y-80506831D01*
X69644809Y-80518443D01*
X69690574Y-80520492D01*
X69777702Y-80513358D01*
X69849651Y-80491955D01*
X69906421Y-80456284D01*
X69947404Y-80403613D01*
X69971995Y-80331208D01*
X69980191Y-80239071D01*
X69980191Y-80074454D01*
X70160519Y-80074454D01*
X70170936Y-80147541D01*
X70202186Y-80198770D01*
X70294399Y-80239071D01*
X70618169Y-80239071D01*
X70573087Y-80303279D01*
X70482923Y-80329235D01*
X70412227Y-80325137D01*
X70358607Y-80312842D01*
X70343579Y-80307377D01*
X70288934Y-80292350D01*
X70213798Y-80353825D01*
X70196038Y-80416667D01*
X70214225Y-80469860D01*
X70268784Y-80507855D01*
X70359717Y-80530652D01*
X70487022Y-80538251D01*
X70582480Y-80529542D01*
X70666667Y-80503415D01*
X70736510Y-80462944D01*
X70788934Y-80411202D01*
X70836749Y-80334548D01*
X70865437Y-80252125D01*
X70875000Y-80163934D01*
X70862629Y-80056846D01*
X70825516Y-79965088D01*
X70788538Y-79919399D01*
X70963798Y-79919399D01*
X70963798Y-80403005D01*
X70965847Y-80448770D01*
X70978825Y-80483607D01*
X71015369Y-80510246D01*
X71084016Y-80519126D01*
X71151298Y-80510929D01*
X71186475Y-80486339D01*
X71200137Y-80430328D01*
X71224727Y-80457650D01*
X71261612Y-80487705D01*
X71362705Y-80517760D01*
X71449454Y-80506148D01*
X71525729Y-80471311D01*
X71591530Y-80413251D01*
X71599370Y-80401639D01*
X71757514Y-80401639D01*
X71764344Y-80470970D01*
X71784836Y-80506831D01*
X71844945Y-80521175D01*
X71954235Y-80515027D01*
X72040984Y-80490779D01*
X72090847Y-80445355D01*
X72119536Y-80358607D01*
X72129098Y-80232240D01*
X72129098Y-80198087D01*
X72217896Y-80198087D01*
X72229508Y-80284229D01*
X72260701Y-80360504D01*
X72311475Y-80426913D01*
X72376366Y-80478142D01*
X72449909Y-80508880D01*
X72532104Y-80519126D01*
X72891393Y-80519126D01*
X72967213Y-80506148D01*
X73003415Y-80467213D01*
X73011612Y-80396175D01*
X73011612Y-79637978D01*
X73009563Y-79590164D01*
X72996585Y-79554645D01*
X72960383Y-79526981D01*
X72890027Y-79517760D01*
X72545765Y-79517760D01*
X72466530Y-79527474D01*
X72396403Y-79556618D01*
X72335383Y-79605191D01*
X72286050Y-79668336D01*
X72256451Y-79739375D01*
X72246585Y-79818306D01*
X72259563Y-79904713D01*
X72298497Y-79983607D01*
X72253719Y-80049939D01*
X72226852Y-80121433D01*
X72217896Y-80198087D01*
X72129098Y-80198087D01*
X72129098Y-79581967D01*
X72127049Y-79534836D01*
X72115437Y-79498634D01*
X72079235Y-79470970D01*
X72008880Y-79461749D01*
X71941257Y-79470970D01*
X71905055Y-79498634D01*
X71892077Y-79535519D01*
X71890027Y-79583333D01*
X71890027Y-80215847D01*
X71881831Y-80278005D01*
X71845628Y-80290984D01*
X71808060Y-80293033D01*
X71784836Y-80304645D01*
X71757514Y-80401639D01*
X71599370Y-80401639D01*
X71642001Y-80338494D01*
X71672283Y-80253567D01*
X71682377Y-80158470D01*
X71682377Y-79919399D01*
X71680328Y-79871585D01*
X71668716Y-79836066D01*
X71632514Y-79808402D01*
X71562158Y-79799180D01*
X71486339Y-79812158D01*
X71450137Y-79851093D01*
X71441940Y-79920765D01*
X71441940Y-80159836D01*
X71409836Y-80247268D01*
X71323770Y-80278689D01*
X71236339Y-80245902D01*
X71202869Y-80159836D01*
X71202869Y-79918033D01*
X71200820Y-79870902D01*
X71187842Y-79834699D01*
X71152664Y-79808060D01*
X71082650Y-79799180D01*
X71013320Y-79808402D01*
X70977459Y-79836066D01*
X70965847Y-79872268D01*
X70963798Y-79919399D01*
X70788538Y-79919399D01*
X70763661Y-79888661D01*
X70683288Y-79831360D01*
X70590619Y-79796979D01*
X70485656Y-79785519D01*
X70397029Y-79793887D01*
X70321038Y-79818989D01*
X70257684Y-79860827D01*
X70206967Y-79919399D01*
X70172131Y-79993682D01*
X70160519Y-80074454D01*
X69980191Y-80074454D01*
X69980191Y-80036885D01*
X70036202Y-80040984D01*
X70086066Y-80017760D01*
X70105874Y-79938525D01*
X70099044Y-79857240D01*
X70079918Y-79821038D01*
X70025273Y-79803279D01*
X69980191Y-79808743D01*
X69980191Y-79668033D01*
X69978142Y-79621585D01*
X69965164Y-79588798D01*
X69929986Y-79563183D01*
X69859973Y-79554645D01*
X69785861Y-79567281D01*
X69749317Y-79605191D01*
X69742486Y-79674863D01*
X69742486Y-79808743D01*
X69651639Y-79803279D01*
X69605191Y-79805328D01*
X69568989Y-79818306D01*
X69542350Y-79853484D01*
X69533470Y-79923497D01*
X69391072Y-79923497D01*
X69364071Y-79890710D01*
X69283925Y-79831512D01*
X69196494Y-79795993D01*
X69101776Y-79784153D01*
X69007210Y-79795917D01*
X68920234Y-79831208D01*
X68840847Y-79890027D01*
X68777854Y-79967061D01*
X68740058Y-80056998D01*
X68727459Y-80159836D01*
X68658984Y-80159836D01*
X68646403Y-80058288D01*
X68608151Y-79968124D01*
X68544399Y-79890710D01*
X68464253Y-79831512D01*
X68376821Y-79795993D01*
X68282104Y-79784153D01*
X68187538Y-79795917D01*
X68100562Y-79831208D01*
X68021175Y-79890027D01*
X67958182Y-79967061D01*
X67920386Y-80056998D01*
X67907787Y-80159836D01*
X67727459Y-80159836D01*
X67727459Y-80036885D01*
X67783470Y-80040984D01*
X67833333Y-80017760D01*
X67853142Y-79938525D01*
X67846311Y-79857240D01*
X67827186Y-79821038D01*
X67772541Y-79803279D01*
X67727459Y-79808743D01*
X67727459Y-79668033D01*
X67725410Y-79621585D01*
X67712432Y-79588798D01*
X67677254Y-79563183D01*
X67607240Y-79554645D01*
X67533128Y-79567281D01*
X67496585Y-79605191D01*
X67489754Y-79674863D01*
X67489754Y-79808743D01*
X67398907Y-79803279D01*
X67352459Y-79805328D01*
X67316257Y-79818306D01*
X67289617Y-79853484D01*
X67280738Y-79923497D01*
X67205601Y-79923497D01*
X67205601Y-79583333D01*
X67203552Y-79536202D01*
X67191940Y-79501366D01*
X67155738Y-79473702D01*
X67085383Y-79464481D01*
X67016393Y-79473702D01*
X66981557Y-79501366D01*
X66968579Y-79537568D01*
X66966530Y-79584699D01*
X66966530Y-79886612D01*
X66892418Y-79824112D01*
X66806694Y-79803279D01*
X66720704Y-79814815D01*
X66644885Y-79849423D01*
X66579235Y-79907104D01*
X66528764Y-79981481D01*
X66498482Y-80066181D01*
X66488388Y-80161202D01*
X65667805Y-80161202D01*
X65560337Y-80000000D01*
X66146858Y-79120219D01*
X66488388Y-79120219D01*
X73011612Y-79120219D01*
X73353142Y-79120219D01*
X73939663Y-80000000D01*
G37*
%TD*%
%LPC*%
%TO.C,G\u002A\u002A\u002A*%
G36*
X108213174Y-87562076D02*
G01*
X108213174Y-91034930D01*
X107427345Y-91034930D01*
X106641517Y-91034930D01*
X106641517Y-87562076D01*
X106641517Y-84089222D01*
X107427345Y-84089222D01*
X108213174Y-84089222D01*
X108213174Y-87562076D01*
G37*
G36*
X97143769Y-87422655D02*
G01*
X97215865Y-87574577D01*
X97394392Y-87950196D01*
X97535628Y-88246096D01*
X97643959Y-88471173D01*
X97723774Y-88634321D01*
X97779460Y-88744435D01*
X97815405Y-88810412D01*
X97835996Y-88841146D01*
X97845622Y-88845533D01*
X97853364Y-88831384D01*
X97897398Y-88740848D01*
X97974450Y-88578219D01*
X98078297Y-88356742D01*
X98202715Y-88089660D01*
X98341481Y-87790220D01*
X98821942Y-86750898D01*
X99689814Y-86737027D01*
X99921664Y-86734557D01*
X100175326Y-86735106D01*
X100376816Y-86739291D01*
X100509734Y-86746732D01*
X100557685Y-86757052D01*
X100552191Y-86773030D01*
X100506254Y-86871856D01*
X100413646Y-87059538D01*
X100274301Y-87336210D01*
X100088153Y-87702001D01*
X99855135Y-88157043D01*
X99575179Y-88701467D01*
X99248220Y-89335403D01*
X98874189Y-90058982D01*
X98369241Y-91034930D01*
X97848171Y-91034930D01*
X97327101Y-91034930D01*
X97173668Y-90743413D01*
X97159269Y-90716021D01*
X97069835Y-90545129D01*
X96950664Y-90316607D01*
X96815580Y-90056990D01*
X96678410Y-89792815D01*
X96536257Y-89518742D01*
X96302008Y-89067210D01*
X96106390Y-88690334D01*
X95944176Y-88378078D01*
X95810137Y-88120404D01*
X95699045Y-87907276D01*
X95605670Y-87728656D01*
X95524785Y-87574508D01*
X95451161Y-87434794D01*
X95379569Y-87299478D01*
X95305243Y-87156694D01*
X95216294Y-86977703D01*
X95155469Y-86844937D01*
X95132934Y-86779818D01*
X95133623Y-86776722D01*
X95194409Y-86754258D01*
X95354043Y-86738275D01*
X95613308Y-86728722D01*
X95972990Y-86725549D01*
X96813045Y-86725549D01*
X97143769Y-87422655D01*
G37*
G36*
X87760741Y-86596460D02*
G01*
X88176149Y-86678809D01*
X88544467Y-86819320D01*
X88846697Y-87016487D01*
X88940806Y-87106039D01*
X89136537Y-87370513D01*
X89269818Y-87673397D01*
X89337599Y-87993980D01*
X89336829Y-88311550D01*
X89264460Y-88605396D01*
X89117439Y-88854808D01*
X89060512Y-88916657D01*
X88910087Y-89037240D01*
X88711126Y-89142929D01*
X88446180Y-89242080D01*
X88097797Y-89343047D01*
X87888526Y-89403038D01*
X87637042Y-89497197D01*
X87482039Y-89592867D01*
X87420542Y-89693281D01*
X87449576Y-89801675D01*
X87566168Y-89921284D01*
X87640705Y-89967134D01*
X87851154Y-90019039D01*
X88114747Y-90006845D01*
X88415501Y-89932248D01*
X88737431Y-89796945D01*
X88797387Y-89766986D01*
X88959506Y-89689252D01*
X89075476Y-89638591D01*
X89123356Y-89624790D01*
X89164612Y-89687099D01*
X89237799Y-89821335D01*
X89325247Y-89997147D01*
X89416946Y-90192528D01*
X89502883Y-90385473D01*
X89573047Y-90553975D01*
X89617426Y-90676029D01*
X89626008Y-90729629D01*
X89567665Y-90767564D01*
X89428542Y-90835297D01*
X89241837Y-90914862D01*
X89034814Y-90995287D01*
X88834734Y-91065601D01*
X88668862Y-91114830D01*
X88432226Y-91155477D01*
X88116194Y-91177902D01*
X87778817Y-91177582D01*
X87460182Y-91154667D01*
X87200375Y-91109310D01*
X86977116Y-91040658D01*
X86596842Y-90860135D01*
X86297546Y-90621619D01*
X86081254Y-90327500D01*
X85949993Y-89980169D01*
X85905788Y-89582018D01*
X85930278Y-89283663D01*
X86026716Y-88983386D01*
X86199995Y-88736175D01*
X86275143Y-88664021D01*
X86430153Y-88552081D01*
X86629375Y-88452827D01*
X86891578Y-88357588D01*
X87235529Y-88257690D01*
X87756287Y-88117718D01*
X87756287Y-87942791D01*
X87719568Y-87789887D01*
X87605415Y-87686217D01*
X87419978Y-87642827D01*
X87169514Y-87661115D01*
X86860281Y-87742479D01*
X86706395Y-87787705D01*
X86577621Y-87811972D01*
X86514942Y-87805853D01*
X86496141Y-87777610D01*
X86435017Y-87672539D01*
X86346264Y-87512590D01*
X86241928Y-87319236D01*
X86004479Y-86873602D01*
X86170603Y-86804221D01*
X86421981Y-86713454D01*
X86864657Y-86612275D01*
X87317244Y-86573780D01*
X87760741Y-86596460D01*
G37*
G36*
X94898633Y-88389443D02*
G01*
X94903841Y-88595866D01*
X94904790Y-88880240D01*
X94904750Y-88973950D01*
X94902999Y-89232185D01*
X94895965Y-89419629D01*
X94880002Y-89559883D01*
X94851465Y-89676548D01*
X94806708Y-89793225D01*
X94742084Y-89933517D01*
X94705406Y-90007026D01*
X94454383Y-90379996D01*
X94128237Y-90694663D01*
X93739944Y-90940455D01*
X93302480Y-91106795D01*
X93220540Y-91125744D01*
X92943642Y-91163471D01*
X92617586Y-91180717D01*
X92279082Y-91177430D01*
X91964837Y-91153559D01*
X91711559Y-91109052D01*
X91697248Y-91105284D01*
X91273564Y-90949779D01*
X90922440Y-90725617D01*
X90637286Y-90427428D01*
X90411510Y-90049844D01*
X90265909Y-89742116D01*
X91005427Y-89728061D01*
X91744946Y-89714006D01*
X91918912Y-89866749D01*
X92063133Y-89976779D01*
X92215447Y-90044038D01*
X92399980Y-90069418D01*
X92649856Y-90061757D01*
X92666506Y-90060443D01*
X92939226Y-89998245D01*
X93147091Y-89861412D01*
X93294319Y-89645846D01*
X93385128Y-89347450D01*
X93420466Y-89159082D01*
X91810288Y-89159082D01*
X90200109Y-89159082D01*
X90230013Y-88735345D01*
X90250925Y-88533367D01*
X90324642Y-88203306D01*
X91685429Y-88203306D01*
X91710146Y-88213733D01*
X91820071Y-88226771D01*
X92002732Y-88237158D01*
X92241392Y-88244025D01*
X92519319Y-88246507D01*
X93353208Y-88246507D01*
X93302547Y-88101181D01*
X93280306Y-88045455D01*
X93127927Y-87827715D01*
X92892432Y-87658425D01*
X92885321Y-87654845D01*
X92691338Y-87602204D01*
X92458021Y-87598323D01*
X92229746Y-87639786D01*
X92050892Y-87723179D01*
X92019246Y-87748621D01*
X91908436Y-87859770D01*
X91800203Y-87993174D01*
X91718038Y-88117972D01*
X91685429Y-88203306D01*
X90324642Y-88203306D01*
X90355706Y-88064222D01*
X90531590Y-87645550D01*
X90772806Y-87289179D01*
X91073579Y-87006937D01*
X91251801Y-86892086D01*
X91643807Y-86718978D01*
X92082252Y-86610410D01*
X92543930Y-86569371D01*
X93005635Y-86598845D01*
X93444162Y-86701821D01*
X93542600Y-86736456D01*
X93942520Y-86921154D01*
X94266237Y-87157322D01*
X94529358Y-87458572D01*
X94747491Y-87838517D01*
X94764407Y-87874343D01*
X94822053Y-88003418D01*
X94861279Y-88116664D01*
X94885625Y-88237523D01*
X94886394Y-88246507D01*
X94898633Y-88389443D01*
G37*
G36*
X105823187Y-88762319D02*
G01*
X105808499Y-89182742D01*
X105727060Y-89570525D01*
X105536826Y-90005951D01*
X105265638Y-90385083D01*
X104920309Y-90699548D01*
X104506667Y-90944048D01*
X104030539Y-91113284D01*
X103981905Y-91124470D01*
X103740873Y-91158650D01*
X103444699Y-91177483D01*
X103129341Y-91180397D01*
X102830758Y-91166823D01*
X102584911Y-91136191D01*
X102264264Y-91044432D01*
X101911484Y-90886975D01*
X101580936Y-90687373D01*
X101312202Y-90466456D01*
X101291396Y-90445257D01*
X101061831Y-90158840D01*
X100867609Y-89821482D01*
X100826790Y-89735291D01*
X100759503Y-89581261D01*
X100717737Y-89449706D01*
X100695511Y-89309660D01*
X100686841Y-89130160D01*
X100685745Y-88880240D01*
X100685755Y-88876986D01*
X102332136Y-88876986D01*
X102337175Y-88992225D01*
X102363093Y-89172383D01*
X102403658Y-89301021D01*
X102408972Y-89310972D01*
X102543634Y-89494736D01*
X102722686Y-89658227D01*
X102905796Y-89764240D01*
X102971986Y-89786629D01*
X103254757Y-89825986D01*
X103521674Y-89781261D01*
X103760554Y-89665494D01*
X103959213Y-89491728D01*
X104105467Y-89273002D01*
X104187132Y-89022360D01*
X104192024Y-88752841D01*
X104107960Y-88477487D01*
X104016143Y-88315846D01*
X103834180Y-88119039D01*
X103601064Y-88001392D01*
X103301004Y-87952636D01*
X103151603Y-87947522D01*
X103003804Y-87957977D01*
X102885373Y-87997003D01*
X102755071Y-88073750D01*
X102708841Y-88105660D01*
X102496772Y-88313109D01*
X102372598Y-88567569D01*
X102332136Y-88876986D01*
X100685755Y-88876986D01*
X100685905Y-88830170D01*
X100689624Y-88590216D01*
X100702011Y-88416064D01*
X100728476Y-88277362D01*
X100774426Y-88143758D01*
X100845268Y-87984899D01*
X101070099Y-87599303D01*
X101386857Y-87243177D01*
X101778312Y-86955226D01*
X102245340Y-86734669D01*
X102310576Y-86710919D01*
X102464971Y-86661056D01*
X102610585Y-86628728D01*
X102774949Y-86610345D01*
X102985597Y-86602317D01*
X103270060Y-86601054D01*
X103398330Y-86601691D01*
X103647166Y-86606559D01*
X103832589Y-86619119D01*
X103981418Y-86643072D01*
X104120473Y-86682118D01*
X104276574Y-86739961D01*
X104397053Y-86790539D01*
X104825025Y-87026164D01*
X105189178Y-87319470D01*
X105478126Y-87659940D01*
X105680485Y-88037055D01*
X105772320Y-88348693D01*
X105822021Y-88752841D01*
X105823187Y-88762319D01*
G37*
G36*
X114286293Y-89066563D02*
G01*
X114243612Y-89450476D01*
X114118883Y-89893561D01*
X113915404Y-90272909D01*
X113632603Y-90589293D01*
X113269908Y-90843486D01*
X112826747Y-91036260D01*
X112523595Y-91110014D01*
X112124607Y-91134683D01*
X111736344Y-91084265D01*
X111389204Y-90960365D01*
X111256181Y-90887939D01*
X111109739Y-90795462D01*
X111019744Y-90722780D01*
X110944412Y-90652124D01*
X110887454Y-90643917D01*
X110858674Y-90722871D01*
X110851726Y-90895509D01*
X110878907Y-91196365D01*
X110973932Y-91479110D01*
X111140429Y-91695637D01*
X111381836Y-91852155D01*
X111577281Y-91918054D01*
X111843356Y-91943107D01*
X112094960Y-91901431D01*
X112307953Y-91797847D01*
X112458197Y-91637177D01*
X112544417Y-91491218D01*
X113395362Y-91491218D01*
X113653107Y-91491058D01*
X113914325Y-91493990D01*
X114092449Y-91507035D01*
X114197904Y-91537306D01*
X114241119Y-91591912D01*
X114232520Y-91677965D01*
X114182533Y-91802575D01*
X114101587Y-91972855D01*
X114039647Y-92090223D01*
X113795086Y-92417861D01*
X113473667Y-92700913D01*
X113090635Y-92927592D01*
X112661238Y-93086115D01*
X112517325Y-93114898D01*
X112255393Y-93143123D01*
X111949567Y-93157587D01*
X111632698Y-93157729D01*
X111337638Y-93142988D01*
X111097239Y-93112803D01*
X111037655Y-93100588D01*
X110663620Y-92981424D01*
X110304619Y-92799644D01*
X109982233Y-92570217D01*
X109718044Y-92308112D01*
X109533634Y-92028297D01*
X109496918Y-91946917D01*
X109456512Y-91835847D01*
X109423038Y-91708501D01*
X109395864Y-91555422D01*
X109374355Y-91367154D01*
X109357880Y-91134239D01*
X109345804Y-90847220D01*
X109337494Y-90496640D01*
X109332319Y-90073042D01*
X109329644Y-89566968D01*
X109328837Y-88968962D01*
X109328821Y-88850624D01*
X110824152Y-88850624D01*
X110825645Y-88961039D01*
X110842052Y-89132775D01*
X110885491Y-89267366D01*
X110966926Y-89407583D01*
X111108657Y-89574285D01*
X111321816Y-89719633D01*
X111398344Y-89750739D01*
X111689088Y-89809721D01*
X111974946Y-89784739D01*
X112236081Y-89682671D01*
X112452660Y-89510393D01*
X112604847Y-89274782D01*
X112638684Y-89173300D01*
X112671172Y-88925486D01*
X112653184Y-88669052D01*
X112585849Y-88452906D01*
X112559383Y-88407364D01*
X112443798Y-88258831D01*
X112305200Y-88125648D01*
X112280615Y-88106371D01*
X112146349Y-88021125D01*
X112000435Y-87975442D01*
X111798214Y-87954222D01*
X111661174Y-87951929D01*
X111400632Y-87994512D01*
X111181924Y-88113087D01*
X110977518Y-88319923D01*
X110904800Y-88417235D01*
X110852598Y-88524526D01*
X110829414Y-88656190D01*
X110824152Y-88850624D01*
X109328821Y-88850624D01*
X109328543Y-86725549D01*
X110089022Y-86725549D01*
X110849501Y-86725549D01*
X110849501Y-86930733D01*
X110849501Y-87135916D01*
X111043764Y-86979802D01*
X111166926Y-86891167D01*
X111510128Y-86725552D01*
X111890627Y-86637702D01*
X112289324Y-86627031D01*
X112687120Y-86692953D01*
X113064915Y-86834881D01*
X113403611Y-87052230D01*
X113421583Y-87066983D01*
X113749411Y-87388778D01*
X113994567Y-87750527D01*
X114173696Y-88176532D01*
X114192662Y-88235540D01*
X114252666Y-88445219D01*
X114284585Y-88624465D01*
X114293950Y-88817005D01*
X114290622Y-88925486D01*
X114286293Y-89066563D01*
G37*
%TD*%
D15*
%TO.C,H12*%
X107600000Y-120000000D03*
X108302944Y-118302944D03*
X108302944Y-121697056D03*
X110000000Y-117600000D03*
D16*
X110000000Y-120000000D03*
D15*
X110000000Y-122400000D03*
X111697056Y-118302944D03*
X111697056Y-121697056D03*
X112400000Y-120000000D03*
%TD*%
D17*
%TO.C,J2*%
X76250000Y-145525000D03*
D18*
X73750000Y-145525000D03*
%TD*%
D19*
%TO.C,U1*%
X83853000Y-151837800D03*
D20*
X83853000Y-143737800D03*
X98353000Y-143737800D03*
D19*
X98353000Y-151850000D03*
%TD*%
D21*
%TO.C,J9*%
X115500000Y-122225000D03*
D22*
X115500000Y-124765000D03*
%TD*%
D15*
%TO.C,H13*%
X77600000Y-120000000D03*
X78302944Y-118302944D03*
X78302944Y-121697056D03*
X80000000Y-117600000D03*
D16*
X80000000Y-120000000D03*
D15*
X80000000Y-122400000D03*
X81697056Y-118302944D03*
X81697056Y-121697056D03*
X82400000Y-120000000D03*
%TD*%
%TO.C,H5*%
X25279659Y-70780686D03*
X25982603Y-69083630D03*
X25982603Y-72477742D03*
X27679659Y-68380686D03*
D16*
X27679659Y-70780686D03*
D15*
X27679659Y-73180686D03*
X29376715Y-69083630D03*
X29376715Y-72477742D03*
X30079659Y-70780686D03*
%TD*%
D21*
%TO.C,J7*%
X139500000Y-121600000D03*
D22*
X142040000Y-121600000D03*
X144580000Y-121600000D03*
X147120000Y-121600000D03*
%TD*%
D23*
%TO.C,J6*%
X34293291Y-74809698D03*
D24*
X35229807Y-72491739D03*
%TD*%
D25*
%TO.C,R4*%
X129850000Y-73500000D03*
D26*
X129850000Y-68420000D03*
%TD*%
D25*
%TO.C,R1*%
X111000000Y-113500000D03*
D26*
X105920000Y-113500000D03*
%TD*%
D27*
%TO.C,J5*%
X66000000Y-77250000D03*
D28*
X68500000Y-77250000D03*
X71000000Y-77250000D03*
X73500000Y-77250000D03*
%TD*%
D15*
%TO.C,H7*%
X97600000Y-178000000D03*
X98302944Y-176302944D03*
X98302944Y-179697056D03*
X100000000Y-175600000D03*
D16*
X100000000Y-178000000D03*
D15*
X100000000Y-180400000D03*
X101697056Y-176302944D03*
X101697056Y-179697056D03*
X102400000Y-178000000D03*
%TD*%
D29*
%TO.C,J1*%
X56750000Y-77250000D03*
D18*
X59250000Y-77250000D03*
%TD*%
D15*
%TO.C,H4*%
X142600000Y-145000000D03*
X143302944Y-143302944D03*
X143302944Y-146697056D03*
X145000000Y-142600000D03*
D16*
X145000000Y-145000000D03*
D15*
X145000000Y-147400000D03*
X146697056Y-143302944D03*
X146697056Y-146697056D03*
X147400000Y-145000000D03*
%TD*%
%TO.C,H6*%
X169920341Y-70780686D03*
X170623285Y-69083630D03*
X170623285Y-72477742D03*
X172320341Y-68380686D03*
D16*
X172320341Y-70780686D03*
D15*
X172320341Y-73180686D03*
X174017397Y-69083630D03*
X174017397Y-72477742D03*
X174720341Y-70780686D03*
%TD*%
D21*
%TO.C,J8*%
X147120000Y-124200000D03*
D22*
X144580000Y-124200000D03*
X142040000Y-124200000D03*
X139500000Y-124200000D03*
%TD*%
D20*
%TO.C,SW1*%
X54500000Y-135500000D03*
X54500000Y-129000000D03*
X59000000Y-135500000D03*
X59000000Y-129000000D03*
%TD*%
D15*
%TO.C,H2*%
X142600000Y-55000000D03*
X143302944Y-53302944D03*
X143302944Y-56697056D03*
X145000000Y-52600000D03*
D16*
X145000000Y-55000000D03*
D15*
X145000000Y-57400000D03*
X146697056Y-53302944D03*
X146697056Y-56697056D03*
X147400000Y-55000000D03*
%TD*%
%TO.C,H15*%
X117600000Y-80000000D03*
X118302944Y-78302944D03*
X118302944Y-81697056D03*
X120000000Y-77600000D03*
D16*
X120000000Y-80000000D03*
D15*
X120000000Y-82400000D03*
X121697056Y-78302944D03*
X121697056Y-81697056D03*
X122400000Y-80000000D03*
%TD*%
%TO.C,H10*%
X114116715Y-64049803D03*
X114819659Y-62352747D03*
X114819659Y-65746859D03*
X116516715Y-61649803D03*
D16*
X116516715Y-64049803D03*
D15*
X116516715Y-66449803D03*
X118213771Y-62352747D03*
X118213771Y-65746859D03*
X118916715Y-64049803D03*
%TD*%
D25*
%TO.C,R3*%
X133000000Y-73500000D03*
D26*
X133000000Y-68420000D03*
%TD*%
D15*
%TO.C,H3*%
X52600000Y-145000000D03*
X53302944Y-143302944D03*
X53302944Y-146697056D03*
X55000000Y-142600000D03*
D16*
X55000000Y-145000000D03*
D15*
X55000000Y-147400000D03*
X56697056Y-143302944D03*
X56697056Y-146697056D03*
X57400000Y-145000000D03*
%TD*%
%TO.C,H8*%
X87600000Y-100000000D03*
X88302944Y-98302944D03*
X88302944Y-101697056D03*
X90000000Y-97600000D03*
D16*
X90000000Y-100000000D03*
D15*
X90000000Y-102400000D03*
X91697056Y-98302944D03*
X91697056Y-101697056D03*
X92400000Y-100000000D03*
%TD*%
D30*
%TO.C,U2*%
X119380000Y-141160000D03*
X119380000Y-138620000D03*
X119380000Y-136080000D03*
X119380000Y-133540000D03*
X119380000Y-131000000D03*
X119380000Y-128460000D03*
X119380000Y-125920000D03*
X119380000Y-123380000D03*
X119380000Y-120840000D03*
X121920000Y-120840000D03*
X124460000Y-120840000D03*
X127000000Y-120840000D03*
X129540000Y-120840000D03*
X132080000Y-120840000D03*
X134620000Y-120840000D03*
X134620000Y-123380000D03*
X134620000Y-125920000D03*
X134620000Y-128460000D03*
X134620000Y-131000000D03*
X134620000Y-133540000D03*
X134620000Y-136080000D03*
D31*
X134620000Y-138620000D03*
D30*
X134620000Y-141160000D03*
%TD*%
D15*
%TO.C,H11*%
X134836715Y-64049803D03*
X135539659Y-62352747D03*
X135539659Y-65746859D03*
X137236715Y-61649803D03*
D16*
X137236715Y-64049803D03*
D15*
X137236715Y-66449803D03*
X138933771Y-62352747D03*
X138933771Y-65746859D03*
X139636715Y-64049803D03*
%TD*%
%TO.C,H1*%
X52600000Y-55000000D03*
X53302944Y-53302944D03*
X53302944Y-56697056D03*
X55000000Y-52600000D03*
D16*
X55000000Y-55000000D03*
D15*
X55000000Y-57400000D03*
X56697056Y-53302944D03*
X56697056Y-56697056D03*
X57400000Y-55000000D03*
%TD*%
%TO.C,H14*%
X77600000Y-80000000D03*
X78302944Y-78302944D03*
X78302944Y-81697056D03*
X80000000Y-77600000D03*
D16*
X80000000Y-80000000D03*
D15*
X80000000Y-82400000D03*
X81697056Y-78302944D03*
X81697056Y-81697056D03*
X82400000Y-80000000D03*
%TD*%
D25*
%TO.C,R2*%
X111000000Y-111000000D03*
D26*
X105920000Y-111000000D03*
%TD*%
D27*
%TO.C,J4*%
X130500000Y-77500000D03*
D28*
X133000000Y-77500000D03*
X135500000Y-77500000D03*
X138000000Y-77500000D03*
%TD*%
D15*
%TO.C,H9*%
X107600000Y-100000000D03*
X108302944Y-98302944D03*
X108302944Y-101697056D03*
X110000000Y-97600000D03*
D16*
X110000000Y-100000000D03*
D15*
X110000000Y-102400000D03*
X111697056Y-98302944D03*
X111697056Y-101697056D03*
X112400000Y-100000000D03*
%TD*%
D20*
%TO.C,SW2*%
X145500000Y-129000000D03*
X145500000Y-135500000D03*
X141000000Y-129000000D03*
X141000000Y-135500000D03*
%TD*%
D29*
%TO.C,J3*%
X56750000Y-68250000D03*
D18*
X59250000Y-68250000D03*
%TD*%
%LPD*%
M02*
