0
SECTION
2
HEADER
9
$INSUNITS
70
4
9
$ACADVER
1
AC1014
9
$HANDSEED
5
FFFF
0
ENDSEC
0
SECTION
2
TABLES
0
TABLE
2
VPORT
5
8
100
AcDbSymbolTable
0
ENDTAB
0
TABLE
2
LTYPE
5
5
100
AcDbSymbolTable
0
LTYPE
5
14
100
AcDbSymbolTableRecord
100
AcDbLinetypeTableRecord
2
BYBLOCK
70
0
0
LTYPE
5
15
100
AcDbSymbolTableRecord
100
AcDbLinetypeTableRecord
2
BYLAYER
70
0
0
ENDTAB
0
TABLE
2
LAYER
5
2
100
AcDbSymbolTable
70
2
0
LAYER
5
50
100
AcDbSymbolTableRecord
100
AcDbLayerTableRecord
2
0
70
0
6
CONTINUOUS
0
ENDTAB
0
TABLE
2
STYLE
5
3
100
AcDbSymbolTable
70
1
0
STYLE
5
11
100
AcDbSymbolTableRecord
100
AcDbTextStyleTableRecord
2
STANDARD
70
0
0
ENDTAB
0
TABLE
2
VIEW
5
6
100
AcDbSymbolTable
70
0
0
ENDTAB
0
TABLE
2
UCS
5
7
100
AcDbSymbolTable
70
0
0
ENDTAB
0
TABLE
2
APPID
5
9
100
AcDbSymbolTable
70
2
0
APPID
5
12
100
AcDbSymbolTableRecord
100
AcDbRegAppTableRecord
2
ACAD
70
0
0
ENDTAB
0
TABLE
2
DIMSTYLE
5
A
100
AcDbSymbolTable
70
1
0
ENDTAB
0
TABLE
2
BLOCK_RECORD
5
1
100
AcDbSymbolTable
70
1
0
BLOCK_RECORD
5
1F
100
AcDbSymbolTableRecord
100
AcDbBlockTableRecord
2
*MODEL_SPACE
0
BLOCK_RECORD
5
1B
100
AcDbSymbolTableRecord
100
AcDbBlockTableRecord
2
*PAPER_SPACE
0
ENDTAB
0
ENDSEC
0
SECTION
2
BLOCKS
0
BLOCK
5
20
100
AcDbEntity
100
AcDbBlockBegin
2
*MODEL_SPACE
0
ENDBLK
5
21
100
AcDbEntity
100
AcDbBlockEnd
0
BLOCK
5
1C
100
AcDbEntity
100
AcDbBlockBegin
2
*PAPER_SPACE
0
ENDBLK
5
1D
100
AcDbEntity
100
AcDbBlockEnd
0
ENDSEC
0
SECTION
2
ENTITIES
0
LWPOLYLINE
5
100
100
AcDbEntity
8
0
100
AcDbPolyline
90
4
70
1
43
0.0
10
-33.017949192431161
20
-61.188765563018485
10
-36.48205080756891
20
-59.188765563018471
10
-34.48205080756891
20
-55.724663947880714
10
-31.017949192431157
20
-57.724663947880714
0
LWPOLYLINE
5
101
100
AcDbEntity
8
0
100
AcDbPolyline
90
4
70
1
43
0.0
10
-36.482050807568868
20
59.188765563018507
10
-33.017949192431118
20
61.188765563018499
10
-31.017949192431114
20
57.72466394788075
10
-34.482050807568868
20
55.724663947880757
0
LWPOLYLINE
5
102
100
AcDbEntity
8
0
100
AcDbPolyline
90
4
70
1
43
0.0
10
61.188765563018492
20
-33.017949192431139
10
59.188765563018499
20
-36.482050807568889
10
55.724663947880735
20
-34.482050807568889
10
57.724663947880728
20
-31.017949192431136
0
CIRCLE
5
103
100
AcDbEntity
8
0
100
AcDbCircle
10
44.54772714099547
20
-24.74873697274424
30
0
40
1.5500000000000025
210
0
220
-0
230
1
0
CIRCLE
5
104
100
AcDbEntity
8
0
100
AcDbCircle
10
22.499999999999993
20
-22.50000000000016
30
0
40
1.5500000000000025
210
0
220
-0
230
1
0
CIRCLE
5
105
100
AcDbEntity
8
0
100
AcDbCircle
10
-44.547727140995477
20
24.74873697274424
30
0
40
1.5499999999999934
210
0
220
-0
230
1
0
CIRCLE
5
106
100
AcDbEntity
8
0
100
AcDbCircle
10
-44.547727140995519
20
-24.748736972744211
30
0
40
1.5499999999999934
210
0
220
-0
230
1
0
CIRCLE
5
107
100
AcDbEntity
8
0
100
AcDbCircle
10
-24.748736972744219
20
44.547727140995534
30
0
40
1.5500000000000025
210
0
220
-0
230
1
0
CIRCLE
5
108
100
AcDbEntity
8
0
100
AcDbCircle
10
24.74873697274424
20
44.54772714099547
30
0
40
1.5500000000000025
210
0
220
-0
230
1
0
CIRCLE
5
109
100
AcDbEntity
8
0
100
AcDbCircle
10
44.547727140995534
20
24.748736972744201
30
0
40
1.5500000000000025
210
0
220
-0
230
1
0
LWPOLYLINE
5
110
100
AcDbEntity
8
0
100
AcDbPolyline
90
4
70
1
43
0.0
10
33.017949192431153
20
61.188765563018485
10
36.482050807568903
20
59.188765563018471
10
34.482050807568903
20
55.724663947880714
10
31.01794919243115
20
57.724663947880714
0
LWPOLYLINE
5
111
100
AcDbEntity
8
0
100
AcDbPolyline
90
4
70
1
43
0.0
10
-61.188765563018478
20
33.017949192431139
10
-59.188765563018478
20
36.482050807568896
10
-55.724663947880721
20
34.482050807568896
10
-57.724663947880714
20
31.017949192431139
0
LWPOLYLINE
5
112
100
AcDbEntity
8
0
100
AcDbPolyline
90
4
70
1
43
0.0
10
2.0000000000000009
20
-69.500000000000014
10
-2.0000000000000009
20
-69.500000000000014
10
-2.0000000000000009
20
-65.5
10
1.9999999999999996
20
-65.5
0
LWPOLYLINE
5
113
100
AcDbEntity
8
0
100
AcDbPolyline
90
4
70
1
43
0.0
10
-59.188765563018528
20
-36.482050807568839
10
-61.188765563018521
20
-33.017949192431082
10
-57.724663947880757
20
-31.017949192431082
10
-55.724663947880764
20
-34.482050807568839
0
LWPOLYLINE
5
114
100
AcDbEntity
8
0
100
AcDbPolyline
90
4
70
1
43
0.0
10
2.0000000000000093
20
62.500000000000007
10
2.0000000000000089
20
58.500000000000007
10
-1.9999999999999916
20
58.500000000000007
10
-1.999999999999992
20
62.500000000000007
0
CIRCLE
5
115
100
AcDbEntity
8
0
100
AcDbCircle
10
24.748736972744201
20
-44.547727140995534
30
0
40
1.5500000000000025
210
0
220
-0
230
1
0
CIRCLE
5
116
100
AcDbEntity
8
0
100
AcDbCircle
10
-32
20
70
30
0
40
1.549999999999998
210
0
220
-0
230
1
0
CIRCLE
5
117
100
AcDbEntity
8
0
100
AcDbCircle
10
22.500000000000103
20
34.499999999999929
30
0
40
1.549999999999998
210
0
220
-0
230
1
0
CIRCLE
5
118
100
AcDbEntity
8
0
100
AcDbCircle
10
-22.500000000000078
20
-22.500000000000078
30
0
40
1.549999999999998
210
0
220
-0
230
1
0
CIRCLE
5
119
100
AcDbEntity
8
0
100
AcDbCircle
10
-24.748736972744233
20
-44.54772714099547
30
0
40
1.549999999999998
210
0
220
-0
230
1
0
CIRCLE
5
120
100
AcDbEntity
8
0
100
AcDbCircle
10
-22.499999999999972
20
34.500000000000014
30
0
40
1.5500000000000025
210
0
220
-0
230
1
0
CIRCLE
5
121
100
AcDbEntity
8
0
100
AcDbCircle
10
32
20
70
30
0
40
1.5500000000000025
210
0
220
-0
230
1
0
LWPOLYLINE
5
122
100
AcDbEntity
8
0
100
AcDbPolyline
90
4
70
1
43
0.0
10
36.482050807568875
20
-59.188765563018499
10
33.017949192431125
20
-61.188765563018492
10
31.017949192431121
20
-57.724663947880742
10
34.482050807568875
20
-55.724663947880742
0
LWPOLYLINE
5
123
100
AcDbEntity
8
0
100
AcDbPolyline
90
4
70
1
43
0.0
10
59.188765563018507
20
36.482050807568868
10
61.188765563018499
20
33.017949192431118
10
57.72466394788075
20
31.017949192431114
10
55.724663947880757
20
34.482050807568868
0
LWPOLYLINE
5
124
100
AcDbEntity
8
0
100
AcDbPolyline
90
4
70
1
43
0.0
10
-69.500000000000014
20
-1.9999999999999851
10
-69.500000000000014
20
2.000000000000016
10
-65.5
20
2.0000000000000151
10
-65.5
20
-1.9999999999999851
0
LWPOLYLINE
5
125
100
AcDbEntity
8
0
100
AcDbPolyline
90
4
70
1
43
0.0
10
69.500000000000028
20
2.0000000000000169
10
69.500000000000028
20
-1.9999999999999858
10
65.500000000000028
20
-1.9999999999999867
10
65.500000000000028
20
2.0000000000000147
0
LWPOLYLINE
5
126
100
AcDbEntity
8
0
100
AcDbPolyline
90
44
70
1
43
0.0
10
72.172884996784774
20
-42.474400186946795
42
0.49413911078157746
10
73.74761072770896
20
-42.26452308916204
42
0.0015007848704256237
10
74.000000000000014
20
-41.821047332652945
10
74.000000000000028
20
41.821047332652967
42
0.0015007848704394944
10
73.747610727707766
20
42.264523089164065
42
0.49413911078164668
10
72.172884996783452
20
42.474400186948685
10
67.175144212722117
20
37.476659402887165
42
-0.41421356237309875
10
61.518289963229691
20
37.476659402887115
10
37.476659402887208
20
61.518289963229471
42
-0.41421356237311363
10
37.476659402887378
20
67.175144212722017
10
45.40023892065156
20
75.098723730485247
42
0.49031439482588801
10
45.201008641049896
20
76.667260403849923
42
0.033376478688123989
10
34.597687784012329
20
82.000000000000028
10
32.499999999999993
20
82.000000000000014
10
26.726497308103649
20
71.999999999999972
42
-0.26794919243112142
10
18.066243270259285
20
67.000000000000014
10
-18.066243270259307
20
67.000000000000014
42
-0.26794919243112164
10
-26.726497308103674
20
71.999999999999972
10
-32.500000000000007
20
82.000000000000014
10
-34.597687784012415
20
82.000000000000014
42
0.03337647868830651
10
-45.201008641105886
20
76.667260403816925
42
0.4903143948256275
10
-45.400238920707039
20
75.098723730452704
10
-37.476659402932029
20
67.175144212676642
42
-0.41421356237307499
10
-37.476659402932214
20
61.518289963184444
10
-61.518289963214912
20
37.476659402901731
42
-0.41421356237462109
10
-67.175144212722032
20
37.476659402916475
10
-72.172884996750184
20
42.474400186996697
42
0.49413911078303568
10
-73.747610727677795
20
42.264523089216382
42
0.0015007848706105659
10
-74.000000000000043
20
41.821047332652881
10
-74.000000000000057
20
-41.821047332652867
42
0.0015007848704579885
10
-73.747610727704711
20
-42.264523089169394
42
0.4941391107817828
10
-72.17288499678007
20
-42.474400186953581
10
-67.175144212722046
20
-37.476659402890093
42
-0.41421356237325407
10
-61.518289963228128
20
-37.476659402888536
10
-37.47665940288848
20
-61.518289963228071
42
-0.41421356237325091
10
-37.476659402889979
20
-67.175144212721975
10
-42.474400186953467
20
-72.172884996780155
42
0.49413911078177647
10
-42.264523089169288
20
-73.747610727704782
42
0.2662372233221213
10
42.264523089162068
20
-73.747610727708917
42
0.494139110781597
10
42.47440018694688
20
-72.172884996784731
10
37.476659402885986
20
-67.175144212722003
42
-0.41421356237304052
10
37.476659402886519
20
-61.518289963230146
10
61.518289963230259
20
-37.476659402886511
42
-0.41421356237303797
10
67.175144212722088
20
-37.476659402885986
0
CIRCLE
5
127
100
AcDbEntity
8
0
100
AcDbCircle
10
-68.000000000000057
20
-26
30
0
40
1.6000000000000014
210
0
220
-0
230
1
0
CIRCLE
5
128
100
AcDbEntity
8
0
100
AcDbCircle
10
26.000000000000018
20
-68
30
0
40
1.6000000000000014
210
0
220
-0
230
1
0
CIRCLE
5
129
100
AcDbEntity
8
0
100
AcDbCircle
10
68
20
26
30
0
40
1.6000000000000014
210
0
220
-0
230
1
0
CIRCLE
5
130
100
AcDbEntity
8
0
100
AcDbCircle
10
68
20
-26
30
0
40
1.6000000000000014
210
0
220
-0
230
1
0
CIRCLE
5
131
100
AcDbEntity
8
0
100
AcDbCircle
10
-25.999999999999982
20
-67.999999999999986
30
0
40
1.6000000000000014
210
0
220
-0
230
1
0
CIRCLE
5
132
100
AcDbEntity
8
0
100
AcDbCircle
10
-68.000000000000085
20
26
30
0
40
1.6000000000000014
210
0
220
-0
230
1
0
LWPOLYLINE
5
133
100
AcDbEntity
8
0
100
AcDbPolyline
90
4
70
1
43
0.0
10
-36.482050807568918
20
-59.188765563018478
10
-33.017949192431161
20
-61.188765563018492
10
-31.017949192431157
20
-57.724663947880714
10
-34.48205080756891
20
-55.724663947880714
0
LWPOLYLINE
5
134
100
AcDbEntity
8
0
100
AcDbPolyline
90
4
70
1
43
0.0
10
-33.017949192431118
20
61.188765563018499
10
-36.482050807568868
20
59.188765563018507
10
-34.482050807568868
20
55.724663947880764
10
-31.017949192431114
20
57.72466394788075
0
LWPOLYLINE
5
135
100
AcDbEntity
8
0
100
AcDbPolyline
90
4
70
1
43
0.0
10
59.188765563018499
20
-36.482050807568889
10
61.188765563018492
20
-33.017949192431139
10
57.724663947880742
20
-31.017949192431136
10
55.724663947880735
20
-34.482050807568889
0
CIRCLE
5
136
100
AcDbEntity
8
0
100
AcDbCircle
10
44.54772714099547
20
-24.74873697274424
30
0
40
1.5500000000000025
210
0
220
0
230
1
0
CIRCLE
5
137
100
AcDbEntity
8
0
100
AcDbCircle
10
22.499999999999993
20
-22.50000000000016
30
0
40
1.5500000000000025
210
0
220
0
230
1
0
CIRCLE
5
138
100
AcDbEntity
8
0
100
AcDbCircle
10
-44.547727140995477
20
24.74873697274424
30
0
40
1.5499999999999936
210
0
220
0
230
1
0
CIRCLE
5
139
100
AcDbEntity
8
0
100
AcDbCircle
10
-44.547727140995519
20
-24.748736972744211
30
0
40
1.5499999999999936
210
0
220
0
230
1
0
CIRCLE
5
140
100
AcDbEntity
8
0
100
AcDbCircle
10
-24.748736972744219
20
44.547727140995534
30
0
40
1.5500000000000025
210
0
220
0
230
1
0
CIRCLE
5
141
100
AcDbEntity
8
0
100
AcDbCircle
10
24.74873697274424
20
44.54772714099547
30
0
40
1.5500000000000025
210
0
220
0
230
1
0
CIRCLE
5
142
100
AcDbEntity
8
0
100
AcDbCircle
10
44.547727140995534
20
24.748736972744201
30
0
40
1.5500000000000025
210
0
220
0
230
1
0
LWPOLYLINE
5
143
100
AcDbEntity
8
0
100
AcDbPolyline
90
4
70
1
43
0.0
10
36.48205080756891
20
59.188765563018471
10
33.017949192431153
20
61.188765563018485
10
31.01794919243115
20
57.724663947880714
10
34.482050807568896
20
55.7246639478807
0
LWPOLYLINE
5
144
100
AcDbEntity
8
0
100
AcDbPolyline
90
4
70
1
43
0.0
10
-59.188765563018492
20
36.482050807568896
10
-61.188765563018485
20
33.017949192431146
10
-57.724663947880721
20
31.017949192431139
10
-55.724663947880721
20
34.482050807568896
0
LWPOLYLINE
5
145
100
AcDbEntity
8
0
100
AcDbPolyline
90
4
70
1
43
0.0
10
-2.0000000000000009
20
-69.500000000000014
10
2.0000000000000009
20
-69.500000000000014
10
1.9999999999999996
20
-65.5
10
-2.0000000000000009
20
-65.5
0
LWPOLYLINE
5
146
100
AcDbEntity
8
0
100
AcDbPolyline
90
4
70
1
43
0.0
10
-61.188765563018521
20
-33.017949192431082
10
-59.188765563018528
20
-36.482050807568839
10
-55.724663947880764
20
-34.482050807568839
10
-57.724663947880757
20
-31.017949192431082
0
LWPOLYLINE
5
147
100
AcDbEntity
8
0
100
AcDbPolyline
90
4
70
1
43
0.0
10
2.0000000000000089
20
58.500000000000007
10
2.0000000000000093
20
62.500000000000007
10
-1.9999999999999918
20
62.500000000000007
10
-1.9999999999999916
20
58.500000000000007
0
CIRCLE
5
148
100
AcDbEntity
8
0
100
AcDbCircle
10
24.748736972744201
20
-44.547727140995534
30
0
40
1.5500000000000025
210
0
220
0
230
1
0
CIRCLE
5
149
100
AcDbEntity
8
0
100
AcDbCircle
10
-32
20
70
30
0
40
1.549999999999998
210
0
220
0
230
1
0
CIRCLE
5
150
100
AcDbEntity
8
0
100
AcDbCircle
10
22.500000000000103
20
34.499999999999929
30
0
40
1.549999999999998
210
0
220
0
230
1
0
CIRCLE
5
151
100
AcDbEntity
8
0
100
AcDbCircle
10
-22.500000000000078
20
-22.500000000000078
30
0
40
1.549999999999998
210
0
220
0
230
1
0
CIRCLE
5
152
100
AcDbEntity
8
0
100
AcDbCircle
10
-24.748736972744233
20
-44.54772714099547
30
0
40
1.549999999999998
210
0
220
0
230
1
0
CIRCLE
5
153
100
AcDbEntity
8
0
100
AcDbCircle
10
-22.499999999999972
20
34.500000000000014
30
0
40
1.5500000000000025
210
0
220
0
230
1
0
CIRCLE
5
154
100
AcDbEntity
8
0
100
AcDbCircle
10
32
20
70
30
0
40
1.5500000000000025
210
0
220
0
230
1
0
LWPOLYLINE
5
155
100
AcDbEntity
8
0
100
AcDbPolyline
90
4
70
1
43
0.0
10
33.017949192431132
20
-61.188765563018499
10
36.482050807568882
20
-59.188765563018507
10
34.482050807568875
20
-55.724663947880742
10
31.017949192431121
20
-57.724663947880742
0
LWPOLYLINE
5
156
100
AcDbEntity
8
0
100
AcDbPolyline
90
4
70
1
43
0.0
10
61.188765563018499
20
33.017949192431118
10
59.188765563018507
20
36.482050807568868
10
55.724663947880757
20
34.482050807568868
10
57.72466394788075
20
31.017949192431114
0
LWPOLYLINE
5
157
100
AcDbEntity
8
0
100
AcDbPolyline
90
4
70
1
43
0.0
10
-69.500000000000014
20
2.000000000000016
10
-69.500000000000014
20
-1.9999999999999851
10
-65.5
20
-1.9999999999999851
10
-65.5
20
2.0000000000000151
0
LWPOLYLINE
5
158
100
AcDbEntity
8
0
100
AcDbPolyline
90
4
70
1
43
0.0
10
69.500000000000028
20
-1.9999999999999858
10
69.500000000000028
20
2.0000000000000169
10
65.500000000000028
20
2.0000000000000147
10
65.500000000000028
20
-1.9999999999999865
0
LWPOLYLINE
5
159
100
AcDbEntity
8
0
100
AcDbPolyline
90
44
70
1
43
0.0
10
-26.726497308103674
20
71.999999999999972
42
0.26794919243112114
10
-18.066243270259307
20
67.000000000000014
10
18.066243270259289
20
67.000000000000014
42
0.26794919243112125
10
26.726497308103649
20
71.999999999999972
10
32.499999999999993
20
82.000000000000014
10
34.597687784027464
20
82.000000000036124
42
-0.033376478688130463
10
45.201008641049896
20
76.667260403849909
42
-0.49031439482588085
10
45.40023892065156
20
75.098723730485247
10
37.476659402887385
20
67.175144212722017
42
0.41421356237311457
10
37.476659402887208
20
61.518289963229471
10
61.518289963229691
20
37.476659402887115
42
0.41421356237309825
10
67.175144212722103
20
37.476659402887179
10
72.172884996783452
20
42.474400186948685
42
-0.49413911078163675
10
73.747610727709457
20
42.264523089164172
42
-0.0015007848704302728
10
74
20
41.821047332652967
10
73.999999999999702
20
-41.821047332653585
42
-0.0015007848704209469
10
73.747610727708945
20
-42.264523089162026
42
-0.49413911078158229
10
72.172884996784774
20
-42.474400186946795
10
67.175144212722088
20
-37.476659402885986
42
0.41421356237303797
10
61.518289963230259
20
-37.476659402886511
10
37.476659402886519
20
-61.518289963230146
42
0.41421356237303991
10
37.476659402885986
20
-67.175144212722003
10
42.47440018694688
20
-72.172884996784731
42
-0.49413911078158462
10
42.264523089035976
20
-73.747610727488791
42
-0.26623722332166305
10
-42.264523089169266
20
-73.747610727704782
42
-0.49413911078178263
10
-42.474400186953467
20
-72.172884996780155
10
-37.476659402889979
20
-67.17514421272196
42
0.41421356237325002
10
-37.476659402888473
20
-61.518289963228092
10
-61.518289963228128
20
-37.476659402888536
42
0.41421356237325485
10
-67.175144212722046
20
-37.476659402890093
10
-72.17288499678007
20
-42.474400186953574
42
-0.4941391107817848
10
-73.747610727703062
20
-42.264523089169224
42
-0.0015007848704580284
10
-74.000000000000043
20
-41.821047332652881
10
-74.000000000000355
20
41.821047332652327
42
-0.0015007848706197885
10
-73.747610727677795
20
42.264523089216382
42
-0.49413911078303568
10
-72.17288499675017
20
42.474400186996704
10
-67.175144212722032
20
37.476659402916475
42
0.41421356237461976
10
-61.518289963214912
20
37.476659402901745
10
-37.476659402932206
20
61.518289963184444
42
0.41421356237307388
10
-37.476659402932029
20
67.175144212676642
10
-45.400238920707054
20
75.09872373045269
42
-0.49031439482562128
10
-45.201008641116971
20
76.667260403835527
42
-0.033376478688398992
10
-34.597687784012415
20
82.000000000000028
10
-32.5
20
82.000000000000014
0
CIRCLE
5
160
100
AcDbEntity
8
0
100
AcDbCircle
10
-68.000000000000057
20
-26
30
0
40
1.6000000000000014
210
0
220
0
230
1
0
CIRCLE
5
161
100
AcDbEntity
8
0
100
AcDbCircle
10
26.000000000000018
20
-68
30
0
40
1.6000000000000014
210
0
220
0
230
1
0
CIRCLE
5
162
100
AcDbEntity
8
0
100
AcDbCircle
10
68
20
26
30
0
40
1.6000000000000014
210
0
220
0
230
1
0
CIRCLE
5
163
100
AcDbEntity
8
0
100
AcDbCircle
10
68
20
-26
30
0
40
1.6000000000000014
210
0
220
0
230
1
0
CIRCLE
5
164
100
AcDbEntity
8
0
100
AcDbCircle
10
-25.999999999999982
20
-67.999999999999986
30
0
40
1.6000000000000014
210
0
220
0
230
1
0
CIRCLE
5
165
100
AcDbEntity
8
0
100
AcDbCircle
10
-68.000000000000085
20
26
30
0
40
1.6000000000000014
210
0
220
0
230
1
0
LWPOLYLINE
5
166
100
AcDbEntity
8
0
100
AcDbPolyline
90
4
70
1
43
0.0
10
14.999999999999998
20
40.000000000000057
10
-15.000000000000002
20
40.000000000000071
10
-14.999999999999993
20
58.000000000000071
10
15.000000000000007
20
58.000000000000057
0
CIRCLE
5
167
100
AcDbEntity
8
0
100
AcDbCircle
10
13.000000000000009
20
56.000000000000057
30
0
40
0.75000000000000011
210
0
220
0
230
1
0
CIRCLE
5
168
100
AcDbEntity
8
0
100
AcDbCircle
10
13.000000000000005
20
53.460000000000051
30
0
40
0.75000000000000011
210
0
220
0
230
1
0
CIRCLE
5
169
100
AcDbEntity
8
0
100
AcDbCircle
10
13
20
44.540000000000063
30
0
40
0.75000000000000011
210
0
220
0
230
1
0
CIRCLE
5
170
100
AcDbEntity
8
0
100
AcDbCircle
10
13
20
42.000000000000057
30
0
40
0.75000000000000011
210
0
220
0
230
1
0
CIRCLE
5
171
100
AcDbEntity
8
0
100
AcDbCircle
10
-12.999999999999993
20
56.000000000000071
30
0
40
0.75000000000000011
210
0
220
0
230
1
0
CIRCLE
5
172
100
AcDbEntity
8
0
100
AcDbCircle
10
-12.999999999999996
20
53.460000000000072
30
0
40
0.75000000000000011
210
0
220
0
230
1
0
CIRCLE
5
173
100
AcDbEntity
8
0
100
AcDbCircle
10
-5.4000000000000021
20
41.075000000000074
30
0
40
0.5
210
0
220
0
230
1
0
CIRCLE
5
174
100
AcDbEntity
8
0
100
AcDbCircle
10
-13
20
44.54000000000007
30
0
40
0.75000000000000011
210
0
220
0
230
1
0
CIRCLE
5
175
100
AcDbEntity
8
0
100
AcDbCircle
10
-13
20
42.000000000000071
30
0
40
0.75000000000000011
210
0
220
0
230
1
0
LWPOLYLINE
5
176
100
AcDbEntity
8
0
100
AcDbPolyline
90
12
70
1
43
0.0
10
-31.701385312873729
20
60.788410032215133
10
-32.861859353944872
20
60.118410032215131
10
-33.014359353944876
20
60.382547780369393
10
-35.785640646055079
20
58.782547780369391
10
-35.633140646055075
20
58.518410032215144
10
-36.793614687126222
20
57.848410032215142
10
-35.698614687126231
20
55.951814397927215
10
-34.538140646055083
20
56.621814397927217
10
-34.385640646055073
20
56.357676649772955
10
-31.61435935394487
20
57.957676649772964
10
-31.766859353944874
20
58.221814397927211
10
-30.606385312873726
20
58.891814397927213
0
LWPOLYLINE
5
177
100
AcDbEntity
8
0
100
AcDbPolyline
90
12
70
1
43
0.0
10
-57.848410032215092
20
36.793614687126279
10
-58.518410032215094
20
35.633140646055132
10
-58.782547780369356
20
35.785640646055128
10
-60.382547780369357
20
33.014359353944926
10
-60.118410032215095
20
32.861859353944922
10
-60.788410032215097
20
31.701385312873779
10
-58.891814397927178
20
30.60638531287378
10
-58.221814397927176
20
31.766859353944923
10
-57.957676649772921
20
31.614359353944927
10
-56.357676649772927
20
34.38564064605513
10
-56.621814397927182
20
34.538140646055133
10
-55.95181439792718
20
35.69861468712628
0
LWPOLYLINE
5
178
100
AcDbEntity
8
0
100
AcDbPolyline
90
12
70
1
43
0.0
10
-68.495000000000005
20
2.9400000000000142
10
-68.495000000000005
20
1.6000000000000165
10
-68.799999999999997
20
1.6000000000000165
10
-68.799999999999997
20
-1.5999999999999863
10
-68.495000000000005
20
-1.5999999999999868
10
-68.495000000000005
20
-2.9399999999999862
10
-66.304999999999993
20
-2.9399999999999862
10
-66.304999999999993
20
-1.5999999999999868
10
-66
20
-1.599999999999987
10
-66
20
1.6000000000000159
10
-66.304999999999993
20
1.6000000000000159
10
-66.304999999999993
20
2.9400000000000137
0
LWPOLYLINE
5
179
100
AcDbEntity
8
0
100
AcDbPolyline
90
12
70
1
43
0.0
10
-60.78841003221514
20
-31.701385312873697
10
-60.118410032215138
20
-32.861859353944844
10
-60.3825477803694
20
-33.01435935394484
10
-58.782547780369399
20
-35.78564064605505
10
-58.518410032215151
20
-35.633140646055054
10
-57.848410032215149
20
-36.793614687126201
10
-55.951814397927222
20
-35.698614687126202
10
-56.621814397927224
20
-34.538140646055055
10
-56.357676649772969
20
-34.385640646055052
10
-57.957676649772971
20
-31.614359353944845
10
-58.221814397927218
20
-31.766859353944845
10
-58.89181439792722
20
-30.606385312873702
0
LWPOLYLINE
5
180
100
AcDbEntity
8
0
100
AcDbPolyline
90
12
70
1
43
0.0
10
-36.793614687126279
20
-57.848410032215092
10
-35.633140646055132
20
-58.518410032215094
10
-35.785640646055128
20
-58.782547780369356
10
-33.014359353944926
20
-60.382547780369357
10
-32.861859353944922
20
-60.118410032215095
10
-31.701385312873779
20
-60.788410032215097
10
-30.60638531287378
20
-58.891814397927178
10
-31.766859353944923
20
-58.221814397927176
10
-31.614359353944927
20
-57.957676649772921
10
-34.38564064605513
20
-56.357676649772927
10
-34.538140646055133
20
-56.621814397927182
10
-35.69861468712628
20
-55.95181439792718
0
LWPOLYLINE
5
181
100
AcDbEntity
8
0
100
AcDbPolyline
90
12
70
1
43
0.0
10
-2.9400000000000013
20
-68.495000000000005
10
-1.6000000000000036
20
-68.495000000000005
10
-1.6000000000000036
20
-68.799999999999997
10
1.5999999999999992
20
-68.799999999999997
10
1.599999999999999
20
-68.495000000000005
10
2.9399999999999982
20
-68.495000000000005
10
2.9399999999999982
20
-66.304999999999993
10
1.599999999999999
20
-66.304999999999993
10
1.5999999999999992
20
-66
10
-1.6000000000000036
20
-66
10
-1.6000000000000036
20
-66.304999999999993
10
-2.9400000000000013
20
-66.304999999999993
0
LWPOLYLINE
5
182
100
AcDbEntity
8
0
100
AcDbPolyline
90
12
70
1
43
0.0
10
31.70138531287374
20
-60.788410032215126
10
32.86185935394488
20
-60.118410032215124
10
33.014359353944883
20
-60.382547780369379
10
35.785640646055093
20
-58.782547780369384
10
35.633140646055082
20
-58.518410032215122
10
36.793614687126237
20
-57.848410032215121
10
35.698614687126238
20
-55.951814397927208
10
34.538140646055091
20
-56.62181439792721
10
34.385640646055087
20
-56.357676649772948
10
31.614359353944881
20
-57.957676649772949
10
31.766859353944881
20
-58.221814397927204
10
30.606385312873737
20
-58.891814397927206
0
LWPOLYLINE
5
183
100
AcDbEntity
8
0
100
AcDbPolyline
90
12
70
1
43
0.0
10
57.848410032215121
20
-36.793614687126251
10
58.518410032215122
20
-35.633140646055111
10
58.782547780369384
20
-35.785640646055107
10
60.382547780369379
20
-33.014359353944904
10
60.118410032215124
20
-32.861859353944908
10
60.788410032215126
20
-31.701385312873754
10
58.891814397927206
20
-30.606385312873755
10
58.221814397927204
20
-31.766859353944902
10
57.957676649772949
20
-31.614359353944902
10
56.357676649772948
20
-34.385640646055109
10
56.62181439792721
20
-34.538140646055112
10
55.951814397927208
20
-35.698614687126252
0
LWPOLYLINE
5
184
100
AcDbEntity
8
0
100
AcDbPolyline
90
12
70
1
43
0.0
10
68.495000000000005
20
-2.9400000000000057
10
68.495000000000005
20
-1.6000000000000081
10
68.799999999999997
20
-1.6000000000000081
10
68.799999999999997
20
1.5999999999999948
10
68.495000000000005
20
1.5999999999999945
10
68.495000000000005
20
2.9399999999999937
10
66.304999999999993
20
2.9399999999999942
10
66.304999999999993
20
1.599999999999995
10
66
20
1.599999999999995
10
66
20
-1.6000000000000079
10
66.304999999999993
20
-1.6000000000000081
10
66.304999999999993
20
-2.9400000000000057
0
LWPOLYLINE
5
185
100
AcDbEntity
8
0
100
AcDbPolyline
90
12
70
1
43
0.0
10
60.788410032215126
20
31.701385312873732
10
60.118410032215124
20
32.86185935394488
10
60.382547780369379
20
33.014359353944876
10
58.782547780369384
20
35.785640646055086
10
58.518410032215122
20
35.633140646055082
10
57.848410032215121
20
36.79361468712623
10
55.951814397927208
20
35.698614687126231
10
56.62181439792721
20
34.538140646055083
10
56.357676649772948
20
34.385640646055087
10
57.957676649772949
20
31.614359353944877
10
58.221814397927204
20
31.766859353944877
10
58.891814397927206
20
30.606385312873734
0
LWPOLYLINE
5
186
100
AcDbEntity
8
0
100
AcDbPolyline
90
12
70
1
43
0.0
10
36.793614687126272
20
57.848410032215114
10
35.633140646055125
20
58.518410032215115
10
35.785640646055121
20
58.78254778036937
10
33.014359353944918
20
60.382547780369372
10
32.861859353944915
20
60.118410032215117
10
31.701385312873768
20
60.788410032215118
10
30.606385312873769
20
58.891814397927192
10
31.766859353944916
20
58.22181439792719
10
31.614359353944916
20
57.957676649772942
10
34.385640646055123
20
56.357676649772941
10
34.538140646055126
20
56.621814397927196
10
35.698614687126266
20
55.951814397927194
0
LWPOLYLINE
5
187
100
AcDbEntity
8
0
100
AcDbPolyline
90
12
70
1
43
0.0
10
2.9400000000000115
20
61.494999999999997
10
1.6000000000000136
20
61.494999999999997
10
1.6000000000000136
20
61.799999999999997
10
-1.5999999999999892
20
61.799999999999997
10
-1.599999999999989
20
61.494999999999997
10
-2.939999999999988
20
61.494999999999997
10
-2.9399999999999888
20
59.304999999999993
10
-1.5999999999999894
20
59.304999999999993
10
-1.5999999999999894
20
58.999999999999993
10
1.6000000000000134
20
58.999999999999993
10
1.6000000000000136
20
59.304999999999993
10
2.9400000000000115
20
59.304999999999993
0
CIRCLE
5
188
100
AcDbEntity
8
0
100
AcDbCircle
10
22.500000000000068
20
34.49999999999995
30
0
40
1.7499999999999982
210
0
220
-0
230
1
0
CIRCLE
5
189
100
AcDbEntity
8
0
100
AcDbCircle
10
22.499999999999957
20
-22.500000000000064
30
0
40
1.7500000000000071
210
0
220
-0
230
1
0
CIRCLE
5
190
100
AcDbEntity
8
0
100
AcDbCircle
10
-22.499999999999936
20
34.500000000000036
30
0
40
1.7500000000000016
210
0
220
-0
230
1
0
CIRCLE
5
191
100
AcDbEntity
8
0
100
AcDbCircle
10
-22.500000000000043
20
-22.499999999999972
30
0
40
1.7500000000000004
210
0
220
-0
230
1
0
LWPOLYLINE
5
192
100
AcDbEntity
8
0
100
AcDbPolyline
90
4
70
1
43
0.0
10
26.000000000000068
20
37.999999999999936
10
-25.999999999999936
20
38.000000000000036
10
-26.000000000000053
20
-25.999999999999961
10
25.999999999999947
20
-26.000000000000068
0
LWPOLYLINE
5
193
100
AcDbEntity
8
0
100
AcDbPolyline
90
28
70
1
43
0.0
10
-36.940490866892148
20
4.7249731838121214
10
-36.940490866892148
20
5.1929732638121209
10
-36.940490866892148
20
7.2249732638121236
10
-36.940490866892148
20
8.5457732638121229
10
-31.098490866892142
20
8.5457732638121229
10
-31.098490866892142
20
7.2249732638121209
10
-31.098490866892142
20
5.1929732638121209
10
-31.098490866892142
20
4.7249731838121214
10
-31.098490866892142
20
2.6929731838121218
10
-31.098490866892156
20
2.2249731038121219
10
-31.098490866892142
20
0.19297310381212185
10
-31.098490866892156
20
-0.27502697618787847
10
-31.098490866892146
20
-2.3070269761878803
10
-31.098490866892156
20
-2.7750270561878794
10
-31.098490866892146
20
-4.8070270561878781
10
-31.098490866892156
20
-5.2750271361878776
10
-31.098490866892146
20
-7.3070271361878802
10
-31.098490866892146
20
-8.6278271361878804
10
-36.940490866892155
20
-8.6278271361878787
10
-36.940490866892162
20
-7.3070271361878767
10
-36.940490866892155
20
-5.2750271361878776
10
-36.940490866892162
20
-4.8070270561878781
10
-36.940490866892155
20
-2.7750270561878789
10
-36.940490866892162
20
-2.3070269761878777
10
-36.940490866892155
20
-0.27502697618787764
10
-36.940490866892162
20
0.19297310381212324
10
-36.940490866892148
20
2.2249731038121237
10
-36.940490866892162
20
2.6929731838121223
0
LWPOLYLINE
5
194
100
AcDbEntity
8
0
100
AcDbPolyline
90
56
70
1
43
0.0
10
-27.484000000000023
20
-12.700000000000022
10
-29.516000000000023
20
-12.700000000000022
10
-29.770000000000024
20
-12.446000000000019
10
-29.770000000000024
20
-10.414000000000021
10
-29.516000000000027
20
-10.160000000000021
10
-29.770000000000024
20
-9.9060000000000201
10
-29.770000000000007
20
-7.8740000000000414
10
-29.516000000000027
20
-7.6200000000000232
10
-29.770000000000024
20
-7.3660000000000228
10
-29.770000000000024
20
-5.3340000000000227
10
-29.516000000000027
20
-5.0800000000000232
10
-29.770000000000024
20
-4.8260000000000201
10
-29.770000000000024
20
-2.7940000000000205
10
-29.516000000000027
20
-2.5400000000000214
10
-29.770000000000024
20
-2.2860000000000227
10
-29.770000000000042
20
-0.25400000000000411
10
-29.516000000000027
20
-2.2204460492503131e-14
10
-29.770000000000024
20
0.2539999999999798
10
-29.770000000000024
20
2.2859999999999787
10
-29.516000000000027
20
2.5399999999999787
10
-29.770000000000024
20
2.7939999999999787
10
-29.770000000000024
20
4.8259999999999783
10
-29.516000000000027
20
5.0799999999999788
10
-29.770000000000024
20
5.3339999999999783
10
-29.770000000000024
20
7.3659999999999792
10
-29.516000000000027
20
7.6199999999999788
10
-29.770000000000024
20
7.8739999999999792
10
-29.770000000000024
20
9.9059999999999775
10
-29.516000000000027
20
10.159999999999979
10
-27.48400000000003
20
10.159999999999981
10
-27.230000000000029
20
9.9059999999999793
10
-27.230000000000029
20
7.8739999999999792
10
-27.48400000000003
20
7.6199999999999788
10
-27.230000000000025
20
7.3659999999999792
10
-27.230000000000029
20
5.3339999999999783
10
-27.48400000000003
20
5.0799999999999788
10
-27.230000000000025
20
4.8259999999999783
10
-27.230000000000029
20
2.7939999999999787
10
-27.48400000000003
20
2.5399999999999787
10
-27.230000000000025
20
2.2859999999999783
10
-27.230000000000029
20
0.25399999999997874
10
-27.48400000000003
20
-2.2204460492503131e-14
10
-27.230000000000025
20
-0.25400000000002199
10
-27.230000000000043
20
-2.286000000000004
10
-27.484000000000023
20
-2.5400000000000214
10
-27.230000000000025
20
-2.79400000000002
10
-27.230000000000022
20
-4.8260000000000218
10
-27.484000000000023
20
-5.0800000000000232
10
-27.230000000000025
20
-5.3340000000000218
10
-27.230000000000008
20
-7.3660000000000414
10
-27.484000000000023
20
-7.6200000000000232
10
-27.230000000000025
20
-7.8740000000000219
10
-27.23000000000004
20
-9.9060000000000024
10
-27.484000000000023
20
-10.160000000000021
10
-27.230000000000025
20
-10.414000000000021
10
-27.23000000000004
20
-12.446000000000003
0
LWPOLYLINE
5
195
100
AcDbEntity
8
0
100
AcDbPolyline
90
8
70
1
43
0.0
10
-8.3000000000000504
20
-29.629999999999956
10
-9.5000000000000497
20
-29.629999999999956
10
-10.170000000000055
20
-29.62999999999996
10
-10.170000000000009
20
-80.42999999999995
10
-9.5000000000000053
20
-80.42999999999995
10
-8.3000000000000043
20
-80.42999999999995
10
-7.6300000000000079
20
-80.42999999999995
10
-7.6300000000000532
20
-29.629999999999956
0
LWPOLYLINE
5
196
100
AcDbEntity
8
0
100
AcDbPolyline
90
8
70
1
43
0.0
10
9.4999999999999503
20
-29.629999999999946
10
8.2999999999999492
20
-29.629999999999946
10
7.6299999999999466
20
-29.629999999999953
10
7.6299999999999919
20
-80.42999999999995
10
8.2999999999999954
20
-80.42999999999995
10
9.4999999999999947
20
-80.42999999999995
10
10.169999999999993
20
-80.42999999999995
10
10.169999999999945
20
-29.629999999999946
0
LWPOLYLINE
5
197
100
AcDbEntity
8
0
100
AcDbPolyline
90
20
70
1
43
0.0
10
29.080407701693559
20
2.7672211854986561
10
29.080407701693577
20
3.2352212654986578
10
29.080407701693652
20
5.267221265498657
10
29.080407701693701
20
6.5880212654986572
10
34.9224077016937
20
6.5880212654984414
10
34.92240770169365
20
5.2672212654984403
10
34.922407701693572
20
3.2352212654984407
10
34.922407701693558
20
2.7672211854984408
10
34.92240770169348
20
0.7352211854984414
10
34.922407701693466
20
0.26722110549844053
10
34.922407701693395
20
-1.7647788945015597
10
34.922407701693373
20
-2.2327789745015587
10
34.922407701693302
20
-4.264778974501561
10
34.922407701693253
20
-5.5855789745015603
10
29.080407701693254
20
-5.5855789745013453
10
29.080407701693296
20
-4.2647789745013434
10
29.080407701693378
20
-2.2327789745013442
10
29.080407701693392
20
-1.7647788945013441
10
29.080407701693471
20
0.26722110549865508
10
29.080407701693481
20
0.735221185498657
0
LWPOLYLINE
5
198
100
AcDbEntity
8
0
100
AcDbPolyline
90
4
70
1
43
0.0
10
52.693575034635181
20
32.732050807568875
10
54.42562584220407
20
33.732050807568868
10
56.425625842204056
20
30.267949192431118
10
54.693575034635174
20
29.267949192431118
0
LWPOLYLINE
5
199
100
AcDbEntity
8
0
100
AcDbPolyline
90
4
70
1
43
0.0
10
61.999999999999993
20
2
10
63.999999999999986
20
2
10
63.999999999999986
20
-2
10
61.999999999999993
20
-2
0
LWPOLYLINE
5
200
100
AcDbEntity
8
0
100
AcDbPolyline
90
4
70
1
43
0.0
10
54.693575034635188
20
-29.267949192431153
10
56.425625842204056
20
-30.267949192431161
10
54.425625842204042
20
-33.73205080756891
10
52.693575034635174
20
-32.73205080756891
0
LWPOLYLINE
5
201
100
AcDbEntity
8
0
100
AcDbPolyline
90
4
70
1
43
0.0
10
32.732050807568825
20
-52.693575034635217
10
33.732050807568818
20
-54.425625842204106
10
30.267949192431068
20
-56.425625842204084
10
29.267949192431068
20
-54.693575034635209
0
LWPOLYLINE
5
202
100
AcDbEntity
8
0
100
AcDbPolyline
90
4
70
1
43
0.0
10
1.9999999999999754
20
-62.000000000000014
10
1.9999999999999749
20
-64
10
-2.0000000000000266
20
-64
10
-2.000000000000028
20
-62.000000000000014
0
LWPOLYLINE
5
203
100
AcDbEntity
8
0
100
AcDbPolyline
90
4
70
1
43
0.0
10
-29.267949192431182
20
-54.693575034635188
10
-30.267949192431178
20
-56.425625842204056
10
-33.732050807568932
20
-54.425625842204056
10
-32.732050807568939
20
-52.693575034635174
0
LWPOLYLINE
5
204
100
AcDbEntity
8
0
100
AcDbPolyline
90
4
70
1
43
0.0
10
-52.693575034635231
20
-32.732050807568875
10
-54.425625842204113
20
-33.732050807568868
10
-56.425625842204099
20
-30.267949192431118
10
-54.693575034635217
20
-29.267949192431118
0
LWPOLYLINE
5
205
100
AcDbEntity
8
0
100
AcDbPolyline
90
4
70
1
43
0.0
10
-62.000000000000021
20
-1.999999999999994
10
-64.000000000000014
20
-1.999999999999994
10
-64.000000000000028
20
2.0000000000000067
10
-62.000000000000021
20
2.0000000000000062
0
LWPOLYLINE
5
206
100
AcDbEntity
8
0
100
AcDbPolyline
90
4
70
1
43
0.0
10
-54.693575034635217
20
29.267949192431143
10
-56.425625842204106
20
30.267949192431139
10
-54.425625842204106
20
33.732050807568896
10
-52.693575034635209
20
32.732050807568896
0
LWPOLYLINE
5
207
100
AcDbEntity
8
0
100
AcDbPolyline
90
4
70
1
43
0.0
10
-32.732050807568882
20
52.693575034635188
10
-33.732050807568882
20
54.425625842204077
10
-30.267949192431125
20
56.42562584220407
10
-29.267949192431129
20
54.693575034635195
0
LWPOLYLINE
5
208
100
AcDbEntity
8
0
100
AcDbPolyline
90
4
70
1
43
0.0
10
-2.0000000000000195
20
55.000000000000007
10
-2.0000000000000195
20
57
10
1.9999999999999822
20
57
10
1.999999999999984
20
55.000000000000007
0
LWPOLYLINE
5
209
100
AcDbEntity
8
0
100
AcDbPolyline
90
4
70
1
43
0.0
10
29.267949192431114
20
54.693575034635195
10
30.267949192431111
20
56.425625842204077
10
33.732050807568868
20
54.425625842204077
10
32.732050807568875
20
52.693575034635188
0
ENDSEC
0
SECTION
2
OBJECTS
0
DICTIONARY
5
C
100
AcDbDictionary
3
ACAD_GROUP
350
D
3
ACAD_MLINESTYLE
350
17
0
DICTIONARY
5
D
100
AcDbDictionary
0
DICTIONARY
5
1A
330
C
100
AcDbDictionary
0
DICTIONARY
5
17
100
AcDbDictionary
0
ENDSEC
0
EOF
