%TF.GenerationSoftware,KiCad,Pcbnew,7.0.9*%
%TF.CreationDate,2024-01-03T16:13:27+08:00*%
%TF.ProjectId,bottom-rounded,626f7474-6f6d-42d7-926f-756e6465642e,rev?*%
%TF.SameCoordinates,Original*%
%TF.FileFunction,Profile,NP*%
%FSLAX46Y46*%
G04 Gerber Fmt 4.6, Leading zero omitted, Abs format (unit mm)*
G04 Created by KiCad (PCBNEW 7.0.9) date 2024-01-03 16:13:27*
%MOMM*%
%LPD*%
G01*
G04 APERTURE LIST*
%TA.AperFunction,Profile*%
%ADD10C,0.200000*%
%TD*%
%ADD11C,0.200000*%
%TA.AperFunction,Profile*%
%ADD12C,0.150000*%
%TD*%
G04 APERTURE END LIST*
D10*
X124294676Y-33885513D02*
G75*
G03*
X124294679Y-39542370I2828424J-2828427D01*
G01*
X161439327Y-139619548D02*
G75*
G03*
X164000000Y-138558875I1060673J1060648D01*
G01*
X18560660Y-139619535D02*
X23885516Y-134294679D01*
X27000000Y-121000000D02*
X27000000Y-115000000D01*
X114934524Y-54745166D02*
G75*
G03*
X114934524Y-54745166I-1600000J0D01*
G01*
X36575000Y-100000000D02*
G75*
G03*
X36575000Y-100000000I-1575000J0D01*
G01*
X161439340Y-60380465D02*
X156114484Y-65705321D01*
X99000000Y-51000000D02*
X99000000Y-45000000D01*
X27000000Y-79000000D02*
X33000000Y-79000000D01*
X23885516Y-65705321D02*
G75*
G03*
X29542370Y-65705321I2828427J2828426D01*
G01*
X130642065Y-172461870D02*
X124294679Y-166114484D01*
X111000000Y-167000000D02*
X111000000Y-173000000D01*
X156114484Y-134294679D02*
G75*
G03*
X150457630Y-134294679I-2828427J-2828426D01*
G01*
D11*
X45989429Y-23009539D02*
X46073919Y-22819760D01*
X46190066Y-22643338D01*
X46244074Y-22579821D01*
D10*
X146575000Y-100000000D02*
G75*
G03*
X146575000Y-100000000I-1575000J0D01*
G01*
X146047222Y-67473088D02*
G75*
G03*
X146047222Y-67473088I-1600000J0D01*
G01*
X46410953Y-24591148D02*
X55705321Y-33885516D01*
X37152778Y-132526912D02*
G75*
G03*
X37152778Y-132526912I-1600000J0D01*
G01*
X124294679Y-160457630D02*
X150457630Y-134294679D01*
X103839746Y-32000000D02*
G75*
G03*
X116830127Y-24500000I-6J15000010D01*
G01*
X49357903Y-172461838D02*
G75*
G03*
X49707552Y-174843293I1060697J-1060662D01*
G01*
X27000000Y-115000000D02*
X33000000Y-115000000D01*
X124294682Y-160457633D02*
G75*
G03*
X124294679Y-166114484I2828438J-2828427D01*
G01*
X68265476Y-54745166D02*
G75*
G03*
X68265476Y-54745166I-1600000J0D01*
G01*
X33000000Y-115000000D02*
X33000000Y-121000000D01*
X69000000Y-167000000D02*
X75000000Y-167000000D01*
X164000000Y-138558875D02*
X164000000Y-61441125D01*
X29542370Y-134294679D02*
X55705321Y-160457630D01*
X124294679Y-33885516D02*
X133589047Y-24591148D01*
D11*
X133257445Y-22219582D02*
X133432164Y-22320241D01*
X133605089Y-22439842D01*
X133752387Y-22575963D01*
X133798647Y-22629296D01*
D10*
X63169873Y-24500000D02*
X58839746Y-17000000D01*
X37152778Y-67473088D02*
G75*
G03*
X37152778Y-67473088I-1600000J0D01*
G01*
X161575000Y-68000000D02*
G75*
G03*
X161575000Y-68000000I-1575000J0D01*
G01*
X81000000Y-45000000D02*
X81000000Y-51000000D01*
X161575000Y-100000000D02*
G75*
G03*
X161575000Y-100000000I-1575000J0D01*
G01*
X147000000Y-115000000D02*
X153000000Y-115000000D01*
X21575000Y-132000000D02*
G75*
G03*
X21575000Y-132000000I-1575000J0D01*
G01*
X147000000Y-79000000D02*
X153000000Y-79000000D01*
X59073088Y-45552778D02*
G75*
G03*
X59073088Y-45552778I-1600000J0D01*
G01*
D11*
X45900429Y-23579729D02*
X45908873Y-23362941D01*
X45943124Y-23165423D01*
X45989429Y-23009539D01*
D10*
X156114484Y-134294679D02*
X161439340Y-139619535D01*
X46345166Y-76665476D02*
G75*
G03*
X46345166Y-76665476I-1600000J0D01*
G01*
X163999982Y-61441125D02*
G75*
G03*
X161439340Y-60380465I-1499982J25D01*
G01*
X75000000Y-51000000D02*
X75000000Y-45000000D01*
X68265476Y-145254834D02*
G75*
G03*
X68265476Y-145254834I-1600000J0D01*
G01*
X75000000Y-45000000D02*
X81000000Y-45000000D01*
X147000000Y-121000000D02*
X147000000Y-115000000D01*
X55705318Y-39542367D02*
G75*
G03*
X55705321Y-33885516I-2828438J2828427D01*
G01*
X121550000Y-29000000D02*
G75*
G03*
X121550000Y-29000000I-1550000J0D01*
G01*
X29542370Y-134294679D02*
G75*
G03*
X23885516Y-134294679I-2828427J-2828426D01*
G01*
X33000000Y-121000000D02*
X27000000Y-121000000D01*
X105000000Y-167000000D02*
X111000000Y-167000000D01*
X112550000Y-37000000D02*
G75*
G03*
X112550000Y-37000000I-1550000J0D01*
G01*
X57875243Y-16999999D02*
G75*
G03*
X46742555Y-22219582I32124157J-82998701D01*
G01*
X23885516Y-65705321D02*
X18560660Y-60380465D01*
D11*
X133798647Y-22629296D02*
X133914910Y-22799358D01*
X134000045Y-22980974D01*
X134026714Y-23057245D01*
D10*
X55705321Y-166114484D02*
X49357935Y-172461870D01*
X161575000Y-132000000D02*
G75*
G03*
X161575000Y-132000000I-1575000J0D01*
G01*
D11*
X133969176Y-24111124D02*
X133863779Y-24283954D01*
X133730031Y-24446106D01*
X133589047Y-24591148D01*
D10*
X103839746Y-32000000D02*
X76160254Y-32000000D01*
X153000000Y-121000000D02*
X147000000Y-121000000D01*
X63169874Y-24499999D02*
G75*
G03*
X76160254Y-32000000I12990376J7499989D01*
G01*
X136854834Y-76665476D02*
G75*
G03*
X136854834Y-76665476I-1600000J0D01*
G01*
D11*
X134096839Y-23633307D02*
X134067352Y-23835904D01*
X134003963Y-24035360D01*
X133969176Y-24111124D01*
D10*
X114934524Y-145254834D02*
G75*
G03*
X114934524Y-145254834I-1600000J0D01*
G01*
X21575000Y-68000000D02*
G75*
G03*
X21575000Y-68000000I-1575000J0D01*
G01*
X121160254Y-17000000D02*
X116830127Y-24500000D01*
X136854834Y-123334524D02*
G75*
G03*
X136854834Y-123334524I-1600000J0D01*
G01*
X18560666Y-60380459D02*
G75*
G03*
X16000000Y-61441125I-1060676J-1060631D01*
G01*
X16000018Y-138558875D02*
G75*
G03*
X18560660Y-139619535I1499982J-25D01*
G01*
X122124757Y-17000000D02*
X121160254Y-17000000D01*
X111000000Y-173000000D02*
X105000000Y-173000000D01*
X33000000Y-85000000D02*
X27000000Y-85000000D01*
X124126912Y-45552778D02*
G75*
G03*
X124126912Y-45552778I-1600000J0D01*
G01*
X133257446Y-22219580D02*
G75*
G03*
X122124757Y-17000000I-43257946J-77781520D01*
G01*
X99000000Y-45000000D02*
X105000000Y-45000000D01*
X130292437Y-174843273D02*
G75*
G03*
X130642064Y-172461871I-711137J1320773D01*
G01*
X70550000Y-37000000D02*
G75*
G03*
X70550000Y-37000000I-1550000J0D01*
G01*
X61550000Y-29000000D02*
G75*
G03*
X61550000Y-29000000I-1550000J0D01*
G01*
X16000000Y-61441125D02*
X16000000Y-138558875D01*
X71575000Y-178500000D02*
G75*
G03*
X71575000Y-178500000I-1575000J0D01*
G01*
X153000000Y-79000000D02*
X153000000Y-85000000D01*
X124126912Y-154447222D02*
G75*
G03*
X124126912Y-154447222I-1600000J0D01*
G01*
D11*
X46410953Y-24591148D02*
X46270366Y-24446516D01*
X46136616Y-24284451D01*
X46032089Y-24113630D01*
X46002181Y-24049829D01*
X134026714Y-23057245D02*
X134078087Y-23269261D01*
X134099106Y-23469775D01*
X134096839Y-23633307D01*
D10*
X49707552Y-174843294D02*
G75*
G03*
X130292448Y-174843294I40292448J74843295D01*
G01*
X153000000Y-85000000D02*
X147000000Y-85000000D01*
X146047222Y-132526912D02*
G75*
G03*
X146047222Y-132526912I-1600000J0D01*
G01*
X46345166Y-123334524D02*
G75*
G03*
X46345166Y-123334524I-1600000J0D01*
G01*
X111575000Y-178500000D02*
G75*
G03*
X111575000Y-178500000I-1575000J0D01*
G01*
X21575000Y-100000000D02*
G75*
G03*
X21575000Y-100000000I-1575000J0D01*
G01*
X105000000Y-173000000D02*
X105000000Y-167000000D01*
D11*
X46244074Y-22579821D02*
X46393203Y-22441157D01*
X46566746Y-22320891D01*
X46742555Y-22219582D01*
D10*
X33000000Y-79000000D02*
X33000000Y-85000000D01*
X150457630Y-65705321D02*
G75*
G03*
X156114484Y-65705321I2828427J2828426D01*
G01*
X81000000Y-51000000D02*
X75000000Y-51000000D01*
X55705324Y-166114487D02*
G75*
G03*
X55705321Y-160457630I-2828424J2828427D01*
G01*
X105000000Y-51000000D02*
X99000000Y-51000000D01*
X59073088Y-154447222D02*
G75*
G03*
X59073088Y-154447222I-1600000J0D01*
G01*
X75000000Y-167000000D02*
X75000000Y-173000000D01*
X58839746Y-17000000D02*
X57875243Y-17000000D01*
X147000000Y-85000000D02*
X147000000Y-79000000D01*
X153000000Y-115000000D02*
X153000000Y-121000000D01*
X55705321Y-39542370D02*
X29542370Y-65705321D01*
X75000000Y-173000000D02*
X69000000Y-173000000D01*
D11*
X46002181Y-24049829D02*
X45937250Y-23856036D01*
X45903914Y-23643927D01*
X45900429Y-23579729D01*
D10*
X69000000Y-173000000D02*
X69000000Y-167000000D01*
X150457630Y-65705321D02*
X124294679Y-39542370D01*
X105000000Y-45000000D02*
X105000000Y-51000000D01*
X27000000Y-85000000D02*
X27000000Y-79000000D01*
D12*
%TO.C,D4*%
X69539500Y-161633000D02*
X69539500Y-165033000D01*
X73339500Y-161633000D02*
X69539500Y-161633000D01*
X73339500Y-161633000D02*
X73339500Y-165033000D01*
X73339500Y-165033000D02*
X69539500Y-165033000D01*
%TO.C,D3*%
X38138000Y-116656500D02*
X34738000Y-116656500D01*
X38138000Y-120456500D02*
X38138000Y-116656500D01*
X38138000Y-120456500D02*
X34738000Y-120456500D01*
X34738000Y-120456500D02*
X34738000Y-116656500D01*
%TO.C,D1*%
X79304500Y-56172000D02*
X79304500Y-52772000D01*
X75504500Y-56172000D02*
X79304500Y-56172000D01*
X75504500Y-56172000D02*
X75504500Y-52772000D01*
X75504500Y-52772000D02*
X79304500Y-52772000D01*
%TO.C,D6*%
X141683000Y-84522000D02*
X145083000Y-84522000D01*
X141683000Y-80722000D02*
X141683000Y-84522000D01*
X141683000Y-80722000D02*
X145083000Y-80722000D01*
X145083000Y-80722000D02*
X145083000Y-84522000D01*
%TO.C,D2*%
X38138000Y-80715500D02*
X34738000Y-80715500D01*
X38138000Y-84515500D02*
X38138000Y-80715500D01*
X38138000Y-84515500D02*
X34738000Y-84515500D01*
X34738000Y-84515500D02*
X34738000Y-80715500D01*
%TO.C,D8*%
X105480500Y-161633000D02*
X105480500Y-165033000D01*
X109280500Y-161633000D02*
X105480500Y-161633000D01*
X109280500Y-161633000D02*
X109280500Y-165033000D01*
X109280500Y-165033000D02*
X105480500Y-165033000D01*
%TO.C,D7*%
X141694000Y-120452500D02*
X145094000Y-120452500D01*
X141694000Y-116652500D02*
X141694000Y-120452500D01*
X141694000Y-116652500D02*
X145094000Y-116652500D01*
X145094000Y-116652500D02*
X145094000Y-120452500D01*
%TO.C,D5*%
X104969000Y-56056000D02*
X104969000Y-52656000D01*
X101169000Y-56056000D02*
X104969000Y-56056000D01*
X101169000Y-56056000D02*
X101169000Y-52656000D01*
X101169000Y-52656000D02*
X104969000Y-52656000D01*
%TD*%
M02*
