M48
; DRILL file {KiCad 7.0.9} date 
; FORMAT={-:-/ absolute / metric / decimal}
; #@! TF.CreationDate,2024-01-03T16:13:31+08:00
; #@! TF.GenerationSoftware,Kicad,Pcbnew,7.0.9
; #@! TF.FileFunction,MixedPlating,1,2
FMAT,2
METRIC
; #@! TA.AperFunction,Plated,PTH,ViaDrill
T1C0.400
; #@! TA.AperFunction,Plated,PTH,ComponentDrill
T2C0.900
; #@! TA.AperFunction,Plated,PTH,ComponentDrill
T3C0.950
; #@! TA.AperFunction,Plated,PTH,ComponentDrill
T4C1.000
; #@! TA.AperFunction,Plated,PTH,ComponentDrill
T5C1.020
; #@! TA.AperFunction,Plated,PTH,ComponentDrill
T6C1.300
; #@! TA.AperFunction,Plated,PTH,ComponentDrill
T7C3.300
%
G90
G05
T1
X40.335Y-120.142
X40.437Y-84.074
X51.054Y-95.25
X60.071Y-91.948
X60.071Y-98.298
X71.12Y-124.46
X71.12Y-127.0
X72.39Y-121.92
X73.025Y-159.36
X73.492Y-127.802
X73.81Y-125.58
X74.445Y-123.675
X75.819Y-58.369
X85.192Y-53.391
X88.9Y-66.04
X102.616Y-58.725
X108.966Y-159.41
X139.344Y-81.026
X139.497Y-117.094
T2
X50.8Y-22.86
X50.8Y-25.4
T3
X115.951Y-69.723
X115.951Y-72.223
X115.951Y-74.723
X115.951Y-77.223
T4
X27.432Y-77.664
X27.432Y-113.732
X29.972Y-77.664
X29.972Y-113.732
X32.512Y-77.664
X32.512Y-113.732
X55.135Y-112.415
X55.135Y-114.915
X55.245Y-81.32
X55.245Y-83.82
X64.77Y-81.32
X64.77Y-83.82
X67.945Y-121.92
X67.945Y-124.46
X67.945Y-127.0
X73.025Y-92.71
X73.025Y-95.25
X73.025Y-97.79
X73.025Y-100.33
X76.387Y-167.513
X76.387Y-170.053
X76.387Y-172.593
X80.645Y-146.685
X82.296Y-45.466
X82.296Y-48.006
X82.296Y-50.546
X106.359Y-45.466
X106.359Y-48.006
X106.359Y-50.546
X106.68Y-93.98
X106.68Y-97.155
X106.68Y-99.695
X106.68Y-102.235
X106.68Y-104.775
X106.68Y-107.315
X106.68Y-109.855
X106.68Y-112.395
X106.68Y-114.935
X106.68Y-117.475
X106.68Y-120.015
X106.68Y-128.905
X106.68Y-131.445
X106.68Y-133.985
X106.68Y-136.525
X106.68Y-139.065
X112.328Y-167.513
X112.328Y-170.053
X112.328Y-172.593
X113.14Y-117.495
X113.14Y-119.995
X117.749Y-42.926
X119.545Y-41.13
X119.761Y-24.037
X121.031Y-21.838
X121.341Y-39.334
X122.301Y-19.638
X129.54Y-95.25
X129.54Y-97.75
X147.447Y-77.63
X147.447Y-113.605
X149.987Y-77.63
X149.987Y-113.605
X152.527Y-77.63
X152.527Y-113.605
T5
X76.454Y-66.802
X76.454Y-69.342
X76.454Y-78.232
X76.454Y-80.772
X80.75Y-94.42
X80.75Y-96.96
X80.75Y-99.5
X80.75Y-102.04
X80.75Y-104.58
X80.75Y-107.12
X80.75Y-109.66
X80.75Y-112.2
X80.75Y-114.74
X80.75Y-117.28
X80.75Y-119.82
X80.75Y-122.36
X80.75Y-124.9
X80.75Y-127.44
X80.75Y-129.98
X80.75Y-132.52
X80.75Y-135.06
X80.75Y-137.6
X80.75Y-140.14
X80.75Y-142.68
X82.554Y-60.841
X82.554Y-86.841
X85.094Y-60.841
X85.094Y-86.841
X93.984Y-60.841
X93.984Y-86.841
X96.524Y-60.841
X96.524Y-86.841
X98.53Y-94.42
X98.53Y-96.96
X98.53Y-99.5
X98.53Y-102.04
X98.53Y-104.58
X98.53Y-107.12
X98.53Y-109.66
X98.53Y-112.2
X98.53Y-114.74
X98.53Y-117.28
X98.53Y-119.82
X98.53Y-122.36
X98.53Y-124.9
X98.53Y-127.44
X98.53Y-129.98
X98.53Y-132.52
X98.53Y-135.06
X98.53Y-137.6
X98.53Y-140.14
X98.53Y-142.68
X102.454Y-66.802
X102.454Y-69.342
X102.454Y-78.232
X102.454Y-80.772
T6
X113.03Y-89.262
X113.03Y-103.762
X121.13Y-103.762
X121.142Y-89.262
T7
X29.972Y-87.664
X29.972Y-123.732
X66.387Y-170.053
X72.296Y-48.006
X96.359Y-48.006
X102.328Y-170.053
X149.987Y-87.63
X149.987Y-123.605
T0
M30
