%TF.GenerationSoftware,KiCad,Pcbnew,7.0.10*%
%TF.CreationDate,2024-01-30T15:13:43+08:00*%
%TF.ProjectId,top-rounded,746f702d-726f-4756-9e64-65642e6b6963,rev?*%
%TF.SameCoordinates,Original*%
%TF.FileFunction,Legend,Bot*%
%TF.FilePolarity,Positive*%
%FSLAX46Y46*%
G04 Gerber Fmt 4.6, Leading zero omitted, Abs format (unit mm)*
G04 Created by KiCad (PCBNEW 7.0.10) date 2024-01-30 15:13:43*
%MOMM*%
%LPD*%
G01*
G04 APERTURE LIST*
%ADD10C,0.200000*%
%ADD11C,0.150000*%
%ADD12C,0.120000*%
G04 APERTURE END LIST*
D10*
X143499200Y-64262000D02*
X142178400Y-64262000D01*
X56295166Y-123334524D02*
G75*
G03*
X53195166Y-123334524I-1550000J0D01*
G01*
X53195166Y-123334524D02*
G75*
G03*
X56295166Y-123334524I1550000J0D01*
G01*
X120000000Y-112000000D02*
G75*
G03*
X118000000Y-110000000I-2000000J0D01*
G01*
X69023088Y-45552778D02*
G75*
G03*
X65923088Y-45552778I-1550000J0D01*
G01*
X65923088Y-45552778D02*
G75*
G03*
X69023088Y-45552778I1550000J0D01*
G01*
X112851987Y-148335400D02*
X110819987Y-148335400D01*
X84819987Y-148335400D02*
X83499187Y-148335400D01*
X89819987Y-155493400D02*
X91851987Y-155493400D01*
X97959856Y-154651179D02*
X96639056Y-154651179D01*
X73789730Y-62414222D02*
G75*
G03*
X72289730Y-62414222I-750000J0D01*
G01*
X72289730Y-62414222D02*
G75*
G03*
X73789730Y-62414222I750000J0D01*
G01*
X150585786Y-89414214D02*
X154414214Y-85585786D01*
X157385865Y-147833744D02*
X158319812Y-146899798D01*
X33623847Y-65966990D02*
G75*
G03*
X42109127Y-65966991I4242640J4242637D01*
G01*
X116640000Y-83100000D02*
G75*
G03*
X115620000Y-83100000I-510000J0D01*
G01*
X115620000Y-83100000D02*
G75*
G03*
X116640000Y-83100000I510000J0D01*
G01*
X99991856Y-154651179D02*
X97959856Y-154651179D01*
D11*
X152146000Y-136906000D02*
X146304000Y-131064000D01*
D10*
X56000000Y-141250000D02*
X54000000Y-141250000D01*
X110819987Y-148335400D02*
X110351987Y-148335400D01*
X82003364Y-160276906D02*
X82003364Y-161597706D01*
X86851987Y-148335400D02*
X84819987Y-148335400D01*
X92319987Y-142493400D02*
X94351987Y-142493400D01*
X106058875Y-55000000D02*
X93941125Y-55000000D01*
X80000000Y-112000000D02*
X80000000Y-118000000D01*
X76161364Y-100244906D02*
X76161364Y-99776906D01*
X149352000Y-64262000D02*
X148031200Y-64262000D01*
X149171573Y-110000000D02*
X147000000Y-110000000D01*
X145384558Y-133756793D02*
X146318505Y-132822846D01*
X47102778Y-67473088D02*
G75*
G03*
X44002778Y-67473088I-1550000J0D01*
G01*
X44002778Y-67473088D02*
G75*
G03*
X47102778Y-67473088I1550000J0D01*
G01*
X56000000Y-136050000D02*
X56000000Y-136250000D01*
X154453352Y-150766258D02*
X155387299Y-149832311D01*
X65000000Y-135050000D02*
X62900000Y-135050000D01*
X116672787Y-148335400D02*
X115351987Y-148335400D01*
X137290001Y-58140001D02*
X137290001Y-108940001D01*
X84380000Y-83100000D02*
G75*
G03*
X83360000Y-83100000I-510000J0D01*
G01*
X83360000Y-83100000D02*
G75*
G03*
X84380000Y-83100000I510000J0D01*
G01*
X140270000Y-166116000D02*
X140016000Y-166370000D01*
X82000000Y-110000000D02*
G75*
G03*
X80000000Y-112000000I0J-2000000D01*
G01*
X44999978Y-84171573D02*
G75*
G03*
X45585786Y-85585786I2000122J73D01*
G01*
X122050001Y-58140001D02*
X121380001Y-58140001D01*
X26000000Y-68000000D02*
X26000000Y-78000000D01*
X66785305Y-50555726D02*
X66785305Y-56397726D01*
X149352000Y-58420000D02*
X149352000Y-64262000D01*
X62964505Y-56397726D02*
X60932505Y-56397726D01*
X89819987Y-142493400D02*
X91851987Y-142493400D01*
X105819987Y-161335400D02*
X104499187Y-161335400D01*
X45000000Y-82000000D02*
X45000000Y-84171573D01*
X84380000Y-67860000D02*
G75*
G03*
X83360000Y-67860000I-510000J0D01*
G01*
X83360000Y-67860000D02*
G75*
G03*
X84380000Y-67860000I510000J0D01*
G01*
X62900000Y-144950000D02*
X65000000Y-144950000D01*
X57235324Y-65626585D02*
X57235324Y-66947385D01*
X52000000Y-141550000D02*
G75*
G03*
X52000000Y-143450000I0J-950000D01*
G01*
X82220000Y-108250000D02*
X117780000Y-108250000D01*
X140524000Y-163830000D02*
X142556000Y-163830000D01*
X112851987Y-155493400D02*
X113319987Y-155493400D01*
X82003364Y-97744906D02*
X82003364Y-99776906D01*
X159518216Y-153963229D02*
X158584270Y-154897175D01*
X121380001Y-108940001D02*
X122050001Y-108940001D01*
X150314797Y-154904812D02*
X151248744Y-153970866D01*
X73075000Y-117500000D02*
G75*
G03*
X69925000Y-117500000I-1575000J0D01*
G01*
X69925000Y-117500000D02*
G75*
G03*
X73075000Y-117500000I1575000J0D01*
G01*
X56270551Y-116705934D02*
X56845287Y-117280670D01*
X117780000Y-63800000D02*
X82220000Y-63800000D01*
X64712875Y-110418872D02*
X64923487Y-110208259D01*
X82003364Y-103597706D02*
X76161364Y-103597706D01*
X137833224Y-141308128D02*
X141964141Y-145439045D01*
X142828426Y-37828426D02*
G75*
G03*
X137171574Y-32171574I-2828426J2828426D01*
G01*
X67575000Y-172000000D02*
G75*
G03*
X64425000Y-172000000I-1575000J0D01*
G01*
X64425000Y-172000000D02*
G75*
G03*
X67575000Y-172000000I1575000J0D01*
G01*
X112851987Y-161335400D02*
X110819987Y-161335400D01*
X114859000Y-64054000D02*
X114859000Y-84374000D01*
X104499187Y-161335400D02*
X104499187Y-155493400D01*
X64869730Y-88414222D02*
G75*
G03*
X63369730Y-88414222I-750000J0D01*
G01*
X63369730Y-88414222D02*
G75*
G03*
X64869730Y-88414222I750000J0D01*
G01*
X155000000Y-84171573D02*
X155000000Y-82000000D01*
X116640000Y-78020000D02*
G75*
G03*
X115620000Y-78020000I-510000J0D01*
G01*
X115620000Y-78020000D02*
G75*
G03*
X116640000Y-78020000I510000J0D01*
G01*
X62900000Y-146400000D02*
X62900000Y-144950000D01*
X166589284Y-146892161D02*
X165655338Y-147826108D01*
X116568993Y-84374000D02*
X117399000Y-84374000D01*
X157890873Y-65966991D02*
X137704581Y-45780700D01*
X78000000Y-120000000D02*
X77000000Y-120000000D01*
X76161364Y-102276906D02*
X76161364Y-100244906D01*
X63432505Y-56397726D02*
X62964505Y-56397726D01*
X105819987Y-142493400D02*
X107851987Y-142493400D01*
X28000000Y-80000000D02*
X43000000Y-80000000D01*
X84819987Y-142493400D02*
X86851987Y-142493400D01*
X137704595Y-42952287D02*
G75*
G03*
X137704581Y-45780700I1414205J-1414213D01*
G01*
X102491856Y-154651179D02*
X100459856Y-154651179D01*
X94351987Y-155493400D02*
X95672787Y-155493400D01*
X62295432Y-45780713D02*
G75*
G03*
X62295419Y-42952273I-1414232J1414213D01*
G01*
D11*
X64999999Y-96900000D02*
X76161364Y-96424106D01*
D10*
X110351987Y-148335400D02*
X108319987Y-148335400D01*
X82003364Y-100244906D02*
X82003364Y-102276906D01*
X130075000Y-117500000D02*
G75*
G03*
X126925000Y-117500000I-1575000J0D01*
G01*
X126925000Y-117500000D02*
G75*
G03*
X130075000Y-117500000I1575000J0D01*
G01*
X76161364Y-103597706D02*
X76161364Y-102276906D01*
X157000000Y-80000000D02*
G75*
G03*
X155000000Y-82000000I0J-2000000D01*
G01*
X140016000Y-163830000D02*
X140270000Y-164084000D01*
X137290001Y-108940001D02*
X137960001Y-108940001D01*
X60900000Y-135050000D02*
X57200000Y-135050000D01*
X61150000Y-133350000D02*
G75*
G03*
X60900000Y-133600000I0J-250000D01*
G01*
X78215476Y-54745166D02*
G75*
G03*
X75115476Y-54745166I-1550000J0D01*
G01*
X75115476Y-54745166D02*
G75*
G03*
X78215476Y-54745166I1550000J0D01*
G01*
X56000000Y-143750000D02*
X56000000Y-143950000D01*
X26000000Y-133000000D02*
G75*
G03*
X32000000Y-151000000I30000000J0D01*
G01*
X145096000Y-163830000D02*
X145350000Y-164084000D01*
X56295166Y-76665476D02*
G75*
G03*
X53195166Y-76665476I-1550000J0D01*
G01*
X53195166Y-76665476D02*
G75*
G03*
X56295166Y-76665476I1550000J0D01*
G01*
X139593354Y-147809833D02*
X139262428Y-148140759D01*
X152685585Y-152534025D02*
X153016511Y-152203099D01*
X65453322Y-108672635D02*
X64878586Y-108097899D01*
X57235324Y-59773785D02*
X57235324Y-61094585D01*
X50828427Y-109999978D02*
G75*
G03*
X49414214Y-110585786I73J-2000122D01*
G01*
X106058875Y-55000023D02*
G75*
G03*
X120201010Y-49142136I-75J20000123D01*
G01*
X115351987Y-142493400D02*
X116672787Y-142493400D01*
X83499187Y-155493400D02*
X84819987Y-155493400D01*
X113319987Y-142493400D02*
X115351987Y-142493400D01*
X139830001Y-58140001D02*
X139160001Y-58140001D01*
X61150000Y-146650000D02*
X62650000Y-146650000D01*
X143947717Y-135193634D02*
X145384558Y-133756793D01*
X116640000Y-75480000D02*
G75*
G03*
X115620000Y-75480000I-510000J0D01*
G01*
X115620000Y-75480000D02*
G75*
G03*
X116640000Y-75480000I510000J0D01*
G01*
X142556000Y-166370000D02*
X140524000Y-166370000D01*
X52000000Y-138450000D02*
X54000000Y-138450000D01*
X167171573Y-65171573D02*
X166376154Y-65966991D01*
X62964505Y-50555726D02*
X63432505Y-50555726D01*
X129000000Y-168000000D02*
G75*
G03*
X128000000Y-167000000I-1000000J0D01*
G01*
X51393324Y-59773785D02*
X57235324Y-59773785D01*
X145531200Y-64262000D02*
X143499200Y-64262000D01*
X142556000Y-163830000D02*
X142810000Y-164084000D01*
X84380000Y-65320000D02*
G75*
G03*
X83360000Y-65320000I-510000J0D01*
G01*
X83360000Y-65320000D02*
G75*
G03*
X84380000Y-65320000I510000J0D01*
G01*
X164218497Y-149262949D02*
X163887571Y-149593875D01*
X45585786Y-85585786D02*
X49414214Y-89414214D01*
X139160001Y-58140001D02*
X137960001Y-58140001D01*
X60932505Y-50555726D02*
X62964505Y-50555726D01*
X174000000Y-78000000D02*
X174000000Y-68000000D01*
X53000000Y-110000000D02*
X50828427Y-110000000D01*
X62650000Y-146650000D02*
G75*
G03*
X62900000Y-146400000I0J250000D01*
G01*
X76161364Y-99776906D02*
X76161364Y-97744906D01*
X135575000Y-172000000D02*
G75*
G03*
X132425000Y-172000000I-1575000J0D01*
G01*
X132425000Y-172000000D02*
G75*
G03*
X135575000Y-172000000I1575000J0D01*
G01*
X54000000Y-143750000D02*
X56000000Y-143750000D01*
X133694669Y-145446682D02*
X135131510Y-144009841D01*
X59611705Y-50555726D02*
X60932505Y-50555726D01*
X77579730Y-60414222D02*
X77579730Y-90414222D01*
X84380000Y-80560000D02*
G75*
G03*
X83360000Y-80560000I-510000J0D01*
G01*
X83360000Y-80560000D02*
G75*
G03*
X84380000Y-80560000I510000J0D01*
G01*
X76161364Y-155744906D02*
X76161364Y-154424106D01*
X143064000Y-163830000D02*
X145096000Y-163830000D01*
D11*
X64999999Y-103100000D02*
X76161364Y-103597706D01*
D10*
X105819987Y-148335400D02*
X104499187Y-148335400D01*
X124884524Y-54745166D02*
G75*
G03*
X121784524Y-54745166I-1550000J0D01*
G01*
X121784524Y-54745166D02*
G75*
G03*
X124884524Y-54745166I1550000J0D01*
G01*
X110819987Y-142493400D02*
X112851987Y-142493400D01*
X83499187Y-161335400D02*
X83499187Y-155493400D01*
X145350000Y-164084000D02*
X145350000Y-166116000D01*
X116672787Y-155493400D02*
X116672787Y-161335400D01*
X145999200Y-58420000D02*
X148031200Y-58420000D01*
X103812656Y-154651179D02*
X102491856Y-154651179D01*
X91851987Y-155493400D02*
X92319987Y-155493400D01*
X128999995Y-176993506D02*
G75*
G03*
X131746988Y-178848771I2000005J6D01*
G01*
X76161364Y-157776906D02*
X76161364Y-155744906D01*
X86851987Y-142493400D02*
X87319987Y-142493400D01*
X118000000Y-110000000D02*
X82000000Y-110000000D01*
X108319987Y-148335400D02*
X107851987Y-148335400D01*
X64923487Y-110208259D02*
X65956217Y-109175529D01*
X55000000Y-92000000D02*
G75*
G03*
X53000000Y-90000000I-2000000J0D01*
G01*
X149171573Y-90000022D02*
G75*
G03*
X150585786Y-89414214I-73J2000122D01*
G01*
X162450730Y-151030716D02*
X161516783Y-151964662D01*
X142810000Y-166116000D02*
X142556000Y-166370000D01*
X137171573Y-32171573D02*
X120201010Y-49142136D01*
X96639056Y-148809179D02*
X97959856Y-148809179D01*
X82220000Y-63800000D02*
X82220000Y-108250000D01*
X56000000Y-143950000D02*
X56000000Y-144950000D01*
X140016000Y-166370000D02*
X137984000Y-166370000D01*
X51393324Y-61094585D02*
X51393324Y-59773785D01*
X76161364Y-158244906D02*
X76161364Y-157776906D01*
X89351987Y-161335400D02*
X87319987Y-161335400D01*
X51393324Y-63594585D02*
X51393324Y-63126585D01*
X52000000Y-143450000D02*
X54000000Y-143450000D01*
X84819987Y-161335400D02*
X83499187Y-161335400D01*
X65956217Y-109175529D02*
X65453322Y-108672635D01*
X87319987Y-155493400D02*
X89351987Y-155493400D01*
X148031200Y-64262000D02*
X145999200Y-64262000D01*
X82003364Y-154424106D02*
X82003364Y-155744906D01*
X59579730Y-90414222D02*
X59579730Y-60414222D01*
X58591524Y-116540223D02*
X59620186Y-115511560D01*
X54000000Y-138750000D02*
X56000000Y-138750000D01*
X110819987Y-155493400D02*
X112851987Y-155493400D01*
X105819987Y-155493400D02*
X107851987Y-155493400D01*
X95672787Y-148335400D02*
X94351987Y-148335400D01*
X134076912Y-154447222D02*
G75*
G03*
X130976912Y-154447222I-1550000J0D01*
G01*
X130976912Y-154447222D02*
G75*
G03*
X134076912Y-154447222I1550000J0D01*
G01*
X149515476Y-137887711D02*
X148078635Y-139324552D01*
X76161364Y-96424106D02*
X82003364Y-96424106D01*
X62900000Y-135050000D02*
X62900000Y-133600000D01*
D11*
X131064000Y-146304000D02*
X136906000Y-152146000D01*
D10*
X160087579Y-145132031D02*
X161524420Y-143695190D01*
X50828427Y-90000000D02*
X53000000Y-90000000D01*
X143064000Y-166370000D02*
X142810000Y-166116000D01*
X154414207Y-85585779D02*
G75*
G03*
X155000000Y-84171573I-1414107J1414179D01*
G01*
X116640000Y-70400000D02*
G75*
G03*
X115620000Y-70400000I-510000J0D01*
G01*
X115620000Y-70400000D02*
G75*
G03*
X116640000Y-70400000I510000J0D01*
G01*
X84380000Y-75480000D02*
G75*
G03*
X83360000Y-75480000I-510000J0D01*
G01*
X83360000Y-75480000D02*
G75*
G03*
X84380000Y-75480000I510000J0D01*
G01*
X95672787Y-142493400D02*
X95672787Y-148335400D01*
X115351987Y-155493400D02*
X116672787Y-155493400D01*
X53217264Y-113652647D02*
X56270551Y-116705934D01*
X119510001Y-108940001D02*
X120180001Y-108940001D01*
X122050001Y-108940001D02*
X122050001Y-58140001D01*
X146804834Y-76665476D02*
G75*
G03*
X143704834Y-76665476I-1550000J0D01*
G01*
X143704834Y-76665476D02*
G75*
G03*
X146804834Y-76665476I1550000J0D01*
G01*
X170782032Y-140000000D02*
G75*
G03*
X167782032Y-140000000I-1500000J0D01*
G01*
X167782032Y-140000000D02*
G75*
G03*
X170782032Y-140000000I1500000J0D01*
G01*
X161516783Y-151964662D02*
X157385865Y-147833744D01*
X45000000Y-115828427D02*
X45000000Y-118000000D01*
X115609000Y-84374000D02*
X116568993Y-84374000D01*
X119510001Y-58140001D02*
X119510001Y-108940001D01*
X76329730Y-88414222D02*
G75*
G03*
X74829730Y-88414222I-750000J0D01*
G01*
X74829730Y-88414222D02*
G75*
G03*
X76329730Y-88414222I750000J0D01*
G01*
X150585779Y-110585793D02*
G75*
G03*
X149171573Y-110000000I-1414179J-1414107D01*
G01*
X137984000Y-166370000D02*
X137730000Y-166116000D01*
X147747709Y-139655478D02*
X146310868Y-141092319D01*
X137730000Y-164084000D02*
X137984000Y-163830000D01*
X62828426Y-32171574D02*
G75*
G03*
X57171574Y-37828426I-2828426J-2828426D01*
G01*
X26000000Y-122000000D02*
X26000000Y-133000000D01*
X103812656Y-148809179D02*
X103812656Y-154651179D01*
X146318505Y-132822846D02*
X150449423Y-136953764D01*
X137825587Y-149577600D02*
X136891640Y-150511547D01*
X139262428Y-148140759D02*
X137825587Y-149577600D01*
X82003364Y-155744906D02*
X82003364Y-157776906D01*
X104499187Y-155493400D02*
X105819987Y-155493400D01*
X162458366Y-142761243D02*
X166589284Y-146892161D01*
X114859000Y-84374000D02*
X115609000Y-84374000D01*
X64869730Y-62414222D02*
G75*
G03*
X63369730Y-62414222I-750000J0D01*
G01*
X63369730Y-62414222D02*
G75*
G03*
X64869730Y-62414222I750000J0D01*
G01*
X45585793Y-114414221D02*
G75*
G03*
X45000000Y-115828427I1414107J-1414179D01*
G01*
X92319987Y-161335400D02*
X91851987Y-161335400D01*
X47102778Y-132526912D02*
G75*
G03*
X44002778Y-132526912I-1550000J0D01*
G01*
X44002778Y-132526912D02*
G75*
G03*
X47102778Y-132526912I1550000J0D01*
G01*
X131746988Y-178848771D02*
G75*
G03*
X168000000Y-151000000I-31746988J78848771D01*
G01*
X82003364Y-96424106D02*
X82003364Y-97744906D01*
X87319987Y-148335400D02*
X86851987Y-148335400D01*
X137960001Y-58140001D02*
X137290001Y-58140001D01*
X139160001Y-108940001D02*
X139830001Y-108940001D01*
X78215476Y-145254834D02*
G75*
G03*
X75115476Y-145254834I-1550000J0D01*
G01*
X75115476Y-145254834D02*
G75*
G03*
X78215476Y-145254834I1550000J0D01*
G01*
X91851987Y-148335400D02*
X89819987Y-148335400D01*
X142178400Y-64262000D02*
X142178400Y-58420000D01*
X145999200Y-64262000D02*
X145531200Y-64262000D01*
X150449423Y-136953764D02*
X149515476Y-137887711D01*
X155387299Y-149832311D02*
X159518216Y-153963229D01*
X173999999Y-68000000D02*
G75*
G03*
X167171574Y-65171574I-3999999J0D01*
G01*
X43000000Y-120000000D02*
X28000000Y-120000000D01*
X51393324Y-63126585D02*
X51393324Y-61094585D01*
X134076912Y-45552778D02*
G75*
G03*
X130976912Y-45552778I-1550000J0D01*
G01*
X130976912Y-45552778D02*
G75*
G03*
X134076912Y-45552778I1550000J0D01*
G01*
X154414214Y-114414214D02*
X150585786Y-110585786D01*
X141500000Y-35000000D02*
G75*
G03*
X138500000Y-35000000I-1500000J0D01*
G01*
X138500000Y-35000000D02*
G75*
G03*
X141500000Y-35000000I1500000J0D01*
G01*
X78000000Y-120000000D02*
G75*
G03*
X80000000Y-118000000I0J2000000D01*
G01*
X141030195Y-146372992D02*
X139593354Y-147809833D01*
X71000000Y-176993506D02*
X71000000Y-168000000D01*
X155997222Y-67473088D02*
G75*
G03*
X152897222Y-67473088I-1550000J0D01*
G01*
X152897222Y-67473088D02*
G75*
G03*
X155997222Y-67473088I1550000J0D01*
G01*
X77579730Y-90414222D02*
X59579730Y-90414222D01*
X124884524Y-145254834D02*
G75*
G03*
X121784524Y-145254834I-1550000J0D01*
G01*
X121784524Y-145254834D02*
G75*
G03*
X124884524Y-145254834I1550000J0D01*
G01*
X82003364Y-157776906D02*
X82003364Y-158244906D01*
X92319987Y-148335400D02*
X91851987Y-148335400D01*
X59579730Y-60414222D02*
X77579730Y-60414222D01*
X60900000Y-133600000D02*
X60900000Y-135050000D01*
X86851987Y-155493400D02*
X87319987Y-155493400D01*
X57235324Y-66947385D02*
X51393324Y-66947385D01*
X82003364Y-102276906D02*
X82003364Y-103597706D01*
X60900000Y-144950000D02*
X60900000Y-146400000D01*
X110819987Y-161335400D02*
X110351987Y-161335400D01*
X57200000Y-135050000D02*
X56000000Y-135050000D01*
X55000000Y-92000000D02*
X55000000Y-108000000D01*
X56000000Y-144950000D02*
X57200000Y-144950000D01*
X158584270Y-154897175D02*
X157147429Y-156334016D01*
X157000000Y-80000000D02*
X172000000Y-80000000D01*
X147000000Y-90000000D02*
X149171573Y-90000000D01*
X157147429Y-156334016D02*
X156816503Y-156664942D01*
X77000000Y-140000000D02*
X123000000Y-140000000D01*
X56845287Y-117280670D02*
X57348182Y-117783565D01*
X142179950Y-136961401D02*
X143616791Y-135524560D01*
X151248744Y-153970866D02*
X152685585Y-152534025D01*
X92319987Y-155493400D02*
X94351987Y-155493400D01*
X155000000Y-118000000D02*
G75*
G03*
X157000000Y-120000000I2000000J0D01*
G01*
D11*
X146304000Y-131064000D02*
X131064000Y-146304000D01*
D10*
X58380911Y-116750835D02*
X58591524Y-116540223D01*
X104499187Y-148335400D02*
X104499187Y-142493400D01*
X57200000Y-144950000D02*
X60900000Y-144950000D01*
X83499187Y-142493400D02*
X84819987Y-142493400D01*
X142178400Y-58420000D02*
X143499200Y-58420000D01*
X129000000Y-168000000D02*
X129000000Y-176993506D01*
X75000000Y-138000000D02*
G75*
G03*
X77000000Y-140000000I2000000J0D01*
G01*
X59620186Y-115511560D02*
X63684212Y-111447534D01*
X83499187Y-148335400D02*
X83499187Y-142493400D01*
X99991856Y-148809179D02*
X100459856Y-148809179D01*
X113319987Y-155493400D02*
X115351987Y-155493400D01*
X130075000Y-162500000D02*
G75*
G03*
X126925000Y-162500000I-1575000J0D01*
G01*
X126925000Y-162500000D02*
G75*
G03*
X130075000Y-162500000I1575000J0D01*
G01*
X115351987Y-148335400D02*
X113319987Y-148335400D01*
X65464505Y-50555726D02*
X66785305Y-50555726D01*
X54000000Y-141550000D02*
X52000000Y-141550000D01*
X145000000Y-108000000D02*
X145000000Y-92000000D01*
X94351987Y-142493400D02*
X95672787Y-142493400D01*
X132760722Y-146380629D02*
X133694669Y-145446682D01*
X116672787Y-142493400D02*
X116672787Y-148335400D01*
X117399000Y-84374000D02*
X117399000Y-64054000D01*
X87319987Y-161335400D02*
X86851987Y-161335400D01*
X56000000Y-138750000D02*
X56000000Y-141250000D01*
X174000000Y-133000000D02*
X174000000Y-122000000D01*
X112851987Y-142493400D02*
X113319987Y-142493400D01*
X57348182Y-117783565D02*
X58380911Y-116750835D01*
X84380000Y-72940000D02*
G75*
G03*
X83360000Y-72940000I-510000J0D01*
G01*
X83360000Y-72940000D02*
G75*
G03*
X84380000Y-72940000I510000J0D01*
G01*
X33623846Y-65966991D02*
X32828427Y-65171573D01*
X91851987Y-161335400D02*
X89819987Y-161335400D01*
X110351987Y-142493400D02*
X110819987Y-142493400D01*
X117399000Y-64054000D02*
X116568993Y-64054000D01*
X120000000Y-118000000D02*
G75*
G03*
X122000000Y-120000000I2000000J0D01*
G01*
X68099999Y-100000000D02*
G75*
G03*
X61899999Y-100000000I-3100000J0D01*
G01*
X61899999Y-100000000D02*
G75*
G03*
X68099999Y-100000000I3100000J0D01*
G01*
X116640000Y-72940000D02*
G75*
G03*
X115620000Y-72940000I-510000J0D01*
G01*
X115620000Y-72940000D02*
G75*
G03*
X116640000Y-72940000I510000J0D01*
G01*
X76161364Y-97744906D02*
X76161364Y-96424106D01*
X32217968Y-140000000D02*
G75*
G03*
X29217968Y-140000000I-1500000J0D01*
G01*
X29217968Y-140000000D02*
G75*
G03*
X32217968Y-140000000I1500000J0D01*
G01*
X148078635Y-139324552D02*
X147747709Y-139655478D01*
X56000000Y-135050000D02*
X56000000Y-136050000D01*
X54000000Y-143450000D02*
X54000000Y-143750000D01*
X60932505Y-56397726D02*
X59611705Y-56397726D01*
X146310868Y-141092319D02*
X145376921Y-142026265D01*
X139830001Y-108940001D02*
X139830001Y-58140001D01*
X147000000Y-90000000D02*
G75*
G03*
X145000000Y-92000000I0J-2000000D01*
G01*
X108319987Y-161335400D02*
X107851987Y-161335400D01*
X113319987Y-161335400D02*
X112851987Y-161335400D01*
X116640000Y-65320000D02*
G75*
G03*
X115620000Y-65320000I-510000J0D01*
G01*
X115620000Y-65320000D02*
G75*
G03*
X116640000Y-65320000I510000J0D01*
G01*
X82003364Y-161597706D02*
X76161364Y-161597706D01*
X135131510Y-144009841D02*
X135462436Y-143678915D01*
X62329730Y-62414222D02*
G75*
G03*
X60829730Y-62414222I-750000J0D01*
G01*
X60829730Y-62414222D02*
G75*
G03*
X62329730Y-62414222I750000J0D01*
G01*
X108319987Y-155493400D02*
X110351987Y-155493400D01*
X107851987Y-155493400D02*
X108319987Y-155493400D01*
X135462436Y-143678915D02*
X136899277Y-142242074D01*
X72000000Y-167000000D02*
X128000000Y-167000000D01*
X100459856Y-154651179D02*
X99991856Y-154651179D01*
X136891640Y-150511547D02*
X132760722Y-146380629D01*
X165655338Y-147826108D02*
X164218497Y-149262949D01*
X116568993Y-64054000D02*
X115609000Y-64054000D01*
X63432505Y-50555726D02*
X65464505Y-50555726D01*
X158319812Y-146899798D02*
X159756653Y-145462957D01*
X49414221Y-89414207D02*
G75*
G03*
X50828427Y-90000000I1414179J1414107D01*
G01*
X52000000Y-136550000D02*
G75*
G03*
X52000000Y-138450000I0J-950000D01*
G01*
X146804834Y-123334524D02*
G75*
G03*
X143704834Y-123334524I-1550000J0D01*
G01*
X143704834Y-123334524D02*
G75*
G03*
X146804834Y-123334524I1550000J0D01*
G01*
X45000000Y-82000000D02*
G75*
G03*
X43000000Y-80000000I-2000000J0D01*
G01*
X59611705Y-56397726D02*
X59611705Y-50555726D01*
X116640000Y-80560000D02*
G75*
G03*
X115620000Y-80560000I-510000J0D01*
G01*
X115620000Y-80560000D02*
G75*
G03*
X116640000Y-80560000I510000J0D01*
G01*
X73789730Y-88414222D02*
G75*
G03*
X72289730Y-88414222I-750000J0D01*
G01*
X72289730Y-88414222D02*
G75*
G03*
X73789730Y-88414222I750000J0D01*
G01*
X89351987Y-155493400D02*
X89819987Y-155493400D01*
X69023088Y-154447222D02*
G75*
G03*
X65923088Y-154447222I-1550000J0D01*
G01*
X65923088Y-154447222D02*
G75*
G03*
X69023088Y-154447222I1550000J0D01*
G01*
X53000000Y-110000000D02*
G75*
G03*
X55000000Y-108000000I0J2000000D01*
G01*
X120180001Y-108940001D02*
X121380001Y-108940001D01*
X137960001Y-108940001D02*
X139160001Y-108940001D01*
X123000000Y-120000000D02*
X122000000Y-120000000D01*
X57235324Y-61094585D02*
X57235324Y-63126585D01*
X31575000Y-132000000D02*
G75*
G03*
X28425000Y-132000000I-1575000J0D01*
G01*
X28425000Y-132000000D02*
G75*
G03*
X31575000Y-132000000I1575000J0D01*
G01*
X31575000Y-68000000D02*
G75*
G03*
X28425000Y-68000000I-1575000J0D01*
G01*
X28425000Y-68000000D02*
G75*
G03*
X31575000Y-68000000I1575000J0D01*
G01*
X54000000Y-136550000D02*
X52000000Y-136550000D01*
X76161364Y-160276906D02*
X76161364Y-158244906D01*
X89351987Y-142493400D02*
X89819987Y-142493400D01*
X89819987Y-148335400D02*
X89351987Y-148335400D01*
X143616791Y-135524560D02*
X143947717Y-135193634D01*
X79798998Y-49142128D02*
G75*
G03*
X93941125Y-55000000I14142102J14142028D01*
G01*
X120000000Y-118000000D02*
X120000000Y-112000000D01*
X95672787Y-155493400D02*
X95672787Y-161335400D01*
X171500000Y-132000000D02*
G75*
G03*
X168500000Y-132000000I-1500000J0D01*
G01*
X168500000Y-132000000D02*
G75*
G03*
X171500000Y-132000000I1500000J0D01*
G01*
X84819987Y-155493400D02*
X86851987Y-155493400D01*
X82003364Y-99776906D02*
X82003364Y-100244906D01*
X145000000Y-108000000D02*
G75*
G03*
X147000000Y-110000000I2000000J0D01*
G01*
X64878586Y-108097899D02*
X61825299Y-105044612D01*
X145376921Y-142026265D02*
X141246004Y-137895348D01*
X76329730Y-62414222D02*
G75*
G03*
X74829730Y-62414222I-750000J0D01*
G01*
X74829730Y-62414222D02*
G75*
G03*
X76329730Y-62414222I750000J0D01*
G01*
X85522000Y-76754000D02*
G75*
G03*
X85268000Y-76754000I-127000J0D01*
G01*
X85268000Y-76754000D02*
G75*
G03*
X85522000Y-76754000I127000J0D01*
G01*
X89819987Y-161335400D02*
X89351987Y-161335400D01*
X57235324Y-63126585D02*
X57235324Y-63594585D01*
X62295419Y-45780700D02*
X42109127Y-65966991D01*
X62900000Y-133600000D02*
G75*
G03*
X62650000Y-133350000I-250000J0D01*
G01*
X62329730Y-88414222D02*
G75*
G03*
X60829730Y-88414222I-750000J0D01*
G01*
X60829730Y-88414222D02*
G75*
G03*
X62329730Y-88414222I750000J0D01*
G01*
X145096000Y-166370000D02*
X143064000Y-166370000D01*
X172000000Y-120000000D02*
X157000000Y-120000000D01*
X117780000Y-108250000D02*
X117780000Y-63800000D01*
X51393324Y-65626585D02*
X51393324Y-63594585D01*
X110351987Y-155493400D02*
X110819987Y-155493400D01*
X154445715Y-159035730D02*
X150314797Y-154904812D01*
X89351987Y-148335400D02*
X87319987Y-148335400D01*
X155000022Y-115828427D02*
G75*
G03*
X154414214Y-114414214I-2000122J-73D01*
G01*
X43000000Y-120000000D02*
G75*
G03*
X45000000Y-118000000I0J2000000D01*
G01*
X73075000Y-162500000D02*
G75*
G03*
X69925000Y-162500000I-1575000J0D01*
G01*
X69925000Y-162500000D02*
G75*
G03*
X73075000Y-162500000I1575000J0D01*
G01*
X79798990Y-49142136D02*
X62828427Y-32171573D01*
X107851987Y-142493400D02*
X108319987Y-142493400D01*
X142810000Y-164084000D02*
X143064000Y-163830000D01*
X63684212Y-111447534D02*
X64712875Y-110418872D01*
D11*
X136906000Y-152146000D02*
X152146000Y-136906000D01*
D10*
X136899277Y-142242074D02*
X137833224Y-141308128D01*
X94351987Y-161335400D02*
X92319987Y-161335400D01*
X141246004Y-137895348D02*
X142179950Y-136961401D01*
X54000000Y-141250000D02*
X54000000Y-141550000D01*
X153016511Y-152203099D02*
X154453352Y-150766258D01*
X28000000Y-120000000D02*
G75*
G03*
X26000000Y-122000000I0J-2000000D01*
G01*
X57171573Y-37828427D02*
X62295419Y-42952273D01*
X137730000Y-166116000D02*
X137730000Y-164084000D01*
X174000000Y-122000000D02*
G75*
G03*
X172000000Y-120000000I-2000000J0D01*
G01*
X84380000Y-78020000D02*
G75*
G03*
X83360000Y-78020000I-510000J0D01*
G01*
X83360000Y-78020000D02*
G75*
G03*
X84380000Y-78020000I510000J0D01*
G01*
X123000000Y-140000000D02*
G75*
G03*
X125000000Y-138000000I0J2000000D01*
G01*
X157890874Y-65966990D02*
G75*
G03*
X166376154Y-65966991I4242640J4242637D01*
G01*
X145350000Y-166116000D02*
X145096000Y-166370000D01*
X75000000Y-122000000D02*
X75000000Y-138000000D01*
X120180001Y-58140001D02*
X119510001Y-58140001D01*
X97959856Y-148809179D02*
X99991856Y-148809179D01*
X65000000Y-144950000D02*
X65000000Y-135050000D01*
X54000000Y-138450000D02*
X54000000Y-138750000D01*
X84380000Y-70400000D02*
G75*
G03*
X83360000Y-70400000I-510000J0D01*
G01*
X83360000Y-70400000D02*
G75*
G03*
X84380000Y-70400000I510000J0D01*
G01*
X91851987Y-142493400D02*
X92319987Y-142493400D01*
X116640000Y-67860000D02*
G75*
G03*
X115620000Y-67860000I-510000J0D01*
G01*
X115620000Y-67860000D02*
G75*
G03*
X116640000Y-67860000I510000J0D01*
G01*
X66785305Y-56397726D02*
X65464505Y-56397726D01*
X125000000Y-138000000D02*
X125000000Y-122000000D01*
X96639056Y-154651179D02*
X96639056Y-148809179D01*
X137984000Y-163830000D02*
X140016000Y-163830000D01*
X115609000Y-64054000D02*
X114859000Y-64054000D01*
X100459856Y-148809179D02*
X102491856Y-148809179D01*
X61825299Y-105044612D02*
X53217264Y-113652647D01*
X76161364Y-154424106D02*
X82003364Y-154424106D01*
X171575000Y-68000000D02*
G75*
G03*
X168425000Y-68000000I-1575000J0D01*
G01*
X168425000Y-68000000D02*
G75*
G03*
X171575000Y-68000000I1575000J0D01*
G01*
X156816503Y-156664942D02*
X155379662Y-158101783D01*
X56000000Y-136250000D02*
X54000000Y-136250000D01*
X54000000Y-136250000D02*
X54000000Y-136550000D01*
X155000000Y-118000000D02*
X155000000Y-115828427D01*
X145531200Y-58420000D02*
X145999200Y-58420000D01*
X94351987Y-148335400D02*
X92319987Y-148335400D01*
X107851987Y-161335400D02*
X105819987Y-161335400D01*
X32000001Y-150999999D02*
G75*
G03*
X68253012Y-178848770I67999999J50999999D01*
G01*
X113319987Y-148335400D02*
X112851987Y-148335400D01*
X86851987Y-161335400D02*
X84819987Y-161335400D01*
X32828427Y-65171573D02*
G75*
G03*
X26000000Y-68000000I-2828427J-2828427D01*
G01*
X172000000Y-80000000D02*
G75*
G03*
X174000000Y-78000000I0J2000000D01*
G01*
X51393324Y-66947385D02*
X51393324Y-65626585D01*
X60900000Y-146400000D02*
G75*
G03*
X61150000Y-146650000I250000J0D01*
G01*
X61500000Y-35000000D02*
G75*
G03*
X58500000Y-35000000I-1500000J0D01*
G01*
X58500000Y-35000000D02*
G75*
G03*
X61500000Y-35000000I1500000J0D01*
G01*
X104499187Y-142493400D02*
X105819987Y-142493400D01*
X148031200Y-58420000D02*
X149352000Y-58420000D01*
X68253014Y-178848766D02*
G75*
G03*
X71000000Y-176993506I746986J1855266D01*
G01*
X26000000Y-78000000D02*
G75*
G03*
X28000000Y-80000000I2000000J0D01*
G01*
X102491856Y-148809179D02*
X103812656Y-148809179D01*
X62650000Y-133350000D02*
X61150000Y-133350000D01*
X49414214Y-110585786D02*
X45585786Y-114414214D01*
X115351987Y-161335400D02*
X113319987Y-161335400D01*
X168000000Y-151000000D02*
G75*
G03*
X174000000Y-133000000I-24000000J18000000D01*
G01*
X116672787Y-161335400D02*
X115351987Y-161335400D01*
X110351987Y-161335400D02*
X108319987Y-161335400D01*
X161524420Y-143695190D02*
X162458366Y-142761243D01*
X140524000Y-166370000D02*
X140270000Y-166116000D01*
X159756653Y-145462957D02*
X160087579Y-145132031D01*
X125000000Y-122000000D02*
G75*
G03*
X123000000Y-120000000I-2000000J0D01*
G01*
X65464505Y-56397726D02*
X63432505Y-56397726D01*
X121380001Y-58140001D02*
X120180001Y-58140001D01*
X77000000Y-120000000D02*
G75*
G03*
X75000000Y-122000000I0J-2000000D01*
G01*
X95672787Y-161335400D02*
X94351987Y-161335400D01*
X72000000Y-167000000D02*
G75*
G03*
X71000000Y-168000000I0J-1000000D01*
G01*
X107851987Y-148335400D02*
X105819987Y-148335400D01*
X108319987Y-142493400D02*
X110351987Y-142493400D01*
X137704581Y-42952273D02*
X142828427Y-37828427D01*
X76161364Y-161597706D02*
X76161364Y-160276906D01*
X155379662Y-158101783D02*
X154445715Y-159035730D01*
X57235324Y-63594585D02*
X57235324Y-65626585D01*
X141964141Y-145439045D02*
X141030195Y-146372992D01*
X143499200Y-58420000D02*
X145531200Y-58420000D01*
X87319987Y-142493400D02*
X89351987Y-142493400D01*
X155997222Y-132526912D02*
G75*
G03*
X152897222Y-132526912I-1550000J0D01*
G01*
X152897222Y-132526912D02*
G75*
G03*
X155997222Y-132526912I1550000J0D01*
G01*
X163887571Y-149593875D02*
X162450730Y-151030716D01*
X140270000Y-164084000D02*
X140524000Y-163830000D01*
X82003364Y-158244906D02*
X82003364Y-160276906D01*
D11*
X79956819Y-162837905D02*
X78956819Y-162837905D01*
X78956819Y-162837905D02*
X78956819Y-163218857D01*
X78956819Y-163218857D02*
X79004438Y-163314095D01*
X79004438Y-163314095D02*
X79052057Y-163361714D01*
X79052057Y-163361714D02*
X79147295Y-163409333D01*
X79147295Y-163409333D02*
X79290152Y-163409333D01*
X79290152Y-163409333D02*
X79385390Y-163361714D01*
X79385390Y-163361714D02*
X79433009Y-163314095D01*
X79433009Y-163314095D02*
X79480628Y-163218857D01*
X79480628Y-163218857D02*
X79480628Y-162837905D01*
X79052057Y-163790286D02*
X79004438Y-163837905D01*
X79004438Y-163837905D02*
X78956819Y-163933143D01*
X78956819Y-163933143D02*
X78956819Y-164171238D01*
X78956819Y-164171238D02*
X79004438Y-164266476D01*
X79004438Y-164266476D02*
X79052057Y-164314095D01*
X79052057Y-164314095D02*
X79147295Y-164361714D01*
X79147295Y-164361714D02*
X79242533Y-164361714D01*
X79242533Y-164361714D02*
X79385390Y-164314095D01*
X79385390Y-164314095D02*
X79956819Y-163742667D01*
X79956819Y-163742667D02*
X79956819Y-164361714D01*
X83459200Y-98722667D02*
X83506819Y-98865524D01*
X83506819Y-98865524D02*
X83506819Y-99103619D01*
X83506819Y-99103619D02*
X83459200Y-99198857D01*
X83459200Y-99198857D02*
X83411580Y-99246476D01*
X83411580Y-99246476D02*
X83316342Y-99294095D01*
X83316342Y-99294095D02*
X83221104Y-99294095D01*
X83221104Y-99294095D02*
X83125866Y-99246476D01*
X83125866Y-99246476D02*
X83078247Y-99198857D01*
X83078247Y-99198857D02*
X83030628Y-99103619D01*
X83030628Y-99103619D02*
X82983009Y-98913143D01*
X82983009Y-98913143D02*
X82935390Y-98817905D01*
X82935390Y-98817905D02*
X82887771Y-98770286D01*
X82887771Y-98770286D02*
X82792533Y-98722667D01*
X82792533Y-98722667D02*
X82697295Y-98722667D01*
X82697295Y-98722667D02*
X82602057Y-98770286D01*
X82602057Y-98770286D02*
X82554438Y-98817905D01*
X82554438Y-98817905D02*
X82506819Y-98913143D01*
X82506819Y-98913143D02*
X82506819Y-99151238D01*
X82506819Y-99151238D02*
X82554438Y-99294095D01*
X82506819Y-99627429D02*
X83506819Y-99865524D01*
X83506819Y-99865524D02*
X82792533Y-100056000D01*
X82792533Y-100056000D02*
X83506819Y-100246476D01*
X83506819Y-100246476D02*
X82506819Y-100484572D01*
X83506819Y-101389333D02*
X83506819Y-100817905D01*
X83506819Y-101103619D02*
X82506819Y-101103619D01*
X82506819Y-101103619D02*
X82649676Y-101008381D01*
X82649676Y-101008381D02*
X82744914Y-100913143D01*
X82744914Y-100913143D02*
X82792533Y-100817905D01*
X57530637Y-108399114D02*
X56823530Y-107692008D01*
X56823530Y-107692008D02*
X56554156Y-107961382D01*
X56554156Y-107961382D02*
X56520484Y-108062397D01*
X56520484Y-108062397D02*
X56520484Y-108129740D01*
X56520484Y-108129740D02*
X56554156Y-108230756D01*
X56554156Y-108230756D02*
X56655171Y-108331771D01*
X56655171Y-108331771D02*
X56756187Y-108365443D01*
X56756187Y-108365443D02*
X56823530Y-108365443D01*
X56823530Y-108365443D02*
X56924545Y-108331771D01*
X56924545Y-108331771D02*
X57193919Y-108062397D01*
X56318454Y-108803175D02*
X56352126Y-108702160D01*
X56352126Y-108702160D02*
X56352126Y-108634817D01*
X56352126Y-108634817D02*
X56318454Y-108533801D01*
X56318454Y-108533801D02*
X56284782Y-108500130D01*
X56284782Y-108500130D02*
X56183767Y-108466458D01*
X56183767Y-108466458D02*
X56116423Y-108466458D01*
X56116423Y-108466458D02*
X56015408Y-108500130D01*
X56015408Y-108500130D02*
X55880721Y-108634817D01*
X55880721Y-108634817D02*
X55847049Y-108735832D01*
X55847049Y-108735832D02*
X55847049Y-108803175D01*
X55847049Y-108803175D02*
X55880721Y-108904191D01*
X55880721Y-108904191D02*
X55914393Y-108937862D01*
X55914393Y-108937862D02*
X56015408Y-108971534D01*
X56015408Y-108971534D02*
X56082752Y-108971534D01*
X56082752Y-108971534D02*
X56183767Y-108937862D01*
X56183767Y-108937862D02*
X56318454Y-108803175D01*
X56318454Y-108803175D02*
X56419469Y-108769504D01*
X56419469Y-108769504D02*
X56486813Y-108769504D01*
X56486813Y-108769504D02*
X56587828Y-108803175D01*
X56587828Y-108803175D02*
X56722515Y-108937862D01*
X56722515Y-108937862D02*
X56756187Y-109038878D01*
X56756187Y-109038878D02*
X56756187Y-109106221D01*
X56756187Y-109106221D02*
X56722515Y-109207236D01*
X56722515Y-109207236D02*
X56587828Y-109341923D01*
X56587828Y-109341923D02*
X56486813Y-109375595D01*
X56486813Y-109375595D02*
X56419469Y-109375595D01*
X56419469Y-109375595D02*
X56318454Y-109341923D01*
X56318454Y-109341923D02*
X56183767Y-109207236D01*
X56183767Y-109207236D02*
X56150095Y-109106221D01*
X56150095Y-109106221D02*
X56150095Y-109038878D01*
X56150095Y-109038878D02*
X56183767Y-108937862D01*
X111331333Y-89624819D02*
X111331333Y-90339104D01*
X111331333Y-90339104D02*
X111378952Y-90481961D01*
X111378952Y-90481961D02*
X111474190Y-90577200D01*
X111474190Y-90577200D02*
X111617047Y-90624819D01*
X111617047Y-90624819D02*
X111712285Y-90624819D01*
X110426571Y-89958152D02*
X110426571Y-90624819D01*
X110664666Y-89577200D02*
X110902761Y-90291485D01*
X110902761Y-90291485D02*
X110283714Y-90291485D01*
%TO.C,kibuzzard-65B874B6*%
G36*
X143981488Y-162606038D02*
G01*
X143827500Y-162606038D01*
X143718756Y-162584805D01*
X143621125Y-162521106D01*
X143552069Y-162425261D01*
X143529050Y-162307587D01*
X143551473Y-162189517D01*
X143618744Y-162092481D01*
X143716177Y-162027592D01*
X143829088Y-162005963D01*
X143981488Y-162005963D01*
X143981488Y-162606038D01*
G37*
G36*
X141851063Y-162606038D02*
G01*
X141590713Y-162606038D01*
X141515703Y-162579050D01*
X141490700Y-162498088D01*
X141499431Y-162437763D01*
X141528800Y-162406013D01*
X141617700Y-162393313D01*
X141703425Y-162371088D01*
X141732000Y-162279806D01*
X141702631Y-162188525D01*
X141605000Y-162166300D01*
X141528800Y-162132963D01*
X141524038Y-162075812D01*
X141550231Y-162020250D01*
X141628813Y-162004375D01*
X141851063Y-162004375D01*
X141851063Y-162606038D01*
G37*
G36*
X145214799Y-162306000D02*
G01*
X144593204Y-163238392D01*
X144262475Y-163238392D01*
X143832263Y-163238392D01*
X142376525Y-163238392D01*
X141574838Y-163238392D01*
X140596144Y-163238392D01*
X139392025Y-163238392D01*
X138947525Y-163238392D01*
X138616796Y-163238392D01*
X138237559Y-162669537D01*
X138947525Y-162669537D01*
X138991975Y-162766375D01*
X139066984Y-162826799D01*
X139158662Y-162869959D01*
X139267009Y-162895855D01*
X139392025Y-162904487D01*
X139506424Y-162893325D01*
X139613084Y-162859839D01*
X139712005Y-162804029D01*
X139803188Y-162725894D01*
X139879586Y-162631983D01*
X139934156Y-162528845D01*
X139966898Y-162416480D01*
X139973253Y-162345687D01*
X140081000Y-162345687D01*
X140089136Y-162448081D01*
X140113544Y-162545713D01*
X140154223Y-162638581D01*
X140211175Y-162726688D01*
X140283803Y-162799911D01*
X140374688Y-162857656D01*
X140480058Y-162895161D01*
X140596144Y-162907663D01*
X140712031Y-162894963D01*
X140816806Y-162856862D01*
X140906698Y-162798125D01*
X140977938Y-162723513D01*
X141034195Y-162636597D01*
X141074378Y-162544125D01*
X141081797Y-162513962D01*
X141209713Y-162513962D01*
X141223206Y-162614063D01*
X141259454Y-162702699D01*
X141318456Y-162779869D01*
X141393862Y-162839400D01*
X141479323Y-162875119D01*
X141574838Y-162887025D01*
X141992350Y-162887025D01*
X142080456Y-162871944D01*
X142122525Y-162826700D01*
X142131501Y-162748912D01*
X142235238Y-162748912D01*
X142249922Y-162837019D01*
X142293975Y-162879088D01*
X142376525Y-162888613D01*
X143005175Y-162888613D01*
X143093281Y-162873531D01*
X143135350Y-162828288D01*
X143144875Y-162747325D01*
X143144875Y-162298856D01*
X143248063Y-162298856D01*
X143258729Y-162415587D01*
X143290727Y-162523686D01*
X143344057Y-162623153D01*
X143418719Y-162713987D01*
X143508561Y-162789691D01*
X143607433Y-162843766D01*
X143715333Y-162876210D01*
X143832263Y-162887025D01*
X144122775Y-162887025D01*
X144201356Y-162877103D01*
X144243425Y-162847338D01*
X144262475Y-162745738D01*
X144262475Y-161863087D01*
X144260094Y-161807525D01*
X144245013Y-161766250D01*
X144202944Y-161734103D01*
X144121188Y-161723387D01*
X143827500Y-161724975D01*
X143715879Y-161735343D01*
X143611203Y-161766448D01*
X143513473Y-161818290D01*
X143422688Y-161890869D01*
X143346289Y-161978578D01*
X143291719Y-162075812D01*
X143258977Y-162182572D01*
X143248063Y-162298856D01*
X143144875Y-162298856D01*
X143144875Y-161864675D01*
X143114713Y-161754344D01*
X143000413Y-161724975D01*
X142374938Y-161724975D01*
X142320169Y-161727356D01*
X142278100Y-161742437D01*
X142245953Y-161784506D01*
X142235238Y-161866262D01*
X142249922Y-161954369D01*
X142293975Y-161996438D01*
X142376525Y-162005963D01*
X142863888Y-162005963D01*
X142863888Y-162166300D01*
X142549563Y-162166300D01*
X142494794Y-162168681D01*
X142452725Y-162183762D01*
X142420578Y-162225831D01*
X142409862Y-162307587D01*
X142424944Y-162395694D01*
X142470188Y-162437763D01*
X142552738Y-162447287D01*
X142863888Y-162447287D01*
X142863888Y-162607625D01*
X142374938Y-162607625D01*
X142320169Y-162610006D01*
X142278100Y-162625087D01*
X142245953Y-162667156D01*
X142235238Y-162748912D01*
X142131501Y-162748912D01*
X142132050Y-162744150D01*
X142132050Y-161863087D01*
X142129669Y-161807525D01*
X142114588Y-161766250D01*
X142072519Y-161734103D01*
X141990763Y-161723387D01*
X141590713Y-161723387D01*
X141498638Y-161734676D01*
X141417146Y-161768543D01*
X141346238Y-161824987D01*
X141288911Y-161898365D01*
X141254515Y-161980915D01*
X141243050Y-162072637D01*
X141258131Y-162173047D01*
X141303375Y-162264725D01*
X141251340Y-162341807D01*
X141220119Y-162424886D01*
X141209713Y-162513962D01*
X141081797Y-162513962D01*
X141098488Y-162446097D01*
X141106525Y-162342512D01*
X141106525Y-161864675D01*
X141104144Y-161808319D01*
X141089063Y-161766250D01*
X141046200Y-161732912D01*
X140965238Y-161723387D01*
X140884275Y-161732912D01*
X140843000Y-161766250D01*
X140823950Y-161866262D01*
X140823950Y-162342512D01*
X140812044Y-162436969D01*
X140776325Y-162526662D01*
X140704888Y-162598100D01*
X140592175Y-162625087D01*
X140490972Y-162603656D01*
X140419138Y-162539362D01*
X140376275Y-162446891D01*
X140361988Y-162340925D01*
X140361988Y-161855150D01*
X140346113Y-161767837D01*
X140300075Y-161732912D01*
X140224669Y-161723387D01*
X140152438Y-161731325D01*
X140111163Y-161750375D01*
X140090525Y-161783712D01*
X140081000Y-161866262D01*
X140081000Y-162345687D01*
X139973253Y-162345687D01*
X139977813Y-162294887D01*
X139966700Y-162173890D01*
X139933363Y-162063311D01*
X139877800Y-161963150D01*
X139800013Y-161873406D01*
X139707144Y-161799439D01*
X139606337Y-161746605D01*
X139497594Y-161714904D01*
X139380913Y-161704337D01*
X139258322Y-161718096D01*
X139140318Y-161759371D01*
X139026900Y-161828162D01*
X138984038Y-161898806D01*
X139020550Y-161988500D01*
X139079684Y-162051603D01*
X139133263Y-162072637D01*
X139230100Y-162028981D01*
X139303125Y-161996239D01*
X139388850Y-161985325D01*
X139502753Y-162006558D01*
X139603163Y-162070256D01*
X139673409Y-162168284D01*
X139696825Y-162292506D01*
X139686242Y-162379466D01*
X139654492Y-162457253D01*
X139601575Y-162525869D01*
X139499975Y-162597902D01*
X139385675Y-162621913D01*
X139302728Y-162614769D01*
X139228513Y-162593338D01*
X139228513Y-162420300D01*
X139353925Y-162420300D01*
X139423775Y-162407600D01*
X139450763Y-162370294D01*
X139457113Y-162303619D01*
X139449969Y-162236150D01*
X139423775Y-162201225D01*
X139347575Y-162186937D01*
X139068175Y-162186937D01*
X138963400Y-162231387D01*
X138947525Y-162320287D01*
X138947525Y-162669537D01*
X138237559Y-162669537D01*
X137995201Y-162306000D01*
X138616796Y-161373608D01*
X138947525Y-161373608D01*
X144262475Y-161373608D01*
X144593204Y-161373608D01*
X145214799Y-162306000D01*
G37*
%TO.C,kibuzzard-65B87C82*%
G36*
X75025250Y-85518308D02*
G01*
X74982784Y-85735795D01*
X74855388Y-85931057D01*
X74663697Y-86069170D01*
X74428350Y-86115207D01*
X74192209Y-86070361D01*
X73998138Y-85935820D01*
X73868359Y-85740954D01*
X73825100Y-85515132D01*
X73825100Y-85210332D01*
X75025250Y-85210332D01*
X75025250Y-85518308D01*
G37*
G36*
X76283608Y-84111783D02*
G01*
X76283608Y-85508782D01*
X76283608Y-86677182D01*
X76283608Y-87338641D01*
X72560392Y-87338641D01*
X72560392Y-86677182D01*
X72560392Y-84930933D01*
X73259950Y-84930933D01*
X73263125Y-85518308D01*
X73283862Y-85741550D01*
X73346072Y-85950901D01*
X73449755Y-86146362D01*
X73594913Y-86327932D01*
X73770331Y-86480729D01*
X73964800Y-86589870D01*
X74178319Y-86655354D01*
X74410888Y-86677182D01*
X74644349Y-86655850D01*
X74860547Y-86591854D01*
X75059480Y-86485194D01*
X75241150Y-86335870D01*
X75392558Y-86156185D01*
X75500706Y-85958442D01*
X75565595Y-85742641D01*
X75587225Y-85508782D01*
X75587225Y-84927758D01*
X75567381Y-84770595D01*
X75507850Y-84686457D01*
X75304650Y-84648357D01*
X73539350Y-84648357D01*
X73428225Y-84653120D01*
X73345675Y-84683282D01*
X73281381Y-84767420D01*
X73259950Y-84930933D01*
X72560392Y-84930933D01*
X72560392Y-84107020D01*
X73266300Y-84107020D01*
X73282175Y-84253070D01*
X73320275Y-84335620D01*
X73386950Y-84375307D01*
X73548875Y-84394358D01*
X75311000Y-84394358D01*
X75422125Y-84389595D01*
X75504675Y-84359433D01*
X75568969Y-84275295D01*
X75590400Y-84111783D01*
X75571350Y-83940333D01*
X75511025Y-83860958D01*
X75211869Y-83636414D01*
X74949403Y-83439035D01*
X74723625Y-83268820D01*
X74534536Y-83125769D01*
X74382136Y-83009881D01*
X74266425Y-82921158D01*
X75311000Y-82921158D01*
X75422125Y-82916395D01*
X75504675Y-82886232D01*
X75568969Y-82802095D01*
X75590400Y-82638582D01*
X75568969Y-82479832D01*
X75504675Y-82397282D01*
X75418950Y-82367120D01*
X75307825Y-82362357D01*
X73536175Y-82362357D01*
X73359963Y-82392520D01*
X73285350Y-82483007D01*
X73266300Y-82638582D01*
X73283762Y-82789395D01*
X73323450Y-82867182D01*
X73406000Y-82940207D01*
X73692544Y-83151169D01*
X73944692Y-83337435D01*
X74162444Y-83499007D01*
X74345800Y-83635885D01*
X74494760Y-83748069D01*
X74609325Y-83835557D01*
X73536175Y-83835557D01*
X73359963Y-83865720D01*
X73285350Y-83956207D01*
X73266300Y-84107020D01*
X72560392Y-84107020D01*
X72560392Y-81241582D01*
X73221850Y-81241582D01*
X73249367Y-81486763D01*
X73331917Y-81722771D01*
X73469500Y-81949608D01*
X73610787Y-82035332D01*
X73790175Y-81962307D01*
X73916381Y-81844039D01*
X73958450Y-81736882D01*
X73871138Y-81543207D01*
X73805653Y-81397157D01*
X73783825Y-81225707D01*
X73826291Y-80997901D01*
X73953688Y-80797082D01*
X74149744Y-80656589D01*
X74398188Y-80609757D01*
X74572107Y-80630924D01*
X74727682Y-80694424D01*
X74864912Y-80800257D01*
X75008978Y-81003457D01*
X75057000Y-81232057D01*
X75042713Y-81397951D01*
X74999850Y-81546383D01*
X74653775Y-81546383D01*
X74653775Y-81295557D01*
X74628375Y-81155858D01*
X74553763Y-81101882D01*
X74420413Y-81089182D01*
X74285475Y-81103470D01*
X74215625Y-81155858D01*
X74187050Y-81308257D01*
X74187050Y-81867057D01*
X74275950Y-82076607D01*
X74453750Y-82108358D01*
X75152250Y-82108358D01*
X75345925Y-82019457D01*
X75466773Y-81869439D01*
X75553094Y-81686082D01*
X75604886Y-81469389D01*
X75622150Y-81219357D01*
X75599826Y-80990559D01*
X75532853Y-80777239D01*
X75421232Y-80579397D01*
X75264963Y-80397032D01*
X75077141Y-80244236D01*
X74870866Y-80135095D01*
X74646135Y-80069611D01*
X74402950Y-80047782D01*
X74160955Y-80070007D01*
X73939797Y-80136682D01*
X73739474Y-80247807D01*
X73559987Y-80403382D01*
X73412052Y-80589120D01*
X73306384Y-80790732D01*
X73242984Y-81008220D01*
X73221850Y-81241582D01*
X72560392Y-81241582D01*
X72560392Y-80047782D01*
X72560392Y-79386324D01*
X76283608Y-78269359D01*
X76283608Y-79386324D01*
X76283608Y-80047782D01*
X76283608Y-81219357D01*
X76283608Y-84111783D01*
G37*
%TO.C,kibuzzard-65B87723*%
G36*
X45583316Y-137715625D02*
G01*
X45429329Y-137715625D01*
X45320585Y-137694392D01*
X45222954Y-137630694D01*
X45153897Y-137534848D01*
X45130879Y-137417175D01*
X45153302Y-137299105D01*
X45220573Y-137202069D01*
X45318005Y-137137180D01*
X45430916Y-137115550D01*
X45583316Y-137115550D01*
X45583316Y-137715625D01*
G37*
G36*
X48495320Y-138344804D02*
G01*
X48164591Y-138344804D01*
X47578804Y-138344804D01*
X46132591Y-138344804D01*
X45434091Y-138344804D01*
X44849891Y-138344804D01*
X44519162Y-138344804D01*
X43960680Y-138344804D01*
X44241588Y-137408444D01*
X44849891Y-137408444D01*
X44860557Y-137525175D01*
X44892555Y-137633273D01*
X44945885Y-137732740D01*
X45020548Y-137823575D01*
X45110390Y-137899279D01*
X45209262Y-137953353D01*
X45317162Y-137985798D01*
X45434091Y-137996613D01*
X45724604Y-137996613D01*
X45803185Y-137986691D01*
X45845254Y-137956925D01*
X45863709Y-137858500D01*
X45991304Y-137858500D01*
X45993685Y-137914063D01*
X46008766Y-137955338D01*
X46050835Y-137987484D01*
X46132591Y-137998200D01*
X46218316Y-137988675D01*
X46258004Y-137958513D01*
X46370275Y-137808935D01*
X46468965Y-137677701D01*
X46554073Y-137564813D01*
X46625598Y-137470268D01*
X46683542Y-137394068D01*
X46727904Y-137336212D01*
X46727904Y-137858500D01*
X46730285Y-137914063D01*
X46745366Y-137955338D01*
X46787435Y-137987484D01*
X46869191Y-137998200D01*
X46948566Y-137987484D01*
X46989841Y-137955338D01*
X47004923Y-137912475D01*
X47007304Y-137856913D01*
X47007304Y-137779125D01*
X47134304Y-137779125D01*
X47178754Y-137875963D01*
X47253763Y-137936387D01*
X47345441Y-137979547D01*
X47453788Y-138005443D01*
X47578804Y-138014075D01*
X47693203Y-138002913D01*
X47799863Y-137969427D01*
X47898784Y-137913616D01*
X47989966Y-137835481D01*
X48066365Y-137741571D01*
X48120935Y-137638433D01*
X48153677Y-137526068D01*
X48164591Y-137404475D01*
X48153479Y-137283478D01*
X48120141Y-137172898D01*
X48064579Y-137072737D01*
X47986791Y-136982994D01*
X47893923Y-136909026D01*
X47793116Y-136856192D01*
X47684373Y-136824492D01*
X47567691Y-136813925D01*
X47445101Y-136827683D01*
X47327097Y-136868958D01*
X47213679Y-136937750D01*
X47170816Y-137008394D01*
X47207329Y-137098087D01*
X47266463Y-137161191D01*
X47320041Y-137182225D01*
X47416879Y-137138569D01*
X47489904Y-137105827D01*
X47575629Y-137094913D01*
X47689532Y-137116145D01*
X47789941Y-137179844D01*
X47860188Y-137277872D01*
X47883604Y-137402094D01*
X47873020Y-137489053D01*
X47841270Y-137566841D01*
X47788354Y-137635456D01*
X47686754Y-137707489D01*
X47572454Y-137731500D01*
X47489507Y-137724356D01*
X47415291Y-137702925D01*
X47415291Y-137529888D01*
X47540704Y-137529888D01*
X47610554Y-137517188D01*
X47637541Y-137479881D01*
X47643891Y-137413206D01*
X47636748Y-137345737D01*
X47610554Y-137310813D01*
X47534354Y-137296525D01*
X47254954Y-137296525D01*
X47150179Y-137340975D01*
X47134304Y-137429875D01*
X47134304Y-137779125D01*
X47007304Y-137779125D01*
X47007304Y-136971087D01*
X46992223Y-136882981D01*
X46946979Y-136845675D01*
X46869191Y-136836150D01*
X46793785Y-136844881D01*
X46754891Y-136864725D01*
X46718379Y-136906000D01*
X46612898Y-137049272D01*
X46519765Y-137175346D01*
X46438979Y-137284222D01*
X46370540Y-137375900D01*
X46314448Y-137450380D01*
X46270704Y-137507663D01*
X46270704Y-136971087D01*
X46255623Y-136882981D01*
X46210379Y-136845675D01*
X46134973Y-136836150D01*
X46061948Y-136844088D01*
X46020673Y-136863138D01*
X46000829Y-136896475D01*
X45991304Y-136977438D01*
X45991304Y-137858500D01*
X45863709Y-137858500D01*
X45864304Y-137855325D01*
X45864304Y-136972675D01*
X45861923Y-136917112D01*
X45846841Y-136875837D01*
X45804773Y-136843691D01*
X45723016Y-136832975D01*
X45429329Y-136834563D01*
X45317708Y-136844931D01*
X45213032Y-136876036D01*
X45115301Y-136927878D01*
X45024516Y-137000456D01*
X44948118Y-137088166D01*
X44893548Y-137185400D01*
X44860805Y-137292159D01*
X44849891Y-137408444D01*
X44241588Y-137408444D01*
X44519162Y-136483196D01*
X44849891Y-136483196D01*
X48164591Y-136483196D01*
X48495320Y-136483196D01*
X48495320Y-138344804D01*
G37*
%TO.C,kibuzzard-65B878F9*%
G36*
X64980873Y-116746867D02*
G01*
X64650144Y-116746867D01*
X64232631Y-116746867D01*
X63227744Y-116746867D01*
X62430819Y-116746867D01*
X61841856Y-116746867D01*
X61511127Y-116746867D01*
X61097583Y-115368388D01*
X61841856Y-115368388D01*
X61865669Y-115444588D01*
X62303819Y-116333588D01*
X62357000Y-116389944D01*
X62430819Y-116411375D01*
X62446694Y-116411375D01*
X62522100Y-116389944D01*
X62575281Y-116333588D01*
X62603839Y-116275644D01*
X63084869Y-116275644D01*
X63095188Y-116355813D01*
X63129319Y-116397088D01*
X63227744Y-116416138D01*
X63848456Y-116416138D01*
X63946881Y-116373275D01*
X63986846Y-116276438D01*
X64091344Y-116276438D01*
X64093725Y-116331206D01*
X64108806Y-116373275D01*
X64150875Y-116405422D01*
X64232631Y-116416138D01*
X64312403Y-116405819D01*
X64354869Y-116374863D01*
X64369950Y-116331206D01*
X64372331Y-116273263D01*
X64372331Y-115706525D01*
X64392969Y-115725575D01*
X64504094Y-115774788D01*
X64600138Y-115719225D01*
X64650144Y-115620800D01*
X64592994Y-115527138D01*
X64332644Y-115292188D01*
X64327881Y-115289012D01*
X64238188Y-115247738D01*
X64162781Y-115255675D01*
X64121506Y-115273931D01*
X64099281Y-115308063D01*
X64091344Y-115392200D01*
X64091344Y-116276438D01*
X63986846Y-116276438D01*
X63988156Y-116273263D01*
X63973273Y-116190911D01*
X63928625Y-116115306D01*
X63862942Y-116048234D01*
X63784956Y-115991481D01*
X63700819Y-115940284D01*
X63616681Y-115889881D01*
X63538695Y-115836502D01*
X63473013Y-115776375D01*
X63428364Y-115710891D01*
X63413481Y-115641438D01*
X63424594Y-115600956D01*
X63449200Y-115558094D01*
X63491269Y-115527138D01*
X63570644Y-115512850D01*
X63658750Y-115550156D01*
X63700819Y-115623975D01*
X63707169Y-115660488D01*
X63707169Y-115670013D01*
X63709550Y-115722400D01*
X63724631Y-115762088D01*
X63767494Y-115790663D01*
X63848456Y-115800188D01*
X63936959Y-115785106D01*
X63980219Y-115739863D01*
X63988156Y-115658900D01*
X63975015Y-115552626D01*
X63935592Y-115453936D01*
X63869888Y-115362831D01*
X63782928Y-115290071D01*
X63679740Y-115246415D01*
X63560325Y-115231862D01*
X63440822Y-115246591D01*
X63337369Y-115290776D01*
X63249969Y-115364419D01*
X63183823Y-115456935D01*
X63144135Y-115557741D01*
X63130906Y-115666838D01*
X63140828Y-115754944D01*
X63170594Y-115838288D01*
X63214250Y-115911313D01*
X63265844Y-115968463D01*
X63376969Y-116056172D01*
X63475394Y-116109750D01*
X63515081Y-116125625D01*
X63515081Y-116133563D01*
X63224569Y-116133563D01*
X63131700Y-116148644D01*
X63094394Y-116194681D01*
X63084869Y-116275644D01*
X62603839Y-116275644D01*
X63013431Y-115444588D01*
X63037244Y-115368388D01*
X63013828Y-115315206D01*
X62943581Y-115266788D01*
X62863413Y-115239800D01*
X62821344Y-115246150D01*
X62794356Y-115268375D01*
X62768163Y-115310444D01*
X62746930Y-115354894D01*
X62707044Y-115442206D01*
X62656045Y-115554323D01*
X62601475Y-115673188D01*
X62546706Y-115792052D01*
X62495113Y-115904169D01*
X62456020Y-115988902D01*
X62438756Y-116025613D01*
X62121256Y-115330287D01*
X62099031Y-115282663D01*
X62029181Y-115239800D01*
X61935519Y-115266788D01*
X61865272Y-115315206D01*
X61841856Y-115368388D01*
X61097583Y-115368388D01*
X60957407Y-114901133D01*
X61511127Y-114901133D01*
X61841856Y-114901133D01*
X64650144Y-114901133D01*
X64980873Y-114901133D01*
X65534593Y-114901133D01*
X64980873Y-116746867D01*
G37*
%TO.C,kibuzzard-65B872D0*%
G36*
X89007156Y-162602069D02*
G01*
X89057956Y-162691762D01*
X88857931Y-162691762D01*
X88797606Y-162640962D01*
X88825388Y-162582225D01*
X88904763Y-162560000D01*
X89007156Y-162602069D01*
G37*
G36*
X92309156Y-162880675D02*
G01*
X92155169Y-162880675D01*
X92046425Y-162859442D01*
X91948794Y-162795744D01*
X91879738Y-162699898D01*
X91856719Y-162582225D01*
X91879142Y-162464155D01*
X91946413Y-162367119D01*
X92043845Y-162302230D01*
X92156756Y-162280600D01*
X92309156Y-162280600D01*
X92309156Y-162880675D01*
G37*
G36*
X92920873Y-163514617D02*
G01*
X92590144Y-163514617D01*
X92159931Y-163514617D01*
X91334431Y-163514617D01*
X90608944Y-163514617D01*
X89896950Y-163514617D01*
X88902381Y-163514617D01*
X88281669Y-163514617D01*
X86617969Y-163514617D01*
X86479856Y-163514617D01*
X86149127Y-163514617D01*
X86001331Y-163021963D01*
X86479856Y-163021963D01*
X86494938Y-163113244D01*
X86540975Y-163152138D01*
X86617969Y-163161662D01*
X86690994Y-163153725D01*
X86732269Y-163134675D01*
X86752906Y-163102925D01*
X86762431Y-163020375D01*
X86762431Y-162826700D01*
X87192644Y-162826700D01*
X87281147Y-162811619D01*
X87324406Y-162766375D01*
X87332344Y-162698112D01*
X87327581Y-162634612D01*
X87279989Y-162442525D01*
X87781606Y-162442525D01*
X87811769Y-162553650D01*
X87899081Y-162613975D01*
X87953850Y-162601275D01*
X88022906Y-162588575D01*
X88103075Y-162618737D01*
X88140381Y-162691762D01*
X88140381Y-163025137D01*
X88142762Y-163079906D01*
X88157844Y-163121975D01*
X88200706Y-163152931D01*
X88281669Y-163163250D01*
X88391206Y-163136262D01*
X88419781Y-163068000D01*
X88419781Y-163021963D01*
X88419781Y-162644931D01*
X88522969Y-162644931D01*
X88535073Y-162729862D01*
X88571388Y-162789394D01*
X88678544Y-162836225D01*
X89054781Y-162836225D01*
X89002394Y-162910838D01*
X88897619Y-162941000D01*
X88815466Y-162936238D01*
X88753156Y-162921950D01*
X88735694Y-162915600D01*
X88672194Y-162898138D01*
X88584881Y-162969575D01*
X88564244Y-163042600D01*
X88585377Y-163104413D01*
X88648778Y-163148566D01*
X88754446Y-163175057D01*
X88902381Y-163183888D01*
X89013308Y-163173767D01*
X89111138Y-163143406D01*
X89192298Y-163096377D01*
X89253219Y-163036250D01*
X89308781Y-162947174D01*
X89342119Y-162851394D01*
X89353231Y-162748912D01*
X89338856Y-162624470D01*
X89295728Y-162517843D01*
X89241195Y-162450462D01*
X89416731Y-162450462D01*
X89448481Y-162537775D01*
X89777094Y-163101337D01*
X89827894Y-163149756D01*
X89896950Y-163171188D01*
X89962038Y-163154519D01*
X90005694Y-163120387D01*
X90019981Y-163102925D01*
X90065430Y-163025137D01*
X90469244Y-163025137D01*
X90471625Y-163079906D01*
X90486706Y-163121975D01*
X90527584Y-163152931D01*
X90608944Y-163163250D01*
X90689509Y-163152534D01*
X90731181Y-163120387D01*
X90744675Y-163079113D01*
X90747056Y-163023550D01*
X90747056Y-162466337D01*
X90746021Y-162442525D01*
X90834369Y-162442525D01*
X90864531Y-162553650D01*
X90951844Y-162613975D01*
X91006613Y-162601275D01*
X91075669Y-162588575D01*
X91155838Y-162618737D01*
X91193144Y-162691762D01*
X91193144Y-163025137D01*
X91195525Y-163079906D01*
X91210606Y-163121975D01*
X91253469Y-163152931D01*
X91334431Y-163163250D01*
X91443969Y-163136262D01*
X91472544Y-163068000D01*
X91472544Y-163021963D01*
X91472544Y-162573494D01*
X91575731Y-162573494D01*
X91586397Y-162690225D01*
X91618395Y-162798323D01*
X91671725Y-162897790D01*
X91746388Y-162988625D01*
X91836230Y-163064329D01*
X91935102Y-163118403D01*
X92043002Y-163150848D01*
X92159931Y-163161662D01*
X92450444Y-163161662D01*
X92529025Y-163151741D01*
X92571094Y-163121975D01*
X92590144Y-163020375D01*
X92590144Y-162137725D01*
X92587763Y-162082162D01*
X92572681Y-162040887D01*
X92530613Y-162008741D01*
X92448856Y-161998025D01*
X92155169Y-161999613D01*
X92043548Y-162009981D01*
X91938872Y-162041086D01*
X91841141Y-162092928D01*
X91750356Y-162165506D01*
X91673958Y-162253216D01*
X91619388Y-162350450D01*
X91586645Y-162457209D01*
X91575731Y-162573494D01*
X91472544Y-162573494D01*
X91472544Y-162464750D01*
X91470163Y-162409981D01*
X91456669Y-162369500D01*
X91414600Y-162337353D01*
X91332844Y-162326637D01*
X91255453Y-162335766D01*
X91213781Y-162363150D01*
X91196319Y-162415537D01*
X91173300Y-162388550D01*
X91109006Y-162345687D01*
X91022488Y-162318700D01*
X90959781Y-162322669D01*
X90904219Y-162336162D01*
X90854213Y-162368706D01*
X90834369Y-162442525D01*
X90746021Y-162442525D01*
X90744675Y-162411569D01*
X90731181Y-162369500D01*
X90689113Y-162338544D01*
X90608150Y-162328325D01*
X90607356Y-162328225D01*
X90499406Y-162355212D01*
X90470831Y-162423475D01*
X90469244Y-162469512D01*
X90469244Y-163025137D01*
X90065430Y-163025137D01*
X90350181Y-162537775D01*
X90381931Y-162452050D01*
X90361294Y-162396884D01*
X90299381Y-162345687D01*
X90204131Y-162310762D01*
X90149363Y-162332194D01*
X90107294Y-162396487D01*
X89899331Y-162796537D01*
X89691369Y-162396487D01*
X89665175Y-162352831D01*
X89637394Y-162325844D01*
X89586594Y-162312350D01*
X89499281Y-162345687D01*
X89437369Y-162396488D01*
X89416731Y-162450462D01*
X89241195Y-162450462D01*
X89223850Y-162429031D01*
X89130452Y-162362444D01*
X89022767Y-162322492D01*
X88900794Y-162309175D01*
X88797805Y-162318898D01*
X88709500Y-162348069D01*
X88635880Y-162396686D01*
X88576944Y-162464750D01*
X88536463Y-162551070D01*
X88522969Y-162644931D01*
X88419781Y-162644931D01*
X88419781Y-162464750D01*
X88417400Y-162409981D01*
X88403906Y-162369500D01*
X88361838Y-162337353D01*
X88280081Y-162326637D01*
X88202691Y-162335766D01*
X88161019Y-162363150D01*
X88143556Y-162415537D01*
X88120537Y-162388550D01*
X88056244Y-162345687D01*
X87969725Y-162318700D01*
X87907019Y-162322669D01*
X87851456Y-162336162D01*
X87801450Y-162368706D01*
X87781606Y-162442525D01*
X87279989Y-162442525D01*
X87195819Y-162102800D01*
X87187723Y-162075812D01*
X90469244Y-162075812D01*
X90471625Y-162130581D01*
X90485913Y-162171856D01*
X90527981Y-162204400D01*
X90608150Y-162213925D01*
X90688319Y-162204400D01*
X90730388Y-162171062D01*
X90744675Y-162128994D01*
X90747056Y-162074225D01*
X90744675Y-162019456D01*
X90731181Y-161978975D01*
X90689113Y-161946828D01*
X90607356Y-161936112D01*
X90527188Y-161946828D01*
X90486706Y-161978975D01*
X90471625Y-162021044D01*
X90469244Y-162075812D01*
X87187723Y-162075812D01*
X87179150Y-162047237D01*
X87150575Y-162010725D01*
X87095806Y-161993262D01*
X87022781Y-162004375D01*
X86939437Y-162044856D01*
X86911656Y-162105975D01*
X86922769Y-162172650D01*
X86924356Y-162177412D01*
X87021194Y-162564762D01*
X86762431Y-162564762D01*
X86762431Y-162131375D01*
X86760050Y-162077400D01*
X86744969Y-162037712D01*
X86701312Y-162006756D01*
X86620350Y-161998025D01*
X86540181Y-162008344D01*
X86497319Y-162041681D01*
X86482237Y-162083750D01*
X86479856Y-162139312D01*
X86479856Y-163021963D01*
X86001331Y-163021963D01*
X85576357Y-161605383D01*
X86149127Y-161605383D01*
X86479856Y-161605383D01*
X92590144Y-161605383D01*
X92920873Y-161605383D01*
X93493643Y-161605383D01*
X92920873Y-163514617D01*
G37*
D12*
%TO.C,P2*%
X82125000Y-162195000D02*
X80875000Y-162195000D01*
X75865000Y-161905000D02*
X75865000Y-154285000D01*
X81835000Y-161905000D02*
X75865000Y-161905000D01*
X79575000Y-161895000D02*
X79575000Y-161145000D01*
X81075000Y-161895000D02*
X81075000Y-160095000D01*
X81825000Y-161895000D02*
X81075000Y-161895000D01*
X76625000Y-161145000D02*
X76625000Y-158095000D01*
X79575000Y-161145000D02*
X76625000Y-161145000D01*
X82125000Y-160945000D02*
X82125000Y-162195000D01*
X81075000Y-160095000D02*
X81825000Y-160095000D01*
X81825000Y-160095000D02*
X81825000Y-161895000D01*
X81075000Y-158595000D02*
X81075000Y-157595000D01*
X81825000Y-158595000D02*
X81075000Y-158595000D01*
X81075000Y-157595000D02*
X81825000Y-157595000D01*
X81825000Y-157595000D02*
X81825000Y-158595000D01*
X81075000Y-156095000D02*
X81075000Y-154295000D01*
X81825000Y-156095000D02*
X81075000Y-156095000D01*
X76625000Y-155045000D02*
X76625000Y-158095000D01*
X79575000Y-155045000D02*
X76625000Y-155045000D01*
X79575000Y-154295000D02*
X79575000Y-155045000D01*
X81075000Y-154295000D02*
X81825000Y-154295000D01*
X81825000Y-154295000D02*
X81825000Y-156095000D01*
X75865000Y-154285000D02*
X81835000Y-154285000D01*
X81835000Y-154285000D02*
X81835000Y-161905000D01*
%TO.C,M2*%
X103997000Y-161627000D02*
X103997000Y-160377000D01*
X104287000Y-155367000D02*
X116907000Y-155367000D01*
X104287000Y-161337000D02*
X104287000Y-155367000D01*
X104297000Y-159077000D02*
X105047000Y-159077000D01*
X104297000Y-160577000D02*
X106097000Y-160577000D01*
X104297000Y-161327000D02*
X104297000Y-160577000D01*
X105047000Y-156127000D02*
X110597000Y-156127000D01*
X105047000Y-159077000D02*
X105047000Y-156127000D01*
X105247000Y-161627000D02*
X103997000Y-161627000D01*
X106097000Y-160577000D02*
X106097000Y-161327000D01*
X106097000Y-161327000D02*
X104297000Y-161327000D01*
X107597000Y-160577000D02*
X113597000Y-160577000D01*
X107597000Y-161327000D02*
X107597000Y-160577000D01*
X113597000Y-160577000D02*
X113597000Y-161327000D01*
X113597000Y-161327000D02*
X107597000Y-161327000D01*
X115097000Y-160577000D02*
X116897000Y-160577000D01*
X115097000Y-161327000D02*
X115097000Y-160577000D01*
X116147000Y-156127000D02*
X110597000Y-156127000D01*
X116147000Y-159077000D02*
X116147000Y-156127000D01*
X116897000Y-159077000D02*
X116147000Y-159077000D01*
X116897000Y-160577000D02*
X116897000Y-161327000D01*
X116897000Y-161327000D02*
X115097000Y-161327000D01*
X116907000Y-155367000D02*
X116907000Y-161337000D01*
X116907000Y-161337000D02*
X104287000Y-161337000D01*
%TO.C,kibuzzard-65B8779B*%
G36*
X101311306Y-156669729D02*
G01*
X101276897Y-156762008D01*
X101173670Y-156807365D01*
X101069662Y-156762008D01*
X101034471Y-156668165D01*
X101034471Y-156472660D01*
X101311306Y-156472660D01*
X101311306Y-156669729D01*
G37*
G36*
X99318039Y-157798551D02*
G01*
X99283114Y-157890626D01*
X99178339Y-157936664D01*
X99072770Y-157890626D01*
X99037052Y-157795376D01*
X99037052Y-157595351D01*
X99318039Y-157595351D01*
X99318039Y-157798551D01*
G37*
G36*
X101311306Y-159223806D02*
G01*
X101276897Y-159314520D01*
X101173670Y-159359877D01*
X101069662Y-159314520D01*
X101034471Y-159220678D01*
X101034471Y-159023609D01*
X101311306Y-159023609D01*
X101311306Y-159223806D01*
G37*
G36*
X99637127Y-156631739D02*
G01*
X99615894Y-156740483D01*
X99552195Y-156838114D01*
X99456350Y-156907170D01*
X99338677Y-156930189D01*
X99220606Y-156907765D01*
X99123570Y-156840495D01*
X99058681Y-156743062D01*
X99037052Y-156630151D01*
X99037052Y-156477751D01*
X99637127Y-156477751D01*
X99637127Y-156631739D01*
G37*
G36*
X102244190Y-158209526D02*
G01*
X102244190Y-159470142D01*
X102244190Y-159647660D01*
X102244190Y-159978390D01*
X98415810Y-161126904D01*
X98415810Y-159978390D01*
X98415810Y-159647660D01*
X98415810Y-159284451D01*
X98746539Y-159284451D01*
X98773527Y-159378114D01*
X98821945Y-159448361D01*
X98875127Y-159471776D01*
X98951327Y-159447964D01*
X99406140Y-159223806D01*
X100757636Y-159223806D01*
X100768758Y-159314694D01*
X100802124Y-159403844D01*
X100857734Y-159491257D01*
X100914822Y-159548344D01*
X100989114Y-159594483D01*
X101076700Y-159624982D01*
X101173670Y-159635148D01*
X101284543Y-159622115D01*
X101381514Y-159583014D01*
X101464582Y-159517845D01*
X101528707Y-159544955D01*
X101610559Y-159580407D01*
X101710136Y-159624200D01*
X101791466Y-159647660D01*
X101846207Y-159623418D01*
X101891564Y-159550690D01*
X101913461Y-159470142D01*
X101898602Y-159420093D01*
X101868104Y-159391158D01*
X101823442Y-159370652D01*
X101729078Y-159329987D01*
X101585013Y-159269163D01*
X101588141Y-159220678D01*
X101588141Y-159023609D01*
X101764877Y-159023609D01*
X101818836Y-159021263D01*
X101860284Y-159006404D01*
X101891955Y-158964957D01*
X101902513Y-158884409D01*
X101888045Y-158797605D01*
X101844643Y-158756158D01*
X101763313Y-158746774D01*
X100895271Y-158746774D01*
X100841312Y-158749120D01*
X100799865Y-158763978D01*
X100768193Y-158805425D01*
X100758050Y-158882814D01*
X100757636Y-158885973D01*
X100757636Y-159223806D01*
X99406140Y-159223806D01*
X99840327Y-159009814D01*
X99896683Y-158956633D01*
X99918114Y-158882814D01*
X99918114Y-158866939D01*
X99896683Y-158791533D01*
X99840327Y-158738351D01*
X99321110Y-158482451D01*
X100748252Y-158482451D01*
X100763892Y-158555961D01*
X100807685Y-158634554D01*
X100863990Y-158660752D01*
X100940628Y-158641983D01*
X101808670Y-158341688D01*
X101835259Y-158330739D01*
X101876706Y-158289292D01*
X101902513Y-158209526D01*
X101876706Y-158129760D01*
X101825875Y-158085185D01*
X101286281Y-157902192D01*
X101471338Y-157839568D01*
X101616106Y-157790583D01*
X101720584Y-157755235D01*
X101784772Y-157733526D01*
X101808670Y-157725456D01*
X101835259Y-157711380D01*
X101866540Y-157686355D01*
X101902513Y-157600333D01*
X101879052Y-157518221D01*
X101832131Y-157475210D01*
X101808670Y-157464261D01*
X100940628Y-157162402D01*
X100863990Y-157145197D01*
X100808076Y-157171395D01*
X100765456Y-157249988D01*
X100749816Y-157332100D01*
X100774840Y-157388406D01*
X100851478Y-157423596D01*
X101373867Y-157595641D01*
X100859298Y-157766121D01*
X100768584Y-157845887D01*
X100757636Y-157910795D01*
X100783442Y-157985087D01*
X100834274Y-158028880D01*
X100893725Y-158048583D01*
X101376995Y-158208744D01*
X100851478Y-158380789D01*
X100798301Y-158401121D01*
X100764674Y-158430056D01*
X100748252Y-158482451D01*
X99321110Y-158482451D01*
X98951327Y-158300201D01*
X98875127Y-158276389D01*
X98821945Y-158299805D01*
X98773527Y-158370051D01*
X98746539Y-158450220D01*
X98752889Y-158492289D01*
X98775114Y-158519276D01*
X98817183Y-158545470D01*
X98861633Y-158566703D01*
X98948945Y-158606589D01*
X99061063Y-158657587D01*
X99179927Y-158712158D01*
X99298791Y-158766926D01*
X99410908Y-158818520D01*
X99495641Y-158857612D01*
X99532352Y-158874876D01*
X98837027Y-159192376D01*
X98789402Y-159214601D01*
X98746539Y-159284451D01*
X98415810Y-159284451D01*
X98415810Y-157798551D01*
X98756064Y-157798551D01*
X98767353Y-157890803D01*
X98801220Y-157981290D01*
X98857664Y-158070014D01*
X98915608Y-158127958D01*
X98991014Y-158174789D01*
X99079914Y-158205745D01*
X99178339Y-158216064D01*
X99290875Y-158202835D01*
X99389300Y-158163147D01*
X99473614Y-158097001D01*
X99538702Y-158124518D01*
X99621781Y-158160501D01*
X99722852Y-158204951D01*
X99805402Y-158228764D01*
X99860964Y-158204158D01*
X99907002Y-158130339D01*
X99929227Y-158048583D01*
X99914145Y-157997783D01*
X99883189Y-157968414D01*
X99837857Y-157947600D01*
X99742078Y-157906325D01*
X99595852Y-157844589D01*
X99599027Y-157795376D01*
X99599027Y-157595351D01*
X99778414Y-157595351D01*
X99833183Y-157592970D01*
X99875252Y-157577889D01*
X99907399Y-157535820D01*
X99918114Y-157454064D01*
X99903430Y-157365958D01*
X99859377Y-157323889D01*
X99776827Y-157314364D01*
X98895764Y-157314364D01*
X98840995Y-157316745D01*
X98798927Y-157331826D01*
X98766780Y-157373895D01*
X98756064Y-157455651D01*
X98756064Y-157798551D01*
X98415810Y-157798551D01*
X98415810Y-156338051D01*
X98754477Y-156338051D01*
X98756064Y-156631739D01*
X98766432Y-156743360D01*
X98797538Y-156848036D01*
X98849379Y-156945766D01*
X98921958Y-157036551D01*
X99009667Y-157112950D01*
X99106902Y-157167520D01*
X99213661Y-157200262D01*
X99329945Y-157211176D01*
X99446676Y-157200510D01*
X99554775Y-157168512D01*
X99654242Y-157115182D01*
X99745077Y-157040520D01*
X99820781Y-156950678D01*
X99874855Y-156851806D01*
X99907299Y-156743906D01*
X99918114Y-156626976D01*
X100757636Y-156626976D01*
X100757636Y-156669729D01*
X100768758Y-156760618D01*
X100802124Y-156849768D01*
X100857734Y-156937180D01*
X100914822Y-156995441D01*
X100989114Y-157041971D01*
X101076700Y-157072470D01*
X101173670Y-157082636D01*
X101270445Y-157072470D01*
X101357445Y-157041971D01*
X101431150Y-156995441D01*
X101488042Y-156937180D01*
X101543652Y-156849594D01*
X101577019Y-156759922D01*
X101588141Y-156668165D01*
X101588141Y-156472660D01*
X101764877Y-156472660D01*
X101818836Y-156470314D01*
X101860284Y-156455456D01*
X101891955Y-156414009D01*
X101902513Y-156333461D01*
X101888045Y-156246657D01*
X101844643Y-156205210D01*
X101763313Y-156195826D01*
X100895271Y-156195826D01*
X100841312Y-156198172D01*
X100799865Y-156213030D01*
X100768193Y-156254477D01*
X100757636Y-156335025D01*
X100757636Y-156626976D01*
X99918114Y-156626976D01*
X99918114Y-156336464D01*
X99908192Y-156257883D01*
X99878427Y-156215814D01*
X99776827Y-156196764D01*
X98894177Y-156196764D01*
X98838614Y-156199145D01*
X98797339Y-156214226D01*
X98765192Y-156256295D01*
X98754477Y-156338051D01*
X98415810Y-156338051D01*
X98415810Y-156195826D01*
X98415810Y-155865096D01*
X102244190Y-155865096D01*
X102244190Y-156195826D01*
X102244190Y-156333461D01*
X102244190Y-158209526D01*
G37*
%TO.C,kibuzzard-65B87A32*%
G36*
X55705110Y-69000423D02*
G01*
X55374381Y-69000423D01*
X54994969Y-69000423D01*
X53926581Y-69000423D01*
X53337619Y-69000423D01*
X53006890Y-69000423D01*
X52587631Y-67602894D01*
X53337619Y-67602894D01*
X53361431Y-67679094D01*
X53799581Y-68568094D01*
X53852762Y-68624450D01*
X53926581Y-68645881D01*
X53942456Y-68645881D01*
X54017862Y-68624450D01*
X54071044Y-68568094D01*
X54218529Y-68268850D01*
X54596506Y-68268850D01*
X54609206Y-68373272D01*
X54647306Y-68467464D01*
X54710806Y-68551425D01*
X54793180Y-68617130D01*
X54887901Y-68656553D01*
X54994969Y-68669694D01*
X55090219Y-68661403D01*
X55179119Y-68636533D01*
X55261669Y-68595081D01*
X55301356Y-68564919D01*
X55314056Y-68553806D01*
X55374381Y-68458556D01*
X55315644Y-68355369D01*
X55223569Y-68302981D01*
X55117206Y-68353781D01*
X55017988Y-68387119D01*
X54913213Y-68356956D01*
X54879081Y-68273613D01*
X54916388Y-68189475D01*
X55001319Y-68158519D01*
X55077519Y-68187094D01*
X55164038Y-68223606D01*
X55264050Y-68193444D01*
X55337869Y-68145025D01*
X55355331Y-68106131D01*
X55347394Y-68031916D01*
X55323581Y-67850544D01*
X55299372Y-67671950D01*
X55290244Y-67606069D01*
X55279131Y-67572731D01*
X55256113Y-67529869D01*
X55214838Y-67495738D01*
X55150544Y-67480656D01*
X54909244Y-67482244D01*
X54760019Y-67482244D01*
X54704456Y-67484625D01*
X54663181Y-67499706D01*
X54631034Y-67542569D01*
X54620319Y-67626706D01*
X54630241Y-67703303D01*
X54660006Y-67742594D01*
X54698900Y-67757675D01*
X54750494Y-67760056D01*
X55028306Y-67760056D01*
X55044181Y-67880706D01*
X54988619Y-67877531D01*
X54891428Y-67890143D01*
X54800941Y-67927978D01*
X54717156Y-67991038D01*
X54650128Y-68072353D01*
X54609912Y-68164957D01*
X54596506Y-68268850D01*
X54218529Y-68268850D01*
X54509194Y-67679094D01*
X54533006Y-67602894D01*
X54509591Y-67549713D01*
X54439344Y-67501294D01*
X54359175Y-67474306D01*
X54317106Y-67480656D01*
X54290119Y-67502881D01*
X54263925Y-67544950D01*
X54242692Y-67589400D01*
X54202806Y-67676713D01*
X54151808Y-67788830D01*
X54097238Y-67907694D01*
X54042469Y-68026558D01*
X53990875Y-68138675D01*
X53951783Y-68223408D01*
X53934519Y-68260119D01*
X53617019Y-67564794D01*
X53594794Y-67517169D01*
X53524944Y-67474306D01*
X53431281Y-67501294D01*
X53361034Y-67549713D01*
X53337619Y-67602894D01*
X52587631Y-67602894D01*
X52449836Y-67143577D01*
X53006890Y-67143577D01*
X53337619Y-67143577D01*
X55374381Y-67143577D01*
X55705110Y-67143577D01*
X56262164Y-67143577D01*
X55705110Y-69000423D01*
G37*
%TO.C,SW1*%
X82252000Y-104156000D02*
X81002000Y-104156000D01*
X75992000Y-103866000D02*
X75992000Y-96246000D01*
X81962000Y-103866000D02*
X75992000Y-103866000D01*
X79702000Y-103856000D02*
X79702000Y-103106000D01*
X81202000Y-103856000D02*
X81202000Y-102056000D01*
X81952000Y-103856000D02*
X81202000Y-103856000D01*
X76752000Y-103106000D02*
X76752000Y-100056000D01*
X79702000Y-103106000D02*
X76752000Y-103106000D01*
X82252000Y-102906000D02*
X82252000Y-104156000D01*
X81202000Y-102056000D02*
X81952000Y-102056000D01*
X81952000Y-102056000D02*
X81952000Y-103856000D01*
X81202000Y-100556000D02*
X81202000Y-99556000D01*
X81952000Y-100556000D02*
X81202000Y-100556000D01*
X81202000Y-99556000D02*
X81952000Y-99556000D01*
X81952000Y-99556000D02*
X81952000Y-100556000D01*
X81202000Y-98056000D02*
X81202000Y-96256000D01*
X81952000Y-98056000D02*
X81202000Y-98056000D01*
X76752000Y-97006000D02*
X76752000Y-100056000D01*
X79702000Y-97006000D02*
X76752000Y-97006000D01*
X79702000Y-96256000D02*
X79702000Y-97006000D01*
X81202000Y-96256000D02*
X81952000Y-96256000D01*
X81952000Y-96256000D02*
X81952000Y-98056000D01*
X75992000Y-96246000D02*
X81962000Y-96246000D01*
X81962000Y-96246000D02*
X81962000Y-103866000D01*
%TO.C,kibuzzard-65B872C5*%
G36*
X89031763Y-149902069D02*
G01*
X89082563Y-149991762D01*
X88882538Y-149991762D01*
X88822213Y-149940962D01*
X88849994Y-149882225D01*
X88929369Y-149860000D01*
X89031763Y-149902069D01*
G37*
G36*
X92333763Y-150180675D02*
G01*
X92179775Y-150180675D01*
X92071031Y-150159442D01*
X91973400Y-150095744D01*
X91904344Y-149999898D01*
X91881325Y-149882225D01*
X91903748Y-149764155D01*
X91971019Y-149667119D01*
X92068452Y-149602230D01*
X92181363Y-149580600D01*
X92333763Y-149580600D01*
X92333763Y-150180675D01*
G37*
G36*
X92945479Y-150814617D02*
G01*
X92614750Y-150814617D01*
X92184538Y-150814617D01*
X91359038Y-150814617D01*
X90633550Y-150814617D01*
X89921556Y-150814617D01*
X88926988Y-150814617D01*
X88306275Y-150814617D01*
X86901337Y-150814617D01*
X86455250Y-150814617D01*
X86124521Y-150814617D01*
X85908145Y-150093363D01*
X86455250Y-150093363D01*
X86469361Y-150199990D01*
X86511694Y-150293387D01*
X86582250Y-150373556D01*
X86674149Y-150434851D01*
X86780511Y-150471628D01*
X86901337Y-150483888D01*
X87021282Y-150471540D01*
X87127115Y-150434499D01*
X87218838Y-150372763D01*
X87263684Y-150323153D01*
X87302975Y-150260050D01*
X87320437Y-150218775D01*
X87323612Y-150202900D01*
X87341075Y-150117175D01*
X87302181Y-150048119D01*
X87185500Y-150025100D01*
X87101362Y-150040975D01*
X87053737Y-150123525D01*
X86966425Y-150199725D01*
X86899750Y-150209250D01*
X86826725Y-150200717D01*
X86775925Y-150175119D01*
X86736237Y-150098125D01*
X86775131Y-150022719D01*
X86867206Y-149990175D01*
X86939437Y-149987000D01*
X86980712Y-149971125D01*
X87012859Y-149930247D01*
X87023575Y-149848887D01*
X87008891Y-149760384D01*
X86990704Y-149742525D01*
X87806213Y-149742525D01*
X87836375Y-149853650D01*
X87923687Y-149913975D01*
X87978456Y-149901275D01*
X88047512Y-149888575D01*
X88127681Y-149918737D01*
X88164987Y-149991762D01*
X88164987Y-150325137D01*
X88167369Y-150379906D01*
X88182450Y-150421975D01*
X88225312Y-150452931D01*
X88306275Y-150463250D01*
X88415812Y-150436262D01*
X88444387Y-150368000D01*
X88444387Y-150321963D01*
X88444387Y-149944931D01*
X88547575Y-149944931D01*
X88559680Y-150029862D01*
X88595994Y-150089394D01*
X88703150Y-150136225D01*
X89079388Y-150136225D01*
X89027000Y-150210838D01*
X88922225Y-150241000D01*
X88840072Y-150236238D01*
X88777763Y-150221950D01*
X88760300Y-150215600D01*
X88696800Y-150198138D01*
X88609488Y-150269575D01*
X88588850Y-150342600D01*
X88609984Y-150404413D01*
X88673384Y-150448566D01*
X88779052Y-150475057D01*
X88926988Y-150483888D01*
X89037914Y-150473767D01*
X89135744Y-150443406D01*
X89216905Y-150396377D01*
X89277825Y-150336250D01*
X89333387Y-150247174D01*
X89366725Y-150151394D01*
X89377838Y-150048912D01*
X89363462Y-149924470D01*
X89320335Y-149817843D01*
X89265801Y-149750462D01*
X89441338Y-149750462D01*
X89473088Y-149837775D01*
X89801700Y-150401337D01*
X89852500Y-150449756D01*
X89921556Y-150471188D01*
X89986644Y-150454519D01*
X90030300Y-150420387D01*
X90044588Y-150402925D01*
X90090037Y-150325137D01*
X90493850Y-150325137D01*
X90496231Y-150379906D01*
X90511313Y-150421975D01*
X90552191Y-150452931D01*
X90633550Y-150463250D01*
X90714116Y-150452534D01*
X90755788Y-150420387D01*
X90769281Y-150379113D01*
X90771663Y-150323550D01*
X90771663Y-149766337D01*
X90770627Y-149742525D01*
X90858975Y-149742525D01*
X90889138Y-149853650D01*
X90976450Y-149913975D01*
X91031219Y-149901275D01*
X91100275Y-149888575D01*
X91180444Y-149918737D01*
X91217750Y-149991762D01*
X91217750Y-150325137D01*
X91220131Y-150379906D01*
X91235213Y-150421975D01*
X91278075Y-150452931D01*
X91359038Y-150463250D01*
X91468575Y-150436262D01*
X91497150Y-150368000D01*
X91497150Y-150321963D01*
X91497150Y-149873494D01*
X91600338Y-149873494D01*
X91611004Y-149990225D01*
X91643002Y-150098323D01*
X91696332Y-150197790D01*
X91770994Y-150288625D01*
X91860836Y-150364329D01*
X91959708Y-150418403D01*
X92067608Y-150450848D01*
X92184538Y-150461662D01*
X92475050Y-150461662D01*
X92553631Y-150451741D01*
X92595700Y-150421975D01*
X92614750Y-150320375D01*
X92614750Y-149437725D01*
X92612369Y-149382162D01*
X92597288Y-149340887D01*
X92555219Y-149308741D01*
X92473463Y-149298025D01*
X92179775Y-149299613D01*
X92068154Y-149309981D01*
X91963478Y-149341086D01*
X91865748Y-149392928D01*
X91774963Y-149465506D01*
X91698564Y-149553216D01*
X91643994Y-149650450D01*
X91611252Y-149757209D01*
X91600338Y-149873494D01*
X91497150Y-149873494D01*
X91497150Y-149764750D01*
X91494769Y-149709981D01*
X91481275Y-149669500D01*
X91439206Y-149637353D01*
X91357450Y-149626637D01*
X91280059Y-149635766D01*
X91238388Y-149663150D01*
X91220925Y-149715537D01*
X91197906Y-149688550D01*
X91133613Y-149645687D01*
X91047094Y-149618700D01*
X90984388Y-149622669D01*
X90928825Y-149636162D01*
X90878819Y-149668706D01*
X90858975Y-149742525D01*
X90770627Y-149742525D01*
X90769281Y-149711569D01*
X90755788Y-149669500D01*
X90713719Y-149638544D01*
X90632756Y-149628325D01*
X90631963Y-149628225D01*
X90524013Y-149655212D01*
X90495438Y-149723475D01*
X90493850Y-149769512D01*
X90493850Y-150325137D01*
X90090037Y-150325137D01*
X90374788Y-149837775D01*
X90406538Y-149752050D01*
X90385900Y-149696884D01*
X90323988Y-149645687D01*
X90228738Y-149610762D01*
X90173969Y-149632194D01*
X90131900Y-149696487D01*
X89923938Y-150096537D01*
X89715975Y-149696487D01*
X89689781Y-149652831D01*
X89662000Y-149625844D01*
X89611200Y-149612350D01*
X89523888Y-149645687D01*
X89461975Y-149696488D01*
X89441338Y-149750462D01*
X89265801Y-149750462D01*
X89248456Y-149729031D01*
X89155058Y-149662444D01*
X89047373Y-149622492D01*
X88925400Y-149609175D01*
X88822411Y-149618898D01*
X88734106Y-149648069D01*
X88660486Y-149696686D01*
X88601550Y-149764750D01*
X88561069Y-149851070D01*
X88547575Y-149944931D01*
X88444387Y-149944931D01*
X88444387Y-149764750D01*
X88442006Y-149709981D01*
X88428513Y-149669500D01*
X88386444Y-149637353D01*
X88304688Y-149626637D01*
X88227297Y-149635766D01*
X88185625Y-149663150D01*
X88168162Y-149715537D01*
X88145144Y-149688550D01*
X88080850Y-149645687D01*
X87994331Y-149618700D01*
X87931625Y-149622669D01*
X87876062Y-149636162D01*
X87826056Y-149668706D01*
X87806213Y-149742525D01*
X86990704Y-149742525D01*
X86964838Y-149717125D01*
X86882287Y-149709187D01*
X86791800Y-149693709D01*
X86761638Y-149647275D01*
X86793388Y-149583775D01*
X86881494Y-149553612D01*
X86971188Y-149572662D01*
X87012462Y-149610762D01*
X87021987Y-149629812D01*
X87066437Y-149689344D01*
X87126762Y-149709187D01*
X87214075Y-149680612D01*
X87273606Y-149631003D01*
X87293450Y-149574250D01*
X87256937Y-149466300D01*
X87222012Y-149416294D01*
X87179481Y-149375812D01*
X90493850Y-149375812D01*
X90496231Y-149430581D01*
X90510519Y-149471856D01*
X90552588Y-149504400D01*
X90632756Y-149513925D01*
X90712925Y-149504400D01*
X90754994Y-149471062D01*
X90769281Y-149428994D01*
X90771663Y-149374225D01*
X90769281Y-149319456D01*
X90755788Y-149278975D01*
X90713719Y-149246828D01*
X90631963Y-149236112D01*
X90551794Y-149246828D01*
X90511313Y-149278975D01*
X90496231Y-149321044D01*
X90493850Y-149375812D01*
X87179481Y-149375812D01*
X87156131Y-149353587D01*
X87051356Y-149304375D01*
X86980117Y-149287706D01*
X86901337Y-149282150D01*
X86780335Y-149294497D01*
X86677676Y-149331539D01*
X86593363Y-149393275D01*
X86530744Y-149470445D01*
X86493174Y-149553789D01*
X86480650Y-149643306D01*
X86494408Y-149727356D01*
X86535683Y-149794295D01*
X86604475Y-149844125D01*
X86604475Y-149855237D01*
X86557644Y-149889369D01*
X86507637Y-149940962D01*
X86468347Y-150012400D01*
X86455250Y-150093363D01*
X85908145Y-150093363D01*
X85551751Y-148905383D01*
X86124521Y-148905383D01*
X86455250Y-148905383D01*
X92614750Y-148905383D01*
X92945479Y-148905383D01*
X93518249Y-148905383D01*
X92945479Y-150814617D01*
G37*
%TO.C,M3*%
X82955000Y-161627000D02*
X82955000Y-160377000D01*
X83245000Y-155367000D02*
X95865000Y-155367000D01*
X83245000Y-161337000D02*
X83245000Y-155367000D01*
X83255000Y-159077000D02*
X84005000Y-159077000D01*
X83255000Y-160577000D02*
X85055000Y-160577000D01*
X83255000Y-161327000D02*
X83255000Y-160577000D01*
X84005000Y-156127000D02*
X89555000Y-156127000D01*
X84005000Y-159077000D02*
X84005000Y-156127000D01*
X84205000Y-161627000D02*
X82955000Y-161627000D01*
X85055000Y-160577000D02*
X85055000Y-161327000D01*
X85055000Y-161327000D02*
X83255000Y-161327000D01*
X86555000Y-160577000D02*
X92555000Y-160577000D01*
X86555000Y-161327000D02*
X86555000Y-160577000D01*
X92555000Y-160577000D02*
X92555000Y-161327000D01*
X92555000Y-161327000D02*
X86555000Y-161327000D01*
X94055000Y-160577000D02*
X95855000Y-160577000D01*
X94055000Y-161327000D02*
X94055000Y-160577000D01*
X95105000Y-156127000D02*
X89555000Y-156127000D01*
X95105000Y-159077000D02*
X95105000Y-156127000D01*
X95855000Y-159077000D02*
X95105000Y-159077000D01*
X95855000Y-160577000D02*
X95855000Y-161327000D01*
X95855000Y-161327000D02*
X94055000Y-161327000D01*
X95865000Y-155367000D02*
X95865000Y-161337000D01*
X95865000Y-161337000D02*
X83245000Y-161337000D01*
%TO.C,P8*%
X61919711Y-104498202D02*
X62803594Y-105382086D01*
X66141138Y-109129751D02*
X57217451Y-118053439D01*
X61919711Y-104908324D02*
X66141138Y-109129751D01*
X63510701Y-106513456D02*
X62980371Y-107043786D01*
X62450041Y-105452796D02*
X61177249Y-106725588D01*
X61919711Y-104922466D02*
X62450041Y-105452796D01*
X65066336Y-109129751D02*
X61141893Y-113054194D01*
X62980371Y-107043786D02*
X65066336Y-109129751D01*
X61035827Y-105382086D02*
X61919711Y-104498202D01*
X61177249Y-106725588D02*
X60646918Y-106195258D01*
X60646918Y-106195258D02*
X61919711Y-104922466D01*
X60116588Y-107786249D02*
X55873948Y-112028889D01*
X59586258Y-107255918D02*
X60116588Y-107786249D01*
X55873948Y-112028889D02*
X55343618Y-111498559D01*
X55343618Y-111498559D02*
X59586258Y-107255918D01*
X54813288Y-113089549D02*
X53540495Y-114362342D01*
X54282957Y-112559219D02*
X54813288Y-113089549D01*
X57217451Y-116978637D02*
X61141893Y-113054194D01*
X55131486Y-114892672D02*
X57217451Y-116978637D01*
X54601155Y-115423002D02*
X55131486Y-114892672D01*
X53540495Y-114362342D02*
X53010165Y-113832012D01*
X53010165Y-113832012D02*
X54282957Y-112559219D01*
X57217451Y-118053439D02*
X52996023Y-113832012D01*
X52996023Y-113832012D02*
X61919711Y-104908324D01*
%TO.C,kibuzzard-65B877B7*%
G36*
X79975306Y-150960243D02*
G01*
X79940897Y-151052522D01*
X79837670Y-151097879D01*
X79733662Y-151052522D01*
X79698471Y-150958679D01*
X79698471Y-150763174D01*
X79975306Y-150763174D01*
X79975306Y-150960243D01*
G37*
G36*
X77982039Y-152089065D02*
G01*
X77947114Y-152181140D01*
X77842339Y-152227178D01*
X77736770Y-152181140D01*
X77701052Y-152085890D01*
X77701052Y-151885865D01*
X77982039Y-151885865D01*
X77982039Y-152089065D01*
G37*
G36*
X79975306Y-153514320D02*
G01*
X79940897Y-153605034D01*
X79837670Y-153650391D01*
X79733662Y-153605034D01*
X79698471Y-153511192D01*
X79698471Y-153314123D01*
X79975306Y-153314123D01*
X79975306Y-153514320D01*
G37*
G36*
X78301127Y-150922253D02*
G01*
X78279894Y-151030997D01*
X78216195Y-151128628D01*
X78120350Y-151197684D01*
X78002677Y-151220703D01*
X77884606Y-151198280D01*
X77787570Y-151131009D01*
X77722681Y-151033576D01*
X77701052Y-150920665D01*
X77701052Y-150768265D01*
X78301127Y-150768265D01*
X78301127Y-150922253D01*
G37*
G36*
X80908190Y-152500040D02*
G01*
X80908190Y-153760656D01*
X80908190Y-153938174D01*
X80908190Y-154268904D01*
X77079810Y-154268904D01*
X77079810Y-153938174D01*
X77079810Y-153574965D01*
X77410539Y-153574965D01*
X77437527Y-153668628D01*
X77485945Y-153738875D01*
X77539127Y-153762290D01*
X77615327Y-153738478D01*
X78070140Y-153514320D01*
X79421636Y-153514320D01*
X79432758Y-153605208D01*
X79466124Y-153694358D01*
X79521734Y-153781771D01*
X79578822Y-153838858D01*
X79653114Y-153884997D01*
X79740700Y-153915496D01*
X79837670Y-153925662D01*
X79948543Y-153912629D01*
X80045514Y-153873528D01*
X80128582Y-153808359D01*
X80192707Y-153835469D01*
X80274559Y-153870921D01*
X80374136Y-153914714D01*
X80455466Y-153938174D01*
X80510207Y-153913932D01*
X80555564Y-153841204D01*
X80577461Y-153760656D01*
X80562602Y-153710607D01*
X80532104Y-153681672D01*
X80487442Y-153661166D01*
X80393078Y-153620501D01*
X80249013Y-153559677D01*
X80252141Y-153511192D01*
X80252141Y-153314123D01*
X80428877Y-153314123D01*
X80482836Y-153311777D01*
X80524284Y-153296918D01*
X80555955Y-153255471D01*
X80566513Y-153174923D01*
X80552045Y-153088119D01*
X80508643Y-153046672D01*
X80427313Y-153037288D01*
X79559271Y-153037288D01*
X79505312Y-153039634D01*
X79463865Y-153054492D01*
X79432193Y-153095939D01*
X79422050Y-153173328D01*
X79421636Y-153176487D01*
X79421636Y-153514320D01*
X78070140Y-153514320D01*
X78504327Y-153300328D01*
X78560683Y-153247147D01*
X78582114Y-153173328D01*
X78582114Y-153157453D01*
X78560683Y-153082047D01*
X78504327Y-153028865D01*
X77985110Y-152772965D01*
X79412252Y-152772965D01*
X79427892Y-152846475D01*
X79471685Y-152925068D01*
X79527990Y-152951266D01*
X79604628Y-152932497D01*
X80472670Y-152632202D01*
X80499259Y-152621253D01*
X80540706Y-152579806D01*
X80566513Y-152500040D01*
X80540706Y-152420274D01*
X80489875Y-152375699D01*
X79950281Y-152192707D01*
X80135338Y-152130082D01*
X80280106Y-152081097D01*
X80384584Y-152045749D01*
X80448772Y-152024041D01*
X80472670Y-152015970D01*
X80499259Y-152001894D01*
X80530540Y-151976869D01*
X80566513Y-151890847D01*
X80543052Y-151808735D01*
X80496131Y-151765724D01*
X80472670Y-151754775D01*
X79604628Y-151452916D01*
X79527990Y-151435711D01*
X79472076Y-151461909D01*
X79429456Y-151540502D01*
X79413816Y-151622614D01*
X79438840Y-151678920D01*
X79515478Y-151714110D01*
X80037867Y-151886155D01*
X79523298Y-152056635D01*
X79432584Y-152136401D01*
X79421636Y-152201309D01*
X79447442Y-152275601D01*
X79498274Y-152319394D01*
X79557725Y-152339097D01*
X80040995Y-152499258D01*
X79515478Y-152671303D01*
X79462301Y-152691635D01*
X79428674Y-152720570D01*
X79412252Y-152772965D01*
X77985110Y-152772965D01*
X77615327Y-152590715D01*
X77539127Y-152566903D01*
X77485945Y-152590319D01*
X77437527Y-152660565D01*
X77410539Y-152740734D01*
X77416889Y-152782803D01*
X77439114Y-152809790D01*
X77481183Y-152835984D01*
X77525633Y-152857217D01*
X77612945Y-152897103D01*
X77725063Y-152948101D01*
X77843927Y-153002672D01*
X77962791Y-153057440D01*
X78074908Y-153109034D01*
X78159641Y-153148126D01*
X78196352Y-153165390D01*
X77501027Y-153482890D01*
X77453402Y-153505115D01*
X77410539Y-153574965D01*
X77079810Y-153574965D01*
X77079810Y-152089065D01*
X77420064Y-152089065D01*
X77431353Y-152181317D01*
X77465220Y-152271804D01*
X77521664Y-152360528D01*
X77579608Y-152418472D01*
X77655014Y-152465303D01*
X77743914Y-152496259D01*
X77842339Y-152506578D01*
X77954875Y-152493349D01*
X78053300Y-152453661D01*
X78137614Y-152387515D01*
X78202702Y-152415032D01*
X78285781Y-152451015D01*
X78386852Y-152495465D01*
X78469402Y-152519278D01*
X78524964Y-152494672D01*
X78571002Y-152420853D01*
X78593227Y-152339097D01*
X78578145Y-152288297D01*
X78547189Y-152258928D01*
X78501857Y-152238114D01*
X78406078Y-152196839D01*
X78259852Y-152135103D01*
X78263027Y-152085890D01*
X78263027Y-151885865D01*
X78442414Y-151885865D01*
X78497183Y-151883484D01*
X78539252Y-151868403D01*
X78571399Y-151826334D01*
X78582114Y-151744578D01*
X78567430Y-151656472D01*
X78523377Y-151614403D01*
X78440827Y-151604878D01*
X77559764Y-151604878D01*
X77504995Y-151607259D01*
X77462927Y-151622340D01*
X77430780Y-151664409D01*
X77420064Y-151746165D01*
X77420064Y-152089065D01*
X77079810Y-152089065D01*
X77079810Y-150628565D01*
X77418477Y-150628565D01*
X77420064Y-150922253D01*
X77430432Y-151033874D01*
X77461538Y-151138550D01*
X77513379Y-151236280D01*
X77585958Y-151327065D01*
X77673667Y-151403464D01*
X77770902Y-151458034D01*
X77877661Y-151490776D01*
X77993945Y-151501690D01*
X78110676Y-151491024D01*
X78218775Y-151459026D01*
X78318242Y-151405696D01*
X78409077Y-151331034D01*
X78484781Y-151241192D01*
X78538855Y-151142320D01*
X78571299Y-151034420D01*
X78582114Y-150917490D01*
X79421636Y-150917490D01*
X79421636Y-150960243D01*
X79432758Y-151051132D01*
X79466124Y-151140282D01*
X79521734Y-151227694D01*
X79578822Y-151285955D01*
X79653114Y-151332485D01*
X79740700Y-151362984D01*
X79837670Y-151373150D01*
X79934445Y-151362984D01*
X80021445Y-151332485D01*
X80095150Y-151285955D01*
X80152042Y-151227694D01*
X80207652Y-151140108D01*
X80241019Y-151050436D01*
X80252141Y-150958679D01*
X80252141Y-150763174D01*
X80428877Y-150763174D01*
X80482836Y-150760828D01*
X80524284Y-150745970D01*
X80555955Y-150704523D01*
X80566513Y-150623975D01*
X80552045Y-150537171D01*
X80508643Y-150495724D01*
X80427313Y-150486340D01*
X79559271Y-150486340D01*
X79505312Y-150488686D01*
X79463865Y-150503544D01*
X79432193Y-150544991D01*
X79421636Y-150625539D01*
X79421636Y-150917490D01*
X78582114Y-150917490D01*
X78582114Y-150626978D01*
X78572192Y-150548397D01*
X78542427Y-150506328D01*
X78440827Y-150487278D01*
X77558177Y-150487278D01*
X77502614Y-150489659D01*
X77461339Y-150504740D01*
X77429192Y-150546809D01*
X77418477Y-150628565D01*
X77079810Y-150628565D01*
X77079810Y-150486340D01*
X77079810Y-150155610D01*
X77079810Y-149007096D01*
X80908190Y-150155610D01*
X80908190Y-150486340D01*
X80908190Y-150623975D01*
X80908190Y-152500040D01*
G37*
%TO.C,kibuzzard-65B8729F*%
G36*
X110323313Y-149902069D02*
G01*
X110374113Y-149991762D01*
X110174088Y-149991762D01*
X110113763Y-149940962D01*
X110141544Y-149882225D01*
X110220919Y-149860000D01*
X110323313Y-149902069D01*
G37*
G36*
X113625313Y-150180675D02*
G01*
X113471325Y-150180675D01*
X113362581Y-150159442D01*
X113264950Y-150095744D01*
X113195894Y-149999898D01*
X113172875Y-149882225D01*
X113195298Y-149764155D01*
X113262569Y-149667119D01*
X113360002Y-149602230D01*
X113472913Y-149580600D01*
X113625313Y-149580600D01*
X113625313Y-150180675D01*
G37*
G36*
X114237029Y-150814617D02*
G01*
X113906300Y-150814617D01*
X113476088Y-150814617D01*
X112650588Y-150814617D01*
X111925100Y-150814617D01*
X111213106Y-150814617D01*
X110218538Y-150814617D01*
X109597825Y-150814617D01*
X108230988Y-150814617D01*
X108089700Y-150814617D01*
X107758971Y-150814617D01*
X107612603Y-150326725D01*
X108089700Y-150326725D01*
X108092081Y-150381494D01*
X108107163Y-150423562D01*
X108149231Y-150455709D01*
X108230988Y-150466425D01*
X108310759Y-150456106D01*
X108353225Y-150425150D01*
X108368306Y-150381494D01*
X108370687Y-150323550D01*
X108370687Y-149756812D01*
X108391325Y-149775862D01*
X108502450Y-149825075D01*
X108598494Y-149769512D01*
X108612205Y-149742525D01*
X109097763Y-149742525D01*
X109127925Y-149853650D01*
X109215238Y-149913975D01*
X109270006Y-149901275D01*
X109339062Y-149888575D01*
X109419231Y-149918737D01*
X109456537Y-149991762D01*
X109456537Y-150325137D01*
X109458919Y-150379906D01*
X109474000Y-150421975D01*
X109516863Y-150452931D01*
X109597825Y-150463250D01*
X109707362Y-150436262D01*
X109735938Y-150368000D01*
X109735938Y-150321963D01*
X109735938Y-149944931D01*
X109839125Y-149944931D01*
X109851230Y-150029862D01*
X109887544Y-150089394D01*
X109994700Y-150136225D01*
X110370938Y-150136225D01*
X110318550Y-150210838D01*
X110213775Y-150241000D01*
X110131622Y-150236238D01*
X110069313Y-150221950D01*
X110051850Y-150215600D01*
X109988350Y-150198138D01*
X109901038Y-150269575D01*
X109880400Y-150342600D01*
X109901534Y-150404413D01*
X109964934Y-150448566D01*
X110070602Y-150475057D01*
X110218538Y-150483888D01*
X110329464Y-150473767D01*
X110427294Y-150443406D01*
X110508455Y-150396377D01*
X110569375Y-150336250D01*
X110624937Y-150247174D01*
X110658275Y-150151394D01*
X110669388Y-150048912D01*
X110655012Y-149924470D01*
X110611885Y-149817843D01*
X110557351Y-149750462D01*
X110732888Y-149750462D01*
X110764638Y-149837775D01*
X111093250Y-150401337D01*
X111144050Y-150449756D01*
X111213106Y-150471188D01*
X111278194Y-150454519D01*
X111321850Y-150420387D01*
X111336138Y-150402925D01*
X111381587Y-150325137D01*
X111785400Y-150325137D01*
X111787781Y-150379906D01*
X111802863Y-150421975D01*
X111843741Y-150452931D01*
X111925100Y-150463250D01*
X112005666Y-150452534D01*
X112047338Y-150420387D01*
X112060831Y-150379113D01*
X112063213Y-150323550D01*
X112063213Y-149766337D01*
X112062177Y-149742525D01*
X112150525Y-149742525D01*
X112180688Y-149853650D01*
X112268000Y-149913975D01*
X112322769Y-149901275D01*
X112391825Y-149888575D01*
X112471994Y-149918737D01*
X112509300Y-149991762D01*
X112509300Y-150325137D01*
X112511681Y-150379906D01*
X112526763Y-150421975D01*
X112569625Y-150452931D01*
X112650588Y-150463250D01*
X112760125Y-150436262D01*
X112788700Y-150368000D01*
X112788700Y-150321963D01*
X112788700Y-149873494D01*
X112891888Y-149873494D01*
X112902554Y-149990225D01*
X112934552Y-150098323D01*
X112987882Y-150197790D01*
X113062544Y-150288625D01*
X113152386Y-150364329D01*
X113251258Y-150418403D01*
X113359158Y-150450848D01*
X113476088Y-150461662D01*
X113766600Y-150461662D01*
X113845181Y-150451741D01*
X113887250Y-150421975D01*
X113906300Y-150320375D01*
X113906300Y-149437725D01*
X113903919Y-149382162D01*
X113888838Y-149340887D01*
X113846769Y-149308741D01*
X113765013Y-149298025D01*
X113471325Y-149299613D01*
X113359704Y-149309981D01*
X113255028Y-149341086D01*
X113157298Y-149392928D01*
X113066513Y-149465506D01*
X112990114Y-149553216D01*
X112935544Y-149650450D01*
X112902802Y-149757209D01*
X112891888Y-149873494D01*
X112788700Y-149873494D01*
X112788700Y-149764750D01*
X112786319Y-149709981D01*
X112772825Y-149669500D01*
X112730756Y-149637353D01*
X112649000Y-149626637D01*
X112571609Y-149635766D01*
X112529938Y-149663150D01*
X112512475Y-149715537D01*
X112489456Y-149688550D01*
X112425163Y-149645687D01*
X112338644Y-149618700D01*
X112275938Y-149622669D01*
X112220375Y-149636162D01*
X112170369Y-149668706D01*
X112150525Y-149742525D01*
X112062177Y-149742525D01*
X112060831Y-149711569D01*
X112047338Y-149669500D01*
X112005269Y-149638544D01*
X111924306Y-149628325D01*
X111923513Y-149628225D01*
X111815563Y-149655212D01*
X111786988Y-149723475D01*
X111785400Y-149769512D01*
X111785400Y-150325137D01*
X111381587Y-150325137D01*
X111666338Y-149837775D01*
X111698088Y-149752050D01*
X111677450Y-149696884D01*
X111615538Y-149645687D01*
X111520288Y-149610762D01*
X111465519Y-149632194D01*
X111423450Y-149696487D01*
X111215488Y-150096537D01*
X111007525Y-149696487D01*
X110981331Y-149652831D01*
X110953550Y-149625844D01*
X110902750Y-149612350D01*
X110815438Y-149645687D01*
X110753525Y-149696488D01*
X110732888Y-149750462D01*
X110557351Y-149750462D01*
X110540006Y-149729031D01*
X110446608Y-149662444D01*
X110338923Y-149622492D01*
X110216950Y-149609175D01*
X110113961Y-149618898D01*
X110025656Y-149648069D01*
X109952036Y-149696686D01*
X109893100Y-149764750D01*
X109852619Y-149851070D01*
X109839125Y-149944931D01*
X109735938Y-149944931D01*
X109735938Y-149764750D01*
X109733556Y-149709981D01*
X109720063Y-149669500D01*
X109677994Y-149637353D01*
X109596238Y-149626637D01*
X109518847Y-149635766D01*
X109477175Y-149663150D01*
X109459712Y-149715537D01*
X109436694Y-149688550D01*
X109372400Y-149645687D01*
X109285881Y-149618700D01*
X109223175Y-149622669D01*
X109167613Y-149636162D01*
X109117606Y-149668706D01*
X109097763Y-149742525D01*
X108612205Y-149742525D01*
X108648500Y-149671087D01*
X108591350Y-149577425D01*
X108367941Y-149375812D01*
X111785400Y-149375812D01*
X111787781Y-149430581D01*
X111802069Y-149471856D01*
X111844138Y-149504400D01*
X111924306Y-149513925D01*
X112004475Y-149504400D01*
X112046544Y-149471062D01*
X112060831Y-149428994D01*
X112063213Y-149374225D01*
X112060831Y-149319456D01*
X112047338Y-149278975D01*
X112005269Y-149246828D01*
X111923513Y-149236112D01*
X111843344Y-149246828D01*
X111802863Y-149278975D01*
X111787781Y-149321044D01*
X111785400Y-149375812D01*
X108367941Y-149375812D01*
X108331000Y-149342475D01*
X108326237Y-149339300D01*
X108236544Y-149298025D01*
X108161138Y-149305962D01*
X108119862Y-149324219D01*
X108097637Y-149358350D01*
X108089700Y-149442487D01*
X108089700Y-150326725D01*
X107612603Y-150326725D01*
X107186201Y-148905383D01*
X107758971Y-148905383D01*
X108089700Y-148905383D01*
X113906300Y-148905383D01*
X114237029Y-148905383D01*
X114809799Y-148905383D01*
X114237029Y-150814617D01*
G37*
%TO.C,kibuzzard-65B87CF7*%
G36*
X146416924Y-67637948D02*
G01*
X146208906Y-67637948D01*
X146313697Y-67423674D01*
X146416924Y-67637948D01*
G37*
G36*
X145375273Y-67520645D02*
G01*
X145175076Y-67520645D01*
X145084362Y-67486236D01*
X145039005Y-67383009D01*
X145084362Y-67279001D01*
X145178204Y-67243810D01*
X145375273Y-67243810D01*
X145375273Y-67520645D01*
G37*
G36*
X149591429Y-66548000D02*
G01*
X148314820Y-68462913D01*
X147984091Y-68462913D01*
X147481252Y-68462913D01*
X145912521Y-68462913D01*
X145654290Y-68462913D01*
X144928740Y-68462913D01*
X144156887Y-68462913D01*
X143607909Y-68462913D01*
X143277180Y-68462913D01*
X142354962Y-67079586D01*
X143607909Y-67079586D01*
X143615729Y-67144493D01*
X143642318Y-67178120D01*
X143722084Y-67192197D01*
X144020815Y-67192197D01*
X144020815Y-67978908D01*
X144023161Y-68032086D01*
X144037238Y-68071969D01*
X144078685Y-68104032D01*
X144156887Y-68113416D01*
X144234307Y-68104032D01*
X144274972Y-68071969D01*
X144289048Y-68031304D01*
X144290374Y-68000805D01*
X144751222Y-68000805D01*
X144775464Y-68055546D01*
X144848192Y-68100903D01*
X144928740Y-68122800D01*
X144978789Y-68107942D01*
X145007724Y-68077443D01*
X145028230Y-68032781D01*
X145068895Y-67938417D01*
X145129719Y-67794352D01*
X145178204Y-67797480D01*
X145375273Y-67797480D01*
X145375273Y-67974216D01*
X145377619Y-68028176D01*
X145392478Y-68069623D01*
X145433925Y-68101294D01*
X145514473Y-68111852D01*
X145601277Y-68097384D01*
X145642724Y-68053982D01*
X145648860Y-68000805D01*
X145738131Y-68000805D01*
X145760809Y-68054373D01*
X145828845Y-68102467D01*
X145912521Y-68129056D01*
X145962570Y-68114980D01*
X145990723Y-68085263D01*
X146014966Y-68038342D01*
X146096296Y-67869426D01*
X146529534Y-67869426D01*
X146610865Y-68038342D01*
X146635107Y-68083699D01*
X146663260Y-68112634D01*
X146713309Y-68127492D01*
X146796985Y-68100903D01*
X146865021Y-68053982D01*
X146887700Y-68000805D01*
X146861111Y-67921039D01*
X146695669Y-67578514D01*
X146973722Y-67578514D01*
X146981737Y-67679395D01*
X147005784Y-67775583D01*
X147045863Y-67867080D01*
X147101973Y-67953884D01*
X147173528Y-68026025D01*
X147263069Y-68082917D01*
X147366882Y-68119867D01*
X147481252Y-68132184D01*
X147595427Y-68119672D01*
X147698654Y-68082135D01*
X147787218Y-68024266D01*
X147857404Y-67950756D01*
X147912830Y-67865125D01*
X147952419Y-67774019D01*
X147976173Y-67677440D01*
X147984091Y-67575386D01*
X147984091Y-67104610D01*
X147981745Y-67049087D01*
X147966887Y-67007640D01*
X147924658Y-66974795D01*
X147844892Y-66965411D01*
X147765126Y-66974795D01*
X147724461Y-67007640D01*
X147705692Y-67106174D01*
X147705692Y-67575386D01*
X147693962Y-67668447D01*
X147658771Y-67756815D01*
X147588389Y-67827197D01*
X147477342Y-67853785D01*
X147377635Y-67832671D01*
X147306862Y-67769327D01*
X147264633Y-67678222D01*
X147250557Y-67573822D01*
X147250557Y-67095226D01*
X147234916Y-67009204D01*
X147189559Y-66974795D01*
X147115267Y-66965411D01*
X147044103Y-66973231D01*
X147040178Y-66975043D01*
X147003438Y-66992000D01*
X146983106Y-67024844D01*
X146973722Y-67106174D01*
X146973722Y-67578514D01*
X146695669Y-67578514D01*
X146438820Y-67046741D01*
X146386425Y-66988871D01*
X146312133Y-66966975D01*
X146238623Y-66987307D01*
X146187010Y-67048305D01*
X145764719Y-67921039D01*
X145738131Y-68000805D01*
X145648860Y-68000805D01*
X145652108Y-67972652D01*
X145652108Y-67104610D01*
X145649762Y-67050651D01*
X145634904Y-67009204D01*
X145593457Y-66977532D01*
X145512909Y-66966975D01*
X145175076Y-66966975D01*
X145084188Y-66978097D01*
X144995038Y-67011463D01*
X144907626Y-67067073D01*
X144880384Y-67094315D01*
X144850538Y-67124161D01*
X144804399Y-67198453D01*
X144773900Y-67286039D01*
X144763734Y-67383009D01*
X144776768Y-67493882D01*
X144815869Y-67590853D01*
X144881037Y-67673921D01*
X144853927Y-67738046D01*
X144818475Y-67819898D01*
X144774682Y-67919475D01*
X144751222Y-68000805D01*
X144290374Y-68000805D01*
X144291394Y-67977344D01*
X144291394Y-67192197D01*
X144591690Y-67192197D01*
X144665200Y-67180466D01*
X144696480Y-67143711D01*
X144704300Y-67078022D01*
X144696480Y-67013114D01*
X144669892Y-66979487D01*
X144590126Y-66965411D01*
X143720520Y-66965411D01*
X143647010Y-66977141D01*
X143615729Y-67013896D01*
X143607909Y-67079586D01*
X142354962Y-67079586D01*
X142000571Y-66548000D01*
X142641827Y-65586116D01*
X144365240Y-65586116D01*
X144373376Y-65688510D01*
X144397784Y-65786141D01*
X144438464Y-65879010D01*
X144495415Y-65967116D01*
X144568043Y-66040339D01*
X144658928Y-66098085D01*
X144764298Y-66135589D01*
X144880384Y-66148091D01*
X144996271Y-66135391D01*
X145101046Y-66097291D01*
X145190939Y-66038553D01*
X145237926Y-65989341D01*
X145517765Y-65989341D01*
X145532846Y-66076256D01*
X145578090Y-66117928D01*
X145654290Y-66127453D01*
X145727315Y-66119516D01*
X145768590Y-66100466D01*
X145790815Y-66068716D01*
X145798753Y-65986166D01*
X145798753Y-65454353D01*
X145847568Y-65518052D01*
X145914640Y-65610722D01*
X145976950Y-65697836D01*
X146011478Y-65744866D01*
X146040053Y-65782172D01*
X146078946Y-65810747D01*
X146145621Y-65829003D01*
X146210709Y-65812335D01*
X146252778Y-65779791D01*
X146265478Y-65762328D01*
X146312706Y-65700217D01*
X146390890Y-65593260D01*
X146463121Y-65493842D01*
X146492490Y-65454353D01*
X146492490Y-65989341D01*
X146494871Y-66044110D01*
X146509953Y-66084591D01*
X146552815Y-66116738D01*
X146633778Y-66127453D01*
X146712359Y-66116738D01*
X146754428Y-66084591D01*
X146769509Y-66043316D01*
X146771758Y-65989341D01*
X146898890Y-65989341D01*
X146901271Y-66044903D01*
X146916353Y-66086178D01*
X146958421Y-66118325D01*
X147040178Y-66129041D01*
X147128284Y-66113960D01*
X147170353Y-66068716D01*
X147179878Y-65987753D01*
X147179878Y-65105103D01*
X147177496Y-65050335D01*
X147162415Y-65008266D01*
X147120346Y-64976119D01*
X147038590Y-64965403D01*
X146950087Y-64980088D01*
X146906828Y-65024141D01*
X146898890Y-65106691D01*
X146898890Y-65989341D01*
X146771758Y-65989341D01*
X146771890Y-65986166D01*
X146771890Y-65105103D01*
X146769509Y-65050335D01*
X146754428Y-65008266D01*
X146711565Y-64977310D01*
X146630603Y-64966991D01*
X146556784Y-64977310D01*
X146516303Y-64998741D01*
X146506778Y-65008266D01*
X146146415Y-65481341D01*
X146045641Y-65348181D01*
X145959217Y-65234453D01*
X145887145Y-65140155D01*
X145829423Y-65065289D01*
X145786053Y-65009853D01*
X145740611Y-64977706D01*
X145658259Y-64966991D01*
X145577098Y-64977706D01*
X145535228Y-65009853D01*
X145520146Y-65052716D01*
X145517765Y-65108278D01*
X145517765Y-65989341D01*
X145237926Y-65989341D01*
X145262178Y-65963941D01*
X145318435Y-65877025D01*
X145358618Y-65784553D01*
X145382728Y-65686525D01*
X145390765Y-65582941D01*
X145390765Y-65105103D01*
X145388384Y-65048747D01*
X145373303Y-65006678D01*
X145330440Y-64973341D01*
X145249478Y-64963816D01*
X145168515Y-64973341D01*
X145127240Y-65006678D01*
X145108190Y-65106691D01*
X145108190Y-65582941D01*
X145096284Y-65677397D01*
X145060565Y-65767091D01*
X144989128Y-65838528D01*
X144876415Y-65865516D01*
X144775212Y-65844085D01*
X144703378Y-65779791D01*
X144660515Y-65687319D01*
X144646228Y-65581353D01*
X144646228Y-65095578D01*
X144630353Y-65008266D01*
X144584315Y-64973341D01*
X144508909Y-64963816D01*
X144436678Y-64971753D01*
X144395403Y-64990803D01*
X144374765Y-65024141D01*
X144365240Y-65106691D01*
X144365240Y-65586116D01*
X142641827Y-65586116D01*
X143277180Y-64633087D01*
X143607909Y-64633087D01*
X147984091Y-64633087D01*
X148314820Y-64633087D01*
X149591429Y-66548000D01*
G37*
%TO.C,kibuzzard-65B87357*%
G36*
X146811405Y-152734318D02*
G01*
X146862006Y-152794295D01*
X146892367Y-152894258D01*
X146902487Y-153034206D01*
X146892466Y-153174154D01*
X146862403Y-153274117D01*
X146812298Y-153334095D01*
X146742150Y-153354088D01*
X146670613Y-153334641D01*
X146619516Y-153276300D01*
X146588857Y-153179066D01*
X146578637Y-153042938D01*
X146578637Y-153033413D01*
X146588758Y-152893812D01*
X146619119Y-152794097D01*
X146669720Y-152734268D01*
X146740562Y-152714325D01*
X146811405Y-152734318D01*
G37*
G36*
X150564674Y-153035000D02*
G01*
X149943079Y-153967392D01*
X149612350Y-153967392D01*
X149472650Y-153967392D01*
X148467762Y-153967392D01*
X147654169Y-153967392D01*
X146738975Y-153967392D01*
X146297650Y-153967392D01*
X145966921Y-153967392D01*
X145345326Y-153035000D01*
X146297650Y-153035000D01*
X146305389Y-153171227D01*
X146328606Y-153292572D01*
X146367302Y-153399034D01*
X146421475Y-153490613D01*
X146476442Y-153548556D01*
X146549269Y-153595388D01*
X146637573Y-153626344D01*
X146738975Y-153636663D01*
X146840773Y-153626145D01*
X146930269Y-153594594D01*
X147004484Y-153547564D01*
X147060444Y-153490613D01*
X147103108Y-153422747D01*
X147137437Y-153342975D01*
X147163014Y-153247901D01*
X147178360Y-153144714D01*
X147183475Y-153033413D01*
X147179330Y-152932694D01*
X147166894Y-152842207D01*
X147146169Y-152761950D01*
X147106680Y-152661342D01*
X147091986Y-152635744D01*
X147262850Y-152635744D01*
X147296187Y-152723850D01*
X147354925Y-152788144D01*
X147407312Y-152809575D01*
X147488275Y-152774650D01*
X147566062Y-152734169D01*
X147666075Y-152720675D01*
X147768469Y-152738534D01*
X147869275Y-152792113D01*
X147948650Y-152890538D01*
X147972462Y-152958205D01*
X147980400Y-153034206D01*
X147972462Y-153110208D01*
X147948650Y-153177875D01*
X147867687Y-153277888D01*
X147768866Y-153330275D01*
X147666075Y-153347738D01*
X147573206Y-153335038D01*
X147510500Y-153309638D01*
X147481925Y-153289000D01*
X147405725Y-153257250D01*
X147354528Y-153279475D01*
X147299362Y-153346150D01*
X147264437Y-153435050D01*
X147285869Y-153490613D01*
X147335875Y-153530300D01*
X147390644Y-153563638D01*
X147497800Y-153604913D01*
X147577373Y-153623963D01*
X147654169Y-153630313D01*
X147729972Y-153625352D01*
X147806569Y-153610469D01*
X147884753Y-153583878D01*
X147965319Y-153543794D01*
X148042908Y-153491803D01*
X148059229Y-153477119D01*
X148324887Y-153477119D01*
X148335206Y-153557288D01*
X148369337Y-153598563D01*
X148467762Y-153617613D01*
X149088475Y-153617613D01*
X149186900Y-153574750D01*
X149228175Y-153474738D01*
X149331363Y-153474738D01*
X149333744Y-153530300D01*
X149348825Y-153571575D01*
X149390894Y-153603722D01*
X149472650Y-153614438D01*
X149560756Y-153599356D01*
X149602825Y-153554113D01*
X149612350Y-153473150D01*
X149612350Y-152590500D01*
X149609969Y-152535731D01*
X149594888Y-152493663D01*
X149552819Y-152461516D01*
X149471062Y-152450800D01*
X149382559Y-152465484D01*
X149339300Y-152509537D01*
X149331363Y-152592088D01*
X149331363Y-153474738D01*
X149228175Y-153474738D01*
X149213292Y-153392386D01*
X149168644Y-153316781D01*
X149102961Y-153249709D01*
X149024975Y-153192956D01*
X148940837Y-153141759D01*
X148856700Y-153091356D01*
X148778714Y-153037977D01*
X148713031Y-152977850D01*
X148668383Y-152912366D01*
X148653500Y-152842913D01*
X148664612Y-152802431D01*
X148689219Y-152759569D01*
X148731287Y-152728613D01*
X148810662Y-152714325D01*
X148898769Y-152751631D01*
X148940837Y-152825450D01*
X148947187Y-152861963D01*
X148947187Y-152871488D01*
X148949569Y-152923875D01*
X148964650Y-152963563D01*
X149007513Y-152992138D01*
X149088475Y-153001663D01*
X149176978Y-152986581D01*
X149220238Y-152941338D01*
X149228175Y-152860375D01*
X149215034Y-152754101D01*
X149175611Y-152655411D01*
X149109906Y-152564306D01*
X149022947Y-152491546D01*
X148919759Y-152447890D01*
X148800344Y-152433337D01*
X148680840Y-152448066D01*
X148577388Y-152492251D01*
X148489987Y-152565894D01*
X148423842Y-152658410D01*
X148384154Y-152759216D01*
X148370925Y-152868313D01*
X148380847Y-152956419D01*
X148410612Y-153039763D01*
X148454269Y-153112788D01*
X148505862Y-153169938D01*
X148616988Y-153257647D01*
X148715412Y-153311225D01*
X148755100Y-153327100D01*
X148755100Y-153335038D01*
X148464587Y-153335038D01*
X148371719Y-153350119D01*
X148334412Y-153396156D01*
X148324887Y-153477119D01*
X148059229Y-153477119D01*
X148112162Y-153429494D01*
X148171495Y-153352500D01*
X148219319Y-153256456D01*
X148250870Y-153146323D01*
X148261387Y-153027063D01*
X148251069Y-152908992D01*
X148220113Y-152802431D01*
X148173083Y-152710356D01*
X148114544Y-152635744D01*
X148045686Y-152575220D01*
X147967700Y-152525413D01*
X147863807Y-152477787D01*
X147759561Y-152449212D01*
X147654962Y-152439687D01*
X147579755Y-152445442D01*
X147503356Y-152462706D01*
X147386675Y-152509537D01*
X147348575Y-152531762D01*
X147304125Y-152560338D01*
X147262850Y-152635744D01*
X147091986Y-152635744D01*
X147062825Y-152584944D01*
X147007461Y-152525809D01*
X146933444Y-152476994D01*
X146843552Y-152444252D01*
X146740562Y-152433337D01*
X146637970Y-152444053D01*
X146549269Y-152476200D01*
X146476244Y-152524222D01*
X146420681Y-152582563D01*
X146378414Y-152651619D01*
X146345275Y-152731788D01*
X146318817Y-152828978D01*
X146302942Y-152930049D01*
X146297650Y-153035000D01*
X145345326Y-153035000D01*
X145966921Y-152102608D01*
X146297650Y-152102608D01*
X149612350Y-152102608D01*
X149943079Y-152102608D01*
X150564674Y-153035000D01*
G37*
%TO.C,kibuzzard-65B87D10*%
G36*
X114412924Y-89996298D02*
G01*
X114204906Y-89996298D01*
X114309697Y-89782024D01*
X114412924Y-89996298D01*
G37*
G36*
X113371273Y-89878995D02*
G01*
X113171076Y-89878995D01*
X113080362Y-89844586D01*
X113035005Y-89741359D01*
X113080362Y-89637351D01*
X113174204Y-89602160D01*
X113371273Y-89602160D01*
X113371273Y-89878995D01*
G37*
G36*
X115296528Y-88204816D02*
G01*
X115036178Y-88204816D01*
X114961168Y-88177828D01*
X114936165Y-88096866D01*
X114944896Y-88036541D01*
X114974265Y-88004791D01*
X115063165Y-87992091D01*
X115148890Y-87969866D01*
X115177465Y-87878585D01*
X115148096Y-87787303D01*
X115050465Y-87765078D01*
X114974265Y-87731741D01*
X114969503Y-87674591D01*
X114995696Y-87619028D01*
X115074278Y-87603153D01*
X115296528Y-87603153D01*
X115296528Y-88204816D01*
G37*
G36*
X114108284Y-87612480D02*
G01*
X114204328Y-87678560D01*
X114254599Y-87743206D01*
X114284761Y-87819671D01*
X114294815Y-87907953D01*
X114284673Y-87996236D01*
X114254246Y-88072700D01*
X114203534Y-88137347D01*
X114106895Y-88203427D01*
X113999540Y-88225453D01*
X113892384Y-88204022D01*
X113796340Y-88139728D01*
X113746069Y-88076052D01*
X113715907Y-87999323D01*
X113705853Y-87909541D01*
X113715995Y-87819582D01*
X113746422Y-87742324D01*
X113797134Y-87677766D01*
X113893773Y-87612281D01*
X114001128Y-87590453D01*
X114108284Y-87612480D01*
G37*
G36*
X117591663Y-88900000D02*
G01*
X116310820Y-90821263D01*
X115980091Y-90821263D01*
X115477252Y-90821263D01*
X113908521Y-90821263D01*
X112924740Y-90821263D01*
X112152887Y-90821263D01*
X111603909Y-90821263D01*
X111273180Y-90821263D01*
X110350961Y-89437936D01*
X111603909Y-89437936D01*
X111611729Y-89502843D01*
X111638318Y-89536470D01*
X111718084Y-89550547D01*
X112016815Y-89550547D01*
X112016815Y-90337258D01*
X112019161Y-90390436D01*
X112033238Y-90430319D01*
X112074685Y-90462382D01*
X112152887Y-90471766D01*
X112230307Y-90462382D01*
X112270972Y-90430319D01*
X112285048Y-90389654D01*
X112286374Y-90359155D01*
X112747222Y-90359155D01*
X112771464Y-90413896D01*
X112844192Y-90459253D01*
X112924740Y-90481150D01*
X112974789Y-90466292D01*
X113003724Y-90435793D01*
X113024230Y-90391131D01*
X113064895Y-90296767D01*
X113125719Y-90152702D01*
X113174204Y-90155830D01*
X113371273Y-90155830D01*
X113371273Y-90332566D01*
X113373619Y-90386526D01*
X113388478Y-90427973D01*
X113429925Y-90459644D01*
X113510473Y-90470202D01*
X113597277Y-90455734D01*
X113638724Y-90412332D01*
X113644860Y-90359155D01*
X113734131Y-90359155D01*
X113756809Y-90412723D01*
X113824845Y-90460817D01*
X113908521Y-90487406D01*
X113958570Y-90473330D01*
X113986723Y-90443613D01*
X114010966Y-90396692D01*
X114092296Y-90227776D01*
X114525534Y-90227776D01*
X114606865Y-90396692D01*
X114631107Y-90442049D01*
X114659260Y-90470984D01*
X114709309Y-90485842D01*
X114792985Y-90459253D01*
X114861021Y-90412332D01*
X114883700Y-90359155D01*
X114857111Y-90279389D01*
X114691669Y-89936864D01*
X114969722Y-89936864D01*
X114977737Y-90037745D01*
X115001784Y-90133933D01*
X115041863Y-90225430D01*
X115097973Y-90312234D01*
X115169528Y-90384375D01*
X115259069Y-90441267D01*
X115362882Y-90478217D01*
X115477252Y-90490534D01*
X115591427Y-90478022D01*
X115694654Y-90440485D01*
X115783218Y-90382616D01*
X115853404Y-90309106D01*
X115908830Y-90223475D01*
X115948419Y-90132369D01*
X115972173Y-90035790D01*
X115980091Y-89933736D01*
X115980091Y-89462960D01*
X115977745Y-89407437D01*
X115962887Y-89365990D01*
X115920658Y-89333145D01*
X115840892Y-89323761D01*
X115761126Y-89333145D01*
X115720461Y-89365990D01*
X115701692Y-89464524D01*
X115701692Y-89933736D01*
X115689962Y-90026797D01*
X115654771Y-90115165D01*
X115584389Y-90185547D01*
X115473342Y-90212135D01*
X115373635Y-90191021D01*
X115302862Y-90127677D01*
X115260633Y-90036572D01*
X115246557Y-89932172D01*
X115246557Y-89453576D01*
X115230916Y-89367554D01*
X115185559Y-89333145D01*
X115111267Y-89323761D01*
X115040103Y-89331581D01*
X115020303Y-89340720D01*
X114999438Y-89350350D01*
X114979106Y-89383194D01*
X114969722Y-89464524D01*
X114969722Y-89936864D01*
X114691669Y-89936864D01*
X114434820Y-89405091D01*
X114382425Y-89347221D01*
X114308133Y-89325325D01*
X114234623Y-89345657D01*
X114183010Y-89406655D01*
X113996365Y-89792387D01*
X113760719Y-90279389D01*
X113734131Y-90359155D01*
X113644860Y-90359155D01*
X113648108Y-90331002D01*
X113648108Y-89462960D01*
X113645762Y-89409001D01*
X113630904Y-89367554D01*
X113589457Y-89335882D01*
X113508909Y-89325325D01*
X113171076Y-89325325D01*
X113080188Y-89336447D01*
X112991038Y-89369813D01*
X112903626Y-89425423D01*
X112846538Y-89482511D01*
X112805740Y-89548202D01*
X112800399Y-89556803D01*
X112769900Y-89644389D01*
X112759734Y-89741359D01*
X112772768Y-89852232D01*
X112811869Y-89949203D01*
X112877037Y-90032271D01*
X112849927Y-90096396D01*
X112814475Y-90178248D01*
X112770682Y-90277825D01*
X112747222Y-90359155D01*
X112286374Y-90359155D01*
X112287394Y-90335694D01*
X112287394Y-89550547D01*
X112587690Y-89550547D01*
X112661200Y-89538816D01*
X112692480Y-89502061D01*
X112700300Y-89436372D01*
X112692480Y-89371464D01*
X112665892Y-89337837D01*
X112586126Y-89323761D01*
X111716520Y-89323761D01*
X111643010Y-89335491D01*
X111611729Y-89372246D01*
X111603909Y-89437936D01*
X110350961Y-89437936D01*
X109992337Y-88900000D01*
X110966969Y-87438053D01*
X112248528Y-87438053D01*
X112256465Y-87503935D01*
X112283453Y-87538066D01*
X112364415Y-87552353D01*
X112667628Y-87552353D01*
X112667628Y-88350866D01*
X112670009Y-88404841D01*
X112684296Y-88445322D01*
X112726365Y-88477866D01*
X112805740Y-88487391D01*
X112884321Y-88477866D01*
X112925596Y-88445322D01*
X112939884Y-88404047D01*
X112942265Y-88349278D01*
X112942265Y-87900810D01*
X113424865Y-87900810D01*
X113435184Y-88021956D01*
X113466140Y-88133775D01*
X113517734Y-88236268D01*
X113589965Y-88329435D01*
X113677278Y-88406875D01*
X113774115Y-88462189D01*
X113880478Y-88495378D01*
X113996365Y-88506441D01*
X114112501Y-88495527D01*
X114219607Y-88462785D01*
X114317685Y-88408214D01*
X114406734Y-88331816D01*
X114480702Y-88240336D01*
X114533536Y-88140522D01*
X114541679Y-88112741D01*
X114655178Y-88112741D01*
X114668671Y-88212841D01*
X114704919Y-88301477D01*
X114763921Y-88378647D01*
X114839328Y-88438178D01*
X114924788Y-88473897D01*
X115020303Y-88485803D01*
X115437815Y-88485803D01*
X115525921Y-88470722D01*
X115567990Y-88425478D01*
X115577515Y-88342928D01*
X115577515Y-87461866D01*
X115575134Y-87406303D01*
X115560053Y-87365028D01*
X115517984Y-87332881D01*
X115436228Y-87322166D01*
X115036178Y-87322166D01*
X114944103Y-87333455D01*
X114862611Y-87367321D01*
X114791703Y-87423766D01*
X114734376Y-87497144D01*
X114699980Y-87579694D01*
X114688515Y-87671416D01*
X114703596Y-87771825D01*
X114748840Y-87863503D01*
X114696805Y-87940585D01*
X114665585Y-88023664D01*
X114655178Y-88112741D01*
X114541679Y-88112741D01*
X114565236Y-88032374D01*
X114575803Y-87915891D01*
X114563896Y-87788295D01*
X114528178Y-87669035D01*
X114472615Y-87563267D01*
X114401178Y-87476153D01*
X114315850Y-87406700D01*
X114218615Y-87353916D01*
X114113840Y-87320578D01*
X114005890Y-87309466D01*
X113892285Y-87320082D01*
X113786418Y-87351931D01*
X113688291Y-87405013D01*
X113597903Y-87479328D01*
X113522199Y-87569369D01*
X113468125Y-87669630D01*
X113435680Y-87780110D01*
X113424865Y-87900810D01*
X112942265Y-87900810D01*
X112942265Y-87552353D01*
X113247065Y-87552353D01*
X113321678Y-87540447D01*
X113353428Y-87503141D01*
X113361365Y-87436466D01*
X113353428Y-87370585D01*
X113326440Y-87336453D01*
X113245478Y-87322166D01*
X112362828Y-87322166D01*
X112288215Y-87334072D01*
X112256465Y-87371378D01*
X112248528Y-87438053D01*
X110966969Y-87438053D01*
X111273180Y-86978737D01*
X111603909Y-86978737D01*
X115980091Y-86978737D01*
X116310820Y-86978737D01*
X117591663Y-88900000D01*
G37*
%TO.C,kibuzzard-65B8733B*%
G36*
X157376107Y-146050000D02*
G01*
X156756629Y-146979217D01*
X156425900Y-146979217D01*
X156286200Y-146979217D01*
X155281312Y-146979217D01*
X154467719Y-146979217D01*
X153595387Y-146979217D01*
X153454100Y-146979217D01*
X153123371Y-146979217D01*
X152801285Y-146496088D01*
X153454100Y-146496088D01*
X153456481Y-146550856D01*
X153471562Y-146592925D01*
X153513631Y-146625072D01*
X153595387Y-146635788D01*
X153675159Y-146625469D01*
X153717625Y-146594513D01*
X153732706Y-146550856D01*
X153735087Y-146492913D01*
X153735087Y-145926175D01*
X153755725Y-145945225D01*
X153866850Y-145994438D01*
X153962894Y-145938875D01*
X154012900Y-145840450D01*
X153955750Y-145746788D01*
X153852841Y-145653919D01*
X154076400Y-145653919D01*
X154109737Y-145742025D01*
X154168475Y-145806319D01*
X154220862Y-145827750D01*
X154301825Y-145792825D01*
X154379612Y-145752344D01*
X154479625Y-145738850D01*
X154582019Y-145756709D01*
X154682825Y-145810288D01*
X154762200Y-145908713D01*
X154786012Y-145976380D01*
X154793950Y-146052381D01*
X154786012Y-146128383D01*
X154762200Y-146196050D01*
X154681237Y-146296063D01*
X154582416Y-146348450D01*
X154479625Y-146365913D01*
X154386756Y-146353213D01*
X154324050Y-146327813D01*
X154295475Y-146307175D01*
X154219275Y-146275425D01*
X154168078Y-146297650D01*
X154112912Y-146364325D01*
X154077987Y-146453225D01*
X154099419Y-146508788D01*
X154149425Y-146548475D01*
X154204194Y-146581813D01*
X154311350Y-146623088D01*
X154390923Y-146642138D01*
X154467719Y-146648488D01*
X154543522Y-146643527D01*
X154620119Y-146628644D01*
X154698303Y-146602053D01*
X154778869Y-146561969D01*
X154856458Y-146509978D01*
X154872779Y-146495294D01*
X155138437Y-146495294D01*
X155148756Y-146575463D01*
X155182887Y-146616738D01*
X155281312Y-146635788D01*
X155902025Y-146635788D01*
X156000450Y-146592925D01*
X156041725Y-146492913D01*
X156144912Y-146492913D01*
X156147294Y-146548475D01*
X156162375Y-146589750D01*
X156204444Y-146621897D01*
X156286200Y-146632613D01*
X156374306Y-146617531D01*
X156416375Y-146572288D01*
X156425900Y-146491325D01*
X156425900Y-145608675D01*
X156423519Y-145553906D01*
X156408437Y-145511838D01*
X156366369Y-145479691D01*
X156284612Y-145468975D01*
X156196109Y-145483659D01*
X156152850Y-145527713D01*
X156144912Y-145610263D01*
X156144912Y-146492913D01*
X156041725Y-146492913D01*
X156026842Y-146410561D01*
X155982194Y-146334956D01*
X155916511Y-146267884D01*
X155838525Y-146211131D01*
X155754387Y-146159934D01*
X155670250Y-146109531D01*
X155592264Y-146056152D01*
X155526581Y-145996025D01*
X155481933Y-145930541D01*
X155467050Y-145861088D01*
X155478162Y-145820606D01*
X155502769Y-145777744D01*
X155544837Y-145746788D01*
X155624212Y-145732500D01*
X155712319Y-145769806D01*
X155754387Y-145843625D01*
X155760737Y-145880138D01*
X155760737Y-145889663D01*
X155763119Y-145942050D01*
X155778200Y-145981738D01*
X155821062Y-146010313D01*
X155902025Y-146019838D01*
X155990528Y-146004756D01*
X156033787Y-145959513D01*
X156041725Y-145878550D01*
X156028584Y-145772276D01*
X155989161Y-145673586D01*
X155923456Y-145582481D01*
X155836497Y-145509721D01*
X155733309Y-145466065D01*
X155613894Y-145451512D01*
X155494390Y-145466241D01*
X155390938Y-145510426D01*
X155303537Y-145584069D01*
X155237392Y-145676585D01*
X155197704Y-145777391D01*
X155184475Y-145886488D01*
X155194397Y-145974594D01*
X155224162Y-146057938D01*
X155267819Y-146130963D01*
X155319412Y-146188113D01*
X155430537Y-146275822D01*
X155528962Y-146329400D01*
X155568650Y-146345275D01*
X155568650Y-146353213D01*
X155278137Y-146353213D01*
X155185269Y-146368294D01*
X155147962Y-146414331D01*
X155138437Y-146495294D01*
X154872779Y-146495294D01*
X154925712Y-146447669D01*
X154985045Y-146370675D01*
X155032869Y-146274631D01*
X155064420Y-146164498D01*
X155074937Y-146045238D01*
X155064619Y-145927167D01*
X155033662Y-145820606D01*
X154986633Y-145728531D01*
X154928094Y-145653919D01*
X154859236Y-145593395D01*
X154781250Y-145543588D01*
X154677357Y-145495963D01*
X154573111Y-145467387D01*
X154468512Y-145457862D01*
X154393305Y-145463617D01*
X154316906Y-145480881D01*
X154200225Y-145527713D01*
X154162125Y-145549937D01*
X154117675Y-145578513D01*
X154076400Y-145653919D01*
X153852841Y-145653919D01*
X153695400Y-145511838D01*
X153690637Y-145508663D01*
X153600944Y-145467388D01*
X153525537Y-145475325D01*
X153484262Y-145493581D01*
X153462037Y-145527713D01*
X153454100Y-145611850D01*
X153454100Y-146496088D01*
X152801285Y-146496088D01*
X152503893Y-146050000D01*
X153123371Y-145120783D01*
X153454100Y-145120783D01*
X156425900Y-145120783D01*
X156756629Y-145120783D01*
X157376107Y-146050000D01*
G37*
%TO.C,kibuzzard-65B87731*%
G36*
X48366733Y-143670867D02*
G01*
X48036004Y-143670867D01*
X47618491Y-143670867D01*
X46613604Y-143670867D01*
X45816679Y-143670867D01*
X45227716Y-143670867D01*
X44896987Y-143670867D01*
X44483443Y-142292388D01*
X45227716Y-142292388D01*
X45251529Y-142368588D01*
X45689679Y-143257588D01*
X45742860Y-143313944D01*
X45816679Y-143335375D01*
X45832554Y-143335375D01*
X45907960Y-143313944D01*
X45961141Y-143257588D01*
X45989699Y-143199644D01*
X46470729Y-143199644D01*
X46481047Y-143279813D01*
X46515179Y-143321088D01*
X46613604Y-143340138D01*
X47234316Y-143340138D01*
X47332741Y-143297275D01*
X47372706Y-143200438D01*
X47477204Y-143200438D01*
X47479585Y-143255206D01*
X47494666Y-143297275D01*
X47536735Y-143329422D01*
X47618491Y-143340138D01*
X47698263Y-143329819D01*
X47740729Y-143298863D01*
X47755810Y-143255206D01*
X47758191Y-143197263D01*
X47758191Y-142630525D01*
X47778829Y-142649575D01*
X47889954Y-142698788D01*
X47985998Y-142643225D01*
X48036004Y-142544800D01*
X47978854Y-142451138D01*
X47718504Y-142216188D01*
X47713741Y-142213012D01*
X47624048Y-142171738D01*
X47548641Y-142179675D01*
X47507366Y-142197931D01*
X47485141Y-142232063D01*
X47477204Y-142316200D01*
X47477204Y-143200438D01*
X47372706Y-143200438D01*
X47374016Y-143197263D01*
X47359133Y-143114911D01*
X47314485Y-143039306D01*
X47248802Y-142972234D01*
X47170816Y-142915481D01*
X47086679Y-142864284D01*
X47002541Y-142813881D01*
X46924555Y-142760502D01*
X46858873Y-142700375D01*
X46814224Y-142634891D01*
X46799341Y-142565438D01*
X46810454Y-142524956D01*
X46835060Y-142482094D01*
X46877129Y-142451138D01*
X46956504Y-142436850D01*
X47044610Y-142474156D01*
X47086679Y-142547975D01*
X47093029Y-142584488D01*
X47093029Y-142594013D01*
X47095410Y-142646400D01*
X47110491Y-142686088D01*
X47153354Y-142714663D01*
X47234316Y-142724188D01*
X47322819Y-142709106D01*
X47366079Y-142663863D01*
X47374016Y-142582900D01*
X47360875Y-142476626D01*
X47321452Y-142377936D01*
X47255748Y-142286831D01*
X47168788Y-142214071D01*
X47065600Y-142170415D01*
X46946185Y-142155862D01*
X46826682Y-142170591D01*
X46723229Y-142214776D01*
X46635829Y-142288419D01*
X46569683Y-142380935D01*
X46529995Y-142481741D01*
X46516766Y-142590838D01*
X46526688Y-142678944D01*
X46556454Y-142762288D01*
X46600110Y-142835313D01*
X46651704Y-142892463D01*
X46762829Y-142980172D01*
X46861254Y-143033750D01*
X46900941Y-143049625D01*
X46900941Y-143057563D01*
X46610429Y-143057563D01*
X46517560Y-143072644D01*
X46480254Y-143118681D01*
X46470729Y-143199644D01*
X45989699Y-143199644D01*
X46399291Y-142368588D01*
X46423104Y-142292388D01*
X46399688Y-142239206D01*
X46329441Y-142190788D01*
X46249273Y-142163800D01*
X46207204Y-142170150D01*
X46180216Y-142192375D01*
X46154023Y-142234444D01*
X46132790Y-142278894D01*
X46092904Y-142366206D01*
X46041905Y-142478323D01*
X45987335Y-142597188D01*
X45932566Y-142716052D01*
X45880973Y-142828169D01*
X45841880Y-142912902D01*
X45824616Y-142949613D01*
X45507116Y-142254287D01*
X45484891Y-142206663D01*
X45415041Y-142163800D01*
X45321379Y-142190788D01*
X45251132Y-142239206D01*
X45227716Y-142292388D01*
X44483443Y-142292388D01*
X44343267Y-141825133D01*
X44896987Y-141825133D01*
X45227716Y-141825133D01*
X48036004Y-141825133D01*
X48366733Y-141825133D01*
X48366733Y-143670867D01*
G37*
%TO.C,kibuzzard-65B87C77*%
G36*
X64848846Y-85489891D02*
G01*
X64848846Y-86667816D01*
X64848846Y-87329275D01*
X61135154Y-87329275D01*
X61135154Y-86667816D01*
X61135154Y-86293166D01*
X61796612Y-86293166D01*
X61850588Y-86480491D01*
X61947425Y-86620985D01*
X62053788Y-86667816D01*
X62206188Y-86620191D01*
X63984188Y-85743891D01*
X64096900Y-85637529D01*
X64139763Y-85489891D01*
X64139763Y-85458141D01*
X64096900Y-85307329D01*
X63984188Y-85200966D01*
X62206188Y-84324666D01*
X62053788Y-84277041D01*
X61947425Y-84323872D01*
X61850588Y-84464366D01*
X61796612Y-84624704D01*
X61809312Y-84708841D01*
X61853762Y-84762816D01*
X61937900Y-84815204D01*
X62026800Y-84857669D01*
X62201425Y-84937441D01*
X62425659Y-85039438D01*
X62663387Y-85148579D01*
X62901116Y-85258116D01*
X63125350Y-85361304D01*
X63294816Y-85439488D01*
X63368237Y-85474016D01*
X61977587Y-86109016D01*
X61882337Y-86153466D01*
X61796612Y-86293166D01*
X61135154Y-86293166D01*
X61135154Y-83041966D01*
X61809312Y-83041966D01*
X61812488Y-83524566D01*
X61812488Y-83823016D01*
X61817250Y-83934141D01*
X61847413Y-84016691D01*
X61933137Y-84080985D01*
X62101412Y-84102416D01*
X62254606Y-84082572D01*
X62333188Y-84023041D01*
X62363350Y-83945254D01*
X62368113Y-83842066D01*
X62368113Y-83286441D01*
X62609413Y-83254691D01*
X62603063Y-83365816D01*
X62628286Y-83560197D01*
X62703957Y-83741172D01*
X62830075Y-83908741D01*
X62992706Y-84042797D01*
X63177914Y-84123230D01*
X63385700Y-84150041D01*
X63594544Y-84124641D01*
X63782928Y-84048441D01*
X63950850Y-83921441D01*
X64082260Y-83756694D01*
X64161106Y-83567252D01*
X64187388Y-83353116D01*
X64170807Y-83162616D01*
X64121065Y-82984816D01*
X64038162Y-82819716D01*
X63977838Y-82740341D01*
X63955613Y-82714941D01*
X63765113Y-82594291D01*
X63558738Y-82711766D01*
X63453963Y-82895916D01*
X63555563Y-83108641D01*
X63622238Y-83307079D01*
X63561913Y-83516629D01*
X63395225Y-83584891D01*
X63226950Y-83510279D01*
X63165038Y-83340416D01*
X63222188Y-83188016D01*
X63295213Y-83014979D01*
X63234888Y-82814954D01*
X63138050Y-82667316D01*
X63060263Y-82632391D01*
X62911831Y-82648266D01*
X62549088Y-82695891D01*
X62191900Y-82744310D01*
X62060138Y-82762566D01*
X61993462Y-82784791D01*
X61907737Y-82830829D01*
X61839475Y-82913379D01*
X61809312Y-83041966D01*
X61135154Y-83041966D01*
X61135154Y-82594291D01*
X61135154Y-81932833D01*
X61135154Y-80818725D01*
X64848846Y-81932833D01*
X64848846Y-82594291D01*
X64848846Y-83353116D01*
X64848846Y-85489891D01*
G37*
%TO.C,G\u002A\u002A\u002A*%
G36*
X38014484Y-140057464D02*
G01*
X38014484Y-141038159D01*
X37886993Y-141038159D01*
X37759503Y-141038159D01*
X37759503Y-140057464D01*
X37759503Y-139076769D01*
X37886993Y-139076769D01*
X38014484Y-139076769D01*
X38014484Y-140057464D01*
G37*
G36*
X37190700Y-142224800D02*
G01*
X37190700Y-142764182D01*
X37877186Y-142764182D01*
X38563673Y-142764182D01*
X38563673Y-142224800D01*
X38563673Y-141685417D01*
X38740198Y-141685417D01*
X38916723Y-141685417D01*
X38916723Y-143009356D01*
X38916723Y-144333294D01*
X38740198Y-144333294D01*
X38563673Y-144333294D01*
X38563673Y-143705649D01*
X38563673Y-143078004D01*
X37877186Y-143078004D01*
X37190700Y-143078004D01*
X37190700Y-143705649D01*
X37190700Y-144333294D01*
X37014175Y-144333294D01*
X36837650Y-144333294D01*
X36837650Y-143009356D01*
X36837650Y-141685417D01*
X37014175Y-141685417D01*
X37190700Y-141685417D01*
X37190700Y-142224800D01*
G37*
G36*
X35590698Y-128840255D02*
G01*
X35635147Y-128849648D01*
X35696483Y-128866656D01*
X35810858Y-128901286D01*
X35124043Y-130988101D01*
X35096964Y-131070356D01*
X35007111Y-131342979D01*
X34920837Y-131604266D01*
X34838930Y-131851859D01*
X34762175Y-132083399D01*
X34691360Y-132296530D01*
X34627270Y-132488894D01*
X34570692Y-132658131D01*
X34522412Y-132801886D01*
X34483217Y-132917800D01*
X34453893Y-133003514D01*
X34435227Y-133056672D01*
X34428005Y-133074915D01*
X34417825Y-133073867D01*
X34376139Y-133063170D01*
X34321945Y-133044765D01*
X34267751Y-133023442D01*
X34226062Y-133003989D01*
X34209387Y-132991197D01*
X34212413Y-132980258D01*
X34226530Y-132935039D01*
X34251314Y-132857579D01*
X34285812Y-132750773D01*
X34329071Y-132617519D01*
X34380140Y-132460713D01*
X34438065Y-132283253D01*
X34501894Y-132088036D01*
X34570674Y-131877958D01*
X34643453Y-131655916D01*
X34719277Y-131424808D01*
X34797195Y-131187529D01*
X34876254Y-130946978D01*
X34955502Y-130706051D01*
X35033984Y-130467645D01*
X35110750Y-130234656D01*
X35184846Y-130009982D01*
X35255321Y-129796520D01*
X35321220Y-129597167D01*
X35381592Y-129414819D01*
X35435484Y-129252373D01*
X35481944Y-129112727D01*
X35520018Y-128998777D01*
X35548755Y-128913420D01*
X35567201Y-128859553D01*
X35574405Y-128840073D01*
X35590698Y-128840255D01*
G37*
G36*
X40182234Y-128843326D02*
G01*
X40192292Y-128872314D01*
X40213596Y-128935544D01*
X40245361Y-129030646D01*
X40286804Y-129155250D01*
X40337140Y-129306985D01*
X40395585Y-129483482D01*
X40461354Y-129682371D01*
X40533663Y-129901281D01*
X40611727Y-130137844D01*
X40694763Y-130389688D01*
X40781985Y-130654444D01*
X40872610Y-130929741D01*
X41557593Y-133011363D01*
X41467930Y-133041264D01*
X41440017Y-133050198D01*
X41383842Y-133065954D01*
X41347670Y-133073040D01*
X41345059Y-133071777D01*
X41335269Y-133056838D01*
X41320051Y-133023796D01*
X41298854Y-132971049D01*
X41271125Y-132896994D01*
X41236314Y-132800029D01*
X41193869Y-132678552D01*
X41143238Y-132530959D01*
X41083869Y-132355649D01*
X41015212Y-132151019D01*
X40936715Y-131915466D01*
X40847826Y-131647388D01*
X40747994Y-131345183D01*
X40636666Y-131007249D01*
X40615651Y-130943379D01*
X40526085Y-130670973D01*
X40440209Y-130409487D01*
X40358804Y-130161316D01*
X40282652Y-129928854D01*
X40212533Y-129714494D01*
X40149229Y-129520631D01*
X40093521Y-129349658D01*
X40046190Y-129203970D01*
X40008017Y-129085962D01*
X39979784Y-128998026D01*
X39962271Y-128942558D01*
X39956260Y-128921950D01*
X39967695Y-128911665D01*
X40005984Y-128893172D01*
X40059149Y-128872423D01*
X40114554Y-128853922D01*
X40159564Y-128842170D01*
X40181543Y-128841671D01*
X40182234Y-128843326D01*
G37*
G36*
X39616621Y-137273683D02*
G01*
X39690839Y-137472244D01*
X39760014Y-137657286D01*
X39822905Y-137825492D01*
X39878271Y-137973542D01*
X39924871Y-138098120D01*
X39961465Y-138195906D01*
X39986810Y-138263581D01*
X39999668Y-138297829D01*
X40035097Y-138391707D01*
X39845904Y-138386091D01*
X39656711Y-138380475D01*
X39518868Y-137973487D01*
X39381024Y-137566498D01*
X38829390Y-137566498D01*
X38277755Y-137566498D01*
X38128368Y-137973487D01*
X37978980Y-138380475D01*
X37790786Y-138386089D01*
X37740888Y-138387369D01*
X37669703Y-138388330D01*
X37620781Y-138387834D01*
X37602592Y-138385892D01*
X37607926Y-138371731D01*
X37626717Y-138323853D01*
X37657946Y-138244943D01*
X37700464Y-138137887D01*
X37753122Y-138005572D01*
X37814769Y-137850885D01*
X37884256Y-137676713D01*
X37960433Y-137485941D01*
X38042151Y-137281457D01*
X38045817Y-137272290D01*
X38387560Y-137272290D01*
X38828667Y-137272290D01*
X38894790Y-137272161D01*
X39015018Y-137271212D01*
X39118168Y-137269462D01*
X39198702Y-137267056D01*
X39251082Y-137264136D01*
X39269773Y-137260846D01*
X39268852Y-137257058D01*
X39257813Y-137223828D01*
X39235849Y-137161376D01*
X39204935Y-137075220D01*
X39167046Y-136970875D01*
X39124153Y-136853858D01*
X39121701Y-136847191D01*
X39072825Y-136712277D01*
X39023989Y-136574011D01*
X38978644Y-136442407D01*
X38940245Y-136327478D01*
X38912242Y-136239237D01*
X38845951Y-136020162D01*
X38672327Y-136494218D01*
X38637799Y-136588499D01*
X38587632Y-136725498D01*
X38540456Y-136854347D01*
X38498898Y-136967875D01*
X38465581Y-137058910D01*
X38443132Y-137120282D01*
X38387560Y-137272290D01*
X38045817Y-137272290D01*
X38128259Y-137066147D01*
X38653926Y-135752213D01*
X38849069Y-135747067D01*
X39044213Y-135741921D01*
X39504226Y-136972936D01*
X39538601Y-137064922D01*
X39611823Y-137260846D01*
X39616621Y-137273683D01*
G37*
G36*
X41888532Y-130579425D02*
G01*
X42830302Y-133496614D01*
X41329536Y-134589372D01*
X41264780Y-134636515D01*
X41051786Y-134791468D01*
X40848445Y-134939233D01*
X40656960Y-135078217D01*
X40479537Y-135206828D01*
X40318378Y-135323472D01*
X40175689Y-135426557D01*
X40053673Y-135514491D01*
X39954534Y-135585679D01*
X39880477Y-135638530D01*
X39833705Y-135671450D01*
X39816422Y-135682847D01*
X39802895Y-135673422D01*
X39770907Y-135640669D01*
X39729409Y-135592445D01*
X39654744Y-135501327D01*
X39706568Y-135460052D01*
X39723665Y-135447175D01*
X39771426Y-135411932D01*
X39846570Y-135356808D01*
X39946713Y-135283543D01*
X40069470Y-135193879D01*
X40212454Y-135089554D01*
X40373282Y-134972310D01*
X40549568Y-134843885D01*
X40738927Y-134706021D01*
X40938973Y-134560457D01*
X41147323Y-134408933D01*
X42536255Y-133399089D01*
X41653246Y-130658119D01*
X40770237Y-127917149D01*
X37887202Y-127921708D01*
X35004168Y-127926267D01*
X34117048Y-130642792D01*
X34115754Y-130646753D01*
X34012795Y-130962183D01*
X33913224Y-131267518D01*
X33817719Y-131560667D01*
X33726958Y-131839539D01*
X33641618Y-132102042D01*
X33562376Y-132346084D01*
X33489911Y-132569575D01*
X33424900Y-132770423D01*
X33368020Y-132946535D01*
X33319949Y-133095822D01*
X33281366Y-133216191D01*
X33252946Y-133305551D01*
X33235368Y-133361811D01*
X33229310Y-133382878D01*
X33229359Y-133383123D01*
X33246575Y-133399154D01*
X33293206Y-133436422D01*
X33367019Y-133493266D01*
X33465779Y-133568023D01*
X33587252Y-133659030D01*
X33729204Y-133764626D01*
X33889402Y-133883149D01*
X34065611Y-134012936D01*
X34255597Y-134152326D01*
X34457126Y-134299655D01*
X34667965Y-134453263D01*
X36107238Y-135500087D01*
X36024703Y-135595225D01*
X35942168Y-135690364D01*
X34438326Y-134596619D01*
X34371825Y-134548231D01*
X34158814Y-134392926D01*
X33955728Y-134244393D01*
X33764751Y-134104255D01*
X33588068Y-133974135D01*
X33427866Y-133855656D01*
X33286328Y-133750441D01*
X33165641Y-133660113D01*
X33067990Y-133586295D01*
X32995559Y-133530610D01*
X32950534Y-133494681D01*
X32935100Y-133480130D01*
X32936375Y-133475112D01*
X32947676Y-133437875D01*
X32970124Y-133366271D01*
X33003067Y-133262329D01*
X33045854Y-133128074D01*
X33097835Y-132965534D01*
X33158357Y-132776736D01*
X33226770Y-132563708D01*
X33302422Y-132328477D01*
X33384662Y-132073069D01*
X33472838Y-131799512D01*
X33566300Y-131509833D01*
X33664396Y-131206059D01*
X33766474Y-130890218D01*
X33871884Y-130564336D01*
X34808053Y-127671286D01*
X37877407Y-127666761D01*
X40946762Y-127662236D01*
X41888532Y-130579425D01*
G37*
G36*
X36876257Y-136444314D02*
G01*
X37028020Y-136476812D01*
X37103131Y-136505401D01*
X37221605Y-136577604D01*
X37314626Y-136671189D01*
X37380161Y-136780757D01*
X37416178Y-136900906D01*
X37420646Y-137026235D01*
X37391530Y-137151343D01*
X37326800Y-137270830D01*
X37299205Y-137303786D01*
X37234008Y-137358456D01*
X37144429Y-137410392D01*
X37026811Y-137461304D01*
X36877496Y-137512898D01*
X36692826Y-137566883D01*
X36646285Y-137579841D01*
X36540630Y-137610785D01*
X36446458Y-137640364D01*
X36372597Y-137665743D01*
X36327873Y-137684087D01*
X36321267Y-137687579D01*
X36254951Y-137742446D01*
X36219787Y-137812391D01*
X36214982Y-137890370D01*
X36239746Y-137969337D01*
X36293288Y-138042246D01*
X36374816Y-138102053D01*
X36406175Y-138115844D01*
X36498980Y-138138478D01*
X36609328Y-138148342D01*
X36723591Y-138145453D01*
X36828141Y-138129824D01*
X36909348Y-138101470D01*
X36911146Y-138100506D01*
X36996349Y-138041199D01*
X37059098Y-137963355D01*
X37107583Y-137856864D01*
X37126070Y-137807496D01*
X37144730Y-137776410D01*
X37169458Y-137766902D01*
X37210314Y-137770515D01*
X37229440Y-137773176D01*
X37300062Y-137782746D01*
X37373887Y-137792485D01*
X37411216Y-137797757D01*
X37448637Y-137807533D01*
X37460877Y-137823868D01*
X37456672Y-137853164D01*
X37454015Y-137863563D01*
X37395144Y-138031282D01*
X37313266Y-138167692D01*
X37207033Y-138274166D01*
X37075096Y-138352074D01*
X36916105Y-138402788D01*
X36797885Y-138421671D01*
X36626182Y-138427225D01*
X36458346Y-138408980D01*
X36302198Y-138368532D01*
X36165558Y-138307475D01*
X36056246Y-138227406D01*
X35984379Y-138141766D01*
X35922522Y-138024148D01*
X35887097Y-137897002D01*
X35880640Y-137770002D01*
X35905686Y-137652825D01*
X35913744Y-137632465D01*
X35944835Y-137567918D01*
X35983425Y-137512742D01*
X36033906Y-137464356D01*
X36100672Y-137420176D01*
X36188115Y-137377621D01*
X36300629Y-137334109D01*
X36442607Y-137287057D01*
X36618442Y-137233883D01*
X36624657Y-137232055D01*
X36760595Y-137191373D01*
X36863930Y-137158348D01*
X36939760Y-137130633D01*
X36993183Y-137105881D01*
X37029298Y-137081743D01*
X37053202Y-137055871D01*
X37069993Y-137025918D01*
X37091518Y-136949385D01*
X37078418Y-136879474D01*
X37027965Y-136811424D01*
X37000846Y-136787724D01*
X36906189Y-136736331D01*
X36790647Y-136707744D01*
X36663401Y-136703561D01*
X36533634Y-136725380D01*
X36528440Y-136726901D01*
X36455529Y-136763434D01*
X36385145Y-136821905D01*
X36328846Y-136890853D01*
X36298190Y-136958820D01*
X36296782Y-136965128D01*
X36284269Y-137001701D01*
X36260964Y-137013874D01*
X36213041Y-137009950D01*
X36194135Y-137007297D01*
X36121691Y-136997420D01*
X36046937Y-136987538D01*
X35999385Y-136980756D01*
X35967954Y-136970474D01*
X35959750Y-136950787D01*
X35966042Y-136913729D01*
X35983749Y-136848556D01*
X36045879Y-136714920D01*
X36135860Y-136606224D01*
X36251081Y-136526019D01*
X36254903Y-136524088D01*
X36388700Y-136474180D01*
X36544754Y-136443748D01*
X36711221Y-136433543D01*
X36876257Y-136444314D01*
G37*
%TO.C,J4*%
X110390000Y-91150000D02*
X111640000Y-91150000D01*
X116650000Y-91440000D02*
X116650000Y-99060000D01*
X110680000Y-91440000D02*
X116650000Y-91440000D01*
X112940000Y-91450000D02*
X112940000Y-92200000D01*
X111440000Y-91450000D02*
X111440000Y-93250000D01*
X110690000Y-91450000D02*
X111440000Y-91450000D01*
X115890000Y-92200000D02*
X115890000Y-95250000D01*
X112940000Y-92200000D02*
X115890000Y-92200000D01*
X110390000Y-92400000D02*
X110390000Y-91150000D01*
X111440000Y-93250000D02*
X110690000Y-93250000D01*
X110690000Y-93250000D02*
X110690000Y-91450000D01*
X111440000Y-94750000D02*
X111440000Y-95750000D01*
X110690000Y-94750000D02*
X111440000Y-94750000D01*
X111440000Y-95750000D02*
X110690000Y-95750000D01*
X110690000Y-95750000D02*
X110690000Y-94750000D01*
X111440000Y-97250000D02*
X111440000Y-99050000D01*
X110690000Y-97250000D02*
X111440000Y-97250000D01*
X115890000Y-98300000D02*
X115890000Y-95250000D01*
X112940000Y-98300000D02*
X115890000Y-98300000D01*
X112940000Y-99050000D02*
X112940000Y-98300000D01*
X111440000Y-99050000D02*
X110690000Y-99050000D01*
X110690000Y-99050000D02*
X110690000Y-97250000D01*
X116650000Y-99060000D02*
X110680000Y-99060000D01*
X110680000Y-99060000D02*
X110680000Y-91440000D01*
%TO.C,kibuzzard-65B87292*%
G36*
X109995494Y-162602069D02*
G01*
X110046294Y-162691762D01*
X109846269Y-162691762D01*
X109785944Y-162640962D01*
X109813725Y-162582225D01*
X109893100Y-162560000D01*
X109995494Y-162602069D01*
G37*
G36*
X113297494Y-162880675D02*
G01*
X113143506Y-162880675D01*
X113034763Y-162859442D01*
X112937131Y-162795744D01*
X112868075Y-162699898D01*
X112845056Y-162582225D01*
X112867480Y-162464155D01*
X112934750Y-162367119D01*
X113032183Y-162302230D01*
X113145094Y-162280600D01*
X113297494Y-162280600D01*
X113297494Y-162880675D01*
G37*
G36*
X113909210Y-163514617D02*
G01*
X113578481Y-163514617D01*
X113148269Y-163514617D01*
X112322769Y-163514617D01*
X111597281Y-163514617D01*
X110885287Y-163514617D01*
X109890719Y-163514617D01*
X109270006Y-163514617D01*
X107544394Y-163514617D01*
X107401519Y-163514617D01*
X107070790Y-163514617D01*
X106924184Y-163025931D01*
X107401519Y-163025931D01*
X107411837Y-163106100D01*
X107445969Y-163147375D01*
X107544394Y-163166425D01*
X108165106Y-163166425D01*
X108263531Y-163123562D01*
X108304806Y-163023550D01*
X108289923Y-162941198D01*
X108245275Y-162865594D01*
X108179592Y-162798522D01*
X108101606Y-162741769D01*
X108017469Y-162690572D01*
X107933331Y-162640169D01*
X107855345Y-162586789D01*
X107789662Y-162526662D01*
X107745014Y-162461178D01*
X107730131Y-162391725D01*
X107741244Y-162351244D01*
X107765850Y-162308381D01*
X107807919Y-162277425D01*
X107887294Y-162263137D01*
X107975400Y-162300444D01*
X108017469Y-162374262D01*
X108023819Y-162410775D01*
X108023819Y-162420300D01*
X108026200Y-162472687D01*
X108041281Y-162512375D01*
X108084144Y-162540950D01*
X108165106Y-162550475D01*
X108253609Y-162535394D01*
X108296869Y-162490150D01*
X108301538Y-162442525D01*
X108769944Y-162442525D01*
X108800106Y-162553650D01*
X108887419Y-162613975D01*
X108942187Y-162601275D01*
X109011244Y-162588575D01*
X109091412Y-162618737D01*
X109128719Y-162691762D01*
X109128719Y-163025137D01*
X109131100Y-163079906D01*
X109146181Y-163121975D01*
X109189044Y-163152931D01*
X109270006Y-163163250D01*
X109379544Y-163136262D01*
X109408119Y-163068000D01*
X109408119Y-163021963D01*
X109408119Y-162644931D01*
X109511306Y-162644931D01*
X109523411Y-162729862D01*
X109559725Y-162789394D01*
X109666881Y-162836225D01*
X110043119Y-162836225D01*
X109990731Y-162910838D01*
X109885956Y-162941000D01*
X109803803Y-162936238D01*
X109741494Y-162921950D01*
X109724031Y-162915600D01*
X109660531Y-162898138D01*
X109573219Y-162969575D01*
X109552581Y-163042600D01*
X109573715Y-163104413D01*
X109637116Y-163148566D01*
X109742784Y-163175057D01*
X109890719Y-163183888D01*
X110001645Y-163173767D01*
X110099475Y-163143406D01*
X110180636Y-163096377D01*
X110241556Y-163036250D01*
X110297119Y-162947174D01*
X110330456Y-162851394D01*
X110341569Y-162748912D01*
X110327193Y-162624470D01*
X110284066Y-162517843D01*
X110229532Y-162450462D01*
X110405069Y-162450462D01*
X110436819Y-162537775D01*
X110765431Y-163101337D01*
X110816231Y-163149756D01*
X110885287Y-163171188D01*
X110950375Y-163154519D01*
X110994031Y-163120387D01*
X111008319Y-163102925D01*
X111053768Y-163025137D01*
X111457581Y-163025137D01*
X111459963Y-163079906D01*
X111475044Y-163121975D01*
X111515922Y-163152931D01*
X111597281Y-163163250D01*
X111677847Y-163152534D01*
X111719519Y-163120387D01*
X111733013Y-163079113D01*
X111735394Y-163023550D01*
X111735394Y-162466337D01*
X111734359Y-162442525D01*
X111822706Y-162442525D01*
X111852869Y-162553650D01*
X111940181Y-162613975D01*
X111994950Y-162601275D01*
X112064006Y-162588575D01*
X112144175Y-162618737D01*
X112181481Y-162691762D01*
X112181481Y-163025137D01*
X112183863Y-163079906D01*
X112198944Y-163121975D01*
X112241806Y-163152931D01*
X112322769Y-163163250D01*
X112432306Y-163136262D01*
X112460881Y-163068000D01*
X112460881Y-163021963D01*
X112460881Y-162573494D01*
X112564069Y-162573494D01*
X112574735Y-162690225D01*
X112606733Y-162798323D01*
X112660063Y-162897790D01*
X112734725Y-162988625D01*
X112824568Y-163064329D01*
X112923439Y-163118403D01*
X113031339Y-163150848D01*
X113148269Y-163161662D01*
X113438781Y-163161662D01*
X113517363Y-163151741D01*
X113559431Y-163121975D01*
X113578481Y-163020375D01*
X113578481Y-162137725D01*
X113576100Y-162082162D01*
X113561019Y-162040887D01*
X113518950Y-162008741D01*
X113437194Y-161998025D01*
X113143506Y-161999613D01*
X113031885Y-162009981D01*
X112927209Y-162041086D01*
X112829479Y-162092928D01*
X112738694Y-162165506D01*
X112662295Y-162253216D01*
X112607725Y-162350450D01*
X112574983Y-162457209D01*
X112564069Y-162573494D01*
X112460881Y-162573494D01*
X112460881Y-162464750D01*
X112458500Y-162409981D01*
X112445006Y-162369500D01*
X112402938Y-162337353D01*
X112321181Y-162326637D01*
X112243791Y-162335766D01*
X112202119Y-162363150D01*
X112184656Y-162415537D01*
X112161638Y-162388550D01*
X112097344Y-162345687D01*
X112010825Y-162318700D01*
X111948119Y-162322669D01*
X111892556Y-162336162D01*
X111842550Y-162368706D01*
X111822706Y-162442525D01*
X111734359Y-162442525D01*
X111733013Y-162411569D01*
X111719519Y-162369500D01*
X111677450Y-162338544D01*
X111596488Y-162328325D01*
X111595694Y-162328225D01*
X111487744Y-162355212D01*
X111459169Y-162423475D01*
X111457581Y-162469512D01*
X111457581Y-163025137D01*
X111053768Y-163025137D01*
X111338519Y-162537775D01*
X111370269Y-162452050D01*
X111349631Y-162396884D01*
X111287719Y-162345687D01*
X111192469Y-162310762D01*
X111137700Y-162332194D01*
X111095631Y-162396487D01*
X110887669Y-162796537D01*
X110679706Y-162396487D01*
X110653513Y-162352831D01*
X110625731Y-162325844D01*
X110574931Y-162312350D01*
X110487619Y-162345687D01*
X110425706Y-162396488D01*
X110405069Y-162450462D01*
X110229532Y-162450462D01*
X110212187Y-162429031D01*
X110118790Y-162362444D01*
X110011104Y-162322492D01*
X109889131Y-162309175D01*
X109786142Y-162318898D01*
X109697837Y-162348069D01*
X109624217Y-162396686D01*
X109565281Y-162464750D01*
X109524800Y-162551070D01*
X109511306Y-162644931D01*
X109408119Y-162644931D01*
X109408119Y-162464750D01*
X109405737Y-162409981D01*
X109392244Y-162369500D01*
X109350175Y-162337353D01*
X109268419Y-162326637D01*
X109191028Y-162335766D01*
X109149356Y-162363150D01*
X109131894Y-162415537D01*
X109108875Y-162388550D01*
X109044581Y-162345687D01*
X108958062Y-162318700D01*
X108895356Y-162322669D01*
X108839794Y-162336162D01*
X108789787Y-162368706D01*
X108769944Y-162442525D01*
X108301538Y-162442525D01*
X108304806Y-162409187D01*
X108291665Y-162302913D01*
X108252242Y-162204224D01*
X108186537Y-162113119D01*
X108141950Y-162075812D01*
X111457581Y-162075812D01*
X111459963Y-162130581D01*
X111474250Y-162171856D01*
X111516319Y-162204400D01*
X111596488Y-162213925D01*
X111676656Y-162204400D01*
X111718725Y-162171062D01*
X111733013Y-162128994D01*
X111735394Y-162074225D01*
X111733013Y-162019456D01*
X111719519Y-161978975D01*
X111677450Y-161946828D01*
X111595694Y-161936112D01*
X111515525Y-161946828D01*
X111475044Y-161978975D01*
X111459963Y-162021044D01*
X111457581Y-162075812D01*
X108141950Y-162075812D01*
X108099578Y-162040358D01*
X107996390Y-161996702D01*
X107876975Y-161982150D01*
X107757472Y-161996878D01*
X107654019Y-162041064D01*
X107566619Y-162114706D01*
X107500473Y-162207222D01*
X107460785Y-162308028D01*
X107447556Y-162417125D01*
X107457478Y-162505231D01*
X107487244Y-162588575D01*
X107530900Y-162661600D01*
X107582494Y-162718750D01*
X107693619Y-162806459D01*
X107792044Y-162860037D01*
X107831731Y-162875912D01*
X107831731Y-162883850D01*
X107541219Y-162883850D01*
X107448350Y-162898931D01*
X107411044Y-162944969D01*
X107401519Y-163025931D01*
X106924184Y-163025931D01*
X106498020Y-161605383D01*
X107070790Y-161605383D01*
X107401519Y-161605383D01*
X113578481Y-161605383D01*
X113909210Y-161605383D01*
X114481980Y-161605383D01*
X113909210Y-163514617D01*
G37*
%TO.C,kibuzzard-65B87948*%
G36*
X71997809Y-98874380D02*
G01*
X72048609Y-98964074D01*
X71848584Y-98964074D01*
X71788259Y-98913274D01*
X71816041Y-98854536D01*
X71895416Y-98832311D01*
X71997809Y-98874380D01*
G37*
G36*
X75299809Y-99152986D02*
G01*
X75145822Y-99152986D01*
X75037078Y-99131753D01*
X74939447Y-99068055D01*
X74870391Y-98972209D01*
X74847372Y-98854536D01*
X74869795Y-98736466D01*
X74937066Y-98639430D01*
X75034498Y-98574541D01*
X75147409Y-98552911D01*
X75299809Y-98552911D01*
X75299809Y-99152986D01*
G37*
G36*
X77232129Y-99822000D02*
G01*
X75935925Y-101766306D01*
X75605196Y-101766306D01*
X75189161Y-101766306D01*
X73892573Y-101766306D01*
X73293546Y-101766306D01*
X72594420Y-101766306D01*
X71926575Y-101766306D01*
X70836440Y-101766306D01*
X70698804Y-101766306D01*
X70368075Y-101766306D01*
X70046448Y-101283865D01*
X70698804Y-101283865D01*
X70701150Y-101337824D01*
X70716009Y-101379271D01*
X70756283Y-101409770D01*
X70836440Y-101419936D01*
X70913860Y-101409770D01*
X70955307Y-101379271D01*
X70970165Y-101337042D01*
X70972511Y-101280737D01*
X70972511Y-101007030D01*
X71008484Y-100906931D01*
X71099980Y-100870958D01*
X71197733Y-100904585D01*
X71246218Y-100980441D01*
X71246218Y-101283865D01*
X71248564Y-101337824D01*
X71263422Y-101379271D01*
X71303696Y-101409770D01*
X71383853Y-101419936D01*
X71463228Y-101409379D01*
X71504284Y-101377707D01*
X71517579Y-101337042D01*
X71519925Y-101282301D01*
X71519925Y-101254148D01*
X71621587Y-101254148D01*
X71643093Y-101311626D01*
X71707610Y-101365195D01*
X71806926Y-101412116D01*
X71926575Y-101427756D01*
X72022329Y-101416113D01*
X72115650Y-101381183D01*
X72206538Y-101322966D01*
X72264799Y-101264510D01*
X72311329Y-101189240D01*
X72341828Y-101101263D01*
X72351994Y-101004684D01*
X72341828Y-100908495D01*
X72311329Y-100821691D01*
X72264799Y-100747595D01*
X72253617Y-100736451D01*
X72414555Y-100736451D01*
X72425113Y-100815826D01*
X72456784Y-100856882D01*
X72498232Y-100870176D01*
X72552191Y-100872522D01*
X72653853Y-100866266D01*
X72653853Y-101082104D01*
X72640559Y-101143101D01*
X72590510Y-101161870D01*
X72534204Y-101164216D01*
X72492757Y-101179074D01*
X72456784Y-101283865D01*
X72467733Y-101363240D01*
X72500578Y-101404296D01*
X72542025Y-101417590D01*
X72594420Y-101419936D01*
X72694171Y-101411768D01*
X72776544Y-101387265D01*
X72841538Y-101346426D01*
X72888459Y-101286124D01*
X72889226Y-101283865D01*
X73155910Y-101283865D01*
X73158256Y-101337824D01*
X73173115Y-101379271D01*
X73213389Y-101409770D01*
X73293546Y-101419936D01*
X73372921Y-101409379D01*
X73413977Y-101377707D01*
X73427271Y-101337042D01*
X73429617Y-101282301D01*
X73429617Y-100733323D01*
X73428597Y-100709862D01*
X73515639Y-100709862D01*
X73540664Y-100795102D01*
X73582893Y-100897547D01*
X73754937Y-101316709D01*
X73786218Y-101375361D01*
X73833139Y-101413680D01*
X73892573Y-101424628D01*
X73962172Y-101397257D01*
X74006748Y-101341734D01*
X74019260Y-101315145D01*
X74048586Y-101238507D01*
X74111538Y-101071155D01*
X74157677Y-101193932D01*
X74196778Y-101300287D01*
X74207727Y-101328440D01*
X74221021Y-101354246D01*
X74246046Y-101387091D01*
X74332068Y-101424628D01*
X74413398Y-101397257D01*
X74457191Y-101341734D01*
X74575276Y-101053951D01*
X74771563Y-101053951D01*
X74781729Y-101149553D01*
X74812228Y-101233033D01*
X74859149Y-101301656D01*
X74918583Y-101352682D01*
X75004952Y-101398735D01*
X75095145Y-101426366D01*
X75189161Y-101435576D01*
X75260716Y-101431080D01*
X75328361Y-101417590D01*
X75434716Y-101373015D01*
X75505097Y-101323748D01*
X75550454Y-101276044D01*
X75564531Y-101258840D01*
X75605196Y-101168908D01*
X75588382Y-101122573D01*
X75537942Y-101063335D01*
X75455048Y-101025798D01*
X75402653Y-101045349D01*
X75333053Y-101104000D01*
X75270491Y-101154831D01*
X75195417Y-101179074D01*
X75086326Y-101149357D01*
X75049962Y-101060207D01*
X75089845Y-100999991D01*
X75189161Y-100964801D01*
X75250941Y-100950529D01*
X75317413Y-100929610D01*
X75383884Y-100903217D01*
X75445664Y-100872522D01*
X75500210Y-100830098D01*
X75544980Y-100768514D01*
X75574893Y-100690116D01*
X75584863Y-100597251D01*
X75573481Y-100509404D01*
X75539332Y-100429378D01*
X75482419Y-100357171D01*
X75405868Y-100300258D01*
X75312807Y-100266109D01*
X75203238Y-100254727D01*
X75150584Y-100258283D01*
X75113501Y-100260787D01*
X75031975Y-100278969D01*
X74924839Y-100328237D01*
X74885738Y-100357953D01*
X74837252Y-100434591D01*
X74874789Y-100520613D01*
X74928749Y-100579265D01*
X74984272Y-100598815D01*
X75065602Y-100567535D01*
X75083589Y-100551894D01*
X75107831Y-100531562D01*
X75191507Y-100511229D01*
X75275966Y-100535472D01*
X75309592Y-100602725D01*
X75269709Y-100672325D01*
X75170393Y-100708298D01*
X75108222Y-100720224D01*
X75040578Y-100737233D01*
X74972933Y-100758934D01*
X74910762Y-100784936D01*
X74856216Y-100823451D01*
X74811446Y-100882689D01*
X74781534Y-100960304D01*
X74771563Y-101053951D01*
X74575276Y-101053951D01*
X74693361Y-100766168D01*
X74709001Y-100705170D01*
X74686714Y-100649256D01*
X74619851Y-100606636D01*
X74538521Y-100586303D01*
X74487690Y-100599597D01*
X74460319Y-100626186D01*
X74447807Y-100653557D01*
X74423651Y-100714033D01*
X74386635Y-100812046D01*
X74336760Y-100947596D01*
X74325084Y-100915538D01*
X74244482Y-100694222D01*
X74210073Y-100639480D01*
X74117794Y-100594123D01*
X74037246Y-100619148D01*
X73991107Y-100669197D01*
X73978595Y-100695786D01*
X73933585Y-100820909D01*
X73902826Y-100904324D01*
X73886317Y-100946032D01*
X73790910Y-100686402D01*
X73743989Y-100611328D01*
X73678299Y-100586303D01*
X73615738Y-100601943D01*
X73599597Y-100612452D01*
X73540664Y-100650820D01*
X73515639Y-100709862D01*
X73428597Y-100709862D01*
X73427271Y-100679363D01*
X73413977Y-100637916D01*
X73372530Y-100607418D01*
X73292764Y-100597350D01*
X73291982Y-100597251D01*
X73185627Y-100623840D01*
X73157474Y-100691094D01*
X73155910Y-100736451D01*
X73155910Y-101283865D01*
X72889226Y-101283865D01*
X72916612Y-101203230D01*
X72925996Y-101097744D01*
X72925996Y-100866266D01*
X72990122Y-100870958D01*
X73047209Y-100844370D01*
X73069888Y-100753655D01*
X73062068Y-100660595D01*
X73040171Y-100619148D01*
X72977610Y-100598815D01*
X72925996Y-100605072D01*
X72925996Y-100443975D01*
X72923650Y-100390798D01*
X72908792Y-100353261D01*
X72902348Y-100348569D01*
X73155910Y-100348569D01*
X73158256Y-100402528D01*
X73172333Y-100443193D01*
X73213780Y-100475256D01*
X73292764Y-100484640D01*
X73371748Y-100475256D01*
X73413195Y-100442411D01*
X73427271Y-100400964D01*
X73429617Y-100347005D01*
X73427271Y-100293046D01*
X73413977Y-100253163D01*
X73372530Y-100221491D01*
X73291982Y-100210934D01*
X73212998Y-100221491D01*
X73173115Y-100253163D01*
X73158256Y-100294610D01*
X73155910Y-100348569D01*
X72902348Y-100348569D01*
X72887603Y-100337832D01*
X72868518Y-100323935D01*
X72788361Y-100314160D01*
X72703512Y-100328628D01*
X72661674Y-100372030D01*
X72653853Y-100451796D01*
X72653853Y-100605072D01*
X72549845Y-100598815D01*
X72496667Y-100601161D01*
X72455220Y-100616020D01*
X72424722Y-100656294D01*
X72414555Y-100736451D01*
X72253617Y-100736451D01*
X72206538Y-100689530D01*
X72118083Y-100632182D01*
X72025805Y-100597773D01*
X71929703Y-100586303D01*
X71893034Y-100591506D01*
X71813964Y-100602725D01*
X71731070Y-100634788D01*
X71706046Y-100650429D01*
X71662252Y-100680145D01*
X71621587Y-100751309D01*
X71654432Y-100841241D01*
X71709565Y-100905758D01*
X71762351Y-100927264D01*
X71846809Y-100892855D01*
X71927357Y-100866266D01*
X72025110Y-100903803D01*
X72070467Y-101007812D01*
X72026674Y-101111038D01*
X71933613Y-101147793D01*
X71841335Y-101118858D01*
X71771735Y-101089924D01*
X71719731Y-101110647D01*
X71657560Y-101172818D01*
X71621587Y-101254148D01*
X71519925Y-101254148D01*
X71519925Y-100347005D01*
X71517579Y-100293046D01*
X71504284Y-100253163D01*
X71462837Y-100221491D01*
X71382289Y-100210934D01*
X71303305Y-100221491D01*
X71272322Y-100246095D01*
X71263422Y-100253163D01*
X71248564Y-100294610D01*
X71246218Y-100348569D01*
X71246218Y-100694222D01*
X71161369Y-100622667D01*
X71063225Y-100598815D01*
X70964778Y-100612023D01*
X70877974Y-100651645D01*
X70802813Y-100717682D01*
X70745030Y-100802836D01*
X70710361Y-100899806D01*
X70698804Y-101008594D01*
X70698804Y-101283865D01*
X70046448Y-101283865D01*
X69071871Y-99822000D01*
X69809980Y-98714836D01*
X70772259Y-98714836D01*
X70802422Y-98825961D01*
X70889734Y-98886286D01*
X70944503Y-98873586D01*
X71013559Y-98860886D01*
X71093728Y-98891049D01*
X71131034Y-98964074D01*
X71131034Y-99297449D01*
X71133416Y-99352217D01*
X71148497Y-99394286D01*
X71191359Y-99425242D01*
X71272322Y-99435561D01*
X71381859Y-99408574D01*
X71410434Y-99340311D01*
X71410434Y-99294274D01*
X71410434Y-98917242D01*
X71513622Y-98917242D01*
X71525726Y-99002174D01*
X71562041Y-99061705D01*
X71669197Y-99108536D01*
X72045434Y-99108536D01*
X71993047Y-99183149D01*
X71888272Y-99213311D01*
X71806119Y-99208549D01*
X71743809Y-99194261D01*
X71726347Y-99187911D01*
X71662847Y-99170449D01*
X71575534Y-99241886D01*
X71554897Y-99314911D01*
X71576030Y-99376724D01*
X71639431Y-99420877D01*
X71745099Y-99447368D01*
X71893034Y-99456199D01*
X72003961Y-99446078D01*
X72101791Y-99415717D01*
X72182951Y-99368688D01*
X72243872Y-99308561D01*
X72299434Y-99219485D01*
X72332772Y-99123705D01*
X72343884Y-99021224D01*
X72329509Y-98896781D01*
X72286382Y-98790154D01*
X72231849Y-98722774D01*
X72407384Y-98722774D01*
X72439134Y-98810086D01*
X72767747Y-99373649D01*
X72818547Y-99422067D01*
X72887603Y-99443499D01*
X72952691Y-99426830D01*
X72996347Y-99392699D01*
X73010634Y-99375236D01*
X73056083Y-99297449D01*
X73459897Y-99297449D01*
X73462278Y-99352217D01*
X73477359Y-99394286D01*
X73518237Y-99425242D01*
X73599597Y-99435561D01*
X73680162Y-99424845D01*
X73721834Y-99392699D01*
X73735328Y-99351424D01*
X73737709Y-99295861D01*
X73737709Y-98738649D01*
X73736674Y-98714836D01*
X73825022Y-98714836D01*
X73855184Y-98825961D01*
X73942497Y-98886286D01*
X73997266Y-98873586D01*
X74066322Y-98860886D01*
X74146491Y-98891049D01*
X74183797Y-98964074D01*
X74183797Y-99297449D01*
X74186178Y-99352217D01*
X74201259Y-99394286D01*
X74244122Y-99425242D01*
X74325084Y-99435561D01*
X74434622Y-99408574D01*
X74463197Y-99340311D01*
X74463197Y-99294274D01*
X74463197Y-98845805D01*
X74566384Y-98845805D01*
X74577050Y-98962536D01*
X74609048Y-99070634D01*
X74662378Y-99170101D01*
X74737041Y-99260936D01*
X74826883Y-99336640D01*
X74925755Y-99390714D01*
X75033655Y-99423159D01*
X75150584Y-99433974D01*
X75441097Y-99433974D01*
X75519678Y-99424052D01*
X75561747Y-99394286D01*
X75580797Y-99292686D01*
X75580797Y-98410036D01*
X75578416Y-98354474D01*
X75563334Y-98313199D01*
X75521266Y-98281052D01*
X75439509Y-98270336D01*
X75145822Y-98271924D01*
X75034201Y-98282292D01*
X74929525Y-98313397D01*
X74831794Y-98365239D01*
X74741009Y-98437817D01*
X74664611Y-98525527D01*
X74610041Y-98622761D01*
X74577298Y-98729520D01*
X74566384Y-98845805D01*
X74463197Y-98845805D01*
X74463197Y-98737061D01*
X74460816Y-98682292D01*
X74447322Y-98641811D01*
X74405253Y-98609664D01*
X74323497Y-98598949D01*
X74246106Y-98608077D01*
X74204434Y-98635461D01*
X74186972Y-98687849D01*
X74163953Y-98660861D01*
X74099659Y-98617999D01*
X74013141Y-98591011D01*
X73950434Y-98594980D01*
X73894872Y-98608474D01*
X73844866Y-98641017D01*
X73825022Y-98714836D01*
X73736674Y-98714836D01*
X73735328Y-98683880D01*
X73721834Y-98641811D01*
X73679766Y-98610855D01*
X73598803Y-98600636D01*
X73598009Y-98600536D01*
X73490059Y-98627524D01*
X73461484Y-98695786D01*
X73459897Y-98741824D01*
X73459897Y-99297449D01*
X73056083Y-99297449D01*
X73340834Y-98810086D01*
X73372584Y-98724361D01*
X73351947Y-98669195D01*
X73290034Y-98617999D01*
X73194784Y-98583074D01*
X73140016Y-98604505D01*
X73097947Y-98668799D01*
X72889984Y-99068849D01*
X72682022Y-98668799D01*
X72655828Y-98625142D01*
X72628047Y-98598155D01*
X72577247Y-98584661D01*
X72489934Y-98617999D01*
X72428022Y-98668799D01*
X72407384Y-98722774D01*
X72231849Y-98722774D01*
X72214503Y-98701342D01*
X72121105Y-98634755D01*
X72013420Y-98594803D01*
X71891447Y-98581486D01*
X71788458Y-98591209D01*
X71700153Y-98620380D01*
X71626533Y-98668997D01*
X71567597Y-98737061D01*
X71527116Y-98823381D01*
X71513622Y-98917242D01*
X71410434Y-98917242D01*
X71410434Y-98737061D01*
X71408053Y-98682292D01*
X71394559Y-98641811D01*
X71352491Y-98609664D01*
X71270734Y-98598949D01*
X71193344Y-98608077D01*
X71151672Y-98635461D01*
X71134209Y-98687849D01*
X71111191Y-98660861D01*
X71046897Y-98617999D01*
X70960378Y-98591011D01*
X70897672Y-98594980D01*
X70842109Y-98608474D01*
X70792103Y-98641017D01*
X70772259Y-98714836D01*
X69809980Y-98714836D01*
X70054455Y-98348124D01*
X73459897Y-98348124D01*
X73462278Y-98402892D01*
X73476566Y-98444167D01*
X73518634Y-98476711D01*
X73598803Y-98486236D01*
X73678972Y-98476711D01*
X73721041Y-98443374D01*
X73735328Y-98401305D01*
X73737709Y-98346536D01*
X73735328Y-98291767D01*
X73721834Y-98251286D01*
X73679766Y-98219139D01*
X73598009Y-98208424D01*
X73517841Y-98219139D01*
X73477359Y-98251286D01*
X73462278Y-98293355D01*
X73459897Y-98348124D01*
X70054455Y-98348124D01*
X70368075Y-97877694D01*
X70698804Y-97877694D01*
X75605196Y-97877694D01*
X75935925Y-97877694D01*
X77232129Y-99822000D01*
G37*
%TO.C,kibuzzard-65B87A32*%
G36*
X69254423Y-54023419D02*
G01*
X69254423Y-54612381D01*
X69254423Y-54943110D01*
X67397577Y-55500164D01*
X67397577Y-54943110D01*
X67397577Y-54612381D01*
X67397577Y-54425056D01*
X67728306Y-54425056D01*
X67755294Y-54518719D01*
X67803713Y-54588966D01*
X67856894Y-54612381D01*
X67933094Y-54588569D01*
X68822094Y-54150419D01*
X68878450Y-54097238D01*
X68899881Y-54023419D01*
X68899881Y-54007544D01*
X68878450Y-53932138D01*
X68822094Y-53878956D01*
X67933094Y-53440806D01*
X67856894Y-53416994D01*
X67803713Y-53440409D01*
X67755294Y-53510656D01*
X67728306Y-53590825D01*
X67734656Y-53632894D01*
X67756881Y-53659881D01*
X67798950Y-53686075D01*
X67843400Y-53707308D01*
X67930713Y-53747194D01*
X68042830Y-53798192D01*
X68161694Y-53852762D01*
X68280558Y-53907531D01*
X68392675Y-53959125D01*
X68477408Y-53998217D01*
X68514119Y-54015481D01*
X67818794Y-54332981D01*
X67771169Y-54355206D01*
X67728306Y-54425056D01*
X67397577Y-54425056D01*
X67397577Y-52799456D01*
X67734656Y-52799456D01*
X67736244Y-53040756D01*
X67736244Y-53189981D01*
X67738625Y-53245544D01*
X67753706Y-53286819D01*
X67796569Y-53318966D01*
X67880706Y-53329681D01*
X67957303Y-53319759D01*
X67996594Y-53289994D01*
X68011675Y-53251100D01*
X68014056Y-53199506D01*
X68014056Y-52921694D01*
X68134706Y-52905819D01*
X68131531Y-52961381D01*
X68144143Y-53058572D01*
X68181978Y-53149059D01*
X68245038Y-53232844D01*
X68326353Y-53299872D01*
X68418957Y-53340088D01*
X68522850Y-53353494D01*
X68627272Y-53340794D01*
X68721464Y-53302694D01*
X68805425Y-53239194D01*
X68871130Y-53156820D01*
X68910553Y-53062099D01*
X68923694Y-52955031D01*
X68915403Y-52859781D01*
X68890533Y-52770881D01*
X68849081Y-52688331D01*
X68818919Y-52648644D01*
X68807806Y-52635944D01*
X68712556Y-52575619D01*
X68609369Y-52634356D01*
X68556981Y-52726431D01*
X68607781Y-52832794D01*
X68641119Y-52932012D01*
X68610956Y-53036787D01*
X68527613Y-53070919D01*
X68443475Y-53033612D01*
X68412519Y-52948681D01*
X68441094Y-52872481D01*
X68477606Y-52785962D01*
X68447444Y-52685950D01*
X68399025Y-52612131D01*
X68360131Y-52594669D01*
X68285916Y-52602606D01*
X68104544Y-52626419D01*
X67925950Y-52650628D01*
X67860069Y-52659756D01*
X67826731Y-52670869D01*
X67783869Y-52693887D01*
X67749738Y-52735162D01*
X67734656Y-52799456D01*
X67397577Y-52799456D01*
X67397577Y-52575619D01*
X67397577Y-52244890D01*
X67397577Y-51687836D01*
X69254423Y-52244890D01*
X69254423Y-52575619D01*
X69254423Y-52955031D01*
X69254423Y-54023419D01*
G37*
%TO.C,kibuzzard-65B87C4C*%
G36*
X75025250Y-69923342D02*
G01*
X74982784Y-70140830D01*
X74855388Y-70336092D01*
X74663697Y-70474205D01*
X74428350Y-70520242D01*
X74192209Y-70475396D01*
X73998138Y-70340855D01*
X73868359Y-70145989D01*
X73825100Y-69920167D01*
X73825100Y-69615367D01*
X75025250Y-69615367D01*
X75025250Y-69923342D01*
G37*
G36*
X76283608Y-68516817D02*
G01*
X76283608Y-69913817D01*
X76283608Y-71082217D01*
X76283608Y-71743676D01*
X76283608Y-72860641D01*
X72560392Y-71743676D01*
X72560392Y-71082217D01*
X72560392Y-69335967D01*
X73259950Y-69335967D01*
X73263125Y-69923342D01*
X73283862Y-70146585D01*
X73346072Y-70355936D01*
X73449755Y-70551397D01*
X73594913Y-70732967D01*
X73770331Y-70885764D01*
X73964800Y-70994905D01*
X74178319Y-71060389D01*
X74410888Y-71082217D01*
X74644349Y-71060885D01*
X74860547Y-70996889D01*
X75059480Y-70890229D01*
X75241150Y-70740905D01*
X75392558Y-70561220D01*
X75500706Y-70363477D01*
X75565595Y-70147676D01*
X75587225Y-69913817D01*
X75587225Y-69332792D01*
X75567381Y-69175630D01*
X75507850Y-69091492D01*
X75304650Y-69053392D01*
X73539350Y-69053392D01*
X73428225Y-69058155D01*
X73345675Y-69088317D01*
X73281381Y-69172455D01*
X73259950Y-69335967D01*
X72560392Y-69335967D01*
X72560392Y-68512055D01*
X73266300Y-68512055D01*
X73282175Y-68658105D01*
X73320275Y-68740655D01*
X73386950Y-68780342D01*
X73548875Y-68799393D01*
X75311000Y-68799393D01*
X75422125Y-68794630D01*
X75504675Y-68764467D01*
X75568969Y-68680330D01*
X75590400Y-68516817D01*
X75571350Y-68345367D01*
X75511025Y-68265992D01*
X75211869Y-68041449D01*
X74949403Y-67844070D01*
X74723625Y-67673855D01*
X74534536Y-67530804D01*
X74382136Y-67414916D01*
X74266425Y-67326192D01*
X75311000Y-67326192D01*
X75422125Y-67321430D01*
X75504675Y-67291267D01*
X75568969Y-67207130D01*
X75590400Y-67043617D01*
X75568969Y-66884867D01*
X75504675Y-66802317D01*
X75418950Y-66772155D01*
X75307825Y-66767392D01*
X73536175Y-66767392D01*
X73359963Y-66797555D01*
X73285350Y-66888042D01*
X73266300Y-67043617D01*
X73283762Y-67194430D01*
X73323450Y-67272217D01*
X73406000Y-67345242D01*
X73692544Y-67556204D01*
X73944692Y-67742470D01*
X74162444Y-67904042D01*
X74345800Y-68040920D01*
X74494760Y-68153104D01*
X74609325Y-68240592D01*
X73536175Y-68240592D01*
X73359963Y-68270755D01*
X73285350Y-68361242D01*
X73266300Y-68512055D01*
X72560392Y-68512055D01*
X72560392Y-65646617D01*
X73221850Y-65646617D01*
X73249367Y-65891798D01*
X73331917Y-66127806D01*
X73469500Y-66354642D01*
X73610787Y-66440367D01*
X73790175Y-66367342D01*
X73916381Y-66249074D01*
X73958450Y-66141918D01*
X73871138Y-65948242D01*
X73805653Y-65802192D01*
X73783825Y-65630742D01*
X73826291Y-65402936D01*
X73953688Y-65202117D01*
X74149744Y-65061624D01*
X74398188Y-65014792D01*
X74572107Y-65035959D01*
X74727682Y-65099459D01*
X74864912Y-65205292D01*
X75008978Y-65408492D01*
X75057000Y-65637092D01*
X75042713Y-65802986D01*
X74999850Y-65951417D01*
X74653775Y-65951417D01*
X74653775Y-65700592D01*
X74628375Y-65560892D01*
X74553763Y-65506917D01*
X74420413Y-65494217D01*
X74285475Y-65508505D01*
X74215625Y-65560892D01*
X74187050Y-65713292D01*
X74187050Y-66272092D01*
X74275950Y-66481642D01*
X74453750Y-66513392D01*
X75152250Y-66513392D01*
X75345925Y-66424492D01*
X75466773Y-66274474D01*
X75553094Y-66091117D01*
X75604886Y-65874424D01*
X75622150Y-65624392D01*
X75599826Y-65395594D01*
X75532853Y-65182274D01*
X75421232Y-64984432D01*
X75264963Y-64802067D01*
X75077141Y-64649271D01*
X74870866Y-64540130D01*
X74646135Y-64474646D01*
X74402950Y-64452817D01*
X74160955Y-64475042D01*
X73939797Y-64541717D01*
X73739474Y-64652842D01*
X73559987Y-64808417D01*
X73412052Y-64994155D01*
X73306384Y-65195767D01*
X73242984Y-65413255D01*
X73221850Y-65646617D01*
X72560392Y-65646617D01*
X72560392Y-64452817D01*
X72560392Y-63791359D01*
X76283608Y-63791359D01*
X76283608Y-64452817D01*
X76283608Y-65624392D01*
X76283608Y-68516817D01*
G37*
%TO.C,kibuzzard-65B87C2D*%
G36*
X64848846Y-67357784D02*
G01*
X64848846Y-68535709D01*
X64848846Y-69197167D01*
X61135154Y-70311275D01*
X61135154Y-69197167D01*
X61135154Y-68535709D01*
X61135154Y-68161059D01*
X61796612Y-68161059D01*
X61850588Y-68348384D01*
X61947425Y-68488878D01*
X62053788Y-68535709D01*
X62206188Y-68488084D01*
X63984188Y-67611784D01*
X64096900Y-67505421D01*
X64139763Y-67357784D01*
X64139763Y-67326034D01*
X64096900Y-67175221D01*
X63984188Y-67068859D01*
X62206188Y-66192559D01*
X62053788Y-66144934D01*
X61947425Y-66191765D01*
X61850588Y-66332259D01*
X61796612Y-66492596D01*
X61809312Y-66576734D01*
X61853762Y-66630709D01*
X61937900Y-66683096D01*
X62026800Y-66725562D01*
X62201425Y-66805334D01*
X62425659Y-66907331D01*
X62663387Y-67016471D01*
X62901116Y-67126009D01*
X63125350Y-67229196D01*
X63294816Y-67307381D01*
X63368237Y-67341909D01*
X61977587Y-67976909D01*
X61882337Y-68021359D01*
X61796612Y-68161059D01*
X61135154Y-68161059D01*
X61135154Y-64909859D01*
X61809312Y-64909859D01*
X61812488Y-65392459D01*
X61812488Y-65690909D01*
X61817250Y-65802034D01*
X61847413Y-65884584D01*
X61933137Y-65948877D01*
X62101412Y-65970309D01*
X62254606Y-65950465D01*
X62333188Y-65890934D01*
X62363350Y-65813146D01*
X62368113Y-65709959D01*
X62368113Y-65154334D01*
X62609413Y-65122584D01*
X62603063Y-65233709D01*
X62628286Y-65428089D01*
X62703957Y-65609064D01*
X62830075Y-65776634D01*
X62992706Y-65910689D01*
X63177914Y-65991123D01*
X63385700Y-66017934D01*
X63594544Y-65992534D01*
X63782928Y-65916334D01*
X63950850Y-65789334D01*
X64082260Y-65624587D01*
X64161106Y-65435145D01*
X64187388Y-65221009D01*
X64170807Y-65030509D01*
X64121065Y-64852709D01*
X64038162Y-64687609D01*
X63977838Y-64608234D01*
X63955613Y-64582834D01*
X63765113Y-64462184D01*
X63558738Y-64579659D01*
X63453963Y-64763809D01*
X63555563Y-64976534D01*
X63622238Y-65174971D01*
X63561913Y-65384521D01*
X63395225Y-65452784D01*
X63226950Y-65378171D01*
X63165038Y-65208309D01*
X63222188Y-65055909D01*
X63295213Y-64882871D01*
X63234888Y-64682846D01*
X63138050Y-64535209D01*
X63060263Y-64500284D01*
X62911831Y-64516159D01*
X62549088Y-64563784D01*
X62191900Y-64612202D01*
X62060138Y-64630459D01*
X61993462Y-64652684D01*
X61907737Y-64698721D01*
X61839475Y-64781271D01*
X61809312Y-64909859D01*
X61135154Y-64909859D01*
X61135154Y-64462184D01*
X61135154Y-63800725D01*
X64848846Y-63800725D01*
X64848846Y-64462184D01*
X64848846Y-65221009D01*
X64848846Y-67357784D01*
G37*
%TO.C,kibuzzard-65B87A32*%
G36*
X142573110Y-142406423D02*
G01*
X142242381Y-142406423D01*
X141862969Y-142406423D01*
X140794581Y-142406423D01*
X140205619Y-142406423D01*
X139874890Y-142406423D01*
X139455631Y-141008894D01*
X140205619Y-141008894D01*
X140229431Y-141085094D01*
X140667581Y-141974094D01*
X140720762Y-142030450D01*
X140794581Y-142051881D01*
X140810456Y-142051881D01*
X140885862Y-142030450D01*
X140939044Y-141974094D01*
X141086529Y-141674850D01*
X141464506Y-141674850D01*
X141477206Y-141779272D01*
X141515306Y-141873464D01*
X141578806Y-141957425D01*
X141661180Y-142023130D01*
X141755901Y-142062553D01*
X141862969Y-142075694D01*
X141958219Y-142067403D01*
X142047119Y-142042533D01*
X142129669Y-142001081D01*
X142169356Y-141970919D01*
X142182056Y-141959806D01*
X142242381Y-141864556D01*
X142183644Y-141761369D01*
X142091569Y-141708981D01*
X141985206Y-141759781D01*
X141885988Y-141793119D01*
X141781213Y-141762956D01*
X141747081Y-141679613D01*
X141784388Y-141595475D01*
X141869319Y-141564519D01*
X141945519Y-141593094D01*
X142032038Y-141629606D01*
X142132050Y-141599444D01*
X142205869Y-141551025D01*
X142223331Y-141512131D01*
X142215394Y-141437916D01*
X142191581Y-141256544D01*
X142167372Y-141077950D01*
X142158244Y-141012069D01*
X142147131Y-140978731D01*
X142124113Y-140935869D01*
X142082838Y-140901738D01*
X142018544Y-140886656D01*
X141777244Y-140888244D01*
X141628019Y-140888244D01*
X141572456Y-140890625D01*
X141531181Y-140905706D01*
X141499034Y-140948569D01*
X141488319Y-141032706D01*
X141498241Y-141109303D01*
X141528006Y-141148594D01*
X141566900Y-141163675D01*
X141618494Y-141166056D01*
X141896306Y-141166056D01*
X141912181Y-141286706D01*
X141856619Y-141283531D01*
X141759428Y-141296143D01*
X141668941Y-141333978D01*
X141585156Y-141397038D01*
X141518128Y-141478353D01*
X141477912Y-141570957D01*
X141464506Y-141674850D01*
X141086529Y-141674850D01*
X141377194Y-141085094D01*
X141401006Y-141008894D01*
X141377591Y-140955713D01*
X141307344Y-140907294D01*
X141227175Y-140880306D01*
X141185106Y-140886656D01*
X141158119Y-140908881D01*
X141131925Y-140950950D01*
X141110692Y-140995400D01*
X141070806Y-141082713D01*
X141019808Y-141194830D01*
X140965238Y-141313694D01*
X140910469Y-141432558D01*
X140858875Y-141544675D01*
X140819783Y-141629408D01*
X140802519Y-141666119D01*
X140485019Y-140970794D01*
X140462794Y-140923169D01*
X140392944Y-140880306D01*
X140299281Y-140907294D01*
X140229034Y-140955713D01*
X140205619Y-141008894D01*
X139455631Y-141008894D01*
X139317836Y-140549577D01*
X139874890Y-140549577D01*
X140205619Y-140549577D01*
X142242381Y-140549577D01*
X142573110Y-140549577D01*
X143130164Y-140549577D01*
X142573110Y-142406423D01*
G37*
%TD*%
M02*
