%TF.GenerationSoftware,KiCad,Pcbnew,7.0.10*%
%TF.CreationDate,2024-01-30T15:14:12+08:00*%
%TF.ProjectId,top-rounded,746f702d-726f-4756-9e64-65642e6b6963,rev?*%
%TF.SameCoordinates,Original*%
%TF.FileFunction,Drillmap*%
%TF.FilePolarity,Positive*%
%FSLAX45Y45*%
G04 Gerber Fmt 4.5, Leading zero omitted, Abs format (unit mm)*
G04 Created by KiCad (PCBNEW 7.0.10) date 2024-01-30 15:14:12*
%MOMM*%
%LPD*%
G01*
G04 APERTURE LIST*
%ADD10C,0.200000*%
%ADD11C,0.100000*%
%ADD12C,0.102000*%
%ADD13C,0.190000*%
G04 APERTURE END LIST*
D10*
X15500000Y-11800000D02*
X15500000Y-11582843D01*
X4500000Y-11582843D02*
X4500000Y-11800000D01*
X4500000Y-8200000D02*
G75*
G03*
X4300000Y-8000000I-200000J0D01*
G01*
X6825301Y-17884877D02*
G75*
G03*
X7100000Y-17699351I74699J185527D01*
G01*
X13007500Y-16250000D02*
G75*
G03*
X12692500Y-16250000I-157500J0D01*
G01*
X12692500Y-16250000D02*
G75*
G03*
X13007500Y-16250000I157500J0D01*
G01*
X8947797Y-9800000D02*
X8947797Y-7200000D01*
X12900000Y-16800000D02*
G75*
G03*
X12800000Y-16700000I-100000J0D01*
G01*
X12000000Y-11200000D02*
G75*
G03*
X11800000Y-11000000I-200000J0D01*
G01*
X16717157Y-6517157D02*
X16637615Y-6596699D01*
X2800000Y-8000000D02*
X4300000Y-8000000D01*
X10747797Y-10000000D02*
X9147797Y-10000000D01*
X6902309Y-15444722D02*
G75*
G03*
X6592309Y-15444722I-155000J0D01*
G01*
X6592309Y-15444722D02*
G75*
G03*
X6902309Y-15444722I155000J0D01*
G01*
X7500000Y-13800000D02*
G75*
G03*
X7700000Y-14000000I200000J0D01*
G01*
X8000000Y-11800000D02*
X8000000Y-11200000D01*
X10747797Y-10000007D02*
G75*
G03*
X10947797Y-9800000I-7J200007D01*
G01*
X2600000Y-13300000D02*
G75*
G03*
X3200000Y-15100000I3000000J0D01*
G01*
X4710278Y-13252691D02*
G75*
G03*
X4400278Y-13252691I-155000J0D01*
G01*
X4400278Y-13252691D02*
G75*
G03*
X4710278Y-13252691I155000J0D01*
G01*
X10605888Y-5500002D02*
G75*
G03*
X12020101Y-4914214I-8J2000012D01*
G01*
X17078203Y-14000000D02*
G75*
G03*
X16778203Y-14000000I-150000J0D01*
G01*
X16778203Y-14000000D02*
G75*
G03*
X17078203Y-14000000I150000J0D01*
G01*
X11628000Y-10520000D02*
G75*
G03*
X11318000Y-10520000I-155000J0D01*
G01*
X11318000Y-10520000D02*
G75*
G03*
X11628000Y-10520000I155000J0D01*
G01*
X15599722Y-13252691D02*
G75*
G03*
X15289722Y-13252691I-155000J0D01*
G01*
X15289722Y-13252691D02*
G75*
G03*
X15599722Y-13252691I155000J0D01*
G01*
X13557500Y-17200000D02*
G75*
G03*
X13242500Y-17200000I-157500J0D01*
G01*
X13242500Y-17200000D02*
G75*
G03*
X13557500Y-17200000I157500J0D01*
G01*
X3362385Y-6596699D02*
G75*
G03*
X4210913Y-6596699I424264J424264D01*
G01*
X13770458Y-4295227D02*
X14282843Y-3782843D01*
X7500000Y-13800000D02*
X7500000Y-12200000D01*
X7821548Y-14525483D02*
G75*
G03*
X7511548Y-14525483I-155000J0D01*
G01*
X7511548Y-14525483D02*
G75*
G03*
X7821548Y-14525483I155000J0D01*
G01*
X12488452Y-5474517D02*
G75*
G03*
X12178452Y-5474517I-155000J0D01*
G01*
X12178452Y-5474517D02*
G75*
G03*
X12488452Y-5474517I155000J0D01*
G01*
X4941422Y-8941421D02*
G75*
G03*
X5082843Y-9000000I141418J141411D01*
G01*
X14282843Y-3782843D02*
G75*
G03*
X13717157Y-3217157I-282843J282843D01*
G01*
X14700000Y-9000000D02*
X14917157Y-9000000D01*
X3282843Y-6517157D02*
G75*
G03*
X2600000Y-6800000I-282843J-282843D01*
G01*
X6757500Y-17200000D02*
G75*
G03*
X6442500Y-17200000I-157500J0D01*
G01*
X6442500Y-17200000D02*
G75*
G03*
X6757500Y-17200000I157500J0D01*
G01*
X12900000Y-16800000D02*
X12900000Y-17699351D01*
X3221797Y-14000000D02*
G75*
G03*
X2921797Y-14000000I-150000J0D01*
G01*
X2921797Y-14000000D02*
G75*
G03*
X3221797Y-14000000I150000J0D01*
G01*
X13770459Y-4295229D02*
G75*
G03*
X13770458Y-4578070I141421J-141421D01*
G01*
X12000000Y-11200000D02*
X12000000Y-11800000D01*
X12500000Y-12200000D02*
G75*
G03*
X12300000Y-12000000I-200000J0D01*
G01*
X6902309Y-4555278D02*
G75*
G03*
X6592309Y-4555278I-155000J0D01*
G01*
X6592309Y-4555278D02*
G75*
G03*
X6902309Y-4555278I155000J0D01*
G01*
X15441421Y-11441421D02*
X15058579Y-11058579D01*
X5082843Y-10999998D02*
G75*
G03*
X4941421Y-11058579I7J-200012D01*
G01*
X12500000Y-12200000D02*
X12500000Y-13800000D01*
X7100000Y-17699351D02*
X7100000Y-16800000D01*
X15789087Y-6596699D02*
G75*
G03*
X16637615Y-6596699I424264J424264D01*
G01*
X15700000Y-8000000D02*
X17200000Y-8000000D01*
X13007500Y-11750000D02*
G75*
G03*
X12692500Y-11750000I-157500J0D01*
G01*
X12692500Y-11750000D02*
G75*
G03*
X13007500Y-11750000I157500J0D01*
G01*
X7700000Y-12000000D02*
G75*
G03*
X7500000Y-12200000I0J-200000D01*
G01*
X9147797Y-7000000D02*
X10747797Y-7000000D01*
X2800000Y-12000000D02*
G75*
G03*
X2600000Y-12200000I0J-200000D01*
G01*
X7200000Y-16700000D02*
G75*
G03*
X7100000Y-16800000I0J-100000D01*
G01*
X12200000Y-12000000D02*
X12300000Y-12000000D01*
X2600000Y-12200000D02*
X2600000Y-13300000D01*
X5300000Y-11000000D02*
X5082843Y-11000000D01*
X16800000Y-15100000D02*
G75*
G03*
X17400000Y-13300000I-2400000J1800000D01*
G01*
X12899999Y-17699351D02*
G75*
G03*
X13174699Y-17884877I200001J1D01*
G01*
X13717157Y-3217157D02*
X12020101Y-4914214D01*
X17400000Y-12200000D02*
G75*
G03*
X17200000Y-12000000I-200000J0D01*
G01*
X14680483Y-12333452D02*
G75*
G03*
X14370483Y-12333452I-155000J0D01*
G01*
X14370483Y-12333452D02*
G75*
G03*
X14680483Y-12333452I155000J0D01*
G01*
X3200000Y-15100000D02*
G75*
G03*
X6825301Y-17884877I6800000J5100000D01*
G01*
X13407691Y-4555278D02*
G75*
G03*
X13097691Y-4555278I-155000J0D01*
G01*
X13097691Y-4555278D02*
G75*
G03*
X13407691Y-4555278I155000J0D01*
G01*
X4300000Y-12000000D02*
X2800000Y-12000000D01*
X5300000Y-11000000D02*
G75*
G03*
X5500000Y-10800000I0J200000D01*
G01*
X14917157Y-9000002D02*
G75*
G03*
X15058579Y-8941421I-7J200012D01*
G01*
X7800000Y-12000000D02*
G75*
G03*
X8000000Y-11800000I0J200000D01*
G01*
X15700000Y-8000000D02*
G75*
G03*
X15500000Y-8200000I0J-200000D01*
G01*
X5500000Y-9200000D02*
X5500000Y-10800000D01*
X17200000Y-12000000D02*
X15700000Y-12000000D01*
X13174699Y-17884877D02*
G75*
G03*
X16800000Y-15100000I-3174699J7884877D01*
G01*
X3157500Y-6800000D02*
G75*
G03*
X2842500Y-6800000I-157500J0D01*
G01*
X2842500Y-6800000D02*
G75*
G03*
X3157500Y-6800000I157500J0D01*
G01*
X15441421Y-8558578D02*
G75*
G03*
X15500000Y-8417157I-141411J141418D01*
G01*
X3157500Y-13200000D02*
G75*
G03*
X2842500Y-13200000I-157500J0D01*
G01*
X2842500Y-13200000D02*
G75*
G03*
X3157500Y-13200000I157500J0D01*
G01*
X7307500Y-11750000D02*
G75*
G03*
X6992500Y-11750000I-157500J0D01*
G01*
X6992500Y-11750000D02*
G75*
G03*
X7307500Y-11750000I157500J0D01*
G01*
X15500002Y-11582843D02*
G75*
G03*
X15441421Y-11441421I-200012J-7D01*
G01*
X7307500Y-16250000D02*
G75*
G03*
X6992500Y-16250000I-157500J0D01*
G01*
X6992500Y-16250000D02*
G75*
G03*
X7307500Y-16250000I157500J0D01*
G01*
X4300000Y-12000000D02*
G75*
G03*
X4500000Y-11800000I0J200000D01*
G01*
X14150000Y-3500000D02*
G75*
G03*
X13850000Y-3500000I-150000J0D01*
G01*
X13850000Y-3500000D02*
G75*
G03*
X14150000Y-3500000I150000J0D01*
G01*
X12488452Y-14525483D02*
G75*
G03*
X12178452Y-14525483I-155000J0D01*
G01*
X12178452Y-14525483D02*
G75*
G03*
X12488452Y-14525483I155000J0D01*
G01*
X14700000Y-9000000D02*
G75*
G03*
X14500000Y-9200000I0J-200000D01*
G01*
X14680483Y-7666548D02*
G75*
G03*
X14370483Y-7666548I-155000J0D01*
G01*
X14370483Y-7666548D02*
G75*
G03*
X14680483Y-7666548I155000J0D01*
G01*
X14917157Y-11000000D02*
X14700000Y-11000000D01*
X15500000Y-8417157D02*
X15500000Y-8200000D01*
X2600000Y-6800000D02*
X2600000Y-7800000D01*
X14500000Y-10800000D02*
G75*
G03*
X14700000Y-11000000I200000J0D01*
G01*
X4941421Y-11058579D02*
X4558579Y-11441421D01*
X12300000Y-14000000D02*
X7700000Y-14000000D01*
X8200000Y-11000000D02*
G75*
G03*
X8000000Y-11200000I0J-200000D01*
G01*
X7979899Y-4914214D02*
X6282843Y-3217157D01*
X17157500Y-6800000D02*
G75*
G03*
X16842500Y-6800000I-157500J0D01*
G01*
X16842500Y-6800000D02*
G75*
G03*
X17157500Y-6800000I157500J0D01*
G01*
X7200000Y-16700000D02*
X12800000Y-16700000D01*
X8682000Y-10520000D02*
G75*
G03*
X8372000Y-10520000I-155000J0D01*
G01*
X8372000Y-10520000D02*
G75*
G03*
X8682000Y-10520000I155000J0D01*
G01*
X5717157Y-3782843D02*
X6229542Y-4295227D01*
X15058578Y-11058579D02*
G75*
G03*
X14917157Y-11000000I-141418J-141411D01*
G01*
X4558579Y-8558579D02*
X4941421Y-8941421D01*
X5082843Y-9000000D02*
X5300000Y-9000000D01*
X17200000Y-8000000D02*
G75*
G03*
X17400000Y-7800000I0J200000D01*
G01*
X15058579Y-8941421D02*
X15441421Y-8558579D01*
X10947790Y-7200000D02*
G75*
G03*
X10747797Y-7000000I-199990J10D01*
G01*
X6282843Y-3217157D02*
G75*
G03*
X5717157Y-3782843I-282843J-282843D01*
G01*
X17400000Y-7800000D02*
X17400000Y-6800000D01*
X7700000Y-12000000D02*
X7800000Y-12000000D01*
X4500000Y-8200000D02*
X4500000Y-8417157D01*
X15789087Y-6596699D02*
X13770458Y-4578070D01*
X4558579Y-11441422D02*
G75*
G03*
X4500000Y-11582843I141411J-141418D01*
G01*
X6150000Y-3500000D02*
G75*
G03*
X5850000Y-3500000I-150000J0D01*
G01*
X5850000Y-3500000D02*
G75*
G03*
X6150000Y-3500000I150000J0D01*
G01*
X15500000Y-11800000D02*
G75*
G03*
X15700000Y-12000000I200000J0D01*
G01*
X12000000Y-11800000D02*
G75*
G03*
X12200000Y-12000000I200000J0D01*
G01*
X12300000Y-14000000D02*
G75*
G03*
X12500000Y-13800000I0J200000D01*
G01*
X5629517Y-12333452D02*
G75*
G03*
X5319517Y-12333452I-155000J0D01*
G01*
X5319517Y-12333452D02*
G75*
G03*
X5629517Y-12333452I155000J0D01*
G01*
X6810000Y-10000000D02*
G75*
G03*
X6190000Y-10000000I-310000J0D01*
G01*
X6190000Y-10000000D02*
G75*
G03*
X6810000Y-10000000I310000J0D01*
G01*
X14500000Y-10800000D02*
X14500000Y-9200000D01*
X7979900Y-4914213D02*
G75*
G03*
X9394113Y-5500000I1414210J1414203D01*
G01*
X15599722Y-6747309D02*
G75*
G03*
X15289722Y-6747309I-155000J0D01*
G01*
X15289722Y-6747309D02*
G75*
G03*
X15599722Y-6747309I155000J0D01*
G01*
X5500000Y-9200000D02*
G75*
G03*
X5300000Y-9000000I-200000J0D01*
G01*
X10605888Y-5500000D02*
X9394113Y-5500000D01*
X10947797Y-7200000D02*
X10947797Y-9800000D01*
X8200000Y-11000000D02*
X11800000Y-11000000D01*
X6229542Y-4578070D02*
X4210913Y-6596699D01*
X4499998Y-8417157D02*
G75*
G03*
X4558579Y-8558579I200012J7D01*
G01*
X17150000Y-13200000D02*
G75*
G03*
X16850000Y-13200000I-150000J0D01*
G01*
X16850000Y-13200000D02*
G75*
G03*
X17150000Y-13200000I150000J0D01*
G01*
X3362385Y-6596699D02*
X3282843Y-6517157D01*
X2600000Y-7800000D02*
G75*
G03*
X2800000Y-8000000I200000J0D01*
G01*
X6229543Y-4578071D02*
G75*
G03*
X6229542Y-4295227I-141423J141421D01*
G01*
X17400000Y-6800000D02*
G75*
G03*
X16717157Y-6517157I-400000J0D01*
G01*
X4710278Y-6747309D02*
G75*
G03*
X4400278Y-6747309I-155000J0D01*
G01*
X4400278Y-6747309D02*
G75*
G03*
X4710278Y-6747309I155000J0D01*
G01*
X13407691Y-15444722D02*
G75*
G03*
X13097691Y-15444722I-155000J0D01*
G01*
X13097691Y-15444722D02*
G75*
G03*
X13407691Y-15444722I155000J0D01*
G01*
X5629517Y-7666548D02*
G75*
G03*
X5319517Y-7666548I-155000J0D01*
G01*
X5319517Y-7666548D02*
G75*
G03*
X5629517Y-7666548I155000J0D01*
G01*
X7821548Y-5474517D02*
G75*
G03*
X7511548Y-5474517I-155000J0D01*
G01*
X7511548Y-5474517D02*
G75*
G03*
X7821548Y-5474517I155000J0D01*
G01*
X8947790Y-9800000D02*
G75*
G03*
X9147797Y-10000000I200010J10D01*
G01*
X9147797Y-7000006D02*
G75*
G03*
X8947797Y-7200000I-7J-199994D01*
G01*
X17400000Y-13300000D02*
X17400000Y-12200000D01*
D11*
X12266700Y-9790900D02*
X12266700Y-10103900D01*
X12266700Y-10843900D02*
X12266700Y-10103900D01*
X12316700Y-9740900D02*
X13616700Y-9740900D01*
X12316700Y-10893900D02*
X12616700Y-10893900D01*
X12616700Y-10893900D02*
X12616700Y-10639900D01*
X13316700Y-10639900D02*
X12616700Y-10639900D01*
X13316700Y-10893900D02*
X13316700Y-10639900D01*
X13616700Y-10893900D02*
X13316700Y-10893900D01*
X13666700Y-9790900D02*
X13666700Y-10103900D01*
X13666700Y-10103900D02*
X13666700Y-10843900D01*
X12316700Y-9740900D02*
G75*
G03*
X12266700Y-9790900I0J-50000D01*
G01*
X12266700Y-10843900D02*
G75*
G03*
X12316700Y-10893900I50000J0D01*
G01*
X13666700Y-9790900D02*
G75*
G03*
X13616700Y-9740900I-50000J0D01*
G01*
X13616700Y-10893900D02*
G75*
G03*
X13666700Y-10843900I0J50000D01*
G01*
D10*
D11*
X8489000Y-9886000D02*
X8529000Y-9926000D01*
X8529000Y-9886000D02*
X8489000Y-9926000D01*
X8997000Y-10394000D02*
X9037000Y-10434000D01*
X9037000Y-10394000D02*
X8997000Y-10434000D01*
X12124900Y-10914700D02*
X12164900Y-10954700D01*
X12164900Y-10914700D02*
X12124900Y-10954700D01*
X12362500Y-9441500D02*
X12402500Y-9481500D01*
X12402500Y-9441500D02*
X12362500Y-9481500D01*
X12553000Y-8933500D02*
X12593000Y-8973500D01*
X12593000Y-8933500D02*
X12553000Y-8973500D01*
X12553000Y-9251000D02*
X12593000Y-9291000D01*
X12593000Y-9251000D02*
X12553000Y-9291000D01*
X12680000Y-9060500D02*
X12720000Y-9100500D01*
X12720000Y-9060500D02*
X12680000Y-9100500D01*
X12680000Y-9378000D02*
X12720000Y-9418000D01*
X12720000Y-9378000D02*
X12680000Y-9418000D01*
X12870500Y-11181400D02*
X12910500Y-11221400D01*
X12910500Y-11181400D02*
X12870500Y-11221400D01*
X12997500Y-13124500D02*
X13037500Y-13164500D01*
X13037500Y-13124500D02*
X12997500Y-13164500D01*
X12997500Y-14013500D02*
X13037500Y-14053500D01*
X13037500Y-14013500D02*
X12997500Y-14053500D01*
X12997500Y-14013500D02*
X13037500Y-14053500D01*
X13037500Y-14013500D02*
X12997500Y-14053500D01*
X12997500Y-14902500D02*
X13037500Y-14942500D01*
X13037500Y-14902500D02*
X12997500Y-14942500D01*
X13029250Y-11342800D02*
X13069250Y-11382800D01*
X13069250Y-11342800D02*
X13029250Y-11382800D01*
X13040100Y-11176900D02*
X13080100Y-11216900D01*
X13080100Y-11176900D02*
X13040100Y-11216900D01*
X13099100Y-9593900D02*
X13139100Y-9633900D01*
X13139100Y-9593900D02*
X13099100Y-9633900D01*
X13175300Y-9517700D02*
X13215300Y-9557700D01*
X13215300Y-9517700D02*
X13175300Y-9557700D01*
X13200700Y-11270300D02*
X13240700Y-11310300D01*
X13240700Y-11270300D02*
X13200700Y-11310300D01*
X13378500Y-11176900D02*
X13418500Y-11216900D01*
X13418500Y-11176900D02*
X13378500Y-11216900D01*
X13645200Y-11076100D02*
X13685200Y-11116100D01*
X13685200Y-11076100D02*
X13645200Y-11116100D01*
X14204000Y-9632000D02*
X14244000Y-9672000D01*
X14244000Y-9632000D02*
X14204000Y-9672000D01*
X14331000Y-9505000D02*
X14371000Y-9545000D01*
X14371000Y-9505000D02*
X14331000Y-9545000D01*
X5702070Y-11376130D02*
G75*
G03*
X5607070Y-11376130I-47500J0D01*
G01*
X5607070Y-11376130D02*
G75*
G03*
X5702070Y-11376130I47500J0D01*
G01*
X5878847Y-11199353D02*
G75*
G03*
X5783847Y-11199353I-47500J0D01*
G01*
X5783847Y-11199353D02*
G75*
G03*
X5878847Y-11199353I47500J0D01*
G01*
X6055623Y-11022577D02*
G75*
G03*
X5960623Y-11022577I-47500J0D01*
G01*
X5960623Y-11022577D02*
G75*
G03*
X6055623Y-11022577I47500J0D01*
G01*
X6232400Y-10845800D02*
G75*
G03*
X6137400Y-10845800I-47500J0D01*
G01*
X6137400Y-10845800D02*
G75*
G03*
X6232400Y-10845800I47500J0D01*
G01*
X8628000Y-15887700D02*
G75*
G03*
X8533000Y-15887700I-47500J0D01*
G01*
X8533000Y-15887700D02*
G75*
G03*
X8628000Y-15887700I47500J0D01*
G01*
X8638700Y-14581300D02*
G75*
G03*
X8543700Y-14581300I-47500J0D01*
G01*
X8543700Y-14581300D02*
G75*
G03*
X8638700Y-14581300I47500J0D01*
G01*
X8878000Y-15887700D02*
G75*
G03*
X8783000Y-15887700I-47500J0D01*
G01*
X8783000Y-15887700D02*
G75*
G03*
X8878000Y-15887700I47500J0D01*
G01*
X8888700Y-14581300D02*
G75*
G03*
X8793700Y-14581300I-47500J0D01*
G01*
X8793700Y-14581300D02*
G75*
G03*
X8888700Y-14581300I47500J0D01*
G01*
X9128000Y-15887700D02*
G75*
G03*
X9033000Y-15887700I-47500J0D01*
G01*
X9033000Y-15887700D02*
G75*
G03*
X9128000Y-15887700I47500J0D01*
G01*
X9138700Y-14581300D02*
G75*
G03*
X9043700Y-14581300I-47500J0D01*
G01*
X9043700Y-14581300D02*
G75*
G03*
X9138700Y-14581300I47500J0D01*
G01*
X9378000Y-15887700D02*
G75*
G03*
X9283000Y-15887700I-47500J0D01*
G01*
X9283000Y-15887700D02*
G75*
G03*
X9378000Y-15887700I47500J0D01*
G01*
X9388700Y-14581300D02*
G75*
G03*
X9293700Y-14581300I-47500J0D01*
G01*
X9293700Y-14581300D02*
G75*
G03*
X9388700Y-14581300I47500J0D01*
G01*
X10732200Y-15887700D02*
G75*
G03*
X10637200Y-15887700I-47500J0D01*
G01*
X10637200Y-15887700D02*
G75*
G03*
X10732200Y-15887700I47500J0D01*
G01*
X10752900Y-14579600D02*
G75*
G03*
X10657900Y-14579600I-47500J0D01*
G01*
X10657900Y-14579600D02*
G75*
G03*
X10752900Y-14579600I47500J0D01*
G01*
X10982200Y-15887700D02*
G75*
G03*
X10887200Y-15887700I-47500J0D01*
G01*
X10887200Y-15887700D02*
G75*
G03*
X10982200Y-15887700I47500J0D01*
G01*
X11002900Y-14579600D02*
G75*
G03*
X10907900Y-14579600I-47500J0D01*
G01*
X10907900Y-14579600D02*
G75*
G03*
X11002900Y-14579600I47500J0D01*
G01*
X11232200Y-15887700D02*
G75*
G03*
X11137200Y-15887700I-47500J0D01*
G01*
X11137200Y-15887700D02*
G75*
G03*
X11232200Y-15887700I47500J0D01*
G01*
X11252900Y-14579600D02*
G75*
G03*
X11157900Y-14579600I-47500J0D01*
G01*
X11157900Y-14579600D02*
G75*
G03*
X11252900Y-14579600I47500J0D01*
G01*
X11482200Y-15887700D02*
G75*
G03*
X11387200Y-15887700I-47500J0D01*
G01*
X11387200Y-15887700D02*
G75*
G03*
X11482200Y-15887700I47500J0D01*
G01*
X11502900Y-14579600D02*
G75*
G03*
X11407900Y-14579600I-47500J0D01*
G01*
X11407900Y-14579600D02*
G75*
G03*
X11502900Y-14579600I47500J0D01*
G01*
X5475400Y-6162300D02*
X5475400Y-6262300D01*
X5425400Y-6212300D02*
X5525400Y-6212300D01*
X5475400Y-6412300D02*
X5475400Y-6512300D01*
X5425400Y-6462300D02*
X5525400Y-6462300D01*
X5587300Y-13408100D02*
X5587300Y-13508100D01*
X5537300Y-13458100D02*
X5637300Y-13458100D01*
X5587300Y-14508100D02*
X5587300Y-14608100D01*
X5537300Y-14558100D02*
X5637300Y-14558100D01*
X6214300Y-5347500D02*
X6214300Y-5447500D01*
X6164300Y-5397500D02*
X6264300Y-5397500D01*
X6464300Y-5347500D02*
X6464300Y-5447500D01*
X6414300Y-5397500D02*
X6514300Y-5397500D01*
X7937500Y-15634500D02*
X7937500Y-15734500D01*
X7887500Y-15684500D02*
X7987500Y-15684500D01*
X7937500Y-15884500D02*
X7937500Y-15984500D01*
X7887500Y-15934500D02*
X7987500Y-15934500D01*
X7950200Y-9830600D02*
X7950200Y-9930600D01*
X7900200Y-9880600D02*
X8000200Y-9880600D01*
X7950200Y-10080600D02*
X7950200Y-10180600D01*
X7900200Y-10130600D02*
X8000200Y-10130600D01*
X8001000Y-6617500D02*
X8001000Y-6717500D01*
X7951000Y-6667500D02*
X8051000Y-6667500D01*
X8001000Y-6871500D02*
X8001000Y-6971500D01*
X7951000Y-6921500D02*
X8051000Y-6921500D01*
X8001000Y-7506500D02*
X8001000Y-7606500D01*
X7951000Y-7556500D02*
X8051000Y-7556500D01*
X8001000Y-7760500D02*
X8001000Y-7860500D01*
X7951000Y-7810500D02*
X8051000Y-7810500D01*
X8001000Y-8014500D02*
X8001000Y-8114500D01*
X7951000Y-8064500D02*
X8051000Y-8064500D01*
X8001000Y-8268500D02*
X8001000Y-8368500D01*
X7951000Y-8318500D02*
X8051000Y-8318500D01*
X8382000Y-6477800D02*
X8382000Y-6577800D01*
X8332000Y-6527800D02*
X8432000Y-6527800D01*
X8382000Y-6731800D02*
X8382000Y-6831800D01*
X8332000Y-6781800D02*
X8432000Y-6781800D01*
X8382000Y-6985800D02*
X8382000Y-7085800D01*
X8332000Y-7035800D02*
X8432000Y-7035800D01*
X8382000Y-7239800D02*
X8382000Y-7339800D01*
X8332000Y-7289800D02*
X8432000Y-7289800D01*
X8382000Y-7493800D02*
X8382000Y-7593800D01*
X8332000Y-7543800D02*
X8432000Y-7543800D01*
X8382000Y-7747800D02*
X8382000Y-7847800D01*
X8332000Y-7797800D02*
X8432000Y-7797800D01*
X8382000Y-8001800D02*
X8382000Y-8101800D01*
X8332000Y-8051800D02*
X8432000Y-8051800D01*
X8382000Y-8255800D02*
X8382000Y-8355800D01*
X8332000Y-8305800D02*
X8432000Y-8305800D01*
X9652000Y-6109500D02*
X9652000Y-6209500D01*
X9602000Y-6159500D02*
X9702000Y-6159500D01*
X9906000Y-6109500D02*
X9906000Y-6209500D01*
X9856000Y-6159500D02*
X9956000Y-6159500D01*
X9908000Y-15137500D02*
X9908000Y-15237500D01*
X9858000Y-15187500D02*
X9958000Y-15187500D01*
X10158000Y-15137500D02*
X10158000Y-15237500D01*
X10108000Y-15187500D02*
X10208000Y-15187500D01*
X10160000Y-6109500D02*
X10160000Y-6209500D01*
X10110000Y-6159500D02*
X10210000Y-6159500D01*
X10414000Y-5728500D02*
X10414000Y-5828500D01*
X10364000Y-5778500D02*
X10464000Y-5778500D01*
X10414000Y-6109500D02*
X10414000Y-6209500D01*
X10364000Y-6159500D02*
X10464000Y-6159500D01*
X10668000Y-5728500D02*
X10668000Y-5828500D01*
X10618000Y-5778500D02*
X10718000Y-5778500D01*
X10668000Y-6109500D02*
X10668000Y-6209500D01*
X10618000Y-6159500D02*
X10718000Y-6159500D01*
X10922000Y-5728500D02*
X10922000Y-5828500D01*
X10872000Y-5778500D02*
X10972000Y-5778500D01*
X11176000Y-5728500D02*
X11176000Y-5828500D01*
X11126000Y-5778500D02*
X11226000Y-5778500D01*
X11314000Y-9350000D02*
X11314000Y-9450000D01*
X11264000Y-9400000D02*
X11364000Y-9400000D01*
X11314000Y-9600000D02*
X11314000Y-9700000D01*
X11264000Y-9650000D02*
X11364000Y-9650000D01*
X11430000Y-5728500D02*
X11430000Y-5828500D01*
X11380000Y-5778500D02*
X11480000Y-5778500D01*
X11607800Y-6490500D02*
X11607800Y-6590500D01*
X11557800Y-6540500D02*
X11657800Y-6540500D01*
X11607800Y-6744500D02*
X11607800Y-6844500D01*
X11557800Y-6794500D02*
X11657800Y-6794500D01*
X11607800Y-6998500D02*
X11607800Y-7098500D01*
X11557800Y-7048500D02*
X11657800Y-7048500D01*
X11607800Y-7252500D02*
X11607800Y-7352500D01*
X11557800Y-7302500D02*
X11657800Y-7302500D01*
X11607800Y-7506500D02*
X11607800Y-7606500D01*
X11557800Y-7556500D02*
X11657800Y-7556500D01*
X11607800Y-7760500D02*
X11607800Y-7860500D01*
X11557800Y-7810500D02*
X11657800Y-7810500D01*
X11607800Y-8014500D02*
X11607800Y-8114500D01*
X11557800Y-8064500D02*
X11657800Y-8064500D01*
X11607800Y-8268500D02*
X11607800Y-8368500D01*
X11557800Y-8318500D02*
X11657800Y-8318500D01*
X12077700Y-5880900D02*
X12077700Y-5980900D01*
X12027700Y-5930900D02*
X12127700Y-5930900D01*
X12077700Y-6134900D02*
X12077700Y-6234900D01*
X12027700Y-6184900D02*
X12127700Y-6184900D01*
X12077700Y-6388900D02*
X12077700Y-6488900D01*
X12027700Y-6438900D02*
X12127700Y-6438900D01*
X12077700Y-6642900D02*
X12077700Y-6742900D01*
X12027700Y-6692900D02*
X12127700Y-6692900D01*
X12077700Y-6896900D02*
X12077700Y-6996900D01*
X12027700Y-6946900D02*
X12127700Y-6946900D01*
X12077700Y-7150900D02*
X12077700Y-7250900D01*
X12027700Y-7200900D02*
X12127700Y-7200900D01*
X12077700Y-7404900D02*
X12077700Y-7504900D01*
X12027700Y-7454900D02*
X12127700Y-7454900D01*
X12077700Y-7658900D02*
X12077700Y-7758900D01*
X12027700Y-7708900D02*
X12127700Y-7708900D01*
X12077700Y-7912900D02*
X12077700Y-8012900D01*
X12027700Y-7962900D02*
X12127700Y-7962900D01*
X12077700Y-8166900D02*
X12077700Y-8266900D01*
X12027700Y-8216900D02*
X12127700Y-8216900D01*
X12077700Y-8420900D02*
X12077700Y-8520900D01*
X12027700Y-8470900D02*
X12127700Y-8470900D01*
X12077700Y-8674900D02*
X12077700Y-8774900D01*
X12027700Y-8724900D02*
X12127700Y-8724900D01*
X12077700Y-8928900D02*
X12077700Y-9028900D01*
X12027700Y-8978900D02*
X12127700Y-8978900D01*
X12077700Y-9182900D02*
X12077700Y-9282900D01*
X12027700Y-9232900D02*
X12127700Y-9232900D01*
X12077700Y-9436900D02*
X12077700Y-9536900D01*
X12027700Y-9486900D02*
X12127700Y-9486900D01*
X12077700Y-9690900D02*
X12077700Y-9790900D01*
X12027700Y-9740900D02*
X12127700Y-9740900D01*
X12077700Y-9944900D02*
X12077700Y-10044900D01*
X12027700Y-9994900D02*
X12127700Y-9994900D01*
X12077700Y-10198900D02*
X12077700Y-10298900D01*
X12027700Y-10248900D02*
X12127700Y-10248900D01*
X12077700Y-10452900D02*
X12077700Y-10552900D01*
X12027700Y-10502900D02*
X12127700Y-10502900D01*
X12077700Y-10706900D02*
X12077700Y-10806900D01*
X12027700Y-10756900D02*
X12127700Y-10756900D01*
X12712700Y-10683900D02*
X12712700Y-10783900D01*
X12662700Y-10733900D02*
X12762700Y-10733900D01*
X12966700Y-10683900D02*
X12966700Y-10783900D01*
X12916700Y-10733900D02*
X13016700Y-10733900D01*
X13025120Y-8863900D02*
X13025120Y-8963900D01*
X12975120Y-8913900D02*
X13075120Y-8913900D01*
X13220700Y-10683900D02*
X13220700Y-10783900D01*
X13170700Y-10733900D02*
X13270700Y-10733900D01*
X13279120Y-8863900D02*
X13279120Y-8963900D01*
X13229120Y-8913900D02*
X13329120Y-8913900D01*
X13533120Y-8863900D02*
X13533120Y-8963900D01*
X13483120Y-8913900D02*
X13583120Y-8913900D01*
X13602723Y-14592077D02*
X13602723Y-14692077D01*
X13552723Y-14642077D02*
X13652723Y-14642077D01*
X13779500Y-14415300D02*
X13779500Y-14515300D01*
X13729500Y-14465300D02*
X13829500Y-14465300D01*
X13855700Y-5880900D02*
X13855700Y-5980900D01*
X13805700Y-5930900D02*
X13905700Y-5930900D01*
X13855700Y-6134900D02*
X13855700Y-6234900D01*
X13805700Y-6184900D02*
X13905700Y-6184900D01*
X13855700Y-6388900D02*
X13855700Y-6488900D01*
X13805700Y-6438900D02*
X13905700Y-6438900D01*
X13855700Y-6642900D02*
X13855700Y-6742900D01*
X13805700Y-6692900D02*
X13905700Y-6692900D01*
X13855700Y-6896900D02*
X13855700Y-6996900D01*
X13805700Y-6946900D02*
X13905700Y-6946900D01*
X13855700Y-7150900D02*
X13855700Y-7250900D01*
X13805700Y-7200900D02*
X13905700Y-7200900D01*
X13855700Y-7404900D02*
X13855700Y-7504900D01*
X13805700Y-7454900D02*
X13905700Y-7454900D01*
X13855700Y-7658900D02*
X13855700Y-7758900D01*
X13805700Y-7708900D02*
X13905700Y-7708900D01*
X13855700Y-7912900D02*
X13855700Y-8012900D01*
X13805700Y-7962900D02*
X13905700Y-7962900D01*
X13855700Y-8166900D02*
X13855700Y-8266900D01*
X13805700Y-8216900D02*
X13905700Y-8216900D01*
X13855700Y-8420900D02*
X13855700Y-8520900D01*
X13805700Y-8470900D02*
X13905700Y-8470900D01*
X13855700Y-8674900D02*
X13855700Y-8774900D01*
X13805700Y-8724900D02*
X13905700Y-8724900D01*
X13855700Y-8928900D02*
X13855700Y-9028900D01*
X13805700Y-8978900D02*
X13905700Y-8978900D01*
X13855700Y-9182900D02*
X13855700Y-9282900D01*
X13805700Y-9232900D02*
X13905700Y-9232900D01*
X13855700Y-9436900D02*
X13855700Y-9536900D01*
X13805700Y-9486900D02*
X13905700Y-9486900D01*
X13855700Y-9690900D02*
X13855700Y-9790900D01*
X13805700Y-9740900D02*
X13905700Y-9740900D01*
X13855700Y-9944900D02*
X13855700Y-10044900D01*
X13805700Y-9994900D02*
X13905700Y-9994900D01*
X13855700Y-10198900D02*
X13855700Y-10298900D01*
X13805700Y-10248900D02*
X13905700Y-10248900D01*
X13855700Y-10452900D02*
X13855700Y-10552900D01*
X13805700Y-10502900D02*
X13905700Y-10502900D01*
X13855700Y-10706900D02*
X13855700Y-10806900D01*
X13805700Y-10756900D02*
X13905700Y-10756900D01*
X13906500Y-16460000D02*
X13906500Y-16560000D01*
X13856500Y-16510000D02*
X13956500Y-16510000D01*
X14160500Y-16460000D02*
X14160500Y-16560000D01*
X14110500Y-16510000D02*
X14210500Y-16510000D01*
X14414500Y-16460000D02*
X14414500Y-16560000D01*
X14364500Y-16510000D02*
X14464500Y-16510000D01*
X14431200Y-6046000D02*
X14431200Y-6146000D01*
X14381200Y-6096000D02*
X14481200Y-6096000D01*
X14453623Y-13728477D02*
X14453623Y-13828477D01*
X14403623Y-13778477D02*
X14503623Y-13778477D01*
X14630400Y-13551700D02*
X14630400Y-13651700D01*
X14580400Y-13601700D02*
X14680400Y-13601700D01*
X14681200Y-6046000D02*
X14681200Y-6146000D01*
X14631200Y-6096000D02*
X14731200Y-6096000D01*
X15145685Y-8045315D02*
X15145685Y-8145315D01*
X15095685Y-8095315D02*
X15195685Y-8095315D01*
X15325290Y-7865710D02*
X15325290Y-7965710D01*
X15275290Y-7915710D02*
X15375290Y-7915710D01*
X15368489Y-15431765D02*
X15368489Y-15531765D01*
X15318489Y-15481765D02*
X15418489Y-15481765D01*
X15504895Y-7686105D02*
X15504895Y-7786105D01*
X15454895Y-7736105D02*
X15554895Y-7736105D01*
X15545265Y-15254989D02*
X15545265Y-15354989D01*
X15495265Y-15304989D02*
X15595265Y-15304989D01*
X15684500Y-7506500D02*
X15684500Y-7606500D01*
X15634500Y-7556500D02*
X15734500Y-7556500D01*
X15864105Y-7326895D02*
X15864105Y-7426895D01*
X15814105Y-7376895D02*
X15914105Y-7376895D01*
X16079223Y-14731777D02*
X16079223Y-14831777D01*
X16029223Y-14781777D02*
X16129223Y-14781777D01*
X16256000Y-14555000D02*
X16256000Y-14655000D01*
X16206000Y-14605000D02*
X16306000Y-14605000D01*
D12*
X6197590Y-6285634D02*
X6197590Y-6213508D01*
X6125464Y-6213508D01*
X6125464Y-6285634D01*
X6197590Y-6285634D01*
X6197590Y-8885634D02*
X6197590Y-8813508D01*
X6125464Y-8813508D01*
X6125464Y-8885634D01*
X6197590Y-8885634D01*
X6451590Y-6285634D02*
X6451590Y-6213508D01*
X6379464Y-6213508D01*
X6379464Y-6285634D01*
X6451590Y-6285634D01*
X6451590Y-8885634D02*
X6451590Y-8813508D01*
X6379464Y-8813508D01*
X6379464Y-8885634D01*
X6451590Y-8885634D01*
X7340590Y-6285634D02*
X7340590Y-6213508D01*
X7268464Y-6213508D01*
X7268464Y-6285634D01*
X7340590Y-6285634D01*
X7340590Y-8885634D02*
X7340590Y-8813508D01*
X7268464Y-8813508D01*
X7268464Y-8885634D01*
X7340590Y-8885634D01*
X7594590Y-6285634D02*
X7594590Y-6213508D01*
X7522464Y-6213508D01*
X7522464Y-6285634D01*
X7594590Y-6285634D01*
X7594590Y-8885634D02*
X7594590Y-8813508D01*
X7522464Y-8813508D01*
X7522464Y-8885634D01*
X7594590Y-8885634D01*
D13*
X5087300Y-13853100D02*
X5182300Y-13758100D01*
X5087300Y-13663100D01*
X4992300Y-13758100D01*
X5087300Y-13853100D01*
X5087300Y-14353100D02*
X5182300Y-14258100D01*
X5087300Y-14163100D01*
X4992300Y-14258100D01*
X5087300Y-14353100D01*
D10*
X2850777Y-18220834D02*
X2850777Y-18020834D01*
X2850777Y-18020834D02*
X2898396Y-18020834D01*
X2898396Y-18020834D02*
X2926967Y-18030358D01*
X2926967Y-18030358D02*
X2946015Y-18049406D01*
X2946015Y-18049406D02*
X2955539Y-18068453D01*
X2955539Y-18068453D02*
X2965062Y-18106549D01*
X2965062Y-18106549D02*
X2965062Y-18135120D01*
X2965062Y-18135120D02*
X2955539Y-18173215D01*
X2955539Y-18173215D02*
X2946015Y-18192263D01*
X2946015Y-18192263D02*
X2926967Y-18211311D01*
X2926967Y-18211311D02*
X2898396Y-18220834D01*
X2898396Y-18220834D02*
X2850777Y-18220834D01*
X3050777Y-18220834D02*
X3050777Y-18087501D01*
X3050777Y-18125596D02*
X3060301Y-18106549D01*
X3060301Y-18106549D02*
X3069824Y-18097025D01*
X3069824Y-18097025D02*
X3088872Y-18087501D01*
X3088872Y-18087501D02*
X3107920Y-18087501D01*
X3174586Y-18220834D02*
X3174586Y-18087501D01*
X3174586Y-18020834D02*
X3165062Y-18030358D01*
X3165062Y-18030358D02*
X3174586Y-18039882D01*
X3174586Y-18039882D02*
X3184110Y-18030358D01*
X3184110Y-18030358D02*
X3174586Y-18020834D01*
X3174586Y-18020834D02*
X3174586Y-18039882D01*
X3298396Y-18220834D02*
X3279348Y-18211311D01*
X3279348Y-18211311D02*
X3269824Y-18192263D01*
X3269824Y-18192263D02*
X3269824Y-18020834D01*
X3403158Y-18220834D02*
X3384110Y-18211311D01*
X3384110Y-18211311D02*
X3374586Y-18192263D01*
X3374586Y-18192263D02*
X3374586Y-18020834D01*
X3631729Y-18220834D02*
X3631729Y-18020834D01*
X3631729Y-18020834D02*
X3698396Y-18163691D01*
X3698396Y-18163691D02*
X3765062Y-18020834D01*
X3765062Y-18020834D02*
X3765062Y-18220834D01*
X3946015Y-18220834D02*
X3946015Y-18116072D01*
X3946015Y-18116072D02*
X3936491Y-18097025D01*
X3936491Y-18097025D02*
X3917443Y-18087501D01*
X3917443Y-18087501D02*
X3879348Y-18087501D01*
X3879348Y-18087501D02*
X3860301Y-18097025D01*
X3946015Y-18211311D02*
X3926967Y-18220834D01*
X3926967Y-18220834D02*
X3879348Y-18220834D01*
X3879348Y-18220834D02*
X3860301Y-18211311D01*
X3860301Y-18211311D02*
X3850777Y-18192263D01*
X3850777Y-18192263D02*
X3850777Y-18173215D01*
X3850777Y-18173215D02*
X3860301Y-18154168D01*
X3860301Y-18154168D02*
X3879348Y-18144644D01*
X3879348Y-18144644D02*
X3926967Y-18144644D01*
X3926967Y-18144644D02*
X3946015Y-18135120D01*
X4041253Y-18087501D02*
X4041253Y-18287501D01*
X4041253Y-18097025D02*
X4060301Y-18087501D01*
X4060301Y-18087501D02*
X4098396Y-18087501D01*
X4098396Y-18087501D02*
X4117443Y-18097025D01*
X4117443Y-18097025D02*
X4126967Y-18106549D01*
X4126967Y-18106549D02*
X4136491Y-18125596D01*
X4136491Y-18125596D02*
X4136491Y-18182739D01*
X4136491Y-18182739D02*
X4126967Y-18201787D01*
X4126967Y-18201787D02*
X4117443Y-18211311D01*
X4117443Y-18211311D02*
X4098396Y-18220834D01*
X4098396Y-18220834D02*
X4060301Y-18220834D01*
X4060301Y-18220834D02*
X4041253Y-18211311D01*
X4222205Y-18201787D02*
X4231729Y-18211311D01*
X4231729Y-18211311D02*
X4222205Y-18220834D01*
X4222205Y-18220834D02*
X4212682Y-18211311D01*
X4212682Y-18211311D02*
X4222205Y-18201787D01*
X4222205Y-18201787D02*
X4222205Y-18220834D01*
X4222205Y-18097025D02*
X4231729Y-18106549D01*
X4231729Y-18106549D02*
X4222205Y-18116072D01*
X4222205Y-18116072D02*
X4212682Y-18106549D01*
X4212682Y-18106549D02*
X4222205Y-18097025D01*
X4222205Y-18097025D02*
X4222205Y-18116072D01*
D11*
X2550000Y-18529351D02*
X2590000Y-18569351D01*
X2590000Y-18529351D02*
X2550000Y-18569351D01*
D10*
X2888872Y-18440834D02*
X2907920Y-18440834D01*
X2907920Y-18440834D02*
X2926967Y-18450358D01*
X2926967Y-18450358D02*
X2936491Y-18459882D01*
X2936491Y-18459882D02*
X2946015Y-18478930D01*
X2946015Y-18478930D02*
X2955539Y-18517025D01*
X2955539Y-18517025D02*
X2955539Y-18564644D01*
X2955539Y-18564644D02*
X2946015Y-18602739D01*
X2946015Y-18602739D02*
X2936491Y-18621787D01*
X2936491Y-18621787D02*
X2926967Y-18631311D01*
X2926967Y-18631311D02*
X2907920Y-18640834D01*
X2907920Y-18640834D02*
X2888872Y-18640834D01*
X2888872Y-18640834D02*
X2869824Y-18631311D01*
X2869824Y-18631311D02*
X2860301Y-18621787D01*
X2860301Y-18621787D02*
X2850777Y-18602739D01*
X2850777Y-18602739D02*
X2841253Y-18564644D01*
X2841253Y-18564644D02*
X2841253Y-18517025D01*
X2841253Y-18517025D02*
X2850777Y-18478930D01*
X2850777Y-18478930D02*
X2860301Y-18459882D01*
X2860301Y-18459882D02*
X2869824Y-18450358D01*
X2869824Y-18450358D02*
X2888872Y-18440834D01*
X3041253Y-18621787D02*
X3050777Y-18631311D01*
X3050777Y-18631311D02*
X3041253Y-18640834D01*
X3041253Y-18640834D02*
X3031729Y-18631311D01*
X3031729Y-18631311D02*
X3041253Y-18621787D01*
X3041253Y-18621787D02*
X3041253Y-18640834D01*
X3222205Y-18507501D02*
X3222205Y-18640834D01*
X3174586Y-18431311D02*
X3126967Y-18574168D01*
X3126967Y-18574168D02*
X3250777Y-18574168D01*
X3365062Y-18440834D02*
X3384110Y-18440834D01*
X3384110Y-18440834D02*
X3403158Y-18450358D01*
X3403158Y-18450358D02*
X3412682Y-18459882D01*
X3412682Y-18459882D02*
X3422205Y-18478930D01*
X3422205Y-18478930D02*
X3431729Y-18517025D01*
X3431729Y-18517025D02*
X3431729Y-18564644D01*
X3431729Y-18564644D02*
X3422205Y-18602739D01*
X3422205Y-18602739D02*
X3412682Y-18621787D01*
X3412682Y-18621787D02*
X3403158Y-18631311D01*
X3403158Y-18631311D02*
X3384110Y-18640834D01*
X3384110Y-18640834D02*
X3365062Y-18640834D01*
X3365062Y-18640834D02*
X3346015Y-18631311D01*
X3346015Y-18631311D02*
X3336491Y-18621787D01*
X3336491Y-18621787D02*
X3326967Y-18602739D01*
X3326967Y-18602739D02*
X3317443Y-18564644D01*
X3317443Y-18564644D02*
X3317443Y-18517025D01*
X3317443Y-18517025D02*
X3326967Y-18478930D01*
X3326967Y-18478930D02*
X3336491Y-18459882D01*
X3336491Y-18459882D02*
X3346015Y-18450358D01*
X3346015Y-18450358D02*
X3365062Y-18440834D01*
X3555539Y-18440834D02*
X3574586Y-18440834D01*
X3574586Y-18440834D02*
X3593634Y-18450358D01*
X3593634Y-18450358D02*
X3603158Y-18459882D01*
X3603158Y-18459882D02*
X3612682Y-18478930D01*
X3612682Y-18478930D02*
X3622205Y-18517025D01*
X3622205Y-18517025D02*
X3622205Y-18564644D01*
X3622205Y-18564644D02*
X3612682Y-18602739D01*
X3612682Y-18602739D02*
X3603158Y-18621787D01*
X3603158Y-18621787D02*
X3593634Y-18631311D01*
X3593634Y-18631311D02*
X3574586Y-18640834D01*
X3574586Y-18640834D02*
X3555539Y-18640834D01*
X3555539Y-18640834D02*
X3536491Y-18631311D01*
X3536491Y-18631311D02*
X3526967Y-18621787D01*
X3526967Y-18621787D02*
X3517443Y-18602739D01*
X3517443Y-18602739D02*
X3507920Y-18564644D01*
X3507920Y-18564644D02*
X3507920Y-18517025D01*
X3507920Y-18517025D02*
X3517443Y-18478930D01*
X3517443Y-18478930D02*
X3526967Y-18459882D01*
X3526967Y-18459882D02*
X3536491Y-18450358D01*
X3536491Y-18450358D02*
X3555539Y-18440834D01*
X3707920Y-18640834D02*
X3707920Y-18507501D01*
X3707920Y-18526549D02*
X3717443Y-18517025D01*
X3717443Y-18517025D02*
X3736491Y-18507501D01*
X3736491Y-18507501D02*
X3765063Y-18507501D01*
X3765063Y-18507501D02*
X3784110Y-18517025D01*
X3784110Y-18517025D02*
X3793634Y-18536072D01*
X3793634Y-18536072D02*
X3793634Y-18640834D01*
X3793634Y-18536072D02*
X3803158Y-18517025D01*
X3803158Y-18517025D02*
X3822205Y-18507501D01*
X3822205Y-18507501D02*
X3850777Y-18507501D01*
X3850777Y-18507501D02*
X3869824Y-18517025D01*
X3869824Y-18517025D02*
X3879348Y-18536072D01*
X3879348Y-18536072D02*
X3879348Y-18640834D01*
X3974586Y-18640834D02*
X3974586Y-18507501D01*
X3974586Y-18526549D02*
X3984110Y-18517025D01*
X3984110Y-18517025D02*
X4003158Y-18507501D01*
X4003158Y-18507501D02*
X4031729Y-18507501D01*
X4031729Y-18507501D02*
X4050777Y-18517025D01*
X4050777Y-18517025D02*
X4060301Y-18536072D01*
X4060301Y-18536072D02*
X4060301Y-18640834D01*
X4060301Y-18536072D02*
X4069824Y-18517025D01*
X4069824Y-18517025D02*
X4088872Y-18507501D01*
X4088872Y-18507501D02*
X4117443Y-18507501D01*
X4117443Y-18507501D02*
X4136491Y-18517025D01*
X4136491Y-18517025D02*
X4146015Y-18536072D01*
X4146015Y-18536072D02*
X4146015Y-18640834D01*
X4536491Y-18431311D02*
X4365063Y-18688453D01*
X4793634Y-18440834D02*
X4812682Y-18440834D01*
X4812682Y-18440834D02*
X4831729Y-18450358D01*
X4831729Y-18450358D02*
X4841253Y-18459882D01*
X4841253Y-18459882D02*
X4850777Y-18478930D01*
X4850777Y-18478930D02*
X4860301Y-18517025D01*
X4860301Y-18517025D02*
X4860301Y-18564644D01*
X4860301Y-18564644D02*
X4850777Y-18602739D01*
X4850777Y-18602739D02*
X4841253Y-18621787D01*
X4841253Y-18621787D02*
X4831729Y-18631311D01*
X4831729Y-18631311D02*
X4812682Y-18640834D01*
X4812682Y-18640834D02*
X4793634Y-18640834D01*
X4793634Y-18640834D02*
X4774587Y-18631311D01*
X4774587Y-18631311D02*
X4765063Y-18621787D01*
X4765063Y-18621787D02*
X4755539Y-18602739D01*
X4755539Y-18602739D02*
X4746015Y-18564644D01*
X4746015Y-18564644D02*
X4746015Y-18517025D01*
X4746015Y-18517025D02*
X4755539Y-18478930D01*
X4755539Y-18478930D02*
X4765063Y-18459882D01*
X4765063Y-18459882D02*
X4774587Y-18450358D01*
X4774587Y-18450358D02*
X4793634Y-18440834D01*
X4946015Y-18621787D02*
X4955539Y-18631311D01*
X4955539Y-18631311D02*
X4946015Y-18640834D01*
X4946015Y-18640834D02*
X4936491Y-18631311D01*
X4936491Y-18631311D02*
X4946015Y-18621787D01*
X4946015Y-18621787D02*
X4946015Y-18640834D01*
X5079348Y-18440834D02*
X5098396Y-18440834D01*
X5098396Y-18440834D02*
X5117444Y-18450358D01*
X5117444Y-18450358D02*
X5126968Y-18459882D01*
X5126968Y-18459882D02*
X5136491Y-18478930D01*
X5136491Y-18478930D02*
X5146015Y-18517025D01*
X5146015Y-18517025D02*
X5146015Y-18564644D01*
X5146015Y-18564644D02*
X5136491Y-18602739D01*
X5136491Y-18602739D02*
X5126968Y-18621787D01*
X5126968Y-18621787D02*
X5117444Y-18631311D01*
X5117444Y-18631311D02*
X5098396Y-18640834D01*
X5098396Y-18640834D02*
X5079348Y-18640834D01*
X5079348Y-18640834D02*
X5060301Y-18631311D01*
X5060301Y-18631311D02*
X5050777Y-18621787D01*
X5050777Y-18621787D02*
X5041253Y-18602739D01*
X5041253Y-18602739D02*
X5031729Y-18564644D01*
X5031729Y-18564644D02*
X5031729Y-18517025D01*
X5031729Y-18517025D02*
X5041253Y-18478930D01*
X5041253Y-18478930D02*
X5050777Y-18459882D01*
X5050777Y-18459882D02*
X5060301Y-18450358D01*
X5060301Y-18450358D02*
X5079348Y-18440834D01*
X5336491Y-18640834D02*
X5222206Y-18640834D01*
X5279348Y-18640834D02*
X5279348Y-18440834D01*
X5279348Y-18440834D02*
X5260301Y-18469406D01*
X5260301Y-18469406D02*
X5241253Y-18488453D01*
X5241253Y-18488453D02*
X5222206Y-18497977D01*
X5517444Y-18440834D02*
X5422206Y-18440834D01*
X5422206Y-18440834D02*
X5412682Y-18536072D01*
X5412682Y-18536072D02*
X5422206Y-18526549D01*
X5422206Y-18526549D02*
X5441253Y-18517025D01*
X5441253Y-18517025D02*
X5488872Y-18517025D01*
X5488872Y-18517025D02*
X5507920Y-18526549D01*
X5507920Y-18526549D02*
X5517444Y-18536072D01*
X5517444Y-18536072D02*
X5526968Y-18555120D01*
X5526968Y-18555120D02*
X5526968Y-18602739D01*
X5526968Y-18602739D02*
X5517444Y-18621787D01*
X5517444Y-18621787D02*
X5507920Y-18631311D01*
X5507920Y-18631311D02*
X5488872Y-18640834D01*
X5488872Y-18640834D02*
X5441253Y-18640834D01*
X5441253Y-18640834D02*
X5422206Y-18631311D01*
X5422206Y-18631311D02*
X5412682Y-18621787D01*
X5593634Y-18440834D02*
X5726967Y-18440834D01*
X5726967Y-18440834D02*
X5641253Y-18640834D01*
X5793634Y-18440834D02*
X5793634Y-18478930D01*
X5869825Y-18440834D02*
X5869825Y-18478930D01*
X6165063Y-18717025D02*
X6155539Y-18707501D01*
X6155539Y-18707501D02*
X6136491Y-18678930D01*
X6136491Y-18678930D02*
X6126968Y-18659882D01*
X6126968Y-18659882D02*
X6117444Y-18631311D01*
X6117444Y-18631311D02*
X6107920Y-18583691D01*
X6107920Y-18583691D02*
X6107920Y-18545596D01*
X6107920Y-18545596D02*
X6117444Y-18497977D01*
X6117444Y-18497977D02*
X6126968Y-18469406D01*
X6126968Y-18469406D02*
X6136491Y-18450358D01*
X6136491Y-18450358D02*
X6155539Y-18421787D01*
X6155539Y-18421787D02*
X6165063Y-18412263D01*
X6231729Y-18459882D02*
X6241253Y-18450358D01*
X6241253Y-18450358D02*
X6260301Y-18440834D01*
X6260301Y-18440834D02*
X6307920Y-18440834D01*
X6307920Y-18440834D02*
X6326968Y-18450358D01*
X6326968Y-18450358D02*
X6336491Y-18459882D01*
X6336491Y-18459882D02*
X6346015Y-18478930D01*
X6346015Y-18478930D02*
X6346015Y-18497977D01*
X6346015Y-18497977D02*
X6336491Y-18526549D01*
X6336491Y-18526549D02*
X6222206Y-18640834D01*
X6222206Y-18640834D02*
X6346015Y-18640834D01*
X6422206Y-18459882D02*
X6431729Y-18450358D01*
X6431729Y-18450358D02*
X6450777Y-18440834D01*
X6450777Y-18440834D02*
X6498396Y-18440834D01*
X6498396Y-18440834D02*
X6517444Y-18450358D01*
X6517444Y-18450358D02*
X6526968Y-18459882D01*
X6526968Y-18459882D02*
X6536491Y-18478930D01*
X6536491Y-18478930D02*
X6536491Y-18497977D01*
X6536491Y-18497977D02*
X6526968Y-18526549D01*
X6526968Y-18526549D02*
X6412682Y-18640834D01*
X6412682Y-18640834D02*
X6536491Y-18640834D01*
X6774587Y-18640834D02*
X6774587Y-18440834D01*
X6860301Y-18640834D02*
X6860301Y-18536072D01*
X6860301Y-18536072D02*
X6850777Y-18517025D01*
X6850777Y-18517025D02*
X6831730Y-18507501D01*
X6831730Y-18507501D02*
X6803158Y-18507501D01*
X6803158Y-18507501D02*
X6784110Y-18517025D01*
X6784110Y-18517025D02*
X6774587Y-18526549D01*
X6984110Y-18640834D02*
X6965063Y-18631311D01*
X6965063Y-18631311D02*
X6955539Y-18621787D01*
X6955539Y-18621787D02*
X6946015Y-18602739D01*
X6946015Y-18602739D02*
X6946015Y-18545596D01*
X6946015Y-18545596D02*
X6955539Y-18526549D01*
X6955539Y-18526549D02*
X6965063Y-18517025D01*
X6965063Y-18517025D02*
X6984110Y-18507501D01*
X6984110Y-18507501D02*
X7012682Y-18507501D01*
X7012682Y-18507501D02*
X7031730Y-18517025D01*
X7031730Y-18517025D02*
X7041253Y-18526549D01*
X7041253Y-18526549D02*
X7050777Y-18545596D01*
X7050777Y-18545596D02*
X7050777Y-18602739D01*
X7050777Y-18602739D02*
X7041253Y-18621787D01*
X7041253Y-18621787D02*
X7031730Y-18631311D01*
X7031730Y-18631311D02*
X7012682Y-18640834D01*
X7012682Y-18640834D02*
X6984110Y-18640834D01*
X7165063Y-18640834D02*
X7146015Y-18631311D01*
X7146015Y-18631311D02*
X7136491Y-18612263D01*
X7136491Y-18612263D02*
X7136491Y-18440834D01*
X7317444Y-18631311D02*
X7298396Y-18640834D01*
X7298396Y-18640834D02*
X7260301Y-18640834D01*
X7260301Y-18640834D02*
X7241253Y-18631311D01*
X7241253Y-18631311D02*
X7231730Y-18612263D01*
X7231730Y-18612263D02*
X7231730Y-18536072D01*
X7231730Y-18536072D02*
X7241253Y-18517025D01*
X7241253Y-18517025D02*
X7260301Y-18507501D01*
X7260301Y-18507501D02*
X7298396Y-18507501D01*
X7298396Y-18507501D02*
X7317444Y-18517025D01*
X7317444Y-18517025D02*
X7326968Y-18536072D01*
X7326968Y-18536072D02*
X7326968Y-18555120D01*
X7326968Y-18555120D02*
X7231730Y-18574168D01*
X7403158Y-18631311D02*
X7422206Y-18640834D01*
X7422206Y-18640834D02*
X7460301Y-18640834D01*
X7460301Y-18640834D02*
X7479349Y-18631311D01*
X7479349Y-18631311D02*
X7488872Y-18612263D01*
X7488872Y-18612263D02*
X7488872Y-18602739D01*
X7488872Y-18602739D02*
X7479349Y-18583691D01*
X7479349Y-18583691D02*
X7460301Y-18574168D01*
X7460301Y-18574168D02*
X7431730Y-18574168D01*
X7431730Y-18574168D02*
X7412682Y-18564644D01*
X7412682Y-18564644D02*
X7403158Y-18545596D01*
X7403158Y-18545596D02*
X7403158Y-18536072D01*
X7403158Y-18536072D02*
X7412682Y-18517025D01*
X7412682Y-18517025D02*
X7431730Y-18507501D01*
X7431730Y-18507501D02*
X7460301Y-18507501D01*
X7460301Y-18507501D02*
X7479349Y-18517025D01*
X7555539Y-18717025D02*
X7565063Y-18707501D01*
X7565063Y-18707501D02*
X7584111Y-18678930D01*
X7584111Y-18678930D02*
X7593634Y-18659882D01*
X7593634Y-18659882D02*
X7603158Y-18631311D01*
X7603158Y-18631311D02*
X7612682Y-18583691D01*
X7612682Y-18583691D02*
X7612682Y-18545596D01*
X7612682Y-18545596D02*
X7603158Y-18497977D01*
X7603158Y-18497977D02*
X7593634Y-18469406D01*
X7593634Y-18469406D02*
X7584111Y-18450358D01*
X7584111Y-18450358D02*
X7565063Y-18421787D01*
X7565063Y-18421787D02*
X7555539Y-18412263D01*
D11*
X2590000Y-18813351D02*
G75*
G03*
X2495000Y-18813351I-47500J0D01*
G01*
X2495000Y-18813351D02*
G75*
G03*
X2590000Y-18813351I47500J0D01*
G01*
D10*
X2888872Y-18704834D02*
X2907920Y-18704834D01*
X2907920Y-18704834D02*
X2926967Y-18714358D01*
X2926967Y-18714358D02*
X2936491Y-18723882D01*
X2936491Y-18723882D02*
X2946015Y-18742930D01*
X2946015Y-18742930D02*
X2955539Y-18781025D01*
X2955539Y-18781025D02*
X2955539Y-18828644D01*
X2955539Y-18828644D02*
X2946015Y-18866739D01*
X2946015Y-18866739D02*
X2936491Y-18885787D01*
X2936491Y-18885787D02*
X2926967Y-18895311D01*
X2926967Y-18895311D02*
X2907920Y-18904834D01*
X2907920Y-18904834D02*
X2888872Y-18904834D01*
X2888872Y-18904834D02*
X2869824Y-18895311D01*
X2869824Y-18895311D02*
X2860301Y-18885787D01*
X2860301Y-18885787D02*
X2850777Y-18866739D01*
X2850777Y-18866739D02*
X2841253Y-18828644D01*
X2841253Y-18828644D02*
X2841253Y-18781025D01*
X2841253Y-18781025D02*
X2850777Y-18742930D01*
X2850777Y-18742930D02*
X2860301Y-18723882D01*
X2860301Y-18723882D02*
X2869824Y-18714358D01*
X2869824Y-18714358D02*
X2888872Y-18704834D01*
X3041253Y-18885787D02*
X3050777Y-18895311D01*
X3050777Y-18895311D02*
X3041253Y-18904834D01*
X3041253Y-18904834D02*
X3031729Y-18895311D01*
X3031729Y-18895311D02*
X3041253Y-18885787D01*
X3041253Y-18885787D02*
X3041253Y-18904834D01*
X3146015Y-18904834D02*
X3184110Y-18904834D01*
X3184110Y-18904834D02*
X3203158Y-18895311D01*
X3203158Y-18895311D02*
X3212682Y-18885787D01*
X3212682Y-18885787D02*
X3231729Y-18857215D01*
X3231729Y-18857215D02*
X3241253Y-18819120D01*
X3241253Y-18819120D02*
X3241253Y-18742930D01*
X3241253Y-18742930D02*
X3231729Y-18723882D01*
X3231729Y-18723882D02*
X3222205Y-18714358D01*
X3222205Y-18714358D02*
X3203158Y-18704834D01*
X3203158Y-18704834D02*
X3165062Y-18704834D01*
X3165062Y-18704834D02*
X3146015Y-18714358D01*
X3146015Y-18714358D02*
X3136491Y-18723882D01*
X3136491Y-18723882D02*
X3126967Y-18742930D01*
X3126967Y-18742930D02*
X3126967Y-18790549D01*
X3126967Y-18790549D02*
X3136491Y-18809596D01*
X3136491Y-18809596D02*
X3146015Y-18819120D01*
X3146015Y-18819120D02*
X3165062Y-18828644D01*
X3165062Y-18828644D02*
X3203158Y-18828644D01*
X3203158Y-18828644D02*
X3222205Y-18819120D01*
X3222205Y-18819120D02*
X3231729Y-18809596D01*
X3231729Y-18809596D02*
X3241253Y-18790549D01*
X3422205Y-18704834D02*
X3326967Y-18704834D01*
X3326967Y-18704834D02*
X3317443Y-18800072D01*
X3317443Y-18800072D02*
X3326967Y-18790549D01*
X3326967Y-18790549D02*
X3346015Y-18781025D01*
X3346015Y-18781025D02*
X3393634Y-18781025D01*
X3393634Y-18781025D02*
X3412682Y-18790549D01*
X3412682Y-18790549D02*
X3422205Y-18800072D01*
X3422205Y-18800072D02*
X3431729Y-18819120D01*
X3431729Y-18819120D02*
X3431729Y-18866739D01*
X3431729Y-18866739D02*
X3422205Y-18885787D01*
X3422205Y-18885787D02*
X3412682Y-18895311D01*
X3412682Y-18895311D02*
X3393634Y-18904834D01*
X3393634Y-18904834D02*
X3346015Y-18904834D01*
X3346015Y-18904834D02*
X3326967Y-18895311D01*
X3326967Y-18895311D02*
X3317443Y-18885787D01*
X3555539Y-18704834D02*
X3574586Y-18704834D01*
X3574586Y-18704834D02*
X3593634Y-18714358D01*
X3593634Y-18714358D02*
X3603158Y-18723882D01*
X3603158Y-18723882D02*
X3612682Y-18742930D01*
X3612682Y-18742930D02*
X3622205Y-18781025D01*
X3622205Y-18781025D02*
X3622205Y-18828644D01*
X3622205Y-18828644D02*
X3612682Y-18866739D01*
X3612682Y-18866739D02*
X3603158Y-18885787D01*
X3603158Y-18885787D02*
X3593634Y-18895311D01*
X3593634Y-18895311D02*
X3574586Y-18904834D01*
X3574586Y-18904834D02*
X3555539Y-18904834D01*
X3555539Y-18904834D02*
X3536491Y-18895311D01*
X3536491Y-18895311D02*
X3526967Y-18885787D01*
X3526967Y-18885787D02*
X3517443Y-18866739D01*
X3517443Y-18866739D02*
X3507920Y-18828644D01*
X3507920Y-18828644D02*
X3507920Y-18781025D01*
X3507920Y-18781025D02*
X3517443Y-18742930D01*
X3517443Y-18742930D02*
X3526967Y-18723882D01*
X3526967Y-18723882D02*
X3536491Y-18714358D01*
X3536491Y-18714358D02*
X3555539Y-18704834D01*
X3707920Y-18904834D02*
X3707920Y-18771501D01*
X3707920Y-18790549D02*
X3717443Y-18781025D01*
X3717443Y-18781025D02*
X3736491Y-18771501D01*
X3736491Y-18771501D02*
X3765063Y-18771501D01*
X3765063Y-18771501D02*
X3784110Y-18781025D01*
X3784110Y-18781025D02*
X3793634Y-18800072D01*
X3793634Y-18800072D02*
X3793634Y-18904834D01*
X3793634Y-18800072D02*
X3803158Y-18781025D01*
X3803158Y-18781025D02*
X3822205Y-18771501D01*
X3822205Y-18771501D02*
X3850777Y-18771501D01*
X3850777Y-18771501D02*
X3869824Y-18781025D01*
X3869824Y-18781025D02*
X3879348Y-18800072D01*
X3879348Y-18800072D02*
X3879348Y-18904834D01*
X3974586Y-18904834D02*
X3974586Y-18771501D01*
X3974586Y-18790549D02*
X3984110Y-18781025D01*
X3984110Y-18781025D02*
X4003158Y-18771501D01*
X4003158Y-18771501D02*
X4031729Y-18771501D01*
X4031729Y-18771501D02*
X4050777Y-18781025D01*
X4050777Y-18781025D02*
X4060301Y-18800072D01*
X4060301Y-18800072D02*
X4060301Y-18904834D01*
X4060301Y-18800072D02*
X4069824Y-18781025D01*
X4069824Y-18781025D02*
X4088872Y-18771501D01*
X4088872Y-18771501D02*
X4117443Y-18771501D01*
X4117443Y-18771501D02*
X4136491Y-18781025D01*
X4136491Y-18781025D02*
X4146015Y-18800072D01*
X4146015Y-18800072D02*
X4146015Y-18904834D01*
X4536491Y-18695311D02*
X4365063Y-18952453D01*
X4793634Y-18704834D02*
X4812682Y-18704834D01*
X4812682Y-18704834D02*
X4831729Y-18714358D01*
X4831729Y-18714358D02*
X4841253Y-18723882D01*
X4841253Y-18723882D02*
X4850777Y-18742930D01*
X4850777Y-18742930D02*
X4860301Y-18781025D01*
X4860301Y-18781025D02*
X4860301Y-18828644D01*
X4860301Y-18828644D02*
X4850777Y-18866739D01*
X4850777Y-18866739D02*
X4841253Y-18885787D01*
X4841253Y-18885787D02*
X4831729Y-18895311D01*
X4831729Y-18895311D02*
X4812682Y-18904834D01*
X4812682Y-18904834D02*
X4793634Y-18904834D01*
X4793634Y-18904834D02*
X4774587Y-18895311D01*
X4774587Y-18895311D02*
X4765063Y-18885787D01*
X4765063Y-18885787D02*
X4755539Y-18866739D01*
X4755539Y-18866739D02*
X4746015Y-18828644D01*
X4746015Y-18828644D02*
X4746015Y-18781025D01*
X4746015Y-18781025D02*
X4755539Y-18742930D01*
X4755539Y-18742930D02*
X4765063Y-18723882D01*
X4765063Y-18723882D02*
X4774587Y-18714358D01*
X4774587Y-18714358D02*
X4793634Y-18704834D01*
X4946015Y-18885787D02*
X4955539Y-18895311D01*
X4955539Y-18895311D02*
X4946015Y-18904834D01*
X4946015Y-18904834D02*
X4936491Y-18895311D01*
X4936491Y-18895311D02*
X4946015Y-18885787D01*
X4946015Y-18885787D02*
X4946015Y-18904834D01*
X5079348Y-18704834D02*
X5098396Y-18704834D01*
X5098396Y-18704834D02*
X5117444Y-18714358D01*
X5117444Y-18714358D02*
X5126968Y-18723882D01*
X5126968Y-18723882D02*
X5136491Y-18742930D01*
X5136491Y-18742930D02*
X5146015Y-18781025D01*
X5146015Y-18781025D02*
X5146015Y-18828644D01*
X5146015Y-18828644D02*
X5136491Y-18866739D01*
X5136491Y-18866739D02*
X5126968Y-18885787D01*
X5126968Y-18885787D02*
X5117444Y-18895311D01*
X5117444Y-18895311D02*
X5098396Y-18904834D01*
X5098396Y-18904834D02*
X5079348Y-18904834D01*
X5079348Y-18904834D02*
X5060301Y-18895311D01*
X5060301Y-18895311D02*
X5050777Y-18885787D01*
X5050777Y-18885787D02*
X5041253Y-18866739D01*
X5041253Y-18866739D02*
X5031729Y-18828644D01*
X5031729Y-18828644D02*
X5031729Y-18781025D01*
X5031729Y-18781025D02*
X5041253Y-18742930D01*
X5041253Y-18742930D02*
X5050777Y-18723882D01*
X5050777Y-18723882D02*
X5060301Y-18714358D01*
X5060301Y-18714358D02*
X5079348Y-18704834D01*
X5212682Y-18704834D02*
X5336491Y-18704834D01*
X5336491Y-18704834D02*
X5269825Y-18781025D01*
X5269825Y-18781025D02*
X5298396Y-18781025D01*
X5298396Y-18781025D02*
X5317444Y-18790549D01*
X5317444Y-18790549D02*
X5326968Y-18800072D01*
X5326968Y-18800072D02*
X5336491Y-18819120D01*
X5336491Y-18819120D02*
X5336491Y-18866739D01*
X5336491Y-18866739D02*
X5326968Y-18885787D01*
X5326968Y-18885787D02*
X5317444Y-18895311D01*
X5317444Y-18895311D02*
X5298396Y-18904834D01*
X5298396Y-18904834D02*
X5241253Y-18904834D01*
X5241253Y-18904834D02*
X5222206Y-18895311D01*
X5222206Y-18895311D02*
X5212682Y-18885787D01*
X5403158Y-18704834D02*
X5536491Y-18704834D01*
X5536491Y-18704834D02*
X5450777Y-18904834D01*
X5698396Y-18771501D02*
X5698396Y-18904834D01*
X5650777Y-18695311D02*
X5603158Y-18838168D01*
X5603158Y-18838168D02*
X5726967Y-18838168D01*
X5793634Y-18704834D02*
X5793634Y-18742930D01*
X5869825Y-18704834D02*
X5869825Y-18742930D01*
X6165063Y-18981025D02*
X6155539Y-18971501D01*
X6155539Y-18971501D02*
X6136491Y-18942930D01*
X6136491Y-18942930D02*
X6126968Y-18923882D01*
X6126968Y-18923882D02*
X6117444Y-18895311D01*
X6117444Y-18895311D02*
X6107920Y-18847691D01*
X6107920Y-18847691D02*
X6107920Y-18809596D01*
X6107920Y-18809596D02*
X6117444Y-18761977D01*
X6117444Y-18761977D02*
X6126968Y-18733406D01*
X6126968Y-18733406D02*
X6136491Y-18714358D01*
X6136491Y-18714358D02*
X6155539Y-18685787D01*
X6155539Y-18685787D02*
X6165063Y-18676263D01*
X6231729Y-18723882D02*
X6241253Y-18714358D01*
X6241253Y-18714358D02*
X6260301Y-18704834D01*
X6260301Y-18704834D02*
X6307920Y-18704834D01*
X6307920Y-18704834D02*
X6326968Y-18714358D01*
X6326968Y-18714358D02*
X6336491Y-18723882D01*
X6336491Y-18723882D02*
X6346015Y-18742930D01*
X6346015Y-18742930D02*
X6346015Y-18761977D01*
X6346015Y-18761977D02*
X6336491Y-18790549D01*
X6336491Y-18790549D02*
X6222206Y-18904834D01*
X6222206Y-18904834D02*
X6346015Y-18904834D01*
X6469825Y-18704834D02*
X6488872Y-18704834D01*
X6488872Y-18704834D02*
X6507920Y-18714358D01*
X6507920Y-18714358D02*
X6517444Y-18723882D01*
X6517444Y-18723882D02*
X6526968Y-18742930D01*
X6526968Y-18742930D02*
X6536491Y-18781025D01*
X6536491Y-18781025D02*
X6536491Y-18828644D01*
X6536491Y-18828644D02*
X6526968Y-18866739D01*
X6526968Y-18866739D02*
X6517444Y-18885787D01*
X6517444Y-18885787D02*
X6507920Y-18895311D01*
X6507920Y-18895311D02*
X6488872Y-18904834D01*
X6488872Y-18904834D02*
X6469825Y-18904834D01*
X6469825Y-18904834D02*
X6450777Y-18895311D01*
X6450777Y-18895311D02*
X6441253Y-18885787D01*
X6441253Y-18885787D02*
X6431729Y-18866739D01*
X6431729Y-18866739D02*
X6422206Y-18828644D01*
X6422206Y-18828644D02*
X6422206Y-18781025D01*
X6422206Y-18781025D02*
X6431729Y-18742930D01*
X6431729Y-18742930D02*
X6441253Y-18723882D01*
X6441253Y-18723882D02*
X6450777Y-18714358D01*
X6450777Y-18714358D02*
X6469825Y-18704834D01*
X6774587Y-18904834D02*
X6774587Y-18704834D01*
X6860301Y-18904834D02*
X6860301Y-18800072D01*
X6860301Y-18800072D02*
X6850777Y-18781025D01*
X6850777Y-18781025D02*
X6831730Y-18771501D01*
X6831730Y-18771501D02*
X6803158Y-18771501D01*
X6803158Y-18771501D02*
X6784110Y-18781025D01*
X6784110Y-18781025D02*
X6774587Y-18790549D01*
X6984110Y-18904834D02*
X6965063Y-18895311D01*
X6965063Y-18895311D02*
X6955539Y-18885787D01*
X6955539Y-18885787D02*
X6946015Y-18866739D01*
X6946015Y-18866739D02*
X6946015Y-18809596D01*
X6946015Y-18809596D02*
X6955539Y-18790549D01*
X6955539Y-18790549D02*
X6965063Y-18781025D01*
X6965063Y-18781025D02*
X6984110Y-18771501D01*
X6984110Y-18771501D02*
X7012682Y-18771501D01*
X7012682Y-18771501D02*
X7031730Y-18781025D01*
X7031730Y-18781025D02*
X7041253Y-18790549D01*
X7041253Y-18790549D02*
X7050777Y-18809596D01*
X7050777Y-18809596D02*
X7050777Y-18866739D01*
X7050777Y-18866739D02*
X7041253Y-18885787D01*
X7041253Y-18885787D02*
X7031730Y-18895311D01*
X7031730Y-18895311D02*
X7012682Y-18904834D01*
X7012682Y-18904834D02*
X6984110Y-18904834D01*
X7165063Y-18904834D02*
X7146015Y-18895311D01*
X7146015Y-18895311D02*
X7136491Y-18876263D01*
X7136491Y-18876263D02*
X7136491Y-18704834D01*
X7317444Y-18895311D02*
X7298396Y-18904834D01*
X7298396Y-18904834D02*
X7260301Y-18904834D01*
X7260301Y-18904834D02*
X7241253Y-18895311D01*
X7241253Y-18895311D02*
X7231730Y-18876263D01*
X7231730Y-18876263D02*
X7231730Y-18800072D01*
X7231730Y-18800072D02*
X7241253Y-18781025D01*
X7241253Y-18781025D02*
X7260301Y-18771501D01*
X7260301Y-18771501D02*
X7298396Y-18771501D01*
X7298396Y-18771501D02*
X7317444Y-18781025D01*
X7317444Y-18781025D02*
X7326968Y-18800072D01*
X7326968Y-18800072D02*
X7326968Y-18819120D01*
X7326968Y-18819120D02*
X7231730Y-18838168D01*
X7403158Y-18895311D02*
X7422206Y-18904834D01*
X7422206Y-18904834D02*
X7460301Y-18904834D01*
X7460301Y-18904834D02*
X7479349Y-18895311D01*
X7479349Y-18895311D02*
X7488872Y-18876263D01*
X7488872Y-18876263D02*
X7488872Y-18866739D01*
X7488872Y-18866739D02*
X7479349Y-18847691D01*
X7479349Y-18847691D02*
X7460301Y-18838168D01*
X7460301Y-18838168D02*
X7431730Y-18838168D01*
X7431730Y-18838168D02*
X7412682Y-18828644D01*
X7412682Y-18828644D02*
X7403158Y-18809596D01*
X7403158Y-18809596D02*
X7403158Y-18800072D01*
X7403158Y-18800072D02*
X7412682Y-18781025D01*
X7412682Y-18781025D02*
X7431730Y-18771501D01*
X7431730Y-18771501D02*
X7460301Y-18771501D01*
X7460301Y-18771501D02*
X7479349Y-18781025D01*
X7555539Y-18981025D02*
X7565063Y-18971501D01*
X7565063Y-18971501D02*
X7584111Y-18942930D01*
X7584111Y-18942930D02*
X7593634Y-18923882D01*
X7593634Y-18923882D02*
X7603158Y-18895311D01*
X7603158Y-18895311D02*
X7612682Y-18847691D01*
X7612682Y-18847691D02*
X7612682Y-18809596D01*
X7612682Y-18809596D02*
X7603158Y-18761977D01*
X7603158Y-18761977D02*
X7593634Y-18733406D01*
X7593634Y-18733406D02*
X7584111Y-18714358D01*
X7584111Y-18714358D02*
X7565063Y-18685787D01*
X7565063Y-18685787D02*
X7555539Y-18676263D01*
D11*
X2540000Y-19027351D02*
X2540000Y-19127351D01*
X2490000Y-19077351D02*
X2590000Y-19077351D01*
D10*
X2955539Y-19168834D02*
X2841253Y-19168834D01*
X2898396Y-19168834D02*
X2898396Y-18968834D01*
X2898396Y-18968834D02*
X2879348Y-18997406D01*
X2879348Y-18997406D02*
X2860301Y-19016453D01*
X2860301Y-19016453D02*
X2841253Y-19025977D01*
X3041253Y-19149787D02*
X3050777Y-19159311D01*
X3050777Y-19159311D02*
X3041253Y-19168834D01*
X3041253Y-19168834D02*
X3031729Y-19159311D01*
X3031729Y-19159311D02*
X3041253Y-19149787D01*
X3041253Y-19149787D02*
X3041253Y-19168834D01*
X3174586Y-18968834D02*
X3193634Y-18968834D01*
X3193634Y-18968834D02*
X3212682Y-18978358D01*
X3212682Y-18978358D02*
X3222205Y-18987882D01*
X3222205Y-18987882D02*
X3231729Y-19006930D01*
X3231729Y-19006930D02*
X3241253Y-19045025D01*
X3241253Y-19045025D02*
X3241253Y-19092644D01*
X3241253Y-19092644D02*
X3231729Y-19130739D01*
X3231729Y-19130739D02*
X3222205Y-19149787D01*
X3222205Y-19149787D02*
X3212682Y-19159311D01*
X3212682Y-19159311D02*
X3193634Y-19168834D01*
X3193634Y-19168834D02*
X3174586Y-19168834D01*
X3174586Y-19168834D02*
X3155539Y-19159311D01*
X3155539Y-19159311D02*
X3146015Y-19149787D01*
X3146015Y-19149787D02*
X3136491Y-19130739D01*
X3136491Y-19130739D02*
X3126967Y-19092644D01*
X3126967Y-19092644D02*
X3126967Y-19045025D01*
X3126967Y-19045025D02*
X3136491Y-19006930D01*
X3136491Y-19006930D02*
X3146015Y-18987882D01*
X3146015Y-18987882D02*
X3155539Y-18978358D01*
X3155539Y-18978358D02*
X3174586Y-18968834D01*
X3365062Y-18968834D02*
X3384110Y-18968834D01*
X3384110Y-18968834D02*
X3403158Y-18978358D01*
X3403158Y-18978358D02*
X3412682Y-18987882D01*
X3412682Y-18987882D02*
X3422205Y-19006930D01*
X3422205Y-19006930D02*
X3431729Y-19045025D01*
X3431729Y-19045025D02*
X3431729Y-19092644D01*
X3431729Y-19092644D02*
X3422205Y-19130739D01*
X3422205Y-19130739D02*
X3412682Y-19149787D01*
X3412682Y-19149787D02*
X3403158Y-19159311D01*
X3403158Y-19159311D02*
X3384110Y-19168834D01*
X3384110Y-19168834D02*
X3365062Y-19168834D01*
X3365062Y-19168834D02*
X3346015Y-19159311D01*
X3346015Y-19159311D02*
X3336491Y-19149787D01*
X3336491Y-19149787D02*
X3326967Y-19130739D01*
X3326967Y-19130739D02*
X3317443Y-19092644D01*
X3317443Y-19092644D02*
X3317443Y-19045025D01*
X3317443Y-19045025D02*
X3326967Y-19006930D01*
X3326967Y-19006930D02*
X3336491Y-18987882D01*
X3336491Y-18987882D02*
X3346015Y-18978358D01*
X3346015Y-18978358D02*
X3365062Y-18968834D01*
X3555539Y-18968834D02*
X3574586Y-18968834D01*
X3574586Y-18968834D02*
X3593634Y-18978358D01*
X3593634Y-18978358D02*
X3603158Y-18987882D01*
X3603158Y-18987882D02*
X3612682Y-19006930D01*
X3612682Y-19006930D02*
X3622205Y-19045025D01*
X3622205Y-19045025D02*
X3622205Y-19092644D01*
X3622205Y-19092644D02*
X3612682Y-19130739D01*
X3612682Y-19130739D02*
X3603158Y-19149787D01*
X3603158Y-19149787D02*
X3593634Y-19159311D01*
X3593634Y-19159311D02*
X3574586Y-19168834D01*
X3574586Y-19168834D02*
X3555539Y-19168834D01*
X3555539Y-19168834D02*
X3536491Y-19159311D01*
X3536491Y-19159311D02*
X3526967Y-19149787D01*
X3526967Y-19149787D02*
X3517443Y-19130739D01*
X3517443Y-19130739D02*
X3507920Y-19092644D01*
X3507920Y-19092644D02*
X3507920Y-19045025D01*
X3507920Y-19045025D02*
X3517443Y-19006930D01*
X3517443Y-19006930D02*
X3526967Y-18987882D01*
X3526967Y-18987882D02*
X3536491Y-18978358D01*
X3536491Y-18978358D02*
X3555539Y-18968834D01*
X3707920Y-19168834D02*
X3707920Y-19035501D01*
X3707920Y-19054549D02*
X3717443Y-19045025D01*
X3717443Y-19045025D02*
X3736491Y-19035501D01*
X3736491Y-19035501D02*
X3765063Y-19035501D01*
X3765063Y-19035501D02*
X3784110Y-19045025D01*
X3784110Y-19045025D02*
X3793634Y-19064072D01*
X3793634Y-19064072D02*
X3793634Y-19168834D01*
X3793634Y-19064072D02*
X3803158Y-19045025D01*
X3803158Y-19045025D02*
X3822205Y-19035501D01*
X3822205Y-19035501D02*
X3850777Y-19035501D01*
X3850777Y-19035501D02*
X3869824Y-19045025D01*
X3869824Y-19045025D02*
X3879348Y-19064072D01*
X3879348Y-19064072D02*
X3879348Y-19168834D01*
X3974586Y-19168834D02*
X3974586Y-19035501D01*
X3974586Y-19054549D02*
X3984110Y-19045025D01*
X3984110Y-19045025D02*
X4003158Y-19035501D01*
X4003158Y-19035501D02*
X4031729Y-19035501D01*
X4031729Y-19035501D02*
X4050777Y-19045025D01*
X4050777Y-19045025D02*
X4060301Y-19064072D01*
X4060301Y-19064072D02*
X4060301Y-19168834D01*
X4060301Y-19064072D02*
X4069824Y-19045025D01*
X4069824Y-19045025D02*
X4088872Y-19035501D01*
X4088872Y-19035501D02*
X4117443Y-19035501D01*
X4117443Y-19035501D02*
X4136491Y-19045025D01*
X4136491Y-19045025D02*
X4146015Y-19064072D01*
X4146015Y-19064072D02*
X4146015Y-19168834D01*
X4536491Y-18959311D02*
X4365063Y-19216453D01*
X4793634Y-18968834D02*
X4812682Y-18968834D01*
X4812682Y-18968834D02*
X4831729Y-18978358D01*
X4831729Y-18978358D02*
X4841253Y-18987882D01*
X4841253Y-18987882D02*
X4850777Y-19006930D01*
X4850777Y-19006930D02*
X4860301Y-19045025D01*
X4860301Y-19045025D02*
X4860301Y-19092644D01*
X4860301Y-19092644D02*
X4850777Y-19130739D01*
X4850777Y-19130739D02*
X4841253Y-19149787D01*
X4841253Y-19149787D02*
X4831729Y-19159311D01*
X4831729Y-19159311D02*
X4812682Y-19168834D01*
X4812682Y-19168834D02*
X4793634Y-19168834D01*
X4793634Y-19168834D02*
X4774587Y-19159311D01*
X4774587Y-19159311D02*
X4765063Y-19149787D01*
X4765063Y-19149787D02*
X4755539Y-19130739D01*
X4755539Y-19130739D02*
X4746015Y-19092644D01*
X4746015Y-19092644D02*
X4746015Y-19045025D01*
X4746015Y-19045025D02*
X4755539Y-19006930D01*
X4755539Y-19006930D02*
X4765063Y-18987882D01*
X4765063Y-18987882D02*
X4774587Y-18978358D01*
X4774587Y-18978358D02*
X4793634Y-18968834D01*
X4946015Y-19149787D02*
X4955539Y-19159311D01*
X4955539Y-19159311D02*
X4946015Y-19168834D01*
X4946015Y-19168834D02*
X4936491Y-19159311D01*
X4936491Y-19159311D02*
X4946015Y-19149787D01*
X4946015Y-19149787D02*
X4946015Y-19168834D01*
X5079348Y-18968834D02*
X5098396Y-18968834D01*
X5098396Y-18968834D02*
X5117444Y-18978358D01*
X5117444Y-18978358D02*
X5126968Y-18987882D01*
X5126968Y-18987882D02*
X5136491Y-19006930D01*
X5136491Y-19006930D02*
X5146015Y-19045025D01*
X5146015Y-19045025D02*
X5146015Y-19092644D01*
X5146015Y-19092644D02*
X5136491Y-19130739D01*
X5136491Y-19130739D02*
X5126968Y-19149787D01*
X5126968Y-19149787D02*
X5117444Y-19159311D01*
X5117444Y-19159311D02*
X5098396Y-19168834D01*
X5098396Y-19168834D02*
X5079348Y-19168834D01*
X5079348Y-19168834D02*
X5060301Y-19159311D01*
X5060301Y-19159311D02*
X5050777Y-19149787D01*
X5050777Y-19149787D02*
X5041253Y-19130739D01*
X5041253Y-19130739D02*
X5031729Y-19092644D01*
X5031729Y-19092644D02*
X5031729Y-19045025D01*
X5031729Y-19045025D02*
X5041253Y-19006930D01*
X5041253Y-19006930D02*
X5050777Y-18987882D01*
X5050777Y-18987882D02*
X5060301Y-18978358D01*
X5060301Y-18978358D02*
X5079348Y-18968834D01*
X5212682Y-18968834D02*
X5336491Y-18968834D01*
X5336491Y-18968834D02*
X5269825Y-19045025D01*
X5269825Y-19045025D02*
X5298396Y-19045025D01*
X5298396Y-19045025D02*
X5317444Y-19054549D01*
X5317444Y-19054549D02*
X5326968Y-19064072D01*
X5326968Y-19064072D02*
X5336491Y-19083120D01*
X5336491Y-19083120D02*
X5336491Y-19130739D01*
X5336491Y-19130739D02*
X5326968Y-19149787D01*
X5326968Y-19149787D02*
X5317444Y-19159311D01*
X5317444Y-19159311D02*
X5298396Y-19168834D01*
X5298396Y-19168834D02*
X5241253Y-19168834D01*
X5241253Y-19168834D02*
X5222206Y-19159311D01*
X5222206Y-19159311D02*
X5212682Y-19149787D01*
X5431729Y-19168834D02*
X5469825Y-19168834D01*
X5469825Y-19168834D02*
X5488872Y-19159311D01*
X5488872Y-19159311D02*
X5498396Y-19149787D01*
X5498396Y-19149787D02*
X5517444Y-19121215D01*
X5517444Y-19121215D02*
X5526968Y-19083120D01*
X5526968Y-19083120D02*
X5526968Y-19006930D01*
X5526968Y-19006930D02*
X5517444Y-18987882D01*
X5517444Y-18987882D02*
X5507920Y-18978358D01*
X5507920Y-18978358D02*
X5488872Y-18968834D01*
X5488872Y-18968834D02*
X5450777Y-18968834D01*
X5450777Y-18968834D02*
X5431729Y-18978358D01*
X5431729Y-18978358D02*
X5422206Y-18987882D01*
X5422206Y-18987882D02*
X5412682Y-19006930D01*
X5412682Y-19006930D02*
X5412682Y-19054549D01*
X5412682Y-19054549D02*
X5422206Y-19073596D01*
X5422206Y-19073596D02*
X5431729Y-19083120D01*
X5431729Y-19083120D02*
X5450777Y-19092644D01*
X5450777Y-19092644D02*
X5488872Y-19092644D01*
X5488872Y-19092644D02*
X5507920Y-19083120D01*
X5507920Y-19083120D02*
X5517444Y-19073596D01*
X5517444Y-19073596D02*
X5526968Y-19054549D01*
X5698396Y-19035501D02*
X5698396Y-19168834D01*
X5650777Y-18959311D02*
X5603158Y-19102168D01*
X5603158Y-19102168D02*
X5726967Y-19102168D01*
X5793634Y-18968834D02*
X5793634Y-19006930D01*
X5869825Y-18968834D02*
X5869825Y-19006930D01*
X6165063Y-19245025D02*
X6155539Y-19235501D01*
X6155539Y-19235501D02*
X6136491Y-19206930D01*
X6136491Y-19206930D02*
X6126968Y-19187882D01*
X6126968Y-19187882D02*
X6117444Y-19159311D01*
X6117444Y-19159311D02*
X6107920Y-19111691D01*
X6107920Y-19111691D02*
X6107920Y-19073596D01*
X6107920Y-19073596D02*
X6117444Y-19025977D01*
X6117444Y-19025977D02*
X6126968Y-18997406D01*
X6126968Y-18997406D02*
X6136491Y-18978358D01*
X6136491Y-18978358D02*
X6155539Y-18949787D01*
X6155539Y-18949787D02*
X6165063Y-18940263D01*
X6346015Y-19168834D02*
X6231729Y-19168834D01*
X6288872Y-19168834D02*
X6288872Y-18968834D01*
X6288872Y-18968834D02*
X6269825Y-18997406D01*
X6269825Y-18997406D02*
X6250777Y-19016453D01*
X6250777Y-19016453D02*
X6231729Y-19025977D01*
X6536491Y-19168834D02*
X6422206Y-19168834D01*
X6479348Y-19168834D02*
X6479348Y-18968834D01*
X6479348Y-18968834D02*
X6460301Y-18997406D01*
X6460301Y-18997406D02*
X6441253Y-19016453D01*
X6441253Y-19016453D02*
X6422206Y-19025977D01*
X6660301Y-18968834D02*
X6679349Y-18968834D01*
X6679349Y-18968834D02*
X6698396Y-18978358D01*
X6698396Y-18978358D02*
X6707920Y-18987882D01*
X6707920Y-18987882D02*
X6717444Y-19006930D01*
X6717444Y-19006930D02*
X6726968Y-19045025D01*
X6726968Y-19045025D02*
X6726968Y-19092644D01*
X6726968Y-19092644D02*
X6717444Y-19130739D01*
X6717444Y-19130739D02*
X6707920Y-19149787D01*
X6707920Y-19149787D02*
X6698396Y-19159311D01*
X6698396Y-19159311D02*
X6679349Y-19168834D01*
X6679349Y-19168834D02*
X6660301Y-19168834D01*
X6660301Y-19168834D02*
X6641253Y-19159311D01*
X6641253Y-19159311D02*
X6631729Y-19149787D01*
X6631729Y-19149787D02*
X6622206Y-19130739D01*
X6622206Y-19130739D02*
X6612682Y-19092644D01*
X6612682Y-19092644D02*
X6612682Y-19045025D01*
X6612682Y-19045025D02*
X6622206Y-19006930D01*
X6622206Y-19006930D02*
X6631729Y-18987882D01*
X6631729Y-18987882D02*
X6641253Y-18978358D01*
X6641253Y-18978358D02*
X6660301Y-18968834D01*
X6965063Y-19168834D02*
X6965063Y-18968834D01*
X7050777Y-19168834D02*
X7050777Y-19064072D01*
X7050777Y-19064072D02*
X7041253Y-19045025D01*
X7041253Y-19045025D02*
X7022206Y-19035501D01*
X7022206Y-19035501D02*
X6993634Y-19035501D01*
X6993634Y-19035501D02*
X6974587Y-19045025D01*
X6974587Y-19045025D02*
X6965063Y-19054549D01*
X7174587Y-19168834D02*
X7155539Y-19159311D01*
X7155539Y-19159311D02*
X7146015Y-19149787D01*
X7146015Y-19149787D02*
X7136491Y-19130739D01*
X7136491Y-19130739D02*
X7136491Y-19073596D01*
X7136491Y-19073596D02*
X7146015Y-19054549D01*
X7146015Y-19054549D02*
X7155539Y-19045025D01*
X7155539Y-19045025D02*
X7174587Y-19035501D01*
X7174587Y-19035501D02*
X7203158Y-19035501D01*
X7203158Y-19035501D02*
X7222206Y-19045025D01*
X7222206Y-19045025D02*
X7231730Y-19054549D01*
X7231730Y-19054549D02*
X7241253Y-19073596D01*
X7241253Y-19073596D02*
X7241253Y-19130739D01*
X7241253Y-19130739D02*
X7231730Y-19149787D01*
X7231730Y-19149787D02*
X7222206Y-19159311D01*
X7222206Y-19159311D02*
X7203158Y-19168834D01*
X7203158Y-19168834D02*
X7174587Y-19168834D01*
X7355539Y-19168834D02*
X7336491Y-19159311D01*
X7336491Y-19159311D02*
X7326968Y-19140263D01*
X7326968Y-19140263D02*
X7326968Y-18968834D01*
X7507920Y-19159311D02*
X7488872Y-19168834D01*
X7488872Y-19168834D02*
X7450777Y-19168834D01*
X7450777Y-19168834D02*
X7431730Y-19159311D01*
X7431730Y-19159311D02*
X7422206Y-19140263D01*
X7422206Y-19140263D02*
X7422206Y-19064072D01*
X7422206Y-19064072D02*
X7431730Y-19045025D01*
X7431730Y-19045025D02*
X7450777Y-19035501D01*
X7450777Y-19035501D02*
X7488872Y-19035501D01*
X7488872Y-19035501D02*
X7507920Y-19045025D01*
X7507920Y-19045025D02*
X7517444Y-19064072D01*
X7517444Y-19064072D02*
X7517444Y-19083120D01*
X7517444Y-19083120D02*
X7422206Y-19102168D01*
X7593634Y-19159311D02*
X7612682Y-19168834D01*
X7612682Y-19168834D02*
X7650777Y-19168834D01*
X7650777Y-19168834D02*
X7669825Y-19159311D01*
X7669825Y-19159311D02*
X7679349Y-19140263D01*
X7679349Y-19140263D02*
X7679349Y-19130739D01*
X7679349Y-19130739D02*
X7669825Y-19111691D01*
X7669825Y-19111691D02*
X7650777Y-19102168D01*
X7650777Y-19102168D02*
X7622206Y-19102168D01*
X7622206Y-19102168D02*
X7603158Y-19092644D01*
X7603158Y-19092644D02*
X7593634Y-19073596D01*
X7593634Y-19073596D02*
X7593634Y-19064072D01*
X7593634Y-19064072D02*
X7603158Y-19045025D01*
X7603158Y-19045025D02*
X7622206Y-19035501D01*
X7622206Y-19035501D02*
X7650777Y-19035501D01*
X7650777Y-19035501D02*
X7669825Y-19045025D01*
X7746015Y-19245025D02*
X7755539Y-19235501D01*
X7755539Y-19235501D02*
X7774587Y-19206930D01*
X7774587Y-19206930D02*
X7784111Y-19187882D01*
X7784111Y-19187882D02*
X7793634Y-19159311D01*
X7793634Y-19159311D02*
X7803158Y-19111691D01*
X7803158Y-19111691D02*
X7803158Y-19073596D01*
X7803158Y-19073596D02*
X7793634Y-19025977D01*
X7793634Y-19025977D02*
X7784111Y-18997406D01*
X7784111Y-18997406D02*
X7774587Y-18978358D01*
X7774587Y-18978358D02*
X7755539Y-18949787D01*
X7755539Y-18949787D02*
X7746015Y-18940263D01*
D12*
X2575063Y-19377413D02*
X2575063Y-19305288D01*
X2502937Y-19305288D01*
X2502937Y-19377413D01*
X2575063Y-19377413D01*
D10*
X2955539Y-19432834D02*
X2841253Y-19432834D01*
X2898396Y-19432834D02*
X2898396Y-19232834D01*
X2898396Y-19232834D02*
X2879348Y-19261406D01*
X2879348Y-19261406D02*
X2860301Y-19280453D01*
X2860301Y-19280453D02*
X2841253Y-19289977D01*
X3041253Y-19413787D02*
X3050777Y-19423311D01*
X3050777Y-19423311D02*
X3041253Y-19432834D01*
X3041253Y-19432834D02*
X3031729Y-19423311D01*
X3031729Y-19423311D02*
X3041253Y-19413787D01*
X3041253Y-19413787D02*
X3041253Y-19432834D01*
X3174586Y-19232834D02*
X3193634Y-19232834D01*
X3193634Y-19232834D02*
X3212682Y-19242358D01*
X3212682Y-19242358D02*
X3222205Y-19251882D01*
X3222205Y-19251882D02*
X3231729Y-19270930D01*
X3231729Y-19270930D02*
X3241253Y-19309025D01*
X3241253Y-19309025D02*
X3241253Y-19356644D01*
X3241253Y-19356644D02*
X3231729Y-19394739D01*
X3231729Y-19394739D02*
X3222205Y-19413787D01*
X3222205Y-19413787D02*
X3212682Y-19423311D01*
X3212682Y-19423311D02*
X3193634Y-19432834D01*
X3193634Y-19432834D02*
X3174586Y-19432834D01*
X3174586Y-19432834D02*
X3155539Y-19423311D01*
X3155539Y-19423311D02*
X3146015Y-19413787D01*
X3146015Y-19413787D02*
X3136491Y-19394739D01*
X3136491Y-19394739D02*
X3126967Y-19356644D01*
X3126967Y-19356644D02*
X3126967Y-19309025D01*
X3126967Y-19309025D02*
X3136491Y-19270930D01*
X3136491Y-19270930D02*
X3146015Y-19251882D01*
X3146015Y-19251882D02*
X3155539Y-19242358D01*
X3155539Y-19242358D02*
X3174586Y-19232834D01*
X3317443Y-19251882D02*
X3326967Y-19242358D01*
X3326967Y-19242358D02*
X3346015Y-19232834D01*
X3346015Y-19232834D02*
X3393634Y-19232834D01*
X3393634Y-19232834D02*
X3412682Y-19242358D01*
X3412682Y-19242358D02*
X3422205Y-19251882D01*
X3422205Y-19251882D02*
X3431729Y-19270930D01*
X3431729Y-19270930D02*
X3431729Y-19289977D01*
X3431729Y-19289977D02*
X3422205Y-19318549D01*
X3422205Y-19318549D02*
X3307920Y-19432834D01*
X3307920Y-19432834D02*
X3431729Y-19432834D01*
X3555539Y-19232834D02*
X3574586Y-19232834D01*
X3574586Y-19232834D02*
X3593634Y-19242358D01*
X3593634Y-19242358D02*
X3603158Y-19251882D01*
X3603158Y-19251882D02*
X3612682Y-19270930D01*
X3612682Y-19270930D02*
X3622205Y-19309025D01*
X3622205Y-19309025D02*
X3622205Y-19356644D01*
X3622205Y-19356644D02*
X3612682Y-19394739D01*
X3612682Y-19394739D02*
X3603158Y-19413787D01*
X3603158Y-19413787D02*
X3593634Y-19423311D01*
X3593634Y-19423311D02*
X3574586Y-19432834D01*
X3574586Y-19432834D02*
X3555539Y-19432834D01*
X3555539Y-19432834D02*
X3536491Y-19423311D01*
X3536491Y-19423311D02*
X3526967Y-19413787D01*
X3526967Y-19413787D02*
X3517443Y-19394739D01*
X3517443Y-19394739D02*
X3507920Y-19356644D01*
X3507920Y-19356644D02*
X3507920Y-19309025D01*
X3507920Y-19309025D02*
X3517443Y-19270930D01*
X3517443Y-19270930D02*
X3526967Y-19251882D01*
X3526967Y-19251882D02*
X3536491Y-19242358D01*
X3536491Y-19242358D02*
X3555539Y-19232834D01*
X3707920Y-19432834D02*
X3707920Y-19299501D01*
X3707920Y-19318549D02*
X3717443Y-19309025D01*
X3717443Y-19309025D02*
X3736491Y-19299501D01*
X3736491Y-19299501D02*
X3765063Y-19299501D01*
X3765063Y-19299501D02*
X3784110Y-19309025D01*
X3784110Y-19309025D02*
X3793634Y-19328072D01*
X3793634Y-19328072D02*
X3793634Y-19432834D01*
X3793634Y-19328072D02*
X3803158Y-19309025D01*
X3803158Y-19309025D02*
X3822205Y-19299501D01*
X3822205Y-19299501D02*
X3850777Y-19299501D01*
X3850777Y-19299501D02*
X3869824Y-19309025D01*
X3869824Y-19309025D02*
X3879348Y-19328072D01*
X3879348Y-19328072D02*
X3879348Y-19432834D01*
X3974586Y-19432834D02*
X3974586Y-19299501D01*
X3974586Y-19318549D02*
X3984110Y-19309025D01*
X3984110Y-19309025D02*
X4003158Y-19299501D01*
X4003158Y-19299501D02*
X4031729Y-19299501D01*
X4031729Y-19299501D02*
X4050777Y-19309025D01*
X4050777Y-19309025D02*
X4060301Y-19328072D01*
X4060301Y-19328072D02*
X4060301Y-19432834D01*
X4060301Y-19328072D02*
X4069824Y-19309025D01*
X4069824Y-19309025D02*
X4088872Y-19299501D01*
X4088872Y-19299501D02*
X4117443Y-19299501D01*
X4117443Y-19299501D02*
X4136491Y-19309025D01*
X4136491Y-19309025D02*
X4146015Y-19328072D01*
X4146015Y-19328072D02*
X4146015Y-19432834D01*
X4536491Y-19223311D02*
X4365063Y-19480453D01*
X4793634Y-19232834D02*
X4812682Y-19232834D01*
X4812682Y-19232834D02*
X4831729Y-19242358D01*
X4831729Y-19242358D02*
X4841253Y-19251882D01*
X4841253Y-19251882D02*
X4850777Y-19270930D01*
X4850777Y-19270930D02*
X4860301Y-19309025D01*
X4860301Y-19309025D02*
X4860301Y-19356644D01*
X4860301Y-19356644D02*
X4850777Y-19394739D01*
X4850777Y-19394739D02*
X4841253Y-19413787D01*
X4841253Y-19413787D02*
X4831729Y-19423311D01*
X4831729Y-19423311D02*
X4812682Y-19432834D01*
X4812682Y-19432834D02*
X4793634Y-19432834D01*
X4793634Y-19432834D02*
X4774587Y-19423311D01*
X4774587Y-19423311D02*
X4765063Y-19413787D01*
X4765063Y-19413787D02*
X4755539Y-19394739D01*
X4755539Y-19394739D02*
X4746015Y-19356644D01*
X4746015Y-19356644D02*
X4746015Y-19309025D01*
X4746015Y-19309025D02*
X4755539Y-19270930D01*
X4755539Y-19270930D02*
X4765063Y-19251882D01*
X4765063Y-19251882D02*
X4774587Y-19242358D01*
X4774587Y-19242358D02*
X4793634Y-19232834D01*
X4946015Y-19413787D02*
X4955539Y-19423311D01*
X4955539Y-19423311D02*
X4946015Y-19432834D01*
X4946015Y-19432834D02*
X4936491Y-19423311D01*
X4936491Y-19423311D02*
X4946015Y-19413787D01*
X4946015Y-19413787D02*
X4946015Y-19432834D01*
X5079348Y-19232834D02*
X5098396Y-19232834D01*
X5098396Y-19232834D02*
X5117444Y-19242358D01*
X5117444Y-19242358D02*
X5126968Y-19251882D01*
X5126968Y-19251882D02*
X5136491Y-19270930D01*
X5136491Y-19270930D02*
X5146015Y-19309025D01*
X5146015Y-19309025D02*
X5146015Y-19356644D01*
X5146015Y-19356644D02*
X5136491Y-19394739D01*
X5136491Y-19394739D02*
X5126968Y-19413787D01*
X5126968Y-19413787D02*
X5117444Y-19423311D01*
X5117444Y-19423311D02*
X5098396Y-19432834D01*
X5098396Y-19432834D02*
X5079348Y-19432834D01*
X5079348Y-19432834D02*
X5060301Y-19423311D01*
X5060301Y-19423311D02*
X5050777Y-19413787D01*
X5050777Y-19413787D02*
X5041253Y-19394739D01*
X5041253Y-19394739D02*
X5031729Y-19356644D01*
X5031729Y-19356644D02*
X5031729Y-19309025D01*
X5031729Y-19309025D02*
X5041253Y-19270930D01*
X5041253Y-19270930D02*
X5050777Y-19251882D01*
X5050777Y-19251882D02*
X5060301Y-19242358D01*
X5060301Y-19242358D02*
X5079348Y-19232834D01*
X5317444Y-19299501D02*
X5317444Y-19432834D01*
X5269825Y-19223311D02*
X5222206Y-19366168D01*
X5222206Y-19366168D02*
X5346015Y-19366168D01*
X5460301Y-19232834D02*
X5479349Y-19232834D01*
X5479349Y-19232834D02*
X5498396Y-19242358D01*
X5498396Y-19242358D02*
X5507920Y-19251882D01*
X5507920Y-19251882D02*
X5517444Y-19270930D01*
X5517444Y-19270930D02*
X5526968Y-19309025D01*
X5526968Y-19309025D02*
X5526968Y-19356644D01*
X5526968Y-19356644D02*
X5517444Y-19394739D01*
X5517444Y-19394739D02*
X5507920Y-19413787D01*
X5507920Y-19413787D02*
X5498396Y-19423311D01*
X5498396Y-19423311D02*
X5479349Y-19432834D01*
X5479349Y-19432834D02*
X5460301Y-19432834D01*
X5460301Y-19432834D02*
X5441253Y-19423311D01*
X5441253Y-19423311D02*
X5431729Y-19413787D01*
X5431729Y-19413787D02*
X5422206Y-19394739D01*
X5422206Y-19394739D02*
X5412682Y-19356644D01*
X5412682Y-19356644D02*
X5412682Y-19309025D01*
X5412682Y-19309025D02*
X5422206Y-19270930D01*
X5422206Y-19270930D02*
X5431729Y-19251882D01*
X5431729Y-19251882D02*
X5441253Y-19242358D01*
X5441253Y-19242358D02*
X5460301Y-19232834D01*
X5603158Y-19251882D02*
X5612682Y-19242358D01*
X5612682Y-19242358D02*
X5631729Y-19232834D01*
X5631729Y-19232834D02*
X5679348Y-19232834D01*
X5679348Y-19232834D02*
X5698396Y-19242358D01*
X5698396Y-19242358D02*
X5707920Y-19251882D01*
X5707920Y-19251882D02*
X5717444Y-19270930D01*
X5717444Y-19270930D02*
X5717444Y-19289977D01*
X5717444Y-19289977D02*
X5707920Y-19318549D01*
X5707920Y-19318549D02*
X5593634Y-19432834D01*
X5593634Y-19432834D02*
X5717444Y-19432834D01*
X5793634Y-19232834D02*
X5793634Y-19270930D01*
X5869825Y-19232834D02*
X5869825Y-19270930D01*
X6165063Y-19509025D02*
X6155539Y-19499501D01*
X6155539Y-19499501D02*
X6136491Y-19470930D01*
X6136491Y-19470930D02*
X6126968Y-19451882D01*
X6126968Y-19451882D02*
X6117444Y-19423311D01*
X6117444Y-19423311D02*
X6107920Y-19375691D01*
X6107920Y-19375691D02*
X6107920Y-19337596D01*
X6107920Y-19337596D02*
X6117444Y-19289977D01*
X6117444Y-19289977D02*
X6126968Y-19261406D01*
X6126968Y-19261406D02*
X6136491Y-19242358D01*
X6136491Y-19242358D02*
X6155539Y-19213787D01*
X6155539Y-19213787D02*
X6165063Y-19204263D01*
X6269825Y-19318549D02*
X6250777Y-19309025D01*
X6250777Y-19309025D02*
X6241253Y-19299501D01*
X6241253Y-19299501D02*
X6231729Y-19280453D01*
X6231729Y-19280453D02*
X6231729Y-19270930D01*
X6231729Y-19270930D02*
X6241253Y-19251882D01*
X6241253Y-19251882D02*
X6250777Y-19242358D01*
X6250777Y-19242358D02*
X6269825Y-19232834D01*
X6269825Y-19232834D02*
X6307920Y-19232834D01*
X6307920Y-19232834D02*
X6326968Y-19242358D01*
X6326968Y-19242358D02*
X6336491Y-19251882D01*
X6336491Y-19251882D02*
X6346015Y-19270930D01*
X6346015Y-19270930D02*
X6346015Y-19280453D01*
X6346015Y-19280453D02*
X6336491Y-19299501D01*
X6336491Y-19299501D02*
X6326968Y-19309025D01*
X6326968Y-19309025D02*
X6307920Y-19318549D01*
X6307920Y-19318549D02*
X6269825Y-19318549D01*
X6269825Y-19318549D02*
X6250777Y-19328072D01*
X6250777Y-19328072D02*
X6241253Y-19337596D01*
X6241253Y-19337596D02*
X6231729Y-19356644D01*
X6231729Y-19356644D02*
X6231729Y-19394739D01*
X6231729Y-19394739D02*
X6241253Y-19413787D01*
X6241253Y-19413787D02*
X6250777Y-19423311D01*
X6250777Y-19423311D02*
X6269825Y-19432834D01*
X6269825Y-19432834D02*
X6307920Y-19432834D01*
X6307920Y-19432834D02*
X6326968Y-19423311D01*
X6326968Y-19423311D02*
X6336491Y-19413787D01*
X6336491Y-19413787D02*
X6346015Y-19394739D01*
X6346015Y-19394739D02*
X6346015Y-19356644D01*
X6346015Y-19356644D02*
X6336491Y-19337596D01*
X6336491Y-19337596D02*
X6326968Y-19328072D01*
X6326968Y-19328072D02*
X6307920Y-19318549D01*
X6584110Y-19432834D02*
X6584110Y-19232834D01*
X6669825Y-19432834D02*
X6669825Y-19328072D01*
X6669825Y-19328072D02*
X6660301Y-19309025D01*
X6660301Y-19309025D02*
X6641253Y-19299501D01*
X6641253Y-19299501D02*
X6612682Y-19299501D01*
X6612682Y-19299501D02*
X6593634Y-19309025D01*
X6593634Y-19309025D02*
X6584110Y-19318549D01*
X6793634Y-19432834D02*
X6774587Y-19423311D01*
X6774587Y-19423311D02*
X6765063Y-19413787D01*
X6765063Y-19413787D02*
X6755539Y-19394739D01*
X6755539Y-19394739D02*
X6755539Y-19337596D01*
X6755539Y-19337596D02*
X6765063Y-19318549D01*
X6765063Y-19318549D02*
X6774587Y-19309025D01*
X6774587Y-19309025D02*
X6793634Y-19299501D01*
X6793634Y-19299501D02*
X6822206Y-19299501D01*
X6822206Y-19299501D02*
X6841253Y-19309025D01*
X6841253Y-19309025D02*
X6850777Y-19318549D01*
X6850777Y-19318549D02*
X6860301Y-19337596D01*
X6860301Y-19337596D02*
X6860301Y-19394739D01*
X6860301Y-19394739D02*
X6850777Y-19413787D01*
X6850777Y-19413787D02*
X6841253Y-19423311D01*
X6841253Y-19423311D02*
X6822206Y-19432834D01*
X6822206Y-19432834D02*
X6793634Y-19432834D01*
X6974587Y-19432834D02*
X6955539Y-19423311D01*
X6955539Y-19423311D02*
X6946015Y-19404263D01*
X6946015Y-19404263D02*
X6946015Y-19232834D01*
X7126968Y-19423311D02*
X7107920Y-19432834D01*
X7107920Y-19432834D02*
X7069825Y-19432834D01*
X7069825Y-19432834D02*
X7050777Y-19423311D01*
X7050777Y-19423311D02*
X7041253Y-19404263D01*
X7041253Y-19404263D02*
X7041253Y-19328072D01*
X7041253Y-19328072D02*
X7050777Y-19309025D01*
X7050777Y-19309025D02*
X7069825Y-19299501D01*
X7069825Y-19299501D02*
X7107920Y-19299501D01*
X7107920Y-19299501D02*
X7126968Y-19309025D01*
X7126968Y-19309025D02*
X7136491Y-19328072D01*
X7136491Y-19328072D02*
X7136491Y-19347120D01*
X7136491Y-19347120D02*
X7041253Y-19366168D01*
X7212682Y-19423311D02*
X7231730Y-19432834D01*
X7231730Y-19432834D02*
X7269825Y-19432834D01*
X7269825Y-19432834D02*
X7288872Y-19423311D01*
X7288872Y-19423311D02*
X7298396Y-19404263D01*
X7298396Y-19404263D02*
X7298396Y-19394739D01*
X7298396Y-19394739D02*
X7288872Y-19375691D01*
X7288872Y-19375691D02*
X7269825Y-19366168D01*
X7269825Y-19366168D02*
X7241253Y-19366168D01*
X7241253Y-19366168D02*
X7222206Y-19356644D01*
X7222206Y-19356644D02*
X7212682Y-19337596D01*
X7212682Y-19337596D02*
X7212682Y-19328072D01*
X7212682Y-19328072D02*
X7222206Y-19309025D01*
X7222206Y-19309025D02*
X7241253Y-19299501D01*
X7241253Y-19299501D02*
X7269825Y-19299501D01*
X7269825Y-19299501D02*
X7288872Y-19309025D01*
X7365063Y-19509025D02*
X7374587Y-19499501D01*
X7374587Y-19499501D02*
X7393634Y-19470930D01*
X7393634Y-19470930D02*
X7403158Y-19451882D01*
X7403158Y-19451882D02*
X7412682Y-19423311D01*
X7412682Y-19423311D02*
X7422206Y-19375691D01*
X7422206Y-19375691D02*
X7422206Y-19337596D01*
X7422206Y-19337596D02*
X7412682Y-19289977D01*
X7412682Y-19289977D02*
X7403158Y-19261406D01*
X7403158Y-19261406D02*
X7393634Y-19242358D01*
X7393634Y-19242358D02*
X7374587Y-19213787D01*
X7374587Y-19213787D02*
X7365063Y-19204263D01*
D13*
X2495000Y-19700351D02*
X2590000Y-19605351D01*
X2495000Y-19510351D01*
X2400000Y-19605351D01*
X2495000Y-19700351D01*
D10*
X2955539Y-19696834D02*
X2841253Y-19696834D01*
X2898396Y-19696834D02*
X2898396Y-19496834D01*
X2898396Y-19496834D02*
X2879348Y-19525406D01*
X2879348Y-19525406D02*
X2860301Y-19544453D01*
X2860301Y-19544453D02*
X2841253Y-19553977D01*
X3041253Y-19677787D02*
X3050777Y-19687311D01*
X3050777Y-19687311D02*
X3041253Y-19696834D01*
X3041253Y-19696834D02*
X3031729Y-19687311D01*
X3031729Y-19687311D02*
X3041253Y-19677787D01*
X3041253Y-19677787D02*
X3041253Y-19696834D01*
X3146015Y-19696834D02*
X3184110Y-19696834D01*
X3184110Y-19696834D02*
X3203158Y-19687311D01*
X3203158Y-19687311D02*
X3212682Y-19677787D01*
X3212682Y-19677787D02*
X3231729Y-19649215D01*
X3231729Y-19649215D02*
X3241253Y-19611120D01*
X3241253Y-19611120D02*
X3241253Y-19534930D01*
X3241253Y-19534930D02*
X3231729Y-19515882D01*
X3231729Y-19515882D02*
X3222205Y-19506358D01*
X3222205Y-19506358D02*
X3203158Y-19496834D01*
X3203158Y-19496834D02*
X3165062Y-19496834D01*
X3165062Y-19496834D02*
X3146015Y-19506358D01*
X3146015Y-19506358D02*
X3136491Y-19515882D01*
X3136491Y-19515882D02*
X3126967Y-19534930D01*
X3126967Y-19534930D02*
X3126967Y-19582549D01*
X3126967Y-19582549D02*
X3136491Y-19601596D01*
X3136491Y-19601596D02*
X3146015Y-19611120D01*
X3146015Y-19611120D02*
X3165062Y-19620644D01*
X3165062Y-19620644D02*
X3203158Y-19620644D01*
X3203158Y-19620644D02*
X3222205Y-19611120D01*
X3222205Y-19611120D02*
X3231729Y-19601596D01*
X3231729Y-19601596D02*
X3241253Y-19582549D01*
X3365062Y-19496834D02*
X3384110Y-19496834D01*
X3384110Y-19496834D02*
X3403158Y-19506358D01*
X3403158Y-19506358D02*
X3412682Y-19515882D01*
X3412682Y-19515882D02*
X3422205Y-19534930D01*
X3422205Y-19534930D02*
X3431729Y-19573025D01*
X3431729Y-19573025D02*
X3431729Y-19620644D01*
X3431729Y-19620644D02*
X3422205Y-19658739D01*
X3422205Y-19658739D02*
X3412682Y-19677787D01*
X3412682Y-19677787D02*
X3403158Y-19687311D01*
X3403158Y-19687311D02*
X3384110Y-19696834D01*
X3384110Y-19696834D02*
X3365062Y-19696834D01*
X3365062Y-19696834D02*
X3346015Y-19687311D01*
X3346015Y-19687311D02*
X3336491Y-19677787D01*
X3336491Y-19677787D02*
X3326967Y-19658739D01*
X3326967Y-19658739D02*
X3317443Y-19620644D01*
X3317443Y-19620644D02*
X3317443Y-19573025D01*
X3317443Y-19573025D02*
X3326967Y-19534930D01*
X3326967Y-19534930D02*
X3336491Y-19515882D01*
X3336491Y-19515882D02*
X3346015Y-19506358D01*
X3346015Y-19506358D02*
X3365062Y-19496834D01*
X3555539Y-19496834D02*
X3574586Y-19496834D01*
X3574586Y-19496834D02*
X3593634Y-19506358D01*
X3593634Y-19506358D02*
X3603158Y-19515882D01*
X3603158Y-19515882D02*
X3612682Y-19534930D01*
X3612682Y-19534930D02*
X3622205Y-19573025D01*
X3622205Y-19573025D02*
X3622205Y-19620644D01*
X3622205Y-19620644D02*
X3612682Y-19658739D01*
X3612682Y-19658739D02*
X3603158Y-19677787D01*
X3603158Y-19677787D02*
X3593634Y-19687311D01*
X3593634Y-19687311D02*
X3574586Y-19696834D01*
X3574586Y-19696834D02*
X3555539Y-19696834D01*
X3555539Y-19696834D02*
X3536491Y-19687311D01*
X3536491Y-19687311D02*
X3526967Y-19677787D01*
X3526967Y-19677787D02*
X3517443Y-19658739D01*
X3517443Y-19658739D02*
X3507920Y-19620644D01*
X3507920Y-19620644D02*
X3507920Y-19573025D01*
X3507920Y-19573025D02*
X3517443Y-19534930D01*
X3517443Y-19534930D02*
X3526967Y-19515882D01*
X3526967Y-19515882D02*
X3536491Y-19506358D01*
X3536491Y-19506358D02*
X3555539Y-19496834D01*
X3707920Y-19696834D02*
X3707920Y-19563501D01*
X3707920Y-19582549D02*
X3717443Y-19573025D01*
X3717443Y-19573025D02*
X3736491Y-19563501D01*
X3736491Y-19563501D02*
X3765063Y-19563501D01*
X3765063Y-19563501D02*
X3784110Y-19573025D01*
X3784110Y-19573025D02*
X3793634Y-19592072D01*
X3793634Y-19592072D02*
X3793634Y-19696834D01*
X3793634Y-19592072D02*
X3803158Y-19573025D01*
X3803158Y-19573025D02*
X3822205Y-19563501D01*
X3822205Y-19563501D02*
X3850777Y-19563501D01*
X3850777Y-19563501D02*
X3869824Y-19573025D01*
X3869824Y-19573025D02*
X3879348Y-19592072D01*
X3879348Y-19592072D02*
X3879348Y-19696834D01*
X3974586Y-19696834D02*
X3974586Y-19563501D01*
X3974586Y-19582549D02*
X3984110Y-19573025D01*
X3984110Y-19573025D02*
X4003158Y-19563501D01*
X4003158Y-19563501D02*
X4031729Y-19563501D01*
X4031729Y-19563501D02*
X4050777Y-19573025D01*
X4050777Y-19573025D02*
X4060301Y-19592072D01*
X4060301Y-19592072D02*
X4060301Y-19696834D01*
X4060301Y-19592072D02*
X4069824Y-19573025D01*
X4069824Y-19573025D02*
X4088872Y-19563501D01*
X4088872Y-19563501D02*
X4117443Y-19563501D01*
X4117443Y-19563501D02*
X4136491Y-19573025D01*
X4136491Y-19573025D02*
X4146015Y-19592072D01*
X4146015Y-19592072D02*
X4146015Y-19696834D01*
X4536491Y-19487311D02*
X4365063Y-19744453D01*
X4793634Y-19496834D02*
X4812682Y-19496834D01*
X4812682Y-19496834D02*
X4831729Y-19506358D01*
X4831729Y-19506358D02*
X4841253Y-19515882D01*
X4841253Y-19515882D02*
X4850777Y-19534930D01*
X4850777Y-19534930D02*
X4860301Y-19573025D01*
X4860301Y-19573025D02*
X4860301Y-19620644D01*
X4860301Y-19620644D02*
X4850777Y-19658739D01*
X4850777Y-19658739D02*
X4841253Y-19677787D01*
X4841253Y-19677787D02*
X4831729Y-19687311D01*
X4831729Y-19687311D02*
X4812682Y-19696834D01*
X4812682Y-19696834D02*
X4793634Y-19696834D01*
X4793634Y-19696834D02*
X4774587Y-19687311D01*
X4774587Y-19687311D02*
X4765063Y-19677787D01*
X4765063Y-19677787D02*
X4755539Y-19658739D01*
X4755539Y-19658739D02*
X4746015Y-19620644D01*
X4746015Y-19620644D02*
X4746015Y-19573025D01*
X4746015Y-19573025D02*
X4755539Y-19534930D01*
X4755539Y-19534930D02*
X4765063Y-19515882D01*
X4765063Y-19515882D02*
X4774587Y-19506358D01*
X4774587Y-19506358D02*
X4793634Y-19496834D01*
X4946015Y-19677787D02*
X4955539Y-19687311D01*
X4955539Y-19687311D02*
X4946015Y-19696834D01*
X4946015Y-19696834D02*
X4936491Y-19687311D01*
X4936491Y-19687311D02*
X4946015Y-19677787D01*
X4946015Y-19677787D02*
X4946015Y-19696834D01*
X5079348Y-19496834D02*
X5098396Y-19496834D01*
X5098396Y-19496834D02*
X5117444Y-19506358D01*
X5117444Y-19506358D02*
X5126968Y-19515882D01*
X5126968Y-19515882D02*
X5136491Y-19534930D01*
X5136491Y-19534930D02*
X5146015Y-19573025D01*
X5146015Y-19573025D02*
X5146015Y-19620644D01*
X5146015Y-19620644D02*
X5136491Y-19658739D01*
X5136491Y-19658739D02*
X5126968Y-19677787D01*
X5126968Y-19677787D02*
X5117444Y-19687311D01*
X5117444Y-19687311D02*
X5098396Y-19696834D01*
X5098396Y-19696834D02*
X5079348Y-19696834D01*
X5079348Y-19696834D02*
X5060301Y-19687311D01*
X5060301Y-19687311D02*
X5050777Y-19677787D01*
X5050777Y-19677787D02*
X5041253Y-19658739D01*
X5041253Y-19658739D02*
X5031729Y-19620644D01*
X5031729Y-19620644D02*
X5031729Y-19573025D01*
X5031729Y-19573025D02*
X5041253Y-19534930D01*
X5041253Y-19534930D02*
X5050777Y-19515882D01*
X5050777Y-19515882D02*
X5060301Y-19506358D01*
X5060301Y-19506358D02*
X5079348Y-19496834D01*
X5212682Y-19496834D02*
X5346015Y-19496834D01*
X5346015Y-19496834D02*
X5260301Y-19696834D01*
X5507920Y-19563501D02*
X5507920Y-19696834D01*
X5460301Y-19487311D02*
X5412682Y-19630168D01*
X5412682Y-19630168D02*
X5536491Y-19630168D01*
X5641253Y-19582549D02*
X5622206Y-19573025D01*
X5622206Y-19573025D02*
X5612682Y-19563501D01*
X5612682Y-19563501D02*
X5603158Y-19544453D01*
X5603158Y-19544453D02*
X5603158Y-19534930D01*
X5603158Y-19534930D02*
X5612682Y-19515882D01*
X5612682Y-19515882D02*
X5622206Y-19506358D01*
X5622206Y-19506358D02*
X5641253Y-19496834D01*
X5641253Y-19496834D02*
X5679348Y-19496834D01*
X5679348Y-19496834D02*
X5698396Y-19506358D01*
X5698396Y-19506358D02*
X5707920Y-19515882D01*
X5707920Y-19515882D02*
X5717444Y-19534930D01*
X5717444Y-19534930D02*
X5717444Y-19544453D01*
X5717444Y-19544453D02*
X5707920Y-19563501D01*
X5707920Y-19563501D02*
X5698396Y-19573025D01*
X5698396Y-19573025D02*
X5679348Y-19582549D01*
X5679348Y-19582549D02*
X5641253Y-19582549D01*
X5641253Y-19582549D02*
X5622206Y-19592072D01*
X5622206Y-19592072D02*
X5612682Y-19601596D01*
X5612682Y-19601596D02*
X5603158Y-19620644D01*
X5603158Y-19620644D02*
X5603158Y-19658739D01*
X5603158Y-19658739D02*
X5612682Y-19677787D01*
X5612682Y-19677787D02*
X5622206Y-19687311D01*
X5622206Y-19687311D02*
X5641253Y-19696834D01*
X5641253Y-19696834D02*
X5679348Y-19696834D01*
X5679348Y-19696834D02*
X5698396Y-19687311D01*
X5698396Y-19687311D02*
X5707920Y-19677787D01*
X5707920Y-19677787D02*
X5717444Y-19658739D01*
X5717444Y-19658739D02*
X5717444Y-19620644D01*
X5717444Y-19620644D02*
X5707920Y-19601596D01*
X5707920Y-19601596D02*
X5698396Y-19592072D01*
X5698396Y-19592072D02*
X5679348Y-19582549D01*
X5793634Y-19496834D02*
X5793634Y-19534930D01*
X5869825Y-19496834D02*
X5869825Y-19534930D01*
X6165063Y-19773025D02*
X6155539Y-19763501D01*
X6155539Y-19763501D02*
X6136491Y-19734930D01*
X6136491Y-19734930D02*
X6126968Y-19715882D01*
X6126968Y-19715882D02*
X6117444Y-19687311D01*
X6117444Y-19687311D02*
X6107920Y-19639691D01*
X6107920Y-19639691D02*
X6107920Y-19601596D01*
X6107920Y-19601596D02*
X6117444Y-19553977D01*
X6117444Y-19553977D02*
X6126968Y-19525406D01*
X6126968Y-19525406D02*
X6136491Y-19506358D01*
X6136491Y-19506358D02*
X6155539Y-19477787D01*
X6155539Y-19477787D02*
X6165063Y-19468263D01*
X6231729Y-19515882D02*
X6241253Y-19506358D01*
X6241253Y-19506358D02*
X6260301Y-19496834D01*
X6260301Y-19496834D02*
X6307920Y-19496834D01*
X6307920Y-19496834D02*
X6326968Y-19506358D01*
X6326968Y-19506358D02*
X6336491Y-19515882D01*
X6336491Y-19515882D02*
X6346015Y-19534930D01*
X6346015Y-19534930D02*
X6346015Y-19553977D01*
X6346015Y-19553977D02*
X6336491Y-19582549D01*
X6336491Y-19582549D02*
X6222206Y-19696834D01*
X6222206Y-19696834D02*
X6346015Y-19696834D01*
X6584110Y-19696834D02*
X6584110Y-19496834D01*
X6669825Y-19696834D02*
X6669825Y-19592072D01*
X6669825Y-19592072D02*
X6660301Y-19573025D01*
X6660301Y-19573025D02*
X6641253Y-19563501D01*
X6641253Y-19563501D02*
X6612682Y-19563501D01*
X6612682Y-19563501D02*
X6593634Y-19573025D01*
X6593634Y-19573025D02*
X6584110Y-19582549D01*
X6793634Y-19696834D02*
X6774587Y-19687311D01*
X6774587Y-19687311D02*
X6765063Y-19677787D01*
X6765063Y-19677787D02*
X6755539Y-19658739D01*
X6755539Y-19658739D02*
X6755539Y-19601596D01*
X6755539Y-19601596D02*
X6765063Y-19582549D01*
X6765063Y-19582549D02*
X6774587Y-19573025D01*
X6774587Y-19573025D02*
X6793634Y-19563501D01*
X6793634Y-19563501D02*
X6822206Y-19563501D01*
X6822206Y-19563501D02*
X6841253Y-19573025D01*
X6841253Y-19573025D02*
X6850777Y-19582549D01*
X6850777Y-19582549D02*
X6860301Y-19601596D01*
X6860301Y-19601596D02*
X6860301Y-19658739D01*
X6860301Y-19658739D02*
X6850777Y-19677787D01*
X6850777Y-19677787D02*
X6841253Y-19687311D01*
X6841253Y-19687311D02*
X6822206Y-19696834D01*
X6822206Y-19696834D02*
X6793634Y-19696834D01*
X6974587Y-19696834D02*
X6955539Y-19687311D01*
X6955539Y-19687311D02*
X6946015Y-19668263D01*
X6946015Y-19668263D02*
X6946015Y-19496834D01*
X7126968Y-19687311D02*
X7107920Y-19696834D01*
X7107920Y-19696834D02*
X7069825Y-19696834D01*
X7069825Y-19696834D02*
X7050777Y-19687311D01*
X7050777Y-19687311D02*
X7041253Y-19668263D01*
X7041253Y-19668263D02*
X7041253Y-19592072D01*
X7041253Y-19592072D02*
X7050777Y-19573025D01*
X7050777Y-19573025D02*
X7069825Y-19563501D01*
X7069825Y-19563501D02*
X7107920Y-19563501D01*
X7107920Y-19563501D02*
X7126968Y-19573025D01*
X7126968Y-19573025D02*
X7136491Y-19592072D01*
X7136491Y-19592072D02*
X7136491Y-19611120D01*
X7136491Y-19611120D02*
X7041253Y-19630168D01*
X7212682Y-19687311D02*
X7231730Y-19696834D01*
X7231730Y-19696834D02*
X7269825Y-19696834D01*
X7269825Y-19696834D02*
X7288872Y-19687311D01*
X7288872Y-19687311D02*
X7298396Y-19668263D01*
X7298396Y-19668263D02*
X7298396Y-19658739D01*
X7298396Y-19658739D02*
X7288872Y-19639691D01*
X7288872Y-19639691D02*
X7269825Y-19630168D01*
X7269825Y-19630168D02*
X7241253Y-19630168D01*
X7241253Y-19630168D02*
X7222206Y-19620644D01*
X7222206Y-19620644D02*
X7212682Y-19601596D01*
X7212682Y-19601596D02*
X7212682Y-19592072D01*
X7212682Y-19592072D02*
X7222206Y-19573025D01*
X7222206Y-19573025D02*
X7241253Y-19563501D01*
X7241253Y-19563501D02*
X7269825Y-19563501D01*
X7269825Y-19563501D02*
X7288872Y-19573025D01*
X7365063Y-19773025D02*
X7374587Y-19763501D01*
X7374587Y-19763501D02*
X7393634Y-19734930D01*
X7393634Y-19734930D02*
X7403158Y-19715882D01*
X7403158Y-19715882D02*
X7412682Y-19687311D01*
X7412682Y-19687311D02*
X7422206Y-19639691D01*
X7422206Y-19639691D02*
X7422206Y-19601596D01*
X7422206Y-19601596D02*
X7412682Y-19553977D01*
X7412682Y-19553977D02*
X7403158Y-19525406D01*
X7403158Y-19525406D02*
X7393634Y-19506358D01*
X7393634Y-19506358D02*
X7374587Y-19477787D01*
X7374587Y-19477787D02*
X7365063Y-19468263D01*
M02*
