%TF.GenerationSoftware,KiCad,Pcbnew,7.0.10*%
%TF.CreationDate,2024-01-30T15:13:43+08:00*%
%TF.ProjectId,top-rounded,746f702d-726f-4756-9e64-65642e6b6963,rev?*%
%TF.SameCoordinates,Original*%
%TF.FileFunction,Soldermask,Top*%
%TF.FilePolarity,Negative*%
%FSLAX46Y46*%
G04 Gerber Fmt 4.6, Leading zero omitted, Abs format (unit mm)*
G04 Created by KiCad (PCBNEW 7.0.10) date 2024-01-30 15:13:43*
%MOMM*%
%LPD*%
G01*
G04 APERTURE LIST*
G04 Aperture macros list*
%AMRoundRect*
0 Rectangle with rounded corners*
0 $1 Rounding radius*
0 $2 $3 $4 $5 $6 $7 $8 $9 X,Y pos of 4 corners*
0 Add a 4 corners polygon primitive as box body*
4,1,4,$2,$3,$4,$5,$6,$7,$8,$9,$2,$3,0*
0 Add four circle primitives for the rounded corners*
1,1,$1+$1,$2,$3*
1,1,$1+$1,$4,$5*
1,1,$1+$1,$6,$7*
1,1,$1+$1,$8,$9*
0 Add four rect primitives between the rounded corners*
20,1,$1+$1,$2,$3,$4,$5,0*
20,1,$1+$1,$4,$5,$6,$7,0*
20,1,$1+$1,$6,$7,$8,$9,0*
20,1,$1+$1,$8,$9,$2,$3,0*%
%AMHorizOval*
0 Thick line with rounded ends*
0 $1 width*
0 $2 $3 position (X,Y) of the first rounded end (center of the circle)*
0 $4 $5 position (X,Y) of the second rounded end (center of the circle)*
0 Add line between two ends*
20,1,$1,$2,$3,$4,$5,0*
0 Add two circle primitives to create the rounded ends*
1,1,$1,$2,$3*
1,1,$1,$4,$5*%
%AMRotRect*
0 Rectangle, with rotation*
0 The origin of the aperture is its center*
0 $1 length*
0 $2 width*
0 $3 Rotation angle, in degrees counterclockwise*
0 Add horizontal line*
21,1,$1,$2,0,0,$3*%
%AMFreePoly0*
4,1,58,1.881242,0.792533,1.914585,0.788777,1.924216,0.782725,1.935306,0.780194,1.961541,0.759271,1.989950,0.741421,2.341421,0.389950,2.359271,0.361541,2.380194,0.335306,2.382725,0.324216,2.388777,0.314585,2.392533,0.281242,2.400000,0.248529,2.400000,-0.248529,2.392533,-0.281242,2.388777,-0.314585,2.382725,-0.324216,2.380194,-0.335306,2.359271,-0.361541,2.341421,-0.389950,
1.989950,-0.741421,1.961541,-0.759271,1.935306,-0.780194,1.924216,-0.782725,1.914585,-0.788777,1.881242,-0.792533,1.848529,-0.800000,0.000000,-0.800000,-0.248529,-0.800000,-0.281242,-0.792533,-0.314585,-0.788777,-0.324216,-0.782725,-0.335306,-0.780194,-0.361541,-0.759271,-0.389950,-0.741421,-0.741421,-0.389950,-0.759271,-0.361541,-0.780194,-0.335306,-0.782725,-0.324216,-0.788777,-0.314585,
-0.792533,-0.281242,-0.800000,-0.248529,-0.800000,0.248529,-0.792533,0.281242,-0.788777,0.314585,-0.782725,0.324216,-0.780194,0.335306,-0.759271,0.361541,-0.741421,0.389950,-0.389950,0.741421,-0.361541,0.759271,-0.335306,0.780194,-0.324216,0.782725,-0.314585,0.788777,-0.281242,0.792533,-0.248529,0.800000,1.848529,0.800000,1.881242,0.792533,1.881242,0.792533,$1*%
%AMFreePoly1*
4,1,58,0.281242,0.792533,0.314585,0.788777,0.324216,0.782725,0.335306,0.780194,0.361541,0.759271,0.389950,0.741421,0.741421,0.389950,0.759271,0.361541,0.780194,0.335306,0.782725,0.324216,0.788777,0.314585,0.792533,0.281242,0.800000,0.248529,0.800000,-0.248529,0.792533,-0.281242,0.788777,-0.314585,0.782725,-0.324216,0.780194,-0.335306,0.759271,-0.361541,0.741421,-0.389950,
0.389950,-0.741421,0.361541,-0.759271,0.335306,-0.780194,0.324216,-0.782725,0.314585,-0.788777,0.281242,-0.792533,0.248529,-0.800000,0.000000,-0.800000,-0.248529,-0.800000,-0.281242,-0.792533,-0.314585,-0.788777,-0.324216,-0.782725,-0.335306,-0.780194,-0.361541,-0.759271,-0.389950,-0.741421,-0.741421,-0.389950,-0.759271,-0.361541,-0.780194,-0.335306,-0.782725,-0.324216,-0.788777,-0.314585,
-0.792533,-0.281242,-0.800000,-0.248529,-0.800000,0.248529,-0.792533,0.281242,-0.788777,0.314585,-0.782725,0.324216,-0.780194,0.335306,-0.759271,0.361541,-0.741421,0.389950,-0.389950,0.741421,-0.361541,0.759271,-0.335306,0.780194,-0.324216,0.782725,-0.314585,0.788777,-0.281242,0.792533,-0.248529,0.800000,0.248529,0.800000,0.281242,0.792533,0.281242,0.792533,$1*%
%AMFreePoly2*
4,1,58,0.281242,2.392533,0.314585,2.388777,0.324216,2.382725,0.335306,2.380194,0.361541,2.359271,0.389950,2.341421,0.741421,1.989950,0.759271,1.961541,0.780194,1.935306,0.782725,1.924216,0.788777,1.914585,0.792533,1.881242,0.800000,1.848529,0.800000,-0.248529,0.792533,-0.281242,0.788777,-0.314585,0.782725,-0.324216,0.780194,-0.335306,0.759271,-0.361541,0.741421,-0.389950,
0.389950,-0.741421,0.361541,-0.759271,0.335306,-0.780194,0.324216,-0.782725,0.314585,-0.788777,0.281242,-0.792533,0.248529,-0.800000,0.000000,-0.800000,-0.248529,-0.800000,-0.281242,-0.792533,-0.314585,-0.788777,-0.324216,-0.782725,-0.335306,-0.780194,-0.361541,-0.759271,-0.389950,-0.741421,-0.741421,-0.389950,-0.759271,-0.361541,-0.780194,-0.335306,-0.782725,-0.324216,-0.788777,-0.314585,
-0.792533,-0.281242,-0.800000,-0.248529,-0.800000,1.848529,-0.792533,1.881242,-0.788777,1.914585,-0.782725,1.924216,-0.780194,1.935306,-0.759271,1.961541,-0.741421,1.989950,-0.389950,2.341421,-0.361541,2.359271,-0.335306,2.380194,-0.324216,2.382725,-0.314585,2.388777,-0.281242,2.392533,-0.248529,2.400000,0.248529,2.400000,0.281242,2.392533,0.281242,2.392533,$1*%
G04 Aperture macros list end*
%ADD10R,1.700000X1.700000*%
%ADD11O,1.700000X1.700000*%
%ADD12RoundRect,0.250000X0.106066X-0.954594X0.954594X-0.106066X-0.106066X0.954594X-0.954594X0.106066X0*%
%ADD13HorizOval,1.700000X-0.106066X0.106066X0.106066X-0.106066X0*%
%ADD14RoundRect,0.250000X0.600000X0.725000X-0.600000X0.725000X-0.600000X-0.725000X0.600000X-0.725000X0*%
%ADD15O,1.700000X1.950000*%
%ADD16RoundRect,0.250000X-0.600000X-0.750000X0.600000X-0.750000X0.600000X0.750000X-0.600000X0.750000X0*%
%ADD17O,1.700000X2.000000*%
%ADD18RoundRect,0.250000X-0.750000X0.600000X-0.750000X-0.600000X0.750000X-0.600000X0.750000X0.600000X0*%
%ADD19O,2.000000X1.700000*%
%ADD20C,1.700000*%
%ADD21C,1.400000*%
%ADD22R,3.500000X3.500000*%
%ADD23C,3.500000*%
%ADD24RotRect,1.700000X1.700000X135.000000*%
%ADD25HorizOval,1.700000X0.000000X0.000000X0.000000X0.000000X0*%
%ADD26RoundRect,0.250000X0.600000X0.750000X-0.600000X0.750000X-0.600000X-0.750000X0.600000X-0.750000X0*%
%ADD27C,3.800000*%
%ADD28O,1.100000X1.800000*%
%ADD29O,1.050000X1.450000*%
%ADD30FreePoly0,0.000000*%
%ADD31FreePoly1,0.000000*%
%ADD32O,3.200000X1.600000*%
%ADD33C,1.600000*%
%ADD34RoundRect,0.200000X-1.400000X-0.600000X1.400000X-0.600000X1.400000X0.600000X-1.400000X0.600000X0*%
%ADD35RoundRect,0.200000X-0.600000X-0.600000X0.600000X-0.600000X0.600000X0.600000X-0.600000X0.600000X0*%
%ADD36FreePoly2,0.000000*%
%ADD37R,1.574800X1.574800*%
%ADD38RoundRect,0.200000X-0.600000X-1.400000X0.600000X-1.400000X0.600000X1.400000X-0.600000X1.400000X0*%
%ADD39C,1.574800*%
%ADD40O,1.600000X3.200000*%
%ADD41R,4.528000X5.544000*%
%ADD42RoundRect,1.132000X-1.132000X-1.640000X1.132000X-1.640000X1.132000X1.640000X-1.132000X1.640000X0*%
%ADD43RoundRect,0.250000X0.750000X-0.600000X0.750000X0.600000X-0.750000X0.600000X-0.750000X-0.600000X0*%
%ADD44RoundRect,0.250000X-0.600000X-0.725000X0.600000X-0.725000X0.600000X0.725000X-0.600000X0.725000X0*%
%ADD45RoundRect,0.250000X-0.088388X0.936916X-0.936916X0.088388X0.088388X-0.936916X0.936916X-0.088388X0*%
%ADD46HorizOval,1.700000X-0.088388X0.088388X0.088388X-0.088388X0*%
G04 APERTURE END LIST*
D10*
%TO.C,U2_R1*%
X83820000Y-83058000D03*
D11*
X83820000Y-80518000D03*
X83820000Y-77978000D03*
X83820000Y-75438000D03*
X83820000Y-72898000D03*
X83820000Y-70358000D03*
X83820000Y-67818000D03*
X83820000Y-65278000D03*
%TD*%
D12*
%TO.C,P6*%
X136027233Y-146420767D03*
D13*
X137795000Y-144653000D03*
%TD*%
D14*
%TO.C,M1*%
X114554000Y-145796000D03*
D15*
X112054000Y-145796000D03*
X109554000Y-145796000D03*
X107054000Y-145796000D03*
%TD*%
D16*
%TO.C,J5*%
X144312000Y-60960000D03*
D17*
X146812000Y-60960000D03*
%TD*%
D12*
%TO.C,P7*%
X144536233Y-137784767D03*
D13*
X146304000Y-136017000D03*
%TD*%
D18*
%TO.C,P5*%
X54754000Y-62123000D03*
D19*
X54754000Y-64623000D03*
%TD*%
D20*
%TO.C,J3*%
X139065000Y-165100000D03*
D10*
X141605000Y-165100000D03*
D11*
X144145000Y-165100000D03*
%TD*%
D10*
%TO.C,J1*%
X114300000Y-57785000D03*
D11*
X111760000Y-57785000D03*
X109220000Y-57785000D03*
X106680000Y-57785000D03*
X104140000Y-57785000D03*
%TD*%
D21*
%TO.C,P1*%
X55873000Y-134581000D03*
X55873000Y-145581000D03*
D22*
X50873000Y-137581000D03*
D23*
X50873000Y-142581000D03*
%TD*%
D10*
%TO.C,J8*%
X106680000Y-61595000D03*
D11*
X104140000Y-61595000D03*
X101600000Y-61595000D03*
X99060000Y-61595000D03*
X96520000Y-61595000D03*
%TD*%
D24*
%TO.C,J2*%
X151456846Y-80953154D03*
D25*
X153252897Y-79157103D03*
X155048948Y-77361052D03*
X156845000Y-75565000D03*
X158641051Y-73768949D03*
%TD*%
D10*
%TO.C,U2_L1*%
X116078000Y-83185000D03*
D11*
X116078000Y-80645000D03*
X116078000Y-78105000D03*
X116078000Y-75565000D03*
X116078000Y-73025000D03*
X116078000Y-70485000D03*
X116078000Y-67945000D03*
X116078000Y-65405000D03*
%TD*%
D12*
%TO.C,J7*%
X160792233Y-147817767D03*
D13*
X162560000Y-146050000D03*
%TD*%
D10*
%TO.C,J9*%
X80010000Y-75565000D03*
D11*
X80010000Y-78105000D03*
X80010000Y-80645000D03*
X80010000Y-83185000D03*
%TD*%
D12*
%TO.C,J6*%
X153684886Y-154817653D03*
D13*
X155452653Y-153049886D03*
%TD*%
D26*
%TO.C,P4*%
X64643000Y-53975000D03*
D17*
X62143000Y-53975000D03*
%TD*%
D14*
%TO.C,M4*%
X93412000Y-145813000D03*
D15*
X90912000Y-145813000D03*
X88412000Y-145813000D03*
X85912000Y-145813000D03*
%TD*%
D10*
%TO.C,J10*%
X80010000Y-66675000D03*
D11*
X80010000Y-69215000D03*
%TD*%
D16*
%TO.C,P3*%
X99080000Y-151875000D03*
D17*
X101580000Y-151875000D03*
%TD*%
D27*
%TO.C,U1*%
X123967000Y-59939000D03*
D28*
X126942000Y-59439000D03*
D29*
X127242000Y-62469000D03*
X132092000Y-62469000D03*
D28*
X132392000Y-59439000D03*
D27*
X135367000Y-59939000D03*
D30*
X119177000Y-59309000D03*
D31*
X120777000Y-59309000D03*
D32*
X119977000Y-61849000D03*
D33*
X120777000Y-61849000D03*
D34*
X119977000Y-64389000D03*
D35*
X120777000Y-64389000D03*
D32*
X119977000Y-66929000D03*
D33*
X120777000Y-66929000D03*
D32*
X119977000Y-69469000D03*
D33*
X120777000Y-69469000D03*
D32*
X119977000Y-72009000D03*
D33*
X120777000Y-72009000D03*
D32*
X119977000Y-74549000D03*
D33*
X120777000Y-74549000D03*
D34*
X119977000Y-77089000D03*
D35*
X120777000Y-77089000D03*
D32*
X119977000Y-79629000D03*
D33*
X120777000Y-79629000D03*
D32*
X119977000Y-82169000D03*
D33*
X120777000Y-82169000D03*
D32*
X119977000Y-84709000D03*
D33*
X120777000Y-84709000D03*
D32*
X119977000Y-87249000D03*
D33*
X120777000Y-87249000D03*
D34*
X119977000Y-89789000D03*
D35*
X120777000Y-89789000D03*
D32*
X119977000Y-92329000D03*
D33*
X120777000Y-92329000D03*
D32*
X119977000Y-94869000D03*
D33*
X120777000Y-94869000D03*
D32*
X119977000Y-97409000D03*
D33*
X120777000Y-97409000D03*
D32*
X119977000Y-99949000D03*
D33*
X120777000Y-99949000D03*
D34*
X119977000Y-102489000D03*
D35*
X120777000Y-102489000D03*
D32*
X119977000Y-105029000D03*
D33*
X120777000Y-105029000D03*
D32*
X119977000Y-107569000D03*
D33*
X120777000Y-107569000D03*
X138557000Y-107569000D03*
D32*
X139357000Y-107569000D03*
D33*
X138557000Y-105029000D03*
D32*
X139357000Y-105029000D03*
D35*
X138557000Y-102489000D03*
D34*
X139357000Y-102489000D03*
D33*
X138557000Y-99949000D03*
D32*
X139357000Y-99949000D03*
D33*
X138557000Y-97409000D03*
D32*
X139357000Y-97409000D03*
D33*
X138557000Y-94869000D03*
D32*
X139357000Y-94869000D03*
D33*
X138557000Y-92329000D03*
D32*
X139357000Y-92329000D03*
D35*
X138557000Y-89789000D03*
D34*
X139357000Y-89789000D03*
D33*
X138557000Y-87249000D03*
D32*
X139357000Y-87249000D03*
D33*
X138557000Y-84709000D03*
D32*
X139357000Y-84709000D03*
D33*
X138557000Y-82169000D03*
D32*
X139357000Y-82169000D03*
D33*
X138557000Y-79629000D03*
D32*
X139357000Y-79629000D03*
D35*
X138557000Y-77089000D03*
D34*
X139357000Y-77089000D03*
D33*
X138557000Y-74549000D03*
D32*
X139357000Y-74549000D03*
D33*
X138557000Y-72009000D03*
D32*
X139357000Y-72009000D03*
D33*
X138557000Y-69469000D03*
D32*
X139357000Y-69469000D03*
D33*
X138557000Y-66929000D03*
D32*
X139357000Y-66929000D03*
D35*
X138557000Y-64389000D03*
D34*
X139357000Y-64389000D03*
D33*
X138557000Y-61849000D03*
D32*
X139357000Y-61849000D03*
D33*
X138557000Y-59309000D03*
D32*
X139357000Y-59309000D03*
D31*
X127127000Y-107339000D03*
D36*
X127127000Y-108939000D03*
D37*
X130251200Y-89139000D03*
D35*
X129667000Y-107339000D03*
D38*
X129667000Y-108139000D03*
D39*
X132791200Y-89139000D03*
D33*
X132207000Y-107339000D03*
D40*
X132207000Y-108139000D03*
D39*
X135331200Y-89139000D03*
%TD*%
D41*
%TO.C,U3*%
X74315270Y-60717708D03*
D10*
X75585270Y-62495708D03*
X73045270Y-62495708D03*
X75585270Y-88495708D03*
X73045270Y-88495708D03*
D41*
X74315270Y-90295708D03*
D20*
X64155270Y-88495708D03*
X61615270Y-88495708D03*
D42*
X62885270Y-90295708D03*
X62907270Y-60695708D03*
D20*
X64155270Y-62495708D03*
X61615270Y-62495708D03*
%TD*%
D43*
%TO.C,P2*%
X79375000Y-159345000D03*
D19*
X79375000Y-156845000D03*
%TD*%
D44*
%TO.C,M2*%
X106847000Y-158877000D03*
D15*
X109347000Y-158877000D03*
X111847000Y-158877000D03*
X114347000Y-158877000D03*
%TD*%
D43*
%TO.C,SW1*%
X79502000Y-101306000D03*
D19*
X79502000Y-98806000D03*
%TD*%
D44*
%TO.C,M3*%
X85805000Y-158877000D03*
D15*
X88305000Y-158877000D03*
X90805000Y-158877000D03*
X93305000Y-158877000D03*
%TD*%
D45*
%TO.C,P8*%
X61849000Y-108458000D03*
D46*
X60081233Y-110225767D03*
X58313466Y-111993534D03*
X56545699Y-113761301D03*
%TD*%
D18*
%TO.C,J4*%
X113140000Y-94000000D03*
D19*
X113140000Y-96500000D03*
%TD*%
M02*
