M48
; DRILL file {KiCad 7.0.10} date 
; FORMAT={-:-/ absolute / metric / decimal}
; #@! TF.CreationDate,2024-01-30T15:14:04+08:00
; #@! TF.GenerationSoftware,Kicad,Pcbnew,7.0.10
; #@! TF.FileFunction,Plated,1,2,PTH
FMAT,2
METRIC
; #@! TA.AperFunction,Plated,PTH,ViaDrill
T1C0.400
; #@! TA.AperFunction,Plated,PTH,ComponentDrill
T2C0.950
; #@! TA.AperFunction,Plated,PTH,ComponentDrill
T3C1.000
; #@! TA.AperFunction,Plated,PTH,ComponentDrill
T4C1.020
; #@! TA.AperFunction,Plated,PTH,ComponentDrill
T5C1.900
%
G90
G05
T1
X85.09Y-99.06
X90.17Y-104.14
X121.449Y-109.347
X123.825Y-94.615
X125.73Y-89.535
X125.73Y-92.71
X127.0Y-90.805
X127.0Y-93.98
X128.905Y-112.014
X130.175Y-131.445
X130.175Y-140.335
X130.175Y-140.335
X130.175Y-149.225
X130.493Y-113.628
X130.601Y-111.969
X131.191Y-96.139
X131.953Y-95.377
X132.207Y-112.903
X133.985Y-111.969
X136.652Y-110.961
X142.24Y-96.52
X143.51Y-95.25
T2
X56.546Y-113.761
X58.313Y-111.994
X60.081Y-110.226
X61.849Y-108.458
X85.805Y-158.877
X85.912Y-145.813
X88.305Y-158.877
X88.412Y-145.813
X90.805Y-158.877
X90.912Y-145.813
X93.305Y-158.877
X93.412Y-145.813
X106.847Y-158.877
X107.054Y-145.796
X109.347Y-158.877
X109.554Y-145.796
X111.847Y-158.877
X112.054Y-145.796
X114.347Y-158.877
X114.554Y-145.796
T3
X54.754Y-62.123
X54.754Y-64.623
X55.873Y-134.581
X55.873Y-145.581
X62.143Y-53.975
X64.643Y-53.975
X79.375Y-156.845
X79.375Y-159.345
X79.502Y-98.806
X79.502Y-101.306
X80.01Y-66.675
X80.01Y-69.215
X80.01Y-75.565
X80.01Y-78.105
X80.01Y-80.645
X80.01Y-83.185
X83.82Y-65.278
X83.82Y-67.818
X83.82Y-70.358
X83.82Y-72.898
X83.82Y-75.438
X83.82Y-77.978
X83.82Y-80.518
X83.82Y-83.058
X96.52Y-61.595
X99.06Y-61.595
X99.08Y-151.875
X101.58Y-151.875
X101.6Y-61.595
X104.14Y-57.785
X104.14Y-61.595
X106.68Y-57.785
X106.68Y-61.595
X109.22Y-57.785
X111.76Y-57.785
X113.14Y-94.0
X113.14Y-96.5
X114.3Y-57.785
X116.078Y-65.405
X116.078Y-67.945
X116.078Y-70.485
X116.078Y-73.025
X116.078Y-75.565
X116.078Y-78.105
X116.078Y-80.645
X116.078Y-83.185
X120.777Y-59.309
X120.777Y-61.849
X120.777Y-64.389
X120.777Y-66.929
X120.777Y-69.469
X120.777Y-72.009
X120.777Y-74.549
X120.777Y-77.089
X120.777Y-79.629
X120.777Y-82.169
X120.777Y-84.709
X120.777Y-87.249
X120.777Y-89.789
X120.777Y-92.329
X120.777Y-94.869
X120.777Y-97.409
X120.777Y-99.949
X120.777Y-102.489
X120.777Y-105.029
X120.777Y-107.569
X127.127Y-107.339
X129.667Y-107.339
X130.251Y-89.139
X132.207Y-107.339
X132.791Y-89.139
X135.331Y-89.139
X136.027Y-146.421
X137.795Y-144.653
X138.557Y-59.309
X138.557Y-61.849
X138.557Y-64.389
X138.557Y-66.929
X138.557Y-69.469
X138.557Y-72.009
X138.557Y-74.549
X138.557Y-77.089
X138.557Y-79.629
X138.557Y-82.169
X138.557Y-84.709
X138.557Y-87.249
X138.557Y-89.789
X138.557Y-92.329
X138.557Y-94.869
X138.557Y-97.409
X138.557Y-99.949
X138.557Y-102.489
X138.557Y-105.029
X138.557Y-107.569
X139.065Y-165.1
X141.605Y-165.1
X144.145Y-165.1
X144.312Y-60.96
X144.536Y-137.785
X146.304Y-136.017
X146.812Y-60.96
X151.457Y-80.953
X153.253Y-79.157
X153.685Y-154.818
X155.049Y-77.361
X155.453Y-153.05
X156.845Y-75.565
X158.641Y-73.769
X160.792Y-147.818
X162.56Y-146.05
T4
X61.615Y-62.496
X61.615Y-88.496
X64.155Y-62.496
X64.155Y-88.496
X73.045Y-62.496
X73.045Y-88.496
X75.585Y-62.496
X75.585Y-88.496
T5
X50.873Y-137.581
X50.873Y-142.581
M30
