%TF.GenerationSoftware,KiCad,Pcbnew,7.0.10*%
%TF.CreationDate,2024-01-30T15:13:43+08:00*%
%TF.ProjectId,top-rounded,746f702d-726f-4756-9e64-65642e6b6963,rev?*%
%TF.SameCoordinates,Original*%
%TF.FileFunction,Profile,NP*%
%FSLAX46Y46*%
G04 Gerber Fmt 4.6, Leading zero omitted, Abs format (unit mm)*
G04 Created by KiCad (PCBNEW 7.0.10) date 2024-01-30 15:13:43*
%MOMM*%
%LPD*%
G01*
G04 APERTURE LIST*
%TA.AperFunction,Profile*%
%ADD10C,0.200000*%
%TD*%
%TA.AperFunction,Profile*%
%ADD11C,0.100000*%
%TD*%
G04 APERTURE END LIST*
D10*
X155000000Y-118000000D02*
X155000000Y-115828427D01*
X45000000Y-115828427D02*
X45000000Y-118000000D01*
X45000000Y-82000000D02*
G75*
G03*
X43000000Y-80000000I-2000000J0D01*
G01*
X68253014Y-178848766D02*
G75*
G03*
X71000000Y-176993506I746986J1855266D01*
G01*
X130075000Y-162500000D02*
G75*
G03*
X126925000Y-162500000I-1575000J0D01*
G01*
X126925000Y-162500000D02*
G75*
G03*
X130075000Y-162500000I1575000J0D01*
G01*
X89477965Y-98000000D02*
X89477965Y-72000000D01*
X129000000Y-168000000D02*
G75*
G03*
X128000000Y-167000000I-1000000J0D01*
G01*
X120000000Y-112000000D02*
G75*
G03*
X118000000Y-110000000I-2000000J0D01*
G01*
X167171573Y-65171573D02*
X166376154Y-65966991D01*
X28000000Y-80000000D02*
X43000000Y-80000000D01*
X107477965Y-100000000D02*
X91477965Y-100000000D01*
X69023088Y-154447222D02*
G75*
G03*
X65923088Y-154447222I-1550000J0D01*
G01*
X65923088Y-154447222D02*
G75*
G03*
X69023088Y-154447222I1550000J0D01*
G01*
X75000000Y-138000000D02*
G75*
G03*
X77000000Y-140000000I2000000J0D01*
G01*
X80000000Y-118000000D02*
X80000000Y-112000000D01*
X107477965Y-100000065D02*
G75*
G03*
X109477965Y-98000000I-65J2000065D01*
G01*
X26000000Y-133000000D02*
G75*
G03*
X32000000Y-151000000I30000000J0D01*
G01*
X47102778Y-132526912D02*
G75*
G03*
X44002778Y-132526912I-1550000J0D01*
G01*
X44002778Y-132526912D02*
G75*
G03*
X47102778Y-132526912I1550000J0D01*
G01*
X106058875Y-55000023D02*
G75*
G03*
X120201010Y-49142136I-75J20000123D01*
G01*
X170782032Y-140000000D02*
G75*
G03*
X167782032Y-140000000I-1500000J0D01*
G01*
X167782032Y-140000000D02*
G75*
G03*
X170782032Y-140000000I1500000J0D01*
G01*
X116280000Y-105200000D02*
G75*
G03*
X113180000Y-105200000I-1550000J0D01*
G01*
X113180000Y-105200000D02*
G75*
G03*
X116280000Y-105200000I1550000J0D01*
G01*
X155997222Y-132526912D02*
G75*
G03*
X152897222Y-132526912I-1550000J0D01*
G01*
X152897222Y-132526912D02*
G75*
G03*
X155997222Y-132526912I1550000J0D01*
G01*
X135575000Y-172000000D02*
G75*
G03*
X132425000Y-172000000I-1575000J0D01*
G01*
X132425000Y-172000000D02*
G75*
G03*
X135575000Y-172000000I1575000J0D01*
G01*
X33623847Y-65966990D02*
G75*
G03*
X42109127Y-65966991I4242640J4242637D01*
G01*
X137704581Y-42952273D02*
X142828427Y-37828427D01*
X75000000Y-138000000D02*
X75000000Y-122000000D01*
X78215476Y-145254834D02*
G75*
G03*
X75115476Y-145254834I-1550000J0D01*
G01*
X75115476Y-145254834D02*
G75*
G03*
X78215476Y-145254834I1550000J0D01*
G01*
X124884524Y-54745166D02*
G75*
G03*
X121784524Y-54745166I-1550000J0D01*
G01*
X121784524Y-54745166D02*
G75*
G03*
X124884524Y-54745166I1550000J0D01*
G01*
X49414221Y-89414207D02*
G75*
G03*
X50828427Y-90000000I1414179J1414107D01*
G01*
X142828426Y-37828426D02*
G75*
G03*
X137171574Y-32171574I-2828426J2828426D01*
G01*
X147000000Y-90000000D02*
X149171573Y-90000000D01*
X32828427Y-65171573D02*
G75*
G03*
X26000000Y-68000000I-2828427J-2828427D01*
G01*
X67575000Y-172000000D02*
G75*
G03*
X64425000Y-172000000I-1575000J0D01*
G01*
X64425000Y-172000000D02*
G75*
G03*
X67575000Y-172000000I1575000J0D01*
G01*
X129000000Y-168000000D02*
X129000000Y-176993506D01*
X32217968Y-140000000D02*
G75*
G03*
X29217968Y-140000000I-1500000J0D01*
G01*
X29217968Y-140000000D02*
G75*
G03*
X32217968Y-140000000I1500000J0D01*
G01*
X137704595Y-42952287D02*
G75*
G03*
X137704581Y-45780700I1414205J-1414213D01*
G01*
X120000000Y-112000000D02*
X120000000Y-118000000D01*
X125000000Y-122000000D02*
G75*
G03*
X123000000Y-120000000I-2000000J0D01*
G01*
X69023088Y-45552778D02*
G75*
G03*
X65923088Y-45552778I-1550000J0D01*
G01*
X65923088Y-45552778D02*
G75*
G03*
X69023088Y-45552778I1550000J0D01*
G01*
X154414214Y-114414214D02*
X150585786Y-110585786D01*
X50828427Y-109999978D02*
G75*
G03*
X49414214Y-110585786I73J-2000122D01*
G01*
X125000000Y-122000000D02*
X125000000Y-138000000D01*
X71000000Y-176993506D02*
X71000000Y-168000000D01*
X157890874Y-65966990D02*
G75*
G03*
X166376154Y-65966991I4242640J4242637D01*
G01*
X157000000Y-80000000D02*
X172000000Y-80000000D01*
X130075000Y-117500000D02*
G75*
G03*
X126925000Y-117500000I-1575000J0D01*
G01*
X126925000Y-117500000D02*
G75*
G03*
X130075000Y-117500000I1575000J0D01*
G01*
X77000000Y-120000000D02*
G75*
G03*
X75000000Y-122000000I0J-2000000D01*
G01*
X91477965Y-70000000D02*
X107477965Y-70000000D01*
X28000000Y-120000000D02*
G75*
G03*
X26000000Y-122000000I0J-2000000D01*
G01*
X72000000Y-167000000D02*
G75*
G03*
X71000000Y-168000000I0J-1000000D01*
G01*
X122000000Y-120000000D02*
X123000000Y-120000000D01*
X26000000Y-122000000D02*
X26000000Y-133000000D01*
X53000000Y-110000000D02*
X50828427Y-110000000D01*
X168000000Y-151000000D02*
G75*
G03*
X174000000Y-133000000I-24000000J18000000D01*
G01*
X128999995Y-176993506D02*
G75*
G03*
X131746988Y-178848771I2000005J6D01*
G01*
X137171573Y-32171573D02*
X120201010Y-49142136D01*
X174000000Y-122000000D02*
G75*
G03*
X172000000Y-120000000I-2000000J0D01*
G01*
X146804834Y-123334524D02*
G75*
G03*
X143704834Y-123334524I-1550000J0D01*
G01*
X143704834Y-123334524D02*
G75*
G03*
X146804834Y-123334524I1550000J0D01*
G01*
X32000001Y-150999999D02*
G75*
G03*
X68253012Y-178848770I67999999J50999999D01*
G01*
X134076912Y-45552778D02*
G75*
G03*
X130976912Y-45552778I-1550000J0D01*
G01*
X130976912Y-45552778D02*
G75*
G03*
X134076912Y-45552778I1550000J0D01*
G01*
X43000000Y-120000000D02*
X28000000Y-120000000D01*
X53000000Y-110000000D02*
G75*
G03*
X55000000Y-108000000I0J2000000D01*
G01*
X149171573Y-90000022D02*
G75*
G03*
X150585786Y-89414214I-73J2000122D01*
G01*
X78000000Y-120000000D02*
G75*
G03*
X80000000Y-118000000I0J2000000D01*
G01*
X157000000Y-80000000D02*
G75*
G03*
X155000000Y-82000000I0J-2000000D01*
G01*
X55000000Y-92000000D02*
X55000000Y-108000000D01*
X172000000Y-120000000D02*
X157000000Y-120000000D01*
X131746988Y-178848771D02*
G75*
G03*
X168000000Y-151000000I-31746988J78848771D01*
G01*
X31575000Y-68000000D02*
G75*
G03*
X28425000Y-68000000I-1575000J0D01*
G01*
X28425000Y-68000000D02*
G75*
G03*
X31575000Y-68000000I1575000J0D01*
G01*
X154414207Y-85585779D02*
G75*
G03*
X155000000Y-84171573I-1414107J1414179D01*
G01*
X31575000Y-132000000D02*
G75*
G03*
X28425000Y-132000000I-1575000J0D01*
G01*
X28425000Y-132000000D02*
G75*
G03*
X31575000Y-132000000I1575000J0D01*
G01*
X73075000Y-117500000D02*
G75*
G03*
X69925000Y-117500000I-1575000J0D01*
G01*
X69925000Y-117500000D02*
G75*
G03*
X73075000Y-117500000I1575000J0D01*
G01*
X155000022Y-115828427D02*
G75*
G03*
X154414214Y-114414214I-2000122J-73D01*
G01*
X73075000Y-162500000D02*
G75*
G03*
X69925000Y-162500000I-1575000J0D01*
G01*
X69925000Y-162500000D02*
G75*
G03*
X73075000Y-162500000I1575000J0D01*
G01*
X43000000Y-120000000D02*
G75*
G03*
X45000000Y-118000000I0J2000000D01*
G01*
X141500000Y-35000000D02*
G75*
G03*
X138500000Y-35000000I-1500000J0D01*
G01*
X138500000Y-35000000D02*
G75*
G03*
X141500000Y-35000000I1500000J0D01*
G01*
X124884524Y-145254834D02*
G75*
G03*
X121784524Y-145254834I-1550000J0D01*
G01*
X121784524Y-145254834D02*
G75*
G03*
X124884524Y-145254834I1550000J0D01*
G01*
X147000000Y-90000000D02*
G75*
G03*
X145000000Y-92000000I0J-2000000D01*
G01*
X146804834Y-76665476D02*
G75*
G03*
X143704834Y-76665476I-1550000J0D01*
G01*
X143704834Y-76665476D02*
G75*
G03*
X146804834Y-76665476I1550000J0D01*
G01*
X149171573Y-110000000D02*
X147000000Y-110000000D01*
X155000000Y-84171573D02*
X155000000Y-82000000D01*
X26000000Y-68000000D02*
X26000000Y-78000000D01*
X145000000Y-108000000D02*
G75*
G03*
X147000000Y-110000000I2000000J0D01*
G01*
X49414214Y-110585786D02*
X45585786Y-114414214D01*
X123000000Y-140000000D02*
X77000000Y-140000000D01*
X82000000Y-110000000D02*
G75*
G03*
X80000000Y-112000000I0J-2000000D01*
G01*
X79798990Y-49142136D02*
X62828427Y-32171573D01*
X171575000Y-68000000D02*
G75*
G03*
X168425000Y-68000000I-1575000J0D01*
G01*
X168425000Y-68000000D02*
G75*
G03*
X171575000Y-68000000I1575000J0D01*
G01*
X72000000Y-167000000D02*
X128000000Y-167000000D01*
X86820000Y-105200000D02*
G75*
G03*
X83720000Y-105200000I-1550000J0D01*
G01*
X83720000Y-105200000D02*
G75*
G03*
X86820000Y-105200000I1550000J0D01*
G01*
X57171573Y-37828427D02*
X62295419Y-42952273D01*
X150585779Y-110585793D02*
G75*
G03*
X149171573Y-110000000I-1414179J-1414107D01*
G01*
X45585786Y-85585786D02*
X49414214Y-89414214D01*
X50828427Y-90000000D02*
X53000000Y-90000000D01*
X172000000Y-80000000D02*
G75*
G03*
X174000000Y-78000000I0J2000000D01*
G01*
X150585786Y-89414214D02*
X154414214Y-85585786D01*
X109477900Y-72000000D02*
G75*
G03*
X107477965Y-70000000I-1999900J100D01*
G01*
X62828426Y-32171574D02*
G75*
G03*
X57171574Y-37828426I-2828426J-2828426D01*
G01*
X174000000Y-78000000D02*
X174000000Y-68000000D01*
X77000000Y-120000000D02*
X78000000Y-120000000D01*
X45000000Y-82000000D02*
X45000000Y-84171573D01*
X157890873Y-65966991D02*
X137704581Y-45780700D01*
X45585793Y-114414221D02*
G75*
G03*
X45000000Y-115828427I1414107J-1414179D01*
G01*
X61500000Y-35000000D02*
G75*
G03*
X58500000Y-35000000I-1500000J0D01*
G01*
X58500000Y-35000000D02*
G75*
G03*
X61500000Y-35000000I1500000J0D01*
G01*
X155000000Y-118000000D02*
G75*
G03*
X157000000Y-120000000I2000000J0D01*
G01*
X120000000Y-118000000D02*
G75*
G03*
X122000000Y-120000000I2000000J0D01*
G01*
X123000000Y-140000000D02*
G75*
G03*
X125000000Y-138000000I0J2000000D01*
G01*
X56295166Y-123334524D02*
G75*
G03*
X53195166Y-123334524I-1550000J0D01*
G01*
X53195166Y-123334524D02*
G75*
G03*
X56295166Y-123334524I1550000J0D01*
G01*
X68099999Y-100000000D02*
G75*
G03*
X61899999Y-100000000I-3100000J0D01*
G01*
X61899999Y-100000000D02*
G75*
G03*
X68099999Y-100000000I3100000J0D01*
G01*
X145000000Y-108000000D02*
X145000000Y-92000000D01*
X79798998Y-49142128D02*
G75*
G03*
X93941125Y-55000000I14142102J14142028D01*
G01*
X155997222Y-67473088D02*
G75*
G03*
X152897222Y-67473088I-1550000J0D01*
G01*
X152897222Y-67473088D02*
G75*
G03*
X155997222Y-67473088I1550000J0D01*
G01*
X55000000Y-92000000D02*
G75*
G03*
X53000000Y-90000000I-2000000J0D01*
G01*
X106058875Y-55000000D02*
X93941125Y-55000000D01*
X109477965Y-72000000D02*
X109477965Y-98000000D01*
X82000000Y-110000000D02*
X118000000Y-110000000D01*
X62295419Y-45780700D02*
X42109127Y-65966991D01*
X44999978Y-84171573D02*
G75*
G03*
X45585786Y-85585786I2000122J73D01*
G01*
X171500000Y-132000000D02*
G75*
G03*
X168500000Y-132000000I-1500000J0D01*
G01*
X168500000Y-132000000D02*
G75*
G03*
X171500000Y-132000000I1500000J0D01*
G01*
X33623846Y-65966991D02*
X32828427Y-65171573D01*
X26000000Y-78000000D02*
G75*
G03*
X28000000Y-80000000I2000000J0D01*
G01*
X62295432Y-45780713D02*
G75*
G03*
X62295419Y-42952273I-1414232J1414213D01*
G01*
X173999999Y-68000000D02*
G75*
G03*
X167171574Y-65171574I-3999999J0D01*
G01*
X47102778Y-67473088D02*
G75*
G03*
X44002778Y-67473088I-1550000J0D01*
G01*
X44002778Y-67473088D02*
G75*
G03*
X47102778Y-67473088I1550000J0D01*
G01*
X134076912Y-154447222D02*
G75*
G03*
X130976912Y-154447222I-1550000J0D01*
G01*
X130976912Y-154447222D02*
G75*
G03*
X134076912Y-154447222I1550000J0D01*
G01*
X56295166Y-76665476D02*
G75*
G03*
X53195166Y-76665476I-1550000J0D01*
G01*
X53195166Y-76665476D02*
G75*
G03*
X56295166Y-76665476I1550000J0D01*
G01*
X78215476Y-54745166D02*
G75*
G03*
X75115476Y-54745166I-1550000J0D01*
G01*
X75115476Y-54745166D02*
G75*
G03*
X78215476Y-54745166I1550000J0D01*
G01*
X89477900Y-98000000D02*
G75*
G03*
X91477965Y-100000000I2000100J100D01*
G01*
X91477965Y-70000065D02*
G75*
G03*
X89477965Y-72000000I-65J-1999935D01*
G01*
X174000000Y-133000000D02*
X174000000Y-122000000D01*
D11*
%TO.C,U1*%
X122667000Y-97909000D02*
X122667000Y-101039000D01*
X122667000Y-108439000D02*
X122667000Y-101039000D01*
X123167000Y-97409000D02*
X136167000Y-97409000D01*
X123167000Y-108939000D02*
X126167000Y-108939000D01*
X126167000Y-108939000D02*
X126167000Y-106399000D01*
X133167000Y-106399000D02*
X126167000Y-106399000D01*
X133167000Y-108939000D02*
X133167000Y-106399000D01*
X136167000Y-108939000D02*
X133167000Y-108939000D01*
X136667000Y-97909000D02*
X136667000Y-101039000D01*
X136667000Y-101039000D02*
X136667000Y-108439000D01*
X123167000Y-97409000D02*
G75*
G03*
X122667000Y-97909000I0J-500000D01*
G01*
X122667000Y-108439000D02*
G75*
G03*
X123167000Y-108939000I500000J0D01*
G01*
X136667000Y-97909000D02*
G75*
G03*
X136167000Y-97409000I-500000J0D01*
G01*
X136167000Y-108939000D02*
G75*
G03*
X136667000Y-108439000I0J500000D01*
G01*
%TD*%
M02*
