%TF.GenerationSoftware,KiCad,Pcbnew,7.0.10*%
%TF.CreationDate,2024-01-30T15:19:55+08:00*%
%TF.ProjectId,imu-rounded,696d752d-726f-4756-9e64-65642e6b6963,rev?*%
%TF.SameCoordinates,Original*%
%TF.FileFunction,Drillmap*%
%TF.FilePolarity,Positive*%
%FSLAX45Y45*%
G04 Gerber Fmt 4.5, Leading zero omitted, Abs format (unit mm)*
G04 Created by KiCad (PCBNEW 7.0.10) date 2024-01-30 15:19:55*
%MOMM*%
%LPD*%
G01*
G04 APERTURE LIST*
%ADD10C,0.200000*%
%ADD11C,0.100000*%
%ADD12C,0.130000*%
G04 APERTURE END LIST*
D10*
X11932600Y-8890100D02*
G75*
G03*
X11622600Y-8890100I-155000J0D01*
G01*
X11622600Y-8890100D02*
G75*
G03*
X11932600Y-8890100I155000J0D01*
G01*
X10020400Y-9390100D02*
X11177600Y-9390100D01*
X5155000Y-13500000D02*
G75*
G03*
X4845000Y-13500000I-155000J0D01*
G01*
X4845000Y-13500000D02*
G75*
G03*
X5155000Y-13500000I155000J0D01*
G01*
X13450000Y-7600000D02*
G75*
G03*
X13350000Y-7500000I-100000J0D01*
G01*
X13450000Y-10335000D02*
G75*
G03*
X13150000Y-10335000I-150000J0D01*
G01*
X13150000Y-10335000D02*
G75*
G03*
X13450000Y-10335000I150000J0D01*
G01*
X7850000Y-9665000D02*
G75*
G03*
X7550000Y-9665000I-150000J0D01*
G01*
X7550000Y-9665000D02*
G75*
G03*
X7850000Y-9665000I150000J0D01*
G01*
X11000000Y-12850000D02*
X11000000Y-12000000D01*
X5000000Y-6000000D02*
G75*
G03*
X4500000Y-6500000I0J-500000D01*
G01*
X13450000Y-7600000D02*
X13450000Y-9400000D01*
X12500000Y-7500000D02*
G75*
G03*
X12400000Y-7600000I0J-100000D01*
G01*
X14500000Y-13500000D02*
X14500000Y-6500000D01*
X8500000Y-12500000D02*
G75*
G03*
X8600000Y-12400000I0J100000D01*
G01*
X13000000Y-12000000D02*
G75*
G03*
X12900000Y-11900000I-100000J0D01*
G01*
X9920400Y-10687900D02*
X9920400Y-9490100D01*
X11000000Y-12850000D02*
G75*
G03*
X11100000Y-12950000I100000J0D01*
G01*
X9575400Y-8890100D02*
G75*
G03*
X9265400Y-8890100I-155000J0D01*
G01*
X9265400Y-8890100D02*
G75*
G03*
X9575400Y-8890100I155000J0D01*
G01*
X12400000Y-9400000D02*
X12400000Y-7600000D01*
X12500000Y-7500000D02*
X13350000Y-7500000D01*
X7550000Y-12400000D02*
X7550000Y-10600000D01*
X11277600Y-9490100D02*
X11277600Y-10687900D01*
X9900000Y-8100000D02*
X8100000Y-8100000D01*
X8000000Y-8000000D02*
G75*
G03*
X8100000Y-8100000I100000J0D01*
G01*
X10985000Y-7200000D02*
G75*
G03*
X10685000Y-7200000I-150000J0D01*
G01*
X10685000Y-7200000D02*
G75*
G03*
X10985000Y-7200000I150000J0D01*
G01*
X13350000Y-9500000D02*
X12500000Y-9500000D01*
X7550000Y-12400000D02*
G75*
G03*
X7650000Y-12500000I100000J0D01*
G01*
X10315000Y-12800000D02*
G75*
G03*
X10015000Y-12800000I-150000J0D01*
G01*
X10015000Y-12800000D02*
G75*
G03*
X10315000Y-12800000I150000J0D01*
G01*
X8100000Y-7050000D02*
X9900000Y-7050000D01*
X11100000Y-11900000D02*
G75*
G03*
X11000000Y-12000000I0J-100000D01*
G01*
X11277600Y-9490100D02*
G75*
G03*
X11177600Y-9390100I-100000J0D01*
G01*
X13350000Y-9500000D02*
G75*
G03*
X13450000Y-9400000I0J100000D01*
G01*
X14155000Y-13500000D02*
G75*
G03*
X13845000Y-13500000I-155000J0D01*
G01*
X13845000Y-13500000D02*
G75*
G03*
X14155000Y-13500000I155000J0D01*
G01*
X10000000Y-7150000D02*
G75*
G03*
X9900000Y-7050000I-100000J0D01*
G01*
X8000000Y-8000000D02*
X8000000Y-7150000D01*
X7155000Y-6500000D02*
G75*
G03*
X6845000Y-6500000I-155000J0D01*
G01*
X6845000Y-6500000D02*
G75*
G03*
X7155000Y-6500000I155000J0D01*
G01*
X10020400Y-9390100D02*
G75*
G03*
X9920400Y-9490100I0J-100000D01*
G01*
X7155000Y-13500000D02*
G75*
G03*
X6845000Y-13500000I-155000J0D01*
G01*
X6845000Y-13500000D02*
G75*
G03*
X7155000Y-13500000I155000J0D01*
G01*
X12400000Y-9400000D02*
G75*
G03*
X12500000Y-9500000I100000J0D01*
G01*
X14155000Y-6500000D02*
G75*
G03*
X13845000Y-6500000I-155000J0D01*
G01*
X13845000Y-6500000D02*
G75*
G03*
X14155000Y-6500000I155000J0D01*
G01*
X14500000Y-6500000D02*
G75*
G03*
X14000000Y-6000000I-500000J0D01*
G01*
X9900000Y-8100000D02*
G75*
G03*
X10000000Y-8000000I0J100000D01*
G01*
X14000000Y-14000000D02*
G75*
G03*
X14500000Y-13500000I0J500000D01*
G01*
X13985000Y-12800000D02*
G75*
G03*
X13685000Y-12800000I-150000J0D01*
G01*
X13685000Y-12800000D02*
G75*
G03*
X13985000Y-12800000I150000J0D01*
G01*
X11932600Y-11287900D02*
G75*
G03*
X11622600Y-11287900I-155000J0D01*
G01*
X11622600Y-11287900D02*
G75*
G03*
X11932600Y-11287900I155000J0D01*
G01*
X13450000Y-6665000D02*
G75*
G03*
X13150000Y-6665000I-150000J0D01*
G01*
X13150000Y-6665000D02*
G75*
G03*
X13450000Y-6665000I150000J0D01*
G01*
X10000000Y-7150000D02*
X10000000Y-8000000D01*
X12900000Y-12950000D02*
G75*
G03*
X13000000Y-12850000I0J100000D01*
G01*
X4500000Y-6500000D02*
X4500000Y-13500000D01*
X7850000Y-13335000D02*
G75*
G03*
X7550000Y-13335000I-150000J0D01*
G01*
X7550000Y-13335000D02*
G75*
G03*
X7850000Y-13335000I150000J0D01*
G01*
X5000000Y-14000000D02*
X14000000Y-14000000D01*
X11100000Y-11900000D02*
X12900000Y-11900000D01*
X14000000Y-6000000D02*
X5000000Y-6000000D01*
X4500000Y-13500000D02*
G75*
G03*
X5000000Y-14000000I500000J0D01*
G01*
X8600000Y-10600000D02*
G75*
G03*
X8500000Y-10500000I-100000J0D01*
G01*
X8100000Y-7050000D02*
G75*
G03*
X8000000Y-7150000I0J-100000D01*
G01*
X12900000Y-12950000D02*
X11100000Y-12950000D01*
X7650000Y-10500000D02*
G75*
G03*
X7550000Y-10600000I0J-100000D01*
G01*
X13000000Y-12000000D02*
X13000000Y-12850000D01*
X9920400Y-10687900D02*
G75*
G03*
X10020400Y-10787900I100000J0D01*
G01*
X7315000Y-7200000D02*
G75*
G03*
X7015000Y-7200000I-150000J0D01*
G01*
X7015000Y-7200000D02*
G75*
G03*
X7315000Y-7200000I150000J0D01*
G01*
X11177600Y-10787900D02*
G75*
G03*
X11277600Y-10687900I0J100000D01*
G01*
X8600000Y-10600000D02*
X8600000Y-12400000D01*
X9575400Y-11287900D02*
G75*
G03*
X9265400Y-11287900I-155000J0D01*
G01*
X9265400Y-11287900D02*
G75*
G03*
X9575400Y-11287900I155000J0D01*
G01*
X8500000Y-12500000D02*
X7650000Y-12500000D01*
X7650000Y-10500000D02*
X8500000Y-10500000D01*
X11177600Y-10787900D02*
X10020400Y-10787900D01*
D11*
X4628200Y-9860600D02*
X4668200Y-9900600D01*
X4668200Y-9860600D02*
X4628200Y-9900600D01*
X4679000Y-13061000D02*
X4719000Y-13101000D01*
X4719000Y-13061000D02*
X4679000Y-13101000D01*
X4806000Y-9987600D02*
X4846000Y-10027600D01*
X4846000Y-9987600D02*
X4806000Y-10027600D01*
X4933000Y-11156000D02*
X4973000Y-11196000D01*
X4973000Y-11156000D02*
X4933000Y-11196000D01*
X4933000Y-11854500D02*
X4973000Y-11894500D01*
X4973000Y-11854500D02*
X4933000Y-11894500D01*
X5060000Y-10622600D02*
X5100000Y-10662600D01*
X5100000Y-10622600D02*
X5060000Y-10662600D01*
X5187000Y-11816400D02*
X5227000Y-11856400D01*
X5227000Y-11816400D02*
X5187000Y-11856400D01*
X5187000Y-11918000D02*
X5227000Y-11958000D01*
X5227000Y-11918000D02*
X5187000Y-11958000D01*
X5187000Y-12108500D02*
X5227000Y-12148500D01*
X5227000Y-12108500D02*
X5187000Y-12148500D01*
X5466400Y-11816400D02*
X5506400Y-11856400D01*
X5506400Y-11816400D02*
X5466400Y-11856400D01*
X5695000Y-9708200D02*
X5735000Y-9748200D01*
X5735000Y-9708200D02*
X5695000Y-9748200D01*
X5872800Y-9479600D02*
X5912800Y-9519600D01*
X5912800Y-9479600D02*
X5872800Y-9519600D01*
X5872800Y-10749600D02*
X5912800Y-10789600D01*
X5912800Y-10749600D02*
X5872800Y-10789600D01*
X5872800Y-11257600D02*
X5912800Y-11297600D01*
X5912800Y-11257600D02*
X5872800Y-11297600D01*
X5872800Y-11511600D02*
X5912800Y-11551600D01*
X5912800Y-11511600D02*
X5872800Y-11551600D01*
X5873265Y-11003135D02*
X5913265Y-11043135D01*
X5913265Y-11003135D02*
X5873265Y-11043135D01*
X5949000Y-10190800D02*
X5989000Y-10230800D01*
X5989000Y-10190800D02*
X5949000Y-10230800D01*
X5974400Y-13823000D02*
X6014400Y-13863000D01*
X6014400Y-13823000D02*
X5974400Y-13863000D01*
X6025200Y-9225600D02*
X6065200Y-9265600D01*
X6065200Y-9225600D02*
X6025200Y-9265600D01*
X6457000Y-13124500D02*
X6497000Y-13164500D01*
X6497000Y-13124500D02*
X6457000Y-13164500D01*
X6584000Y-7701600D02*
X6624000Y-7741600D01*
X6624000Y-7701600D02*
X6584000Y-7741600D01*
X7117400Y-7781500D02*
X7157400Y-7821500D01*
X7157400Y-7781500D02*
X7117400Y-7821500D01*
X7155500Y-8679500D02*
X7195500Y-8719500D01*
X7195500Y-8679500D02*
X7155500Y-8719500D01*
X7295200Y-11283000D02*
X7335200Y-11323000D01*
X7335200Y-11283000D02*
X7295200Y-11323000D01*
X7346000Y-8870000D02*
X7386000Y-8910000D01*
X7386000Y-8870000D02*
X7346000Y-8910000D01*
X7346000Y-13188000D02*
X7386000Y-13228000D01*
X7386000Y-13188000D02*
X7346000Y-13228000D01*
X7409500Y-11283000D02*
X7449500Y-11323000D01*
X7449500Y-11283000D02*
X7409500Y-11323000D01*
X7473000Y-7600000D02*
X7513000Y-7640000D01*
X7513000Y-7600000D02*
X7473000Y-7640000D01*
X7536500Y-7981000D02*
X7576500Y-8021000D01*
X7576500Y-7981000D02*
X7536500Y-8021000D01*
X7600000Y-8285800D02*
X7640000Y-8325800D01*
X7640000Y-8285800D02*
X7600000Y-8325800D01*
X7917500Y-8870000D02*
X7957500Y-8910000D01*
X7957500Y-8870000D02*
X7917500Y-8910000D01*
X8616000Y-12997500D02*
X8656000Y-13037500D01*
X8656000Y-12997500D02*
X8616000Y-13037500D01*
X8870000Y-13543600D02*
X8910000Y-13583600D01*
X8910000Y-13543600D02*
X8870000Y-13583600D01*
X9301800Y-9784400D02*
X9341800Y-9824400D01*
X9341800Y-9784400D02*
X9301800Y-9824400D01*
X9378000Y-8489000D02*
X9418000Y-8529000D01*
X9418000Y-8489000D02*
X9378000Y-8529000D01*
X9422800Y-9251000D02*
X9462800Y-9291000D01*
X9462800Y-9251000D02*
X9422800Y-9291000D01*
X9762700Y-9632000D02*
X9802700Y-9672000D01*
X9802700Y-9632000D02*
X9762700Y-9672000D01*
X9886000Y-9187500D02*
X9926000Y-9227500D01*
X9926000Y-9187500D02*
X9886000Y-9227500D01*
X10063800Y-7062900D02*
X10103800Y-7102900D01*
X10103800Y-7062900D02*
X10063800Y-7102900D01*
X10190800Y-7456400D02*
X10230800Y-7496400D01*
X10230800Y-7456400D02*
X10190800Y-7496400D01*
X10457500Y-12997500D02*
X10497500Y-13037500D01*
X10497500Y-12997500D02*
X10457500Y-13037500D01*
X7612000Y-8509000D02*
G75*
G03*
X7517000Y-8509000I-47500J0D01*
G01*
X7517000Y-8509000D02*
G75*
G03*
X7612000Y-8509000I47500J0D01*
G01*
X7862000Y-8509000D02*
G75*
G03*
X7767000Y-8509000I-47500J0D01*
G01*
X7767000Y-8509000D02*
G75*
G03*
X7862000Y-8509000I47500J0D01*
G01*
X8112000Y-8509000D02*
G75*
G03*
X8017000Y-8509000I-47500J0D01*
G01*
X8017000Y-8509000D02*
G75*
G03*
X8112000Y-8509000I47500J0D01*
G01*
X8362000Y-8509000D02*
G75*
G03*
X8267000Y-8509000I-47500J0D01*
G01*
X8267000Y-8509000D02*
G75*
G03*
X8362000Y-8509000I47500J0D01*
G01*
X8612000Y-8509000D02*
G75*
G03*
X8517000Y-8509000I-47500J0D01*
G01*
X8517000Y-8509000D02*
G75*
G03*
X8612000Y-8509000I47500J0D01*
G01*
X8862000Y-8509000D02*
G75*
G03*
X8767000Y-8509000I-47500J0D01*
G01*
X8767000Y-8509000D02*
G75*
G03*
X8862000Y-8509000I47500J0D01*
G01*
X9064500Y-11878500D02*
G75*
G03*
X8969500Y-11878500I-47500J0D01*
G01*
X8969500Y-11878500D02*
G75*
G03*
X9064500Y-11878500I47500J0D01*
G01*
X9064500Y-12128500D02*
G75*
G03*
X8969500Y-12128500I-47500J0D01*
G01*
X8969500Y-12128500D02*
G75*
G03*
X9064500Y-12128500I47500J0D01*
G01*
X9064500Y-12378500D02*
G75*
G03*
X8969500Y-12378500I-47500J0D01*
G01*
X8969500Y-12378500D02*
G75*
G03*
X9064500Y-12378500I47500J0D01*
G01*
X9064500Y-12628500D02*
G75*
G03*
X8969500Y-12628500I-47500J0D01*
G01*
X8969500Y-12628500D02*
G75*
G03*
X9064500Y-12628500I47500J0D01*
G01*
X9064500Y-12878500D02*
G75*
G03*
X8969500Y-12878500I-47500J0D01*
G01*
X8969500Y-12878500D02*
G75*
G03*
X9064500Y-12878500I47500J0D01*
G01*
X9064500Y-13128500D02*
G75*
G03*
X8969500Y-13128500I-47500J0D01*
G01*
X8969500Y-13128500D02*
G75*
G03*
X9064500Y-13128500I47500J0D01*
G01*
X9838500Y-13525500D02*
G75*
G03*
X9743500Y-13525500I-47500J0D01*
G01*
X9743500Y-13525500D02*
G75*
G03*
X9838500Y-13525500I47500J0D01*
G01*
X10088500Y-13525500D02*
G75*
G03*
X9993500Y-13525500I-47500J0D01*
G01*
X9993500Y-13525500D02*
G75*
G03*
X10088500Y-13525500I47500J0D01*
G01*
X10338500Y-13525500D02*
G75*
G03*
X10243500Y-13525500I-47500J0D01*
G01*
X10243500Y-13525500D02*
G75*
G03*
X10338500Y-13525500I47500J0D01*
G01*
X10588500Y-13525500D02*
G75*
G03*
X10493500Y-13525500I-47500J0D01*
G01*
X10493500Y-13525500D02*
G75*
G03*
X10588500Y-13525500I47500J0D01*
G01*
X10838500Y-13525500D02*
G75*
G03*
X10743500Y-13525500I-47500J0D01*
G01*
X10743500Y-13525500D02*
G75*
G03*
X10838500Y-13525500I47500J0D01*
G01*
X11045000Y-6350000D02*
G75*
G03*
X10950000Y-6350000I-47500J0D01*
G01*
X10950000Y-6350000D02*
G75*
G03*
X11045000Y-6350000I47500J0D01*
G01*
X11295000Y-6350000D02*
G75*
G03*
X11200000Y-6350000I-47500J0D01*
G01*
X11200000Y-6350000D02*
G75*
G03*
X11295000Y-6350000I47500J0D01*
G01*
X11545000Y-6350000D02*
G75*
G03*
X11450000Y-6350000I-47500J0D01*
G01*
X11450000Y-6350000D02*
G75*
G03*
X11545000Y-6350000I47500J0D01*
G01*
X11795000Y-6350000D02*
G75*
G03*
X11700000Y-6350000I-47500J0D01*
G01*
X11700000Y-6350000D02*
G75*
G03*
X11795000Y-6350000I47500J0D01*
G01*
X12045000Y-6350000D02*
G75*
G03*
X11950000Y-6350000I-47500J0D01*
G01*
X11950000Y-6350000D02*
G75*
G03*
X12045000Y-6350000I47500J0D01*
G01*
X12049000Y-7064500D02*
G75*
G03*
X11954000Y-7064500I-47500J0D01*
G01*
X11954000Y-7064500D02*
G75*
G03*
X12049000Y-7064500I47500J0D01*
G01*
X12049000Y-7314500D02*
G75*
G03*
X11954000Y-7314500I-47500J0D01*
G01*
X11954000Y-7314500D02*
G75*
G03*
X12049000Y-7314500I47500J0D01*
G01*
X12049000Y-7564500D02*
G75*
G03*
X11954000Y-7564500I-47500J0D01*
G01*
X11954000Y-7564500D02*
G75*
G03*
X12049000Y-7564500I47500J0D01*
G01*
X12049000Y-7814500D02*
G75*
G03*
X11954000Y-7814500I-47500J0D01*
G01*
X11954000Y-7814500D02*
G75*
G03*
X12049000Y-7814500I47500J0D01*
G01*
X12049000Y-8064500D02*
G75*
G03*
X11954000Y-8064500I-47500J0D01*
G01*
X11954000Y-8064500D02*
G75*
G03*
X12049000Y-8064500I47500J0D01*
G01*
X12049000Y-8314500D02*
G75*
G03*
X11954000Y-8314500I-47500J0D01*
G01*
X11954000Y-8314500D02*
G75*
G03*
X12049000Y-8314500I47500J0D01*
G01*
X12450000Y-11493500D02*
G75*
G03*
X12355000Y-11493500I-47500J0D01*
G01*
X12355000Y-11493500D02*
G75*
G03*
X12450000Y-11493500I47500J0D01*
G01*
X12700000Y-11493500D02*
G75*
G03*
X12605000Y-11493500I-47500J0D01*
G01*
X12605000Y-11493500D02*
G75*
G03*
X12700000Y-11493500I47500J0D01*
G01*
X12950000Y-11493500D02*
G75*
G03*
X12855000Y-11493500I-47500J0D01*
G01*
X12855000Y-11493500D02*
G75*
G03*
X12950000Y-11493500I47500J0D01*
G01*
X13200000Y-11493500D02*
G75*
G03*
X13105000Y-11493500I-47500J0D01*
G01*
X13105000Y-11493500D02*
G75*
G03*
X13200000Y-11493500I47500J0D01*
G01*
X13450000Y-11493500D02*
G75*
G03*
X13355000Y-11493500I-47500J0D01*
G01*
X13355000Y-11493500D02*
G75*
G03*
X13450000Y-11493500I47500J0D01*
G01*
X13700000Y-11493500D02*
G75*
G03*
X13605000Y-11493500I-47500J0D01*
G01*
X13605000Y-11493500D02*
G75*
G03*
X13700000Y-11493500I47500J0D01*
G01*
X4826000Y-8776500D02*
X4826000Y-8876500D01*
X4776000Y-8826500D02*
X4876000Y-8826500D01*
X4826000Y-10300500D02*
X4826000Y-10400500D01*
X4776000Y-10350500D02*
X4876000Y-10350500D01*
X4830000Y-8205000D02*
X4830000Y-8305000D01*
X4780000Y-8255000D02*
X4880000Y-8255000D01*
X5080000Y-8205000D02*
X5080000Y-8305000D01*
X5030000Y-8255000D02*
X5130000Y-8255000D01*
X5080000Y-8776500D02*
X5080000Y-8876500D01*
X5030000Y-8826500D02*
X5130000Y-8826500D01*
X5080000Y-10300500D02*
X5080000Y-10400500D01*
X5030000Y-10350500D02*
X5130000Y-10350500D01*
X5080000Y-12586500D02*
X5080000Y-12686500D01*
X5030000Y-12636500D02*
X5130000Y-12636500D01*
X5334000Y-8776500D02*
X5334000Y-8876500D01*
X5284000Y-8826500D02*
X5384000Y-8826500D01*
X5334000Y-10300500D02*
X5334000Y-10400500D01*
X5284000Y-10350500D02*
X5384000Y-10350500D01*
X5334000Y-12586500D02*
X5334000Y-12686500D01*
X5284000Y-12636500D02*
X5384000Y-12636500D01*
X5588000Y-8776500D02*
X5588000Y-8876500D01*
X5538000Y-8826500D02*
X5638000Y-8826500D01*
X5588000Y-10300500D02*
X5588000Y-10400500D01*
X5538000Y-10350500D02*
X5638000Y-10350500D01*
X5588000Y-12586500D02*
X5588000Y-12686500D01*
X5538000Y-12636500D02*
X5638000Y-12636500D01*
X5588000Y-13162000D02*
X5588000Y-13262000D01*
X5538000Y-13212000D02*
X5638000Y-13212000D01*
X5588000Y-13412000D02*
X5588000Y-13512000D01*
X5538000Y-13462000D02*
X5638000Y-13462000D01*
X5842000Y-8776500D02*
X5842000Y-8876500D01*
X5792000Y-8826500D02*
X5892000Y-8826500D01*
X5842000Y-10300500D02*
X5842000Y-10400500D01*
X5792000Y-10350500D02*
X5892000Y-10350500D01*
X5842000Y-12586500D02*
X5842000Y-12686500D01*
X5792000Y-12636500D02*
X5892000Y-12636500D01*
X6096000Y-8776500D02*
X6096000Y-8876500D01*
X6046000Y-8826500D02*
X6146000Y-8826500D01*
X6096000Y-10300500D02*
X6096000Y-10400500D01*
X6046000Y-10350500D02*
X6146000Y-10350500D01*
X6096000Y-12586500D02*
X6096000Y-12686500D01*
X6046000Y-12636500D02*
X6146000Y-12636500D01*
X6350000Y-8776500D02*
X6350000Y-8876500D01*
X6300000Y-8826500D02*
X6400000Y-8826500D01*
X6350000Y-10300500D02*
X6350000Y-10400500D01*
X6300000Y-10350500D02*
X6400000Y-10350500D01*
X6350000Y-12586500D02*
X6350000Y-12686500D01*
X6300000Y-12636500D02*
X6400000Y-12636500D01*
X6479000Y-8194000D02*
X6479000Y-8294000D01*
X6429000Y-8244000D02*
X6529000Y-8244000D01*
X6604000Y-8776500D02*
X6604000Y-8876500D01*
X6554000Y-8826500D02*
X6654000Y-8826500D01*
X6604000Y-10300500D02*
X6604000Y-10400500D01*
X6554000Y-10350500D02*
X6654000Y-10350500D01*
X6604000Y-12586500D02*
X6604000Y-12686500D01*
X6554000Y-12636500D02*
X6654000Y-12636500D01*
X6729000Y-8194000D02*
X6729000Y-8294000D01*
X6679000Y-8244000D02*
X6779000Y-8244000D01*
X6858000Y-8776500D02*
X6858000Y-8876500D01*
X6808000Y-8826500D02*
X6908000Y-8826500D01*
X6858000Y-9030500D02*
X6858000Y-9130500D01*
X6808000Y-9080500D02*
X6908000Y-9080500D01*
X6858000Y-9284500D02*
X6858000Y-9384500D01*
X6808000Y-9334500D02*
X6908000Y-9334500D01*
X6858000Y-9538500D02*
X6858000Y-9638500D01*
X6808000Y-9588500D02*
X6908000Y-9588500D01*
X6858000Y-9792500D02*
X6858000Y-9892500D01*
X6808000Y-9842500D02*
X6908000Y-9842500D01*
X6858000Y-10046500D02*
X6858000Y-10146500D01*
X6808000Y-10096500D02*
X6908000Y-10096500D01*
X6858000Y-10300500D02*
X6858000Y-10400500D01*
X6808000Y-10350500D02*
X6908000Y-10350500D01*
X6858000Y-12586500D02*
X6858000Y-12686500D01*
X6808000Y-12636500D02*
X6908000Y-12636500D01*
X8890000Y-9157500D02*
X8890000Y-9257500D01*
X8840000Y-9207500D02*
X8940000Y-9207500D01*
X8890000Y-9411500D02*
X8890000Y-9511500D01*
X8840000Y-9461500D02*
X8940000Y-9461500D01*
X8890000Y-9665500D02*
X8890000Y-9765500D01*
X8840000Y-9715500D02*
X8940000Y-9715500D01*
X8890000Y-9919500D02*
X8890000Y-10019500D01*
X8840000Y-9969500D02*
X8940000Y-9969500D01*
X8890000Y-10173500D02*
X8890000Y-10273500D01*
X8840000Y-10223500D02*
X8940000Y-10223500D01*
X8890000Y-10427500D02*
X8890000Y-10527500D01*
X8840000Y-10477500D02*
X8940000Y-10477500D01*
X10100500Y-11824500D02*
X10100500Y-11924500D01*
X10050500Y-11874500D02*
X10150500Y-11874500D01*
X10218420Y-8814600D02*
X10218420Y-8914600D01*
X10168420Y-8864600D02*
X10268420Y-8864600D01*
X10350500Y-11824500D02*
X10350500Y-11924500D01*
X10300500Y-11874500D02*
X10400500Y-11874500D01*
X10472420Y-8814600D02*
X10472420Y-8914600D01*
X10422420Y-8864600D02*
X10522420Y-8864600D01*
X10608500Y-8078000D02*
X10608500Y-8178000D01*
X10558500Y-8128000D02*
X10658500Y-8128000D01*
X10726420Y-8814600D02*
X10726420Y-8914600D01*
X10676420Y-8864600D02*
X10776420Y-8864600D01*
X10858500Y-8078000D02*
X10858500Y-8178000D01*
X10808500Y-8128000D02*
X10908500Y-8128000D01*
X10980420Y-8814600D02*
X10980420Y-8914600D01*
X10930420Y-8864600D02*
X11030420Y-8864600D01*
D12*
X5052136Y-6581185D02*
X5052136Y-6489260D01*
X4960211Y-6489260D01*
X4960211Y-6581185D01*
X5052136Y-6581185D01*
X5052136Y-7391185D02*
X5052136Y-7299260D01*
X4960211Y-7299260D01*
X4960211Y-7391185D01*
X5052136Y-7391185D01*
X6502136Y-6581185D02*
X6502136Y-6489260D01*
X6410211Y-6489260D01*
X6410211Y-6581185D01*
X6502136Y-6581185D01*
X6502136Y-7392405D02*
X6502136Y-7300480D01*
X6410211Y-7300480D01*
X6410211Y-7392405D01*
X6502136Y-7392405D01*
D10*
X4750777Y-14321484D02*
X4750777Y-14121484D01*
X4750777Y-14121484D02*
X4798396Y-14121484D01*
X4798396Y-14121484D02*
X4826967Y-14131008D01*
X4826967Y-14131008D02*
X4846015Y-14150055D01*
X4846015Y-14150055D02*
X4855539Y-14169103D01*
X4855539Y-14169103D02*
X4865063Y-14207198D01*
X4865063Y-14207198D02*
X4865063Y-14235769D01*
X4865063Y-14235769D02*
X4855539Y-14273865D01*
X4855539Y-14273865D02*
X4846015Y-14292912D01*
X4846015Y-14292912D02*
X4826967Y-14311960D01*
X4826967Y-14311960D02*
X4798396Y-14321484D01*
X4798396Y-14321484D02*
X4750777Y-14321484D01*
X4950777Y-14321484D02*
X4950777Y-14188150D01*
X4950777Y-14226246D02*
X4960301Y-14207198D01*
X4960301Y-14207198D02*
X4969824Y-14197674D01*
X4969824Y-14197674D02*
X4988872Y-14188150D01*
X4988872Y-14188150D02*
X5007920Y-14188150D01*
X5074586Y-14321484D02*
X5074586Y-14188150D01*
X5074586Y-14121484D02*
X5065063Y-14131008D01*
X5065063Y-14131008D02*
X5074586Y-14140531D01*
X5074586Y-14140531D02*
X5084110Y-14131008D01*
X5084110Y-14131008D02*
X5074586Y-14121484D01*
X5074586Y-14121484D02*
X5074586Y-14140531D01*
X5198396Y-14321484D02*
X5179348Y-14311960D01*
X5179348Y-14311960D02*
X5169824Y-14292912D01*
X5169824Y-14292912D02*
X5169824Y-14121484D01*
X5303158Y-14321484D02*
X5284110Y-14311960D01*
X5284110Y-14311960D02*
X5274586Y-14292912D01*
X5274586Y-14292912D02*
X5274586Y-14121484D01*
X5531729Y-14321484D02*
X5531729Y-14121484D01*
X5531729Y-14121484D02*
X5598396Y-14264341D01*
X5598396Y-14264341D02*
X5665062Y-14121484D01*
X5665062Y-14121484D02*
X5665062Y-14321484D01*
X5846015Y-14321484D02*
X5846015Y-14216722D01*
X5846015Y-14216722D02*
X5836491Y-14197674D01*
X5836491Y-14197674D02*
X5817443Y-14188150D01*
X5817443Y-14188150D02*
X5779348Y-14188150D01*
X5779348Y-14188150D02*
X5760301Y-14197674D01*
X5846015Y-14311960D02*
X5826967Y-14321484D01*
X5826967Y-14321484D02*
X5779348Y-14321484D01*
X5779348Y-14321484D02*
X5760301Y-14311960D01*
X5760301Y-14311960D02*
X5750777Y-14292912D01*
X5750777Y-14292912D02*
X5750777Y-14273865D01*
X5750777Y-14273865D02*
X5760301Y-14254817D01*
X5760301Y-14254817D02*
X5779348Y-14245293D01*
X5779348Y-14245293D02*
X5826967Y-14245293D01*
X5826967Y-14245293D02*
X5846015Y-14235769D01*
X5941253Y-14188150D02*
X5941253Y-14388150D01*
X5941253Y-14197674D02*
X5960301Y-14188150D01*
X5960301Y-14188150D02*
X5998396Y-14188150D01*
X5998396Y-14188150D02*
X6017443Y-14197674D01*
X6017443Y-14197674D02*
X6026967Y-14207198D01*
X6026967Y-14207198D02*
X6036491Y-14226246D01*
X6036491Y-14226246D02*
X6036491Y-14283388D01*
X6036491Y-14283388D02*
X6026967Y-14302436D01*
X6026967Y-14302436D02*
X6017443Y-14311960D01*
X6017443Y-14311960D02*
X5998396Y-14321484D01*
X5998396Y-14321484D02*
X5960301Y-14321484D01*
X5960301Y-14321484D02*
X5941253Y-14311960D01*
X6122205Y-14302436D02*
X6131729Y-14311960D01*
X6131729Y-14311960D02*
X6122205Y-14321484D01*
X6122205Y-14321484D02*
X6112682Y-14311960D01*
X6112682Y-14311960D02*
X6122205Y-14302436D01*
X6122205Y-14302436D02*
X6122205Y-14321484D01*
X6122205Y-14197674D02*
X6131729Y-14207198D01*
X6131729Y-14207198D02*
X6122205Y-14216722D01*
X6122205Y-14216722D02*
X6112682Y-14207198D01*
X6112682Y-14207198D02*
X6122205Y-14197674D01*
X6122205Y-14197674D02*
X6122205Y-14216722D01*
D11*
X4450000Y-14630000D02*
X4490000Y-14670000D01*
X4490000Y-14630000D02*
X4450000Y-14670000D01*
D10*
X4788872Y-14541484D02*
X4807920Y-14541484D01*
X4807920Y-14541484D02*
X4826967Y-14551008D01*
X4826967Y-14551008D02*
X4836491Y-14560531D01*
X4836491Y-14560531D02*
X4846015Y-14579579D01*
X4846015Y-14579579D02*
X4855539Y-14617674D01*
X4855539Y-14617674D02*
X4855539Y-14665293D01*
X4855539Y-14665293D02*
X4846015Y-14703388D01*
X4846015Y-14703388D02*
X4836491Y-14722436D01*
X4836491Y-14722436D02*
X4826967Y-14731960D01*
X4826967Y-14731960D02*
X4807920Y-14741484D01*
X4807920Y-14741484D02*
X4788872Y-14741484D01*
X4788872Y-14741484D02*
X4769824Y-14731960D01*
X4769824Y-14731960D02*
X4760301Y-14722436D01*
X4760301Y-14722436D02*
X4750777Y-14703388D01*
X4750777Y-14703388D02*
X4741253Y-14665293D01*
X4741253Y-14665293D02*
X4741253Y-14617674D01*
X4741253Y-14617674D02*
X4750777Y-14579579D01*
X4750777Y-14579579D02*
X4760301Y-14560531D01*
X4760301Y-14560531D02*
X4769824Y-14551008D01*
X4769824Y-14551008D02*
X4788872Y-14541484D01*
X4941253Y-14722436D02*
X4950777Y-14731960D01*
X4950777Y-14731960D02*
X4941253Y-14741484D01*
X4941253Y-14741484D02*
X4931729Y-14731960D01*
X4931729Y-14731960D02*
X4941253Y-14722436D01*
X4941253Y-14722436D02*
X4941253Y-14741484D01*
X5122205Y-14608150D02*
X5122205Y-14741484D01*
X5074586Y-14531960D02*
X5026967Y-14674817D01*
X5026967Y-14674817D02*
X5150777Y-14674817D01*
X5265063Y-14541484D02*
X5284110Y-14541484D01*
X5284110Y-14541484D02*
X5303158Y-14551008D01*
X5303158Y-14551008D02*
X5312682Y-14560531D01*
X5312682Y-14560531D02*
X5322205Y-14579579D01*
X5322205Y-14579579D02*
X5331729Y-14617674D01*
X5331729Y-14617674D02*
X5331729Y-14665293D01*
X5331729Y-14665293D02*
X5322205Y-14703388D01*
X5322205Y-14703388D02*
X5312682Y-14722436D01*
X5312682Y-14722436D02*
X5303158Y-14731960D01*
X5303158Y-14731960D02*
X5284110Y-14741484D01*
X5284110Y-14741484D02*
X5265063Y-14741484D01*
X5265063Y-14741484D02*
X5246015Y-14731960D01*
X5246015Y-14731960D02*
X5236491Y-14722436D01*
X5236491Y-14722436D02*
X5226967Y-14703388D01*
X5226967Y-14703388D02*
X5217444Y-14665293D01*
X5217444Y-14665293D02*
X5217444Y-14617674D01*
X5217444Y-14617674D02*
X5226967Y-14579579D01*
X5226967Y-14579579D02*
X5236491Y-14560531D01*
X5236491Y-14560531D02*
X5246015Y-14551008D01*
X5246015Y-14551008D02*
X5265063Y-14541484D01*
X5455539Y-14541484D02*
X5474586Y-14541484D01*
X5474586Y-14541484D02*
X5493634Y-14551008D01*
X5493634Y-14551008D02*
X5503158Y-14560531D01*
X5503158Y-14560531D02*
X5512682Y-14579579D01*
X5512682Y-14579579D02*
X5522205Y-14617674D01*
X5522205Y-14617674D02*
X5522205Y-14665293D01*
X5522205Y-14665293D02*
X5512682Y-14703388D01*
X5512682Y-14703388D02*
X5503158Y-14722436D01*
X5503158Y-14722436D02*
X5493634Y-14731960D01*
X5493634Y-14731960D02*
X5474586Y-14741484D01*
X5474586Y-14741484D02*
X5455539Y-14741484D01*
X5455539Y-14741484D02*
X5436491Y-14731960D01*
X5436491Y-14731960D02*
X5426967Y-14722436D01*
X5426967Y-14722436D02*
X5417444Y-14703388D01*
X5417444Y-14703388D02*
X5407920Y-14665293D01*
X5407920Y-14665293D02*
X5407920Y-14617674D01*
X5407920Y-14617674D02*
X5417444Y-14579579D01*
X5417444Y-14579579D02*
X5426967Y-14560531D01*
X5426967Y-14560531D02*
X5436491Y-14551008D01*
X5436491Y-14551008D02*
X5455539Y-14541484D01*
X5607920Y-14741484D02*
X5607920Y-14608150D01*
X5607920Y-14627198D02*
X5617443Y-14617674D01*
X5617443Y-14617674D02*
X5636491Y-14608150D01*
X5636491Y-14608150D02*
X5665063Y-14608150D01*
X5665063Y-14608150D02*
X5684110Y-14617674D01*
X5684110Y-14617674D02*
X5693634Y-14636722D01*
X5693634Y-14636722D02*
X5693634Y-14741484D01*
X5693634Y-14636722D02*
X5703158Y-14617674D01*
X5703158Y-14617674D02*
X5722205Y-14608150D01*
X5722205Y-14608150D02*
X5750777Y-14608150D01*
X5750777Y-14608150D02*
X5769824Y-14617674D01*
X5769824Y-14617674D02*
X5779348Y-14636722D01*
X5779348Y-14636722D02*
X5779348Y-14741484D01*
X5874586Y-14741484D02*
X5874586Y-14608150D01*
X5874586Y-14627198D02*
X5884110Y-14617674D01*
X5884110Y-14617674D02*
X5903158Y-14608150D01*
X5903158Y-14608150D02*
X5931729Y-14608150D01*
X5931729Y-14608150D02*
X5950777Y-14617674D01*
X5950777Y-14617674D02*
X5960301Y-14636722D01*
X5960301Y-14636722D02*
X5960301Y-14741484D01*
X5960301Y-14636722D02*
X5969824Y-14617674D01*
X5969824Y-14617674D02*
X5988872Y-14608150D01*
X5988872Y-14608150D02*
X6017443Y-14608150D01*
X6017443Y-14608150D02*
X6036491Y-14617674D01*
X6036491Y-14617674D02*
X6046015Y-14636722D01*
X6046015Y-14636722D02*
X6046015Y-14741484D01*
X6436491Y-14531960D02*
X6265063Y-14789103D01*
X6693634Y-14541484D02*
X6712682Y-14541484D01*
X6712682Y-14541484D02*
X6731729Y-14551008D01*
X6731729Y-14551008D02*
X6741253Y-14560531D01*
X6741253Y-14560531D02*
X6750777Y-14579579D01*
X6750777Y-14579579D02*
X6760301Y-14617674D01*
X6760301Y-14617674D02*
X6760301Y-14665293D01*
X6760301Y-14665293D02*
X6750777Y-14703388D01*
X6750777Y-14703388D02*
X6741253Y-14722436D01*
X6741253Y-14722436D02*
X6731729Y-14731960D01*
X6731729Y-14731960D02*
X6712682Y-14741484D01*
X6712682Y-14741484D02*
X6693634Y-14741484D01*
X6693634Y-14741484D02*
X6674586Y-14731960D01*
X6674586Y-14731960D02*
X6665063Y-14722436D01*
X6665063Y-14722436D02*
X6655539Y-14703388D01*
X6655539Y-14703388D02*
X6646015Y-14665293D01*
X6646015Y-14665293D02*
X6646015Y-14617674D01*
X6646015Y-14617674D02*
X6655539Y-14579579D01*
X6655539Y-14579579D02*
X6665063Y-14560531D01*
X6665063Y-14560531D02*
X6674586Y-14551008D01*
X6674586Y-14551008D02*
X6693634Y-14541484D01*
X6846015Y-14722436D02*
X6855539Y-14731960D01*
X6855539Y-14731960D02*
X6846015Y-14741484D01*
X6846015Y-14741484D02*
X6836491Y-14731960D01*
X6836491Y-14731960D02*
X6846015Y-14722436D01*
X6846015Y-14722436D02*
X6846015Y-14741484D01*
X6979348Y-14541484D02*
X6998396Y-14541484D01*
X6998396Y-14541484D02*
X7017444Y-14551008D01*
X7017444Y-14551008D02*
X7026967Y-14560531D01*
X7026967Y-14560531D02*
X7036491Y-14579579D01*
X7036491Y-14579579D02*
X7046015Y-14617674D01*
X7046015Y-14617674D02*
X7046015Y-14665293D01*
X7046015Y-14665293D02*
X7036491Y-14703388D01*
X7036491Y-14703388D02*
X7026967Y-14722436D01*
X7026967Y-14722436D02*
X7017444Y-14731960D01*
X7017444Y-14731960D02*
X6998396Y-14741484D01*
X6998396Y-14741484D02*
X6979348Y-14741484D01*
X6979348Y-14741484D02*
X6960301Y-14731960D01*
X6960301Y-14731960D02*
X6950777Y-14722436D01*
X6950777Y-14722436D02*
X6941253Y-14703388D01*
X6941253Y-14703388D02*
X6931729Y-14665293D01*
X6931729Y-14665293D02*
X6931729Y-14617674D01*
X6931729Y-14617674D02*
X6941253Y-14579579D01*
X6941253Y-14579579D02*
X6950777Y-14560531D01*
X6950777Y-14560531D02*
X6960301Y-14551008D01*
X6960301Y-14551008D02*
X6979348Y-14541484D01*
X7236491Y-14741484D02*
X7122206Y-14741484D01*
X7179348Y-14741484D02*
X7179348Y-14541484D01*
X7179348Y-14541484D02*
X7160301Y-14570055D01*
X7160301Y-14570055D02*
X7141253Y-14589103D01*
X7141253Y-14589103D02*
X7122206Y-14598627D01*
X7417444Y-14541484D02*
X7322206Y-14541484D01*
X7322206Y-14541484D02*
X7312682Y-14636722D01*
X7312682Y-14636722D02*
X7322206Y-14627198D01*
X7322206Y-14627198D02*
X7341253Y-14617674D01*
X7341253Y-14617674D02*
X7388872Y-14617674D01*
X7388872Y-14617674D02*
X7407920Y-14627198D01*
X7407920Y-14627198D02*
X7417444Y-14636722D01*
X7417444Y-14636722D02*
X7426967Y-14655769D01*
X7426967Y-14655769D02*
X7426967Y-14703388D01*
X7426967Y-14703388D02*
X7417444Y-14722436D01*
X7417444Y-14722436D02*
X7407920Y-14731960D01*
X7407920Y-14731960D02*
X7388872Y-14741484D01*
X7388872Y-14741484D02*
X7341253Y-14741484D01*
X7341253Y-14741484D02*
X7322206Y-14731960D01*
X7322206Y-14731960D02*
X7312682Y-14722436D01*
X7493634Y-14541484D02*
X7626967Y-14541484D01*
X7626967Y-14541484D02*
X7541253Y-14741484D01*
X7693634Y-14541484D02*
X7693634Y-14579579D01*
X7769825Y-14541484D02*
X7769825Y-14579579D01*
X8065063Y-14817674D02*
X8055539Y-14808150D01*
X8055539Y-14808150D02*
X8036491Y-14779579D01*
X8036491Y-14779579D02*
X8026968Y-14760531D01*
X8026968Y-14760531D02*
X8017444Y-14731960D01*
X8017444Y-14731960D02*
X8007920Y-14684341D01*
X8007920Y-14684341D02*
X8007920Y-14646246D01*
X8007920Y-14646246D02*
X8017444Y-14598627D01*
X8017444Y-14598627D02*
X8026968Y-14570055D01*
X8026968Y-14570055D02*
X8036491Y-14551008D01*
X8036491Y-14551008D02*
X8055539Y-14522436D01*
X8055539Y-14522436D02*
X8065063Y-14512912D01*
X8226968Y-14608150D02*
X8226968Y-14741484D01*
X8179348Y-14531960D02*
X8131729Y-14674817D01*
X8131729Y-14674817D02*
X8255539Y-14674817D01*
X8436491Y-14741484D02*
X8322206Y-14741484D01*
X8379348Y-14741484D02*
X8379348Y-14541484D01*
X8379348Y-14541484D02*
X8360301Y-14570055D01*
X8360301Y-14570055D02*
X8341253Y-14589103D01*
X8341253Y-14589103D02*
X8322206Y-14598627D01*
X8674587Y-14741484D02*
X8674587Y-14541484D01*
X8760301Y-14741484D02*
X8760301Y-14636722D01*
X8760301Y-14636722D02*
X8750777Y-14617674D01*
X8750777Y-14617674D02*
X8731730Y-14608150D01*
X8731730Y-14608150D02*
X8703158Y-14608150D01*
X8703158Y-14608150D02*
X8684111Y-14617674D01*
X8684111Y-14617674D02*
X8674587Y-14627198D01*
X8884111Y-14741484D02*
X8865063Y-14731960D01*
X8865063Y-14731960D02*
X8855539Y-14722436D01*
X8855539Y-14722436D02*
X8846015Y-14703388D01*
X8846015Y-14703388D02*
X8846015Y-14646246D01*
X8846015Y-14646246D02*
X8855539Y-14627198D01*
X8855539Y-14627198D02*
X8865063Y-14617674D01*
X8865063Y-14617674D02*
X8884111Y-14608150D01*
X8884111Y-14608150D02*
X8912682Y-14608150D01*
X8912682Y-14608150D02*
X8931730Y-14617674D01*
X8931730Y-14617674D02*
X8941253Y-14627198D01*
X8941253Y-14627198D02*
X8950777Y-14646246D01*
X8950777Y-14646246D02*
X8950777Y-14703388D01*
X8950777Y-14703388D02*
X8941253Y-14722436D01*
X8941253Y-14722436D02*
X8931730Y-14731960D01*
X8931730Y-14731960D02*
X8912682Y-14741484D01*
X8912682Y-14741484D02*
X8884111Y-14741484D01*
X9065063Y-14741484D02*
X9046015Y-14731960D01*
X9046015Y-14731960D02*
X9036492Y-14712912D01*
X9036492Y-14712912D02*
X9036492Y-14541484D01*
X9217444Y-14731960D02*
X9198396Y-14741484D01*
X9198396Y-14741484D02*
X9160301Y-14741484D01*
X9160301Y-14741484D02*
X9141253Y-14731960D01*
X9141253Y-14731960D02*
X9131730Y-14712912D01*
X9131730Y-14712912D02*
X9131730Y-14636722D01*
X9131730Y-14636722D02*
X9141253Y-14617674D01*
X9141253Y-14617674D02*
X9160301Y-14608150D01*
X9160301Y-14608150D02*
X9198396Y-14608150D01*
X9198396Y-14608150D02*
X9217444Y-14617674D01*
X9217444Y-14617674D02*
X9226968Y-14636722D01*
X9226968Y-14636722D02*
X9226968Y-14655769D01*
X9226968Y-14655769D02*
X9131730Y-14674817D01*
X9303158Y-14731960D02*
X9322206Y-14741484D01*
X9322206Y-14741484D02*
X9360301Y-14741484D01*
X9360301Y-14741484D02*
X9379349Y-14731960D01*
X9379349Y-14731960D02*
X9388873Y-14712912D01*
X9388873Y-14712912D02*
X9388873Y-14703388D01*
X9388873Y-14703388D02*
X9379349Y-14684341D01*
X9379349Y-14684341D02*
X9360301Y-14674817D01*
X9360301Y-14674817D02*
X9331730Y-14674817D01*
X9331730Y-14674817D02*
X9312682Y-14665293D01*
X9312682Y-14665293D02*
X9303158Y-14646246D01*
X9303158Y-14646246D02*
X9303158Y-14636722D01*
X9303158Y-14636722D02*
X9312682Y-14617674D01*
X9312682Y-14617674D02*
X9331730Y-14608150D01*
X9331730Y-14608150D02*
X9360301Y-14608150D01*
X9360301Y-14608150D02*
X9379349Y-14617674D01*
X9455539Y-14817674D02*
X9465063Y-14808150D01*
X9465063Y-14808150D02*
X9484111Y-14779579D01*
X9484111Y-14779579D02*
X9493634Y-14760531D01*
X9493634Y-14760531D02*
X9503158Y-14731960D01*
X9503158Y-14731960D02*
X9512682Y-14684341D01*
X9512682Y-14684341D02*
X9512682Y-14646246D01*
X9512682Y-14646246D02*
X9503158Y-14598627D01*
X9503158Y-14598627D02*
X9493634Y-14570055D01*
X9493634Y-14570055D02*
X9484111Y-14551008D01*
X9484111Y-14551008D02*
X9465063Y-14522436D01*
X9465063Y-14522436D02*
X9455539Y-14512912D01*
D11*
X4490000Y-14914000D02*
G75*
G03*
X4395000Y-14914000I-47500J0D01*
G01*
X4395000Y-14914000D02*
G75*
G03*
X4490000Y-14914000I47500J0D01*
G01*
D10*
X4788872Y-14805484D02*
X4807920Y-14805484D01*
X4807920Y-14805484D02*
X4826967Y-14815008D01*
X4826967Y-14815008D02*
X4836491Y-14824531D01*
X4836491Y-14824531D02*
X4846015Y-14843579D01*
X4846015Y-14843579D02*
X4855539Y-14881674D01*
X4855539Y-14881674D02*
X4855539Y-14929293D01*
X4855539Y-14929293D02*
X4846015Y-14967388D01*
X4846015Y-14967388D02*
X4836491Y-14986436D01*
X4836491Y-14986436D02*
X4826967Y-14995960D01*
X4826967Y-14995960D02*
X4807920Y-15005484D01*
X4807920Y-15005484D02*
X4788872Y-15005484D01*
X4788872Y-15005484D02*
X4769824Y-14995960D01*
X4769824Y-14995960D02*
X4760301Y-14986436D01*
X4760301Y-14986436D02*
X4750777Y-14967388D01*
X4750777Y-14967388D02*
X4741253Y-14929293D01*
X4741253Y-14929293D02*
X4741253Y-14881674D01*
X4741253Y-14881674D02*
X4750777Y-14843579D01*
X4750777Y-14843579D02*
X4760301Y-14824531D01*
X4760301Y-14824531D02*
X4769824Y-14815008D01*
X4769824Y-14815008D02*
X4788872Y-14805484D01*
X4941253Y-14986436D02*
X4950777Y-14995960D01*
X4950777Y-14995960D02*
X4941253Y-15005484D01*
X4941253Y-15005484D02*
X4931729Y-14995960D01*
X4931729Y-14995960D02*
X4941253Y-14986436D01*
X4941253Y-14986436D02*
X4941253Y-15005484D01*
X5046015Y-15005484D02*
X5084110Y-15005484D01*
X5084110Y-15005484D02*
X5103158Y-14995960D01*
X5103158Y-14995960D02*
X5112682Y-14986436D01*
X5112682Y-14986436D02*
X5131729Y-14957865D01*
X5131729Y-14957865D02*
X5141253Y-14919769D01*
X5141253Y-14919769D02*
X5141253Y-14843579D01*
X5141253Y-14843579D02*
X5131729Y-14824531D01*
X5131729Y-14824531D02*
X5122205Y-14815008D01*
X5122205Y-14815008D02*
X5103158Y-14805484D01*
X5103158Y-14805484D02*
X5065063Y-14805484D01*
X5065063Y-14805484D02*
X5046015Y-14815008D01*
X5046015Y-14815008D02*
X5036491Y-14824531D01*
X5036491Y-14824531D02*
X5026967Y-14843579D01*
X5026967Y-14843579D02*
X5026967Y-14891198D01*
X5026967Y-14891198D02*
X5036491Y-14910246D01*
X5036491Y-14910246D02*
X5046015Y-14919769D01*
X5046015Y-14919769D02*
X5065063Y-14929293D01*
X5065063Y-14929293D02*
X5103158Y-14929293D01*
X5103158Y-14929293D02*
X5122205Y-14919769D01*
X5122205Y-14919769D02*
X5131729Y-14910246D01*
X5131729Y-14910246D02*
X5141253Y-14891198D01*
X5322205Y-14805484D02*
X5226967Y-14805484D01*
X5226967Y-14805484D02*
X5217444Y-14900722D01*
X5217444Y-14900722D02*
X5226967Y-14891198D01*
X5226967Y-14891198D02*
X5246015Y-14881674D01*
X5246015Y-14881674D02*
X5293634Y-14881674D01*
X5293634Y-14881674D02*
X5312682Y-14891198D01*
X5312682Y-14891198D02*
X5322205Y-14900722D01*
X5322205Y-14900722D02*
X5331729Y-14919769D01*
X5331729Y-14919769D02*
X5331729Y-14967388D01*
X5331729Y-14967388D02*
X5322205Y-14986436D01*
X5322205Y-14986436D02*
X5312682Y-14995960D01*
X5312682Y-14995960D02*
X5293634Y-15005484D01*
X5293634Y-15005484D02*
X5246015Y-15005484D01*
X5246015Y-15005484D02*
X5226967Y-14995960D01*
X5226967Y-14995960D02*
X5217444Y-14986436D01*
X5455539Y-14805484D02*
X5474586Y-14805484D01*
X5474586Y-14805484D02*
X5493634Y-14815008D01*
X5493634Y-14815008D02*
X5503158Y-14824531D01*
X5503158Y-14824531D02*
X5512682Y-14843579D01*
X5512682Y-14843579D02*
X5522205Y-14881674D01*
X5522205Y-14881674D02*
X5522205Y-14929293D01*
X5522205Y-14929293D02*
X5512682Y-14967388D01*
X5512682Y-14967388D02*
X5503158Y-14986436D01*
X5503158Y-14986436D02*
X5493634Y-14995960D01*
X5493634Y-14995960D02*
X5474586Y-15005484D01*
X5474586Y-15005484D02*
X5455539Y-15005484D01*
X5455539Y-15005484D02*
X5436491Y-14995960D01*
X5436491Y-14995960D02*
X5426967Y-14986436D01*
X5426967Y-14986436D02*
X5417444Y-14967388D01*
X5417444Y-14967388D02*
X5407920Y-14929293D01*
X5407920Y-14929293D02*
X5407920Y-14881674D01*
X5407920Y-14881674D02*
X5417444Y-14843579D01*
X5417444Y-14843579D02*
X5426967Y-14824531D01*
X5426967Y-14824531D02*
X5436491Y-14815008D01*
X5436491Y-14815008D02*
X5455539Y-14805484D01*
X5607920Y-15005484D02*
X5607920Y-14872150D01*
X5607920Y-14891198D02*
X5617443Y-14881674D01*
X5617443Y-14881674D02*
X5636491Y-14872150D01*
X5636491Y-14872150D02*
X5665063Y-14872150D01*
X5665063Y-14872150D02*
X5684110Y-14881674D01*
X5684110Y-14881674D02*
X5693634Y-14900722D01*
X5693634Y-14900722D02*
X5693634Y-15005484D01*
X5693634Y-14900722D02*
X5703158Y-14881674D01*
X5703158Y-14881674D02*
X5722205Y-14872150D01*
X5722205Y-14872150D02*
X5750777Y-14872150D01*
X5750777Y-14872150D02*
X5769824Y-14881674D01*
X5769824Y-14881674D02*
X5779348Y-14900722D01*
X5779348Y-14900722D02*
X5779348Y-15005484D01*
X5874586Y-15005484D02*
X5874586Y-14872150D01*
X5874586Y-14891198D02*
X5884110Y-14881674D01*
X5884110Y-14881674D02*
X5903158Y-14872150D01*
X5903158Y-14872150D02*
X5931729Y-14872150D01*
X5931729Y-14872150D02*
X5950777Y-14881674D01*
X5950777Y-14881674D02*
X5960301Y-14900722D01*
X5960301Y-14900722D02*
X5960301Y-15005484D01*
X5960301Y-14900722D02*
X5969824Y-14881674D01*
X5969824Y-14881674D02*
X5988872Y-14872150D01*
X5988872Y-14872150D02*
X6017443Y-14872150D01*
X6017443Y-14872150D02*
X6036491Y-14881674D01*
X6036491Y-14881674D02*
X6046015Y-14900722D01*
X6046015Y-14900722D02*
X6046015Y-15005484D01*
X6436491Y-14795960D02*
X6265063Y-15053103D01*
X6693634Y-14805484D02*
X6712682Y-14805484D01*
X6712682Y-14805484D02*
X6731729Y-14815008D01*
X6731729Y-14815008D02*
X6741253Y-14824531D01*
X6741253Y-14824531D02*
X6750777Y-14843579D01*
X6750777Y-14843579D02*
X6760301Y-14881674D01*
X6760301Y-14881674D02*
X6760301Y-14929293D01*
X6760301Y-14929293D02*
X6750777Y-14967388D01*
X6750777Y-14967388D02*
X6741253Y-14986436D01*
X6741253Y-14986436D02*
X6731729Y-14995960D01*
X6731729Y-14995960D02*
X6712682Y-15005484D01*
X6712682Y-15005484D02*
X6693634Y-15005484D01*
X6693634Y-15005484D02*
X6674586Y-14995960D01*
X6674586Y-14995960D02*
X6665063Y-14986436D01*
X6665063Y-14986436D02*
X6655539Y-14967388D01*
X6655539Y-14967388D02*
X6646015Y-14929293D01*
X6646015Y-14929293D02*
X6646015Y-14881674D01*
X6646015Y-14881674D02*
X6655539Y-14843579D01*
X6655539Y-14843579D02*
X6665063Y-14824531D01*
X6665063Y-14824531D02*
X6674586Y-14815008D01*
X6674586Y-14815008D02*
X6693634Y-14805484D01*
X6846015Y-14986436D02*
X6855539Y-14995960D01*
X6855539Y-14995960D02*
X6846015Y-15005484D01*
X6846015Y-15005484D02*
X6836491Y-14995960D01*
X6836491Y-14995960D02*
X6846015Y-14986436D01*
X6846015Y-14986436D02*
X6846015Y-15005484D01*
X6979348Y-14805484D02*
X6998396Y-14805484D01*
X6998396Y-14805484D02*
X7017444Y-14815008D01*
X7017444Y-14815008D02*
X7026967Y-14824531D01*
X7026967Y-14824531D02*
X7036491Y-14843579D01*
X7036491Y-14843579D02*
X7046015Y-14881674D01*
X7046015Y-14881674D02*
X7046015Y-14929293D01*
X7046015Y-14929293D02*
X7036491Y-14967388D01*
X7036491Y-14967388D02*
X7026967Y-14986436D01*
X7026967Y-14986436D02*
X7017444Y-14995960D01*
X7017444Y-14995960D02*
X6998396Y-15005484D01*
X6998396Y-15005484D02*
X6979348Y-15005484D01*
X6979348Y-15005484D02*
X6960301Y-14995960D01*
X6960301Y-14995960D02*
X6950777Y-14986436D01*
X6950777Y-14986436D02*
X6941253Y-14967388D01*
X6941253Y-14967388D02*
X6931729Y-14929293D01*
X6931729Y-14929293D02*
X6931729Y-14881674D01*
X6931729Y-14881674D02*
X6941253Y-14843579D01*
X6941253Y-14843579D02*
X6950777Y-14824531D01*
X6950777Y-14824531D02*
X6960301Y-14815008D01*
X6960301Y-14815008D02*
X6979348Y-14805484D01*
X7112682Y-14805484D02*
X7236491Y-14805484D01*
X7236491Y-14805484D02*
X7169825Y-14881674D01*
X7169825Y-14881674D02*
X7198396Y-14881674D01*
X7198396Y-14881674D02*
X7217444Y-14891198D01*
X7217444Y-14891198D02*
X7226967Y-14900722D01*
X7226967Y-14900722D02*
X7236491Y-14919769D01*
X7236491Y-14919769D02*
X7236491Y-14967388D01*
X7236491Y-14967388D02*
X7226967Y-14986436D01*
X7226967Y-14986436D02*
X7217444Y-14995960D01*
X7217444Y-14995960D02*
X7198396Y-15005484D01*
X7198396Y-15005484D02*
X7141253Y-15005484D01*
X7141253Y-15005484D02*
X7122206Y-14995960D01*
X7122206Y-14995960D02*
X7112682Y-14986436D01*
X7303158Y-14805484D02*
X7436491Y-14805484D01*
X7436491Y-14805484D02*
X7350777Y-15005484D01*
X7598396Y-14872150D02*
X7598396Y-15005484D01*
X7550777Y-14795960D02*
X7503158Y-14938817D01*
X7503158Y-14938817D02*
X7626967Y-14938817D01*
X7693634Y-14805484D02*
X7693634Y-14843579D01*
X7769825Y-14805484D02*
X7769825Y-14843579D01*
X8065063Y-15081674D02*
X8055539Y-15072150D01*
X8055539Y-15072150D02*
X8036491Y-15043579D01*
X8036491Y-15043579D02*
X8026968Y-15024531D01*
X8026968Y-15024531D02*
X8017444Y-14995960D01*
X8017444Y-14995960D02*
X8007920Y-14948341D01*
X8007920Y-14948341D02*
X8007920Y-14910246D01*
X8007920Y-14910246D02*
X8017444Y-14862627D01*
X8017444Y-14862627D02*
X8026968Y-14834055D01*
X8026968Y-14834055D02*
X8036491Y-14815008D01*
X8036491Y-14815008D02*
X8055539Y-14786436D01*
X8055539Y-14786436D02*
X8065063Y-14776912D01*
X8122206Y-14805484D02*
X8246015Y-14805484D01*
X8246015Y-14805484D02*
X8179348Y-14881674D01*
X8179348Y-14881674D02*
X8207920Y-14881674D01*
X8207920Y-14881674D02*
X8226968Y-14891198D01*
X8226968Y-14891198D02*
X8236491Y-14900722D01*
X8236491Y-14900722D02*
X8246015Y-14919769D01*
X8246015Y-14919769D02*
X8246015Y-14967388D01*
X8246015Y-14967388D02*
X8236491Y-14986436D01*
X8236491Y-14986436D02*
X8226968Y-14995960D01*
X8226968Y-14995960D02*
X8207920Y-15005484D01*
X8207920Y-15005484D02*
X8150777Y-15005484D01*
X8150777Y-15005484D02*
X8131729Y-14995960D01*
X8131729Y-14995960D02*
X8122206Y-14986436D01*
X8417444Y-14872150D02*
X8417444Y-15005484D01*
X8369825Y-14795960D02*
X8322206Y-14938817D01*
X8322206Y-14938817D02*
X8446015Y-14938817D01*
X8674587Y-15005484D02*
X8674587Y-14805484D01*
X8760301Y-15005484D02*
X8760301Y-14900722D01*
X8760301Y-14900722D02*
X8750777Y-14881674D01*
X8750777Y-14881674D02*
X8731730Y-14872150D01*
X8731730Y-14872150D02*
X8703158Y-14872150D01*
X8703158Y-14872150D02*
X8684111Y-14881674D01*
X8684111Y-14881674D02*
X8674587Y-14891198D01*
X8884111Y-15005484D02*
X8865063Y-14995960D01*
X8865063Y-14995960D02*
X8855539Y-14986436D01*
X8855539Y-14986436D02*
X8846015Y-14967388D01*
X8846015Y-14967388D02*
X8846015Y-14910246D01*
X8846015Y-14910246D02*
X8855539Y-14891198D01*
X8855539Y-14891198D02*
X8865063Y-14881674D01*
X8865063Y-14881674D02*
X8884111Y-14872150D01*
X8884111Y-14872150D02*
X8912682Y-14872150D01*
X8912682Y-14872150D02*
X8931730Y-14881674D01*
X8931730Y-14881674D02*
X8941253Y-14891198D01*
X8941253Y-14891198D02*
X8950777Y-14910246D01*
X8950777Y-14910246D02*
X8950777Y-14967388D01*
X8950777Y-14967388D02*
X8941253Y-14986436D01*
X8941253Y-14986436D02*
X8931730Y-14995960D01*
X8931730Y-14995960D02*
X8912682Y-15005484D01*
X8912682Y-15005484D02*
X8884111Y-15005484D01*
X9065063Y-15005484D02*
X9046015Y-14995960D01*
X9046015Y-14995960D02*
X9036492Y-14976912D01*
X9036492Y-14976912D02*
X9036492Y-14805484D01*
X9217444Y-14995960D02*
X9198396Y-15005484D01*
X9198396Y-15005484D02*
X9160301Y-15005484D01*
X9160301Y-15005484D02*
X9141253Y-14995960D01*
X9141253Y-14995960D02*
X9131730Y-14976912D01*
X9131730Y-14976912D02*
X9131730Y-14900722D01*
X9131730Y-14900722D02*
X9141253Y-14881674D01*
X9141253Y-14881674D02*
X9160301Y-14872150D01*
X9160301Y-14872150D02*
X9198396Y-14872150D01*
X9198396Y-14872150D02*
X9217444Y-14881674D01*
X9217444Y-14881674D02*
X9226968Y-14900722D01*
X9226968Y-14900722D02*
X9226968Y-14919769D01*
X9226968Y-14919769D02*
X9131730Y-14938817D01*
X9303158Y-14995960D02*
X9322206Y-15005484D01*
X9322206Y-15005484D02*
X9360301Y-15005484D01*
X9360301Y-15005484D02*
X9379349Y-14995960D01*
X9379349Y-14995960D02*
X9388873Y-14976912D01*
X9388873Y-14976912D02*
X9388873Y-14967388D01*
X9388873Y-14967388D02*
X9379349Y-14948341D01*
X9379349Y-14948341D02*
X9360301Y-14938817D01*
X9360301Y-14938817D02*
X9331730Y-14938817D01*
X9331730Y-14938817D02*
X9312682Y-14929293D01*
X9312682Y-14929293D02*
X9303158Y-14910246D01*
X9303158Y-14910246D02*
X9303158Y-14900722D01*
X9303158Y-14900722D02*
X9312682Y-14881674D01*
X9312682Y-14881674D02*
X9331730Y-14872150D01*
X9331730Y-14872150D02*
X9360301Y-14872150D01*
X9360301Y-14872150D02*
X9379349Y-14881674D01*
X9455539Y-15081674D02*
X9465063Y-15072150D01*
X9465063Y-15072150D02*
X9484111Y-15043579D01*
X9484111Y-15043579D02*
X9493634Y-15024531D01*
X9493634Y-15024531D02*
X9503158Y-14995960D01*
X9503158Y-14995960D02*
X9512682Y-14948341D01*
X9512682Y-14948341D02*
X9512682Y-14910246D01*
X9512682Y-14910246D02*
X9503158Y-14862627D01*
X9503158Y-14862627D02*
X9493634Y-14834055D01*
X9493634Y-14834055D02*
X9484111Y-14815008D01*
X9484111Y-14815008D02*
X9465063Y-14786436D01*
X9465063Y-14786436D02*
X9455539Y-14776912D01*
D11*
X4440000Y-15128000D02*
X4440000Y-15228000D01*
X4390000Y-15178000D02*
X4490000Y-15178000D01*
D10*
X4855539Y-15269484D02*
X4741253Y-15269484D01*
X4798396Y-15269484D02*
X4798396Y-15069484D01*
X4798396Y-15069484D02*
X4779348Y-15098055D01*
X4779348Y-15098055D02*
X4760301Y-15117103D01*
X4760301Y-15117103D02*
X4741253Y-15126627D01*
X4941253Y-15250436D02*
X4950777Y-15259960D01*
X4950777Y-15259960D02*
X4941253Y-15269484D01*
X4941253Y-15269484D02*
X4931729Y-15259960D01*
X4931729Y-15259960D02*
X4941253Y-15250436D01*
X4941253Y-15250436D02*
X4941253Y-15269484D01*
X5074586Y-15069484D02*
X5093634Y-15069484D01*
X5093634Y-15069484D02*
X5112682Y-15079008D01*
X5112682Y-15079008D02*
X5122205Y-15088531D01*
X5122205Y-15088531D02*
X5131729Y-15107579D01*
X5131729Y-15107579D02*
X5141253Y-15145674D01*
X5141253Y-15145674D02*
X5141253Y-15193293D01*
X5141253Y-15193293D02*
X5131729Y-15231388D01*
X5131729Y-15231388D02*
X5122205Y-15250436D01*
X5122205Y-15250436D02*
X5112682Y-15259960D01*
X5112682Y-15259960D02*
X5093634Y-15269484D01*
X5093634Y-15269484D02*
X5074586Y-15269484D01*
X5074586Y-15269484D02*
X5055539Y-15259960D01*
X5055539Y-15259960D02*
X5046015Y-15250436D01*
X5046015Y-15250436D02*
X5036491Y-15231388D01*
X5036491Y-15231388D02*
X5026967Y-15193293D01*
X5026967Y-15193293D02*
X5026967Y-15145674D01*
X5026967Y-15145674D02*
X5036491Y-15107579D01*
X5036491Y-15107579D02*
X5046015Y-15088531D01*
X5046015Y-15088531D02*
X5055539Y-15079008D01*
X5055539Y-15079008D02*
X5074586Y-15069484D01*
X5265063Y-15069484D02*
X5284110Y-15069484D01*
X5284110Y-15069484D02*
X5303158Y-15079008D01*
X5303158Y-15079008D02*
X5312682Y-15088531D01*
X5312682Y-15088531D02*
X5322205Y-15107579D01*
X5322205Y-15107579D02*
X5331729Y-15145674D01*
X5331729Y-15145674D02*
X5331729Y-15193293D01*
X5331729Y-15193293D02*
X5322205Y-15231388D01*
X5322205Y-15231388D02*
X5312682Y-15250436D01*
X5312682Y-15250436D02*
X5303158Y-15259960D01*
X5303158Y-15259960D02*
X5284110Y-15269484D01*
X5284110Y-15269484D02*
X5265063Y-15269484D01*
X5265063Y-15269484D02*
X5246015Y-15259960D01*
X5246015Y-15259960D02*
X5236491Y-15250436D01*
X5236491Y-15250436D02*
X5226967Y-15231388D01*
X5226967Y-15231388D02*
X5217444Y-15193293D01*
X5217444Y-15193293D02*
X5217444Y-15145674D01*
X5217444Y-15145674D02*
X5226967Y-15107579D01*
X5226967Y-15107579D02*
X5236491Y-15088531D01*
X5236491Y-15088531D02*
X5246015Y-15079008D01*
X5246015Y-15079008D02*
X5265063Y-15069484D01*
X5455539Y-15069484D02*
X5474586Y-15069484D01*
X5474586Y-15069484D02*
X5493634Y-15079008D01*
X5493634Y-15079008D02*
X5503158Y-15088531D01*
X5503158Y-15088531D02*
X5512682Y-15107579D01*
X5512682Y-15107579D02*
X5522205Y-15145674D01*
X5522205Y-15145674D02*
X5522205Y-15193293D01*
X5522205Y-15193293D02*
X5512682Y-15231388D01*
X5512682Y-15231388D02*
X5503158Y-15250436D01*
X5503158Y-15250436D02*
X5493634Y-15259960D01*
X5493634Y-15259960D02*
X5474586Y-15269484D01*
X5474586Y-15269484D02*
X5455539Y-15269484D01*
X5455539Y-15269484D02*
X5436491Y-15259960D01*
X5436491Y-15259960D02*
X5426967Y-15250436D01*
X5426967Y-15250436D02*
X5417444Y-15231388D01*
X5417444Y-15231388D02*
X5407920Y-15193293D01*
X5407920Y-15193293D02*
X5407920Y-15145674D01*
X5407920Y-15145674D02*
X5417444Y-15107579D01*
X5417444Y-15107579D02*
X5426967Y-15088531D01*
X5426967Y-15088531D02*
X5436491Y-15079008D01*
X5436491Y-15079008D02*
X5455539Y-15069484D01*
X5607920Y-15269484D02*
X5607920Y-15136150D01*
X5607920Y-15155198D02*
X5617443Y-15145674D01*
X5617443Y-15145674D02*
X5636491Y-15136150D01*
X5636491Y-15136150D02*
X5665063Y-15136150D01*
X5665063Y-15136150D02*
X5684110Y-15145674D01*
X5684110Y-15145674D02*
X5693634Y-15164722D01*
X5693634Y-15164722D02*
X5693634Y-15269484D01*
X5693634Y-15164722D02*
X5703158Y-15145674D01*
X5703158Y-15145674D02*
X5722205Y-15136150D01*
X5722205Y-15136150D02*
X5750777Y-15136150D01*
X5750777Y-15136150D02*
X5769824Y-15145674D01*
X5769824Y-15145674D02*
X5779348Y-15164722D01*
X5779348Y-15164722D02*
X5779348Y-15269484D01*
X5874586Y-15269484D02*
X5874586Y-15136150D01*
X5874586Y-15155198D02*
X5884110Y-15145674D01*
X5884110Y-15145674D02*
X5903158Y-15136150D01*
X5903158Y-15136150D02*
X5931729Y-15136150D01*
X5931729Y-15136150D02*
X5950777Y-15145674D01*
X5950777Y-15145674D02*
X5960301Y-15164722D01*
X5960301Y-15164722D02*
X5960301Y-15269484D01*
X5960301Y-15164722D02*
X5969824Y-15145674D01*
X5969824Y-15145674D02*
X5988872Y-15136150D01*
X5988872Y-15136150D02*
X6017443Y-15136150D01*
X6017443Y-15136150D02*
X6036491Y-15145674D01*
X6036491Y-15145674D02*
X6046015Y-15164722D01*
X6046015Y-15164722D02*
X6046015Y-15269484D01*
X6436491Y-15059960D02*
X6265063Y-15317103D01*
X6693634Y-15069484D02*
X6712682Y-15069484D01*
X6712682Y-15069484D02*
X6731729Y-15079008D01*
X6731729Y-15079008D02*
X6741253Y-15088531D01*
X6741253Y-15088531D02*
X6750777Y-15107579D01*
X6750777Y-15107579D02*
X6760301Y-15145674D01*
X6760301Y-15145674D02*
X6760301Y-15193293D01*
X6760301Y-15193293D02*
X6750777Y-15231388D01*
X6750777Y-15231388D02*
X6741253Y-15250436D01*
X6741253Y-15250436D02*
X6731729Y-15259960D01*
X6731729Y-15259960D02*
X6712682Y-15269484D01*
X6712682Y-15269484D02*
X6693634Y-15269484D01*
X6693634Y-15269484D02*
X6674586Y-15259960D01*
X6674586Y-15259960D02*
X6665063Y-15250436D01*
X6665063Y-15250436D02*
X6655539Y-15231388D01*
X6655539Y-15231388D02*
X6646015Y-15193293D01*
X6646015Y-15193293D02*
X6646015Y-15145674D01*
X6646015Y-15145674D02*
X6655539Y-15107579D01*
X6655539Y-15107579D02*
X6665063Y-15088531D01*
X6665063Y-15088531D02*
X6674586Y-15079008D01*
X6674586Y-15079008D02*
X6693634Y-15069484D01*
X6846015Y-15250436D02*
X6855539Y-15259960D01*
X6855539Y-15259960D02*
X6846015Y-15269484D01*
X6846015Y-15269484D02*
X6836491Y-15259960D01*
X6836491Y-15259960D02*
X6846015Y-15250436D01*
X6846015Y-15250436D02*
X6846015Y-15269484D01*
X6979348Y-15069484D02*
X6998396Y-15069484D01*
X6998396Y-15069484D02*
X7017444Y-15079008D01*
X7017444Y-15079008D02*
X7026967Y-15088531D01*
X7026967Y-15088531D02*
X7036491Y-15107579D01*
X7036491Y-15107579D02*
X7046015Y-15145674D01*
X7046015Y-15145674D02*
X7046015Y-15193293D01*
X7046015Y-15193293D02*
X7036491Y-15231388D01*
X7036491Y-15231388D02*
X7026967Y-15250436D01*
X7026967Y-15250436D02*
X7017444Y-15259960D01*
X7017444Y-15259960D02*
X6998396Y-15269484D01*
X6998396Y-15269484D02*
X6979348Y-15269484D01*
X6979348Y-15269484D02*
X6960301Y-15259960D01*
X6960301Y-15259960D02*
X6950777Y-15250436D01*
X6950777Y-15250436D02*
X6941253Y-15231388D01*
X6941253Y-15231388D02*
X6931729Y-15193293D01*
X6931729Y-15193293D02*
X6931729Y-15145674D01*
X6931729Y-15145674D02*
X6941253Y-15107579D01*
X6941253Y-15107579D02*
X6950777Y-15088531D01*
X6950777Y-15088531D02*
X6960301Y-15079008D01*
X6960301Y-15079008D02*
X6979348Y-15069484D01*
X7112682Y-15069484D02*
X7236491Y-15069484D01*
X7236491Y-15069484D02*
X7169825Y-15145674D01*
X7169825Y-15145674D02*
X7198396Y-15145674D01*
X7198396Y-15145674D02*
X7217444Y-15155198D01*
X7217444Y-15155198D02*
X7226967Y-15164722D01*
X7226967Y-15164722D02*
X7236491Y-15183769D01*
X7236491Y-15183769D02*
X7236491Y-15231388D01*
X7236491Y-15231388D02*
X7226967Y-15250436D01*
X7226967Y-15250436D02*
X7217444Y-15259960D01*
X7217444Y-15259960D02*
X7198396Y-15269484D01*
X7198396Y-15269484D02*
X7141253Y-15269484D01*
X7141253Y-15269484D02*
X7122206Y-15259960D01*
X7122206Y-15259960D02*
X7112682Y-15250436D01*
X7331729Y-15269484D02*
X7369825Y-15269484D01*
X7369825Y-15269484D02*
X7388872Y-15259960D01*
X7388872Y-15259960D02*
X7398396Y-15250436D01*
X7398396Y-15250436D02*
X7417444Y-15221865D01*
X7417444Y-15221865D02*
X7426967Y-15183769D01*
X7426967Y-15183769D02*
X7426967Y-15107579D01*
X7426967Y-15107579D02*
X7417444Y-15088531D01*
X7417444Y-15088531D02*
X7407920Y-15079008D01*
X7407920Y-15079008D02*
X7388872Y-15069484D01*
X7388872Y-15069484D02*
X7350777Y-15069484D01*
X7350777Y-15069484D02*
X7331729Y-15079008D01*
X7331729Y-15079008D02*
X7322206Y-15088531D01*
X7322206Y-15088531D02*
X7312682Y-15107579D01*
X7312682Y-15107579D02*
X7312682Y-15155198D01*
X7312682Y-15155198D02*
X7322206Y-15174246D01*
X7322206Y-15174246D02*
X7331729Y-15183769D01*
X7331729Y-15183769D02*
X7350777Y-15193293D01*
X7350777Y-15193293D02*
X7388872Y-15193293D01*
X7388872Y-15193293D02*
X7407920Y-15183769D01*
X7407920Y-15183769D02*
X7417444Y-15174246D01*
X7417444Y-15174246D02*
X7426967Y-15155198D01*
X7598396Y-15136150D02*
X7598396Y-15269484D01*
X7550777Y-15059960D02*
X7503158Y-15202817D01*
X7503158Y-15202817D02*
X7626967Y-15202817D01*
X7693634Y-15069484D02*
X7693634Y-15107579D01*
X7769825Y-15069484D02*
X7769825Y-15107579D01*
X8065063Y-15345674D02*
X8055539Y-15336150D01*
X8055539Y-15336150D02*
X8036491Y-15307579D01*
X8036491Y-15307579D02*
X8026968Y-15288531D01*
X8026968Y-15288531D02*
X8017444Y-15259960D01*
X8017444Y-15259960D02*
X8007920Y-15212341D01*
X8007920Y-15212341D02*
X8007920Y-15174246D01*
X8007920Y-15174246D02*
X8017444Y-15126627D01*
X8017444Y-15126627D02*
X8026968Y-15098055D01*
X8026968Y-15098055D02*
X8036491Y-15079008D01*
X8036491Y-15079008D02*
X8055539Y-15050436D01*
X8055539Y-15050436D02*
X8065063Y-15040912D01*
X8236491Y-15069484D02*
X8141253Y-15069484D01*
X8141253Y-15069484D02*
X8131729Y-15164722D01*
X8131729Y-15164722D02*
X8141253Y-15155198D01*
X8141253Y-15155198D02*
X8160301Y-15145674D01*
X8160301Y-15145674D02*
X8207920Y-15145674D01*
X8207920Y-15145674D02*
X8226968Y-15155198D01*
X8226968Y-15155198D02*
X8236491Y-15164722D01*
X8236491Y-15164722D02*
X8246015Y-15183769D01*
X8246015Y-15183769D02*
X8246015Y-15231388D01*
X8246015Y-15231388D02*
X8236491Y-15250436D01*
X8236491Y-15250436D02*
X8226968Y-15259960D01*
X8226968Y-15259960D02*
X8207920Y-15269484D01*
X8207920Y-15269484D02*
X8160301Y-15269484D01*
X8160301Y-15269484D02*
X8141253Y-15259960D01*
X8141253Y-15259960D02*
X8131729Y-15250436D01*
X8436491Y-15269484D02*
X8322206Y-15269484D01*
X8379348Y-15269484D02*
X8379348Y-15069484D01*
X8379348Y-15069484D02*
X8360301Y-15098055D01*
X8360301Y-15098055D02*
X8341253Y-15117103D01*
X8341253Y-15117103D02*
X8322206Y-15126627D01*
X8674587Y-15269484D02*
X8674587Y-15069484D01*
X8760301Y-15269484D02*
X8760301Y-15164722D01*
X8760301Y-15164722D02*
X8750777Y-15145674D01*
X8750777Y-15145674D02*
X8731730Y-15136150D01*
X8731730Y-15136150D02*
X8703158Y-15136150D01*
X8703158Y-15136150D02*
X8684111Y-15145674D01*
X8684111Y-15145674D02*
X8674587Y-15155198D01*
X8884111Y-15269484D02*
X8865063Y-15259960D01*
X8865063Y-15259960D02*
X8855539Y-15250436D01*
X8855539Y-15250436D02*
X8846015Y-15231388D01*
X8846015Y-15231388D02*
X8846015Y-15174246D01*
X8846015Y-15174246D02*
X8855539Y-15155198D01*
X8855539Y-15155198D02*
X8865063Y-15145674D01*
X8865063Y-15145674D02*
X8884111Y-15136150D01*
X8884111Y-15136150D02*
X8912682Y-15136150D01*
X8912682Y-15136150D02*
X8931730Y-15145674D01*
X8931730Y-15145674D02*
X8941253Y-15155198D01*
X8941253Y-15155198D02*
X8950777Y-15174246D01*
X8950777Y-15174246D02*
X8950777Y-15231388D01*
X8950777Y-15231388D02*
X8941253Y-15250436D01*
X8941253Y-15250436D02*
X8931730Y-15259960D01*
X8931730Y-15259960D02*
X8912682Y-15269484D01*
X8912682Y-15269484D02*
X8884111Y-15269484D01*
X9065063Y-15269484D02*
X9046015Y-15259960D01*
X9046015Y-15259960D02*
X9036492Y-15240912D01*
X9036492Y-15240912D02*
X9036492Y-15069484D01*
X9217444Y-15259960D02*
X9198396Y-15269484D01*
X9198396Y-15269484D02*
X9160301Y-15269484D01*
X9160301Y-15269484D02*
X9141253Y-15259960D01*
X9141253Y-15259960D02*
X9131730Y-15240912D01*
X9131730Y-15240912D02*
X9131730Y-15164722D01*
X9131730Y-15164722D02*
X9141253Y-15145674D01*
X9141253Y-15145674D02*
X9160301Y-15136150D01*
X9160301Y-15136150D02*
X9198396Y-15136150D01*
X9198396Y-15136150D02*
X9217444Y-15145674D01*
X9217444Y-15145674D02*
X9226968Y-15164722D01*
X9226968Y-15164722D02*
X9226968Y-15183769D01*
X9226968Y-15183769D02*
X9131730Y-15202817D01*
X9303158Y-15259960D02*
X9322206Y-15269484D01*
X9322206Y-15269484D02*
X9360301Y-15269484D01*
X9360301Y-15269484D02*
X9379349Y-15259960D01*
X9379349Y-15259960D02*
X9388873Y-15240912D01*
X9388873Y-15240912D02*
X9388873Y-15231388D01*
X9388873Y-15231388D02*
X9379349Y-15212341D01*
X9379349Y-15212341D02*
X9360301Y-15202817D01*
X9360301Y-15202817D02*
X9331730Y-15202817D01*
X9331730Y-15202817D02*
X9312682Y-15193293D01*
X9312682Y-15193293D02*
X9303158Y-15174246D01*
X9303158Y-15174246D02*
X9303158Y-15164722D01*
X9303158Y-15164722D02*
X9312682Y-15145674D01*
X9312682Y-15145674D02*
X9331730Y-15136150D01*
X9331730Y-15136150D02*
X9360301Y-15136150D01*
X9360301Y-15136150D02*
X9379349Y-15145674D01*
X9455539Y-15345674D02*
X9465063Y-15336150D01*
X9465063Y-15336150D02*
X9484111Y-15307579D01*
X9484111Y-15307579D02*
X9493634Y-15288531D01*
X9493634Y-15288531D02*
X9503158Y-15259960D01*
X9503158Y-15259960D02*
X9512682Y-15212341D01*
X9512682Y-15212341D02*
X9512682Y-15174246D01*
X9512682Y-15174246D02*
X9503158Y-15126627D01*
X9503158Y-15126627D02*
X9493634Y-15098055D01*
X9493634Y-15098055D02*
X9484111Y-15079008D01*
X9484111Y-15079008D02*
X9465063Y-15050436D01*
X9465063Y-15050436D02*
X9455539Y-15040912D01*
D12*
X4470962Y-15487962D02*
X4470962Y-15396038D01*
X4379038Y-15396038D01*
X4379038Y-15487962D01*
X4470962Y-15487962D01*
D10*
X4855539Y-15533484D02*
X4741253Y-15533484D01*
X4798396Y-15533484D02*
X4798396Y-15333484D01*
X4798396Y-15333484D02*
X4779348Y-15362055D01*
X4779348Y-15362055D02*
X4760301Y-15381103D01*
X4760301Y-15381103D02*
X4741253Y-15390627D01*
X4941253Y-15514436D02*
X4950777Y-15523960D01*
X4950777Y-15523960D02*
X4941253Y-15533484D01*
X4941253Y-15533484D02*
X4931729Y-15523960D01*
X4931729Y-15523960D02*
X4941253Y-15514436D01*
X4941253Y-15514436D02*
X4941253Y-15533484D01*
X5017444Y-15333484D02*
X5141253Y-15333484D01*
X5141253Y-15333484D02*
X5074586Y-15409674D01*
X5074586Y-15409674D02*
X5103158Y-15409674D01*
X5103158Y-15409674D02*
X5122205Y-15419198D01*
X5122205Y-15419198D02*
X5131729Y-15428722D01*
X5131729Y-15428722D02*
X5141253Y-15447769D01*
X5141253Y-15447769D02*
X5141253Y-15495388D01*
X5141253Y-15495388D02*
X5131729Y-15514436D01*
X5131729Y-15514436D02*
X5122205Y-15523960D01*
X5122205Y-15523960D02*
X5103158Y-15533484D01*
X5103158Y-15533484D02*
X5046015Y-15533484D01*
X5046015Y-15533484D02*
X5026967Y-15523960D01*
X5026967Y-15523960D02*
X5017444Y-15514436D01*
X5265063Y-15333484D02*
X5284110Y-15333484D01*
X5284110Y-15333484D02*
X5303158Y-15343008D01*
X5303158Y-15343008D02*
X5312682Y-15352531D01*
X5312682Y-15352531D02*
X5322205Y-15371579D01*
X5322205Y-15371579D02*
X5331729Y-15409674D01*
X5331729Y-15409674D02*
X5331729Y-15457293D01*
X5331729Y-15457293D02*
X5322205Y-15495388D01*
X5322205Y-15495388D02*
X5312682Y-15514436D01*
X5312682Y-15514436D02*
X5303158Y-15523960D01*
X5303158Y-15523960D02*
X5284110Y-15533484D01*
X5284110Y-15533484D02*
X5265063Y-15533484D01*
X5265063Y-15533484D02*
X5246015Y-15523960D01*
X5246015Y-15523960D02*
X5236491Y-15514436D01*
X5236491Y-15514436D02*
X5226967Y-15495388D01*
X5226967Y-15495388D02*
X5217444Y-15457293D01*
X5217444Y-15457293D02*
X5217444Y-15409674D01*
X5217444Y-15409674D02*
X5226967Y-15371579D01*
X5226967Y-15371579D02*
X5236491Y-15352531D01*
X5236491Y-15352531D02*
X5246015Y-15343008D01*
X5246015Y-15343008D02*
X5265063Y-15333484D01*
X5455539Y-15333484D02*
X5474586Y-15333484D01*
X5474586Y-15333484D02*
X5493634Y-15343008D01*
X5493634Y-15343008D02*
X5503158Y-15352531D01*
X5503158Y-15352531D02*
X5512682Y-15371579D01*
X5512682Y-15371579D02*
X5522205Y-15409674D01*
X5522205Y-15409674D02*
X5522205Y-15457293D01*
X5522205Y-15457293D02*
X5512682Y-15495388D01*
X5512682Y-15495388D02*
X5503158Y-15514436D01*
X5503158Y-15514436D02*
X5493634Y-15523960D01*
X5493634Y-15523960D02*
X5474586Y-15533484D01*
X5474586Y-15533484D02*
X5455539Y-15533484D01*
X5455539Y-15533484D02*
X5436491Y-15523960D01*
X5436491Y-15523960D02*
X5426967Y-15514436D01*
X5426967Y-15514436D02*
X5417444Y-15495388D01*
X5417444Y-15495388D02*
X5407920Y-15457293D01*
X5407920Y-15457293D02*
X5407920Y-15409674D01*
X5407920Y-15409674D02*
X5417444Y-15371579D01*
X5417444Y-15371579D02*
X5426967Y-15352531D01*
X5426967Y-15352531D02*
X5436491Y-15343008D01*
X5436491Y-15343008D02*
X5455539Y-15333484D01*
X5607920Y-15533484D02*
X5607920Y-15400150D01*
X5607920Y-15419198D02*
X5617443Y-15409674D01*
X5617443Y-15409674D02*
X5636491Y-15400150D01*
X5636491Y-15400150D02*
X5665063Y-15400150D01*
X5665063Y-15400150D02*
X5684110Y-15409674D01*
X5684110Y-15409674D02*
X5693634Y-15428722D01*
X5693634Y-15428722D02*
X5693634Y-15533484D01*
X5693634Y-15428722D02*
X5703158Y-15409674D01*
X5703158Y-15409674D02*
X5722205Y-15400150D01*
X5722205Y-15400150D02*
X5750777Y-15400150D01*
X5750777Y-15400150D02*
X5769824Y-15409674D01*
X5769824Y-15409674D02*
X5779348Y-15428722D01*
X5779348Y-15428722D02*
X5779348Y-15533484D01*
X5874586Y-15533484D02*
X5874586Y-15400150D01*
X5874586Y-15419198D02*
X5884110Y-15409674D01*
X5884110Y-15409674D02*
X5903158Y-15400150D01*
X5903158Y-15400150D02*
X5931729Y-15400150D01*
X5931729Y-15400150D02*
X5950777Y-15409674D01*
X5950777Y-15409674D02*
X5960301Y-15428722D01*
X5960301Y-15428722D02*
X5960301Y-15533484D01*
X5960301Y-15428722D02*
X5969824Y-15409674D01*
X5969824Y-15409674D02*
X5988872Y-15400150D01*
X5988872Y-15400150D02*
X6017443Y-15400150D01*
X6017443Y-15400150D02*
X6036491Y-15409674D01*
X6036491Y-15409674D02*
X6046015Y-15428722D01*
X6046015Y-15428722D02*
X6046015Y-15533484D01*
X6436491Y-15323960D02*
X6265063Y-15581103D01*
X6693634Y-15333484D02*
X6712682Y-15333484D01*
X6712682Y-15333484D02*
X6731729Y-15343008D01*
X6731729Y-15343008D02*
X6741253Y-15352531D01*
X6741253Y-15352531D02*
X6750777Y-15371579D01*
X6750777Y-15371579D02*
X6760301Y-15409674D01*
X6760301Y-15409674D02*
X6760301Y-15457293D01*
X6760301Y-15457293D02*
X6750777Y-15495388D01*
X6750777Y-15495388D02*
X6741253Y-15514436D01*
X6741253Y-15514436D02*
X6731729Y-15523960D01*
X6731729Y-15523960D02*
X6712682Y-15533484D01*
X6712682Y-15533484D02*
X6693634Y-15533484D01*
X6693634Y-15533484D02*
X6674586Y-15523960D01*
X6674586Y-15523960D02*
X6665063Y-15514436D01*
X6665063Y-15514436D02*
X6655539Y-15495388D01*
X6655539Y-15495388D02*
X6646015Y-15457293D01*
X6646015Y-15457293D02*
X6646015Y-15409674D01*
X6646015Y-15409674D02*
X6655539Y-15371579D01*
X6655539Y-15371579D02*
X6665063Y-15352531D01*
X6665063Y-15352531D02*
X6674586Y-15343008D01*
X6674586Y-15343008D02*
X6693634Y-15333484D01*
X6846015Y-15514436D02*
X6855539Y-15523960D01*
X6855539Y-15523960D02*
X6846015Y-15533484D01*
X6846015Y-15533484D02*
X6836491Y-15523960D01*
X6836491Y-15523960D02*
X6846015Y-15514436D01*
X6846015Y-15514436D02*
X6846015Y-15533484D01*
X6979348Y-15333484D02*
X6998396Y-15333484D01*
X6998396Y-15333484D02*
X7017444Y-15343008D01*
X7017444Y-15343008D02*
X7026967Y-15352531D01*
X7026967Y-15352531D02*
X7036491Y-15371579D01*
X7036491Y-15371579D02*
X7046015Y-15409674D01*
X7046015Y-15409674D02*
X7046015Y-15457293D01*
X7046015Y-15457293D02*
X7036491Y-15495388D01*
X7036491Y-15495388D02*
X7026967Y-15514436D01*
X7026967Y-15514436D02*
X7017444Y-15523960D01*
X7017444Y-15523960D02*
X6998396Y-15533484D01*
X6998396Y-15533484D02*
X6979348Y-15533484D01*
X6979348Y-15533484D02*
X6960301Y-15523960D01*
X6960301Y-15523960D02*
X6950777Y-15514436D01*
X6950777Y-15514436D02*
X6941253Y-15495388D01*
X6941253Y-15495388D02*
X6931729Y-15457293D01*
X6931729Y-15457293D02*
X6931729Y-15409674D01*
X6931729Y-15409674D02*
X6941253Y-15371579D01*
X6941253Y-15371579D02*
X6950777Y-15352531D01*
X6950777Y-15352531D02*
X6960301Y-15343008D01*
X6960301Y-15343008D02*
X6979348Y-15333484D01*
X7226967Y-15333484D02*
X7131729Y-15333484D01*
X7131729Y-15333484D02*
X7122206Y-15428722D01*
X7122206Y-15428722D02*
X7131729Y-15419198D01*
X7131729Y-15419198D02*
X7150777Y-15409674D01*
X7150777Y-15409674D02*
X7198396Y-15409674D01*
X7198396Y-15409674D02*
X7217444Y-15419198D01*
X7217444Y-15419198D02*
X7226967Y-15428722D01*
X7226967Y-15428722D02*
X7236491Y-15447769D01*
X7236491Y-15447769D02*
X7236491Y-15495388D01*
X7236491Y-15495388D02*
X7226967Y-15514436D01*
X7226967Y-15514436D02*
X7217444Y-15523960D01*
X7217444Y-15523960D02*
X7198396Y-15533484D01*
X7198396Y-15533484D02*
X7150777Y-15533484D01*
X7150777Y-15533484D02*
X7131729Y-15523960D01*
X7131729Y-15523960D02*
X7122206Y-15514436D01*
X7426967Y-15533484D02*
X7312682Y-15533484D01*
X7369825Y-15533484D02*
X7369825Y-15333484D01*
X7369825Y-15333484D02*
X7350777Y-15362055D01*
X7350777Y-15362055D02*
X7331729Y-15381103D01*
X7331729Y-15381103D02*
X7312682Y-15390627D01*
X7503158Y-15352531D02*
X7512682Y-15343008D01*
X7512682Y-15343008D02*
X7531729Y-15333484D01*
X7531729Y-15333484D02*
X7579348Y-15333484D01*
X7579348Y-15333484D02*
X7598396Y-15343008D01*
X7598396Y-15343008D02*
X7607920Y-15352531D01*
X7607920Y-15352531D02*
X7617444Y-15371579D01*
X7617444Y-15371579D02*
X7617444Y-15390627D01*
X7617444Y-15390627D02*
X7607920Y-15419198D01*
X7607920Y-15419198D02*
X7493634Y-15533484D01*
X7493634Y-15533484D02*
X7617444Y-15533484D01*
X7693634Y-15333484D02*
X7693634Y-15371579D01*
X7769825Y-15333484D02*
X7769825Y-15371579D01*
X8065063Y-15609674D02*
X8055539Y-15600150D01*
X8055539Y-15600150D02*
X8036491Y-15571579D01*
X8036491Y-15571579D02*
X8026968Y-15552531D01*
X8026968Y-15552531D02*
X8017444Y-15523960D01*
X8017444Y-15523960D02*
X8007920Y-15476341D01*
X8007920Y-15476341D02*
X8007920Y-15438246D01*
X8007920Y-15438246D02*
X8017444Y-15390627D01*
X8017444Y-15390627D02*
X8026968Y-15362055D01*
X8026968Y-15362055D02*
X8036491Y-15343008D01*
X8036491Y-15343008D02*
X8055539Y-15314436D01*
X8055539Y-15314436D02*
X8065063Y-15304912D01*
X8226968Y-15400150D02*
X8226968Y-15533484D01*
X8179348Y-15323960D02*
X8131729Y-15466817D01*
X8131729Y-15466817D02*
X8255539Y-15466817D01*
X8484111Y-15533484D02*
X8484111Y-15333484D01*
X8569825Y-15533484D02*
X8569825Y-15428722D01*
X8569825Y-15428722D02*
X8560301Y-15409674D01*
X8560301Y-15409674D02*
X8541253Y-15400150D01*
X8541253Y-15400150D02*
X8512682Y-15400150D01*
X8512682Y-15400150D02*
X8493634Y-15409674D01*
X8493634Y-15409674D02*
X8484111Y-15419198D01*
X8693634Y-15533484D02*
X8674587Y-15523960D01*
X8674587Y-15523960D02*
X8665063Y-15514436D01*
X8665063Y-15514436D02*
X8655539Y-15495388D01*
X8655539Y-15495388D02*
X8655539Y-15438246D01*
X8655539Y-15438246D02*
X8665063Y-15419198D01*
X8665063Y-15419198D02*
X8674587Y-15409674D01*
X8674587Y-15409674D02*
X8693634Y-15400150D01*
X8693634Y-15400150D02*
X8722206Y-15400150D01*
X8722206Y-15400150D02*
X8741253Y-15409674D01*
X8741253Y-15409674D02*
X8750777Y-15419198D01*
X8750777Y-15419198D02*
X8760301Y-15438246D01*
X8760301Y-15438246D02*
X8760301Y-15495388D01*
X8760301Y-15495388D02*
X8750777Y-15514436D01*
X8750777Y-15514436D02*
X8741253Y-15523960D01*
X8741253Y-15523960D02*
X8722206Y-15533484D01*
X8722206Y-15533484D02*
X8693634Y-15533484D01*
X8874587Y-15533484D02*
X8855539Y-15523960D01*
X8855539Y-15523960D02*
X8846015Y-15504912D01*
X8846015Y-15504912D02*
X8846015Y-15333484D01*
X9026968Y-15523960D02*
X9007920Y-15533484D01*
X9007920Y-15533484D02*
X8969825Y-15533484D01*
X8969825Y-15533484D02*
X8950777Y-15523960D01*
X8950777Y-15523960D02*
X8941253Y-15504912D01*
X8941253Y-15504912D02*
X8941253Y-15428722D01*
X8941253Y-15428722D02*
X8950777Y-15409674D01*
X8950777Y-15409674D02*
X8969825Y-15400150D01*
X8969825Y-15400150D02*
X9007920Y-15400150D01*
X9007920Y-15400150D02*
X9026968Y-15409674D01*
X9026968Y-15409674D02*
X9036492Y-15428722D01*
X9036492Y-15428722D02*
X9036492Y-15447769D01*
X9036492Y-15447769D02*
X8941253Y-15466817D01*
X9112682Y-15523960D02*
X9131730Y-15533484D01*
X9131730Y-15533484D02*
X9169825Y-15533484D01*
X9169825Y-15533484D02*
X9188873Y-15523960D01*
X9188873Y-15523960D02*
X9198396Y-15504912D01*
X9198396Y-15504912D02*
X9198396Y-15495388D01*
X9198396Y-15495388D02*
X9188873Y-15476341D01*
X9188873Y-15476341D02*
X9169825Y-15466817D01*
X9169825Y-15466817D02*
X9141253Y-15466817D01*
X9141253Y-15466817D02*
X9122206Y-15457293D01*
X9122206Y-15457293D02*
X9112682Y-15438246D01*
X9112682Y-15438246D02*
X9112682Y-15428722D01*
X9112682Y-15428722D02*
X9122206Y-15409674D01*
X9122206Y-15409674D02*
X9141253Y-15400150D01*
X9141253Y-15400150D02*
X9169825Y-15400150D01*
X9169825Y-15400150D02*
X9188873Y-15409674D01*
X9265063Y-15609674D02*
X9274587Y-15600150D01*
X9274587Y-15600150D02*
X9293634Y-15571579D01*
X9293634Y-15571579D02*
X9303158Y-15552531D01*
X9303158Y-15552531D02*
X9312682Y-15523960D01*
X9312682Y-15523960D02*
X9322206Y-15476341D01*
X9322206Y-15476341D02*
X9322206Y-15438246D01*
X9322206Y-15438246D02*
X9312682Y-15390627D01*
X9312682Y-15390627D02*
X9303158Y-15362055D01*
X9303158Y-15362055D02*
X9293634Y-15343008D01*
X9293634Y-15343008D02*
X9274587Y-15314436D01*
X9274587Y-15314436D02*
X9265063Y-15304912D01*
M02*
