%TF.GenerationSoftware,KiCad,Pcbnew,8.0.3*%
%TF.CreationDate,2024-06-17T19:23:31+08:00*%
%TF.ProjectId,power,706f7765-722e-46b6-9963-61645f706362,1.1.0*%
%TF.SameCoordinates,Original*%
%TF.FileFunction,Copper,L2,Bot*%
%TF.FilePolarity,Positive*%
%FSLAX46Y46*%
G04 Gerber Fmt 4.6, Leading zero omitted, Abs format (unit mm)*
G04 Created by KiCad (PCBNEW 8.0.3) date 2024-06-17 19:23:31*
%MOMM*%
%LPD*%
G01*
G04 APERTURE LIST*
G04 Aperture macros list*
%AMRoundRect*
0 Rectangle with rounded corners*
0 $1 Rounding radius*
0 $2 $3 $4 $5 $6 $7 $8 $9 X,Y pos of 4 corners*
0 Add a 4 corners polygon primitive as box body*
4,1,4,$2,$3,$4,$5,$6,$7,$8,$9,$2,$3,0*
0 Add four circle primitives for the rounded corners*
1,1,$1+$1,$2,$3*
1,1,$1+$1,$4,$5*
1,1,$1+$1,$6,$7*
1,1,$1+$1,$8,$9*
0 Add four rect primitives between the rounded corners*
20,1,$1+$1,$2,$3,$4,$5,0*
20,1,$1+$1,$4,$5,$6,$7,0*
20,1,$1+$1,$6,$7,$8,$9,0*
20,1,$1+$1,$8,$9,$2,$3,0*%
G04 Aperture macros list end*
%TA.AperFunction,ComponentPad*%
%ADD10C,0.800000*%
%TD*%
%TA.AperFunction,ComponentPad*%
%ADD11C,6.400000*%
%TD*%
%TA.AperFunction,ComponentPad*%
%ADD12RoundRect,1.500000X1.500000X-1.500000X1.500000X1.500000X-1.500000X1.500000X-1.500000X-1.500000X0*%
%TD*%
%TA.AperFunction,ComponentPad*%
%ADD13C,6.000000*%
%TD*%
%TA.AperFunction,ComponentPad*%
%ADD14RoundRect,0.250000X-0.725000X0.600000X-0.725000X-0.600000X0.725000X-0.600000X0.725000X0.600000X0*%
%TD*%
%TA.AperFunction,ComponentPad*%
%ADD15O,1.950000X1.700000*%
%TD*%
%TA.AperFunction,ComponentPad*%
%ADD16RoundRect,0.250000X1.650000X-1.650000X1.650000X1.650000X-1.650000X1.650000X-1.650000X-1.650000X0*%
%TD*%
%TA.AperFunction,ComponentPad*%
%ADD17C,4.000000*%
%TD*%
%TA.AperFunction,ComponentPad*%
%ADD18RoundRect,0.250000X0.600000X0.725000X-0.600000X0.725000X-0.600000X-0.725000X0.600000X-0.725000X0*%
%TD*%
%TA.AperFunction,ComponentPad*%
%ADD19O,1.700000X1.950000*%
%TD*%
G04 APERTURE END LIST*
D10*
%TO.P,H1,1*%
%TO.N,N/C*%
X86400000Y-139000000D03*
X85697056Y-140697056D03*
X85697056Y-137302944D03*
X84000000Y-141400000D03*
D11*
X84000000Y-139000000D03*
D10*
X84000000Y-136600000D03*
X82302944Y-140697056D03*
X82302944Y-137302944D03*
X81600000Y-139000000D03*
%TD*%
%TO.P,H3,1*%
%TO.N,N/C*%
X81600000Y-167000000D03*
X82302944Y-165302944D03*
X82302944Y-168697056D03*
X84000000Y-164600000D03*
D11*
X84000000Y-167000000D03*
D10*
X84000000Y-169400000D03*
X85697056Y-165302944D03*
X85697056Y-168697056D03*
X86400000Y-167000000D03*
%TD*%
D12*
%TO.P,J2,1,Pin_1*%
%TO.N,GND*%
X101745495Y-151633839D03*
D13*
%TO.P,J2,2,Pin_2*%
%TO.N,+12V*%
X101745495Y-144433839D03*
%TD*%
D10*
%TO.P,H4,1*%
%TO.N,N/C*%
X110600000Y-158000000D03*
X111302944Y-156302944D03*
X111302944Y-159697056D03*
X113000000Y-155600000D03*
D11*
X113000000Y-158000000D03*
D10*
X113000000Y-160400000D03*
X114697056Y-156302944D03*
X114697056Y-159697056D03*
X115400000Y-158000000D03*
%TD*%
%TO.P,H2,1*%
%TO.N,N/C*%
X107600000Y-139000000D03*
X108302944Y-137302944D03*
X108302944Y-140697056D03*
X110000000Y-136600000D03*
D11*
X110000000Y-139000000D03*
D10*
X110000000Y-141400000D03*
X111697056Y-137302944D03*
X111697056Y-140697056D03*
X112400000Y-139000000D03*
%TD*%
D12*
%TO.P,J1,1,Pin_1*%
%TO.N,GND*%
X92245495Y-151633839D03*
D13*
%TO.P,J1,2,Pin_2*%
%TO.N,+12V*%
X92245495Y-144433839D03*
%TD*%
D14*
%TO.P,J5,1,Pin_1*%
%TO.N,GND*%
X114500000Y-165750000D03*
D15*
%TO.P,J5,2,Pin_2*%
%TO.N,+12V*%
X114500000Y-168250000D03*
%TO.P,J5,3,Pin_3*%
X114500000Y-170750000D03*
D14*
%TO.P,J5,4,Pin_4*%
%TO.N,GND*%
X114500000Y-173250000D03*
%TD*%
D16*
%TO.P,J3,1,Pin_1*%
%TO.N,GND*%
X85000000Y-150508839D03*
D17*
%TO.P,J3,2,Pin_2*%
%TO.N,+12V*%
X85000000Y-145508839D03*
%TD*%
D18*
%TO.P,J6,1,Pin_1*%
%TO.N,GND*%
X100750000Y-158750000D03*
D19*
%TO.P,J6,2,Pin_2*%
%TO.N,+12V*%
X98250000Y-158750000D03*
%TO.P,J6,3,Pin_3*%
X95750000Y-158750000D03*
D18*
%TO.P,J6,4,Pin_4*%
%TO.N,GND*%
X93250000Y-158750000D03*
%TD*%
D16*
%TO.P,J4,1,Pin_1*%
%TO.N,GND*%
X109000000Y-150508839D03*
D17*
%TO.P,J4,2,Pin_2*%
%TO.N,+12V*%
X109000000Y-145508839D03*
%TD*%
%TA.AperFunction,Conductor*%
%TO.N,+12V*%
G36*
X110792860Y-134501097D02*
G01*
X110806623Y-134502452D01*
X110872097Y-134508901D01*
X110895927Y-134513640D01*
X110966268Y-134534978D01*
X110988716Y-134544277D01*
X111053535Y-134578923D01*
X111073745Y-134592427D01*
X111135270Y-134642918D01*
X111144287Y-134651091D01*
X111234732Y-134741536D01*
X111268217Y-134802859D01*
X111263233Y-134872551D01*
X111221361Y-134928484D01*
X111155897Y-134952901D01*
X111116921Y-134949501D01*
X110820471Y-134875244D01*
X110820466Y-134875243D01*
X110820465Y-134875243D01*
X110719577Y-134860277D01*
X110412227Y-134814686D01*
X110412223Y-134814685D01*
X110412218Y-134814685D01*
X110000000Y-134794434D01*
X109587782Y-134814685D01*
X109587776Y-134814685D01*
X109587772Y-134814686D01*
X109179528Y-134875244D01*
X108894281Y-134946695D01*
X108779189Y-134975524D01*
X108779186Y-134975524D01*
X108779178Y-134975527D01*
X108390620Y-135114555D01*
X108390604Y-135114562D01*
X108017506Y-135291024D01*
X107663515Y-135503198D01*
X107332011Y-135749058D01*
X107026215Y-136026215D01*
X106749058Y-136332011D01*
X106503198Y-136663515D01*
X106291024Y-137017506D01*
X106114562Y-137390604D01*
X106114555Y-137390620D01*
X105975527Y-137779178D01*
X105975524Y-137779186D01*
X105975524Y-137779189D01*
X105954098Y-137864728D01*
X105875244Y-138179528D01*
X105869346Y-138219292D01*
X105814685Y-138587782D01*
X105794434Y-139000000D01*
X105814685Y-139412218D01*
X105814685Y-139412223D01*
X105814686Y-139412227D01*
X105875244Y-139820471D01*
X105975527Y-140220821D01*
X106114555Y-140609379D01*
X106114562Y-140609395D01*
X106114564Y-140609400D01*
X106291022Y-140982490D01*
X106291024Y-140982493D01*
X106503198Y-141336484D01*
X106749058Y-141667988D01*
X107026215Y-141973784D01*
X107332011Y-142250941D01*
X107332017Y-142250946D01*
X107663513Y-142496800D01*
X108017510Y-142708978D01*
X108390600Y-142885436D01*
X108390609Y-142885439D01*
X108390620Y-142885444D01*
X108751738Y-143014654D01*
X108779189Y-143024476D01*
X109179535Y-143124757D01*
X109587782Y-143185315D01*
X110000000Y-143205566D01*
X110412218Y-143185315D01*
X110820465Y-143124757D01*
X111220811Y-143024476D01*
X111401380Y-142959866D01*
X111609379Y-142885444D01*
X111609385Y-142885441D01*
X111609400Y-142885436D01*
X111982490Y-142708978D01*
X112336487Y-142496800D01*
X112667983Y-142250946D01*
X112973784Y-141973784D01*
X113250946Y-141667983D01*
X113496800Y-141336487D01*
X113708978Y-140982490D01*
X113885436Y-140609400D01*
X113907362Y-140548123D01*
X114024472Y-140220821D01*
X114024476Y-140220811D01*
X114124757Y-139820465D01*
X114185315Y-139412218D01*
X114205566Y-139000000D01*
X114185315Y-138587782D01*
X114124757Y-138179535D01*
X114050498Y-137883075D01*
X114053303Y-137813264D01*
X114093407Y-137756050D01*
X114158077Y-137729601D01*
X114226781Y-137742313D01*
X114258463Y-137765267D01*
X117348888Y-140855692D01*
X117357052Y-140864698D01*
X117407574Y-140926259D01*
X117421070Y-140946458D01*
X117440330Y-140982490D01*
X117455718Y-141011281D01*
X117465018Y-141033736D01*
X117486353Y-141104066D01*
X117491096Y-141127907D01*
X117498903Y-141207165D01*
X117499500Y-141219320D01*
X117499500Y-174993038D01*
X117498720Y-175006923D01*
X117488540Y-175097264D01*
X117482362Y-175124333D01*
X117454648Y-175203537D01*
X117442600Y-175228555D01*
X117397957Y-175299604D01*
X117380644Y-175321313D01*
X117321313Y-175380644D01*
X117299604Y-175397957D01*
X117228555Y-175442600D01*
X117203537Y-175454648D01*
X117124333Y-175482362D01*
X117097264Y-175488540D01*
X117017075Y-175497576D01*
X117006921Y-175498720D01*
X116993038Y-175499500D01*
X80006962Y-175499500D01*
X79993078Y-175498720D01*
X79980553Y-175497308D01*
X79902735Y-175488540D01*
X79875666Y-175482362D01*
X79796462Y-175454648D01*
X79771444Y-175442600D01*
X79700395Y-175397957D01*
X79678686Y-175380644D01*
X79619355Y-175321313D01*
X79602042Y-175299604D01*
X79557399Y-175228555D01*
X79545351Y-175203537D01*
X79517637Y-175124333D01*
X79511459Y-175097263D01*
X79510651Y-175090096D01*
X79501280Y-175006922D01*
X79500500Y-174993038D01*
X79500500Y-172585777D01*
X112524500Y-172585777D01*
X112524500Y-173914208D01*
X112524501Y-173914223D01*
X112534904Y-174046413D01*
X112534905Y-174046420D01*
X112589902Y-174264678D01*
X112589903Y-174264681D01*
X112682991Y-174469622D01*
X112682997Y-174469632D01*
X112811174Y-174654645D01*
X112811178Y-174654650D01*
X112811181Y-174654654D01*
X112970346Y-174813819D01*
X112970350Y-174813822D01*
X112970354Y-174813825D01*
X113109603Y-174910297D01*
X113155374Y-174942007D01*
X113360317Y-175035096D01*
X113360321Y-175035097D01*
X113578579Y-175090094D01*
X113578581Y-175090094D01*
X113578588Y-175090096D01*
X113710783Y-175100500D01*
X115289216Y-175100499D01*
X115421412Y-175090096D01*
X115639683Y-175035096D01*
X115844626Y-174942007D01*
X116029654Y-174813819D01*
X116188819Y-174654654D01*
X116317007Y-174469626D01*
X116410096Y-174264683D01*
X116465096Y-174046412D01*
X116475500Y-173914217D01*
X116475499Y-172585784D01*
X116465096Y-172453588D01*
X116410096Y-172235317D01*
X116317007Y-172030374D01*
X116188819Y-171845346D01*
X116029654Y-171686181D01*
X116029650Y-171686178D01*
X116029645Y-171686174D01*
X115844632Y-171557997D01*
X115844630Y-171557995D01*
X115844626Y-171557993D01*
X115639683Y-171464904D01*
X115639681Y-171464903D01*
X115639678Y-171464902D01*
X115421420Y-171409905D01*
X115421413Y-171409904D01*
X115377347Y-171406436D01*
X115289217Y-171399500D01*
X115289215Y-171399500D01*
X113710791Y-171399500D01*
X113710776Y-171399501D01*
X113578586Y-171409904D01*
X113578579Y-171409905D01*
X113360321Y-171464902D01*
X113360318Y-171464903D01*
X113155377Y-171557991D01*
X113155367Y-171557997D01*
X112970354Y-171686174D01*
X112970342Y-171686184D01*
X112811184Y-171845342D01*
X112811174Y-171845354D01*
X112682997Y-172030367D01*
X112682991Y-172030377D01*
X112589903Y-172235318D01*
X112589902Y-172235321D01*
X112534905Y-172453579D01*
X112534904Y-172453586D01*
X112524500Y-172585777D01*
X79500500Y-172585777D01*
X79500500Y-167000000D01*
X79794434Y-167000000D01*
X79814685Y-167412218D01*
X79814685Y-167412223D01*
X79814686Y-167412227D01*
X79875244Y-167820471D01*
X79975527Y-168220821D01*
X80114555Y-168609379D01*
X80114562Y-168609395D01*
X80114564Y-168609400D01*
X80291022Y-168982490D01*
X80291024Y-168982493D01*
X80503198Y-169336484D01*
X80749058Y-169667988D01*
X81026215Y-169973784D01*
X81332011Y-170250941D01*
X81332017Y-170250946D01*
X81663513Y-170496800D01*
X82017510Y-170708978D01*
X82390600Y-170885436D01*
X82390609Y-170885439D01*
X82390620Y-170885444D01*
X82751738Y-171014654D01*
X82779189Y-171024476D01*
X83179535Y-171124757D01*
X83587782Y-171185315D01*
X84000000Y-171205566D01*
X84412218Y-171185315D01*
X84820465Y-171124757D01*
X85220811Y-171024476D01*
X85401380Y-170959866D01*
X85609379Y-170885444D01*
X85609385Y-170885441D01*
X85609400Y-170885436D01*
X85982490Y-170708978D01*
X86336487Y-170496800D01*
X86667983Y-170250946D01*
X86973784Y-169973784D01*
X87250946Y-169667983D01*
X87496800Y-169336487D01*
X87708978Y-168982490D01*
X87885436Y-168609400D01*
X88024476Y-168220811D01*
X88124757Y-167820465D01*
X88185315Y-167412218D01*
X88205566Y-167000000D01*
X88185315Y-166587782D01*
X88124757Y-166179535D01*
X88024476Y-165779189D01*
X88014654Y-165751738D01*
X87885444Y-165390620D01*
X87885437Y-165390604D01*
X87885436Y-165390600D01*
X87741266Y-165085777D01*
X112524500Y-165085777D01*
X112524500Y-166414208D01*
X112524501Y-166414223D01*
X112534904Y-166546413D01*
X112534905Y-166546420D01*
X112589902Y-166764678D01*
X112589903Y-166764681D01*
X112682991Y-166969622D01*
X112682997Y-166969632D01*
X112811174Y-167154645D01*
X112811178Y-167154650D01*
X112811181Y-167154654D01*
X112970346Y-167313819D01*
X112970350Y-167313822D01*
X112970354Y-167313825D01*
X113109603Y-167410297D01*
X113155374Y-167442007D01*
X113360317Y-167535096D01*
X113360321Y-167535097D01*
X113578579Y-167590094D01*
X113578581Y-167590094D01*
X113578588Y-167590096D01*
X113710783Y-167600500D01*
X115289216Y-167600499D01*
X115421412Y-167590096D01*
X115639683Y-167535096D01*
X115844626Y-167442007D01*
X116029654Y-167313819D01*
X116188819Y-167154654D01*
X116317007Y-166969626D01*
X116410096Y-166764683D01*
X116465096Y-166546412D01*
X116475500Y-166414217D01*
X116475499Y-165085784D01*
X116465096Y-164953588D01*
X116410096Y-164735317D01*
X116317007Y-164530374D01*
X116188819Y-164345346D01*
X116029654Y-164186181D01*
X116029650Y-164186178D01*
X116029645Y-164186174D01*
X115844632Y-164057997D01*
X115844630Y-164057995D01*
X115844626Y-164057993D01*
X115774666Y-164026216D01*
X115639681Y-163964903D01*
X115639678Y-163964902D01*
X115421420Y-163909905D01*
X115421413Y-163909904D01*
X115377347Y-163906436D01*
X115289217Y-163899500D01*
X115289215Y-163899500D01*
X113710791Y-163899500D01*
X113710776Y-163899501D01*
X113578586Y-163909904D01*
X113578579Y-163909905D01*
X113360321Y-163964902D01*
X113360318Y-163964903D01*
X113155377Y-164057991D01*
X113155367Y-164057997D01*
X112970354Y-164186174D01*
X112970342Y-164186184D01*
X112811184Y-164345342D01*
X112811174Y-164345354D01*
X112682997Y-164530367D01*
X112682991Y-164530377D01*
X112589903Y-164735318D01*
X112589902Y-164735321D01*
X112534905Y-164953579D01*
X112534904Y-164953586D01*
X112524500Y-165085777D01*
X87741266Y-165085777D01*
X87708978Y-165017510D01*
X87496800Y-164663513D01*
X87250946Y-164332017D01*
X87118771Y-164186184D01*
X86973784Y-164026215D01*
X86667988Y-163749058D01*
X86336484Y-163503198D01*
X85982493Y-163291024D01*
X85982494Y-163291024D01*
X85982490Y-163291022D01*
X85609400Y-163114564D01*
X85609396Y-163114562D01*
X85609395Y-163114562D01*
X85609379Y-163114555D01*
X85220821Y-162975527D01*
X85220815Y-162975525D01*
X85220811Y-162975524D01*
X85022205Y-162925776D01*
X84820471Y-162875244D01*
X84820466Y-162875243D01*
X84820465Y-162875243D01*
X84719577Y-162860277D01*
X84412227Y-162814686D01*
X84412223Y-162814685D01*
X84412218Y-162814685D01*
X84000000Y-162794434D01*
X83587782Y-162814685D01*
X83587776Y-162814685D01*
X83587772Y-162814686D01*
X83179528Y-162875244D01*
X82877316Y-162950944D01*
X82779189Y-162975524D01*
X82779186Y-162975524D01*
X82779178Y-162975527D01*
X82390620Y-163114555D01*
X82390604Y-163114562D01*
X82017506Y-163291024D01*
X81663515Y-163503198D01*
X81332011Y-163749058D01*
X81026215Y-164026215D01*
X80749058Y-164332011D01*
X80503198Y-164663515D01*
X80291024Y-165017506D01*
X80114562Y-165390604D01*
X80114555Y-165390620D01*
X79975527Y-165779178D01*
X79875244Y-166179528D01*
X79820821Y-166546420D01*
X79814685Y-166587782D01*
X79794434Y-167000000D01*
X79500500Y-167000000D01*
X79500500Y-157960777D01*
X91399500Y-157960777D01*
X91399500Y-159539208D01*
X91399501Y-159539223D01*
X91409904Y-159671413D01*
X91409905Y-159671420D01*
X91464902Y-159889678D01*
X91464903Y-159889681D01*
X91557991Y-160094622D01*
X91557997Y-160094632D01*
X91686174Y-160279645D01*
X91686178Y-160279650D01*
X91686181Y-160279654D01*
X91845346Y-160438819D01*
X91845350Y-160438822D01*
X91845354Y-160438825D01*
X91984603Y-160535297D01*
X92030374Y-160567007D01*
X92235317Y-160660096D01*
X92235321Y-160660097D01*
X92453579Y-160715094D01*
X92453581Y-160715094D01*
X92453588Y-160715096D01*
X92585783Y-160725500D01*
X93914216Y-160725499D01*
X94046412Y-160715096D01*
X94264683Y-160660096D01*
X94469626Y-160567007D01*
X94654654Y-160438819D01*
X94813819Y-160279654D01*
X94942007Y-160094626D01*
X95035096Y-159889683D01*
X95090096Y-159671412D01*
X95100500Y-159539217D01*
X95100499Y-157960784D01*
X95100498Y-157960777D01*
X98899500Y-157960777D01*
X98899500Y-159539208D01*
X98899501Y-159539223D01*
X98909904Y-159671413D01*
X98909905Y-159671420D01*
X98964902Y-159889678D01*
X98964903Y-159889681D01*
X99057991Y-160094622D01*
X99057997Y-160094632D01*
X99186174Y-160279645D01*
X99186178Y-160279650D01*
X99186181Y-160279654D01*
X99345346Y-160438819D01*
X99345350Y-160438822D01*
X99345354Y-160438825D01*
X99484603Y-160535297D01*
X99530374Y-160567007D01*
X99735317Y-160660096D01*
X99735321Y-160660097D01*
X99953579Y-160715094D01*
X99953581Y-160715094D01*
X99953588Y-160715096D01*
X100085783Y-160725500D01*
X101414216Y-160725499D01*
X101546412Y-160715096D01*
X101764683Y-160660096D01*
X101969626Y-160567007D01*
X102154654Y-160438819D01*
X102313819Y-160279654D01*
X102442007Y-160094626D01*
X102535096Y-159889683D01*
X102590096Y-159671412D01*
X102600500Y-159539217D01*
X102600499Y-158000000D01*
X108794434Y-158000000D01*
X108814685Y-158412218D01*
X108814685Y-158412223D01*
X108814686Y-158412227D01*
X108875244Y-158820471D01*
X108975527Y-159220821D01*
X109114555Y-159609379D01*
X109114562Y-159609395D01*
X109114564Y-159609400D01*
X109291022Y-159982490D01*
X109397111Y-160159488D01*
X109469135Y-160279654D01*
X109503200Y-160336487D01*
X109743205Y-160660097D01*
X109749058Y-160667988D01*
X110026215Y-160973784D01*
X110332011Y-161250941D01*
X110332017Y-161250946D01*
X110663513Y-161496800D01*
X111017510Y-161708978D01*
X111390600Y-161885436D01*
X111390609Y-161885439D01*
X111390620Y-161885444D01*
X111751738Y-162014654D01*
X111779189Y-162024476D01*
X112179535Y-162124757D01*
X112587782Y-162185315D01*
X113000000Y-162205566D01*
X113412218Y-162185315D01*
X113820465Y-162124757D01*
X114220811Y-162024476D01*
X114401380Y-161959866D01*
X114609379Y-161885444D01*
X114609385Y-161885441D01*
X114609400Y-161885436D01*
X114982490Y-161708978D01*
X115336487Y-161496800D01*
X115667983Y-161250946D01*
X115973784Y-160973784D01*
X116250946Y-160667983D01*
X116496800Y-160336487D01*
X116708978Y-159982490D01*
X116885436Y-159609400D01*
X116910547Y-159539222D01*
X117024472Y-159220821D01*
X117024476Y-159220811D01*
X117124757Y-158820465D01*
X117185315Y-158412218D01*
X117205566Y-158000000D01*
X117185315Y-157587782D01*
X117124757Y-157179535D01*
X117024476Y-156779189D01*
X117014654Y-156751738D01*
X116885444Y-156390620D01*
X116885437Y-156390604D01*
X116885436Y-156390600D01*
X116708978Y-156017510D01*
X116496800Y-155663513D01*
X116250946Y-155332017D01*
X116136770Y-155206043D01*
X115973784Y-155026215D01*
X115667988Y-154749058D01*
X115336484Y-154503198D01*
X114982493Y-154291024D01*
X114982494Y-154291024D01*
X114982490Y-154291022D01*
X114609400Y-154114564D01*
X114609396Y-154114562D01*
X114609395Y-154114562D01*
X114609379Y-154114555D01*
X114220821Y-153975527D01*
X114220815Y-153975525D01*
X114220811Y-153975524D01*
X114022205Y-153925776D01*
X113820471Y-153875244D01*
X113820466Y-153875243D01*
X113820465Y-153875243D01*
X113719577Y-153860277D01*
X113412227Y-153814686D01*
X113412223Y-153814685D01*
X113412218Y-153814685D01*
X113000000Y-153794434D01*
X112587782Y-153814685D01*
X112587776Y-153814685D01*
X112587772Y-153814686D01*
X112179528Y-153875244D01*
X111877316Y-153950944D01*
X111779189Y-153975524D01*
X111779186Y-153975524D01*
X111779178Y-153975527D01*
X111390620Y-154114555D01*
X111390604Y-154114562D01*
X111390600Y-154114564D01*
X111059239Y-154271286D01*
X111017506Y-154291024D01*
X110663515Y-154503198D01*
X110332011Y-154749058D01*
X110026215Y-155026215D01*
X109749058Y-155332011D01*
X109503198Y-155663515D01*
X109291024Y-156017506D01*
X109114562Y-156390604D01*
X109114555Y-156390620D01*
X108975527Y-156779178D01*
X108975524Y-156779186D01*
X108975524Y-156779189D01*
X108974092Y-156784905D01*
X108875244Y-157179528D01*
X108875243Y-157179535D01*
X108814685Y-157587782D01*
X108794434Y-158000000D01*
X102600499Y-158000000D01*
X102600499Y-157960784D01*
X102590096Y-157828588D01*
X102535096Y-157610317D01*
X102442007Y-157405374D01*
X102313819Y-157220346D01*
X102154654Y-157061181D01*
X102154650Y-157061178D01*
X102154645Y-157061174D01*
X101969632Y-156932997D01*
X101969630Y-156932995D01*
X101969626Y-156932993D01*
X101764683Y-156839904D01*
X101764681Y-156839903D01*
X101764678Y-156839902D01*
X101546420Y-156784905D01*
X101546413Y-156784904D01*
X101473656Y-156779178D01*
X101414217Y-156774500D01*
X101414215Y-156774500D01*
X100085791Y-156774500D01*
X100085776Y-156774501D01*
X99953586Y-156784904D01*
X99953579Y-156784905D01*
X99735321Y-156839902D01*
X99735318Y-156839903D01*
X99530377Y-156932991D01*
X99530367Y-156932997D01*
X99345354Y-157061174D01*
X99345342Y-157061184D01*
X99186184Y-157220342D01*
X99186174Y-157220354D01*
X99057997Y-157405367D01*
X99057991Y-157405377D01*
X98964903Y-157610318D01*
X98964902Y-157610321D01*
X98909905Y-157828579D01*
X98909904Y-157828586D01*
X98899500Y-157960777D01*
X95100498Y-157960777D01*
X95090096Y-157828588D01*
X95035096Y-157610317D01*
X94942007Y-157405374D01*
X94813819Y-157220346D01*
X94654654Y-157061181D01*
X94654650Y-157061178D01*
X94654645Y-157061174D01*
X94469632Y-156932997D01*
X94469630Y-156932995D01*
X94469626Y-156932993D01*
X94264683Y-156839904D01*
X94264681Y-156839903D01*
X94264678Y-156839902D01*
X94046420Y-156784905D01*
X94046413Y-156784904D01*
X93973656Y-156779178D01*
X93914217Y-156774500D01*
X93914215Y-156774500D01*
X92585791Y-156774500D01*
X92585776Y-156774501D01*
X92453586Y-156784904D01*
X92453579Y-156784905D01*
X92235321Y-156839902D01*
X92235318Y-156839903D01*
X92030377Y-156932991D01*
X92030367Y-156932997D01*
X91845354Y-157061174D01*
X91845342Y-157061184D01*
X91686184Y-157220342D01*
X91686174Y-157220354D01*
X91557997Y-157405367D01*
X91557991Y-157405377D01*
X91464903Y-157610318D01*
X91464902Y-157610321D01*
X91409905Y-157828579D01*
X91409904Y-157828586D01*
X91399500Y-157960777D01*
X79500500Y-157960777D01*
X79500500Y-148794616D01*
X82099500Y-148794616D01*
X82099500Y-152223047D01*
X82099501Y-152223062D01*
X82109904Y-152355252D01*
X82109905Y-152355259D01*
X82164902Y-152573517D01*
X82164903Y-152573520D01*
X82257991Y-152778461D01*
X82257997Y-152778471D01*
X82386174Y-152963484D01*
X82386178Y-152963489D01*
X82386181Y-152963493D01*
X82545346Y-153122658D01*
X82545350Y-153122661D01*
X82545354Y-153122664D01*
X82684603Y-153219136D01*
X82730374Y-153250846D01*
X82935317Y-153343935D01*
X82935321Y-153343936D01*
X83153579Y-153398933D01*
X83153581Y-153398933D01*
X83153588Y-153398935D01*
X83285783Y-153409339D01*
X86714216Y-153409338D01*
X86846412Y-153398935D01*
X87064683Y-153343935D01*
X87269626Y-153250846D01*
X87454654Y-153122658D01*
X87613819Y-152963493D01*
X87742007Y-152778465D01*
X87835096Y-152573522D01*
X87890096Y-152355251D01*
X87900500Y-152223056D01*
X87900499Y-150028994D01*
X88244995Y-150028994D01*
X88244995Y-153238683D01*
X88251169Y-153369619D01*
X88251169Y-153369624D01*
X88300388Y-153680382D01*
X88300390Y-153680390D01*
X88388169Y-153982523D01*
X88513127Y-154271286D01*
X88513128Y-154271287D01*
X88673291Y-154542107D01*
X88673296Y-154542113D01*
X88673297Y-154542115D01*
X88673297Y-154542116D01*
X88866132Y-154790718D01*
X89088615Y-155013201D01*
X89337217Y-155206036D01*
X89337221Y-155206038D01*
X89337227Y-155206043D01*
X89608047Y-155366206D01*
X89896806Y-155491163D01*
X89950914Y-155506882D01*
X90198943Y-155578943D01*
X90198951Y-155578945D01*
X90509712Y-155628164D01*
X90640651Y-155634339D01*
X90640655Y-155634339D01*
X93850339Y-155634339D01*
X93925159Y-155630810D01*
X93981278Y-155628164D01*
X93981280Y-155628164D01*
X94292038Y-155578945D01*
X94292046Y-155578943D01*
X94443112Y-155535053D01*
X94594184Y-155491163D01*
X94882943Y-155366206D01*
X95153763Y-155206043D01*
X95402374Y-155013201D01*
X95402375Y-155013201D01*
X95624857Y-154790719D01*
X95624857Y-154790718D01*
X95817692Y-154542116D01*
X95817699Y-154542107D01*
X95977862Y-154271287D01*
X96102819Y-153982528D01*
X96190600Y-153680385D01*
X96190601Y-153680382D01*
X96239820Y-153369624D01*
X96239820Y-153369619D01*
X96245995Y-153238683D01*
X96245995Y-150028994D01*
X97744995Y-150028994D01*
X97744995Y-153238683D01*
X97751169Y-153369619D01*
X97751169Y-153369624D01*
X97800388Y-153680382D01*
X97800390Y-153680390D01*
X97888169Y-153982523D01*
X98013127Y-154271286D01*
X98013128Y-154271287D01*
X98173291Y-154542107D01*
X98173296Y-154542113D01*
X98173297Y-154542115D01*
X98173297Y-154542116D01*
X98366132Y-154790718D01*
X98588615Y-155013201D01*
X98837217Y-155206036D01*
X98837221Y-155206038D01*
X98837227Y-155206043D01*
X99108047Y-155366206D01*
X99396806Y-155491163D01*
X99450914Y-155506882D01*
X99698943Y-155578943D01*
X99698951Y-155578945D01*
X100009712Y-155628164D01*
X100140651Y-155634339D01*
X100140655Y-155634339D01*
X103350339Y-155634339D01*
X103425159Y-155630810D01*
X103481278Y-155628164D01*
X103481280Y-155628164D01*
X103792038Y-155578945D01*
X103792046Y-155578943D01*
X103943112Y-155535053D01*
X104094184Y-155491163D01*
X104382943Y-155366206D01*
X104653763Y-155206043D01*
X104902374Y-155013201D01*
X104902375Y-155013201D01*
X105124857Y-154790719D01*
X105124857Y-154790718D01*
X105317692Y-154542116D01*
X105317699Y-154542107D01*
X105477862Y-154271287D01*
X105602819Y-153982528D01*
X105690600Y-153680385D01*
X105690601Y-153680382D01*
X105739820Y-153369624D01*
X105739820Y-153369619D01*
X105745995Y-153238683D01*
X105745995Y-150028994D01*
X105739820Y-149898058D01*
X105739820Y-149898053D01*
X105690601Y-149587295D01*
X105690599Y-149587287D01*
X105602820Y-149285154D01*
X105602819Y-149285150D01*
X105477862Y-148996391D01*
X105358532Y-148794616D01*
X106099500Y-148794616D01*
X106099500Y-152223047D01*
X106099501Y-152223062D01*
X106109904Y-152355252D01*
X106109905Y-152355259D01*
X106164902Y-152573517D01*
X106164903Y-152573520D01*
X106257991Y-152778461D01*
X106257997Y-152778471D01*
X106386174Y-152963484D01*
X106386178Y-152963489D01*
X106386181Y-152963493D01*
X106545346Y-153122658D01*
X106545350Y-153122661D01*
X106545354Y-153122664D01*
X106684603Y-153219136D01*
X106730374Y-153250846D01*
X106935317Y-153343935D01*
X106935321Y-153343936D01*
X107153579Y-153398933D01*
X107153581Y-153398933D01*
X107153588Y-153398935D01*
X107285783Y-153409339D01*
X110714216Y-153409338D01*
X110846412Y-153398935D01*
X111064683Y-153343935D01*
X111269626Y-153250846D01*
X111454654Y-153122658D01*
X111613819Y-152963493D01*
X111742007Y-152778465D01*
X111835096Y-152573522D01*
X111890096Y-152355251D01*
X111900500Y-152223056D01*
X111900499Y-148794623D01*
X111890096Y-148662427D01*
X111835096Y-148444156D01*
X111742007Y-148239213D01*
X111618985Y-148061641D01*
X111613825Y-148054193D01*
X111613822Y-148054189D01*
X111613819Y-148054185D01*
X111454654Y-147895020D01*
X111454650Y-147895017D01*
X111454645Y-147895013D01*
X111269632Y-147766836D01*
X111269630Y-147766834D01*
X111269626Y-147766832D01*
X111064683Y-147673743D01*
X111064681Y-147673742D01*
X111064678Y-147673741D01*
X110846420Y-147618744D01*
X110846413Y-147618743D01*
X110802347Y-147615275D01*
X110714217Y-147608339D01*
X110714215Y-147608339D01*
X107285791Y-147608339D01*
X107285776Y-147608340D01*
X107153586Y-147618743D01*
X107153579Y-147618744D01*
X106935321Y-147673741D01*
X106935318Y-147673742D01*
X106730377Y-147766830D01*
X106730367Y-147766836D01*
X106545354Y-147895013D01*
X106545342Y-147895023D01*
X106386184Y-148054181D01*
X106386174Y-148054193D01*
X106257997Y-148239206D01*
X106257991Y-148239216D01*
X106164903Y-148444157D01*
X106164902Y-148444160D01*
X106109905Y-148662418D01*
X106109904Y-148662425D01*
X106099500Y-148794616D01*
X105358532Y-148794616D01*
X105317699Y-148725571D01*
X105317692Y-148725561D01*
X105124857Y-148476959D01*
X104902374Y-148254476D01*
X104653772Y-148061641D01*
X104653766Y-148061637D01*
X104653763Y-148061635D01*
X104484840Y-147961733D01*
X104382942Y-147901471D01*
X104094179Y-147776513D01*
X103792046Y-147688734D01*
X103792038Y-147688732D01*
X103481277Y-147639513D01*
X103350339Y-147633339D01*
X103350335Y-147633339D01*
X100140655Y-147633339D01*
X100140651Y-147633339D01*
X100009714Y-147639513D01*
X100009709Y-147639513D01*
X99698951Y-147688732D01*
X99698943Y-147688734D01*
X99396810Y-147776513D01*
X99108047Y-147901471D01*
X98946589Y-147996958D01*
X98837227Y-148061635D01*
X98837223Y-148061637D01*
X98837218Y-148061641D01*
X98837217Y-148061641D01*
X98588615Y-148254476D01*
X98588615Y-148254477D01*
X98366133Y-148476959D01*
X98366132Y-148476959D01*
X98173297Y-148725561D01*
X98173297Y-148725562D01*
X98173293Y-148725567D01*
X98173291Y-148725571D01*
X98108614Y-148834933D01*
X98013127Y-148996391D01*
X97888169Y-149285154D01*
X97800390Y-149587287D01*
X97800388Y-149587295D01*
X97751169Y-149898053D01*
X97751169Y-149898058D01*
X97744995Y-150028994D01*
X96245995Y-150028994D01*
X96239820Y-149898058D01*
X96239820Y-149898053D01*
X96190601Y-149587295D01*
X96190599Y-149587287D01*
X96102820Y-149285154D01*
X96102819Y-149285150D01*
X95977862Y-148996391D01*
X95817699Y-148725571D01*
X95817692Y-148725561D01*
X95624857Y-148476959D01*
X95402374Y-148254476D01*
X95153772Y-148061641D01*
X95153766Y-148061637D01*
X95153763Y-148061635D01*
X94984840Y-147961733D01*
X94882942Y-147901471D01*
X94594179Y-147776513D01*
X94292046Y-147688734D01*
X94292038Y-147688732D01*
X93981277Y-147639513D01*
X93850339Y-147633339D01*
X93850335Y-147633339D01*
X90640655Y-147633339D01*
X90640651Y-147633339D01*
X90509714Y-147639513D01*
X90509709Y-147639513D01*
X90198951Y-147688732D01*
X90198943Y-147688734D01*
X89896810Y-147776513D01*
X89608047Y-147901471D01*
X89446589Y-147996958D01*
X89337227Y-148061635D01*
X89337223Y-148061637D01*
X89337218Y-148061641D01*
X89337217Y-148061641D01*
X89088615Y-148254476D01*
X89088615Y-148254477D01*
X88866133Y-148476959D01*
X88866132Y-148476959D01*
X88673297Y-148725561D01*
X88673297Y-148725562D01*
X88673293Y-148725567D01*
X88673291Y-148725571D01*
X88608614Y-148834933D01*
X88513127Y-148996391D01*
X88388169Y-149285154D01*
X88300390Y-149587287D01*
X88300388Y-149587295D01*
X88251169Y-149898053D01*
X88251169Y-149898058D01*
X88244995Y-150028994D01*
X87900499Y-150028994D01*
X87900499Y-148794623D01*
X87890096Y-148662427D01*
X87835096Y-148444156D01*
X87742007Y-148239213D01*
X87618985Y-148061641D01*
X87613825Y-148054193D01*
X87613822Y-148054189D01*
X87613819Y-148054185D01*
X87454654Y-147895020D01*
X87454650Y-147895017D01*
X87454645Y-147895013D01*
X87269632Y-147766836D01*
X87269630Y-147766834D01*
X87269626Y-147766832D01*
X87064683Y-147673743D01*
X87064681Y-147673742D01*
X87064678Y-147673741D01*
X86846420Y-147618744D01*
X86846413Y-147618743D01*
X86802347Y-147615275D01*
X86714217Y-147608339D01*
X86714215Y-147608339D01*
X83285791Y-147608339D01*
X83285776Y-147608340D01*
X83153586Y-147618743D01*
X83153579Y-147618744D01*
X82935321Y-147673741D01*
X82935318Y-147673742D01*
X82730377Y-147766830D01*
X82730367Y-147766836D01*
X82545354Y-147895013D01*
X82545342Y-147895023D01*
X82386184Y-148054181D01*
X82386174Y-148054193D01*
X82257997Y-148239206D01*
X82257991Y-148239216D01*
X82164903Y-148444157D01*
X82164902Y-148444160D01*
X82109905Y-148662418D01*
X82109904Y-148662425D01*
X82099500Y-148794616D01*
X79500500Y-148794616D01*
X79500500Y-138219292D01*
X79501097Y-138207139D01*
X79503817Y-138179525D01*
X79508901Y-138127900D01*
X79513640Y-138104074D01*
X79534979Y-138033727D01*
X79544275Y-138011286D01*
X79578929Y-137946453D01*
X79592422Y-137926259D01*
X79642928Y-137864716D01*
X79651081Y-137855721D01*
X79741538Y-137765264D01*
X79802859Y-137731781D01*
X79872551Y-137736765D01*
X79928484Y-137778637D01*
X79952901Y-137844101D01*
X79949501Y-137883076D01*
X79875244Y-138179525D01*
X79869346Y-138219292D01*
X79814685Y-138587782D01*
X79794434Y-139000000D01*
X79814685Y-139412218D01*
X79814685Y-139412223D01*
X79814686Y-139412227D01*
X79875244Y-139820471D01*
X79975527Y-140220821D01*
X80114555Y-140609379D01*
X80114562Y-140609395D01*
X80114564Y-140609400D01*
X80291022Y-140982490D01*
X80291024Y-140982493D01*
X80503198Y-141336484D01*
X80749058Y-141667988D01*
X81026215Y-141973784D01*
X81332011Y-142250941D01*
X81332017Y-142250946D01*
X81663513Y-142496800D01*
X82017510Y-142708978D01*
X82390600Y-142885436D01*
X82390609Y-142885439D01*
X82390620Y-142885444D01*
X82751738Y-143014654D01*
X82779189Y-143024476D01*
X83179535Y-143124757D01*
X83587782Y-143185315D01*
X84000000Y-143205566D01*
X84412218Y-143185315D01*
X84820465Y-143124757D01*
X85220811Y-143024476D01*
X85401380Y-142959866D01*
X85609379Y-142885444D01*
X85609385Y-142885441D01*
X85609400Y-142885436D01*
X85982490Y-142708978D01*
X86336487Y-142496800D01*
X86667983Y-142250946D01*
X86973784Y-141973784D01*
X87250946Y-141667983D01*
X87496800Y-141336487D01*
X87708978Y-140982490D01*
X87885436Y-140609400D01*
X87907362Y-140548123D01*
X88024472Y-140220821D01*
X88024476Y-140220811D01*
X88124757Y-139820465D01*
X88185315Y-139412218D01*
X88205566Y-139000000D01*
X88185315Y-138587782D01*
X88124757Y-138179535D01*
X88024476Y-137779189D01*
X88014654Y-137751738D01*
X87885444Y-137390620D01*
X87885437Y-137390604D01*
X87885436Y-137390600D01*
X87708978Y-137017510D01*
X87496800Y-136663513D01*
X87250946Y-136332017D01*
X87250941Y-136332011D01*
X86973784Y-136026215D01*
X86667988Y-135749058D01*
X86336484Y-135503198D01*
X85982493Y-135291024D01*
X85982494Y-135291024D01*
X85982490Y-135291022D01*
X85609400Y-135114564D01*
X85609396Y-135114562D01*
X85609395Y-135114562D01*
X85609379Y-135114555D01*
X85220821Y-134975527D01*
X85220815Y-134975525D01*
X85220811Y-134975524D01*
X85022205Y-134925776D01*
X84820471Y-134875244D01*
X84820466Y-134875243D01*
X84820465Y-134875243D01*
X84719577Y-134860277D01*
X84412227Y-134814686D01*
X84412223Y-134814685D01*
X84412218Y-134814685D01*
X84000000Y-134794434D01*
X83587782Y-134814685D01*
X83587776Y-134814685D01*
X83587772Y-134814686D01*
X83179526Y-134875244D01*
X82883077Y-134949501D01*
X82813264Y-134946695D01*
X82756050Y-134906591D01*
X82729601Y-134841922D01*
X82742313Y-134773218D01*
X82765264Y-134741538D01*
X82855704Y-134651099D01*
X82864699Y-134642946D01*
X82926261Y-134592423D01*
X82946450Y-134578933D01*
X83011285Y-134544278D01*
X83033736Y-134534981D01*
X83086838Y-134518872D01*
X83104067Y-134513645D01*
X83127900Y-134508904D01*
X83207171Y-134501096D01*
X83219321Y-134500500D01*
X83279092Y-134500500D01*
X110720908Y-134500500D01*
X110780707Y-134500500D01*
X110792860Y-134501097D01*
G37*
%TD.AperFunction*%
%TD*%
M02*
