M48
; DRILL file {KiCad 8.0.3} date 2024-06-17T19:23:31+0800
; FORMAT={-:-/ absolute / inch / decimal}
; #@! TF.CreationDate,2024-06-17T19:23:31+08:00
; #@! TF.GenerationSoftware,Kicad,Pcbnew,8.0.3
; #@! TF.FileFunction,Plated,1,2,PTH
FMAT,2
INCH
; #@! TA.AperFunction,Plated,PTH,ComponentDrill
T1C0.0197
; #@! TA.AperFunction,Plated,PTH,ComponentDrill
T2C0.0374
; #@! TA.AperFunction,Plated,PTH,ComponentDrill
T3C0.1063
; #@! TA.AperFunction,Plated,PTH,ComponentDrill
T4C0.1260
; #@! TA.AperFunction,Plated,PTH,ComponentDrill
T5C0.1772
%
G90
G05
T1
X3.2126Y-5.4724
X3.2126Y-6.5748
X3.2403Y-5.4056
X3.2403Y-5.5393
X3.2403Y-6.508
X3.2403Y-6.6416
X3.3071Y-5.378
X3.3071Y-5.5669
X3.3071Y-6.4803
X3.3071Y-6.6693
X3.3739Y-5.4056
X3.3739Y-5.5393
X3.3739Y-6.508
X3.3739Y-6.6416
X3.4016Y-5.4724
X3.4016Y-6.5748
X4.2362Y-5.4724
X4.2639Y-5.4056
X4.2639Y-5.5393
X4.3307Y-5.378
X4.3307Y-5.5669
X4.3543Y-6.2205
X4.382Y-6.1537
X4.382Y-6.2873
X4.3975Y-5.4056
X4.3975Y-5.5393
X4.4252Y-5.4724
X4.4488Y-6.126
X4.4488Y-6.315
X4.5156Y-6.1537
X4.5156Y-6.2873
X4.5433Y-6.2205
T2
X3.6713Y-6.25
X3.7697Y-6.25
X3.8681Y-6.25
X3.9665Y-6.25
X4.5079Y-6.5256
X4.5079Y-6.624
X4.5079Y-6.7224
X4.5079Y-6.8209
T3
X3.3465Y-5.7287
X3.3465Y-5.9255
X4.2913Y-5.7287
X4.2913Y-5.9255
T4
X3.3071Y-5.4724
X3.3071Y-6.5748
X4.3307Y-5.4724
X4.4488Y-6.2205
T5
X3.6317Y-5.6864
X3.6317Y-5.9698
X4.0057Y-5.6864
X4.0057Y-5.9698
M30
