%TF.GenerationSoftware,KiCad,Pcbnew,8.0.3*%
%TF.CreationDate,2024-06-18T01:58:16+08:00*%
%TF.ProjectId,power,706f7765-722e-46b6-9963-61645f706362,1.1.0*%
%TF.SameCoordinates,Original*%
%TF.FileFunction,Legend,Top*%
%TF.FilePolarity,Positive*%
%FSLAX46Y46*%
G04 Gerber Fmt 4.6, Leading zero omitted, Abs format (unit mm)*
G04 Created by KiCad (PCBNEW 8.0.3) date 2024-06-18 01:58:16*
%MOMM*%
%LPD*%
G01*
G04 APERTURE LIST*
G04 Aperture macros list*
%AMRoundRect*
0 Rectangle with rounded corners*
0 $1 Rounding radius*
0 $2 $3 $4 $5 $6 $7 $8 $9 X,Y pos of 4 corners*
0 Add a 4 corners polygon primitive as box body*
4,1,4,$2,$3,$4,$5,$6,$7,$8,$9,$2,$3,0*
0 Add four circle primitives for the rounded corners*
1,1,$1+$1,$2,$3*
1,1,$1+$1,$4,$5*
1,1,$1+$1,$6,$7*
1,1,$1+$1,$8,$9*
0 Add four rect primitives between the rounded corners*
20,1,$1+$1,$2,$3,$4,$5,0*
20,1,$1+$1,$4,$5,$6,$7,0*
20,1,$1+$1,$6,$7,$8,$9,0*
20,1,$1+$1,$8,$9,$2,$3,0*%
G04 Aperture macros list end*
%ADD10C,0.150000*%
%ADD11C,0.000000*%
%ADD12C,0.120000*%
%ADD13C,0.800000*%
%ADD14C,6.400000*%
%ADD15RoundRect,1.500000X1.500000X-1.500000X1.500000X1.500000X-1.500000X1.500000X-1.500000X-1.500000X0*%
%ADD16C,6.000000*%
%ADD17RoundRect,0.250000X-0.725000X0.600000X-0.725000X-0.600000X0.725000X-0.600000X0.725000X0.600000X0*%
%ADD18O,1.950000X1.700000*%
%ADD19RoundRect,0.250000X1.650000X-1.650000X1.650000X1.650000X-1.650000X1.650000X-1.650000X-1.650000X0*%
%ADD20C,4.000000*%
%ADD21RoundRect,0.250000X0.600000X0.725000X-0.600000X0.725000X-0.600000X-0.725000X0.600000X-0.725000X0*%
%ADD22O,1.700000X1.950000*%
G04 APERTURE END LIST*
D10*
X101416666Y-138204819D02*
X101416666Y-138919104D01*
X101416666Y-138919104D02*
X101369047Y-139061961D01*
X101369047Y-139061961D02*
X101273809Y-139157200D01*
X101273809Y-139157200D02*
X101130952Y-139204819D01*
X101130952Y-139204819D02*
X101035714Y-139204819D01*
X101845238Y-138300057D02*
X101892857Y-138252438D01*
X101892857Y-138252438D02*
X101988095Y-138204819D01*
X101988095Y-138204819D02*
X102226190Y-138204819D01*
X102226190Y-138204819D02*
X102321428Y-138252438D01*
X102321428Y-138252438D02*
X102369047Y-138300057D01*
X102369047Y-138300057D02*
X102416666Y-138395295D01*
X102416666Y-138395295D02*
X102416666Y-138490533D01*
X102416666Y-138490533D02*
X102369047Y-138633390D01*
X102369047Y-138633390D02*
X101797619Y-139204819D01*
X101797619Y-139204819D02*
X102416666Y-139204819D01*
X91916666Y-138204819D02*
X91916666Y-138919104D01*
X91916666Y-138919104D02*
X91869047Y-139061961D01*
X91869047Y-139061961D02*
X91773809Y-139157200D01*
X91773809Y-139157200D02*
X91630952Y-139204819D01*
X91630952Y-139204819D02*
X91535714Y-139204819D01*
X92916666Y-139204819D02*
X92345238Y-139204819D01*
X92630952Y-139204819D02*
X92630952Y-138204819D01*
X92630952Y-138204819D02*
X92535714Y-138347676D01*
X92535714Y-138347676D02*
X92440476Y-138442914D01*
X92440476Y-138442914D02*
X92345238Y-138490533D01*
D11*
%TO.C,G\u002A\u002A\u002A*%
G36*
X87002998Y-136627130D02*
G01*
X87027607Y-136639004D01*
X87079672Y-136673863D01*
X87113890Y-136718959D01*
X87133083Y-136780457D01*
X87140068Y-136864518D01*
X87140249Y-136885181D01*
X87137893Y-136958660D01*
X87129816Y-137010415D01*
X87114376Y-137049715D01*
X87109679Y-137057856D01*
X87058707Y-137115295D01*
X86994861Y-137147491D01*
X86924609Y-137152766D01*
X86854422Y-137129445D01*
X86847989Y-137125679D01*
X86799699Y-137085985D01*
X86768879Y-137033484D01*
X86753057Y-136962223D01*
X86749538Y-136888562D01*
X86753355Y-136798735D01*
X86766388Y-136733426D01*
X86791014Y-136686649D01*
X86829607Y-136652419D01*
X86847391Y-136642008D01*
X86904711Y-136616663D01*
X86952083Y-136611779D01*
X87002998Y-136627130D01*
G37*
G36*
X88800536Y-136627130D02*
G01*
X88825145Y-136639004D01*
X88877210Y-136673863D01*
X88911429Y-136718959D01*
X88930621Y-136780457D01*
X88937607Y-136864518D01*
X88937787Y-136885181D01*
X88935432Y-136958660D01*
X88927355Y-137010415D01*
X88911915Y-137049715D01*
X88907217Y-137057856D01*
X88856245Y-137115295D01*
X88792399Y-137147491D01*
X88722148Y-137152766D01*
X88651961Y-137129445D01*
X88645528Y-137125679D01*
X88597238Y-137085985D01*
X88566417Y-137033484D01*
X88550595Y-136962223D01*
X88547077Y-136888562D01*
X88550893Y-136798735D01*
X88563926Y-136733426D01*
X88588552Y-136686649D01*
X88627146Y-136652419D01*
X88644930Y-136642008D01*
X88702250Y-136616663D01*
X88749621Y-136611779D01*
X88800536Y-136627130D01*
G37*
G36*
X90172677Y-137817953D02*
G01*
X90170877Y-137978133D01*
X90165596Y-138116487D01*
X90157013Y-138230894D01*
X90145307Y-138319232D01*
X90130655Y-138379380D01*
X90124133Y-138394834D01*
X90112126Y-138427672D01*
X90110086Y-138441726D01*
X90102623Y-138467756D01*
X90083023Y-138512793D01*
X90055326Y-138569092D01*
X90023572Y-138628909D01*
X89991802Y-138684499D01*
X89964054Y-138728119D01*
X89952821Y-138743180D01*
X89901970Y-138800394D01*
X89838911Y-138864919D01*
X89775855Y-138924542D01*
X89743180Y-138952821D01*
X89708580Y-138976988D01*
X89658085Y-139007226D01*
X89599442Y-139039493D01*
X89540393Y-139069750D01*
X89488683Y-139093957D01*
X89452056Y-139108073D01*
X89441726Y-139110086D01*
X89411630Y-139116931D01*
X89394834Y-139124133D01*
X89348930Y-139139135D01*
X89276238Y-139151886D01*
X89181177Y-139161961D01*
X89068168Y-139168934D01*
X88941631Y-139172380D01*
X88890663Y-139172677D01*
X88640861Y-139172677D01*
X88640861Y-139094523D01*
X88640861Y-139016369D01*
X88705490Y-139016369D01*
X88800320Y-139009813D01*
X88903676Y-138992125D01*
X89001003Y-138966273D01*
X89059411Y-138944166D01*
X89106736Y-138923927D01*
X89143055Y-138910412D01*
X89157104Y-138906953D01*
X89172733Y-138897636D01*
X89173250Y-138895230D01*
X89185288Y-138880744D01*
X89216204Y-138853295D01*
X89259687Y-138818433D01*
X89266561Y-138813169D01*
X89311197Y-138778047D01*
X89344124Y-138749988D01*
X89359092Y-138734357D01*
X89359402Y-138733425D01*
X89367682Y-138717011D01*
X89389416Y-138681112D01*
X89420630Y-138632196D01*
X89436235Y-138608379D01*
X89472169Y-138551861D01*
X89501781Y-138501423D01*
X89520256Y-138465409D01*
X89523258Y-138457569D01*
X89527218Y-138435546D01*
X89516501Y-138425354D01*
X89483987Y-138422498D01*
X89467547Y-138422400D01*
X89387187Y-138428704D01*
X89311252Y-138449395D01*
X89234726Y-138487138D01*
X89152589Y-138544599D01*
X89059826Y-138624443D01*
X89024100Y-138657998D01*
X88943165Y-138734207D01*
X88879864Y-138790781D01*
X88830244Y-138830696D01*
X88790350Y-138856930D01*
X88756231Y-138872459D01*
X88730365Y-138879189D01*
X88690612Y-138877353D01*
X88670460Y-138853383D01*
X88669942Y-138806805D01*
X88689093Y-138737145D01*
X88727946Y-138643931D01*
X88750712Y-138596503D01*
X88812514Y-138486285D01*
X88879897Y-138399134D01*
X88960505Y-138327350D01*
X89061983Y-138263235D01*
X89103163Y-138241527D01*
X89138239Y-138223821D01*
X89169142Y-138209170D01*
X89199546Y-138196826D01*
X89233125Y-138186037D01*
X89273551Y-138176055D01*
X89324500Y-138166130D01*
X89389643Y-138155513D01*
X89472656Y-138143453D01*
X89577210Y-138129200D01*
X89706980Y-138112007D01*
X89793896Y-138100569D01*
X89876223Y-138089736D01*
X90024450Y-137792588D01*
X90172677Y-137495440D01*
X90172677Y-137817953D01*
G37*
G36*
X85967055Y-137770979D02*
G01*
X86010740Y-137857459D01*
X86050515Y-137935024D01*
X86083970Y-137999065D01*
X86108692Y-138044973D01*
X86122272Y-138068142D01*
X86123157Y-138069321D01*
X86133131Y-138076848D01*
X86152466Y-138084213D01*
X86184776Y-138092085D01*
X86233676Y-138101134D01*
X86302782Y-138112028D01*
X86395708Y-138125439D01*
X86515077Y-138141899D01*
X86614428Y-138156018D01*
X86689973Y-138168693D01*
X86748987Y-138181824D01*
X86798746Y-138197308D01*
X86846526Y-138217045D01*
X86896836Y-138241527D01*
X87007274Y-138304783D01*
X87094210Y-138373055D01*
X87165286Y-138454043D01*
X87228148Y-138555444D01*
X87249287Y-138596503D01*
X87296621Y-138699989D01*
X87324237Y-138779716D01*
X87332170Y-138836158D01*
X87320454Y-138869789D01*
X87289123Y-138881082D01*
X87269634Y-138879189D01*
X87237289Y-138870095D01*
X87202342Y-138852685D01*
X87160838Y-138823981D01*
X87108825Y-138781007D01*
X87042350Y-138720785D01*
X86975899Y-138657998D01*
X86878257Y-138569732D01*
X86792989Y-138504778D01*
X86715078Y-138460470D01*
X86639506Y-138434142D01*
X86561257Y-138423129D01*
X86532452Y-138422400D01*
X86491324Y-138423839D01*
X86474308Y-138431155D01*
X86474281Y-138448842D01*
X86476741Y-138457569D01*
X86490018Y-138486333D01*
X86516168Y-138532531D01*
X86550377Y-138587817D01*
X86563764Y-138608379D01*
X86597874Y-138660954D01*
X86624240Y-138703338D01*
X86638888Y-138729063D01*
X86640597Y-138733425D01*
X86652370Y-138746755D01*
X86683029Y-138773311D01*
X86726324Y-138807724D01*
X86733439Y-138813169D01*
X86778202Y-138848636D01*
X86811301Y-138877485D01*
X86826424Y-138894164D01*
X86826749Y-138895230D01*
X86839647Y-138906793D01*
X86842027Y-138906953D01*
X86863433Y-138912959D01*
X86902724Y-138928346D01*
X86931904Y-138941047D01*
X87015164Y-138970877D01*
X87115322Y-138995136D01*
X87218120Y-139010831D01*
X87284892Y-139015134D01*
X87359138Y-139016369D01*
X87359138Y-139094523D01*
X87359138Y-139172677D01*
X87089507Y-139170407D01*
X86992681Y-139168773D01*
X86899262Y-139165724D01*
X86816911Y-139161614D01*
X86753290Y-139156801D01*
X86726092Y-139153538D01*
X86671008Y-139143336D01*
X86625716Y-139132076D01*
X86605166Y-139124546D01*
X86572456Y-139112216D01*
X86558273Y-139110086D01*
X86532243Y-139102623D01*
X86487206Y-139083023D01*
X86430907Y-139055326D01*
X86371090Y-139023572D01*
X86315500Y-138991802D01*
X86271880Y-138964054D01*
X86256819Y-138952821D01*
X86199605Y-138901970D01*
X86135080Y-138838911D01*
X86075457Y-138775855D01*
X86047178Y-138743180D01*
X86023011Y-138708580D01*
X85992773Y-138658085D01*
X85960506Y-138599442D01*
X85930249Y-138540393D01*
X85906042Y-138488683D01*
X85891926Y-138452056D01*
X85889913Y-138441726D01*
X85883068Y-138411630D01*
X85875866Y-138394834D01*
X85860094Y-138346294D01*
X85847207Y-138268684D01*
X85837381Y-138164078D01*
X85830789Y-138034548D01*
X85827606Y-137882170D01*
X85827326Y-137816417D01*
X85827328Y-137492369D01*
X85967055Y-137770979D01*
G37*
G36*
X88024336Y-134902387D02*
G01*
X88046739Y-134907957D01*
X88071384Y-134921001D01*
X88102444Y-134944594D01*
X88144096Y-134981813D01*
X88200514Y-135035734D01*
X88255616Y-135089561D01*
X88346018Y-135176125D01*
X88420837Y-135240185D01*
X88485466Y-135282413D01*
X88545302Y-135303480D01*
X88605738Y-135304060D01*
X88672170Y-135284823D01*
X88749992Y-135246443D01*
X88844601Y-135189592D01*
X88879748Y-135167323D01*
X88957146Y-135119116D01*
X89014803Y-135086430D01*
X89058402Y-135066593D01*
X89093623Y-135056933D01*
X89119105Y-135054742D01*
X89166368Y-135059275D01*
X89203187Y-135071481D01*
X89208808Y-135075277D01*
X89225959Y-135095662D01*
X89255826Y-135137371D01*
X89294771Y-135195086D01*
X89339157Y-135263489D01*
X89358656Y-135294302D01*
X89418052Y-135387022D01*
X89466204Y-135455871D01*
X89507318Y-135504160D01*
X89545597Y-135535195D01*
X89585244Y-135552285D01*
X89630466Y-135558738D01*
X89685465Y-135557864D01*
X89693021Y-135557417D01*
X89771526Y-135549394D01*
X89857810Y-135535876D01*
X89914769Y-135524022D01*
X90007916Y-135508456D01*
X90078284Y-135512765D01*
X90127492Y-135537279D01*
X90153138Y-135572578D01*
X90158575Y-135593287D01*
X90163021Y-135630996D01*
X90166544Y-135687960D01*
X90169215Y-135766437D01*
X90171104Y-135868682D01*
X90172281Y-135996950D01*
X90172815Y-136153498D01*
X90172861Y-136209854D01*
X90173046Y-136804615D01*
X89921426Y-137307607D01*
X89669805Y-137810599D01*
X89565641Y-137820943D01*
X89376360Y-137845263D01*
X89212683Y-137878659D01*
X89069928Y-137922447D01*
X88943415Y-137977944D01*
X88878345Y-138014369D01*
X88775471Y-138086580D01*
X88674730Y-138175190D01*
X88582616Y-138273222D01*
X88505619Y-138373701D01*
X88450232Y-138469648D01*
X88446007Y-138479010D01*
X88428800Y-138514857D01*
X88410717Y-138535120D01*
X88382153Y-138545635D01*
X88333505Y-138552237D01*
X88323829Y-138553256D01*
X88275163Y-138556370D01*
X88202482Y-138558564D01*
X88113017Y-138559852D01*
X88014001Y-138560252D01*
X87912666Y-138559780D01*
X87816244Y-138558450D01*
X87731966Y-138556280D01*
X87667066Y-138553285D01*
X87647069Y-138551762D01*
X87605940Y-138545065D01*
X87580991Y-138528813D01*
X87560781Y-138494165D01*
X87554538Y-138480247D01*
X87501128Y-138383973D01*
X87425360Y-138282695D01*
X87333740Y-138183415D01*
X87232773Y-138093134D01*
X87128966Y-138018854D01*
X87121654Y-138014369D01*
X87002150Y-137951788D01*
X86869008Y-137901649D01*
X86717546Y-137862635D01*
X86543085Y-137833429D01*
X86434358Y-137820943D01*
X86330194Y-137810599D01*
X86078573Y-137307607D01*
X86019843Y-137190205D01*
X86579025Y-137190205D01*
X86590154Y-137317744D01*
X86622457Y-137441401D01*
X86658980Y-137523630D01*
X86703222Y-137584885D01*
X86766749Y-137647661D01*
X86841112Y-137705625D01*
X86917865Y-137752440D01*
X86988556Y-137781773D01*
X87009776Y-137786649D01*
X87099734Y-137790381D01*
X87198943Y-137776053D01*
X87292955Y-137745996D01*
X87310000Y-137738237D01*
X87374712Y-137699642D01*
X87440967Y-137648076D01*
X87500230Y-137591272D01*
X87543968Y-137536965D01*
X87556649Y-137514688D01*
X87585442Y-137440928D01*
X87604102Y-137360838D01*
X87614009Y-137266147D01*
X87615781Y-137190205D01*
X88376563Y-137190205D01*
X88387692Y-137317744D01*
X88419996Y-137441401D01*
X88456519Y-137523630D01*
X88500760Y-137584885D01*
X88564287Y-137647661D01*
X88638651Y-137705625D01*
X88715403Y-137752440D01*
X88786095Y-137781773D01*
X88807314Y-137786649D01*
X88897273Y-137790381D01*
X88996482Y-137776053D01*
X89090494Y-137745996D01*
X89107538Y-137738237D01*
X89172251Y-137699642D01*
X89238505Y-137648076D01*
X89297768Y-137591272D01*
X89341507Y-137536965D01*
X89354187Y-137514688D01*
X89382981Y-137440928D01*
X89401640Y-137360838D01*
X89411548Y-137266147D01*
X89414115Y-137156122D01*
X89412768Y-137067189D01*
X89407755Y-136999137D01*
X89396811Y-136941615D01*
X89377669Y-136884275D01*
X89348065Y-136816767D01*
X89332817Y-136784660D01*
X89302392Y-136734185D01*
X89260384Y-136680805D01*
X89213097Y-136630844D01*
X89166836Y-136590630D01*
X89127906Y-136566485D01*
X89111220Y-136562338D01*
X89077283Y-136551842D01*
X89065285Y-136542848D01*
X89039448Y-136532761D01*
X88991725Y-136526165D01*
X88931293Y-136523064D01*
X88867331Y-136523459D01*
X88809020Y-136527350D01*
X88765538Y-136534740D01*
X88747952Y-136542800D01*
X88716603Y-136560095D01*
X88702221Y-136562338D01*
X88675916Y-136573711D01*
X88636585Y-136603764D01*
X88590263Y-136646401D01*
X88542985Y-136695522D01*
X88500784Y-136745030D01*
X88469697Y-136788828D01*
X88460049Y-136807041D01*
X88445270Y-136843721D01*
X88432070Y-136884051D01*
X88418470Y-136935305D01*
X88402488Y-137004753D01*
X88388345Y-137070338D01*
X88376563Y-137190205D01*
X87615781Y-137190205D01*
X87616576Y-137156122D01*
X87615230Y-137067189D01*
X87610217Y-136999137D01*
X87599272Y-136941615D01*
X87580130Y-136884275D01*
X87550527Y-136816767D01*
X87535278Y-136784660D01*
X87504854Y-136734185D01*
X87462845Y-136680805D01*
X87415558Y-136630844D01*
X87369298Y-136590630D01*
X87330368Y-136566485D01*
X87313681Y-136562338D01*
X87279744Y-136551842D01*
X87267747Y-136542848D01*
X87241910Y-136532761D01*
X87194186Y-136526165D01*
X87133754Y-136523064D01*
X87069793Y-136523459D01*
X87011482Y-136527350D01*
X86967999Y-136534740D01*
X86950414Y-136542800D01*
X86919065Y-136560095D01*
X86904682Y-136562338D01*
X86878378Y-136573711D01*
X86839047Y-136603764D01*
X86792725Y-136646401D01*
X86745446Y-136695522D01*
X86703246Y-136745030D01*
X86672159Y-136788828D01*
X86662510Y-136807041D01*
X86647731Y-136843721D01*
X86634532Y-136884051D01*
X86620931Y-136935305D01*
X86604950Y-137004753D01*
X86590807Y-137070338D01*
X86579025Y-137190205D01*
X86019843Y-137190205D01*
X85826953Y-136804615D01*
X85827138Y-136209854D01*
X85827490Y-136043067D01*
X85828477Y-135905373D01*
X85830166Y-135794608D01*
X85832622Y-135708610D01*
X85835913Y-135645216D01*
X85840104Y-135602261D01*
X85845261Y-135577582D01*
X85846626Y-135574190D01*
X85881312Y-135532317D01*
X85936603Y-135511474D01*
X86013628Y-135511426D01*
X86085230Y-135524628D01*
X86162627Y-135539997D01*
X86249068Y-135552352D01*
X86306978Y-135557679D01*
X86363496Y-135559087D01*
X86409718Y-135553591D01*
X86449852Y-135537874D01*
X86488104Y-135508624D01*
X86528684Y-135462526D01*
X86575798Y-135396265D01*
X86633654Y-135306526D01*
X86641344Y-135294302D01*
X86686934Y-135222982D01*
X86728621Y-135160103D01*
X86762766Y-135110985D01*
X86785732Y-135080945D01*
X86791191Y-135075277D01*
X86822827Y-135061748D01*
X86869035Y-135054947D01*
X86880894Y-135054742D01*
X86913519Y-135058284D01*
X86950061Y-135069904D01*
X86996200Y-135092275D01*
X87057618Y-135128069D01*
X87120251Y-135167323D01*
X87221455Y-135230015D01*
X87304125Y-135274453D01*
X87373656Y-135299965D01*
X87435444Y-135305879D01*
X87494883Y-135291523D01*
X87557369Y-135256224D01*
X87628296Y-135199311D01*
X87713059Y-135120111D01*
X87744383Y-135089561D01*
X87814761Y-135020945D01*
X87867211Y-134971361D01*
X87905909Y-134937732D01*
X87935028Y-134916982D01*
X87958745Y-134906035D01*
X87981234Y-134901815D01*
X88000000Y-134901214D01*
X88024336Y-134902387D01*
G37*
G36*
X81673444Y-140257733D02*
G01*
X81687483Y-140260569D01*
X81692811Y-140268083D01*
X81693651Y-140282554D01*
X81693651Y-140282771D01*
X81693651Y-140308247D01*
X81724537Y-140287287D01*
X81766724Y-140267053D01*
X81813601Y-140258181D01*
X81859808Y-140260939D01*
X81899984Y-140275596D01*
X81904312Y-140278276D01*
X81925600Y-140292224D01*
X81893263Y-140330943D01*
X81872897Y-140353315D01*
X81858214Y-140363574D01*
X81845650Y-140364060D01*
X81843769Y-140363450D01*
X81824882Y-140359547D01*
X81797543Y-140357038D01*
X81786001Y-140356651D01*
X81757226Y-140358397D01*
X81737036Y-140366635D01*
X81721665Y-140379770D01*
X81697940Y-140403475D01*
X81695305Y-140579152D01*
X81692670Y-140754829D01*
X81645980Y-140754829D01*
X81599291Y-140754829D01*
X81599291Y-140506062D01*
X81599291Y-140257295D01*
X81646471Y-140257295D01*
X81673444Y-140257733D01*
G37*
G36*
X83651621Y-140258991D02*
G01*
X83678017Y-140261233D01*
X83691834Y-140265694D01*
X83697648Y-140274883D01*
X83699371Y-140285176D01*
X83702086Y-140308767D01*
X83731235Y-140286534D01*
X83766867Y-140268433D01*
X83810741Y-140259210D01*
X83855987Y-140259628D01*
X83891838Y-140268725D01*
X83911966Y-140279666D01*
X83922928Y-140290563D01*
X83923622Y-140293314D01*
X83918082Y-140305726D01*
X83904312Y-140325215D01*
X83893630Y-140338034D01*
X83875400Y-140357436D01*
X83862809Y-140365700D01*
X83850832Y-140365130D01*
X83842115Y-140361624D01*
X83801702Y-140351070D01*
X83764318Y-140357337D01*
X83730623Y-140380312D01*
X83730112Y-140380820D01*
X83700946Y-140409986D01*
X83700946Y-140582408D01*
X83700946Y-140754829D01*
X83653766Y-140754829D01*
X83606586Y-140754829D01*
X83606586Y-140505614D01*
X83606586Y-140256398D01*
X83651621Y-140258991D01*
G37*
G36*
X81851828Y-139478299D02*
G01*
X81891481Y-139496100D01*
X81927846Y-139528578D01*
X81937220Y-139539647D01*
X81963864Y-139572589D01*
X81966457Y-139769113D01*
X81969049Y-139965636D01*
X81921421Y-139965636D01*
X81873793Y-139965636D01*
X81873793Y-139798236D01*
X81873793Y-139630835D01*
X81845426Y-139599881D01*
X81823869Y-139579667D01*
X81803428Y-139570305D01*
X81782069Y-139568010D01*
X81753118Y-139570518D01*
X81727253Y-139577872D01*
X81723922Y-139579486D01*
X81708572Y-139589105D01*
X81696912Y-139600937D01*
X81688443Y-139617319D01*
X81682668Y-139640586D01*
X81679091Y-139673074D01*
X81677214Y-139717118D01*
X81676539Y-139775054D01*
X81676495Y-139802225D01*
X81676495Y-139965636D01*
X81629315Y-139965636D01*
X81582135Y-139965636D01*
X81582135Y-139721158D01*
X81582135Y-139476680D01*
X81629315Y-139476680D01*
X81676495Y-139476680D01*
X81676495Y-139503910D01*
X81676495Y-139531140D01*
X81695796Y-139513560D01*
X81728733Y-139489497D01*
X81764799Y-139476872D01*
X81805072Y-139473258D01*
X81851828Y-139478299D01*
G37*
G36*
X83978689Y-139476015D02*
G01*
X84009305Y-139482692D01*
X84034497Y-139492113D01*
X84049762Y-139502760D01*
X84052286Y-139509068D01*
X84046843Y-139518420D01*
X84033171Y-139536087D01*
X84019655Y-139552004D01*
X83987390Y-139588727D01*
X83954949Y-139575172D01*
X83916348Y-139567339D01*
X83879616Y-139576360D01*
X83845925Y-139601948D01*
X83845892Y-139601983D01*
X83838879Y-139610019D01*
X83833628Y-139618800D01*
X83829836Y-139630839D01*
X83827200Y-139648647D01*
X83825419Y-139674739D01*
X83824189Y-139711626D01*
X83823208Y-139761822D01*
X83822685Y-139794743D01*
X83820040Y-139965636D01*
X83773360Y-139965636D01*
X83726680Y-139965636D01*
X83726680Y-139721158D01*
X83726680Y-139476680D01*
X83773860Y-139476680D01*
X83800833Y-139477117D01*
X83814872Y-139479951D01*
X83820200Y-139487472D01*
X83821040Y-139501965D01*
X83821040Y-139502238D01*
X83821040Y-139527795D01*
X83859224Y-139500881D01*
X83886148Y-139484270D01*
X83911139Y-139476122D01*
X83943192Y-139473645D01*
X83947150Y-139473601D01*
X83978689Y-139476015D01*
G37*
G36*
X83615164Y-139720730D02*
G01*
X83615164Y-139965636D01*
X83563695Y-139965636D01*
X83535173Y-139965186D01*
X83519774Y-139962710D01*
X83513468Y-139956519D01*
X83512227Y-139944924D01*
X83512226Y-139944069D01*
X83512226Y-139922502D01*
X83477397Y-139945551D01*
X83432618Y-139965871D01*
X83383569Y-139972515D01*
X83335742Y-139965033D01*
X83319217Y-139958482D01*
X83275648Y-139930149D01*
X83244690Y-139891478D01*
X83233844Y-139869290D01*
X83229137Y-139854514D01*
X83225625Y-139834239D01*
X83223160Y-139806093D01*
X83221595Y-139767705D01*
X83220781Y-139716704D01*
X83220568Y-139657097D01*
X83220568Y-139476680D01*
X83267748Y-139476680D01*
X83314928Y-139476680D01*
X83314928Y-139636224D01*
X83315360Y-139701628D01*
X83317038Y-139752192D01*
X83320532Y-139790221D01*
X83326415Y-139818018D01*
X83335258Y-139837889D01*
X83347631Y-139852137D01*
X83364106Y-139863065D01*
X83372183Y-139867123D01*
X83411522Y-139876940D01*
X83450825Y-139870394D01*
X83484313Y-139850211D01*
X83507937Y-139829911D01*
X83512226Y-139655440D01*
X83516515Y-139480969D01*
X83565839Y-139478396D01*
X83615164Y-139475824D01*
X83615164Y-139720730D01*
G37*
G36*
X84323719Y-139478267D02*
G01*
X84376740Y-139498922D01*
X84411706Y-139522833D01*
X84446075Y-139551547D01*
X84412983Y-139583861D01*
X84379891Y-139616174D01*
X84356818Y-139598025D01*
X84320027Y-139577951D01*
X84278058Y-139568878D01*
X84236257Y-139571026D01*
X84199972Y-139584615D01*
X84190687Y-139591180D01*
X84172633Y-139615000D01*
X84158730Y-139650635D01*
X84149807Y-139693065D01*
X84146695Y-139737273D01*
X84150223Y-139778241D01*
X84156161Y-139799948D01*
X84178226Y-139836311D01*
X84210450Y-139861699D01*
X84249112Y-139875217D01*
X84290486Y-139875970D01*
X84330848Y-139863060D01*
X84354039Y-139847546D01*
X84379699Y-139825955D01*
X84413343Y-139858807D01*
X84432264Y-139878094D01*
X84440294Y-139890112D01*
X84439183Y-139899187D01*
X84432929Y-139907193D01*
X84418073Y-139919038D01*
X84393305Y-139934491D01*
X84367353Y-139948471D01*
X84308272Y-139969513D01*
X84249588Y-139973425D01*
X84195285Y-139961620D01*
X84145598Y-139935251D01*
X84103540Y-139895748D01*
X84078424Y-139857682D01*
X84068715Y-139836958D01*
X84062438Y-139817105D01*
X84058868Y-139793517D01*
X84057278Y-139761585D01*
X84056940Y-139721345D01*
X84057224Y-139679053D01*
X84058653Y-139649270D01*
X84062098Y-139627353D01*
X84068427Y-139608658D01*
X84078511Y-139588541D01*
X84083474Y-139579618D01*
X84118367Y-139533767D01*
X84162790Y-139500196D01*
X84213792Y-139479415D01*
X84268419Y-139471935D01*
X84323719Y-139478267D01*
G37*
G36*
X82328437Y-140407413D02*
G01*
X82328437Y-140754829D01*
X82276967Y-140754829D01*
X82225498Y-140754829D01*
X82225498Y-140728658D01*
X82225498Y-140702487D01*
X82194277Y-140726301D01*
X82158125Y-140744567D01*
X82113735Y-140753484D01*
X82067513Y-140752644D01*
X82025862Y-140741640D01*
X82017456Y-140737549D01*
X81992456Y-140719097D01*
X81968523Y-140693867D01*
X81961980Y-140684896D01*
X81952210Y-140668981D01*
X81945466Y-140653515D01*
X81941044Y-140634699D01*
X81938240Y-140608736D01*
X81936351Y-140571827D01*
X81935305Y-140540983D01*
X81934911Y-140506062D01*
X82028296Y-140506062D01*
X82031622Y-140562890D01*
X82041885Y-140605310D01*
X82059513Y-140634791D01*
X82068254Y-140642923D01*
X82097412Y-140656444D01*
X82133692Y-140660251D01*
X82169727Y-140653819D01*
X82177501Y-140650702D01*
X82198422Y-140635998D01*
X82212810Y-140612663D01*
X82221306Y-140578514D01*
X82224549Y-140531365D01*
X82224113Y-140491723D01*
X82221209Y-140401684D01*
X82192105Y-140375696D01*
X82171930Y-140359768D01*
X82153770Y-140353074D01*
X82129243Y-140353013D01*
X82121248Y-140353719D01*
X82085276Y-140361510D01*
X82059107Y-140378171D01*
X82041632Y-140405519D01*
X82031741Y-140445374D01*
X82028324Y-140499556D01*
X82028296Y-140506062D01*
X81934911Y-140506062D01*
X81934533Y-140472505D01*
X81937313Y-140418364D01*
X81944143Y-140376014D01*
X81955519Y-140342910D01*
X81971936Y-140316506D01*
X81981103Y-140306130D01*
X82021461Y-140276143D01*
X82068287Y-140260362D01*
X82117935Y-140259136D01*
X82166761Y-140272810D01*
X82190975Y-140286160D01*
X82225498Y-140309007D01*
X82225498Y-140184502D01*
X82225498Y-140059996D01*
X82276967Y-140059996D01*
X82328437Y-140059996D01*
X82328437Y-140407413D01*
G37*
G36*
X82996233Y-139482110D02*
G01*
X83042139Y-139505055D01*
X83080639Y-139539564D01*
X83108796Y-139584926D01*
X83113528Y-139596896D01*
X83120897Y-139628748D01*
X83125592Y-139671880D01*
X83127508Y-139720608D01*
X83126541Y-139769250D01*
X83122585Y-139812121D01*
X83117932Y-139835840D01*
X83097063Y-139882219D01*
X83063348Y-139920792D01*
X83019946Y-139949939D01*
X82970014Y-139968036D01*
X82916710Y-139973463D01*
X82865719Y-139965374D01*
X82818907Y-139942811D01*
X82778903Y-139906653D01*
X82751828Y-139865244D01*
X82741611Y-139842749D01*
X82734989Y-139822252D01*
X82731214Y-139799033D01*
X82729538Y-139768373D01*
X82729211Y-139725552D01*
X82729218Y-139722663D01*
X82729674Y-139707512D01*
X82823303Y-139707512D01*
X82824200Y-139755925D01*
X82825460Y-139768338D01*
X82832488Y-139808551D01*
X82843635Y-139835967D01*
X82861261Y-139854858D01*
X82879218Y-139865543D01*
X82916178Y-139878039D01*
X82950985Y-139875877D01*
X82976275Y-139866324D01*
X83000432Y-139849955D01*
X83017020Y-139825935D01*
X83027024Y-139791651D01*
X83031429Y-139744491D01*
X83031848Y-139718986D01*
X83031221Y-139679864D01*
X83028744Y-139653015D01*
X83023515Y-139633584D01*
X83014637Y-139616714D01*
X83012233Y-139613055D01*
X82984231Y-139585304D01*
X82949148Y-139570640D01*
X82911378Y-139569423D01*
X82875312Y-139582013D01*
X82852711Y-139599993D01*
X82838285Y-139625056D01*
X82828240Y-139662392D01*
X82823303Y-139707512D01*
X82729674Y-139707512D01*
X82730981Y-139664146D01*
X82736746Y-139618915D01*
X82747739Y-139583325D01*
X82765185Y-139553731D01*
X82790307Y-139526489D01*
X82797259Y-139520209D01*
X82843433Y-139489778D01*
X82893944Y-139473760D01*
X82945855Y-139471441D01*
X82996233Y-139482110D01*
G37*
G36*
X84176845Y-140260459D02*
G01*
X84226822Y-140274120D01*
X84269499Y-140300804D01*
X84301839Y-140333946D01*
X84323817Y-140372959D01*
X84337015Y-140421502D01*
X84342287Y-140469191D01*
X84346728Y-140540375D01*
X84189989Y-140540375D01*
X84033250Y-140540375D01*
X84038270Y-140571306D01*
X84052155Y-140613910D01*
X84077978Y-140644204D01*
X84100223Y-140656897D01*
X84147373Y-140667764D01*
X84195299Y-140661849D01*
X84242537Y-140639377D01*
X84250880Y-140633572D01*
X84262202Y-140629264D01*
X84276305Y-140634234D01*
X84295915Y-140648412D01*
X84317229Y-140666774D01*
X84325341Y-140679698D01*
X84321166Y-140691490D01*
X84307852Y-140704527D01*
X84266045Y-140730843D01*
X84214704Y-140748034D01*
X84159248Y-140755391D01*
X84105094Y-140752203D01*
X84057661Y-140737761D01*
X84056940Y-140737412D01*
X84010043Y-140705810D01*
X83975453Y-140662645D01*
X83953081Y-140607721D01*
X83942836Y-140540840D01*
X83942727Y-140488922D01*
X83948474Y-140444922D01*
X84035534Y-140444922D01*
X84039700Y-140454706D01*
X84053606Y-140460165D01*
X84079397Y-140462561D01*
X84119218Y-140463155D01*
X84142722Y-140463171D01*
X84190225Y-140462702D01*
X84222535Y-140461167D01*
X84241597Y-140458369D01*
X84249350Y-140454116D01*
X84249761Y-140452448D01*
X84246297Y-140438640D01*
X84237762Y-140416153D01*
X84232880Y-140404945D01*
X84208789Y-140371291D01*
X84174370Y-140349911D01*
X84136564Y-140343108D01*
X84107507Y-140350333D01*
X84078213Y-140368891D01*
X84054954Y-140394245D01*
X84047846Y-140407325D01*
X84038964Y-140429549D01*
X84035534Y-140444922D01*
X83948474Y-140444922D01*
X83951950Y-140418308D01*
X83972035Y-140359944D01*
X84002586Y-140314344D01*
X84043208Y-140282028D01*
X84093507Y-140263510D01*
X84117806Y-140259937D01*
X84176845Y-140260459D01*
G37*
G36*
X80376428Y-139476582D02*
G01*
X80408156Y-139485074D01*
X80432873Y-139497674D01*
X80457970Y-139518544D01*
X80467541Y-139527902D01*
X80491404Y-139554393D01*
X80508054Y-139580736D01*
X80518694Y-139610852D01*
X80524530Y-139648659D01*
X80526766Y-139698077D01*
X80526922Y-139721158D01*
X80525618Y-139776987D01*
X80520984Y-139819701D01*
X80511938Y-139853191D01*
X80497398Y-139881351D01*
X80476281Y-139908074D01*
X80474389Y-139910143D01*
X80431110Y-139944994D01*
X80379712Y-139966629D01*
X80324198Y-139973972D01*
X80268571Y-139965948D01*
X80267649Y-139965673D01*
X80228031Y-139948151D01*
X80191512Y-139922340D01*
X80170107Y-139899703D01*
X80151094Y-139868143D01*
X80138367Y-139831758D01*
X80131069Y-139786802D01*
X80128580Y-139734539D01*
X80223661Y-139734539D01*
X80226746Y-139775878D01*
X80232834Y-139810155D01*
X80238830Y-139826888D01*
X80262507Y-139855762D01*
X80294758Y-139872688D01*
X80331390Y-139877172D01*
X80368205Y-139868722D01*
X80401008Y-139846846D01*
X80401833Y-139846030D01*
X80414048Y-139832967D01*
X80421952Y-139820432D01*
X80426662Y-139804214D01*
X80429296Y-139780100D01*
X80430971Y-139743877D01*
X80431284Y-139734942D01*
X80431364Y-139682585D01*
X80426807Y-139643805D01*
X80416646Y-139615419D01*
X80399913Y-139594244D01*
X80385020Y-139582818D01*
X80351792Y-139570169D01*
X80314822Y-139570145D01*
X80279158Y-139581301D01*
X80249848Y-139602189D01*
X80233866Y-139626115D01*
X80227078Y-139653860D01*
X80223725Y-139691933D01*
X80223661Y-139734539D01*
X80128580Y-139734539D01*
X80128341Y-139729524D01*
X80128269Y-139716869D01*
X80128686Y-139674549D01*
X80130567Y-139644342D01*
X80134777Y-139621213D01*
X80142178Y-139600130D01*
X80151846Y-139579618D01*
X80184734Y-139531056D01*
X80227126Y-139496418D01*
X80277723Y-139476299D01*
X80335228Y-139471295D01*
X80376428Y-139476582D01*
G37*
G36*
X82516120Y-139477171D02*
G01*
X82549260Y-139484749D01*
X82582852Y-139496184D01*
X82612813Y-139509597D01*
X82635061Y-139523113D01*
X82645514Y-139534856D01*
X82645829Y-139536790D01*
X82640594Y-139547483D01*
X82627354Y-139565394D01*
X82619568Y-139574618D01*
X82593307Y-139604528D01*
X82557615Y-139585925D01*
X82521414Y-139572583D01*
X82477700Y-139564671D01*
X82468644Y-139563929D01*
X82438108Y-139562764D01*
X82418729Y-139565088D01*
X82404627Y-139572355D01*
X82393346Y-139582554D01*
X82374314Y-139607669D01*
X82371491Y-139628921D01*
X82385016Y-139646441D01*
X82415030Y-139660357D01*
X82461673Y-139670802D01*
X82492549Y-139674904D01*
X82552216Y-139684609D01*
X82596980Y-139699681D01*
X82628615Y-139721462D01*
X82648895Y-139751297D01*
X82659595Y-139790527D01*
X82661023Y-139802398D01*
X82658811Y-139850809D01*
X82643499Y-139893283D01*
X82616527Y-139926076D01*
X82612147Y-139929501D01*
X82564712Y-139954840D01*
X82508056Y-139969374D01*
X82446781Y-139972460D01*
X82385488Y-139963455D01*
X82379906Y-139961967D01*
X82315002Y-139936490D01*
X82269003Y-139905293D01*
X82248170Y-139887492D01*
X82279786Y-139855876D01*
X82299462Y-139837624D01*
X82312408Y-139830526D01*
X82322954Y-139832624D01*
X82326353Y-139834792D01*
X82381670Y-139865430D01*
X82437889Y-139880783D01*
X82492599Y-139880255D01*
X82502493Y-139878339D01*
X82539609Y-139865291D01*
X82561364Y-139845886D01*
X82568622Y-139819344D01*
X82568626Y-139818676D01*
X82564292Y-139798517D01*
X82549937Y-139783753D01*
X82523526Y-139773365D01*
X82483024Y-139766337D01*
X82459261Y-139763965D01*
X82395191Y-139754089D01*
X82345864Y-139736251D01*
X82310563Y-139709933D01*
X82288574Y-139674617D01*
X82279498Y-139633871D01*
X82279980Y-139598169D01*
X82290136Y-139565416D01*
X82295708Y-139553919D01*
X82324821Y-139515127D01*
X82365595Y-139488563D01*
X82417455Y-139474426D01*
X82479829Y-139472917D01*
X82516120Y-139477171D01*
G37*
G36*
X81362389Y-139485806D02*
G01*
X81408978Y-139510825D01*
X81447408Y-139549025D01*
X81473206Y-139598581D01*
X81486170Y-139659025D01*
X81487775Y-139692819D01*
X81487775Y-139759760D01*
X81333367Y-139759760D01*
X81276207Y-139759808D01*
X81234250Y-139760442D01*
X81205542Y-139762400D01*
X81188133Y-139766420D01*
X81180068Y-139773239D01*
X81179395Y-139783593D01*
X81184161Y-139798221D01*
X81190643Y-139813649D01*
X81213643Y-139849965D01*
X81246871Y-139872796D01*
X81269340Y-139879924D01*
X81303511Y-139881637D01*
X81341892Y-139874780D01*
X81376575Y-139861278D01*
X81393559Y-139849700D01*
X81403706Y-139842268D01*
X81413375Y-139842651D01*
X81427291Y-139852396D01*
X81442056Y-139865587D01*
X81474875Y-139895663D01*
X81454177Y-139917695D01*
X81418885Y-139944011D01*
X81372683Y-139962123D01*
X81320168Y-139971166D01*
X81265940Y-139970273D01*
X81222768Y-139961316D01*
X81181879Y-139940863D01*
X81144127Y-139908159D01*
X81114466Y-139868011D01*
X81103972Y-139846015D01*
X81093548Y-139805420D01*
X81088356Y-139755313D01*
X81088289Y-139701581D01*
X81092839Y-139654266D01*
X81181980Y-139654266D01*
X81182339Y-139672250D01*
X81183145Y-139673810D01*
X81193776Y-139677523D01*
X81218794Y-139680361D01*
X81255442Y-139682103D01*
X81290983Y-139682556D01*
X81335106Y-139682246D01*
X81364746Y-139681087D01*
X81382567Y-139678738D01*
X81391233Y-139674857D01*
X81393415Y-139669414D01*
X81387431Y-139642120D01*
X81372251Y-139611808D01*
X81352025Y-139586238D01*
X81346117Y-139581058D01*
X81312943Y-139565073D01*
X81275313Y-139562586D01*
X81239164Y-139573448D01*
X81223082Y-139584188D01*
X81204843Y-139604643D01*
X81190312Y-139629867D01*
X81181980Y-139654266D01*
X81092839Y-139654266D01*
X81093239Y-139650112D01*
X81103098Y-139606793D01*
X81108609Y-139592592D01*
X81133393Y-139548029D01*
X81161973Y-139516312D01*
X81196116Y-139494161D01*
X81250387Y-139475908D01*
X81307100Y-139473224D01*
X81362389Y-139485806D01*
G37*
G36*
X84748860Y-139483446D02*
G01*
X84774031Y-139494359D01*
X84817639Y-139525797D01*
X84851167Y-139569880D01*
X84873641Y-139624717D01*
X84884090Y-139688414D01*
X84884735Y-139709848D01*
X84884735Y-139759760D01*
X84730328Y-139759760D01*
X84675466Y-139759828D01*
X84635427Y-139760212D01*
X84607879Y-139761185D01*
X84590488Y-139763018D01*
X84580921Y-139765985D01*
X84576846Y-139770356D01*
X84575930Y-139776403D01*
X84575921Y-139777764D01*
X84582919Y-139809494D01*
X84600913Y-139840922D01*
X84625403Y-139864388D01*
X84627620Y-139865759D01*
X84666913Y-139879682D01*
X84711336Y-139880451D01*
X84755527Y-139868487D01*
X84782182Y-139853663D01*
X84795510Y-139845245D01*
X84806003Y-139844176D01*
X84819049Y-139851813D01*
X84837940Y-139867693D01*
X84871868Y-139897084D01*
X84842545Y-139922468D01*
X84797733Y-139950826D01*
X84744217Y-139968262D01*
X84687229Y-139973862D01*
X84631998Y-139966710D01*
X84616649Y-139961976D01*
X84565327Y-139935127D01*
X84525122Y-139895760D01*
X84506303Y-139865285D01*
X84497386Y-139845481D01*
X84491485Y-139826034D01*
X84487999Y-139802694D01*
X84486323Y-139771208D01*
X84485853Y-139727325D01*
X84485850Y-139721158D01*
X84486095Y-139676797D01*
X84486544Y-139665124D01*
X84575921Y-139665124D01*
X84576874Y-139672480D01*
X84581634Y-139677413D01*
X84593045Y-139680404D01*
X84613954Y-139681936D01*
X84647207Y-139682491D01*
X84678859Y-139682556D01*
X84781797Y-139682556D01*
X84781797Y-139660685D01*
X84774932Y-139628135D01*
X84757343Y-139596248D01*
X84737046Y-139575850D01*
X84709338Y-139565172D01*
X84674238Y-139563372D01*
X84639034Y-139570447D01*
X84626288Y-139575899D01*
X84603142Y-139595856D01*
X84585109Y-139625759D01*
X84576240Y-139658429D01*
X84575921Y-139665124D01*
X84486544Y-139665124D01*
X84487305Y-139645347D01*
X84490193Y-139622566D01*
X84495469Y-139604212D01*
X84503844Y-139586040D01*
X84510609Y-139573541D01*
X84545312Y-139527027D01*
X84588998Y-139494007D01*
X84639157Y-139475233D01*
X84693281Y-139471462D01*
X84748860Y-139483446D01*
G37*
G36*
X81324740Y-140262118D02*
G01*
X81355585Y-140264172D01*
X81378321Y-140268419D01*
X81397462Y-140275535D01*
X81407116Y-140280390D01*
X81427095Y-140291567D01*
X81442709Y-140302636D01*
X81454528Y-140315793D01*
X81463124Y-140333230D01*
X81469068Y-140357142D01*
X81472931Y-140389721D01*
X81475285Y-140433162D01*
X81476701Y-140489657D01*
X81477613Y-140551097D01*
X81480319Y-140754829D01*
X81432578Y-140754829D01*
X81405350Y-140754279D01*
X81391100Y-140751394D01*
X81385656Y-140744322D01*
X81384836Y-140733642D01*
X81384836Y-140712455D01*
X81353616Y-140733642D01*
X81333395Y-140745360D01*
X81312387Y-140751701D01*
X81284337Y-140754055D01*
X81261400Y-140754129D01*
X81226413Y-140752119D01*
X81194581Y-140747549D01*
X81173877Y-140741789D01*
X81135360Y-140716675D01*
X81107790Y-140682099D01*
X81091798Y-140641571D01*
X81088019Y-140598603D01*
X81088662Y-140595629D01*
X81178960Y-140595629D01*
X81184746Y-140627692D01*
X81202697Y-140649932D01*
X81233705Y-140662881D01*
X81278661Y-140667068D01*
X81298056Y-140666552D01*
X81330496Y-140663779D01*
X81350970Y-140658398D01*
X81364643Y-140648767D01*
X81368826Y-140644028D01*
X81381296Y-140616977D01*
X81384836Y-140581292D01*
X81384836Y-140538328D01*
X81304589Y-140541838D01*
X81251692Y-140546286D01*
X81214230Y-140554684D01*
X81190811Y-140567628D01*
X81180047Y-140585712D01*
X81178960Y-140595629D01*
X81088662Y-140595629D01*
X81097083Y-140556707D01*
X81119623Y-140519395D01*
X81131665Y-140507313D01*
X81158150Y-140488007D01*
X81188317Y-140474929D01*
X81225931Y-140467126D01*
X81274756Y-140463641D01*
X81305488Y-140463219D01*
X81384836Y-140463171D01*
X81384836Y-140420478D01*
X81383455Y-140393197D01*
X81377702Y-140376754D01*
X81365169Y-140364942D01*
X81362601Y-140363215D01*
X81328099Y-140349078D01*
X81286552Y-140344123D01*
X81245427Y-140348537D01*
X81216746Y-140359577D01*
X81185269Y-140378150D01*
X81152091Y-140355157D01*
X81132370Y-140339208D01*
X81120486Y-140325193D01*
X81118913Y-140320586D01*
X81125552Y-140309498D01*
X81142477Y-140294116D01*
X81154744Y-140285295D01*
X81172087Y-140274613D01*
X81188203Y-140267728D01*
X81207503Y-140263813D01*
X81234398Y-140262043D01*
X81273299Y-140261589D01*
X81281272Y-140261584D01*
X81324740Y-140262118D01*
G37*
G36*
X82817282Y-140418136D02*
G01*
X82836622Y-140477828D01*
X82851330Y-140523126D01*
X82862097Y-140555947D01*
X82869615Y-140578205D01*
X82874573Y-140591817D01*
X82877662Y-140598699D01*
X82879572Y-140600768D01*
X82880995Y-140599938D01*
X82882273Y-140598448D01*
X82886009Y-140589036D01*
X82893334Y-140566079D01*
X82903339Y-140532587D01*
X82915111Y-140491570D01*
X82920955Y-140470692D01*
X82934266Y-140422843D01*
X82947096Y-140376864D01*
X82958203Y-140337194D01*
X82966345Y-140308276D01*
X82968033Y-140302330D01*
X82980858Y-140257295D01*
X83027798Y-140257295D01*
X83057493Y-140259018D01*
X83072931Y-140263931D01*
X83074738Y-140267197D01*
X83072130Y-140278776D01*
X83064575Y-140305349D01*
X83052477Y-140345611D01*
X83036241Y-140398257D01*
X83016272Y-140461980D01*
X82992974Y-140535476D01*
X82966751Y-140617437D01*
X82952901Y-140660469D01*
X82923855Y-140750540D01*
X82881119Y-140753066D01*
X82838384Y-140755593D01*
X82787482Y-140583647D01*
X82772091Y-140532428D01*
X82758087Y-140487286D01*
X82746256Y-140450636D01*
X82737385Y-140424892D01*
X82732258Y-140412470D01*
X82731555Y-140411702D01*
X82727758Y-140419545D01*
X82720018Y-140441461D01*
X82709115Y-140475029D01*
X82695827Y-140517829D01*
X82680936Y-140567439D01*
X82676280Y-140583266D01*
X82626030Y-140754829D01*
X82584967Y-140754829D01*
X82560178Y-140753599D01*
X82543583Y-140750475D01*
X82540157Y-140748396D01*
X82536146Y-140737865D01*
X82527929Y-140713607D01*
X82516308Y-140678160D01*
X82502079Y-140634060D01*
X82486043Y-140583847D01*
X82468999Y-140530055D01*
X82451744Y-140475225D01*
X82435078Y-140421891D01*
X82419800Y-140372593D01*
X82406709Y-140329867D01*
X82396604Y-140296251D01*
X82390284Y-140274282D01*
X82388484Y-140266671D01*
X82395714Y-140260499D01*
X82418084Y-140258455D01*
X82436811Y-140259011D01*
X82485138Y-140261584D01*
X82522493Y-140398835D01*
X82535783Y-140447609D01*
X82548194Y-140493060D01*
X82558723Y-140531516D01*
X82566364Y-140559301D01*
X82569150Y-140569345D01*
X82576347Y-140588220D01*
X82583308Y-140595901D01*
X82585330Y-140595079D01*
X82589935Y-140584936D01*
X82598783Y-140561013D01*
X82610979Y-140525901D01*
X82625626Y-140482190D01*
X82641828Y-140432469D01*
X82645051Y-140422425D01*
X82697896Y-140257295D01*
X82731526Y-140257295D01*
X82765155Y-140257295D01*
X82817282Y-140418136D01*
G37*
G36*
X83330956Y-140262017D02*
G01*
X83360737Y-140263812D01*
X83382445Y-140267714D01*
X83400616Y-140274468D01*
X83415720Y-140282464D01*
X83436642Y-140295621D01*
X83453006Y-140309776D01*
X83465367Y-140327131D01*
X83474277Y-140349890D01*
X83480288Y-140380256D01*
X83483954Y-140420432D01*
X83485827Y-140472622D01*
X83486460Y-140539027D01*
X83486491Y-140564528D01*
X83486491Y-140754829D01*
X83439311Y-140754829D01*
X83412284Y-140754264D01*
X83398210Y-140751311D01*
X83392896Y-140744087D01*
X83392131Y-140733642D01*
X83392131Y-140712455D01*
X83360911Y-140733642D01*
X83340465Y-140745433D01*
X83319004Y-140751850D01*
X83290255Y-140754313D01*
X83268695Y-140754493D01*
X83233845Y-140752725D01*
X83202276Y-140748429D01*
X83181806Y-140742875D01*
X83143361Y-140717911D01*
X83115724Y-140683398D01*
X83099536Y-140642862D01*
X83095686Y-140602432D01*
X83187609Y-140602432D01*
X83187912Y-140607372D01*
X83192669Y-140630565D01*
X83205458Y-140645567D01*
X83220568Y-140654499D01*
X83248618Y-140663567D01*
X83283539Y-140667506D01*
X83319536Y-140666499D01*
X83350813Y-140660725D01*
X83371575Y-140650366D01*
X83372195Y-140649769D01*
X83381873Y-140631535D01*
X83388740Y-140601524D01*
X83390396Y-140586917D01*
X83394434Y-140538228D01*
X83313035Y-140541788D01*
X83261812Y-140545600D01*
X83225637Y-140552533D01*
X83202532Y-140563624D01*
X83190516Y-140579911D01*
X83187609Y-140602432D01*
X83095686Y-140602432D01*
X83095438Y-140599830D01*
X83104072Y-140557830D01*
X83126080Y-140520389D01*
X83138960Y-140507313D01*
X83165445Y-140488007D01*
X83195612Y-140474929D01*
X83233226Y-140467126D01*
X83282051Y-140463641D01*
X83312783Y-140463219D01*
X83392131Y-140463171D01*
X83392131Y-140424569D01*
X83386479Y-140388142D01*
X83368674Y-140363443D01*
X83337444Y-140348938D01*
X83327730Y-140346787D01*
X83289691Y-140343781D01*
X83252474Y-140347758D01*
X83222311Y-140357740D01*
X83211426Y-140365032D01*
X83200629Y-140373239D01*
X83190398Y-140373862D01*
X83175265Y-140365931D01*
X83160622Y-140356014D01*
X83140490Y-140339860D01*
X83128099Y-140325674D01*
X83126208Y-140320586D01*
X83132847Y-140309498D01*
X83149772Y-140294116D01*
X83162038Y-140285295D01*
X83179382Y-140274613D01*
X83195498Y-140267728D01*
X83214798Y-140263813D01*
X83241693Y-140262043D01*
X83280594Y-140261589D01*
X83288567Y-140261584D01*
X83330956Y-140262017D01*
G37*
G36*
X80886804Y-139477038D02*
G01*
X80929981Y-139493140D01*
X80957218Y-139513603D01*
X80976255Y-139534735D01*
X80990060Y-139556439D01*
X80999435Y-139581942D01*
X81005180Y-139614471D01*
X81008100Y-139657250D01*
X81008995Y-139713508D01*
X81009005Y-139721897D01*
X81008656Y-139772924D01*
X81007350Y-139810421D01*
X81004700Y-139838007D01*
X81000319Y-139859298D01*
X80993820Y-139877912D01*
X80991802Y-139882610D01*
X80965267Y-139923146D01*
X80928530Y-139952229D01*
X80884877Y-139969007D01*
X80837594Y-139972629D01*
X80789966Y-139962245D01*
X80754822Y-139943964D01*
X80735040Y-139931087D01*
X80721907Y-139923555D01*
X80719646Y-139922745D01*
X80718523Y-139930920D01*
X80717527Y-139953831D01*
X80716705Y-139989057D01*
X80716107Y-140034178D01*
X80715783Y-140086774D01*
X80715738Y-140115876D01*
X80715738Y-140309007D01*
X80750827Y-140285787D01*
X80797303Y-140264377D01*
X80846816Y-140257634D01*
X80895656Y-140264987D01*
X80940113Y-140285866D01*
X80976476Y-140319700D01*
X80977171Y-140320604D01*
X80989642Y-140340739D01*
X80999297Y-140365942D01*
X81006435Y-140398394D01*
X81011355Y-140440276D01*
X81014358Y-140493770D01*
X81015744Y-140561056D01*
X81015925Y-140602566D01*
X81015975Y-140754829D01*
X80964505Y-140754829D01*
X80913036Y-140754829D01*
X80913036Y-140583401D01*
X80913036Y-140411973D01*
X80889446Y-140385573D01*
X80859322Y-140362908D01*
X80824357Y-140353353D01*
X80788810Y-140356326D01*
X80756939Y-140371242D01*
X80733001Y-140397519D01*
X80727930Y-140407707D01*
X80723131Y-140424547D01*
X80719651Y-140450144D01*
X80717351Y-140486628D01*
X80716093Y-140536133D01*
X80715738Y-140595857D01*
X80715738Y-140754829D01*
X80668558Y-140754829D01*
X80621378Y-140754829D01*
X80621378Y-140115755D01*
X80621378Y-139715342D01*
X80720027Y-139715342D01*
X80721887Y-139770568D01*
X80728000Y-139811399D01*
X80739168Y-139840247D01*
X80756193Y-139859524D01*
X80770820Y-139868081D01*
X80806733Y-139876242D01*
X80844807Y-139872186D01*
X80878065Y-139857036D01*
X80887302Y-139849298D01*
X80896913Y-139838513D01*
X80903288Y-139826421D01*
X80907231Y-139809224D01*
X80909545Y-139783126D01*
X80911033Y-139744330D01*
X80911267Y-139735996D01*
X80911912Y-139691442D01*
X80910686Y-139659852D01*
X80907153Y-139637095D01*
X80900877Y-139619039D01*
X80898400Y-139613931D01*
X80875927Y-139586802D01*
X80845192Y-139571569D01*
X80810440Y-139568387D01*
X80775917Y-139577409D01*
X80745868Y-139598789D01*
X80738003Y-139608115D01*
X80729384Y-139622159D01*
X80724002Y-139638912D01*
X80721145Y-139662626D01*
X80720098Y-139697549D01*
X80720027Y-139715342D01*
X80621378Y-139715342D01*
X80621378Y-139476680D01*
X80668558Y-139476680D01*
X80695579Y-139477237D01*
X80709649Y-139480179D01*
X80714965Y-139487415D01*
X80715738Y-139498125D01*
X80717163Y-139514248D01*
X80723659Y-139518167D01*
X80738559Y-139510404D01*
X80748805Y-139503301D01*
X80791708Y-139481896D01*
X80839210Y-139473216D01*
X80886804Y-139477038D01*
G37*
G36*
X82757082Y-135773049D02*
G01*
X82760701Y-135786475D01*
X82766794Y-135814336D01*
X82774875Y-135854170D01*
X82784453Y-135903513D01*
X82795040Y-135959903D01*
X82805162Y-136015383D01*
X82816287Y-136075810D01*
X82826965Y-136131202D01*
X82836691Y-136179148D01*
X82844964Y-136217236D01*
X82851279Y-136243054D01*
X82854933Y-136253906D01*
X82865566Y-136261723D01*
X82889283Y-136274332D01*
X82923179Y-136290518D01*
X82964351Y-136309064D01*
X83009894Y-136328757D01*
X83056901Y-136348380D01*
X83102469Y-136366718D01*
X83143693Y-136382555D01*
X83177668Y-136394676D01*
X83201489Y-136401866D01*
X83211669Y-136403170D01*
X83221997Y-136397523D01*
X83244451Y-136383403D01*
X83277061Y-136362111D01*
X83317855Y-136334949D01*
X83364861Y-136303219D01*
X83416108Y-136268223D01*
X83417866Y-136267016D01*
X83469168Y-136231810D01*
X83516180Y-136199616D01*
X83556946Y-136171767D01*
X83589510Y-136149598D01*
X83611915Y-136134444D01*
X83622205Y-136127637D01*
X83622313Y-136127572D01*
X83630724Y-136130029D01*
X83648118Y-136142652D01*
X83675048Y-136165941D01*
X83712067Y-136200391D01*
X83759731Y-136246501D01*
X83808888Y-136295095D01*
X83853724Y-136339992D01*
X83894318Y-136381130D01*
X83929143Y-136416923D01*
X83956671Y-136445784D01*
X83975375Y-136466124D01*
X83983729Y-136476358D01*
X83984026Y-136477099D01*
X83979350Y-136485883D01*
X83966143Y-136506911D01*
X83945639Y-136538317D01*
X83919069Y-136578237D01*
X83887666Y-136624805D01*
X83852662Y-136676158D01*
X83846775Y-136684745D01*
X83811254Y-136736894D01*
X83779141Y-136784777D01*
X83751674Y-136826488D01*
X83730092Y-136860118D01*
X83715634Y-136883763D01*
X83709538Y-136895515D01*
X83709421Y-136896141D01*
X83712626Y-136907078D01*
X83721653Y-136931318D01*
X83735526Y-136966412D01*
X83753269Y-137009910D01*
X83773907Y-137059363D01*
X83782967Y-137080765D01*
X83807249Y-137137602D01*
X83826085Y-137180644D01*
X83840613Y-137211940D01*
X83851969Y-137233536D01*
X83861290Y-137247483D01*
X83869713Y-137255828D01*
X83878375Y-137260620D01*
X83883864Y-137262548D01*
X83899657Y-137266435D01*
X83929690Y-137272862D01*
X83971322Y-137281302D01*
X84021914Y-137291227D01*
X84078827Y-137302109D01*
X84125230Y-137310797D01*
X84183799Y-137321772D01*
X84236790Y-137331914D01*
X84281864Y-137340757D01*
X84316682Y-137347838D01*
X84338907Y-137352692D01*
X84346118Y-137354698D01*
X84347865Y-137364026D01*
X84349444Y-137388303D01*
X84350796Y-137425320D01*
X84351860Y-137472869D01*
X84352575Y-137528743D01*
X84352881Y-137590733D01*
X84352888Y-137601803D01*
X84352699Y-137677477D01*
X84352091Y-137737481D01*
X84350999Y-137783298D01*
X84349361Y-137816411D01*
X84347112Y-137838303D01*
X84344189Y-137850455D01*
X84342090Y-137853686D01*
X84331054Y-137857602D01*
X84305463Y-137864063D01*
X84267645Y-137872564D01*
X84219928Y-137882600D01*
X84164640Y-137893666D01*
X84105725Y-137904954D01*
X84045517Y-137916473D01*
X83990806Y-137927373D01*
X83943876Y-137937163D01*
X83907010Y-137945354D01*
X83882493Y-137951456D01*
X83872641Y-137954946D01*
X83867443Y-137964827D01*
X83856981Y-137988328D01*
X83842244Y-138023096D01*
X83824222Y-138066774D01*
X83803906Y-138117008D01*
X83792149Y-138146483D01*
X83768196Y-138207386D01*
X83750287Y-138254434D01*
X83737803Y-138289583D01*
X83730126Y-138314787D01*
X83726637Y-138332002D01*
X83726717Y-138343182D01*
X83728355Y-138348071D01*
X83735634Y-138359900D01*
X83751195Y-138383686D01*
X83773583Y-138417258D01*
X83801347Y-138458447D01*
X83833031Y-138505083D01*
X83857009Y-138540162D01*
X83890307Y-138588976D01*
X83920432Y-138633559D01*
X83945994Y-138671818D01*
X83965601Y-138701662D01*
X83977864Y-138720999D01*
X83981376Y-138727267D01*
X83976866Y-138736497D01*
X83961789Y-138755665D01*
X83938007Y-138782880D01*
X83907383Y-138816252D01*
X83871778Y-138853892D01*
X83833054Y-138893909D01*
X83793074Y-138934415D01*
X83753698Y-138973519D01*
X83716789Y-139009332D01*
X83684210Y-139039963D01*
X83657821Y-139063524D01*
X83639485Y-139078124D01*
X83631782Y-139082084D01*
X83621150Y-139077387D01*
X83598507Y-139064168D01*
X83565903Y-139043736D01*
X83525391Y-139017398D01*
X83479019Y-138986462D01*
X83436777Y-138957700D01*
X83386831Y-138923846D01*
X83340763Y-138893498D01*
X83300675Y-138867971D01*
X83268668Y-138848577D01*
X83246843Y-138836632D01*
X83237937Y-138833316D01*
X83223391Y-138837208D01*
X83197735Y-138847749D01*
X83164848Y-138863238D01*
X83135360Y-138878352D01*
X83101003Y-138895883D01*
X83072273Y-138909189D01*
X83052431Y-138916848D01*
X83044920Y-138917796D01*
X83040495Y-138908891D01*
X83030264Y-138885847D01*
X83014958Y-138850385D01*
X82995310Y-138804226D01*
X82972050Y-138749092D01*
X82945911Y-138686706D01*
X82917624Y-138618789D01*
X82908215Y-138596114D01*
X82866849Y-138496304D01*
X82831590Y-138411145D01*
X82801967Y-138339447D01*
X82777505Y-138280015D01*
X82757732Y-138231659D01*
X82742175Y-138193185D01*
X82730360Y-138163402D01*
X82721815Y-138141118D01*
X82716067Y-138125139D01*
X82712643Y-138114275D01*
X82711069Y-138107332D01*
X82710873Y-138103118D01*
X82711569Y-138100471D01*
X82719987Y-138091940D01*
X82739383Y-138076496D01*
X82766433Y-138056705D01*
X82784501Y-138044123D01*
X82858795Y-137983905D01*
X82919472Y-137915269D01*
X82966349Y-137839938D01*
X82999242Y-137759636D01*
X83017967Y-137676084D01*
X83022341Y-137591006D01*
X83012181Y-137506123D01*
X82987302Y-137423159D01*
X82947521Y-137343836D01*
X82892655Y-137269877D01*
X82869641Y-137245364D01*
X82797684Y-137183501D01*
X82720949Y-137137930D01*
X82638317Y-137108183D01*
X82548670Y-137093792D01*
X82504289Y-137092199D01*
X82411000Y-137099611D01*
X82325246Y-137122160D01*
X82245908Y-137160316D01*
X82171869Y-137214546D01*
X82138938Y-137245364D01*
X82078019Y-137317778D01*
X82032139Y-137396958D01*
X82001741Y-137481346D01*
X81987266Y-137569383D01*
X81989156Y-137659512D01*
X82001881Y-137728734D01*
X82033174Y-137819842D01*
X82078052Y-137900713D01*
X82137033Y-137972082D01*
X82210635Y-138034683D01*
X82224078Y-138044123D01*
X82254069Y-138065268D01*
X82278351Y-138083569D01*
X82293601Y-138096460D01*
X82297010Y-138100471D01*
X82297710Y-138103159D01*
X82297499Y-138107400D01*
X82295905Y-138114384D01*
X82292455Y-138125306D01*
X82286674Y-138141356D01*
X82278092Y-138163727D01*
X82266233Y-138193611D01*
X82250626Y-138232201D01*
X82230797Y-138280689D01*
X82206273Y-138340267D01*
X82176582Y-138412127D01*
X82141250Y-138497462D01*
X82100363Y-138596114D01*
X82071542Y-138665441D01*
X82044635Y-138729789D01*
X82020371Y-138787436D01*
X81999485Y-138836661D01*
X81982706Y-138875742D01*
X81970768Y-138902957D01*
X81964401Y-138916585D01*
X81963659Y-138917796D01*
X81954286Y-138916255D01*
X81933167Y-138907820D01*
X81903565Y-138893915D01*
X81873218Y-138878352D01*
X81837303Y-138860089D01*
X81805457Y-138845385D01*
X81781557Y-138835941D01*
X81770641Y-138833316D01*
X81758938Y-138838028D01*
X81735296Y-138851287D01*
X81701817Y-138871778D01*
X81660603Y-138898188D01*
X81613753Y-138929202D01*
X81571801Y-138957700D01*
X81522077Y-138991501D01*
X81476479Y-139021811D01*
X81437057Y-139047320D01*
X81405862Y-139066720D01*
X81384945Y-139078705D01*
X81376796Y-139082084D01*
X81367323Y-139076208D01*
X81347533Y-139059618D01*
X81319103Y-139033870D01*
X81283709Y-139000518D01*
X81243025Y-138961119D01*
X81198728Y-138917228D01*
X81192568Y-138911049D01*
X81134281Y-138851869D01*
X81088654Y-138804149D01*
X81055632Y-138767827D01*
X81035161Y-138742844D01*
X81027186Y-138729138D01*
X81027203Y-138727267D01*
X81033253Y-138716883D01*
X81047659Y-138694471D01*
X81069029Y-138662123D01*
X81095974Y-138621930D01*
X81127103Y-138575985D01*
X81151570Y-138540162D01*
X81185149Y-138490985D01*
X81215836Y-138445720D01*
X81242175Y-138406538D01*
X81262714Y-138375607D01*
X81276000Y-138355099D01*
X81280224Y-138348071D01*
X81282263Y-138339724D01*
X81281128Y-138326594D01*
X81276200Y-138306725D01*
X81266862Y-138278162D01*
X81252494Y-138238949D01*
X81232477Y-138187132D01*
X81216430Y-138146483D01*
X81195275Y-138093656D01*
X81175874Y-138046093D01*
X81159216Y-138006150D01*
X81146290Y-137976183D01*
X81138086Y-137958545D01*
X81135949Y-137954957D01*
X81125797Y-137951366D01*
X81101081Y-137945213D01*
X81064117Y-137936997D01*
X81017221Y-137927216D01*
X80962711Y-137916370D01*
X80908680Y-137906038D01*
X80848686Y-137894698D01*
X80793647Y-137884142D01*
X80746006Y-137874851D01*
X80708202Y-137867304D01*
X80682676Y-137861982D01*
X80672305Y-137859520D01*
X80667497Y-137857301D01*
X80663718Y-137852795D01*
X80660844Y-137844121D01*
X80658752Y-137829401D01*
X80657317Y-137806755D01*
X80656418Y-137774302D01*
X80655929Y-137730163D01*
X80655728Y-137672458D01*
X80655691Y-137606564D01*
X80655916Y-137543116D01*
X80656554Y-137485389D01*
X80657544Y-137435569D01*
X80658829Y-137395843D01*
X80660350Y-137368394D01*
X80662048Y-137355410D01*
X80662460Y-137354698D01*
X80672424Y-137352052D01*
X80696928Y-137346792D01*
X80733633Y-137339383D01*
X80780200Y-137330288D01*
X80834291Y-137319974D01*
X80883348Y-137310797D01*
X80943324Y-137299537D01*
X80999011Y-137288829D01*
X81047768Y-137279201D01*
X81086955Y-137271179D01*
X81113932Y-137265292D01*
X81124715Y-137262548D01*
X81134023Y-137258867D01*
X81142443Y-137252801D01*
X81151113Y-137242303D01*
X81161168Y-137225323D01*
X81173746Y-137199815D01*
X81189984Y-137163729D01*
X81211018Y-137115017D01*
X81225611Y-137080765D01*
X81247153Y-137029580D01*
X81266200Y-136983347D01*
X81281775Y-136944516D01*
X81292904Y-136915535D01*
X81298611Y-136898854D01*
X81299157Y-136896141D01*
X81294441Y-136886364D01*
X81281174Y-136864404D01*
X81260596Y-136832169D01*
X81233943Y-136791564D01*
X81202457Y-136744496D01*
X81167374Y-136692873D01*
X81161804Y-136684745D01*
X81126336Y-136632796D01*
X81094270Y-136585332D01*
X81066839Y-136544216D01*
X81045275Y-136511314D01*
X81030811Y-136488490D01*
X81024678Y-136477609D01*
X81024553Y-136477099D01*
X81030407Y-136469320D01*
X81046951Y-136451081D01*
X81072660Y-136423968D01*
X81106008Y-136389566D01*
X81145469Y-136349461D01*
X81189517Y-136305237D01*
X81199998Y-136294789D01*
X81375442Y-136120103D01*
X81399440Y-136135676D01*
X81412978Y-136144741D01*
X81438415Y-136162037D01*
X81473535Y-136186044D01*
X81516120Y-136215246D01*
X81563951Y-136248123D01*
X81603580Y-136275415D01*
X81653161Y-136309380D01*
X81698560Y-136340083D01*
X81737726Y-136366170D01*
X81768612Y-136386286D01*
X81789166Y-136399076D01*
X81796909Y-136403159D01*
X81809593Y-136401222D01*
X81834945Y-136393302D01*
X81870061Y-136380614D01*
X81912036Y-136364373D01*
X81957965Y-136345794D01*
X82004944Y-136326093D01*
X82050068Y-136306485D01*
X82090432Y-136288185D01*
X82123132Y-136272408D01*
X82145262Y-136260371D01*
X82153645Y-136253906D01*
X82157709Y-136241539D01*
X82164195Y-136214679D01*
X82172599Y-136175737D01*
X82182418Y-136127125D01*
X82193148Y-136071254D01*
X82203417Y-136015383D01*
X82214499Y-135954714D01*
X82225017Y-135898846D01*
X82234483Y-135850242D01*
X82242408Y-135811364D01*
X82248303Y-135784676D01*
X82251496Y-135773049D01*
X82259443Y-135753749D01*
X82504289Y-135753749D01*
X82749135Y-135753749D01*
X82757082Y-135773049D01*
G37*
%TO.C,kibuzzard-66701A06*%
G36*
X81113388Y-146857240D02*
G01*
X81113388Y-147029372D01*
X81036202Y-146985656D01*
X81000000Y-146897541D01*
X81019126Y-146829235D01*
X81069672Y-146805328D01*
X81113388Y-146857240D01*
G37*
G36*
X81120389Y-149457650D02*
G01*
X81202869Y-149517077D01*
X81257684Y-149601093D01*
X81275956Y-149694672D01*
X81275956Y-149827186D01*
X80759563Y-149827186D01*
X80759563Y-149696038D01*
X80778176Y-149598873D01*
X80834016Y-149515027D01*
X80917520Y-149457138D01*
X81019126Y-149437842D01*
X81120389Y-149457650D01*
G37*
G36*
X81878415Y-146895492D02*
G01*
X81878415Y-147751366D01*
X81878415Y-148364071D01*
X81878415Y-148988388D01*
X81878415Y-149698770D01*
X81878415Y-150068989D01*
X81878415Y-150410519D01*
X81000000Y-150996129D01*
X80121585Y-150410519D01*
X80121585Y-150068989D01*
X80121585Y-149947404D01*
X80516393Y-149947404D01*
X80525615Y-150017760D01*
X80553279Y-150053962D01*
X80588798Y-150066940D01*
X80636612Y-150068989D01*
X81396175Y-150068989D01*
X81483607Y-150052596D01*
X81509221Y-150016393D01*
X81517760Y-149948770D01*
X81517760Y-149698770D01*
X81508453Y-149598147D01*
X81480533Y-149505294D01*
X81433999Y-149420210D01*
X81368852Y-149342896D01*
X81290685Y-149278646D01*
X81205089Y-149232753D01*
X81112065Y-149205217D01*
X81011612Y-149196038D01*
X80911544Y-149205430D01*
X80819672Y-149233607D01*
X80735997Y-149280567D01*
X80660519Y-149346311D01*
X80598062Y-149424436D01*
X80553449Y-149508538D01*
X80526682Y-149598617D01*
X80517760Y-149694672D01*
X80516393Y-149947404D01*
X80121585Y-149947404D01*
X80121585Y-148719945D01*
X80792350Y-148719945D01*
X80815574Y-148794399D01*
X80852459Y-148849727D01*
X80875683Y-148869536D01*
X80830601Y-148884563D01*
X80807036Y-148920423D01*
X80799180Y-148987022D01*
X80808402Y-149057377D01*
X80836066Y-149093579D01*
X80870902Y-149105191D01*
X80918033Y-149107240D01*
X81397541Y-149107240D01*
X81437158Y-149107240D01*
X81495902Y-149082650D01*
X81519126Y-148988388D01*
X81510246Y-148918716D01*
X81483607Y-148881831D01*
X81447404Y-148868852D01*
X81400273Y-148866803D01*
X81113388Y-148866803D01*
X81050546Y-148834699D01*
X81024590Y-148765710D01*
X81035519Y-148706284D01*
X81046448Y-148659153D01*
X80994536Y-148584016D01*
X80898907Y-148558060D01*
X80835383Y-148575137D01*
X80807377Y-148618169D01*
X80795765Y-148665984D01*
X80792350Y-148719945D01*
X80121585Y-148719945D01*
X80121585Y-148362705D01*
X80463115Y-148362705D01*
X80472336Y-148433060D01*
X80500000Y-148469262D01*
X80534836Y-148480874D01*
X80581967Y-148482923D01*
X80629098Y-148480874D01*
X80665301Y-148468579D01*
X80693989Y-148432377D01*
X80702186Y-148363388D01*
X80702105Y-148362705D01*
X80800546Y-148362705D01*
X80800633Y-148363388D01*
X80809426Y-148433060D01*
X80836066Y-148469262D01*
X80872268Y-148480874D01*
X80919399Y-148482923D01*
X81398907Y-148482923D01*
X81446721Y-148480874D01*
X81482240Y-148469262D01*
X81509904Y-148433402D01*
X81519126Y-148364071D01*
X81510246Y-148294057D01*
X81483607Y-148258880D01*
X81447404Y-148245902D01*
X81400273Y-148243852D01*
X80922131Y-148243852D01*
X80882514Y-148245219D01*
X80823770Y-148269809D01*
X80800546Y-148362705D01*
X80702105Y-148362705D01*
X80693989Y-148294399D01*
X80665984Y-148258197D01*
X80630464Y-148245902D01*
X80583333Y-148243852D01*
X80536202Y-148245902D01*
X80500000Y-148258880D01*
X80472336Y-148293716D01*
X80463115Y-148362705D01*
X80121585Y-148362705D01*
X80121585Y-148015710D01*
X80785519Y-148015710D01*
X80815574Y-148097678D01*
X80859631Y-148150956D01*
X80907104Y-148168716D01*
X80980874Y-148141393D01*
X81467213Y-147857240D01*
X81482240Y-147844945D01*
X81511612Y-147807377D01*
X81525956Y-147751366D01*
X81507514Y-147691940D01*
X81465847Y-147648224D01*
X80980874Y-147365437D01*
X80905738Y-147338115D01*
X80859290Y-147355874D01*
X80815574Y-147409153D01*
X80786885Y-147484290D01*
X80798497Y-147528005D01*
X80821721Y-147551913D01*
X80859290Y-147574454D01*
X81203552Y-147753415D01*
X80859290Y-147932377D01*
X80803962Y-147968579D01*
X80785519Y-148015710D01*
X80121585Y-148015710D01*
X80121585Y-146894126D01*
X80784153Y-146894126D01*
X80795613Y-146999089D01*
X80829994Y-147091758D01*
X80887295Y-147172131D01*
X80963722Y-147233986D01*
X81055480Y-147271099D01*
X81162568Y-147283470D01*
X81250759Y-147273907D01*
X81333182Y-147245219D01*
X81409836Y-147197404D01*
X81461578Y-147144980D01*
X81502049Y-147075137D01*
X81528176Y-146990949D01*
X81536885Y-146895492D01*
X81529286Y-146768186D01*
X81506489Y-146677254D01*
X81468494Y-146622695D01*
X81415301Y-146604508D01*
X81352459Y-146622268D01*
X81290984Y-146697404D01*
X81306011Y-146752049D01*
X81311475Y-146767077D01*
X81323770Y-146820697D01*
X81327869Y-146891393D01*
X81301913Y-146981557D01*
X81237705Y-147026639D01*
X81237705Y-146702869D01*
X81197404Y-146610656D01*
X81146175Y-146579406D01*
X81073087Y-146568989D01*
X80992316Y-146580601D01*
X80918033Y-146615437D01*
X80859460Y-146666154D01*
X80817623Y-146729508D01*
X80792520Y-146805499D01*
X80784153Y-146894126D01*
X80121585Y-146894126D01*
X80121585Y-146092896D01*
X80792350Y-146092896D01*
X80815574Y-146167350D01*
X80852459Y-146222678D01*
X80875683Y-146242486D01*
X80830601Y-146257514D01*
X80807036Y-146293374D01*
X80799180Y-146359973D01*
X80808402Y-146430328D01*
X80836066Y-146466530D01*
X80870902Y-146478142D01*
X80918033Y-146480191D01*
X81397541Y-146480191D01*
X81437158Y-146480191D01*
X81495902Y-146455601D01*
X81519126Y-146361339D01*
X81510246Y-146291667D01*
X81483607Y-146254781D01*
X81447404Y-146241803D01*
X81400273Y-146239754D01*
X81113388Y-146239754D01*
X81050546Y-146207650D01*
X81024590Y-146138661D01*
X81035519Y-146079235D01*
X81046448Y-146032104D01*
X80994536Y-145956967D01*
X80898907Y-145931011D01*
X80835383Y-145948087D01*
X80807377Y-145991120D01*
X80795765Y-146038934D01*
X80792350Y-146092896D01*
X80121585Y-146092896D01*
X80121585Y-145931011D01*
X80121585Y-145589481D01*
X81000000Y-145003871D01*
X81878415Y-145589481D01*
X81878415Y-145931011D01*
X81878415Y-146361339D01*
X81878415Y-146895492D01*
G37*
%TO.C,G\u002A\u002A\u002A*%
G36*
X95569374Y-166374301D02*
G01*
X95569374Y-168691079D01*
X95045139Y-168691079D01*
X94520905Y-168691079D01*
X94520905Y-166374301D01*
X94520905Y-164057524D01*
X95045139Y-164057524D01*
X95569374Y-164057524D01*
X95569374Y-166374301D01*
G37*
G36*
X102926408Y-165818362D02*
G01*
X103099367Y-165824735D01*
X103205860Y-165835397D01*
X103246411Y-165850383D01*
X103246870Y-165852449D01*
X103231838Y-165895890D01*
X103191260Y-165984460D01*
X103131922Y-166103866D01*
X103082338Y-166199120D01*
X103034578Y-166289390D01*
X102985463Y-166382595D01*
X102931503Y-166485429D01*
X102869212Y-166604588D01*
X102795101Y-166746768D01*
X102705682Y-166918665D01*
X102597468Y-167126974D01*
X102466969Y-167378392D01*
X102310699Y-167679614D01*
X102215868Y-167862451D01*
X102124359Y-168038685D01*
X102034244Y-168211878D01*
X101954743Y-168364327D01*
X101895081Y-168478331D01*
X101885475Y-168496605D01*
X101783118Y-168691079D01*
X101435507Y-168691079D01*
X101087896Y-168691079D01*
X100751040Y-168040014D01*
X100501520Y-167557306D01*
X100283402Y-167134401D01*
X100096641Y-166771210D01*
X99941192Y-166467647D01*
X99817010Y-166223624D01*
X99724052Y-166039053D01*
X99662272Y-165913848D01*
X99631627Y-165847921D01*
X99627962Y-165837262D01*
X99659950Y-165830377D01*
X99748622Y-165825413D01*
X99883038Y-165822621D01*
X100052258Y-165822255D01*
X100206928Y-165823902D01*
X100785894Y-165833156D01*
X101106415Y-166526498D01*
X101198988Y-166726258D01*
X101281988Y-166904431D01*
X101351265Y-167052181D01*
X101402668Y-167160673D01*
X101432043Y-167221070D01*
X101437208Y-167230509D01*
X101443629Y-167227583D01*
X101457366Y-167207080D01*
X101481345Y-167163066D01*
X101518494Y-167089607D01*
X101571739Y-166980769D01*
X101644008Y-166830618D01*
X101738228Y-166633220D01*
X101857326Y-166382641D01*
X101905421Y-166281292D01*
X102126051Y-165816245D01*
X102686460Y-165816245D01*
X102926408Y-165818362D01*
G37*
G36*
X108762725Y-165740679D02*
G01*
X109058039Y-165808177D01*
X109225736Y-165868728D01*
X109336559Y-165915013D01*
X109178154Y-166212300D01*
X109108550Y-166341289D01*
X109049342Y-166447992D01*
X109008566Y-166518087D01*
X108996023Y-166536927D01*
X108954210Y-166541010D01*
X108868303Y-166524821D01*
X108765644Y-166494650D01*
X108559352Y-166440371D01*
X108392264Y-166428171D01*
X108268557Y-166457117D01*
X108192405Y-166526277D01*
X108167909Y-166628281D01*
X108167909Y-166744976D01*
X108515313Y-166838353D01*
X108744766Y-166904995D01*
X108919684Y-166968531D01*
X109052587Y-167034744D01*
X109155996Y-167109421D01*
X109206128Y-167157555D01*
X109321724Y-167322472D01*
X109386059Y-167522790D01*
X109402396Y-167721826D01*
X109372907Y-167987437D01*
X109285342Y-168219145D01*
X109141051Y-168415354D01*
X108941387Y-168574471D01*
X108687702Y-168694900D01*
X108538764Y-168740698D01*
X108365444Y-168770957D01*
X108152879Y-168786243D01*
X107927811Y-168786457D01*
X107716984Y-168771497D01*
X107559121Y-168744381D01*
X107448466Y-168711539D01*
X107314991Y-168664633D01*
X107176883Y-168610980D01*
X107052330Y-168557901D01*
X106959520Y-168512716D01*
X106920599Y-168487409D01*
X106926324Y-168451652D01*
X106955930Y-168370229D01*
X107002737Y-168257819D01*
X107060066Y-168129104D01*
X107121240Y-167998763D01*
X107179577Y-167881477D01*
X107228401Y-167791927D01*
X107255923Y-167750360D01*
X107287865Y-167759566D01*
X107365229Y-167793363D01*
X107473381Y-167845220D01*
X107513378Y-167865206D01*
X107728141Y-167955468D01*
X107928777Y-168005232D01*
X108104623Y-168013367D01*
X108245015Y-167978741D01*
X108294740Y-167948154D01*
X108372520Y-167868361D01*
X108391889Y-167796051D01*
X108350863Y-167729063D01*
X108247459Y-167665241D01*
X108079692Y-167602426D01*
X107940084Y-167562406D01*
X107707675Y-167495049D01*
X107530926Y-167428905D01*
X107398197Y-167358399D01*
X107297847Y-167277957D01*
X107259871Y-167236697D01*
X107161792Y-167070311D01*
X107113513Y-166874283D01*
X107113000Y-166662429D01*
X107158217Y-166448565D01*
X107247130Y-166246508D01*
X107377705Y-166070074D01*
X107440486Y-166010333D01*
X107642106Y-165878801D01*
X107887815Y-165785065D01*
X108164938Y-165730129D01*
X108460799Y-165714998D01*
X108762725Y-165740679D01*
G37*
G36*
X98008276Y-165734036D02*
G01*
X98148802Y-165739392D01*
X98258451Y-165751655D01*
X98355591Y-165773221D01*
X98458590Y-165806485D01*
X98502110Y-165822329D01*
X98813669Y-165969465D01*
X99074812Y-166161560D01*
X99286126Y-166399136D01*
X99436112Y-166656371D01*
X99483372Y-166762348D01*
X99514026Y-166851476D01*
X99531680Y-166944006D01*
X99539944Y-167060184D01*
X99542425Y-167220260D01*
X99542532Y-167253662D01*
X99541801Y-167420387D01*
X99536017Y-167540133D01*
X99521190Y-167633559D01*
X99493327Y-167721321D01*
X99448439Y-167824076D01*
X99421209Y-167881575D01*
X99291641Y-168106630D01*
X99138496Y-168297702D01*
X99124616Y-168311844D01*
X98945341Y-168459220D01*
X98724829Y-168592377D01*
X98489485Y-168697418D01*
X98275578Y-168758631D01*
X98111571Y-168779066D01*
X97912383Y-168788121D01*
X97702005Y-168786177D01*
X97504424Y-168773614D01*
X97343629Y-168750812D01*
X97311185Y-168743350D01*
X96993555Y-168630451D01*
X96717609Y-168467342D01*
X96487237Y-168257559D01*
X96306325Y-168004636D01*
X96179418Y-167714159D01*
X96125089Y-167455465D01*
X96115290Y-167174996D01*
X96116068Y-167168673D01*
X97203456Y-167168673D01*
X97206720Y-167348472D01*
X97261199Y-167515678D01*
X97358767Y-167661592D01*
X97491294Y-167777514D01*
X97650654Y-167854743D01*
X97828717Y-167884580D01*
X98017356Y-167858324D01*
X98061513Y-167843388D01*
X98183667Y-167772666D01*
X98303115Y-167663599D01*
X98392949Y-167541009D01*
X98396494Y-167534370D01*
X98423555Y-167448554D01*
X98440846Y-167328369D01*
X98444207Y-167251491D01*
X98417215Y-167045076D01*
X98334377Y-166875323D01*
X98192903Y-166736932D01*
X98162063Y-166715644D01*
X98075137Y-166664446D01*
X97996131Y-166638411D01*
X97897532Y-166631437D01*
X97797865Y-166634848D01*
X97597692Y-166667374D01*
X97442178Y-166745857D01*
X97320789Y-166877149D01*
X97259536Y-166984982D01*
X97203456Y-167168673D01*
X96116068Y-167168673D01*
X96149224Y-166899062D01*
X96210488Y-166691165D01*
X96345484Y-166439588D01*
X96538245Y-166212457D01*
X96781175Y-166016789D01*
X97066680Y-165859601D01*
X97147052Y-165825859D01*
X97251189Y-165787272D01*
X97343954Y-165761224D01*
X97443239Y-165745245D01*
X97566937Y-165736866D01*
X97732938Y-165733618D01*
X97818508Y-165733193D01*
X98008276Y-165734036D01*
G37*
G36*
X105282012Y-165739435D02*
G01*
X105574504Y-165811862D01*
X105836015Y-165927344D01*
X105954909Y-166003962D01*
X106155558Y-166192249D01*
X106316475Y-166429988D01*
X106433810Y-166709288D01*
X106503710Y-167022260D01*
X106517661Y-167157001D01*
X106537610Y-167439681D01*
X105463443Y-167439681D01*
X104389276Y-167439681D01*
X104412850Y-167565343D01*
X104473430Y-167764406D01*
X104571647Y-167908212D01*
X104710317Y-167999495D01*
X104892251Y-168040988D01*
X104903358Y-168041865D01*
X105070053Y-168046976D01*
X105193157Y-168030044D01*
X105294767Y-167985175D01*
X105390978Y-167911773D01*
X105507033Y-167809876D01*
X106000374Y-167819253D01*
X106493714Y-167828629D01*
X106396582Y-168033918D01*
X106245965Y-168285808D01*
X106055735Y-168484733D01*
X105821497Y-168634273D01*
X105538853Y-168738013D01*
X105529306Y-168740526D01*
X105360342Y-168770218D01*
X105150705Y-168786142D01*
X104924886Y-168788335D01*
X104707370Y-168776830D01*
X104522649Y-168751662D01*
X104467986Y-168739020D01*
X104176149Y-168628053D01*
X103917114Y-168464083D01*
X103699539Y-168254165D01*
X103532079Y-168005354D01*
X103507611Y-167956314D01*
X103464499Y-167862724D01*
X103434641Y-167784888D01*
X103415604Y-167707059D01*
X103404955Y-167613495D01*
X103400263Y-167488449D01*
X103399094Y-167316177D01*
X103399067Y-167253662D01*
X103399701Y-167063954D01*
X103403175Y-166926246D01*
X103411340Y-166830893D01*
X104434144Y-166830893D01*
X104990441Y-166830893D01*
X105175848Y-166829237D01*
X105335062Y-166824655D01*
X105456916Y-166817727D01*
X105530248Y-166809029D01*
X105546737Y-166802073D01*
X105524984Y-166745146D01*
X105470170Y-166661891D01*
X105397967Y-166572896D01*
X105324045Y-166498747D01*
X105302933Y-166481775D01*
X105183618Y-166426143D01*
X105031333Y-166398482D01*
X104875685Y-166401071D01*
X104746277Y-166436189D01*
X104741533Y-166438576D01*
X104584432Y-166551512D01*
X104482778Y-166696768D01*
X104467941Y-166733944D01*
X104434144Y-166830893D01*
X103411340Y-166830893D01*
X103411853Y-166824899D01*
X103428095Y-166744273D01*
X103454263Y-166668726D01*
X103492719Y-166582618D01*
X103504004Y-166558718D01*
X103649523Y-166305253D01*
X103825053Y-166104286D01*
X104041008Y-165946736D01*
X104307799Y-165823521D01*
X104373468Y-165800416D01*
X104666014Y-165731720D01*
X104974022Y-165712057D01*
X105282012Y-165739435D01*
G37*
G36*
X92067637Y-165757642D02*
G01*
X92321472Y-165816247D01*
X92550426Y-165926731D01*
X92632588Y-165985860D01*
X92762183Y-166090006D01*
X92762183Y-165953126D01*
X92762183Y-165816245D01*
X93269507Y-165816245D01*
X93776830Y-165816245D01*
X93776635Y-167312850D01*
X93776096Y-167711786D01*
X93774311Y-168049393D01*
X93770859Y-168331980D01*
X93765316Y-168565856D01*
X93757260Y-168757329D01*
X93746269Y-168912709D01*
X93731920Y-169038305D01*
X93713792Y-169140425D01*
X93691461Y-169225379D01*
X93664506Y-169299475D01*
X93640012Y-169353764D01*
X93516990Y-169540432D01*
X93340747Y-169715285D01*
X93125680Y-169868338D01*
X92886187Y-169989606D01*
X92636664Y-170069101D01*
X92596915Y-170077250D01*
X92436542Y-170097386D01*
X92239705Y-170107220D01*
X92028318Y-170107126D01*
X91824298Y-170097477D01*
X91649560Y-170078647D01*
X91553554Y-170059446D01*
X91267100Y-169953694D01*
X91011575Y-169802473D01*
X90797152Y-169613647D01*
X90634004Y-169395076D01*
X90592683Y-169316778D01*
X90538682Y-169203183D01*
X90505336Y-169120054D01*
X90499599Y-169062647D01*
X90528428Y-169026219D01*
X90598779Y-169006025D01*
X90717607Y-168997322D01*
X90891868Y-168995366D01*
X91063813Y-168995473D01*
X91631487Y-168995473D01*
X91689005Y-169092844D01*
X91789234Y-169200029D01*
X91931325Y-169269131D01*
X92099172Y-169296933D01*
X92276674Y-169280220D01*
X92407057Y-169236258D01*
X92568103Y-169131844D01*
X92679174Y-168987396D01*
X92742567Y-168798774D01*
X92760699Y-168598070D01*
X92756064Y-168482901D01*
X92736864Y-168430230D01*
X92698867Y-168435705D01*
X92648613Y-168482840D01*
X92588576Y-168531327D01*
X92490883Y-168593019D01*
X92402142Y-168641335D01*
X92170561Y-168723991D01*
X91911547Y-168757625D01*
X91645378Y-168741168D01*
X91443142Y-168691966D01*
X91147504Y-168563364D01*
X90905547Y-168393790D01*
X90716887Y-168182727D01*
X90581144Y-167929660D01*
X90497936Y-167634073D01*
X90469463Y-167377961D01*
X90466575Y-167283847D01*
X91546928Y-167283847D01*
X91568601Y-167449166D01*
X91591174Y-167516866D01*
X91692699Y-167674044D01*
X91837181Y-167788973D01*
X92011387Y-167857063D01*
X92202086Y-167873729D01*
X92396044Y-167834381D01*
X92447097Y-167813631D01*
X92589297Y-167716667D01*
X92683848Y-167605458D01*
X92738174Y-167511918D01*
X92767152Y-167422131D01*
X92778098Y-167307564D01*
X92779094Y-167233905D01*
X92775584Y-167104196D01*
X92760117Y-167016362D01*
X92725293Y-166944787D01*
X92676782Y-166879869D01*
X92540420Y-166741887D01*
X92394518Y-166662784D01*
X92220708Y-166634377D01*
X92129287Y-166635906D01*
X91994383Y-166650062D01*
X91897042Y-166680538D01*
X91807472Y-166737406D01*
X91791071Y-166750266D01*
X91698611Y-166839114D01*
X91621503Y-166938202D01*
X91603847Y-166968584D01*
X91558928Y-167112777D01*
X91546928Y-167283847D01*
X90466575Y-167283847D01*
X90464355Y-167211478D01*
X90470603Y-167083032D01*
X90491896Y-166963455D01*
X90531925Y-166823576D01*
X90544578Y-166784212D01*
X90664077Y-166500019D01*
X90827623Y-166258692D01*
X91046321Y-166044019D01*
X91058310Y-166034178D01*
X91284257Y-165889182D01*
X91536289Y-165794500D01*
X91801662Y-165750523D01*
X92067637Y-165757642D01*
G37*
%TO.C,kibuzzard-66701992*%
G36*
X112590574Y-168394194D02*
G01*
X112632923Y-168428005D01*
X112667077Y-168518169D01*
X112633607Y-168606967D01*
X112591940Y-168639754D01*
X112533880Y-168650683D01*
X112475649Y-168640096D01*
X112433470Y-168608333D01*
X112399317Y-168516803D01*
X112432104Y-168425273D01*
X112473429Y-168393511D01*
X112531831Y-168382923D01*
X112590574Y-168394194D01*
G37*
G36*
X112590574Y-170440642D02*
G01*
X112632923Y-170474454D01*
X112667077Y-170564617D01*
X112633607Y-170653415D01*
X112591940Y-170686202D01*
X112533880Y-170697131D01*
X112475649Y-170686544D01*
X112433470Y-170654781D01*
X112399317Y-170563251D01*
X112432104Y-170471721D01*
X112473429Y-170439959D01*
X112531831Y-170429372D01*
X112590574Y-170440642D01*
G37*
G36*
X112628825Y-171270560D02*
G01*
X112652049Y-171335109D01*
X112652049Y-171559153D01*
X112134290Y-171559153D01*
X112134290Y-171367896D01*
X112147951Y-171300273D01*
X112195765Y-171277732D01*
X112244945Y-171281831D01*
X112273634Y-171347404D01*
X112292760Y-171431421D01*
X112371311Y-171456694D01*
X112449863Y-171432104D01*
X112468989Y-171358333D01*
X112479918Y-171281831D01*
X112507240Y-171256557D01*
X112559153Y-171249044D01*
X112628825Y-171270560D01*
G37*
G36*
X113249044Y-168516803D02*
G01*
X113249044Y-169104235D01*
X113249044Y-169717623D01*
X113249044Y-170563251D01*
X113249044Y-171321448D01*
X113249044Y-171800956D01*
X113249044Y-172142486D01*
X112400000Y-172708515D01*
X111550956Y-172142486D01*
X111550956Y-171800956D01*
X111550956Y-171335109D01*
X111892486Y-171335109D01*
X111892486Y-171679372D01*
X111901708Y-171749727D01*
X111929372Y-171785929D01*
X111964891Y-171798907D01*
X112012705Y-171800956D01*
X112770902Y-171800956D01*
X112841940Y-171792760D01*
X112880874Y-171756557D01*
X112893852Y-171680738D01*
X112893852Y-171321448D01*
X112883607Y-171239253D01*
X112852869Y-171165710D01*
X112801639Y-171100820D01*
X112735231Y-171050046D01*
X112658956Y-171018852D01*
X112572814Y-171007240D01*
X112496160Y-171016196D01*
X112424666Y-171043063D01*
X112358333Y-171087842D01*
X112279440Y-171048907D01*
X112193033Y-171035929D01*
X112114101Y-171045795D01*
X112043063Y-171075395D01*
X111979918Y-171124727D01*
X111931345Y-171185747D01*
X111902201Y-171255874D01*
X111892486Y-171335109D01*
X111550956Y-171335109D01*
X111550956Y-170561885D01*
X112158880Y-170561885D01*
X112170719Y-170656603D01*
X112206239Y-170744035D01*
X112265437Y-170824180D01*
X112342851Y-170887933D01*
X112433015Y-170926184D01*
X112535929Y-170938934D01*
X112639583Y-170924419D01*
X112731967Y-170880874D01*
X112808128Y-170816154D01*
X112863115Y-170738115D01*
X112896414Y-170652049D01*
X112907514Y-170563251D01*
X112897097Y-170474624D01*
X112865847Y-170389071D01*
X112812568Y-170311373D01*
X112736066Y-170246311D01*
X112641633Y-170202254D01*
X112534563Y-170187568D01*
X112431724Y-170200167D01*
X112341788Y-170237963D01*
X112264754Y-170300956D01*
X112205935Y-170380343D01*
X112170644Y-170467319D01*
X112158880Y-170561885D01*
X111550956Y-170561885D01*
X111550956Y-169887022D01*
X111929372Y-169887022D01*
X111937910Y-169957036D01*
X111963525Y-169992213D01*
X111996311Y-170005191D01*
X112042760Y-170007240D01*
X112183470Y-170007240D01*
X112178005Y-170052322D01*
X112195765Y-170106967D01*
X112231967Y-170126093D01*
X112313251Y-170132923D01*
X112392486Y-170113115D01*
X112415710Y-170063251D01*
X112411612Y-170007240D01*
X112613798Y-170007240D01*
X112705935Y-169999044D01*
X112778339Y-169974454D01*
X112831011Y-169933470D01*
X112866682Y-169876700D01*
X112888084Y-169804751D01*
X112895219Y-169717623D01*
X112893169Y-169671858D01*
X112881557Y-169635656D01*
X112845697Y-169606967D01*
X112776366Y-169597404D01*
X112684836Y-169628825D01*
X112671858Y-169665027D01*
X112669809Y-169714208D01*
X112653415Y-169757923D01*
X112600137Y-169769536D01*
X112411612Y-169769536D01*
X112417077Y-169680738D01*
X112415027Y-169633607D01*
X112403415Y-169597404D01*
X112367555Y-169569740D01*
X112298224Y-169560519D01*
X112228210Y-169569399D01*
X112193033Y-169596038D01*
X112180055Y-169632240D01*
X112178005Y-169678689D01*
X112183470Y-169769536D01*
X112049590Y-169769536D01*
X111979918Y-169776366D01*
X111942008Y-169812910D01*
X111929372Y-169887022D01*
X111550956Y-169887022D01*
X111550956Y-169273634D01*
X111929372Y-169273634D01*
X111937910Y-169343648D01*
X111963525Y-169378825D01*
X111996311Y-169391803D01*
X112042760Y-169393852D01*
X112183470Y-169393852D01*
X112178005Y-169438934D01*
X112195765Y-169493579D01*
X112231967Y-169512705D01*
X112313251Y-169519536D01*
X112392486Y-169499727D01*
X112415710Y-169449863D01*
X112411612Y-169393852D01*
X112613798Y-169393852D01*
X112705935Y-169385656D01*
X112778339Y-169361066D01*
X112831011Y-169320082D01*
X112866682Y-169263312D01*
X112888084Y-169191363D01*
X112895219Y-169104235D01*
X112893169Y-169058470D01*
X112881557Y-169022268D01*
X112845697Y-168993579D01*
X112776366Y-168984016D01*
X112684836Y-169015437D01*
X112671858Y-169051639D01*
X112669809Y-169100820D01*
X112653415Y-169144536D01*
X112600137Y-169156148D01*
X112411612Y-169156148D01*
X112417077Y-169067350D01*
X112415027Y-169020219D01*
X112403415Y-168984016D01*
X112367555Y-168956352D01*
X112298224Y-168947131D01*
X112228210Y-168956011D01*
X112193033Y-168982650D01*
X112180055Y-169018852D01*
X112178005Y-169065301D01*
X112183470Y-169156148D01*
X112049590Y-169156148D01*
X111979918Y-169162978D01*
X111942008Y-169199522D01*
X111929372Y-169273634D01*
X111550956Y-169273634D01*
X111550956Y-168515437D01*
X112158880Y-168515437D01*
X112170719Y-168610155D01*
X112206239Y-168697587D01*
X112265437Y-168777732D01*
X112342851Y-168841485D01*
X112433015Y-168879736D01*
X112535929Y-168892486D01*
X112639583Y-168877971D01*
X112731967Y-168834426D01*
X112808128Y-168769706D01*
X112863115Y-168691667D01*
X112896414Y-168605601D01*
X112907514Y-168516803D01*
X112897097Y-168428176D01*
X112865847Y-168342623D01*
X112812568Y-168264925D01*
X112736066Y-168199863D01*
X112641633Y-168155806D01*
X112534563Y-168141120D01*
X112431724Y-168153719D01*
X112341788Y-168191515D01*
X112264754Y-168254508D01*
X112205935Y-168333895D01*
X112170644Y-168420871D01*
X112158880Y-168515437D01*
X111550956Y-168515437D01*
X111550956Y-167255874D01*
X112173907Y-167255874D01*
X112200546Y-167351503D01*
X112249727Y-167419126D01*
X112292760Y-167455328D01*
X112226730Y-167508758D01*
X112187113Y-167577975D01*
X112173907Y-167662978D01*
X112198156Y-167746653D01*
X112270902Y-167817350D01*
X112199863Y-167840574D01*
X112175273Y-167940301D01*
X112184495Y-168002801D01*
X112212158Y-168037295D01*
X112246995Y-168050273D01*
X112294126Y-168052322D01*
X112775000Y-168052322D01*
X112822814Y-168050273D01*
X112858333Y-168038661D01*
X112885997Y-168002801D01*
X112895219Y-167933470D01*
X112886339Y-167863798D01*
X112859699Y-167826913D01*
X112823497Y-167813934D01*
X112776366Y-167811885D01*
X112534563Y-167811885D01*
X112445423Y-167791393D01*
X112415710Y-167729918D01*
X112445423Y-167666393D01*
X112534563Y-167645219D01*
X112773634Y-167645219D01*
X112820765Y-167643169D01*
X112856967Y-167631557D01*
X112885656Y-167595697D01*
X112895219Y-167526366D01*
X112885997Y-167456011D01*
X112858333Y-167419809D01*
X112822814Y-167406831D01*
X112775000Y-167404781D01*
X112535929Y-167404781D01*
X112447131Y-167387705D01*
X112415710Y-167322814D01*
X112445423Y-167259290D01*
X112534563Y-167238115D01*
X112773634Y-167238115D01*
X112820765Y-167236066D01*
X112856967Y-167224454D01*
X112885656Y-167188593D01*
X112895219Y-167119262D01*
X112885997Y-167049249D01*
X112858333Y-167014071D01*
X112822131Y-167001093D01*
X112775000Y-166999044D01*
X112535929Y-166999044D01*
X112418822Y-167007240D01*
X112326154Y-167031831D01*
X112257923Y-167072814D01*
X112194911Y-167155464D01*
X112173907Y-167255874D01*
X111550956Y-167255874D01*
X111550956Y-166999044D01*
X111550956Y-166657514D01*
X112400000Y-166091485D01*
X113249044Y-166657514D01*
X113249044Y-166999044D01*
X113249044Y-167119262D01*
X113249044Y-168516803D01*
G37*
%TO.C,kibuzzard-66701A06*%
G36*
X113113388Y-146857240D02*
G01*
X113113388Y-147029372D01*
X113036202Y-146985656D01*
X113000000Y-146897541D01*
X113019126Y-146829235D01*
X113069672Y-146805328D01*
X113113388Y-146857240D01*
G37*
G36*
X113120389Y-149457650D02*
G01*
X113202869Y-149517077D01*
X113257684Y-149601093D01*
X113275956Y-149694672D01*
X113275956Y-149827186D01*
X112759563Y-149827186D01*
X112759563Y-149696038D01*
X112778176Y-149598873D01*
X112834016Y-149515027D01*
X112917520Y-149457138D01*
X113019126Y-149437842D01*
X113120389Y-149457650D01*
G37*
G36*
X113878415Y-146895492D02*
G01*
X113878415Y-147751366D01*
X113878415Y-148364071D01*
X113878415Y-148988388D01*
X113878415Y-149698770D01*
X113878415Y-150068989D01*
X113878415Y-150410519D01*
X113000000Y-150996129D01*
X112121585Y-150410519D01*
X112121585Y-150068989D01*
X112121585Y-149947404D01*
X112516393Y-149947404D01*
X112525615Y-150017760D01*
X112553279Y-150053962D01*
X112588798Y-150066940D01*
X112636612Y-150068989D01*
X113396175Y-150068989D01*
X113483607Y-150052596D01*
X113509221Y-150016393D01*
X113517760Y-149948770D01*
X113517760Y-149698770D01*
X113508453Y-149598147D01*
X113480533Y-149505294D01*
X113433999Y-149420210D01*
X113368852Y-149342896D01*
X113290685Y-149278646D01*
X113205089Y-149232753D01*
X113112065Y-149205217D01*
X113011612Y-149196038D01*
X112911544Y-149205430D01*
X112819672Y-149233607D01*
X112735997Y-149280567D01*
X112660519Y-149346311D01*
X112598062Y-149424436D01*
X112553449Y-149508538D01*
X112526682Y-149598617D01*
X112517760Y-149694672D01*
X112516393Y-149947404D01*
X112121585Y-149947404D01*
X112121585Y-148719945D01*
X112792350Y-148719945D01*
X112815574Y-148794399D01*
X112852459Y-148849727D01*
X112875683Y-148869536D01*
X112830601Y-148884563D01*
X112807036Y-148920423D01*
X112799180Y-148987022D01*
X112808402Y-149057377D01*
X112836066Y-149093579D01*
X112870902Y-149105191D01*
X112918033Y-149107240D01*
X113397541Y-149107240D01*
X113437158Y-149107240D01*
X113495902Y-149082650D01*
X113519126Y-148988388D01*
X113510246Y-148918716D01*
X113483607Y-148881831D01*
X113447404Y-148868852D01*
X113400273Y-148866803D01*
X113113388Y-148866803D01*
X113050546Y-148834699D01*
X113024590Y-148765710D01*
X113035519Y-148706284D01*
X113046448Y-148659153D01*
X112994536Y-148584016D01*
X112898907Y-148558060D01*
X112835383Y-148575137D01*
X112807377Y-148618169D01*
X112795765Y-148665984D01*
X112792350Y-148719945D01*
X112121585Y-148719945D01*
X112121585Y-148362705D01*
X112463115Y-148362705D01*
X112472336Y-148433060D01*
X112500000Y-148469262D01*
X112534836Y-148480874D01*
X112581967Y-148482923D01*
X112629098Y-148480874D01*
X112665301Y-148468579D01*
X112693989Y-148432377D01*
X112702186Y-148363388D01*
X112702105Y-148362705D01*
X112800546Y-148362705D01*
X112800633Y-148363388D01*
X112809426Y-148433060D01*
X112836066Y-148469262D01*
X112872268Y-148480874D01*
X112919399Y-148482923D01*
X113398907Y-148482923D01*
X113446721Y-148480874D01*
X113482240Y-148469262D01*
X113509904Y-148433402D01*
X113519126Y-148364071D01*
X113510246Y-148294057D01*
X113483607Y-148258880D01*
X113447404Y-148245902D01*
X113400273Y-148243852D01*
X112922131Y-148243852D01*
X112882514Y-148245219D01*
X112823770Y-148269809D01*
X112800546Y-148362705D01*
X112702105Y-148362705D01*
X112693989Y-148294399D01*
X112665984Y-148258197D01*
X112630464Y-148245902D01*
X112583333Y-148243852D01*
X112536202Y-148245902D01*
X112500000Y-148258880D01*
X112472336Y-148293716D01*
X112463115Y-148362705D01*
X112121585Y-148362705D01*
X112121585Y-148015710D01*
X112785519Y-148015710D01*
X112815574Y-148097678D01*
X112859631Y-148150956D01*
X112907104Y-148168716D01*
X112980874Y-148141393D01*
X113467213Y-147857240D01*
X113482240Y-147844945D01*
X113511612Y-147807377D01*
X113525956Y-147751366D01*
X113507514Y-147691940D01*
X113465847Y-147648224D01*
X112980874Y-147365437D01*
X112905738Y-147338115D01*
X112859290Y-147355874D01*
X112815574Y-147409153D01*
X112786885Y-147484290D01*
X112798497Y-147528005D01*
X112821721Y-147551913D01*
X112859290Y-147574454D01*
X113203552Y-147753415D01*
X112859290Y-147932377D01*
X112803962Y-147968579D01*
X112785519Y-148015710D01*
X112121585Y-148015710D01*
X112121585Y-146894126D01*
X112784153Y-146894126D01*
X112795613Y-146999089D01*
X112829994Y-147091758D01*
X112887295Y-147172131D01*
X112963722Y-147233986D01*
X113055480Y-147271099D01*
X113162568Y-147283470D01*
X113250759Y-147273907D01*
X113333182Y-147245219D01*
X113409836Y-147197404D01*
X113461578Y-147144980D01*
X113502049Y-147075137D01*
X113528176Y-146990949D01*
X113536885Y-146895492D01*
X113529286Y-146768186D01*
X113506489Y-146677254D01*
X113468494Y-146622695D01*
X113415301Y-146604508D01*
X113352459Y-146622268D01*
X113290984Y-146697404D01*
X113306011Y-146752049D01*
X113311475Y-146767077D01*
X113323770Y-146820697D01*
X113327869Y-146891393D01*
X113301913Y-146981557D01*
X113237705Y-147026639D01*
X113237705Y-146702869D01*
X113197404Y-146610656D01*
X113146175Y-146579406D01*
X113073087Y-146568989D01*
X112992316Y-146580601D01*
X112918033Y-146615437D01*
X112859460Y-146666154D01*
X112817623Y-146729508D01*
X112792520Y-146805499D01*
X112784153Y-146894126D01*
X112121585Y-146894126D01*
X112121585Y-146092896D01*
X112792350Y-146092896D01*
X112815574Y-146167350D01*
X112852459Y-146222678D01*
X112875683Y-146242486D01*
X112830601Y-146257514D01*
X112807036Y-146293374D01*
X112799180Y-146359973D01*
X112808402Y-146430328D01*
X112836066Y-146466530D01*
X112870902Y-146478142D01*
X112918033Y-146480191D01*
X113397541Y-146480191D01*
X113437158Y-146480191D01*
X113495902Y-146455601D01*
X113519126Y-146361339D01*
X113510246Y-146291667D01*
X113483607Y-146254781D01*
X113447404Y-146241803D01*
X113400273Y-146239754D01*
X113113388Y-146239754D01*
X113050546Y-146207650D01*
X113024590Y-146138661D01*
X113035519Y-146079235D01*
X113046448Y-146032104D01*
X112994536Y-145956967D01*
X112898907Y-145931011D01*
X112835383Y-145948087D01*
X112807377Y-145991120D01*
X112795765Y-146038934D01*
X112792350Y-146092896D01*
X112121585Y-146092896D01*
X112121585Y-145931011D01*
X112121585Y-145589481D01*
X113000000Y-145003871D01*
X113878415Y-145589481D01*
X113878415Y-145931011D01*
X113878415Y-146361339D01*
X113878415Y-146895492D01*
G37*
D12*
%TO.C,J2*%
X97595495Y-140183839D02*
X97595495Y-153033839D01*
X97595495Y-153033839D02*
X100145495Y-155883839D01*
X100145495Y-155883839D02*
X103295495Y-155883839D01*
X103295495Y-155883839D02*
X105895495Y-153033839D01*
X105895495Y-140183839D02*
X97595495Y-140183839D01*
X105895495Y-153033839D02*
X105895495Y-140183839D01*
D11*
%TO.C,kibuzzard-667019FA*%
G36*
X96938525Y-138793033D02*
G01*
X96978142Y-138883880D01*
X96938525Y-138974044D01*
X96857923Y-139004098D01*
X96685792Y-139004098D01*
X96685792Y-138762295D01*
X96856557Y-138762295D01*
X96938525Y-138793033D01*
G37*
G36*
X97754098Y-139058743D02*
G01*
X97785861Y-139100068D01*
X97796448Y-139158470D01*
X97785178Y-139217213D01*
X97751366Y-139259563D01*
X97661202Y-139293716D01*
X97572404Y-139260246D01*
X97539617Y-139218579D01*
X97528689Y-139160519D01*
X97539276Y-139102288D01*
X97571038Y-139060109D01*
X97662568Y-139025956D01*
X97754098Y-139058743D01*
G37*
G36*
X99631603Y-139000000D02*
G01*
X99047814Y-139875683D01*
X98706284Y-139875683D01*
X98385929Y-139875683D01*
X97662568Y-139875683D01*
X96564208Y-139875683D01*
X96214481Y-139875683D01*
X95905738Y-139875683D01*
X95293716Y-139875683D01*
X94952186Y-139875683D01*
X94368397Y-139000000D01*
X94607924Y-138640710D01*
X95293716Y-138640710D01*
X95293716Y-139400273D01*
X95301913Y-139469945D01*
X95338115Y-139508880D01*
X95413934Y-139521858D01*
X95905738Y-139521858D01*
X95976776Y-139508197D01*
X96000000Y-139478142D01*
X96006831Y-139420082D01*
X96000000Y-139362022D01*
X95972678Y-139329918D01*
X95907104Y-139319672D01*
X95535519Y-139319672D01*
X95535519Y-138922131D01*
X96095628Y-138922131D01*
X96095628Y-139401639D01*
X96097678Y-139449454D01*
X96109290Y-139484973D01*
X96145150Y-139512637D01*
X96214481Y-139521858D01*
X96284495Y-139512978D01*
X96319672Y-139486339D01*
X96332650Y-139450137D01*
X96334699Y-139403005D01*
X96334699Y-138924863D01*
X96333333Y-138885246D01*
X96308743Y-138826503D01*
X96215847Y-138803279D01*
X96215164Y-138803365D01*
X96145492Y-138812158D01*
X96109290Y-138838798D01*
X96097678Y-138875000D01*
X96095628Y-138922131D01*
X95535519Y-138922131D01*
X95535519Y-138642077D01*
X95530002Y-138584699D01*
X96095628Y-138584699D01*
X96097678Y-138631831D01*
X96109973Y-138668033D01*
X96146175Y-138696721D01*
X96215164Y-138704918D01*
X96284153Y-138696721D01*
X96320355Y-138668716D01*
X96330049Y-138640710D01*
X96443989Y-138640710D01*
X96443989Y-139398907D01*
X96452186Y-139469945D01*
X96488388Y-139507855D01*
X96564208Y-139520492D01*
X96634563Y-139511270D01*
X96670765Y-139483607D01*
X96683743Y-139447404D01*
X96685792Y-139400273D01*
X96685792Y-139245902D01*
X96856557Y-139245902D01*
X96936703Y-139236187D01*
X97015027Y-139207043D01*
X97085076Y-139162568D01*
X97286885Y-139162568D01*
X97301400Y-139266223D01*
X97344945Y-139358607D01*
X97409665Y-139434768D01*
X97487705Y-139489754D01*
X97573770Y-139523053D01*
X97662568Y-139534153D01*
X97751195Y-139523736D01*
X97836749Y-139492486D01*
X97914447Y-139439208D01*
X97942911Y-139405738D01*
X98106557Y-139405738D01*
X98132514Y-139457650D01*
X98214709Y-139500152D01*
X98299180Y-139525653D01*
X98385929Y-139534153D01*
X98468883Y-139529447D01*
X98541970Y-139515331D01*
X98605191Y-139491803D01*
X98679645Y-139417350D01*
X98699624Y-139362193D01*
X98706284Y-139296448D01*
X98699624Y-139231387D01*
X98679645Y-139178279D01*
X98613388Y-139112022D01*
X98527322Y-139077869D01*
X98438525Y-139060109D01*
X98368852Y-139040642D01*
X98345628Y-139006831D01*
X98426230Y-138976776D01*
X98522541Y-138997268D01*
X98583333Y-139017760D01*
X98644809Y-138969945D01*
X98674863Y-138889344D01*
X98627049Y-138834699D01*
X98525956Y-138799863D01*
X98427596Y-138788251D01*
X98320874Y-138796885D01*
X98237869Y-138822787D01*
X98178579Y-138865956D01*
X98143005Y-138926393D01*
X98131148Y-139004098D01*
X98137637Y-139071551D01*
X98157104Y-139129098D01*
X98222678Y-139206284D01*
X98307719Y-139248292D01*
X98393443Y-139270492D01*
X98462090Y-139286202D01*
X98484973Y-139308743D01*
X98464139Y-139333333D01*
X98401639Y-139341530D01*
X98297814Y-139308060D01*
X98206967Y-139274590D01*
X98158470Y-139297814D01*
X98119536Y-139360997D01*
X98106557Y-139405738D01*
X97942911Y-139405738D01*
X97979508Y-139362705D01*
X98023566Y-139268272D01*
X98038251Y-139161202D01*
X98025653Y-139058364D01*
X97987857Y-138968427D01*
X97924863Y-138891393D01*
X97845477Y-138832574D01*
X97758500Y-138797283D01*
X97663934Y-138785519D01*
X97569217Y-138797359D01*
X97481785Y-138832878D01*
X97401639Y-138892077D01*
X97337887Y-138969490D01*
X97299636Y-139059654D01*
X97286885Y-139162568D01*
X97085076Y-139162568D01*
X97091530Y-139158470D01*
X97142418Y-139108777D01*
X97183060Y-139044399D01*
X97209699Y-138968408D01*
X97218579Y-138883880D01*
X97209699Y-138799180D01*
X97183060Y-138722678D01*
X97142418Y-138657787D01*
X97091530Y-138607923D01*
X97015179Y-138559350D01*
X96937310Y-138530206D01*
X96857923Y-138520492D01*
X96565574Y-138520492D01*
X96495219Y-138529713D01*
X96459016Y-138557377D01*
X96446038Y-138593579D01*
X96443989Y-138640710D01*
X96330049Y-138640710D01*
X96332650Y-138633197D01*
X96334699Y-138586066D01*
X96332650Y-138538934D01*
X96319672Y-138502732D01*
X96284836Y-138475068D01*
X96215847Y-138465847D01*
X96145492Y-138475068D01*
X96109290Y-138502732D01*
X96097678Y-138537568D01*
X96095628Y-138584699D01*
X95530002Y-138584699D01*
X95528689Y-138571038D01*
X95491462Y-138533128D01*
X95415301Y-138520492D01*
X95344945Y-138529713D01*
X95308743Y-138557377D01*
X95295765Y-138593579D01*
X95293716Y-138640710D01*
X94607924Y-138640710D01*
X94952186Y-138124317D01*
X95293716Y-138124317D01*
X98706284Y-138124317D01*
X99047814Y-138124317D01*
X99631603Y-139000000D01*
G37*
%TO.C,kibuzzard-66701961*%
G36*
X98012978Y-161296858D02*
G01*
X98045765Y-161378142D01*
X98010929Y-161458743D01*
X97926230Y-161494262D01*
X97844262Y-161458060D01*
X97812158Y-161378142D01*
X97843579Y-161297541D01*
X97927596Y-161260656D01*
X98012978Y-161296858D01*
G37*
G36*
X97200137Y-161282514D02*
G01*
X97231899Y-161323839D01*
X97242486Y-161382240D01*
X97231216Y-161440984D01*
X97197404Y-161483333D01*
X97107240Y-161517486D01*
X97018443Y-161484016D01*
X96985656Y-161442350D01*
X96974727Y-161384290D01*
X96985314Y-161326059D01*
X97017077Y-161283880D01*
X97108607Y-161249727D01*
X97200137Y-161282514D01*
G37*
G36*
X99286658Y-161400000D02*
G01*
X98620902Y-162398634D01*
X98279372Y-162398634D01*
X97690574Y-162398634D01*
X97108607Y-162398634D01*
X96198770Y-162398634D01*
X95720628Y-162398634D01*
X95379098Y-162398634D01*
X94713342Y-161400000D01*
X95085837Y-160841257D01*
X95720628Y-160841257D01*
X95727459Y-160898634D01*
X95754781Y-160930738D01*
X95818989Y-160940984D01*
X96081284Y-160940984D01*
X96081284Y-161626776D01*
X96083333Y-161673907D01*
X96095628Y-161709426D01*
X96131148Y-161737432D01*
X96198770Y-161745628D01*
X96267077Y-161737432D01*
X96303279Y-161709426D01*
X96315574Y-161674590D01*
X96317623Y-161628142D01*
X96317623Y-161386339D01*
X96732923Y-161386339D01*
X96747439Y-161489993D01*
X96790984Y-161582377D01*
X96855704Y-161658538D01*
X96933743Y-161713525D01*
X97019809Y-161746824D01*
X97108607Y-161757923D01*
X97197234Y-161747507D01*
X97282787Y-161716257D01*
X97360485Y-161662978D01*
X97425546Y-161586475D01*
X97469604Y-161492042D01*
X97484290Y-161384973D01*
X97471691Y-161282134D01*
X97433895Y-161192198D01*
X97393803Y-161143169D01*
X97573087Y-161143169D01*
X97573087Y-161940984D01*
X97575137Y-161987432D01*
X97587432Y-162021585D01*
X97622951Y-162048907D01*
X97690574Y-162057104D01*
X97757514Y-162048907D01*
X97792350Y-162020902D01*
X97804645Y-161986066D01*
X97806694Y-161939617D01*
X97806694Y-161663661D01*
X97872609Y-161710792D01*
X97969262Y-161726503D01*
X98042502Y-161714815D01*
X98112857Y-161679751D01*
X98180328Y-161621311D01*
X98235352Y-161547389D01*
X98268367Y-161465877D01*
X98279372Y-161376776D01*
X98268291Y-161287675D01*
X98235049Y-161206163D01*
X98179645Y-161132240D01*
X98111870Y-161073801D01*
X98041515Y-161038737D01*
X97968579Y-161027049D01*
X97872097Y-161044809D01*
X97805328Y-161098087D01*
X97775956Y-161044126D01*
X97678279Y-161025683D01*
X97619194Y-161034904D01*
X97586749Y-161062568D01*
X97575137Y-161096721D01*
X97573087Y-161143169D01*
X97393803Y-161143169D01*
X97370902Y-161115164D01*
X97291515Y-161056345D01*
X97204539Y-161021053D01*
X97109973Y-161009290D01*
X97015255Y-161021129D01*
X96927823Y-161056648D01*
X96847678Y-161115847D01*
X96783925Y-161193260D01*
X96745674Y-161283424D01*
X96732923Y-161386339D01*
X96317623Y-161386339D01*
X96317623Y-160940984D01*
X96578552Y-160940984D01*
X96648224Y-160928689D01*
X96671448Y-160899317D01*
X96678279Y-160842623D01*
X96671448Y-160785246D01*
X96644126Y-160753142D01*
X96579918Y-160742896D01*
X95820355Y-160742896D01*
X95750683Y-160755191D01*
X95727459Y-160784563D01*
X95720628Y-160841257D01*
X95085837Y-160841257D01*
X95379098Y-160401366D01*
X95720628Y-160401366D01*
X98279372Y-160401366D01*
X98620902Y-160401366D01*
X99286658Y-161400000D01*
G37*
D12*
%TO.C,J1*%
X88095495Y-140183839D02*
X88095495Y-153033839D01*
X88095495Y-153033839D02*
X90645495Y-155883839D01*
X90645495Y-155883839D02*
X93795495Y-155883839D01*
X93795495Y-155883839D02*
X96395495Y-153033839D01*
X96395495Y-140183839D02*
X88095495Y-140183839D01*
X96395495Y-153033839D02*
X96395495Y-140183839D01*
%TD*%
%LPC*%
D11*
G36*
X110750000Y-148508839D02*
G01*
X110750000Y-148508839D01*
G75*
G02*
X111000000Y-148758800I100J-249861D01*
G01*
X111000000Y-152258839D01*
G75*
G02*
X110750000Y-152508839I-249900J-61D01*
G01*
X107511500Y-152508839D01*
X107511500Y-152508831D01*
G75*
G02*
X107020267Y-152468357I-100J3000231D01*
G01*
X107020267Y-152468357D01*
G75*
G03*
X106069303Y-152463319I-491167J-2959543D01*
G01*
X106048898Y-152466484D01*
G75*
G03*
X104663155Y-153623980I268202J-1729316D01*
G01*
X104663155Y-153623980D01*
G75*
G02*
X103245500Y-154633839I-1417555J489980D01*
G01*
X100245500Y-154633839D01*
G75*
G02*
X99558310Y-154467172I0J1500039D01*
G01*
X99558310Y-154467172D01*
G75*
G03*
X98183942Y-154133839I-1374410J-2667028D01*
G01*
X97000000Y-154133839D01*
X95816100Y-154133839D01*
X95816058Y-149133839D01*
X97000000Y-149133839D01*
X98183900Y-149133839D01*
G75*
G03*
X99558310Y-148800505I0J3000339D01*
G01*
X99558310Y-148800505D01*
G75*
G02*
X100245500Y-148633839I687190J-1333395D01*
G01*
X103249372Y-148633839D01*
G75*
G02*
X104112626Y-148909876I-3872J-1499961D01*
G01*
X104112626Y-148909876D01*
G75*
G03*
X105411350Y-149430168I1734374J2448076D01*
G01*
X105411350Y-149430168D01*
G75*
G03*
X107149339Y-148626322I254050J1731468D01*
G01*
X107149339Y-148626322D01*
G75*
G02*
X107361300Y-148508839I211961J-132478D01*
G01*
X110750000Y-148508839D01*
G37*
G36*
X86638672Y-148508839D02*
G01*
X86638672Y-148508839D01*
G75*
G02*
X86850661Y-148626322I28J-249961D01*
G01*
X86850661Y-148626322D01*
G75*
G03*
X88588650Y-149430168I1483939J927622D01*
G01*
X88588650Y-149430168D01*
G75*
G03*
X89887374Y-148909876I-435450J2967968D01*
G01*
X89887374Y-148909876D01*
G75*
G02*
X90754500Y-148633839I867226J-1224124D01*
G01*
X93747152Y-148633839D01*
G75*
G02*
X94441690Y-148800505I7248J-1500361D01*
G01*
X94441690Y-148800505D01*
G75*
G03*
X95816058Y-149133839I1374410J2666905D01*
G01*
X95816100Y-154133839D01*
G75*
G03*
X94441690Y-154467172I100J-3000661D01*
G01*
X94441690Y-154467172D01*
G75*
G02*
X93754500Y-154633839I-687190J1333372D01*
G01*
X90754600Y-154633839D01*
X90754600Y-154633834D01*
G75*
G02*
X89336845Y-153623980I100J1500234D01*
G01*
X89336845Y-153623980D01*
G75*
G03*
X87957767Y-152467518I-1653945J-571820D01*
G01*
X87930739Y-152463325D01*
G75*
G03*
X86979733Y-152468357I-459839J-2964675D01*
G01*
X86979733Y-152468357D01*
G75*
G02*
X86488600Y-152508839I-490933J2957057D01*
G01*
X83255577Y-152508839D01*
G75*
G02*
X83000000Y-152258700I-5377J250139D01*
G01*
X83000000Y-148764423D01*
G75*
G02*
X83250100Y-148508839I250100J5423D01*
G01*
X86638672Y-148508839D01*
G37*
D13*
%TO.C,H3*%
X81600000Y-167000000D03*
X82302944Y-165302944D03*
X82302944Y-168697056D03*
X84000000Y-164600000D03*
D14*
X84000000Y-167000000D03*
D13*
X84000000Y-169400000D03*
X85697056Y-165302944D03*
X85697056Y-168697056D03*
X86400000Y-167000000D03*
%TD*%
D15*
%TO.C,J2*%
X101745495Y-151633839D03*
D16*
X101745495Y-144433839D03*
%TD*%
D13*
%TO.C,H4*%
X110600000Y-158000000D03*
X111302944Y-156302944D03*
X111302944Y-159697056D03*
X113000000Y-155600000D03*
D14*
X113000000Y-158000000D03*
D13*
X113000000Y-160400000D03*
X114697056Y-156302944D03*
X114697056Y-159697056D03*
X115400000Y-158000000D03*
%TD*%
D15*
%TO.C,J1*%
X92245495Y-151633839D03*
D16*
X92245495Y-144433839D03*
%TD*%
D17*
%TO.C,J5*%
X114500000Y-165750000D03*
D18*
X114500000Y-168250000D03*
X114500000Y-170750000D03*
D17*
X114500000Y-173250000D03*
%TD*%
D19*
%TO.C,J3*%
X85000000Y-150508839D03*
D20*
X85000000Y-145508839D03*
%TD*%
D21*
%TO.C,J6*%
X100750000Y-158750000D03*
D22*
X98250000Y-158750000D03*
X95750000Y-158750000D03*
D21*
X93250000Y-158750000D03*
%TD*%
D19*
%TO.C,J4*%
X109000000Y-150508839D03*
D20*
X109000000Y-145508839D03*
%TD*%
%LPD*%
M02*
