%TF.GenerationSoftware,KiCad,Pcbnew,8.0.3*%
%TF.CreationDate,2024-06-17T19:23:31+08:00*%
%TF.ProjectId,power,706f7765-722e-46b6-9963-61645f706362,1.1.0*%
%TF.SameCoordinates,Original*%
%TF.FileFunction,Legend,Top*%
%TF.FilePolarity,Positive*%
%FSLAX46Y46*%
G04 Gerber Fmt 4.6, Leading zero omitted, Abs format (unit mm)*
G04 Created by KiCad (PCBNEW 8.0.3) date 2024-06-17 19:23:31*
%MOMM*%
%LPD*%
G01*
G04 APERTURE LIST*
G04 Aperture macros list*
%AMRoundRect*
0 Rectangle with rounded corners*
0 $1 Rounding radius*
0 $2 $3 $4 $5 $6 $7 $8 $9 X,Y pos of 4 corners*
0 Add a 4 corners polygon primitive as box body*
4,1,4,$2,$3,$4,$5,$6,$7,$8,$9,$2,$3,0*
0 Add four circle primitives for the rounded corners*
1,1,$1+$1,$2,$3*
1,1,$1+$1,$4,$5*
1,1,$1+$1,$6,$7*
1,1,$1+$1,$8,$9*
0 Add four rect primitives between the rounded corners*
20,1,$1+$1,$2,$3,$4,$5,0*
20,1,$1+$1,$4,$5,$6,$7,0*
20,1,$1+$1,$6,$7,$8,$9,0*
20,1,$1+$1,$8,$9,$2,$3,0*%
G04 Aperture macros list end*
%ADD10C,0.150000*%
%ADD11C,0.000000*%
%ADD12C,0.120000*%
%ADD13C,0.800000*%
%ADD14C,6.400000*%
%ADD15RoundRect,1.500000X1.500000X-1.500000X1.500000X1.500000X-1.500000X1.500000X-1.500000X-1.500000X0*%
%ADD16C,6.000000*%
%ADD17RoundRect,0.250000X-0.725000X0.600000X-0.725000X-0.600000X0.725000X-0.600000X0.725000X0.600000X0*%
%ADD18O,1.950000X1.700000*%
%ADD19RoundRect,0.250000X1.650000X-1.650000X1.650000X1.650000X-1.650000X1.650000X-1.650000X-1.650000X0*%
%ADD20C,4.000000*%
%ADD21RoundRect,0.250000X0.600000X0.725000X-0.600000X0.725000X-0.600000X-0.725000X0.600000X-0.725000X0*%
%ADD22O,1.700000X1.950000*%
G04 APERTURE END LIST*
D10*
X101416666Y-138204819D02*
X101416666Y-138919104D01*
X101416666Y-138919104D02*
X101369047Y-139061961D01*
X101369047Y-139061961D02*
X101273809Y-139157200D01*
X101273809Y-139157200D02*
X101130952Y-139204819D01*
X101130952Y-139204819D02*
X101035714Y-139204819D01*
X101845238Y-138300057D02*
X101892857Y-138252438D01*
X101892857Y-138252438D02*
X101988095Y-138204819D01*
X101988095Y-138204819D02*
X102226190Y-138204819D01*
X102226190Y-138204819D02*
X102321428Y-138252438D01*
X102321428Y-138252438D02*
X102369047Y-138300057D01*
X102369047Y-138300057D02*
X102416666Y-138395295D01*
X102416666Y-138395295D02*
X102416666Y-138490533D01*
X102416666Y-138490533D02*
X102369047Y-138633390D01*
X102369047Y-138633390D02*
X101797619Y-139204819D01*
X101797619Y-139204819D02*
X102416666Y-139204819D01*
X91916666Y-138204819D02*
X91916666Y-138919104D01*
X91916666Y-138919104D02*
X91869047Y-139061961D01*
X91869047Y-139061961D02*
X91773809Y-139157200D01*
X91773809Y-139157200D02*
X91630952Y-139204819D01*
X91630952Y-139204819D02*
X91535714Y-139204819D01*
X92916666Y-139204819D02*
X92345238Y-139204819D01*
X92630952Y-139204819D02*
X92630952Y-138204819D01*
X92630952Y-138204819D02*
X92535714Y-138347676D01*
X92535714Y-138347676D02*
X92440476Y-138442914D01*
X92440476Y-138442914D02*
X92345238Y-138490533D01*
D11*
%TO.C,G\u002A\u002A\u002A*%
G36*
X95569374Y-166374301D02*
G01*
X95569374Y-168691079D01*
X95045139Y-168691079D01*
X94520905Y-168691079D01*
X94520905Y-166374301D01*
X94520905Y-164057524D01*
X95045139Y-164057524D01*
X95569374Y-164057524D01*
X95569374Y-166374301D01*
G37*
G36*
X102926408Y-165818362D02*
G01*
X103099367Y-165824735D01*
X103205860Y-165835397D01*
X103246411Y-165850383D01*
X103246870Y-165852449D01*
X103231838Y-165895890D01*
X103191260Y-165984460D01*
X103131922Y-166103866D01*
X103082338Y-166199120D01*
X103034578Y-166289390D01*
X102985463Y-166382595D01*
X102931503Y-166485429D01*
X102869212Y-166604588D01*
X102795101Y-166746768D01*
X102705682Y-166918665D01*
X102597468Y-167126974D01*
X102466969Y-167378392D01*
X102310699Y-167679614D01*
X102215868Y-167862451D01*
X102124359Y-168038685D01*
X102034244Y-168211878D01*
X101954743Y-168364327D01*
X101895081Y-168478331D01*
X101885475Y-168496605D01*
X101783118Y-168691079D01*
X101435507Y-168691079D01*
X101087896Y-168691079D01*
X100751040Y-168040014D01*
X100501520Y-167557306D01*
X100283402Y-167134401D01*
X100096641Y-166771210D01*
X99941192Y-166467647D01*
X99817010Y-166223624D01*
X99724052Y-166039053D01*
X99662272Y-165913848D01*
X99631627Y-165847921D01*
X99627962Y-165837262D01*
X99659950Y-165830377D01*
X99748622Y-165825413D01*
X99883038Y-165822621D01*
X100052258Y-165822255D01*
X100206928Y-165823902D01*
X100785894Y-165833156D01*
X101106415Y-166526498D01*
X101198988Y-166726258D01*
X101281988Y-166904431D01*
X101351265Y-167052181D01*
X101402668Y-167160673D01*
X101432043Y-167221070D01*
X101437208Y-167230509D01*
X101443629Y-167227583D01*
X101457366Y-167207080D01*
X101481345Y-167163066D01*
X101518494Y-167089607D01*
X101571739Y-166980769D01*
X101644008Y-166830618D01*
X101738228Y-166633220D01*
X101857326Y-166382641D01*
X101905421Y-166281292D01*
X102126051Y-165816245D01*
X102686460Y-165816245D01*
X102926408Y-165818362D01*
G37*
G36*
X108762725Y-165740679D02*
G01*
X109058039Y-165808177D01*
X109225736Y-165868728D01*
X109336559Y-165915013D01*
X109178154Y-166212300D01*
X109108550Y-166341289D01*
X109049342Y-166447992D01*
X109008566Y-166518087D01*
X108996023Y-166536927D01*
X108954210Y-166541010D01*
X108868303Y-166524821D01*
X108765644Y-166494650D01*
X108559352Y-166440371D01*
X108392264Y-166428171D01*
X108268557Y-166457117D01*
X108192405Y-166526277D01*
X108167909Y-166628281D01*
X108167909Y-166744976D01*
X108515313Y-166838353D01*
X108744766Y-166904995D01*
X108919684Y-166968531D01*
X109052587Y-167034744D01*
X109155996Y-167109421D01*
X109206128Y-167157555D01*
X109321724Y-167322472D01*
X109386059Y-167522790D01*
X109402396Y-167721826D01*
X109372907Y-167987437D01*
X109285342Y-168219145D01*
X109141051Y-168415354D01*
X108941387Y-168574471D01*
X108687702Y-168694900D01*
X108538764Y-168740698D01*
X108365444Y-168770957D01*
X108152879Y-168786243D01*
X107927811Y-168786457D01*
X107716984Y-168771497D01*
X107559121Y-168744381D01*
X107448466Y-168711539D01*
X107314991Y-168664633D01*
X107176883Y-168610980D01*
X107052330Y-168557901D01*
X106959520Y-168512716D01*
X106920599Y-168487409D01*
X106926324Y-168451652D01*
X106955930Y-168370229D01*
X107002737Y-168257819D01*
X107060066Y-168129104D01*
X107121240Y-167998763D01*
X107179577Y-167881477D01*
X107228401Y-167791927D01*
X107255923Y-167750360D01*
X107287865Y-167759566D01*
X107365229Y-167793363D01*
X107473381Y-167845220D01*
X107513378Y-167865206D01*
X107728141Y-167955468D01*
X107928777Y-168005232D01*
X108104623Y-168013367D01*
X108245015Y-167978741D01*
X108294740Y-167948154D01*
X108372520Y-167868361D01*
X108391889Y-167796051D01*
X108350863Y-167729063D01*
X108247459Y-167665241D01*
X108079692Y-167602426D01*
X107940084Y-167562406D01*
X107707675Y-167495049D01*
X107530926Y-167428905D01*
X107398197Y-167358399D01*
X107297847Y-167277957D01*
X107259871Y-167236697D01*
X107161792Y-167070311D01*
X107113513Y-166874283D01*
X107113000Y-166662429D01*
X107158217Y-166448565D01*
X107247130Y-166246508D01*
X107377705Y-166070074D01*
X107440486Y-166010333D01*
X107642106Y-165878801D01*
X107887815Y-165785065D01*
X108164938Y-165730129D01*
X108460799Y-165714998D01*
X108762725Y-165740679D01*
G37*
G36*
X98008276Y-165734036D02*
G01*
X98148802Y-165739392D01*
X98258451Y-165751655D01*
X98355591Y-165773221D01*
X98458590Y-165806485D01*
X98502110Y-165822329D01*
X98813669Y-165969465D01*
X99074812Y-166161560D01*
X99286126Y-166399136D01*
X99436112Y-166656371D01*
X99483372Y-166762348D01*
X99514026Y-166851476D01*
X99531680Y-166944006D01*
X99539944Y-167060184D01*
X99542425Y-167220260D01*
X99542532Y-167253662D01*
X99541801Y-167420387D01*
X99536017Y-167540133D01*
X99521190Y-167633559D01*
X99493327Y-167721321D01*
X99448439Y-167824076D01*
X99421209Y-167881575D01*
X99291641Y-168106630D01*
X99138496Y-168297702D01*
X99124616Y-168311844D01*
X98945341Y-168459220D01*
X98724829Y-168592377D01*
X98489485Y-168697418D01*
X98275578Y-168758631D01*
X98111571Y-168779066D01*
X97912383Y-168788121D01*
X97702005Y-168786177D01*
X97504424Y-168773614D01*
X97343629Y-168750812D01*
X97311185Y-168743350D01*
X96993555Y-168630451D01*
X96717609Y-168467342D01*
X96487237Y-168257559D01*
X96306325Y-168004636D01*
X96179418Y-167714159D01*
X96125089Y-167455465D01*
X96115290Y-167174996D01*
X96116068Y-167168673D01*
X97203456Y-167168673D01*
X97206720Y-167348472D01*
X97261199Y-167515678D01*
X97358767Y-167661592D01*
X97491294Y-167777514D01*
X97650654Y-167854743D01*
X97828717Y-167884580D01*
X98017356Y-167858324D01*
X98061513Y-167843388D01*
X98183667Y-167772666D01*
X98303115Y-167663599D01*
X98392949Y-167541009D01*
X98396494Y-167534370D01*
X98423555Y-167448554D01*
X98440846Y-167328369D01*
X98444207Y-167251491D01*
X98417215Y-167045076D01*
X98334377Y-166875323D01*
X98192903Y-166736932D01*
X98162063Y-166715644D01*
X98075137Y-166664446D01*
X97996131Y-166638411D01*
X97897532Y-166631437D01*
X97797865Y-166634848D01*
X97597692Y-166667374D01*
X97442178Y-166745857D01*
X97320789Y-166877149D01*
X97259536Y-166984982D01*
X97203456Y-167168673D01*
X96116068Y-167168673D01*
X96149224Y-166899062D01*
X96210488Y-166691165D01*
X96345484Y-166439588D01*
X96538245Y-166212457D01*
X96781175Y-166016789D01*
X97066680Y-165859601D01*
X97147052Y-165825859D01*
X97251189Y-165787272D01*
X97343954Y-165761224D01*
X97443239Y-165745245D01*
X97566937Y-165736866D01*
X97732938Y-165733618D01*
X97818508Y-165733193D01*
X98008276Y-165734036D01*
G37*
G36*
X105282012Y-165739435D02*
G01*
X105574504Y-165811862D01*
X105836015Y-165927344D01*
X105954909Y-166003962D01*
X106155558Y-166192249D01*
X106316475Y-166429988D01*
X106433810Y-166709288D01*
X106503710Y-167022260D01*
X106517661Y-167157001D01*
X106537610Y-167439681D01*
X105463443Y-167439681D01*
X104389276Y-167439681D01*
X104412850Y-167565343D01*
X104473430Y-167764406D01*
X104571647Y-167908212D01*
X104710317Y-167999495D01*
X104892251Y-168040988D01*
X104903358Y-168041865D01*
X105070053Y-168046976D01*
X105193157Y-168030044D01*
X105294767Y-167985175D01*
X105390978Y-167911773D01*
X105507033Y-167809876D01*
X106000374Y-167819253D01*
X106493714Y-167828629D01*
X106396582Y-168033918D01*
X106245965Y-168285808D01*
X106055735Y-168484733D01*
X105821497Y-168634273D01*
X105538853Y-168738013D01*
X105529306Y-168740526D01*
X105360342Y-168770218D01*
X105150705Y-168786142D01*
X104924886Y-168788335D01*
X104707370Y-168776830D01*
X104522649Y-168751662D01*
X104467986Y-168739020D01*
X104176149Y-168628053D01*
X103917114Y-168464083D01*
X103699539Y-168254165D01*
X103532079Y-168005354D01*
X103507611Y-167956314D01*
X103464499Y-167862724D01*
X103434641Y-167784888D01*
X103415604Y-167707059D01*
X103404955Y-167613495D01*
X103400263Y-167488449D01*
X103399094Y-167316177D01*
X103399067Y-167253662D01*
X103399701Y-167063954D01*
X103403175Y-166926246D01*
X103411340Y-166830893D01*
X104434144Y-166830893D01*
X104990441Y-166830893D01*
X105175848Y-166829237D01*
X105335062Y-166824655D01*
X105456916Y-166817727D01*
X105530248Y-166809029D01*
X105546737Y-166802073D01*
X105524984Y-166745146D01*
X105470170Y-166661891D01*
X105397967Y-166572896D01*
X105324045Y-166498747D01*
X105302933Y-166481775D01*
X105183618Y-166426143D01*
X105031333Y-166398482D01*
X104875685Y-166401071D01*
X104746277Y-166436189D01*
X104741533Y-166438576D01*
X104584432Y-166551512D01*
X104482778Y-166696768D01*
X104467941Y-166733944D01*
X104434144Y-166830893D01*
X103411340Y-166830893D01*
X103411853Y-166824899D01*
X103428095Y-166744273D01*
X103454263Y-166668726D01*
X103492719Y-166582618D01*
X103504004Y-166558718D01*
X103649523Y-166305253D01*
X103825053Y-166104286D01*
X104041008Y-165946736D01*
X104307799Y-165823521D01*
X104373468Y-165800416D01*
X104666014Y-165731720D01*
X104974022Y-165712057D01*
X105282012Y-165739435D01*
G37*
G36*
X92067637Y-165757642D02*
G01*
X92321472Y-165816247D01*
X92550426Y-165926731D01*
X92632588Y-165985860D01*
X92762183Y-166090006D01*
X92762183Y-165953126D01*
X92762183Y-165816245D01*
X93269507Y-165816245D01*
X93776830Y-165816245D01*
X93776635Y-167312850D01*
X93776096Y-167711786D01*
X93774311Y-168049393D01*
X93770859Y-168331980D01*
X93765316Y-168565856D01*
X93757260Y-168757329D01*
X93746269Y-168912709D01*
X93731920Y-169038305D01*
X93713792Y-169140425D01*
X93691461Y-169225379D01*
X93664506Y-169299475D01*
X93640012Y-169353764D01*
X93516990Y-169540432D01*
X93340747Y-169715285D01*
X93125680Y-169868338D01*
X92886187Y-169989606D01*
X92636664Y-170069101D01*
X92596915Y-170077250D01*
X92436542Y-170097386D01*
X92239705Y-170107220D01*
X92028318Y-170107126D01*
X91824298Y-170097477D01*
X91649560Y-170078647D01*
X91553554Y-170059446D01*
X91267100Y-169953694D01*
X91011575Y-169802473D01*
X90797152Y-169613647D01*
X90634004Y-169395076D01*
X90592683Y-169316778D01*
X90538682Y-169203183D01*
X90505336Y-169120054D01*
X90499599Y-169062647D01*
X90528428Y-169026219D01*
X90598779Y-169006025D01*
X90717607Y-168997322D01*
X90891868Y-168995366D01*
X91063813Y-168995473D01*
X91631487Y-168995473D01*
X91689005Y-169092844D01*
X91789234Y-169200029D01*
X91931325Y-169269131D01*
X92099172Y-169296933D01*
X92276674Y-169280220D01*
X92407057Y-169236258D01*
X92568103Y-169131844D01*
X92679174Y-168987396D01*
X92742567Y-168798774D01*
X92760699Y-168598070D01*
X92756064Y-168482901D01*
X92736864Y-168430230D01*
X92698867Y-168435705D01*
X92648613Y-168482840D01*
X92588576Y-168531327D01*
X92490883Y-168593019D01*
X92402142Y-168641335D01*
X92170561Y-168723991D01*
X91911547Y-168757625D01*
X91645378Y-168741168D01*
X91443142Y-168691966D01*
X91147504Y-168563364D01*
X90905547Y-168393790D01*
X90716887Y-168182727D01*
X90581144Y-167929660D01*
X90497936Y-167634073D01*
X90469463Y-167377961D01*
X90466575Y-167283847D01*
X91546928Y-167283847D01*
X91568601Y-167449166D01*
X91591174Y-167516866D01*
X91692699Y-167674044D01*
X91837181Y-167788973D01*
X92011387Y-167857063D01*
X92202086Y-167873729D01*
X92396044Y-167834381D01*
X92447097Y-167813631D01*
X92589297Y-167716667D01*
X92683848Y-167605458D01*
X92738174Y-167511918D01*
X92767152Y-167422131D01*
X92778098Y-167307564D01*
X92779094Y-167233905D01*
X92775584Y-167104196D01*
X92760117Y-167016362D01*
X92725293Y-166944787D01*
X92676782Y-166879869D01*
X92540420Y-166741887D01*
X92394518Y-166662784D01*
X92220708Y-166634377D01*
X92129287Y-166635906D01*
X91994383Y-166650062D01*
X91897042Y-166680538D01*
X91807472Y-166737406D01*
X91791071Y-166750266D01*
X91698611Y-166839114D01*
X91621503Y-166938202D01*
X91603847Y-166968584D01*
X91558928Y-167112777D01*
X91546928Y-167283847D01*
X90466575Y-167283847D01*
X90464355Y-167211478D01*
X90470603Y-167083032D01*
X90491896Y-166963455D01*
X90531925Y-166823576D01*
X90544578Y-166784212D01*
X90664077Y-166500019D01*
X90827623Y-166258692D01*
X91046321Y-166044019D01*
X91058310Y-166034178D01*
X91284257Y-165889182D01*
X91536289Y-165794500D01*
X91801662Y-165750523D01*
X92067637Y-165757642D01*
G37*
%TO.C,kibuzzard-66701A06*%
G36*
X113113388Y-146857240D02*
G01*
X113113388Y-147029372D01*
X113036202Y-146985656D01*
X113000000Y-146897541D01*
X113019126Y-146829235D01*
X113069672Y-146805328D01*
X113113388Y-146857240D01*
G37*
G36*
X113120389Y-149457650D02*
G01*
X113202869Y-149517077D01*
X113257684Y-149601093D01*
X113275956Y-149694672D01*
X113275956Y-149827186D01*
X112759563Y-149827186D01*
X112759563Y-149696038D01*
X112778176Y-149598873D01*
X112834016Y-149515027D01*
X112917520Y-149457138D01*
X113019126Y-149437842D01*
X113120389Y-149457650D01*
G37*
G36*
X113878415Y-146895492D02*
G01*
X113878415Y-147751366D01*
X113878415Y-148364071D01*
X113878415Y-148988388D01*
X113878415Y-149698770D01*
X113878415Y-150068989D01*
X113878415Y-150410519D01*
X113000000Y-150996129D01*
X112121585Y-150410519D01*
X112121585Y-150068989D01*
X112121585Y-149947404D01*
X112516393Y-149947404D01*
X112525615Y-150017760D01*
X112553279Y-150053962D01*
X112588798Y-150066940D01*
X112636612Y-150068989D01*
X113396175Y-150068989D01*
X113483607Y-150052596D01*
X113509221Y-150016393D01*
X113517760Y-149948770D01*
X113517760Y-149698770D01*
X113508453Y-149598147D01*
X113480533Y-149505294D01*
X113433999Y-149420210D01*
X113368852Y-149342896D01*
X113290685Y-149278646D01*
X113205089Y-149232753D01*
X113112065Y-149205217D01*
X113011612Y-149196038D01*
X112911544Y-149205430D01*
X112819672Y-149233607D01*
X112735997Y-149280567D01*
X112660519Y-149346311D01*
X112598062Y-149424436D01*
X112553449Y-149508538D01*
X112526682Y-149598617D01*
X112517760Y-149694672D01*
X112516393Y-149947404D01*
X112121585Y-149947404D01*
X112121585Y-148719945D01*
X112792350Y-148719945D01*
X112815574Y-148794399D01*
X112852459Y-148849727D01*
X112875683Y-148869536D01*
X112830601Y-148884563D01*
X112807036Y-148920423D01*
X112799180Y-148987022D01*
X112808402Y-149057377D01*
X112836066Y-149093579D01*
X112870902Y-149105191D01*
X112918033Y-149107240D01*
X113397541Y-149107240D01*
X113437158Y-149107240D01*
X113495902Y-149082650D01*
X113519126Y-148988388D01*
X113510246Y-148918716D01*
X113483607Y-148881831D01*
X113447404Y-148868852D01*
X113400273Y-148866803D01*
X113113388Y-148866803D01*
X113050546Y-148834699D01*
X113024590Y-148765710D01*
X113035519Y-148706284D01*
X113046448Y-148659153D01*
X112994536Y-148584016D01*
X112898907Y-148558060D01*
X112835383Y-148575137D01*
X112807377Y-148618169D01*
X112795765Y-148665984D01*
X112792350Y-148719945D01*
X112121585Y-148719945D01*
X112121585Y-148362705D01*
X112463115Y-148362705D01*
X112472336Y-148433060D01*
X112500000Y-148469262D01*
X112534836Y-148480874D01*
X112581967Y-148482923D01*
X112629098Y-148480874D01*
X112665301Y-148468579D01*
X112693989Y-148432377D01*
X112702186Y-148363388D01*
X112702105Y-148362705D01*
X112800546Y-148362705D01*
X112800633Y-148363388D01*
X112809426Y-148433060D01*
X112836066Y-148469262D01*
X112872268Y-148480874D01*
X112919399Y-148482923D01*
X113398907Y-148482923D01*
X113446721Y-148480874D01*
X113482240Y-148469262D01*
X113509904Y-148433402D01*
X113519126Y-148364071D01*
X113510246Y-148294057D01*
X113483607Y-148258880D01*
X113447404Y-148245902D01*
X113400273Y-148243852D01*
X112922131Y-148243852D01*
X112882514Y-148245219D01*
X112823770Y-148269809D01*
X112800546Y-148362705D01*
X112702105Y-148362705D01*
X112693989Y-148294399D01*
X112665984Y-148258197D01*
X112630464Y-148245902D01*
X112583333Y-148243852D01*
X112536202Y-148245902D01*
X112500000Y-148258880D01*
X112472336Y-148293716D01*
X112463115Y-148362705D01*
X112121585Y-148362705D01*
X112121585Y-148015710D01*
X112785519Y-148015710D01*
X112815574Y-148097678D01*
X112859631Y-148150956D01*
X112907104Y-148168716D01*
X112980874Y-148141393D01*
X113467213Y-147857240D01*
X113482240Y-147844945D01*
X113511612Y-147807377D01*
X113525956Y-147751366D01*
X113507514Y-147691940D01*
X113465847Y-147648224D01*
X112980874Y-147365437D01*
X112905738Y-147338115D01*
X112859290Y-147355874D01*
X112815574Y-147409153D01*
X112786885Y-147484290D01*
X112798497Y-147528005D01*
X112821721Y-147551913D01*
X112859290Y-147574454D01*
X113203552Y-147753415D01*
X112859290Y-147932377D01*
X112803962Y-147968579D01*
X112785519Y-148015710D01*
X112121585Y-148015710D01*
X112121585Y-146894126D01*
X112784153Y-146894126D01*
X112795613Y-146999089D01*
X112829994Y-147091758D01*
X112887295Y-147172131D01*
X112963722Y-147233986D01*
X113055480Y-147271099D01*
X113162568Y-147283470D01*
X113250759Y-147273907D01*
X113333182Y-147245219D01*
X113409836Y-147197404D01*
X113461578Y-147144980D01*
X113502049Y-147075137D01*
X113528176Y-146990949D01*
X113536885Y-146895492D01*
X113529286Y-146768186D01*
X113506489Y-146677254D01*
X113468494Y-146622695D01*
X113415301Y-146604508D01*
X113352459Y-146622268D01*
X113290984Y-146697404D01*
X113306011Y-146752049D01*
X113311475Y-146767077D01*
X113323770Y-146820697D01*
X113327869Y-146891393D01*
X113301913Y-146981557D01*
X113237705Y-147026639D01*
X113237705Y-146702869D01*
X113197404Y-146610656D01*
X113146175Y-146579406D01*
X113073087Y-146568989D01*
X112992316Y-146580601D01*
X112918033Y-146615437D01*
X112859460Y-146666154D01*
X112817623Y-146729508D01*
X112792520Y-146805499D01*
X112784153Y-146894126D01*
X112121585Y-146894126D01*
X112121585Y-146092896D01*
X112792350Y-146092896D01*
X112815574Y-146167350D01*
X112852459Y-146222678D01*
X112875683Y-146242486D01*
X112830601Y-146257514D01*
X112807036Y-146293374D01*
X112799180Y-146359973D01*
X112808402Y-146430328D01*
X112836066Y-146466530D01*
X112870902Y-146478142D01*
X112918033Y-146480191D01*
X113397541Y-146480191D01*
X113437158Y-146480191D01*
X113495902Y-146455601D01*
X113519126Y-146361339D01*
X113510246Y-146291667D01*
X113483607Y-146254781D01*
X113447404Y-146241803D01*
X113400273Y-146239754D01*
X113113388Y-146239754D01*
X113050546Y-146207650D01*
X113024590Y-146138661D01*
X113035519Y-146079235D01*
X113046448Y-146032104D01*
X112994536Y-145956967D01*
X112898907Y-145931011D01*
X112835383Y-145948087D01*
X112807377Y-145991120D01*
X112795765Y-146038934D01*
X112792350Y-146092896D01*
X112121585Y-146092896D01*
X112121585Y-145931011D01*
X112121585Y-145589481D01*
X113000000Y-145003871D01*
X113878415Y-145589481D01*
X113878415Y-145931011D01*
X113878415Y-146361339D01*
X113878415Y-146895492D01*
G37*
G36*
X81878415Y-146895492D02*
G01*
X81878415Y-147751366D01*
X81878415Y-148364071D01*
X81878415Y-148988388D01*
X81878415Y-149698770D01*
X81878415Y-150068989D01*
X81878415Y-150410519D01*
X81000000Y-150996129D01*
X80121585Y-150410519D01*
X80121585Y-150068989D01*
X80121585Y-149947404D01*
X80516393Y-149947404D01*
X80525615Y-150017760D01*
X80553279Y-150053962D01*
X80588798Y-150066940D01*
X80636612Y-150068989D01*
X81396175Y-150068989D01*
X81483607Y-150052596D01*
X81509221Y-150016393D01*
X81517760Y-149948770D01*
X81517760Y-149698770D01*
X81508453Y-149598147D01*
X81480533Y-149505294D01*
X81433999Y-149420210D01*
X81368852Y-149342896D01*
X81290685Y-149278646D01*
X81205089Y-149232753D01*
X81112065Y-149205217D01*
X81011612Y-149196038D01*
X80911544Y-149205430D01*
X80819672Y-149233607D01*
X80735997Y-149280567D01*
X80660519Y-149346311D01*
X80598062Y-149424436D01*
X80553449Y-149508538D01*
X80526682Y-149598617D01*
X80517760Y-149694672D01*
X80516393Y-149947404D01*
X80121585Y-149947404D01*
X80121585Y-148719945D01*
X80792350Y-148719945D01*
X80815574Y-148794399D01*
X80852459Y-148849727D01*
X80875683Y-148869536D01*
X80830601Y-148884563D01*
X80807036Y-148920423D01*
X80799180Y-148987022D01*
X80808402Y-149057377D01*
X80836066Y-149093579D01*
X80870902Y-149105191D01*
X80918033Y-149107240D01*
X81397541Y-149107240D01*
X81437158Y-149107240D01*
X81495902Y-149082650D01*
X81519126Y-148988388D01*
X81510246Y-148918716D01*
X81483607Y-148881831D01*
X81447404Y-148868852D01*
X81400273Y-148866803D01*
X81113388Y-148866803D01*
X81050546Y-148834699D01*
X81024590Y-148765710D01*
X81035519Y-148706284D01*
X81046448Y-148659153D01*
X80994536Y-148584016D01*
X80898907Y-148558060D01*
X80835383Y-148575137D01*
X80807377Y-148618169D01*
X80795765Y-148665984D01*
X80792350Y-148719945D01*
X80121585Y-148719945D01*
X80121585Y-148362705D01*
X80463115Y-148362705D01*
X80472336Y-148433060D01*
X80500000Y-148469262D01*
X80534836Y-148480874D01*
X80581967Y-148482923D01*
X80629098Y-148480874D01*
X80665301Y-148468579D01*
X80693989Y-148432377D01*
X80702186Y-148363388D01*
X80702105Y-148362705D01*
X80800546Y-148362705D01*
X80800633Y-148363388D01*
X80809426Y-148433060D01*
X80836066Y-148469262D01*
X80872268Y-148480874D01*
X80919399Y-148482923D01*
X81398907Y-148482923D01*
X81446721Y-148480874D01*
X81482240Y-148469262D01*
X81509904Y-148433402D01*
X81519126Y-148364071D01*
X81510246Y-148294057D01*
X81483607Y-148258880D01*
X81447404Y-148245902D01*
X81400273Y-148243852D01*
X80922131Y-148243852D01*
X80882514Y-148245219D01*
X80823770Y-148269809D01*
X80800546Y-148362705D01*
X80702105Y-148362705D01*
X80693989Y-148294399D01*
X80665984Y-148258197D01*
X80630464Y-148245902D01*
X80583333Y-148243852D01*
X80536202Y-148245902D01*
X80500000Y-148258880D01*
X80472336Y-148293716D01*
X80463115Y-148362705D01*
X80121585Y-148362705D01*
X80121585Y-148015710D01*
X80785519Y-148015710D01*
X80815574Y-148097678D01*
X80859631Y-148150956D01*
X80907104Y-148168716D01*
X80980874Y-148141393D01*
X81467213Y-147857240D01*
X81482240Y-147844945D01*
X81511612Y-147807377D01*
X81525956Y-147751366D01*
X81507514Y-147691940D01*
X81465847Y-147648224D01*
X80980874Y-147365437D01*
X80905738Y-147338115D01*
X80859290Y-147355874D01*
X80815574Y-147409153D01*
X80786885Y-147484290D01*
X80798497Y-147528005D01*
X80821721Y-147551913D01*
X80859290Y-147574454D01*
X81203552Y-147753415D01*
X80859290Y-147932377D01*
X80803962Y-147968579D01*
X80785519Y-148015710D01*
X80121585Y-148015710D01*
X80121585Y-146894126D01*
X80784153Y-146894126D01*
X80795613Y-146999089D01*
X80829994Y-147091758D01*
X80887295Y-147172131D01*
X80963722Y-147233986D01*
X81055480Y-147271099D01*
X81162568Y-147283470D01*
X81250759Y-147273907D01*
X81333182Y-147245219D01*
X81409836Y-147197404D01*
X81461578Y-147144980D01*
X81502049Y-147075137D01*
X81528176Y-146990949D01*
X81536885Y-146895492D01*
X81529286Y-146768186D01*
X81506489Y-146677254D01*
X81468494Y-146622695D01*
X81415301Y-146604508D01*
X81352459Y-146622268D01*
X81290984Y-146697404D01*
X81306011Y-146752049D01*
X81311475Y-146767077D01*
X81323770Y-146820697D01*
X81327869Y-146891393D01*
X81301913Y-146981557D01*
X81237705Y-147026639D01*
X81237705Y-146702869D01*
X81197404Y-146610656D01*
X81146175Y-146579406D01*
X81073087Y-146568989D01*
X80992316Y-146580601D01*
X80918033Y-146615437D01*
X80859460Y-146666154D01*
X80817623Y-146729508D01*
X80792520Y-146805499D01*
X80784153Y-146894126D01*
X80121585Y-146894126D01*
X80121585Y-146092896D01*
X80792350Y-146092896D01*
X80815574Y-146167350D01*
X80852459Y-146222678D01*
X80875683Y-146242486D01*
X80830601Y-146257514D01*
X80807036Y-146293374D01*
X80799180Y-146359973D01*
X80808402Y-146430328D01*
X80836066Y-146466530D01*
X80870902Y-146478142D01*
X80918033Y-146480191D01*
X81397541Y-146480191D01*
X81437158Y-146480191D01*
X81495902Y-146455601D01*
X81519126Y-146361339D01*
X81510246Y-146291667D01*
X81483607Y-146254781D01*
X81447404Y-146241803D01*
X81400273Y-146239754D01*
X81113388Y-146239754D01*
X81050546Y-146207650D01*
X81024590Y-146138661D01*
X81035519Y-146079235D01*
X81046448Y-146032104D01*
X80994536Y-145956967D01*
X80898907Y-145931011D01*
X80835383Y-145948087D01*
X80807377Y-145991120D01*
X80795765Y-146038934D01*
X80792350Y-146092896D01*
X80121585Y-146092896D01*
X80121585Y-145931011D01*
X80121585Y-145589481D01*
X81000000Y-145003871D01*
X81878415Y-145589481D01*
X81878415Y-145931011D01*
X81878415Y-146361339D01*
X81878415Y-146895492D01*
G37*
G36*
X81120389Y-149457650D02*
G01*
X81202869Y-149517077D01*
X81257684Y-149601093D01*
X81275956Y-149694672D01*
X81275956Y-149827186D01*
X80759563Y-149827186D01*
X80759563Y-149696038D01*
X80778176Y-149598873D01*
X80834016Y-149515027D01*
X80917520Y-149457138D01*
X81019126Y-149437842D01*
X81120389Y-149457650D01*
G37*
G36*
X81113388Y-146857240D02*
G01*
X81113388Y-147029372D01*
X81036202Y-146985656D01*
X81000000Y-146897541D01*
X81019126Y-146829235D01*
X81069672Y-146805328D01*
X81113388Y-146857240D01*
G37*
%TO.C,kibuzzard-667019FA*%
G36*
X99631603Y-139000000D02*
G01*
X99047814Y-139875683D01*
X98706284Y-139875683D01*
X98385929Y-139875683D01*
X97662568Y-139875683D01*
X96564208Y-139875683D01*
X96214481Y-139875683D01*
X95905738Y-139875683D01*
X95293716Y-139875683D01*
X94952186Y-139875683D01*
X94368397Y-139000000D01*
X94607924Y-138640710D01*
X95293716Y-138640710D01*
X95293716Y-139400273D01*
X95301913Y-139469945D01*
X95338115Y-139508880D01*
X95413934Y-139521858D01*
X95905738Y-139521858D01*
X95976776Y-139508197D01*
X96000000Y-139478142D01*
X96006831Y-139420082D01*
X96000000Y-139362022D01*
X95972678Y-139329918D01*
X95907104Y-139319672D01*
X95535519Y-139319672D01*
X95535519Y-138922131D01*
X96095628Y-138922131D01*
X96095628Y-139401639D01*
X96097678Y-139449454D01*
X96109290Y-139484973D01*
X96145150Y-139512637D01*
X96214481Y-139521858D01*
X96284495Y-139512978D01*
X96319672Y-139486339D01*
X96332650Y-139450137D01*
X96334699Y-139403005D01*
X96334699Y-138924863D01*
X96333333Y-138885246D01*
X96308743Y-138826503D01*
X96215847Y-138803279D01*
X96215164Y-138803365D01*
X96145492Y-138812158D01*
X96109290Y-138838798D01*
X96097678Y-138875000D01*
X96095628Y-138922131D01*
X95535519Y-138922131D01*
X95535519Y-138642077D01*
X95530002Y-138584699D01*
X96095628Y-138584699D01*
X96097678Y-138631831D01*
X96109973Y-138668033D01*
X96146175Y-138696721D01*
X96215164Y-138704918D01*
X96284153Y-138696721D01*
X96320355Y-138668716D01*
X96330049Y-138640710D01*
X96443989Y-138640710D01*
X96443989Y-139398907D01*
X96452186Y-139469945D01*
X96488388Y-139507855D01*
X96564208Y-139520492D01*
X96634563Y-139511270D01*
X96670765Y-139483607D01*
X96683743Y-139447404D01*
X96685792Y-139400273D01*
X96685792Y-139245902D01*
X96856557Y-139245902D01*
X96936703Y-139236187D01*
X97015027Y-139207043D01*
X97085076Y-139162568D01*
X97286885Y-139162568D01*
X97301400Y-139266223D01*
X97344945Y-139358607D01*
X97409665Y-139434768D01*
X97487705Y-139489754D01*
X97573770Y-139523053D01*
X97662568Y-139534153D01*
X97751195Y-139523736D01*
X97836749Y-139492486D01*
X97914447Y-139439208D01*
X97942911Y-139405738D01*
X98106557Y-139405738D01*
X98132514Y-139457650D01*
X98214709Y-139500152D01*
X98299180Y-139525653D01*
X98385929Y-139534153D01*
X98468883Y-139529447D01*
X98541970Y-139515331D01*
X98605191Y-139491803D01*
X98679645Y-139417350D01*
X98699624Y-139362193D01*
X98706284Y-139296448D01*
X98699624Y-139231387D01*
X98679645Y-139178279D01*
X98613388Y-139112022D01*
X98527322Y-139077869D01*
X98438525Y-139060109D01*
X98368852Y-139040642D01*
X98345628Y-139006831D01*
X98426230Y-138976776D01*
X98522541Y-138997268D01*
X98583333Y-139017760D01*
X98644809Y-138969945D01*
X98674863Y-138889344D01*
X98627049Y-138834699D01*
X98525956Y-138799863D01*
X98427596Y-138788251D01*
X98320874Y-138796885D01*
X98237869Y-138822787D01*
X98178579Y-138865956D01*
X98143005Y-138926393D01*
X98131148Y-139004098D01*
X98137637Y-139071551D01*
X98157104Y-139129098D01*
X98222678Y-139206284D01*
X98307719Y-139248292D01*
X98393443Y-139270492D01*
X98462090Y-139286202D01*
X98484973Y-139308743D01*
X98464139Y-139333333D01*
X98401639Y-139341530D01*
X98297814Y-139308060D01*
X98206967Y-139274590D01*
X98158470Y-139297814D01*
X98119536Y-139360997D01*
X98106557Y-139405738D01*
X97942911Y-139405738D01*
X97979508Y-139362705D01*
X98023566Y-139268272D01*
X98038251Y-139161202D01*
X98025653Y-139058364D01*
X97987857Y-138968427D01*
X97924863Y-138891393D01*
X97845477Y-138832574D01*
X97758500Y-138797283D01*
X97663934Y-138785519D01*
X97569217Y-138797359D01*
X97481785Y-138832878D01*
X97401639Y-138892077D01*
X97337887Y-138969490D01*
X97299636Y-139059654D01*
X97286885Y-139162568D01*
X97085076Y-139162568D01*
X97091530Y-139158470D01*
X97142418Y-139108777D01*
X97183060Y-139044399D01*
X97209699Y-138968408D01*
X97218579Y-138883880D01*
X97209699Y-138799180D01*
X97183060Y-138722678D01*
X97142418Y-138657787D01*
X97091530Y-138607923D01*
X97015179Y-138559350D01*
X96937310Y-138530206D01*
X96857923Y-138520492D01*
X96565574Y-138520492D01*
X96495219Y-138529713D01*
X96459016Y-138557377D01*
X96446038Y-138593579D01*
X96443989Y-138640710D01*
X96330049Y-138640710D01*
X96332650Y-138633197D01*
X96334699Y-138586066D01*
X96332650Y-138538934D01*
X96319672Y-138502732D01*
X96284836Y-138475068D01*
X96215847Y-138465847D01*
X96145492Y-138475068D01*
X96109290Y-138502732D01*
X96097678Y-138537568D01*
X96095628Y-138584699D01*
X95530002Y-138584699D01*
X95528689Y-138571038D01*
X95491462Y-138533128D01*
X95415301Y-138520492D01*
X95344945Y-138529713D01*
X95308743Y-138557377D01*
X95295765Y-138593579D01*
X95293716Y-138640710D01*
X94607924Y-138640710D01*
X94952186Y-138124317D01*
X95293716Y-138124317D01*
X98706284Y-138124317D01*
X99047814Y-138124317D01*
X99631603Y-139000000D01*
G37*
G36*
X96938525Y-138793033D02*
G01*
X96978142Y-138883880D01*
X96938525Y-138974044D01*
X96857923Y-139004098D01*
X96685792Y-139004098D01*
X96685792Y-138762295D01*
X96856557Y-138762295D01*
X96938525Y-138793033D01*
G37*
G36*
X97754098Y-139058743D02*
G01*
X97785861Y-139100068D01*
X97796448Y-139158470D01*
X97785178Y-139217213D01*
X97751366Y-139259563D01*
X97661202Y-139293716D01*
X97572404Y-139260246D01*
X97539617Y-139218579D01*
X97528689Y-139160519D01*
X97539276Y-139102288D01*
X97571038Y-139060109D01*
X97662568Y-139025956D01*
X97754098Y-139058743D01*
G37*
%TO.C,kibuzzard-66701992*%
G36*
X113249044Y-168516803D02*
G01*
X113249044Y-169104235D01*
X113249044Y-169717623D01*
X113249044Y-170563251D01*
X113249044Y-171321448D01*
X113249044Y-171800956D01*
X113249044Y-172142486D01*
X112400000Y-172708515D01*
X111550956Y-172142486D01*
X111550956Y-171800956D01*
X111550956Y-171335109D01*
X111892486Y-171335109D01*
X111892486Y-171679372D01*
X111901708Y-171749727D01*
X111929372Y-171785929D01*
X111964891Y-171798907D01*
X112012705Y-171800956D01*
X112770902Y-171800956D01*
X112841940Y-171792760D01*
X112880874Y-171756557D01*
X112893852Y-171680738D01*
X112893852Y-171321448D01*
X112883607Y-171239253D01*
X112852869Y-171165710D01*
X112801639Y-171100820D01*
X112735231Y-171050046D01*
X112658956Y-171018852D01*
X112572814Y-171007240D01*
X112496160Y-171016196D01*
X112424666Y-171043063D01*
X112358333Y-171087842D01*
X112279440Y-171048907D01*
X112193033Y-171035929D01*
X112114101Y-171045795D01*
X112043063Y-171075395D01*
X111979918Y-171124727D01*
X111931345Y-171185747D01*
X111902201Y-171255874D01*
X111892486Y-171335109D01*
X111550956Y-171335109D01*
X111550956Y-170561885D01*
X112158880Y-170561885D01*
X112170719Y-170656603D01*
X112206239Y-170744035D01*
X112265437Y-170824180D01*
X112342851Y-170887933D01*
X112433015Y-170926184D01*
X112535929Y-170938934D01*
X112639583Y-170924419D01*
X112731967Y-170880874D01*
X112808128Y-170816154D01*
X112863115Y-170738115D01*
X112896414Y-170652049D01*
X112907514Y-170563251D01*
X112897097Y-170474624D01*
X112865847Y-170389071D01*
X112812568Y-170311373D01*
X112736066Y-170246311D01*
X112641633Y-170202254D01*
X112534563Y-170187568D01*
X112431724Y-170200167D01*
X112341788Y-170237963D01*
X112264754Y-170300956D01*
X112205935Y-170380343D01*
X112170644Y-170467319D01*
X112158880Y-170561885D01*
X111550956Y-170561885D01*
X111550956Y-169887022D01*
X111929372Y-169887022D01*
X111937910Y-169957036D01*
X111963525Y-169992213D01*
X111996311Y-170005191D01*
X112042760Y-170007240D01*
X112183470Y-170007240D01*
X112178005Y-170052322D01*
X112195765Y-170106967D01*
X112231967Y-170126093D01*
X112313251Y-170132923D01*
X112392486Y-170113115D01*
X112415710Y-170063251D01*
X112411612Y-170007240D01*
X112613798Y-170007240D01*
X112705935Y-169999044D01*
X112778339Y-169974454D01*
X112831011Y-169933470D01*
X112866682Y-169876700D01*
X112888084Y-169804751D01*
X112895219Y-169717623D01*
X112893169Y-169671858D01*
X112881557Y-169635656D01*
X112845697Y-169606967D01*
X112776366Y-169597404D01*
X112684836Y-169628825D01*
X112671858Y-169665027D01*
X112669809Y-169714208D01*
X112653415Y-169757923D01*
X112600137Y-169769536D01*
X112411612Y-169769536D01*
X112417077Y-169680738D01*
X112415027Y-169633607D01*
X112403415Y-169597404D01*
X112367555Y-169569740D01*
X112298224Y-169560519D01*
X112228210Y-169569399D01*
X112193033Y-169596038D01*
X112180055Y-169632240D01*
X112178005Y-169678689D01*
X112183470Y-169769536D01*
X112049590Y-169769536D01*
X111979918Y-169776366D01*
X111942008Y-169812910D01*
X111929372Y-169887022D01*
X111550956Y-169887022D01*
X111550956Y-169273634D01*
X111929372Y-169273634D01*
X111937910Y-169343648D01*
X111963525Y-169378825D01*
X111996311Y-169391803D01*
X112042760Y-169393852D01*
X112183470Y-169393852D01*
X112178005Y-169438934D01*
X112195765Y-169493579D01*
X112231967Y-169512705D01*
X112313251Y-169519536D01*
X112392486Y-169499727D01*
X112415710Y-169449863D01*
X112411612Y-169393852D01*
X112613798Y-169393852D01*
X112705935Y-169385656D01*
X112778339Y-169361066D01*
X112831011Y-169320082D01*
X112866682Y-169263312D01*
X112888084Y-169191363D01*
X112895219Y-169104235D01*
X112893169Y-169058470D01*
X112881557Y-169022268D01*
X112845697Y-168993579D01*
X112776366Y-168984016D01*
X112684836Y-169015437D01*
X112671858Y-169051639D01*
X112669809Y-169100820D01*
X112653415Y-169144536D01*
X112600137Y-169156148D01*
X112411612Y-169156148D01*
X112417077Y-169067350D01*
X112415027Y-169020219D01*
X112403415Y-168984016D01*
X112367555Y-168956352D01*
X112298224Y-168947131D01*
X112228210Y-168956011D01*
X112193033Y-168982650D01*
X112180055Y-169018852D01*
X112178005Y-169065301D01*
X112183470Y-169156148D01*
X112049590Y-169156148D01*
X111979918Y-169162978D01*
X111942008Y-169199522D01*
X111929372Y-169273634D01*
X111550956Y-169273634D01*
X111550956Y-168515437D01*
X112158880Y-168515437D01*
X112170719Y-168610155D01*
X112206239Y-168697587D01*
X112265437Y-168777732D01*
X112342851Y-168841485D01*
X112433015Y-168879736D01*
X112535929Y-168892486D01*
X112639583Y-168877971D01*
X112731967Y-168834426D01*
X112808128Y-168769706D01*
X112863115Y-168691667D01*
X112896414Y-168605601D01*
X112907514Y-168516803D01*
X112897097Y-168428176D01*
X112865847Y-168342623D01*
X112812568Y-168264925D01*
X112736066Y-168199863D01*
X112641633Y-168155806D01*
X112534563Y-168141120D01*
X112431724Y-168153719D01*
X112341788Y-168191515D01*
X112264754Y-168254508D01*
X112205935Y-168333895D01*
X112170644Y-168420871D01*
X112158880Y-168515437D01*
X111550956Y-168515437D01*
X111550956Y-167255874D01*
X112173907Y-167255874D01*
X112200546Y-167351503D01*
X112249727Y-167419126D01*
X112292760Y-167455328D01*
X112226730Y-167508758D01*
X112187113Y-167577975D01*
X112173907Y-167662978D01*
X112198156Y-167746653D01*
X112270902Y-167817350D01*
X112199863Y-167840574D01*
X112175273Y-167940301D01*
X112184495Y-168002801D01*
X112212158Y-168037295D01*
X112246995Y-168050273D01*
X112294126Y-168052322D01*
X112775000Y-168052322D01*
X112822814Y-168050273D01*
X112858333Y-168038661D01*
X112885997Y-168002801D01*
X112895219Y-167933470D01*
X112886339Y-167863798D01*
X112859699Y-167826913D01*
X112823497Y-167813934D01*
X112776366Y-167811885D01*
X112534563Y-167811885D01*
X112445423Y-167791393D01*
X112415710Y-167729918D01*
X112445423Y-167666393D01*
X112534563Y-167645219D01*
X112773634Y-167645219D01*
X112820765Y-167643169D01*
X112856967Y-167631557D01*
X112885656Y-167595697D01*
X112895219Y-167526366D01*
X112885997Y-167456011D01*
X112858333Y-167419809D01*
X112822814Y-167406831D01*
X112775000Y-167404781D01*
X112535929Y-167404781D01*
X112447131Y-167387705D01*
X112415710Y-167322814D01*
X112445423Y-167259290D01*
X112534563Y-167238115D01*
X112773634Y-167238115D01*
X112820765Y-167236066D01*
X112856967Y-167224454D01*
X112885656Y-167188593D01*
X112895219Y-167119262D01*
X112885997Y-167049249D01*
X112858333Y-167014071D01*
X112822131Y-167001093D01*
X112775000Y-166999044D01*
X112535929Y-166999044D01*
X112418822Y-167007240D01*
X112326154Y-167031831D01*
X112257923Y-167072814D01*
X112194911Y-167155464D01*
X112173907Y-167255874D01*
X111550956Y-167255874D01*
X111550956Y-166999044D01*
X111550956Y-166657514D01*
X112400000Y-166091485D01*
X113249044Y-166657514D01*
X113249044Y-166999044D01*
X113249044Y-167119262D01*
X113249044Y-168516803D01*
G37*
G36*
X112628825Y-171270560D02*
G01*
X112652049Y-171335109D01*
X112652049Y-171559153D01*
X112134290Y-171559153D01*
X112134290Y-171367896D01*
X112147951Y-171300273D01*
X112195765Y-171277732D01*
X112244945Y-171281831D01*
X112273634Y-171347404D01*
X112292760Y-171431421D01*
X112371311Y-171456694D01*
X112449863Y-171432104D01*
X112468989Y-171358333D01*
X112479918Y-171281831D01*
X112507240Y-171256557D01*
X112559153Y-171249044D01*
X112628825Y-171270560D01*
G37*
G36*
X112590574Y-168394194D02*
G01*
X112632923Y-168428005D01*
X112667077Y-168518169D01*
X112633607Y-168606967D01*
X112591940Y-168639754D01*
X112533880Y-168650683D01*
X112475649Y-168640096D01*
X112433470Y-168608333D01*
X112399317Y-168516803D01*
X112432104Y-168425273D01*
X112473429Y-168393511D01*
X112531831Y-168382923D01*
X112590574Y-168394194D01*
G37*
G36*
X112590574Y-170440642D02*
G01*
X112632923Y-170474454D01*
X112667077Y-170564617D01*
X112633607Y-170653415D01*
X112591940Y-170686202D01*
X112533880Y-170697131D01*
X112475649Y-170686544D01*
X112433470Y-170654781D01*
X112399317Y-170563251D01*
X112432104Y-170471721D01*
X112473429Y-170439959D01*
X112531831Y-170429372D01*
X112590574Y-170440642D01*
G37*
%TO.C,kibuzzard-66701961*%
G36*
X99286658Y-161400000D02*
G01*
X98620902Y-162398634D01*
X98279372Y-162398634D01*
X97690574Y-162398634D01*
X97108607Y-162398634D01*
X96198770Y-162398634D01*
X95720628Y-162398634D01*
X95379098Y-162398634D01*
X94713342Y-161400000D01*
X95085837Y-160841257D01*
X95720628Y-160841257D01*
X95727459Y-160898634D01*
X95754781Y-160930738D01*
X95818989Y-160940984D01*
X96081284Y-160940984D01*
X96081284Y-161626776D01*
X96083333Y-161673907D01*
X96095628Y-161709426D01*
X96131148Y-161737432D01*
X96198770Y-161745628D01*
X96267077Y-161737432D01*
X96303279Y-161709426D01*
X96315574Y-161674590D01*
X96317623Y-161628142D01*
X96317623Y-161386339D01*
X96732923Y-161386339D01*
X96747439Y-161489993D01*
X96790984Y-161582377D01*
X96855704Y-161658538D01*
X96933743Y-161713525D01*
X97019809Y-161746824D01*
X97108607Y-161757923D01*
X97197234Y-161747507D01*
X97282787Y-161716257D01*
X97360485Y-161662978D01*
X97425546Y-161586475D01*
X97469604Y-161492042D01*
X97484290Y-161384973D01*
X97471691Y-161282134D01*
X97433895Y-161192198D01*
X97393803Y-161143169D01*
X97573087Y-161143169D01*
X97573087Y-161940984D01*
X97575137Y-161987432D01*
X97587432Y-162021585D01*
X97622951Y-162048907D01*
X97690574Y-162057104D01*
X97757514Y-162048907D01*
X97792350Y-162020902D01*
X97804645Y-161986066D01*
X97806694Y-161939617D01*
X97806694Y-161663661D01*
X97872609Y-161710792D01*
X97969262Y-161726503D01*
X98042502Y-161714815D01*
X98112857Y-161679751D01*
X98180328Y-161621311D01*
X98235352Y-161547389D01*
X98268367Y-161465877D01*
X98279372Y-161376776D01*
X98268291Y-161287675D01*
X98235049Y-161206163D01*
X98179645Y-161132240D01*
X98111870Y-161073801D01*
X98041515Y-161038737D01*
X97968579Y-161027049D01*
X97872097Y-161044809D01*
X97805328Y-161098087D01*
X97775956Y-161044126D01*
X97678279Y-161025683D01*
X97619194Y-161034904D01*
X97586749Y-161062568D01*
X97575137Y-161096721D01*
X97573087Y-161143169D01*
X97393803Y-161143169D01*
X97370902Y-161115164D01*
X97291515Y-161056345D01*
X97204539Y-161021053D01*
X97109973Y-161009290D01*
X97015255Y-161021129D01*
X96927823Y-161056648D01*
X96847678Y-161115847D01*
X96783925Y-161193260D01*
X96745674Y-161283424D01*
X96732923Y-161386339D01*
X96317623Y-161386339D01*
X96317623Y-160940984D01*
X96578552Y-160940984D01*
X96648224Y-160928689D01*
X96671448Y-160899317D01*
X96678279Y-160842623D01*
X96671448Y-160785246D01*
X96644126Y-160753142D01*
X96579918Y-160742896D01*
X95820355Y-160742896D01*
X95750683Y-160755191D01*
X95727459Y-160784563D01*
X95720628Y-160841257D01*
X95085837Y-160841257D01*
X95379098Y-160401366D01*
X95720628Y-160401366D01*
X98279372Y-160401366D01*
X98620902Y-160401366D01*
X99286658Y-161400000D01*
G37*
G36*
X97200137Y-161282514D02*
G01*
X97231899Y-161323839D01*
X97242486Y-161382240D01*
X97231216Y-161440984D01*
X97197404Y-161483333D01*
X97107240Y-161517486D01*
X97018443Y-161484016D01*
X96985656Y-161442350D01*
X96974727Y-161384290D01*
X96985314Y-161326059D01*
X97017077Y-161283880D01*
X97108607Y-161249727D01*
X97200137Y-161282514D01*
G37*
G36*
X98012978Y-161296858D02*
G01*
X98045765Y-161378142D01*
X98010929Y-161458743D01*
X97926230Y-161494262D01*
X97844262Y-161458060D01*
X97812158Y-161378142D01*
X97843579Y-161297541D01*
X97927596Y-161260656D01*
X98012978Y-161296858D01*
G37*
D12*
%TO.C,J2*%
X97595495Y-140183839D02*
X97595495Y-153033839D01*
X97595495Y-153033839D02*
X100145495Y-155883839D01*
X100145495Y-155883839D02*
X103295495Y-155883839D01*
X103295495Y-155883839D02*
X105895495Y-153033839D01*
X105895495Y-140183839D02*
X97595495Y-140183839D01*
X105895495Y-153033839D02*
X105895495Y-140183839D01*
%TO.C,J1*%
X88095495Y-140183839D02*
X88095495Y-153033839D01*
X88095495Y-153033839D02*
X90645495Y-155883839D01*
X90645495Y-155883839D02*
X93795495Y-155883839D01*
X93795495Y-155883839D02*
X96395495Y-153033839D01*
X96395495Y-140183839D02*
X88095495Y-140183839D01*
X96395495Y-153033839D02*
X96395495Y-140183839D01*
%TD*%
%LPC*%
D11*
G36*
X86638672Y-148508839D02*
G01*
X86638672Y-148508839D01*
G75*
G02*
X86850661Y-148626322I28J-249961D01*
G01*
X86850661Y-148626322D01*
G75*
G03*
X88588650Y-149430168I1483939J927622D01*
G01*
X88588650Y-149430168D01*
G75*
G03*
X89887374Y-148909876I-435450J2967968D01*
G01*
X89887374Y-148909876D01*
G75*
G02*
X90754500Y-148633839I867226J-1224124D01*
G01*
X93747152Y-148633839D01*
G75*
G02*
X94441690Y-148800505I7248J-1500361D01*
G01*
X94441690Y-148800505D01*
G75*
G03*
X95816058Y-149133839I1374410J2666905D01*
G01*
X95816100Y-154133839D01*
G75*
G03*
X94441690Y-154467172I100J-3000661D01*
G01*
X94441690Y-154467172D01*
G75*
G02*
X93754500Y-154633839I-687190J1333372D01*
G01*
X90754600Y-154633839D01*
X90754600Y-154633834D01*
G75*
G02*
X89336845Y-153623980I100J1500234D01*
G01*
X89336845Y-153623980D01*
G75*
G03*
X87957767Y-152467518I-1653945J-571820D01*
G01*
X87930739Y-152463325D01*
G75*
G03*
X86979733Y-152468357I-459839J-2964675D01*
G01*
X86979733Y-152468357D01*
G75*
G02*
X86488600Y-152508839I-490933J2957057D01*
G01*
X83255577Y-152508839D01*
G75*
G02*
X83000000Y-152258700I-5377J250139D01*
G01*
X83000000Y-148764423D01*
G75*
G02*
X83250100Y-148508839I250100J5423D01*
G01*
X86638672Y-148508839D01*
G37*
G36*
X110750000Y-148508839D02*
G01*
X110750000Y-148508839D01*
G75*
G02*
X111000000Y-148758800I100J-249861D01*
G01*
X111000000Y-152258839D01*
G75*
G02*
X110750000Y-152508839I-249900J-61D01*
G01*
X107511500Y-152508839D01*
X107511500Y-152508831D01*
G75*
G02*
X107020267Y-152468357I-100J3000231D01*
G01*
X107020267Y-152468357D01*
G75*
G03*
X106069303Y-152463319I-491167J-2959543D01*
G01*
X106048898Y-152466484D01*
G75*
G03*
X104663155Y-153623980I268202J-1729316D01*
G01*
X104663155Y-153623980D01*
G75*
G02*
X103245500Y-154633839I-1417555J489980D01*
G01*
X100245500Y-154633839D01*
G75*
G02*
X99558310Y-154467172I0J1500039D01*
G01*
X99558310Y-154467172D01*
G75*
G03*
X98183942Y-154133839I-1374410J-2667028D01*
G01*
X97000000Y-154133839D01*
X95816100Y-154133839D01*
X95816058Y-149133839D01*
X97000000Y-149133839D01*
X98183900Y-149133839D01*
G75*
G03*
X99558310Y-148800505I0J3000339D01*
G01*
X99558310Y-148800505D01*
G75*
G02*
X100245500Y-148633839I687190J-1333395D01*
G01*
X103249372Y-148633839D01*
G75*
G02*
X104112626Y-148909876I-3872J-1499961D01*
G01*
X104112626Y-148909876D01*
G75*
G03*
X105411350Y-149430168I1734374J2448076D01*
G01*
X105411350Y-149430168D01*
G75*
G03*
X107149339Y-148626322I254050J1731468D01*
G01*
X107149339Y-148626322D01*
G75*
G02*
X107361300Y-148508839I211961J-132478D01*
G01*
X110750000Y-148508839D01*
G37*
D13*
%TO.C,H1*%
X86400000Y-139000000D03*
X85697056Y-140697056D03*
X85697056Y-137302944D03*
X84000000Y-141400000D03*
D14*
X84000000Y-139000000D03*
D13*
X84000000Y-136600000D03*
X82302944Y-140697056D03*
X82302944Y-137302944D03*
X81600000Y-139000000D03*
%TD*%
%TO.C,H3*%
X81600000Y-167000000D03*
X82302944Y-165302944D03*
X82302944Y-168697056D03*
X84000000Y-164600000D03*
D14*
X84000000Y-167000000D03*
D13*
X84000000Y-169400000D03*
X85697056Y-165302944D03*
X85697056Y-168697056D03*
X86400000Y-167000000D03*
%TD*%
D15*
%TO.C,J2*%
X101745495Y-151633839D03*
D16*
X101745495Y-144433839D03*
%TD*%
D13*
%TO.C,H4*%
X110600000Y-158000000D03*
X111302944Y-156302944D03*
X111302944Y-159697056D03*
X113000000Y-155600000D03*
D14*
X113000000Y-158000000D03*
D13*
X113000000Y-160400000D03*
X114697056Y-156302944D03*
X114697056Y-159697056D03*
X115400000Y-158000000D03*
%TD*%
%TO.C,H2*%
X107600000Y-139000000D03*
X108302944Y-137302944D03*
X108302944Y-140697056D03*
X110000000Y-136600000D03*
D14*
X110000000Y-139000000D03*
D13*
X110000000Y-141400000D03*
X111697056Y-137302944D03*
X111697056Y-140697056D03*
X112400000Y-139000000D03*
%TD*%
D15*
%TO.C,J1*%
X92245495Y-151633839D03*
D16*
X92245495Y-144433839D03*
%TD*%
D17*
%TO.C,J5*%
X114500000Y-165750000D03*
D18*
X114500000Y-168250000D03*
X114500000Y-170750000D03*
D17*
X114500000Y-173250000D03*
%TD*%
D19*
%TO.C,J3*%
X85000000Y-150508839D03*
D20*
X85000000Y-145508839D03*
%TD*%
D21*
%TO.C,J6*%
X100750000Y-158750000D03*
D22*
X98250000Y-158750000D03*
X95750000Y-158750000D03*
D21*
X93250000Y-158750000D03*
%TD*%
D19*
%TO.C,J4*%
X109000000Y-150508839D03*
D20*
X109000000Y-145508839D03*
%TD*%
%LPD*%
M02*
