%TF.GenerationSoftware,KiCad,Pcbnew,8.0.3*%
%TF.CreationDate,2024-06-18T01:58:16+08:00*%
%TF.ProjectId,power,706f7765-722e-46b6-9963-61645f706362,1.1.0*%
%TF.SameCoordinates,Original*%
%TF.FileFunction,Copper,L2,Bot*%
%TF.FilePolarity,Positive*%
%FSLAX46Y46*%
G04 Gerber Fmt 4.6, Leading zero omitted, Abs format (unit mm)*
G04 Created by KiCad (PCBNEW 8.0.3) date 2024-06-18 01:58:16*
%MOMM*%
%LPD*%
G01*
G04 APERTURE LIST*
G04 Aperture macros list*
%AMRoundRect*
0 Rectangle with rounded corners*
0 $1 Rounding radius*
0 $2 $3 $4 $5 $6 $7 $8 $9 X,Y pos of 4 corners*
0 Add a 4 corners polygon primitive as box body*
4,1,4,$2,$3,$4,$5,$6,$7,$8,$9,$2,$3,0*
0 Add four circle primitives for the rounded corners*
1,1,$1+$1,$2,$3*
1,1,$1+$1,$4,$5*
1,1,$1+$1,$6,$7*
1,1,$1+$1,$8,$9*
0 Add four rect primitives between the rounded corners*
20,1,$1+$1,$2,$3,$4,$5,0*
20,1,$1+$1,$4,$5,$6,$7,0*
20,1,$1+$1,$6,$7,$8,$9,0*
20,1,$1+$1,$8,$9,$2,$3,0*%
G04 Aperture macros list end*
%ADD10C,0.120000*%
%TA.AperFunction,NonConductor*%
%ADD11C,0.120000*%
%TD*%
%TA.AperFunction,ComponentPad*%
%ADD12C,0.800000*%
%TD*%
%TA.AperFunction,ComponentPad*%
%ADD13C,6.400000*%
%TD*%
%TA.AperFunction,ComponentPad*%
%ADD14RoundRect,1.500000X1.500000X-1.500000X1.500000X1.500000X-1.500000X1.500000X-1.500000X-1.500000X0*%
%TD*%
%TA.AperFunction,ComponentPad*%
%ADD15C,6.000000*%
%TD*%
%TA.AperFunction,ComponentPad*%
%ADD16RoundRect,0.250000X-0.725000X0.600000X-0.725000X-0.600000X0.725000X-0.600000X0.725000X0.600000X0*%
%TD*%
%TA.AperFunction,ComponentPad*%
%ADD17O,1.950000X1.700000*%
%TD*%
%TA.AperFunction,ComponentPad*%
%ADD18RoundRect,0.250000X1.650000X-1.650000X1.650000X1.650000X-1.650000X1.650000X-1.650000X-1.650000X0*%
%TD*%
%TA.AperFunction,ComponentPad*%
%ADD19C,4.000000*%
%TD*%
%TA.AperFunction,ComponentPad*%
%ADD20RoundRect,0.250000X0.600000X0.725000X-0.600000X0.725000X-0.600000X-0.725000X0.600000X-0.725000X0*%
%TD*%
%TA.AperFunction,ComponentPad*%
%ADD21O,1.700000X1.950000*%
%TD*%
%TA.AperFunction,Conductor*%
%ADD22C,3.000000*%
%TD*%
G04 APERTURE END LIST*
D10*
D11*
X86873433Y-171115125D02*
X86587719Y-171115125D01*
X86730576Y-171615125D02*
X86730576Y-171115125D01*
X86230577Y-171591316D02*
X86278196Y-171615125D01*
X86278196Y-171615125D02*
X86373434Y-171615125D01*
X86373434Y-171615125D02*
X86421053Y-171591316D01*
X86421053Y-171591316D02*
X86444862Y-171543696D01*
X86444862Y-171543696D02*
X86444862Y-171353220D01*
X86444862Y-171353220D02*
X86421053Y-171305601D01*
X86421053Y-171305601D02*
X86373434Y-171281792D01*
X86373434Y-171281792D02*
X86278196Y-171281792D01*
X86278196Y-171281792D02*
X86230577Y-171305601D01*
X86230577Y-171305601D02*
X86206767Y-171353220D01*
X86206767Y-171353220D02*
X86206767Y-171400839D01*
X86206767Y-171400839D02*
X86444862Y-171448458D01*
X85778196Y-171615125D02*
X85778196Y-171353220D01*
X85778196Y-171353220D02*
X85802006Y-171305601D01*
X85802006Y-171305601D02*
X85849625Y-171281792D01*
X85849625Y-171281792D02*
X85944863Y-171281792D01*
X85944863Y-171281792D02*
X85992482Y-171305601D01*
X85778196Y-171591316D02*
X85825815Y-171615125D01*
X85825815Y-171615125D02*
X85944863Y-171615125D01*
X85944863Y-171615125D02*
X85992482Y-171591316D01*
X85992482Y-171591316D02*
X86016291Y-171543696D01*
X86016291Y-171543696D02*
X86016291Y-171496077D01*
X86016291Y-171496077D02*
X85992482Y-171448458D01*
X85992482Y-171448458D02*
X85944863Y-171424649D01*
X85944863Y-171424649D02*
X85825815Y-171424649D01*
X85825815Y-171424649D02*
X85778196Y-171400839D01*
X85540101Y-171615125D02*
X85540101Y-171281792D01*
X85540101Y-171329411D02*
X85516291Y-171305601D01*
X85516291Y-171305601D02*
X85468672Y-171281792D01*
X85468672Y-171281792D02*
X85397244Y-171281792D01*
X85397244Y-171281792D02*
X85349625Y-171305601D01*
X85349625Y-171305601D02*
X85325815Y-171353220D01*
X85325815Y-171353220D02*
X85325815Y-171615125D01*
X85325815Y-171353220D02*
X85302006Y-171305601D01*
X85302006Y-171305601D02*
X85254387Y-171281792D01*
X85254387Y-171281792D02*
X85182958Y-171281792D01*
X85182958Y-171281792D02*
X85135339Y-171305601D01*
X85135339Y-171305601D02*
X85111529Y-171353220D01*
X85111529Y-171353220D02*
X85111529Y-171615125D01*
X84230577Y-171138935D02*
X84278196Y-171115125D01*
X84278196Y-171115125D02*
X84349625Y-171115125D01*
X84349625Y-171115125D02*
X84421053Y-171138935D01*
X84421053Y-171138935D02*
X84468672Y-171186554D01*
X84468672Y-171186554D02*
X84492482Y-171234173D01*
X84492482Y-171234173D02*
X84516291Y-171329411D01*
X84516291Y-171329411D02*
X84516291Y-171400839D01*
X84516291Y-171400839D02*
X84492482Y-171496077D01*
X84492482Y-171496077D02*
X84468672Y-171543696D01*
X84468672Y-171543696D02*
X84421053Y-171591316D01*
X84421053Y-171591316D02*
X84349625Y-171615125D01*
X84349625Y-171615125D02*
X84302006Y-171615125D01*
X84302006Y-171615125D02*
X84230577Y-171591316D01*
X84230577Y-171591316D02*
X84206768Y-171567506D01*
X84206768Y-171567506D02*
X84206768Y-171400839D01*
X84206768Y-171400839D02*
X84302006Y-171400839D01*
X83921053Y-171615125D02*
X83968672Y-171591316D01*
X83968672Y-171591316D02*
X83992482Y-171543696D01*
X83992482Y-171543696D02*
X83992482Y-171115125D01*
X83659148Y-171615125D02*
X83706767Y-171591316D01*
X83706767Y-171591316D02*
X83730577Y-171567506D01*
X83730577Y-171567506D02*
X83754386Y-171519887D01*
X83754386Y-171519887D02*
X83754386Y-171377030D01*
X83754386Y-171377030D02*
X83730577Y-171329411D01*
X83730577Y-171329411D02*
X83706767Y-171305601D01*
X83706767Y-171305601D02*
X83659148Y-171281792D01*
X83659148Y-171281792D02*
X83587720Y-171281792D01*
X83587720Y-171281792D02*
X83540101Y-171305601D01*
X83540101Y-171305601D02*
X83516291Y-171329411D01*
X83516291Y-171329411D02*
X83492482Y-171377030D01*
X83492482Y-171377030D02*
X83492482Y-171519887D01*
X83492482Y-171519887D02*
X83516291Y-171567506D01*
X83516291Y-171567506D02*
X83540101Y-171591316D01*
X83540101Y-171591316D02*
X83587720Y-171615125D01*
X83587720Y-171615125D02*
X83659148Y-171615125D01*
X83325815Y-171281792D02*
X83206767Y-171615125D01*
X83206767Y-171615125D02*
X83087720Y-171281792D01*
X82706768Y-171591316D02*
X82754387Y-171615125D01*
X82754387Y-171615125D02*
X82849625Y-171615125D01*
X82849625Y-171615125D02*
X82897244Y-171591316D01*
X82897244Y-171591316D02*
X82921053Y-171543696D01*
X82921053Y-171543696D02*
X82921053Y-171353220D01*
X82921053Y-171353220D02*
X82897244Y-171305601D01*
X82897244Y-171305601D02*
X82849625Y-171281792D01*
X82849625Y-171281792D02*
X82754387Y-171281792D01*
X82754387Y-171281792D02*
X82706768Y-171305601D01*
X82706768Y-171305601D02*
X82682958Y-171353220D01*
X82682958Y-171353220D02*
X82682958Y-171400839D01*
X82682958Y-171400839D02*
X82921053Y-171448458D01*
X82492482Y-171591316D02*
X82444863Y-171615125D01*
X82444863Y-171615125D02*
X82349625Y-171615125D01*
X82349625Y-171615125D02*
X82302006Y-171591316D01*
X82302006Y-171591316D02*
X82278197Y-171543696D01*
X82278197Y-171543696D02*
X82278197Y-171519887D01*
X82278197Y-171519887D02*
X82302006Y-171472268D01*
X82302006Y-171472268D02*
X82349625Y-171448458D01*
X82349625Y-171448458D02*
X82421054Y-171448458D01*
X82421054Y-171448458D02*
X82468673Y-171424649D01*
X82468673Y-171424649D02*
X82492482Y-171377030D01*
X82492482Y-171377030D02*
X82492482Y-171353220D01*
X82492482Y-171353220D02*
X82468673Y-171305601D01*
X82468673Y-171305601D02*
X82421054Y-171281792D01*
X82421054Y-171281792D02*
X82349625Y-171281792D01*
X82349625Y-171281792D02*
X82302006Y-171305601D01*
X86849624Y-171920097D02*
X86516291Y-171920097D01*
X86516291Y-171920097D02*
X86849624Y-172420097D01*
X86849624Y-172420097D02*
X86516291Y-172420097D01*
X86325815Y-172420097D02*
X86325815Y-171920097D01*
X86111529Y-172420097D02*
X86111529Y-172158192D01*
X86111529Y-172158192D02*
X86135339Y-172110573D01*
X86135339Y-172110573D02*
X86182958Y-172086764D01*
X86182958Y-172086764D02*
X86254386Y-172086764D01*
X86254386Y-172086764D02*
X86302005Y-172110573D01*
X86302005Y-172110573D02*
X86325815Y-172134383D01*
X85802005Y-172420097D02*
X85849624Y-172396288D01*
X85849624Y-172396288D02*
X85873434Y-172372478D01*
X85873434Y-172372478D02*
X85897243Y-172324859D01*
X85897243Y-172324859D02*
X85897243Y-172182002D01*
X85897243Y-172182002D02*
X85873434Y-172134383D01*
X85873434Y-172134383D02*
X85849624Y-172110573D01*
X85849624Y-172110573D02*
X85802005Y-172086764D01*
X85802005Y-172086764D02*
X85730577Y-172086764D01*
X85730577Y-172086764D02*
X85682958Y-172110573D01*
X85682958Y-172110573D02*
X85659148Y-172134383D01*
X85659148Y-172134383D02*
X85635339Y-172182002D01*
X85635339Y-172182002D02*
X85635339Y-172324859D01*
X85635339Y-172324859D02*
X85659148Y-172372478D01*
X85659148Y-172372478D02*
X85682958Y-172396288D01*
X85682958Y-172396288D02*
X85730577Y-172420097D01*
X85730577Y-172420097D02*
X85802005Y-172420097D01*
X85206767Y-172086764D02*
X85206767Y-172420097D01*
X85421053Y-172086764D02*
X85421053Y-172348668D01*
X85421053Y-172348668D02*
X85397243Y-172396288D01*
X85397243Y-172396288D02*
X85349624Y-172420097D01*
X85349624Y-172420097D02*
X85278196Y-172420097D01*
X85278196Y-172420097D02*
X85230577Y-172396288D01*
X85230577Y-172396288D02*
X85206767Y-172372478D01*
X84492482Y-172182002D02*
X84492482Y-172420097D01*
X84659148Y-171920097D02*
X84492482Y-172182002D01*
X84492482Y-172182002D02*
X84325815Y-171920097D01*
X84159149Y-172420097D02*
X84159149Y-172086764D01*
X84159149Y-171920097D02*
X84182958Y-171943907D01*
X84182958Y-171943907D02*
X84159149Y-171967716D01*
X84159149Y-171967716D02*
X84135339Y-171943907D01*
X84135339Y-171943907D02*
X84159149Y-171920097D01*
X84159149Y-171920097D02*
X84159149Y-171967716D01*
X83921054Y-172420097D02*
X83921054Y-171920097D01*
X83873435Y-172229621D02*
X83730578Y-172420097D01*
X83730578Y-172086764D02*
X83921054Y-172277240D01*
X83302006Y-172086764D02*
X83302006Y-172420097D01*
X83516292Y-172086764D02*
X83516292Y-172348668D01*
X83516292Y-172348668D02*
X83492482Y-172396288D01*
X83492482Y-172396288D02*
X83444863Y-172420097D01*
X83444863Y-172420097D02*
X83373435Y-172420097D01*
X83373435Y-172420097D02*
X83325816Y-172396288D01*
X83325816Y-172396288D02*
X83302006Y-172372478D01*
X83063911Y-172086764D02*
X83063911Y-172420097D01*
X83063911Y-172134383D02*
X83040101Y-172110573D01*
X83040101Y-172110573D02*
X82992482Y-172086764D01*
X82992482Y-172086764D02*
X82921054Y-172086764D01*
X82921054Y-172086764D02*
X82873435Y-172110573D01*
X82873435Y-172110573D02*
X82849625Y-172158192D01*
X82849625Y-172158192D02*
X82849625Y-172420097D01*
X86397243Y-173225069D02*
X86421053Y-173225069D01*
X86421053Y-173225069D02*
X86468672Y-173201260D01*
X86468672Y-173201260D02*
X86540100Y-173129831D01*
X86540100Y-173129831D02*
X86659148Y-172986974D01*
X86659148Y-172986974D02*
X86706767Y-172915545D01*
X86706767Y-172915545D02*
X86730576Y-172844117D01*
X86730576Y-172844117D02*
X86730576Y-172796498D01*
X86730576Y-172796498D02*
X86706767Y-172748879D01*
X86706767Y-172748879D02*
X86659148Y-172725069D01*
X86659148Y-172725069D02*
X86635338Y-172725069D01*
X86635338Y-172725069D02*
X86587719Y-172748879D01*
X86587719Y-172748879D02*
X86563910Y-172796498D01*
X86563910Y-172796498D02*
X86563910Y-172820307D01*
X86563910Y-172820307D02*
X86587719Y-172867926D01*
X86587719Y-172867926D02*
X86611529Y-172891736D01*
X86611529Y-172891736D02*
X86754386Y-172986974D01*
X86754386Y-172986974D02*
X86778195Y-173010783D01*
X86778195Y-173010783D02*
X86802005Y-173058402D01*
X86802005Y-173058402D02*
X86802005Y-173129831D01*
X86802005Y-173129831D02*
X86778195Y-173177450D01*
X86778195Y-173177450D02*
X86754386Y-173201260D01*
X86754386Y-173201260D02*
X86706767Y-173225069D01*
X86706767Y-173225069D02*
X86635338Y-173225069D01*
X86635338Y-173225069D02*
X86587719Y-173201260D01*
X86587719Y-173201260D02*
X86563910Y-173177450D01*
X86563910Y-173177450D02*
X86492481Y-173082212D01*
X86492481Y-173082212D02*
X86468672Y-173010783D01*
X86468672Y-173010783D02*
X86468672Y-172963164D01*
X85849624Y-172725069D02*
X85516291Y-172725069D01*
X85516291Y-172725069D02*
X85849624Y-173225069D01*
X85849624Y-173225069D02*
X85516291Y-173225069D01*
X85111529Y-173225069D02*
X85111529Y-172963164D01*
X85111529Y-172963164D02*
X85135339Y-172915545D01*
X85135339Y-172915545D02*
X85182958Y-172891736D01*
X85182958Y-172891736D02*
X85278196Y-172891736D01*
X85278196Y-172891736D02*
X85325815Y-172915545D01*
X85111529Y-173201260D02*
X85159148Y-173225069D01*
X85159148Y-173225069D02*
X85278196Y-173225069D01*
X85278196Y-173225069D02*
X85325815Y-173201260D01*
X85325815Y-173201260D02*
X85349624Y-173153640D01*
X85349624Y-173153640D02*
X85349624Y-173106021D01*
X85349624Y-173106021D02*
X85325815Y-173058402D01*
X85325815Y-173058402D02*
X85278196Y-173034593D01*
X85278196Y-173034593D02*
X85159148Y-173034593D01*
X85159148Y-173034593D02*
X85111529Y-173010783D01*
X84659148Y-173201260D02*
X84706767Y-173225069D01*
X84706767Y-173225069D02*
X84802005Y-173225069D01*
X84802005Y-173225069D02*
X84849624Y-173201260D01*
X84849624Y-173201260D02*
X84873434Y-173177450D01*
X84873434Y-173177450D02*
X84897243Y-173129831D01*
X84897243Y-173129831D02*
X84897243Y-172986974D01*
X84897243Y-172986974D02*
X84873434Y-172939355D01*
X84873434Y-172939355D02*
X84849624Y-172915545D01*
X84849624Y-172915545D02*
X84802005Y-172891736D01*
X84802005Y-172891736D02*
X84706767Y-172891736D01*
X84706767Y-172891736D02*
X84659148Y-172915545D01*
X84444863Y-173225069D02*
X84444863Y-172725069D01*
X84230577Y-173225069D02*
X84230577Y-172963164D01*
X84230577Y-172963164D02*
X84254387Y-172915545D01*
X84254387Y-172915545D02*
X84302006Y-172891736D01*
X84302006Y-172891736D02*
X84373434Y-172891736D01*
X84373434Y-172891736D02*
X84421053Y-172915545D01*
X84421053Y-172915545D02*
X84444863Y-172939355D01*
X83778196Y-173225069D02*
X83778196Y-172963164D01*
X83778196Y-172963164D02*
X83802006Y-172915545D01*
X83802006Y-172915545D02*
X83849625Y-172891736D01*
X83849625Y-172891736D02*
X83944863Y-172891736D01*
X83944863Y-172891736D02*
X83992482Y-172915545D01*
X83778196Y-173201260D02*
X83825815Y-173225069D01*
X83825815Y-173225069D02*
X83944863Y-173225069D01*
X83944863Y-173225069D02*
X83992482Y-173201260D01*
X83992482Y-173201260D02*
X84016291Y-173153640D01*
X84016291Y-173153640D02*
X84016291Y-173106021D01*
X84016291Y-173106021D02*
X83992482Y-173058402D01*
X83992482Y-173058402D02*
X83944863Y-173034593D01*
X83944863Y-173034593D02*
X83825815Y-173034593D01*
X83825815Y-173034593D02*
X83778196Y-173010783D01*
X83540101Y-173225069D02*
X83540101Y-172891736D01*
X83540101Y-172986974D02*
X83516291Y-172939355D01*
X83516291Y-172939355D02*
X83492482Y-172915545D01*
X83492482Y-172915545D02*
X83444863Y-172891736D01*
X83444863Y-172891736D02*
X83397244Y-172891736D01*
X83278196Y-172891736D02*
X83159148Y-173225069D01*
X83040101Y-172891736D02*
X83159148Y-173225069D01*
X83159148Y-173225069D02*
X83206767Y-173344117D01*
X83206767Y-173344117D02*
X83230577Y-173367926D01*
X83230577Y-173367926D02*
X83278196Y-173391736D01*
X82492482Y-173082212D02*
X82254387Y-173082212D01*
X82540101Y-173225069D02*
X82373435Y-172725069D01*
X82373435Y-172725069D02*
X82206768Y-173225069D01*
X82040102Y-172891736D02*
X82040102Y-173225069D01*
X82040102Y-172939355D02*
X82016292Y-172915545D01*
X82016292Y-172915545D02*
X81968673Y-172891736D01*
X81968673Y-172891736D02*
X81897245Y-172891736D01*
X81897245Y-172891736D02*
X81849626Y-172915545D01*
X81849626Y-172915545D02*
X81825816Y-172963164D01*
X81825816Y-172963164D02*
X81825816Y-173225069D01*
X81373435Y-172891736D02*
X81373435Y-173296498D01*
X81373435Y-173296498D02*
X81397245Y-173344117D01*
X81397245Y-173344117D02*
X81421054Y-173367926D01*
X81421054Y-173367926D02*
X81468673Y-173391736D01*
X81468673Y-173391736D02*
X81540102Y-173391736D01*
X81540102Y-173391736D02*
X81587721Y-173367926D01*
X81373435Y-173201260D02*
X81421054Y-173225069D01*
X81421054Y-173225069D02*
X81516292Y-173225069D01*
X81516292Y-173225069D02*
X81563911Y-173201260D01*
X81563911Y-173201260D02*
X81587721Y-173177450D01*
X81587721Y-173177450D02*
X81611530Y-173129831D01*
X81611530Y-173129831D02*
X81611530Y-172986974D01*
X81611530Y-172986974D02*
X81587721Y-172939355D01*
X81587721Y-172939355D02*
X81563911Y-172915545D01*
X81563911Y-172915545D02*
X81516292Y-172891736D01*
X81516292Y-172891736D02*
X81421054Y-172891736D01*
X81421054Y-172891736D02*
X81373435Y-172915545D01*
X86516291Y-173982422D02*
X86540100Y-174006232D01*
X86540100Y-174006232D02*
X86611529Y-174030041D01*
X86611529Y-174030041D02*
X86659148Y-174030041D01*
X86659148Y-174030041D02*
X86730576Y-174006232D01*
X86730576Y-174006232D02*
X86778195Y-173958612D01*
X86778195Y-173958612D02*
X86802005Y-173910993D01*
X86802005Y-173910993D02*
X86825814Y-173815755D01*
X86825814Y-173815755D02*
X86825814Y-173744327D01*
X86825814Y-173744327D02*
X86802005Y-173649089D01*
X86802005Y-173649089D02*
X86778195Y-173601470D01*
X86778195Y-173601470D02*
X86730576Y-173553851D01*
X86730576Y-173553851D02*
X86659148Y-173530041D01*
X86659148Y-173530041D02*
X86611529Y-173530041D01*
X86611529Y-173530041D02*
X86540100Y-173553851D01*
X86540100Y-173553851D02*
X86516291Y-173577660D01*
X86230576Y-174030041D02*
X86278195Y-174006232D01*
X86278195Y-174006232D02*
X86302005Y-173958612D01*
X86302005Y-173958612D02*
X86302005Y-173530041D01*
X85825814Y-173696708D02*
X85825814Y-174030041D01*
X86040100Y-173696708D02*
X86040100Y-173958612D01*
X86040100Y-173958612D02*
X86016290Y-174006232D01*
X86016290Y-174006232D02*
X85968671Y-174030041D01*
X85968671Y-174030041D02*
X85897243Y-174030041D01*
X85897243Y-174030041D02*
X85849624Y-174006232D01*
X85849624Y-174006232D02*
X85825814Y-173982422D01*
X85587719Y-174030041D02*
X85587719Y-173530041D01*
X85587719Y-173720517D02*
X85540100Y-173696708D01*
X85540100Y-173696708D02*
X85444862Y-173696708D01*
X85444862Y-173696708D02*
X85397243Y-173720517D01*
X85397243Y-173720517D02*
X85373433Y-173744327D01*
X85373433Y-173744327D02*
X85349624Y-173791946D01*
X85349624Y-173791946D02*
X85349624Y-173934803D01*
X85349624Y-173934803D02*
X85373433Y-173982422D01*
X85373433Y-173982422D02*
X85397243Y-174006232D01*
X85397243Y-174006232D02*
X85444862Y-174030041D01*
X85444862Y-174030041D02*
X85540100Y-174030041D01*
X85540100Y-174030041D02*
X85587719Y-174006232D01*
X84778195Y-173887184D02*
X84540100Y-173887184D01*
X84825814Y-174030041D02*
X84659148Y-173530041D01*
X84659148Y-173530041D02*
X84492481Y-174030041D01*
X84111529Y-173696708D02*
X84111529Y-174030041D01*
X84325815Y-173696708D02*
X84325815Y-173958612D01*
X84325815Y-173958612D02*
X84302005Y-174006232D01*
X84302005Y-174006232D02*
X84254386Y-174030041D01*
X84254386Y-174030041D02*
X84182958Y-174030041D01*
X84182958Y-174030041D02*
X84135339Y-174006232D01*
X84135339Y-174006232D02*
X84111529Y-173982422D01*
X83944862Y-173696708D02*
X83754386Y-173696708D01*
X83873434Y-173530041D02*
X83873434Y-173958612D01*
X83873434Y-173958612D02*
X83849624Y-174006232D01*
X83849624Y-174006232D02*
X83802005Y-174030041D01*
X83802005Y-174030041D02*
X83754386Y-174030041D01*
X83516291Y-174030041D02*
X83563910Y-174006232D01*
X83563910Y-174006232D02*
X83587720Y-173982422D01*
X83587720Y-173982422D02*
X83611529Y-173934803D01*
X83611529Y-173934803D02*
X83611529Y-173791946D01*
X83611529Y-173791946D02*
X83587720Y-173744327D01*
X83587720Y-173744327D02*
X83563910Y-173720517D01*
X83563910Y-173720517D02*
X83516291Y-173696708D01*
X83516291Y-173696708D02*
X83444863Y-173696708D01*
X83444863Y-173696708D02*
X83397244Y-173720517D01*
X83397244Y-173720517D02*
X83373434Y-173744327D01*
X83373434Y-173744327D02*
X83349625Y-173791946D01*
X83349625Y-173791946D02*
X83349625Y-173934803D01*
X83349625Y-173934803D02*
X83373434Y-173982422D01*
X83373434Y-173982422D02*
X83397244Y-174006232D01*
X83397244Y-174006232D02*
X83444863Y-174030041D01*
X83444863Y-174030041D02*
X83516291Y-174030041D01*
X83135339Y-174030041D02*
X83135339Y-173696708D01*
X83135339Y-173744327D02*
X83111529Y-173720517D01*
X83111529Y-173720517D02*
X83063910Y-173696708D01*
X83063910Y-173696708D02*
X82992482Y-173696708D01*
X82992482Y-173696708D02*
X82944863Y-173720517D01*
X82944863Y-173720517D02*
X82921053Y-173768136D01*
X82921053Y-173768136D02*
X82921053Y-174030041D01*
X82921053Y-173768136D02*
X82897244Y-173720517D01*
X82897244Y-173720517D02*
X82849625Y-173696708D01*
X82849625Y-173696708D02*
X82778196Y-173696708D01*
X82778196Y-173696708D02*
X82730577Y-173720517D01*
X82730577Y-173720517D02*
X82706767Y-173768136D01*
X82706767Y-173768136D02*
X82706767Y-174030041D01*
X82254386Y-174030041D02*
X82254386Y-173768136D01*
X82254386Y-173768136D02*
X82278196Y-173720517D01*
X82278196Y-173720517D02*
X82325815Y-173696708D01*
X82325815Y-173696708D02*
X82421053Y-173696708D01*
X82421053Y-173696708D02*
X82468672Y-173720517D01*
X82254386Y-174006232D02*
X82302005Y-174030041D01*
X82302005Y-174030041D02*
X82421053Y-174030041D01*
X82421053Y-174030041D02*
X82468672Y-174006232D01*
X82468672Y-174006232D02*
X82492481Y-173958612D01*
X82492481Y-173958612D02*
X82492481Y-173910993D01*
X82492481Y-173910993D02*
X82468672Y-173863374D01*
X82468672Y-173863374D02*
X82421053Y-173839565D01*
X82421053Y-173839565D02*
X82302005Y-173839565D01*
X82302005Y-173839565D02*
X82254386Y-173815755D01*
X82087719Y-173696708D02*
X81897243Y-173696708D01*
X82016291Y-173530041D02*
X82016291Y-173958612D01*
X82016291Y-173958612D02*
X81992481Y-174006232D01*
X81992481Y-174006232D02*
X81944862Y-174030041D01*
X81944862Y-174030041D02*
X81897243Y-174030041D01*
X81730577Y-174030041D02*
X81730577Y-173696708D01*
X81730577Y-173530041D02*
X81754386Y-173553851D01*
X81754386Y-173553851D02*
X81730577Y-173577660D01*
X81730577Y-173577660D02*
X81706767Y-173553851D01*
X81706767Y-173553851D02*
X81730577Y-173530041D01*
X81730577Y-173530041D02*
X81730577Y-173577660D01*
X81278196Y-174006232D02*
X81325815Y-174030041D01*
X81325815Y-174030041D02*
X81421053Y-174030041D01*
X81421053Y-174030041D02*
X81468672Y-174006232D01*
X81468672Y-174006232D02*
X81492482Y-173982422D01*
X81492482Y-173982422D02*
X81516291Y-173934803D01*
X81516291Y-173934803D02*
X81516291Y-173791946D01*
X81516291Y-173791946D02*
X81492482Y-173744327D01*
X81492482Y-173744327D02*
X81468672Y-173720517D01*
X81468672Y-173720517D02*
X81421053Y-173696708D01*
X81421053Y-173696708D02*
X81325815Y-173696708D01*
X81325815Y-173696708D02*
X81278196Y-173720517D01*
X80849625Y-174030041D02*
X80849625Y-173768136D01*
X80849625Y-173768136D02*
X80873435Y-173720517D01*
X80873435Y-173720517D02*
X80921054Y-173696708D01*
X80921054Y-173696708D02*
X81016292Y-173696708D01*
X81016292Y-173696708D02*
X81063911Y-173720517D01*
X80849625Y-174006232D02*
X80897244Y-174030041D01*
X80897244Y-174030041D02*
X81016292Y-174030041D01*
X81016292Y-174030041D02*
X81063911Y-174006232D01*
X81063911Y-174006232D02*
X81087720Y-173958612D01*
X81087720Y-173958612D02*
X81087720Y-173910993D01*
X81087720Y-173910993D02*
X81063911Y-173863374D01*
X81063911Y-173863374D02*
X81016292Y-173839565D01*
X81016292Y-173839565D02*
X80897244Y-173839565D01*
X80897244Y-173839565D02*
X80849625Y-173815755D01*
X86825814Y-174811204D02*
X86754386Y-174835013D01*
X86754386Y-174835013D02*
X86635338Y-174835013D01*
X86635338Y-174835013D02*
X86587719Y-174811204D01*
X86587719Y-174811204D02*
X86563910Y-174787394D01*
X86563910Y-174787394D02*
X86540100Y-174739775D01*
X86540100Y-174739775D02*
X86540100Y-174692156D01*
X86540100Y-174692156D02*
X86563910Y-174644537D01*
X86563910Y-174644537D02*
X86587719Y-174620727D01*
X86587719Y-174620727D02*
X86635338Y-174596918D01*
X86635338Y-174596918D02*
X86730576Y-174573108D01*
X86730576Y-174573108D02*
X86778195Y-174549299D01*
X86778195Y-174549299D02*
X86802005Y-174525489D01*
X86802005Y-174525489D02*
X86825814Y-174477870D01*
X86825814Y-174477870D02*
X86825814Y-174430251D01*
X86825814Y-174430251D02*
X86802005Y-174382632D01*
X86802005Y-174382632D02*
X86778195Y-174358823D01*
X86778195Y-174358823D02*
X86730576Y-174335013D01*
X86730576Y-174335013D02*
X86611529Y-174335013D01*
X86611529Y-174335013D02*
X86540100Y-174358823D01*
X86325815Y-174835013D02*
X86325815Y-174501680D01*
X86325815Y-174335013D02*
X86349624Y-174358823D01*
X86349624Y-174358823D02*
X86325815Y-174382632D01*
X86325815Y-174382632D02*
X86302005Y-174358823D01*
X86302005Y-174358823D02*
X86325815Y-174335013D01*
X86325815Y-174335013D02*
X86325815Y-174382632D01*
X86087720Y-174501680D02*
X86087720Y-174835013D01*
X86087720Y-174549299D02*
X86063910Y-174525489D01*
X86063910Y-174525489D02*
X86016291Y-174501680D01*
X86016291Y-174501680D02*
X85944863Y-174501680D01*
X85944863Y-174501680D02*
X85897244Y-174525489D01*
X85897244Y-174525489D02*
X85873434Y-174573108D01*
X85873434Y-174573108D02*
X85873434Y-174835013D01*
X85421053Y-174501680D02*
X85421053Y-174906442D01*
X85421053Y-174906442D02*
X85444863Y-174954061D01*
X85444863Y-174954061D02*
X85468672Y-174977870D01*
X85468672Y-174977870D02*
X85516291Y-175001680D01*
X85516291Y-175001680D02*
X85587720Y-175001680D01*
X85587720Y-175001680D02*
X85635339Y-174977870D01*
X85421053Y-174811204D02*
X85468672Y-174835013D01*
X85468672Y-174835013D02*
X85563910Y-174835013D01*
X85563910Y-174835013D02*
X85611529Y-174811204D01*
X85611529Y-174811204D02*
X85635339Y-174787394D01*
X85635339Y-174787394D02*
X85659148Y-174739775D01*
X85659148Y-174739775D02*
X85659148Y-174596918D01*
X85659148Y-174596918D02*
X85635339Y-174549299D01*
X85635339Y-174549299D02*
X85611529Y-174525489D01*
X85611529Y-174525489D02*
X85563910Y-174501680D01*
X85563910Y-174501680D02*
X85468672Y-174501680D01*
X85468672Y-174501680D02*
X85421053Y-174525489D01*
X84968672Y-174835013D02*
X84968672Y-174573108D01*
X84968672Y-174573108D02*
X84992482Y-174525489D01*
X84992482Y-174525489D02*
X85040101Y-174501680D01*
X85040101Y-174501680D02*
X85135339Y-174501680D01*
X85135339Y-174501680D02*
X85182958Y-174525489D01*
X84968672Y-174811204D02*
X85016291Y-174835013D01*
X85016291Y-174835013D02*
X85135339Y-174835013D01*
X85135339Y-174835013D02*
X85182958Y-174811204D01*
X85182958Y-174811204D02*
X85206767Y-174763584D01*
X85206767Y-174763584D02*
X85206767Y-174715965D01*
X85206767Y-174715965D02*
X85182958Y-174668346D01*
X85182958Y-174668346D02*
X85135339Y-174644537D01*
X85135339Y-174644537D02*
X85016291Y-174644537D01*
X85016291Y-174644537D02*
X84968672Y-174620727D01*
X84730577Y-174501680D02*
X84730577Y-175001680D01*
X84730577Y-174525489D02*
X84682958Y-174501680D01*
X84682958Y-174501680D02*
X84587720Y-174501680D01*
X84587720Y-174501680D02*
X84540101Y-174525489D01*
X84540101Y-174525489D02*
X84516291Y-174549299D01*
X84516291Y-174549299D02*
X84492482Y-174596918D01*
X84492482Y-174596918D02*
X84492482Y-174739775D01*
X84492482Y-174739775D02*
X84516291Y-174787394D01*
X84516291Y-174787394D02*
X84540101Y-174811204D01*
X84540101Y-174811204D02*
X84587720Y-174835013D01*
X84587720Y-174835013D02*
X84682958Y-174835013D01*
X84682958Y-174835013D02*
X84730577Y-174811204D01*
X84206767Y-174835013D02*
X84254386Y-174811204D01*
X84254386Y-174811204D02*
X84278196Y-174787394D01*
X84278196Y-174787394D02*
X84302005Y-174739775D01*
X84302005Y-174739775D02*
X84302005Y-174596918D01*
X84302005Y-174596918D02*
X84278196Y-174549299D01*
X84278196Y-174549299D02*
X84254386Y-174525489D01*
X84254386Y-174525489D02*
X84206767Y-174501680D01*
X84206767Y-174501680D02*
X84135339Y-174501680D01*
X84135339Y-174501680D02*
X84087720Y-174525489D01*
X84087720Y-174525489D02*
X84063910Y-174549299D01*
X84063910Y-174549299D02*
X84040101Y-174596918D01*
X84040101Y-174596918D02*
X84040101Y-174739775D01*
X84040101Y-174739775D02*
X84063910Y-174787394D01*
X84063910Y-174787394D02*
X84087720Y-174811204D01*
X84087720Y-174811204D02*
X84135339Y-174835013D01*
X84135339Y-174835013D02*
X84206767Y-174835013D01*
X83825815Y-174835013D02*
X83825815Y-174501680D01*
X83825815Y-174596918D02*
X83802005Y-174549299D01*
X83802005Y-174549299D02*
X83778196Y-174525489D01*
X83778196Y-174525489D02*
X83730577Y-174501680D01*
X83730577Y-174501680D02*
X83682958Y-174501680D01*
X83325815Y-174811204D02*
X83373434Y-174835013D01*
X83373434Y-174835013D02*
X83468672Y-174835013D01*
X83468672Y-174835013D02*
X83516291Y-174811204D01*
X83516291Y-174811204D02*
X83540100Y-174763584D01*
X83540100Y-174763584D02*
X83540100Y-174573108D01*
X83540100Y-174573108D02*
X83516291Y-174525489D01*
X83516291Y-174525489D02*
X83468672Y-174501680D01*
X83468672Y-174501680D02*
X83373434Y-174501680D01*
X83373434Y-174501680D02*
X83325815Y-174525489D01*
X83325815Y-174525489D02*
X83302005Y-174573108D01*
X83302005Y-174573108D02*
X83302005Y-174620727D01*
X83302005Y-174620727D02*
X83540100Y-174668346D01*
X82730577Y-174382632D02*
X82706768Y-174358823D01*
X82706768Y-174358823D02*
X82659149Y-174335013D01*
X82659149Y-174335013D02*
X82540101Y-174335013D01*
X82540101Y-174335013D02*
X82492482Y-174358823D01*
X82492482Y-174358823D02*
X82468673Y-174382632D01*
X82468673Y-174382632D02*
X82444863Y-174430251D01*
X82444863Y-174430251D02*
X82444863Y-174477870D01*
X82444863Y-174477870D02*
X82468673Y-174549299D01*
X82468673Y-174549299D02*
X82754387Y-174835013D01*
X82754387Y-174835013D02*
X82444863Y-174835013D01*
X82135340Y-174335013D02*
X82087721Y-174335013D01*
X82087721Y-174335013D02*
X82040102Y-174358823D01*
X82040102Y-174358823D02*
X82016292Y-174382632D01*
X82016292Y-174382632D02*
X81992483Y-174430251D01*
X81992483Y-174430251D02*
X81968673Y-174525489D01*
X81968673Y-174525489D02*
X81968673Y-174644537D01*
X81968673Y-174644537D02*
X81992483Y-174739775D01*
X81992483Y-174739775D02*
X82016292Y-174787394D01*
X82016292Y-174787394D02*
X82040102Y-174811204D01*
X82040102Y-174811204D02*
X82087721Y-174835013D01*
X82087721Y-174835013D02*
X82135340Y-174835013D01*
X82135340Y-174835013D02*
X82182959Y-174811204D01*
X82182959Y-174811204D02*
X82206768Y-174787394D01*
X82206768Y-174787394D02*
X82230578Y-174739775D01*
X82230578Y-174739775D02*
X82254387Y-174644537D01*
X82254387Y-174644537D02*
X82254387Y-174525489D01*
X82254387Y-174525489D02*
X82230578Y-174430251D01*
X82230578Y-174430251D02*
X82206768Y-174382632D01*
X82206768Y-174382632D02*
X82182959Y-174358823D01*
X82182959Y-174358823D02*
X82135340Y-174335013D01*
X81778197Y-174382632D02*
X81754388Y-174358823D01*
X81754388Y-174358823D02*
X81706769Y-174335013D01*
X81706769Y-174335013D02*
X81587721Y-174335013D01*
X81587721Y-174335013D02*
X81540102Y-174358823D01*
X81540102Y-174358823D02*
X81516293Y-174382632D01*
X81516293Y-174382632D02*
X81492483Y-174430251D01*
X81492483Y-174430251D02*
X81492483Y-174477870D01*
X81492483Y-174477870D02*
X81516293Y-174549299D01*
X81516293Y-174549299D02*
X81802007Y-174835013D01*
X81802007Y-174835013D02*
X81492483Y-174835013D01*
X81063912Y-174501680D02*
X81063912Y-174835013D01*
X81182960Y-174311204D02*
X81302007Y-174668346D01*
X81302007Y-174668346D02*
X80992484Y-174668346D01*
D12*
%TO.P,H3,1*%
%TO.N,N/C*%
X81600000Y-167000000D03*
X82302944Y-165302944D03*
X82302944Y-168697056D03*
X84000000Y-164600000D03*
D13*
X84000000Y-167000000D03*
D12*
X84000000Y-169400000D03*
X85697056Y-165302944D03*
X85697056Y-168697056D03*
X86400000Y-167000000D03*
%TD*%
D14*
%TO.P,J2,1,Pin_1*%
%TO.N,GND*%
X101745495Y-151633839D03*
D15*
%TO.P,J2,2,Pin_2*%
%TO.N,+12V*%
X101745495Y-144433839D03*
%TD*%
D12*
%TO.P,H4,1*%
%TO.N,N/C*%
X110600000Y-158000000D03*
X111302944Y-156302944D03*
X111302944Y-159697056D03*
X113000000Y-155600000D03*
D13*
X113000000Y-158000000D03*
D12*
X113000000Y-160400000D03*
X114697056Y-156302944D03*
X114697056Y-159697056D03*
X115400000Y-158000000D03*
%TD*%
D14*
%TO.P,J1,1,Pin_1*%
%TO.N,GND*%
X92245495Y-151633839D03*
D15*
%TO.P,J1,2,Pin_2*%
%TO.N,+12V*%
X92245495Y-144433839D03*
%TD*%
D16*
%TO.P,J5,1,Pin_1*%
%TO.N,GND*%
X114500000Y-165750000D03*
D17*
%TO.P,J5,2,Pin_2*%
%TO.N,+12V*%
X114500000Y-168250000D03*
%TO.P,J5,3,Pin_3*%
X114500000Y-170750000D03*
D16*
%TO.P,J5,4,Pin_4*%
%TO.N,GND*%
X114500000Y-173250000D03*
%TD*%
D18*
%TO.P,J3,1,Pin_1*%
%TO.N,GND*%
X85000000Y-150508839D03*
D19*
%TO.P,J3,2,Pin_2*%
%TO.N,+12V*%
X85000000Y-145508839D03*
%TD*%
D20*
%TO.P,J6,1,Pin_1*%
%TO.N,GND*%
X100750000Y-158750000D03*
D21*
%TO.P,J6,2,Pin_2*%
%TO.N,+12V*%
X98250000Y-158750000D03*
%TO.P,J6,3,Pin_3*%
X95750000Y-158750000D03*
D20*
%TO.P,J6,4,Pin_4*%
%TO.N,GND*%
X93250000Y-158750000D03*
%TD*%
D18*
%TO.P,J4,1,Pin_1*%
%TO.N,GND*%
X109000000Y-150508839D03*
D19*
%TO.P,J4,2,Pin_2*%
%TO.N,+12V*%
X109000000Y-145508839D03*
%TD*%
D22*
%TO.N,GND*%
X91120495Y-150508839D02*
X92245495Y-151633839D01*
X102870495Y-150508839D02*
X101745495Y-151633839D01*
%TD*%
%TA.AperFunction,Conductor*%
%TO.N,+12V*%
G36*
X110792860Y-134501097D02*
G01*
X110806623Y-134502452D01*
X110872097Y-134508901D01*
X110895927Y-134513640D01*
X110966268Y-134534978D01*
X110988716Y-134544277D01*
X111053535Y-134578923D01*
X111073745Y-134592427D01*
X111135270Y-134642918D01*
X111144287Y-134651091D01*
X117348888Y-140855692D01*
X117357052Y-140864698D01*
X117407574Y-140926259D01*
X117421070Y-140946458D01*
X117444648Y-140990569D01*
X117455718Y-141011281D01*
X117465018Y-141033736D01*
X117486353Y-141104066D01*
X117491096Y-141127907D01*
X117498903Y-141207165D01*
X117499500Y-141219320D01*
X117499500Y-153876000D01*
X117479815Y-153943039D01*
X117427011Y-153988794D01*
X117375500Y-154000000D01*
X114310732Y-154000000D01*
X114268957Y-153992751D01*
X114220817Y-153975526D01*
X114220815Y-153975525D01*
X114220811Y-153975524D01*
X114021811Y-153925677D01*
X113820471Y-153875244D01*
X113820466Y-153875243D01*
X113820465Y-153875243D01*
X113719577Y-153860277D01*
X113412227Y-153814686D01*
X113412223Y-153814685D01*
X113412218Y-153814685D01*
X113000000Y-153794434D01*
X112587782Y-153814685D01*
X112587776Y-153814685D01*
X112587772Y-153814686D01*
X112179528Y-153875244D01*
X111908877Y-153943039D01*
X111779189Y-153975524D01*
X111779186Y-153975524D01*
X111779178Y-153975527D01*
X111390620Y-154114555D01*
X111390604Y-154114562D01*
X111390600Y-154114564D01*
X111059239Y-154271286D01*
X111017506Y-154291024D01*
X110663515Y-154503198D01*
X110332011Y-154749058D01*
X110026215Y-155026215D01*
X109749058Y-155332011D01*
X109503198Y-155663515D01*
X109291024Y-156017506D01*
X109114562Y-156390604D01*
X109114555Y-156390620D01*
X108975527Y-156779178D01*
X108975524Y-156779186D01*
X108975524Y-156779189D01*
X108974092Y-156784905D01*
X108875244Y-157179528D01*
X108875243Y-157179535D01*
X108814685Y-157587782D01*
X108794434Y-158000000D01*
X108814685Y-158412218D01*
X108814685Y-158412223D01*
X108814686Y-158412227D01*
X108875244Y-158820471D01*
X108975527Y-159220821D01*
X109114555Y-159609379D01*
X109114562Y-159609395D01*
X109114564Y-159609400D01*
X109291022Y-159982490D01*
X109397111Y-160159488D01*
X109469135Y-160279654D01*
X109503200Y-160336487D01*
X109743205Y-160660097D01*
X109749058Y-160667988D01*
X110026215Y-160973784D01*
X110332011Y-161250941D01*
X110332017Y-161250946D01*
X110663513Y-161496800D01*
X111017510Y-161708978D01*
X111390600Y-161885436D01*
X111390609Y-161885439D01*
X111390620Y-161885444D01*
X111710783Y-162000000D01*
X111779189Y-162024476D01*
X112179535Y-162124757D01*
X112587782Y-162185315D01*
X113000000Y-162205566D01*
X113412218Y-162185315D01*
X113820465Y-162124757D01*
X114220811Y-162024476D01*
X114268957Y-162007248D01*
X114310732Y-162000000D01*
X117375500Y-162000000D01*
X117442539Y-162019685D01*
X117488294Y-162072489D01*
X117499500Y-162124000D01*
X117499500Y-174993038D01*
X117498720Y-175006923D01*
X117488540Y-175097264D01*
X117482362Y-175124333D01*
X117454648Y-175203537D01*
X117442600Y-175228555D01*
X117397957Y-175299604D01*
X117380644Y-175321313D01*
X117321313Y-175380644D01*
X117299604Y-175397957D01*
X117228555Y-175442600D01*
X117203537Y-175454648D01*
X117124333Y-175482362D01*
X117097264Y-175488540D01*
X117017075Y-175497576D01*
X117006921Y-175498720D01*
X116993038Y-175499500D01*
X88124000Y-175499500D01*
X88056961Y-175479815D01*
X88011206Y-175427011D01*
X88000000Y-175375500D01*
X88000000Y-172585777D01*
X112524500Y-172585777D01*
X112524500Y-173914208D01*
X112524501Y-173914223D01*
X112534904Y-174046413D01*
X112534905Y-174046420D01*
X112589902Y-174264678D01*
X112589903Y-174264681D01*
X112682991Y-174469622D01*
X112682997Y-174469632D01*
X112811174Y-174654645D01*
X112811178Y-174654650D01*
X112811181Y-174654654D01*
X112970346Y-174813819D01*
X112970350Y-174813822D01*
X112970354Y-174813825D01*
X113109603Y-174910297D01*
X113155374Y-174942007D01*
X113360317Y-175035096D01*
X113360321Y-175035097D01*
X113578579Y-175090094D01*
X113578581Y-175090094D01*
X113578588Y-175090096D01*
X113710783Y-175100500D01*
X115289216Y-175100499D01*
X115421412Y-175090096D01*
X115639683Y-175035096D01*
X115844626Y-174942007D01*
X116029654Y-174813819D01*
X116188819Y-174654654D01*
X116317007Y-174469626D01*
X116410096Y-174264683D01*
X116465096Y-174046412D01*
X116475500Y-173914217D01*
X116475499Y-172585784D01*
X116465096Y-172453588D01*
X116410096Y-172235317D01*
X116317007Y-172030374D01*
X116188819Y-171845346D01*
X116029654Y-171686181D01*
X116029650Y-171686178D01*
X116029645Y-171686174D01*
X115844632Y-171557997D01*
X115844630Y-171557995D01*
X115844626Y-171557993D01*
X115639683Y-171464904D01*
X115639681Y-171464903D01*
X115639678Y-171464902D01*
X115421420Y-171409905D01*
X115421413Y-171409904D01*
X115377347Y-171406436D01*
X115289217Y-171399500D01*
X115289215Y-171399500D01*
X113710791Y-171399500D01*
X113710776Y-171399501D01*
X113578586Y-171409904D01*
X113578579Y-171409905D01*
X113360321Y-171464902D01*
X113360318Y-171464903D01*
X113155377Y-171557991D01*
X113155367Y-171557997D01*
X112970354Y-171686174D01*
X112970342Y-171686184D01*
X112811184Y-171845342D01*
X112811174Y-171845354D01*
X112682997Y-172030367D01*
X112682991Y-172030377D01*
X112589903Y-172235318D01*
X112589902Y-172235321D01*
X112534905Y-172453579D01*
X112534904Y-172453586D01*
X112524500Y-172585777D01*
X88000000Y-172585777D01*
X88000000Y-168310732D01*
X88007249Y-168268956D01*
X88024476Y-168220811D01*
X88124757Y-167820465D01*
X88185315Y-167412218D01*
X88205566Y-167000000D01*
X88185315Y-166587782D01*
X88124757Y-166179535D01*
X88024476Y-165779189D01*
X88014654Y-165751738D01*
X87885444Y-165390620D01*
X87885437Y-165390604D01*
X87885436Y-165390600D01*
X87741266Y-165085777D01*
X112524500Y-165085777D01*
X112524500Y-166414208D01*
X112524501Y-166414223D01*
X112534904Y-166546413D01*
X112534905Y-166546420D01*
X112589902Y-166764678D01*
X112589903Y-166764681D01*
X112682991Y-166969622D01*
X112682997Y-166969632D01*
X112811174Y-167154645D01*
X112811178Y-167154650D01*
X112811181Y-167154654D01*
X112970346Y-167313819D01*
X112970350Y-167313822D01*
X112970354Y-167313825D01*
X113109603Y-167410297D01*
X113155374Y-167442007D01*
X113360317Y-167535096D01*
X113360321Y-167535097D01*
X113578579Y-167590094D01*
X113578581Y-167590094D01*
X113578588Y-167590096D01*
X113710783Y-167600500D01*
X115289216Y-167600499D01*
X115421412Y-167590096D01*
X115639683Y-167535096D01*
X115844626Y-167442007D01*
X116029654Y-167313819D01*
X116188819Y-167154654D01*
X116317007Y-166969626D01*
X116410096Y-166764683D01*
X116465096Y-166546412D01*
X116475500Y-166414217D01*
X116475499Y-165085784D01*
X116465096Y-164953588D01*
X116410096Y-164735317D01*
X116317007Y-164530374D01*
X116188819Y-164345346D01*
X116029654Y-164186181D01*
X116029650Y-164186178D01*
X116029645Y-164186174D01*
X115844632Y-164057997D01*
X115844630Y-164057995D01*
X115844626Y-164057993D01*
X115774666Y-164026216D01*
X115639681Y-163964903D01*
X115639678Y-163964902D01*
X115421420Y-163909905D01*
X115421413Y-163909904D01*
X115377347Y-163906436D01*
X115289217Y-163899500D01*
X115289215Y-163899500D01*
X113710791Y-163899500D01*
X113710776Y-163899501D01*
X113578586Y-163909904D01*
X113578579Y-163909905D01*
X113360321Y-163964902D01*
X113360318Y-163964903D01*
X113155377Y-164057991D01*
X113155367Y-164057997D01*
X112970354Y-164186174D01*
X112970342Y-164186184D01*
X112811184Y-164345342D01*
X112811174Y-164345354D01*
X112682997Y-164530367D01*
X112682991Y-164530377D01*
X112589903Y-164735318D01*
X112589902Y-164735321D01*
X112534905Y-164953579D01*
X112534904Y-164953586D01*
X112524500Y-165085777D01*
X87741266Y-165085777D01*
X87708978Y-165017510D01*
X87496800Y-164663513D01*
X87250946Y-164332017D01*
X87118771Y-164186184D01*
X86973784Y-164026215D01*
X86667988Y-163749058D01*
X86336484Y-163503198D01*
X85982493Y-163291024D01*
X85982494Y-163291024D01*
X85982490Y-163291022D01*
X85609400Y-163114564D01*
X85609396Y-163114562D01*
X85609395Y-163114562D01*
X85609379Y-163114555D01*
X85220821Y-162975527D01*
X85220815Y-162975525D01*
X85220811Y-162975524D01*
X85022205Y-162925776D01*
X84820471Y-162875244D01*
X84820466Y-162875243D01*
X84820465Y-162875243D01*
X84719577Y-162860277D01*
X84412227Y-162814686D01*
X84412223Y-162814685D01*
X84412218Y-162814685D01*
X84000000Y-162794434D01*
X83587782Y-162814685D01*
X83587776Y-162814685D01*
X83587772Y-162814686D01*
X83179528Y-162875244D01*
X82877907Y-162950796D01*
X82779189Y-162975524D01*
X82779186Y-162975524D01*
X82779182Y-162975526D01*
X82731043Y-162992751D01*
X82689268Y-163000000D01*
X79624500Y-163000000D01*
X79557461Y-162980315D01*
X79511706Y-162927511D01*
X79500500Y-162876000D01*
X79500500Y-157960777D01*
X91399500Y-157960777D01*
X91399500Y-159539208D01*
X91399501Y-159539223D01*
X91409904Y-159671413D01*
X91409905Y-159671420D01*
X91464902Y-159889678D01*
X91464903Y-159889681D01*
X91557991Y-160094622D01*
X91557997Y-160094632D01*
X91686174Y-160279645D01*
X91686178Y-160279650D01*
X91686181Y-160279654D01*
X91845346Y-160438819D01*
X91845350Y-160438822D01*
X91845354Y-160438825D01*
X91984603Y-160535297D01*
X92030374Y-160567007D01*
X92235317Y-160660096D01*
X92235321Y-160660097D01*
X92453579Y-160715094D01*
X92453581Y-160715094D01*
X92453588Y-160715096D01*
X92585783Y-160725500D01*
X93914216Y-160725499D01*
X94046412Y-160715096D01*
X94264683Y-160660096D01*
X94469626Y-160567007D01*
X94654654Y-160438819D01*
X94813819Y-160279654D01*
X94942007Y-160094626D01*
X95035096Y-159889683D01*
X95090096Y-159671412D01*
X95100500Y-159539217D01*
X95100499Y-157960784D01*
X95100498Y-157960777D01*
X98899500Y-157960777D01*
X98899500Y-159539208D01*
X98899501Y-159539223D01*
X98909904Y-159671413D01*
X98909905Y-159671420D01*
X98964902Y-159889678D01*
X98964903Y-159889681D01*
X99057991Y-160094622D01*
X99057997Y-160094632D01*
X99186174Y-160279645D01*
X99186178Y-160279650D01*
X99186181Y-160279654D01*
X99345346Y-160438819D01*
X99345350Y-160438822D01*
X99345354Y-160438825D01*
X99484603Y-160535297D01*
X99530374Y-160567007D01*
X99735317Y-160660096D01*
X99735321Y-160660097D01*
X99953579Y-160715094D01*
X99953581Y-160715094D01*
X99953588Y-160715096D01*
X100085783Y-160725500D01*
X101414216Y-160725499D01*
X101546412Y-160715096D01*
X101764683Y-160660096D01*
X101969626Y-160567007D01*
X102154654Y-160438819D01*
X102313819Y-160279654D01*
X102442007Y-160094626D01*
X102535096Y-159889683D01*
X102590096Y-159671412D01*
X102600500Y-159539217D01*
X102600499Y-157960784D01*
X102590096Y-157828588D01*
X102535096Y-157610317D01*
X102442007Y-157405374D01*
X102313819Y-157220346D01*
X102154654Y-157061181D01*
X102154650Y-157061178D01*
X102154645Y-157061174D01*
X101969632Y-156932997D01*
X101969630Y-156932995D01*
X101969626Y-156932993D01*
X101764683Y-156839904D01*
X101764681Y-156839903D01*
X101764678Y-156839902D01*
X101546420Y-156784905D01*
X101546413Y-156784904D01*
X101473656Y-156779178D01*
X101414217Y-156774500D01*
X101414215Y-156774500D01*
X100085791Y-156774500D01*
X100085776Y-156774501D01*
X99953586Y-156784904D01*
X99953579Y-156784905D01*
X99735321Y-156839902D01*
X99735318Y-156839903D01*
X99530377Y-156932991D01*
X99530367Y-156932997D01*
X99345354Y-157061174D01*
X99345342Y-157061184D01*
X99186184Y-157220342D01*
X99186174Y-157220354D01*
X99057997Y-157405367D01*
X99057991Y-157405377D01*
X98964903Y-157610318D01*
X98964902Y-157610321D01*
X98909905Y-157828579D01*
X98909904Y-157828586D01*
X98899500Y-157960777D01*
X95100498Y-157960777D01*
X95090096Y-157828588D01*
X95035096Y-157610317D01*
X94942007Y-157405374D01*
X94813819Y-157220346D01*
X94654654Y-157061181D01*
X94654650Y-157061178D01*
X94654645Y-157061174D01*
X94469632Y-156932997D01*
X94469630Y-156932995D01*
X94469626Y-156932993D01*
X94264683Y-156839904D01*
X94264681Y-156839903D01*
X94264678Y-156839902D01*
X94046420Y-156784905D01*
X94046413Y-156784904D01*
X93973656Y-156779178D01*
X93914217Y-156774500D01*
X93914215Y-156774500D01*
X92585791Y-156774500D01*
X92585776Y-156774501D01*
X92453586Y-156784904D01*
X92453579Y-156784905D01*
X92235321Y-156839902D01*
X92235318Y-156839903D01*
X92030377Y-156932991D01*
X92030367Y-156932997D01*
X91845354Y-157061174D01*
X91845342Y-157061184D01*
X91686184Y-157220342D01*
X91686174Y-157220354D01*
X91557997Y-157405367D01*
X91557991Y-157405377D01*
X91464903Y-157610318D01*
X91464902Y-157610321D01*
X91409905Y-157828579D01*
X91409904Y-157828586D01*
X91399500Y-157960777D01*
X79500500Y-157960777D01*
X79500500Y-148794616D01*
X82099500Y-148794616D01*
X82099500Y-152223047D01*
X82099501Y-152223062D01*
X82109904Y-152355252D01*
X82109905Y-152355259D01*
X82164902Y-152573517D01*
X82164903Y-152573520D01*
X82257991Y-152778461D01*
X82257997Y-152778471D01*
X82386174Y-152963484D01*
X82386178Y-152963489D01*
X82386181Y-152963493D01*
X82545346Y-153122658D01*
X82545350Y-153122661D01*
X82545354Y-153122664D01*
X82684603Y-153219136D01*
X82730374Y-153250846D01*
X82935317Y-153343935D01*
X82935321Y-153343936D01*
X83153579Y-153398933D01*
X83153581Y-153398933D01*
X83153588Y-153398935D01*
X83285783Y-153409339D01*
X86714216Y-153409338D01*
X86846412Y-153398935D01*
X87064683Y-153343935D01*
X87269626Y-153250846D01*
X87454654Y-153122658D01*
X87613819Y-152963493D01*
X87742007Y-152778465D01*
X87835096Y-152573522D01*
X87890096Y-152355251D01*
X87900500Y-152223056D01*
X87900499Y-150028994D01*
X88244995Y-150028994D01*
X88244995Y-153238683D01*
X88251169Y-153369619D01*
X88251169Y-153369624D01*
X88300388Y-153680382D01*
X88300390Y-153680390D01*
X88388169Y-153982523D01*
X88513127Y-154271286D01*
X88513128Y-154271287D01*
X88673291Y-154542107D01*
X88673296Y-154542113D01*
X88673297Y-154542115D01*
X88673297Y-154542116D01*
X88866132Y-154790718D01*
X89088615Y-155013201D01*
X89337217Y-155206036D01*
X89337221Y-155206038D01*
X89337227Y-155206043D01*
X89608047Y-155366206D01*
X89896806Y-155491163D01*
X89950914Y-155506882D01*
X90198943Y-155578943D01*
X90198951Y-155578945D01*
X90509712Y-155628164D01*
X90640651Y-155634339D01*
X90640655Y-155634339D01*
X93850339Y-155634339D01*
X93925159Y-155630810D01*
X93981278Y-155628164D01*
X93981280Y-155628164D01*
X94292038Y-155578945D01*
X94292046Y-155578943D01*
X94443112Y-155535053D01*
X94594184Y-155491163D01*
X94882943Y-155366206D01*
X95153763Y-155206043D01*
X95402374Y-155013201D01*
X95402375Y-155013201D01*
X95624857Y-154790719D01*
X95624857Y-154790718D01*
X95817692Y-154542116D01*
X95817699Y-154542107D01*
X95977862Y-154271287D01*
X96102819Y-153982528D01*
X96190600Y-153680385D01*
X96190601Y-153680382D01*
X96239820Y-153369624D01*
X96239820Y-153369619D01*
X96245995Y-153238683D01*
X96245995Y-150028994D01*
X97744995Y-150028994D01*
X97744995Y-153238683D01*
X97751169Y-153369619D01*
X97751169Y-153369624D01*
X97800388Y-153680382D01*
X97800390Y-153680390D01*
X97888169Y-153982523D01*
X98013127Y-154271286D01*
X98013128Y-154271287D01*
X98173291Y-154542107D01*
X98173296Y-154542113D01*
X98173297Y-154542115D01*
X98173297Y-154542116D01*
X98366132Y-154790718D01*
X98588615Y-155013201D01*
X98837217Y-155206036D01*
X98837221Y-155206038D01*
X98837227Y-155206043D01*
X99108047Y-155366206D01*
X99396806Y-155491163D01*
X99450914Y-155506882D01*
X99698943Y-155578943D01*
X99698951Y-155578945D01*
X100009712Y-155628164D01*
X100140651Y-155634339D01*
X100140655Y-155634339D01*
X103350339Y-155634339D01*
X103425159Y-155630810D01*
X103481278Y-155628164D01*
X103481280Y-155628164D01*
X103792038Y-155578945D01*
X103792046Y-155578943D01*
X103943112Y-155535053D01*
X104094184Y-155491163D01*
X104382943Y-155366206D01*
X104653763Y-155206043D01*
X104902374Y-155013201D01*
X104902375Y-155013201D01*
X105124857Y-154790719D01*
X105124857Y-154790718D01*
X105317692Y-154542116D01*
X105317699Y-154542107D01*
X105477862Y-154271287D01*
X105602819Y-153982528D01*
X105690600Y-153680385D01*
X105690601Y-153680382D01*
X105739820Y-153369624D01*
X105739820Y-153369619D01*
X105745995Y-153238683D01*
X105745995Y-150028994D01*
X105739820Y-149898058D01*
X105739820Y-149898053D01*
X105690601Y-149587295D01*
X105690599Y-149587287D01*
X105602820Y-149285154D01*
X105602819Y-149285150D01*
X105477862Y-148996391D01*
X105358532Y-148794616D01*
X106099500Y-148794616D01*
X106099500Y-152223047D01*
X106099501Y-152223062D01*
X106109904Y-152355252D01*
X106109905Y-152355259D01*
X106164902Y-152573517D01*
X106164903Y-152573520D01*
X106257991Y-152778461D01*
X106257997Y-152778471D01*
X106386174Y-152963484D01*
X106386178Y-152963489D01*
X106386181Y-152963493D01*
X106545346Y-153122658D01*
X106545350Y-153122661D01*
X106545354Y-153122664D01*
X106684603Y-153219136D01*
X106730374Y-153250846D01*
X106935317Y-153343935D01*
X106935321Y-153343936D01*
X107153579Y-153398933D01*
X107153581Y-153398933D01*
X107153588Y-153398935D01*
X107285783Y-153409339D01*
X110714216Y-153409338D01*
X110846412Y-153398935D01*
X111064683Y-153343935D01*
X111269626Y-153250846D01*
X111454654Y-153122658D01*
X111613819Y-152963493D01*
X111742007Y-152778465D01*
X111835096Y-152573522D01*
X111890096Y-152355251D01*
X111900500Y-152223056D01*
X111900499Y-148794623D01*
X111890096Y-148662427D01*
X111835096Y-148444156D01*
X111742007Y-148239213D01*
X111618985Y-148061641D01*
X111613825Y-148054193D01*
X111613822Y-148054189D01*
X111613819Y-148054185D01*
X111454654Y-147895020D01*
X111454650Y-147895017D01*
X111454645Y-147895013D01*
X111269632Y-147766836D01*
X111269630Y-147766834D01*
X111269626Y-147766832D01*
X111064683Y-147673743D01*
X111064681Y-147673742D01*
X111064678Y-147673741D01*
X110846420Y-147618744D01*
X110846413Y-147618743D01*
X110802347Y-147615275D01*
X110714217Y-147608339D01*
X110714215Y-147608339D01*
X107285791Y-147608339D01*
X107285776Y-147608340D01*
X107153586Y-147618743D01*
X107153579Y-147618744D01*
X106935321Y-147673741D01*
X106935318Y-147673742D01*
X106730377Y-147766830D01*
X106730367Y-147766836D01*
X106545354Y-147895013D01*
X106545342Y-147895023D01*
X106386184Y-148054181D01*
X106386174Y-148054193D01*
X106257997Y-148239206D01*
X106257991Y-148239216D01*
X106164903Y-148444157D01*
X106164902Y-148444160D01*
X106109905Y-148662418D01*
X106109904Y-148662425D01*
X106099500Y-148794616D01*
X105358532Y-148794616D01*
X105317699Y-148725571D01*
X105317692Y-148725561D01*
X105124857Y-148476959D01*
X104902374Y-148254476D01*
X104653772Y-148061641D01*
X104653766Y-148061637D01*
X104653763Y-148061635D01*
X104484840Y-147961733D01*
X104382942Y-147901471D01*
X104094179Y-147776513D01*
X103792046Y-147688734D01*
X103792038Y-147688732D01*
X103481277Y-147639513D01*
X103350339Y-147633339D01*
X103350335Y-147633339D01*
X100140655Y-147633339D01*
X100140651Y-147633339D01*
X100009714Y-147639513D01*
X100009709Y-147639513D01*
X99698951Y-147688732D01*
X99698943Y-147688734D01*
X99396810Y-147776513D01*
X99108047Y-147901471D01*
X98946589Y-147996958D01*
X98837227Y-148061635D01*
X98837223Y-148061637D01*
X98837218Y-148061641D01*
X98837217Y-148061641D01*
X98588615Y-148254476D01*
X98588615Y-148254477D01*
X98366133Y-148476959D01*
X98366132Y-148476959D01*
X98173297Y-148725561D01*
X98173297Y-148725562D01*
X98173293Y-148725567D01*
X98173291Y-148725571D01*
X98108614Y-148834933D01*
X98013127Y-148996391D01*
X97888169Y-149285154D01*
X97800390Y-149587287D01*
X97800388Y-149587295D01*
X97751169Y-149898053D01*
X97751169Y-149898058D01*
X97744995Y-150028994D01*
X96245995Y-150028994D01*
X96239820Y-149898058D01*
X96239820Y-149898053D01*
X96190601Y-149587295D01*
X96190599Y-149587287D01*
X96102820Y-149285154D01*
X96102819Y-149285150D01*
X95977862Y-148996391D01*
X95817699Y-148725571D01*
X95817692Y-148725561D01*
X95624857Y-148476959D01*
X95402374Y-148254476D01*
X95153772Y-148061641D01*
X95153766Y-148061637D01*
X95153763Y-148061635D01*
X94984840Y-147961733D01*
X94882942Y-147901471D01*
X94594179Y-147776513D01*
X94292046Y-147688734D01*
X94292038Y-147688732D01*
X93981277Y-147639513D01*
X93850339Y-147633339D01*
X93850335Y-147633339D01*
X90640655Y-147633339D01*
X90640651Y-147633339D01*
X90509714Y-147639513D01*
X90509709Y-147639513D01*
X90198951Y-147688732D01*
X90198943Y-147688734D01*
X89896810Y-147776513D01*
X89608047Y-147901471D01*
X89446589Y-147996958D01*
X89337227Y-148061635D01*
X89337223Y-148061637D01*
X89337218Y-148061641D01*
X89337217Y-148061641D01*
X89088615Y-148254476D01*
X89088615Y-148254477D01*
X88866133Y-148476959D01*
X88866132Y-148476959D01*
X88673297Y-148725561D01*
X88673297Y-148725562D01*
X88673293Y-148725567D01*
X88673291Y-148725571D01*
X88608614Y-148834933D01*
X88513127Y-148996391D01*
X88388169Y-149285154D01*
X88300390Y-149587287D01*
X88300388Y-149587295D01*
X88251169Y-149898053D01*
X88251169Y-149898058D01*
X88244995Y-150028994D01*
X87900499Y-150028994D01*
X87900499Y-148794623D01*
X87890096Y-148662427D01*
X87835096Y-148444156D01*
X87742007Y-148239213D01*
X87618985Y-148061641D01*
X87613825Y-148054193D01*
X87613822Y-148054189D01*
X87613819Y-148054185D01*
X87454654Y-147895020D01*
X87454650Y-147895017D01*
X87454645Y-147895013D01*
X87269632Y-147766836D01*
X87269630Y-147766834D01*
X87269626Y-147766832D01*
X87064683Y-147673743D01*
X87064681Y-147673742D01*
X87064678Y-147673741D01*
X86846420Y-147618744D01*
X86846413Y-147618743D01*
X86802347Y-147615275D01*
X86714217Y-147608339D01*
X86714215Y-147608339D01*
X83285791Y-147608339D01*
X83285776Y-147608340D01*
X83153586Y-147618743D01*
X83153579Y-147618744D01*
X82935321Y-147673741D01*
X82935318Y-147673742D01*
X82730377Y-147766830D01*
X82730367Y-147766836D01*
X82545354Y-147895013D01*
X82545342Y-147895023D01*
X82386184Y-148054181D01*
X82386174Y-148054193D01*
X82257997Y-148239206D01*
X82257991Y-148239216D01*
X82164903Y-148444157D01*
X82164902Y-148444160D01*
X82109905Y-148662418D01*
X82109904Y-148662425D01*
X82099500Y-148794616D01*
X79500500Y-148794616D01*
X79500500Y-138219292D01*
X79501097Y-138207139D01*
X79501417Y-138203879D01*
X79508901Y-138127900D01*
X79513640Y-138104074D01*
X79534979Y-138033727D01*
X79544275Y-138011286D01*
X79578929Y-137946453D01*
X79592422Y-137926259D01*
X79642928Y-137864716D01*
X79651081Y-137855721D01*
X82855704Y-134651099D01*
X82864699Y-134642946D01*
X82926261Y-134592423D01*
X82946450Y-134578933D01*
X83011285Y-134544278D01*
X83033736Y-134534981D01*
X83086838Y-134518872D01*
X83104067Y-134513645D01*
X83127900Y-134508904D01*
X83207171Y-134501096D01*
X83219321Y-134500500D01*
X83279092Y-134500500D01*
X110720908Y-134500500D01*
X110780707Y-134500500D01*
X110792860Y-134501097D01*
G37*
%TD.AperFunction*%
%TD*%
M02*
