%TF.GenerationSoftware,KiCad,Pcbnew,8.0.3*%
%TF.CreationDate,2024-06-14T01:25:08+08:00*%
%TF.ProjectId,bottom-rounded,626f7474-6f6d-42d7-926f-756e6465642e,1.2.0*%
%TF.SameCoordinates,Original*%
%TF.FileFunction,Soldermask,Top*%
%TF.FilePolarity,Negative*%
%FSLAX46Y46*%
G04 Gerber Fmt 4.6, Leading zero omitted, Abs format (unit mm)*
G04 Created by KiCad (PCBNEW 8.0.3) date 2024-06-14 01:25:08*
%MOMM*%
%LPD*%
G01*
G04 APERTURE LIST*
G04 Aperture macros list*
%AMRoundRect*
0 Rectangle with rounded corners*
0 $1 Rounding radius*
0 $2 $3 $4 $5 $6 $7 $8 $9 X,Y pos of 4 corners*
0 Add a 4 corners polygon primitive as box body*
4,1,4,$2,$3,$4,$5,$6,$7,$8,$9,$2,$3,0*
0 Add four circle primitives for the rounded corners*
1,1,$1+$1,$2,$3*
1,1,$1+$1,$4,$5*
1,1,$1+$1,$6,$7*
1,1,$1+$1,$8,$9*
0 Add four rect primitives between the rounded corners*
20,1,$1+$1,$2,$3,$4,$5,0*
20,1,$1+$1,$4,$5,$6,$7,0*
20,1,$1+$1,$6,$7,$8,$9,0*
20,1,$1+$1,$8,$9,$2,$3,0*%
%AMRotRect*
0 Rectangle, with rotation*
0 The origin of the aperture is its center*
0 $1 length*
0 $2 width*
0 $3 Rotation angle, in degrees counterclockwise*
0 Add horizontal line*
21,1,$1,$2,0,0,$3*%
%AMFreePoly0*
4,1,26,1.935306,0.780194,1.989950,0.741421,2.341421,0.389950,2.388777,0.314585,2.400000,0.248529,2.400000,-0.248529,2.380194,-0.335306,2.341421,-0.389950,1.989950,-0.741421,1.914585,-0.788777,1.848529,-0.800000,0.000000,-0.800000,-0.248529,-0.800000,-0.335306,-0.780194,-0.389950,-0.741421,-0.741421,-0.389950,-0.788777,-0.314585,-0.800000,-0.248529,-0.800000,0.248529,-0.780194,0.335306,
-0.741421,0.389950,-0.389950,0.741421,-0.314585,0.788777,-0.248529,0.800000,1.848529,0.800000,1.935306,0.780194,1.935306,0.780194,$1*%
%AMFreePoly1*
4,1,26,0.335306,0.780194,0.389950,0.741421,0.741421,0.389950,0.788777,0.314585,0.800000,0.248529,0.800000,-0.248529,0.780194,-0.335306,0.741421,-0.389950,0.389950,-0.741421,0.314585,-0.788777,0.248529,-0.800000,0.000000,-0.800000,-0.248529,-0.800000,-0.335306,-0.780194,-0.389950,-0.741421,-0.741421,-0.389950,-0.788777,-0.314585,-0.800000,-0.248529,-0.800000,0.248529,-0.780194,0.335306,
-0.741421,0.389950,-0.389950,0.741421,-0.314585,0.788777,-0.248529,0.800000,0.248529,0.800000,0.335306,0.780194,0.335306,0.780194,$1*%
G04 Aperture macros list end*
%ADD10O,1.100000X1.800000*%
%ADD11O,1.100000X2.400000*%
%ADD12FreePoly0,180.000000*%
%ADD13FreePoly1,180.000000*%
%ADD14O,3.200000X1.600000*%
%ADD15C,1.600000*%
%ADD16RoundRect,0.200000X1.400000X0.600000X-1.400000X0.600000X-1.400000X-0.600000X1.400000X-0.600000X0*%
%ADD17RoundRect,0.200000X0.600000X0.600000X-0.600000X0.600000X-0.600000X-0.600000X0.600000X-0.600000X0*%
%ADD18RoundRect,0.250000X0.725000X-0.600000X0.725000X0.600000X-0.725000X0.600000X-0.725000X-0.600000X0*%
%ADD19O,1.950000X1.700000*%
%ADD20C,0.800000*%
%ADD21C,6.400000*%
%ADD22RoundRect,0.250000X0.750000X-0.600000X0.750000X0.600000X-0.750000X0.600000X-0.750000X-0.600000X0*%
%ADD23O,2.000000X1.700000*%
%ADD24RotRect,1.190000X3.000000X120.000000*%
%ADD25RotRect,1.190000X3.000000X330.000000*%
%ADD26R,3.000000X1.190000*%
%ADD27R,1.190000X3.000000*%
%ADD28R,1.700000X1.700000*%
%ADD29O,1.700000X1.700000*%
%ADD30C,1.400000*%
%ADD31O,1.400000X1.400000*%
%ADD32RotRect,1.190000X3.000000X150.000000*%
%ADD33RotRect,1.190000X3.000000X300.000000*%
%ADD34RoundRect,0.250000X-0.725000X0.600000X-0.725000X-0.600000X0.725000X-0.600000X0.725000X0.600000X0*%
%ADD35RoundRect,0.250000X-0.750000X0.600000X-0.750000X-0.600000X0.750000X-0.600000X0.750000X0.600000X0*%
%ADD36RotRect,1.190000X3.000000X30.000000*%
%ADD37RotRect,1.190000X3.000000X60.000000*%
%ADD38RotRect,1.190000X3.000000X240.000000*%
%ADD39R,5.544000X4.528000*%
%ADD40RoundRect,1.132000X1.640000X-1.132000X1.640000X1.132000X-1.640000X1.132000X-1.640000X-1.132000X0*%
%ADD41C,1.700000*%
%ADD42C,1.524000*%
%ADD43RotRect,1.190000X3.000000X210.000000*%
G04 APERTURE END LIST*
D10*
%TO.C,U1*%
X104325000Y-179630000D03*
D11*
X104325000Y-175930000D03*
D10*
X95675000Y-179630000D03*
D11*
X95675000Y-175930000D03*
D12*
X110490000Y-179260000D03*
D13*
X108890000Y-179260000D03*
D14*
X109690000Y-176720000D03*
D15*
X108890000Y-176720000D03*
D16*
X109690000Y-174180000D03*
D17*
X108890000Y-174180000D03*
D14*
X109690000Y-171640000D03*
D15*
X108890000Y-171640000D03*
D14*
X109690000Y-169100000D03*
D15*
X108890000Y-169100000D03*
D14*
X109690000Y-166560000D03*
D15*
X108890000Y-166560000D03*
D14*
X109690000Y-164020000D03*
D15*
X108890000Y-164020000D03*
D16*
X109690000Y-161480000D03*
D17*
X108890000Y-161480000D03*
D14*
X109690000Y-158940000D03*
D15*
X108890000Y-158940000D03*
D14*
X109690000Y-156400000D03*
D15*
X108890000Y-156400000D03*
D14*
X109690000Y-153860000D03*
D15*
X108890000Y-153860000D03*
D14*
X109690000Y-151320000D03*
D15*
X108890000Y-151320000D03*
D16*
X109690000Y-148780000D03*
D17*
X108890000Y-148780000D03*
D14*
X109690000Y-146240000D03*
D15*
X108890000Y-146240000D03*
D14*
X109690000Y-143700000D03*
D15*
X108890000Y-143700000D03*
D14*
X109690000Y-141160000D03*
D15*
X108890000Y-141160000D03*
D14*
X109690000Y-138620000D03*
D15*
X108890000Y-138620000D03*
D16*
X109690000Y-136080000D03*
D17*
X108890000Y-136080000D03*
D14*
X109690000Y-133540000D03*
D15*
X108890000Y-133540000D03*
D14*
X109690000Y-131000000D03*
D15*
X108890000Y-131000000D03*
X91110000Y-131000000D03*
D14*
X90310000Y-131000000D03*
D15*
X91110000Y-133540000D03*
D14*
X90310000Y-133540000D03*
D17*
X91110000Y-136080000D03*
D16*
X90310000Y-136080000D03*
D15*
X91110000Y-138620000D03*
D14*
X90310000Y-138620000D03*
D15*
X91110000Y-141160000D03*
D14*
X90310000Y-141160000D03*
D15*
X91110000Y-143700000D03*
D14*
X90310000Y-143700000D03*
D15*
X91110000Y-146240000D03*
D14*
X90310000Y-146240000D03*
D17*
X91110000Y-148780000D03*
D16*
X90310000Y-148780000D03*
D15*
X91110000Y-151320000D03*
D14*
X90310000Y-151320000D03*
D15*
X91110000Y-153860000D03*
D14*
X90310000Y-153860000D03*
D15*
X91110000Y-156400000D03*
D14*
X90310000Y-156400000D03*
D15*
X91110000Y-158940000D03*
D14*
X90310000Y-158940000D03*
D17*
X91110000Y-161480000D03*
D16*
X90310000Y-161480000D03*
D15*
X91110000Y-164020000D03*
D14*
X90310000Y-164020000D03*
D15*
X91110000Y-166560000D03*
D14*
X90310000Y-166560000D03*
D15*
X91110000Y-169100000D03*
D14*
X90310000Y-169100000D03*
D15*
X91110000Y-171640000D03*
D14*
X90310000Y-171640000D03*
D17*
X91110000Y-174180000D03*
D16*
X90310000Y-174180000D03*
D15*
X91110000Y-176720000D03*
D14*
X90310000Y-176720000D03*
D15*
X91110000Y-179260000D03*
D14*
X90310000Y-179260000D03*
%TD*%
D18*
%TO.C,J4*%
X131500000Y-103750000D03*
D19*
X131500000Y-101250000D03*
X131500000Y-98750000D03*
D18*
X131500000Y-96250000D03*
%TD*%
D20*
%TO.C,H20*%
X120100000Y-65500000D03*
X120802944Y-63802944D03*
X120802944Y-67197056D03*
X122500000Y-63100000D03*
D21*
X122500000Y-65500000D03*
D20*
X122500000Y-67900000D03*
X124197056Y-63802944D03*
X124197056Y-67197056D03*
X124900000Y-65500000D03*
%TD*%
D22*
%TO.C,J7*%
X66000000Y-118500000D03*
D23*
X66000000Y-116000000D03*
%TD*%
D24*
%TO.C,D9*%
X42840500Y-135997336D03*
X40245500Y-131502664D03*
%TD*%
D25*
%TO.C,D2*%
X131502664Y-40245500D03*
X135997336Y-42840500D03*
%TD*%
D26*
%TO.C,D4*%
X167500000Y-97405000D03*
X167500000Y-102595000D03*
%TD*%
D27*
%TO.C,D1*%
X97405000Y-39500000D03*
X102595000Y-39500000D03*
%TD*%
D28*
%TO.C,J2*%
X71120000Y-89850000D03*
D29*
X71120000Y-92390000D03*
X71120000Y-94930000D03*
X71120000Y-97470000D03*
X71120000Y-100010000D03*
X71120000Y-102550000D03*
X71120000Y-105090000D03*
X71120000Y-107630000D03*
X71120000Y-110170000D03*
%TD*%
D30*
%TO.C,R14*%
X84500000Y-154140000D03*
D31*
X84500000Y-159220000D03*
%TD*%
D20*
%TO.C,H10*%
X53052273Y-75251263D03*
X53755217Y-73554207D03*
X53755217Y-76948319D03*
X55452273Y-72851263D03*
D21*
X55452273Y-75251263D03*
D20*
X55452273Y-77651263D03*
X57149329Y-73554207D03*
X57149329Y-76948319D03*
X57852273Y-75251263D03*
%TD*%
%TO.C,H18*%
X75100000Y-122500000D03*
X75802944Y-120802944D03*
X75802944Y-124197056D03*
X77500000Y-120100000D03*
D21*
X77500000Y-122500000D03*
D20*
X77500000Y-124900000D03*
X79197056Y-120802944D03*
X79197056Y-124197056D03*
X79900000Y-122500000D03*
%TD*%
%TO.C,H12*%
X72851263Y-144547727D03*
X73554207Y-142850671D03*
X73554207Y-146244783D03*
X75251263Y-142147727D03*
D21*
X75251263Y-144547727D03*
D20*
X75251263Y-146947727D03*
X76948319Y-142850671D03*
X76948319Y-146244783D03*
X77651263Y-144547727D03*
%TD*%
%TO.C,H8*%
X29600000Y-126000000D03*
X30302944Y-124302944D03*
X30302944Y-127697056D03*
X32000000Y-123600000D03*
D21*
X32000000Y-126000000D03*
D20*
X32000000Y-128400000D03*
X33697056Y-124302944D03*
X33697056Y-127697056D03*
X34400000Y-126000000D03*
%TD*%
D32*
%TO.C,D8*%
X68497336Y-159754500D03*
X64002664Y-157159500D03*
%TD*%
D20*
%TO.C,H11*%
X53052273Y-124748737D03*
X53755217Y-123051681D03*
X53755217Y-126445793D03*
X55452273Y-122348737D03*
D21*
X55452273Y-124748737D03*
D20*
X55452273Y-127148737D03*
X57149329Y-123051681D03*
X57149329Y-126445793D03*
X57852273Y-124748737D03*
%TD*%
%TO.C,H6*%
X71600000Y-168000000D03*
X72302944Y-166302944D03*
X72302944Y-169697056D03*
X74000000Y-165600000D03*
D21*
X74000000Y-168000000D03*
D20*
X74000000Y-170400000D03*
X75697056Y-166302944D03*
X75697056Y-169697056D03*
X76400000Y-168000000D03*
%TD*%
%TO.C,H9*%
X72851263Y-55452273D03*
X73554207Y-53755217D03*
X73554207Y-57149329D03*
X75251263Y-53052273D03*
D21*
X75251263Y-55452273D03*
D20*
X75251263Y-57852273D03*
X76948319Y-53755217D03*
X76948319Y-57149329D03*
X77651263Y-55452273D03*
%TD*%
%TO.C,H5*%
X123600000Y-168000000D03*
X124302944Y-166302944D03*
X124302944Y-169697056D03*
X126000000Y-165600000D03*
D21*
X126000000Y-168000000D03*
D20*
X126000000Y-170400000D03*
X127697056Y-166302944D03*
X127697056Y-169697056D03*
X128400000Y-168000000D03*
%TD*%
D33*
%TO.C,D3*%
X157159500Y-64002664D03*
X159754500Y-68497336D03*
%TD*%
D22*
%TO.C,J6*%
X66000000Y-84000000D03*
D23*
X66000000Y-81500000D03*
%TD*%
D34*
%TO.C,J1*%
X66000000Y-93750000D03*
D19*
X66000000Y-96250000D03*
X66000000Y-98750000D03*
X66000000Y-101250000D03*
X66000000Y-103750000D03*
X66000000Y-106250000D03*
%TD*%
D27*
%TO.C,D7*%
X102595000Y-167500000D03*
X97405000Y-167500000D03*
%TD*%
D35*
%TO.C,J3*%
X131500000Y-81500000D03*
D23*
X131500000Y-84000000D03*
%TD*%
D20*
%TO.C,H15*%
X122348737Y-144547727D03*
X123051681Y-142850671D03*
X123051681Y-146244783D03*
X124748737Y-142147727D03*
D21*
X124748737Y-144547727D03*
D20*
X124748737Y-146947727D03*
X126445793Y-142850671D03*
X126445793Y-146244783D03*
X127148737Y-144547727D03*
%TD*%
D36*
%TO.C,D12*%
X64002664Y-42840500D03*
X68497336Y-40245500D03*
%TD*%
D20*
%TO.C,H16*%
X122348737Y-55452273D03*
X123051681Y-53755217D03*
X123051681Y-57149329D03*
X124748737Y-53052273D03*
D21*
X124748737Y-55452273D03*
D20*
X124748737Y-57852273D03*
X126445793Y-53755217D03*
X126445793Y-57149329D03*
X127148737Y-55452273D03*
%TD*%
%TO.C,H2*%
X129600000Y-30000000D03*
X130302944Y-28302944D03*
X130302944Y-31697056D03*
X132000000Y-27600000D03*
D21*
X132000000Y-30000000D03*
D20*
X132000000Y-32400000D03*
X133697056Y-28302944D03*
X133697056Y-31697056D03*
X134400000Y-30000000D03*
%TD*%
%TO.C,H1*%
X65600000Y-30000000D03*
X66302944Y-28302944D03*
X66302944Y-31697056D03*
X68000000Y-27600000D03*
D21*
X68000000Y-30000000D03*
D20*
X68000000Y-32400000D03*
X69697056Y-28302944D03*
X69697056Y-31697056D03*
X70400000Y-30000000D03*
%TD*%
%TO.C,H14*%
X142147727Y-124748737D03*
X142850671Y-123051681D03*
X142850671Y-126445793D03*
X144547727Y-122348737D03*
D21*
X144547727Y-124748737D03*
D20*
X144547727Y-127148737D03*
X146244783Y-123051681D03*
X146244783Y-126445793D03*
X146947727Y-124748737D03*
%TD*%
D37*
%TO.C,D11*%
X40245500Y-68497336D03*
X42840500Y-64002664D03*
%TD*%
D20*
%TO.C,H13*%
X142147727Y-75251263D03*
X142850671Y-73554207D03*
X142850671Y-76948319D03*
X144547727Y-72851263D03*
D21*
X144547727Y-75251263D03*
D20*
X144547727Y-77651263D03*
X146244783Y-73554207D03*
X146244783Y-76948319D03*
X146947727Y-75251263D03*
%TD*%
%TO.C,H17*%
X120100000Y-122500000D03*
X120802944Y-120802944D03*
X120802944Y-124197056D03*
X122500000Y-120100000D03*
D21*
X122500000Y-122500000D03*
D20*
X122500000Y-124900000D03*
X124197056Y-120802944D03*
X124197056Y-124197056D03*
X124900000Y-122500000D03*
%TD*%
D38*
%TO.C,D5*%
X159754500Y-131502664D03*
X157159500Y-135997336D03*
%TD*%
D39*
%TO.C,U2*%
X85227000Y-45270000D03*
D28*
X87005000Y-44000000D03*
X87005000Y-46540000D03*
D40*
X85205000Y-56678000D03*
D41*
X87005000Y-55430000D03*
X87005000Y-57970000D03*
X113005000Y-55430000D03*
X113005000Y-57970000D03*
D40*
X114805000Y-56700000D03*
D28*
X113005000Y-44000000D03*
X113005000Y-46540000D03*
D39*
X114805000Y-45270000D03*
D42*
X105801000Y-42954000D03*
%TD*%
D20*
%TO.C,H7*%
X29600000Y-74000000D03*
X30302944Y-72302944D03*
X30302944Y-75697056D03*
X32000000Y-71600000D03*
D21*
X32000000Y-74000000D03*
D20*
X32000000Y-76400000D03*
X33697056Y-72302944D03*
X33697056Y-75697056D03*
X34400000Y-74000000D03*
%TD*%
D35*
%TO.C,J5*%
X131500000Y-116000000D03*
D23*
X131500000Y-118500000D03*
%TD*%
D20*
%TO.C,H19*%
X75100000Y-65500000D03*
X75802944Y-63802944D03*
X75802944Y-67197056D03*
X77500000Y-63100000D03*
D21*
X77500000Y-65500000D03*
D20*
X77500000Y-67900000D03*
X79197056Y-63802944D03*
X79197056Y-67197056D03*
X79900000Y-65500000D03*
%TD*%
D26*
%TO.C,D10*%
X32500000Y-102595000D03*
X32500000Y-97405000D03*
%TD*%
D43*
%TO.C,D6*%
X135997336Y-157159500D03*
X131502664Y-159754500D03*
%TD*%
D30*
%TO.C,R13*%
X128960000Y-90000000D03*
D31*
X134040000Y-90000000D03*
%TD*%
D20*
%TO.C,H3*%
X165600000Y-74000000D03*
X166302944Y-72302944D03*
X166302944Y-75697056D03*
X168000000Y-71600000D03*
D21*
X168000000Y-74000000D03*
D20*
X168000000Y-76400000D03*
X169697056Y-72302944D03*
X169697056Y-75697056D03*
X170400000Y-74000000D03*
%TD*%
%TO.C,H4*%
X165600000Y-126000000D03*
X166302944Y-124302944D03*
X166302944Y-127697056D03*
X168000000Y-123600000D03*
D21*
X168000000Y-126000000D03*
D20*
X168000000Y-128400000D03*
X169697056Y-124302944D03*
X169697056Y-127697056D03*
X170400000Y-126000000D03*
%TD*%
M02*
