%TF.GenerationSoftware,KiCad,Pcbnew,8.0.3*%
%TF.CreationDate,2024-07-01T22:35:15+08:00*%
%TF.ProjectId,bottom-rounded,626f7474-6f6d-42d7-926f-756e6465642e,1.2.0*%
%TF.SameCoordinates,Original*%
%TF.FileFunction,Soldermask,Bot*%
%TF.FilePolarity,Negative*%
%FSLAX46Y46*%
G04 Gerber Fmt 4.6, Leading zero omitted, Abs format (unit mm)*
G04 Created by KiCad (PCBNEW 8.0.3) date 2024-07-01 22:35:15*
%MOMM*%
%LPD*%
G01*
G04 APERTURE LIST*
G04 Aperture macros list*
%AMRoundRect*
0 Rectangle with rounded corners*
0 $1 Rounding radius*
0 $2 $3 $4 $5 $6 $7 $8 $9 X,Y pos of 4 corners*
0 Add a 4 corners polygon primitive as box body*
4,1,4,$2,$3,$4,$5,$6,$7,$8,$9,$2,$3,0*
0 Add four circle primitives for the rounded corners*
1,1,$1+$1,$2,$3*
1,1,$1+$1,$4,$5*
1,1,$1+$1,$6,$7*
1,1,$1+$1,$8,$9*
0 Add four rect primitives between the rounded corners*
20,1,$1+$1,$2,$3,$4,$5,0*
20,1,$1+$1,$4,$5,$6,$7,0*
20,1,$1+$1,$6,$7,$8,$9,0*
20,1,$1+$1,$8,$9,$2,$3,0*%
%AMRotRect*
0 Rectangle, with rotation*
0 The origin of the aperture is its center*
0 $1 length*
0 $2 width*
0 $3 Rotation angle, in degrees counterclockwise*
0 Add horizontal line*
21,1,$1,$2,0,0,$3*%
%AMFreePoly0*
4,1,26,0.335306,0.780194,0.389950,0.741421,0.741421,0.389950,0.788777,0.314585,0.800000,0.248529,0.800000,-0.248529,0.780194,-0.335306,0.741421,-0.389950,0.389950,-0.741421,0.314585,-0.788777,0.248529,-0.800000,0.000000,-0.800000,-0.248529,-0.800000,-0.335306,-0.780194,-0.389950,-0.741421,-0.741421,-0.389950,-0.788777,-0.314585,-0.800000,-0.248529,-0.800000,0.248529,-0.780194,0.335306,
-0.741421,0.389950,-0.389950,0.741421,-0.314585,0.788777,-0.248529,0.800000,0.248529,0.800000,0.335306,0.780194,0.335306,0.780194,$1*%
G04 Aperture macros list end*
%ADD10C,0.000000*%
%ADD11O,1.100000X1.800000*%
%ADD12O,1.100000X2.400000*%
%ADD13FreePoly0,180.000000*%
%ADD14C,1.600000*%
%ADD15RoundRect,0.200000X0.600000X0.600000X-0.600000X0.600000X-0.600000X-0.600000X0.600000X-0.600000X0*%
%ADD16RoundRect,0.250000X0.725000X-0.600000X0.725000X0.600000X-0.725000X0.600000X-0.725000X-0.600000X0*%
%ADD17O,1.950000X1.700000*%
%ADD18C,0.800000*%
%ADD19C,6.400000*%
%ADD20RoundRect,0.250000X0.750000X-0.600000X0.750000X0.600000X-0.750000X0.600000X-0.750000X-0.600000X0*%
%ADD21O,2.000000X1.700000*%
%ADD22R,1.700000X1.700000*%
%ADD23O,1.700000X1.700000*%
%ADD24C,1.400000*%
%ADD25O,1.400000X1.400000*%
%ADD26RoundRect,0.250000X-0.725000X0.600000X-0.725000X-0.600000X0.725000X-0.600000X0.725000X0.600000X0*%
%ADD27RoundRect,0.250000X-0.750000X0.600000X-0.750000X-0.600000X0.750000X-0.600000X0.750000X0.600000X0*%
%ADD28C,1.700000*%
%ADD29C,1.524000*%
%ADD30R,0.800000X1.100000*%
%ADD31R,1.000000X1.100000*%
%ADD32RotRect,1.100000X0.800000X210.000000*%
%ADD33RotRect,1.100000X1.000000X210.000000*%
%ADD34RotRect,1.100000X0.800000X240.000000*%
%ADD35RotRect,1.100000X1.000000X240.000000*%
%ADD36RotRect,1.100000X0.800000X300.000000*%
%ADD37RotRect,1.100000X1.000000X300.000000*%
%ADD38RoundRect,0.237500X-0.250000X-0.237500X0.250000X-0.237500X0.250000X0.237500X-0.250000X0.237500X0*%
%ADD39RoundRect,0.237500X0.237500X-0.250000X0.237500X0.250000X-0.237500X0.250000X-0.237500X-0.250000X0*%
%ADD40R,1.100000X0.800000*%
%ADD41R,1.100000X1.000000*%
%ADD42RoundRect,0.237500X-0.237500X0.250000X-0.237500X-0.250000X0.237500X-0.250000X0.237500X0.250000X0*%
%ADD43RotRect,1.100000X0.800000X330.000000*%
%ADD44RotRect,1.100000X1.000000X330.000000*%
G04 APERTURE END LIST*
D10*
%TO.C,G\u002A\u002A\u002A*%
G36*
X112424833Y-92652903D02*
G01*
X113673667Y-92676333D01*
X113695594Y-98349000D01*
X113697302Y-98828633D01*
X113699793Y-99772979D01*
X113700993Y-100661549D01*
X113700948Y-101480150D01*
X113699704Y-102214586D01*
X113697306Y-102850664D01*
X113693800Y-103374188D01*
X113689230Y-103770966D01*
X113683643Y-104026801D01*
X113677084Y-104127500D01*
X113655331Y-104151771D01*
X113535456Y-104189643D01*
X113299010Y-104214888D01*
X112928473Y-104228965D01*
X112406324Y-104233333D01*
X111176000Y-104233333D01*
X111176000Y-98431403D01*
X111176000Y-92629473D01*
X112424833Y-92652903D01*
G37*
G36*
X95466961Y-98793500D02*
G01*
X95598393Y-99071002D01*
X95827667Y-99551451D01*
X96028939Y-99968619D01*
X96191237Y-100299998D01*
X96303590Y-100523079D01*
X96355026Y-100615353D01*
X96372227Y-100606213D01*
X96453344Y-100482518D01*
X96587836Y-100235649D01*
X96764985Y-99886443D01*
X96974073Y-99455732D01*
X97204381Y-98964353D01*
X97310009Y-98736164D01*
X97537413Y-98251154D01*
X97740959Y-97825326D01*
X97909085Y-97482420D01*
X98030228Y-97246173D01*
X98092825Y-97140326D01*
X98158812Y-97103558D01*
X98322545Y-97072770D01*
X98597035Y-97055275D01*
X99001712Y-97049946D01*
X99556003Y-97055659D01*
X100921944Y-97079000D01*
X99085139Y-100657678D01*
X97248333Y-104236357D01*
X96401902Y-104213678D01*
X95555471Y-104191000D01*
X93719291Y-100677333D01*
X93370067Y-100008101D01*
X93021486Y-99338047D01*
X92705137Y-98727836D01*
X92428755Y-98192491D01*
X92200072Y-97747030D01*
X92026822Y-97406475D01*
X91916739Y-97185847D01*
X91877556Y-97100167D01*
X91915787Y-97085105D01*
X92095414Y-97065843D01*
X92397011Y-97050492D01*
X92792679Y-97040337D01*
X93254521Y-97036667D01*
X94637041Y-97036667D01*
X95466961Y-98793500D01*
G37*
G36*
X109652352Y-101268152D02*
G01*
X109642567Y-101320208D01*
X109412075Y-102086139D01*
X109041706Y-102765961D01*
X108543004Y-103348576D01*
X107927513Y-103822888D01*
X107206775Y-104177799D01*
X106392333Y-104402211D01*
X106044484Y-104442485D01*
X105501779Y-104452382D01*
X104916719Y-104418704D01*
X104356433Y-104345847D01*
X103888048Y-104238208D01*
X103494082Y-104089949D01*
X102941252Y-103803321D01*
X102436730Y-103456907D01*
X102040690Y-103088166D01*
X101875885Y-102870372D01*
X101669996Y-102543222D01*
X101490357Y-102205344D01*
X101421210Y-102056779D01*
X101331177Y-101837231D01*
X101274440Y-101630915D01*
X101243366Y-101392194D01*
X101230319Y-101075435D01*
X101227667Y-100635000D01*
X101228132Y-100453177D01*
X103838479Y-100453177D01*
X103843914Y-100894601D01*
X103961663Y-101317941D01*
X104190526Y-101695011D01*
X104529304Y-101997628D01*
X104976796Y-102197607D01*
X105026874Y-102211218D01*
X105349008Y-102272600D01*
X105632074Y-102256643D01*
X105969000Y-102159806D01*
X106023416Y-102138626D01*
X106338525Y-101946331D01*
X106636145Y-101666201D01*
X106869832Y-101348807D01*
X106993140Y-101044718D01*
X107013535Y-100914653D01*
X107005513Y-100373162D01*
X106844410Y-99891765D01*
X106538066Y-99486774D01*
X106094319Y-99174500D01*
X105746382Y-99037125D01*
X105302036Y-98996294D01*
X104845603Y-99115041D01*
X104508048Y-99302231D01*
X104169346Y-99628808D01*
X103946556Y-100021851D01*
X103838479Y-100453177D01*
X101228132Y-100453177D01*
X101228358Y-100364628D01*
X101236025Y-100000782D01*
X101258467Y-99734399D01*
X101303333Y-99519819D01*
X101378270Y-99311385D01*
X101490927Y-99063439D01*
X101506999Y-99029995D01*
X101903212Y-98400958D01*
X102418014Y-97870135D01*
X103029946Y-97441913D01*
X103717547Y-97120679D01*
X104459359Y-96910819D01*
X105233921Y-96816720D01*
X106019774Y-96842770D01*
X106795458Y-96993356D01*
X107539514Y-97272864D01*
X108230481Y-97685682D01*
X108455502Y-97865138D01*
X108968402Y-98416085D01*
X109354892Y-99057949D01*
X109604617Y-99764641D01*
X109707222Y-100510072D01*
X109677938Y-100914653D01*
X109652352Y-101268152D01*
G37*
G36*
X91459132Y-99797219D02*
G01*
X91533333Y-100635000D01*
X91506900Y-101143621D01*
X91346187Y-101931713D01*
X91045159Y-102629727D01*
X90610172Y-103229682D01*
X90047582Y-103723599D01*
X89363747Y-104103497D01*
X88565022Y-104361396D01*
X88307696Y-104406502D01*
X87759393Y-104447440D01*
X87155333Y-104439264D01*
X86563027Y-104384057D01*
X86049982Y-104283897D01*
X85722267Y-104175428D01*
X85102213Y-103848389D01*
X84572402Y-103399245D01*
X84155996Y-102849960D01*
X83876158Y-102222500D01*
X83817256Y-102032000D01*
X85047649Y-102032000D01*
X85521107Y-102033643D01*
X85865866Y-102040912D01*
X86095251Y-102057150D01*
X86236572Y-102085697D01*
X86317136Y-102129895D01*
X86364253Y-102193086D01*
X86395507Y-102239762D01*
X86593936Y-102406350D01*
X86886241Y-102557408D01*
X87214417Y-102667035D01*
X87520458Y-102709333D01*
X87719392Y-102694789D01*
X88160085Y-102558799D01*
X88536410Y-102301742D01*
X88802833Y-101950560D01*
X88858392Y-101830082D01*
X88955074Y-101554076D01*
X88993333Y-101336727D01*
X88993333Y-101100667D01*
X86368667Y-101100667D01*
X83744000Y-101100667D01*
X83744000Y-100525788D01*
X83747780Y-100346331D01*
X83847601Y-99590237D01*
X83851961Y-99576667D01*
X86026559Y-99576667D01*
X87467613Y-99576667D01*
X87766303Y-99576497D01*
X88242573Y-99572436D01*
X88576005Y-99557391D01*
X88784236Y-99524139D01*
X88884903Y-99465457D01*
X88895641Y-99374122D01*
X88834088Y-99242910D01*
X88717879Y-99064598D01*
X88700989Y-99039969D01*
X88389328Y-98712869D01*
X87998384Y-98524379D01*
X87506794Y-98463905D01*
X87350157Y-98470600D01*
X86874643Y-98588476D01*
X86486385Y-98847051D01*
X86199285Y-99238094D01*
X86026559Y-99576667D01*
X83851961Y-99576667D01*
X84073872Y-98886016D01*
X84414297Y-98264281D01*
X84856582Y-97755641D01*
X85295611Y-97427438D01*
X85948842Y-97108223D01*
X86684205Y-96902296D01*
X87470819Y-96817718D01*
X88277798Y-96862550D01*
X88298475Y-96865470D01*
X89107598Y-97057281D01*
X89814695Y-97380461D01*
X90411581Y-97825529D01*
X90890071Y-98383000D01*
X91241983Y-99043392D01*
X91337254Y-99374122D01*
X91459132Y-99797219D01*
G37*
G36*
X79768258Y-96872338D02*
G01*
X80439215Y-97045914D01*
X81015947Y-97325579D01*
X81486146Y-97703404D01*
X81837510Y-98171460D01*
X82057732Y-98721819D01*
X82134506Y-99346553D01*
X82133733Y-99429073D01*
X82076510Y-99942213D01*
X81919059Y-100364122D01*
X81647963Y-100707817D01*
X81249810Y-100986318D01*
X80711183Y-101212641D01*
X80018667Y-101399806D01*
X79637321Y-101492857D01*
X79316498Y-101601699D01*
X79121865Y-101722099D01*
X79030345Y-101869258D01*
X79018858Y-102058378D01*
X79043209Y-102191217D01*
X79144686Y-102348873D01*
X79364080Y-102484228D01*
X79644098Y-102576292D01*
X80073584Y-102584573D01*
X80580351Y-102461245D01*
X81176616Y-102204422D01*
X81807512Y-101887354D01*
X82225423Y-102720139D01*
X82366740Y-103006108D01*
X82509941Y-103306939D01*
X82607370Y-103525114D01*
X82643333Y-103626594D01*
X82620287Y-103665920D01*
X82472636Y-103767968D01*
X82219770Y-103895683D01*
X81898443Y-104033746D01*
X81545406Y-104166839D01*
X81197414Y-104279646D01*
X80891217Y-104356847D01*
X80688344Y-104393656D01*
X79871955Y-104468313D01*
X79109893Y-104422294D01*
X78416582Y-104263194D01*
X77806445Y-103998607D01*
X77293906Y-103636129D01*
X76893390Y-103183355D01*
X76619319Y-102647880D01*
X76486117Y-102037298D01*
X76481659Y-101982415D01*
X76504139Y-101405283D01*
X76667126Y-100908128D01*
X76977940Y-100467583D01*
X76984062Y-100460965D01*
X77295467Y-100183196D01*
X77674962Y-99960824D01*
X78156238Y-99777914D01*
X78772986Y-99618531D01*
X79192233Y-99509852D01*
X79477112Y-99390782D01*
X79632533Y-99252736D01*
X79678704Y-99083786D01*
X79660645Y-98960258D01*
X79519655Y-98751705D01*
X79258405Y-98619111D01*
X78900343Y-98567430D01*
X78468916Y-98601613D01*
X77987571Y-98726613D01*
X77783108Y-98795235D01*
X77589932Y-98854922D01*
X77510515Y-98872015D01*
X77475426Y-98813544D01*
X77382325Y-98634842D01*
X77254161Y-98377354D01*
X77109368Y-98079470D01*
X76966377Y-97779580D01*
X76843622Y-97516073D01*
X76759535Y-97327340D01*
X76732550Y-97251770D01*
X76744033Y-97243578D01*
X76910783Y-97172232D01*
X77193086Y-97087103D01*
X77545603Y-96999584D01*
X77922991Y-96921068D01*
X78279909Y-96862948D01*
X79015379Y-96812779D01*
X79768258Y-96872338D01*
G37*
G36*
X123837620Y-101072820D02*
G01*
X123715961Y-101794359D01*
X123462942Y-102465639D01*
X123084331Y-103066679D01*
X122585898Y-103577496D01*
X121973410Y-103978110D01*
X121892557Y-104018585D01*
X121609880Y-104144134D01*
X121345150Y-104222830D01*
X121035946Y-104269461D01*
X120619847Y-104298817D01*
X120318597Y-104309732D01*
X119801589Y-104291448D01*
X119373030Y-104208672D01*
X118982992Y-104049205D01*
X118581549Y-103800851D01*
X118118667Y-103476600D01*
X118118667Y-104053317D01*
X118130190Y-104323513D01*
X118241983Y-104853334D01*
X118471084Y-105261622D01*
X118815540Y-105546467D01*
X119273397Y-105705961D01*
X119842703Y-105738195D01*
X119911557Y-105734539D01*
X120203611Y-105709807D01*
X120395400Y-105660244D01*
X120545297Y-105562742D01*
X120711676Y-105394193D01*
X120999612Y-105080000D01*
X122401178Y-105080000D01*
X123802744Y-105080000D01*
X123745101Y-105270500D01*
X123679711Y-105446949D01*
X123523345Y-105774289D01*
X123328591Y-106119776D01*
X123129214Y-106424955D01*
X122958981Y-106631374D01*
X122944755Y-106644809D01*
X122481737Y-106999333D01*
X121908527Y-107316300D01*
X121281909Y-107568611D01*
X120658667Y-107729166D01*
X120451434Y-107755833D01*
X119986100Y-107776773D01*
X119462535Y-107764737D01*
X118949657Y-107722218D01*
X118516380Y-107651706D01*
X118512498Y-107650827D01*
X117744423Y-107409557D01*
X117070297Y-107060655D01*
X116518118Y-106618595D01*
X116455215Y-106554833D01*
X116266211Y-106350661D01*
X116106518Y-106146927D01*
X115973675Y-105928199D01*
X115865220Y-105679045D01*
X115778691Y-105384033D01*
X115711627Y-105027729D01*
X115661566Y-104594701D01*
X115626045Y-104069517D01*
X115602604Y-103436744D01*
X115588780Y-102680951D01*
X115582112Y-101786703D01*
X115580137Y-100738570D01*
X115580061Y-100545790D01*
X117949806Y-100545790D01*
X117950432Y-100580231D01*
X118035035Y-101012876D01*
X118238937Y-101441396D01*
X118528996Y-101811111D01*
X118872068Y-102067343D01*
X118897050Y-102079727D01*
X119383998Y-102230741D01*
X119867905Y-102224187D01*
X120320987Y-102069309D01*
X120715457Y-101775351D01*
X121023529Y-101351558D01*
X121066994Y-101267454D01*
X121187837Y-100988981D01*
X121233060Y-100752607D01*
X121220130Y-100480996D01*
X121141386Y-100115812D01*
X120914090Y-99666297D01*
X120569225Y-99324850D01*
X120125177Y-99107921D01*
X119600333Y-99031956D01*
X119273473Y-99056113D01*
X118822556Y-99202673D01*
X118459898Y-99489845D01*
X118171277Y-99926532D01*
X118080635Y-100123775D01*
X117986229Y-100376724D01*
X117949806Y-100545790D01*
X115580061Y-100545790D01*
X115578667Y-97032140D01*
X116827500Y-97055570D01*
X118076333Y-97079000D01*
X118102611Y-97396500D01*
X118107947Y-97453742D01*
X118135728Y-97639203D01*
X118165378Y-97714000D01*
X118217620Y-97685958D01*
X118372676Y-97579152D01*
X118587182Y-97419883D01*
X118943081Y-97190809D01*
X119536437Y-96959919D01*
X120164244Y-96871533D01*
X120804565Y-96918733D01*
X121435465Y-97094597D01*
X122035005Y-97392206D01*
X122581251Y-97804641D01*
X123052265Y-98324982D01*
X123426111Y-98946308D01*
X123663783Y-99558888D01*
X123822151Y-100321002D01*
X123831031Y-100752607D01*
X123837620Y-101072820D01*
G37*
%TD*%
D11*
%TO.C,U1*%
X104325000Y-179630000D03*
D12*
X104325000Y-175930000D03*
D11*
X95675000Y-179630000D03*
D12*
X95675000Y-175930000D03*
D13*
X108890000Y-179260000D03*
D14*
X108890000Y-176720000D03*
D15*
X108890000Y-174180000D03*
D14*
X108890000Y-171640000D03*
X108890000Y-169100000D03*
X108890000Y-166560000D03*
X108890000Y-164020000D03*
D15*
X108890000Y-161480000D03*
D14*
X108890000Y-158940000D03*
X108890000Y-156400000D03*
X108890000Y-153860000D03*
X108890000Y-151320000D03*
D15*
X108890000Y-148780000D03*
D14*
X108890000Y-146240000D03*
X108890000Y-143700000D03*
X108890000Y-141160000D03*
X108890000Y-138620000D03*
D15*
X108890000Y-136080000D03*
D14*
X108890000Y-133540000D03*
X108890000Y-131000000D03*
X91110000Y-131000000D03*
X91110000Y-133540000D03*
D15*
X91110000Y-136080000D03*
D14*
X91110000Y-138620000D03*
X91110000Y-141160000D03*
X91110000Y-143700000D03*
X91110000Y-146240000D03*
D15*
X91110000Y-148780000D03*
D14*
X91110000Y-151320000D03*
X91110000Y-153860000D03*
X91110000Y-156400000D03*
X91110000Y-158940000D03*
D15*
X91110000Y-161480000D03*
D14*
X91110000Y-164020000D03*
X91110000Y-166560000D03*
X91110000Y-169100000D03*
X91110000Y-171640000D03*
D15*
X91110000Y-174180000D03*
D14*
X91110000Y-176720000D03*
X91110000Y-179260000D03*
%TD*%
D16*
%TO.C,J4*%
X131500000Y-103750000D03*
D17*
X131500000Y-101250000D03*
X131500000Y-98750000D03*
D16*
X131500000Y-96250000D03*
%TD*%
D18*
%TO.C,H20*%
X120100000Y-65500000D03*
X120802944Y-63802944D03*
X120802944Y-67197056D03*
X122500000Y-63100000D03*
D19*
X122500000Y-65500000D03*
D18*
X122500000Y-67900000D03*
X124197056Y-63802944D03*
X124197056Y-67197056D03*
X124900000Y-65500000D03*
%TD*%
D20*
%TO.C,J7*%
X66000000Y-118500000D03*
D21*
X66000000Y-116000000D03*
%TD*%
D22*
%TO.C,J2*%
X71120000Y-89850000D03*
D23*
X71120000Y-92390000D03*
X71120000Y-94930000D03*
X71120000Y-97470000D03*
X71120000Y-100010000D03*
X71120000Y-102550000D03*
X71120000Y-105090000D03*
X71120000Y-107630000D03*
X71120000Y-110170000D03*
%TD*%
D24*
%TO.C,R14*%
X84500000Y-154140000D03*
D25*
X84500000Y-159220000D03*
%TD*%
D18*
%TO.C,H10*%
X53052273Y-75251263D03*
X53755217Y-73554207D03*
X53755217Y-76948319D03*
X55452273Y-72851263D03*
D19*
X55452273Y-75251263D03*
D18*
X55452273Y-77651263D03*
X57149329Y-73554207D03*
X57149329Y-76948319D03*
X57852273Y-75251263D03*
%TD*%
%TO.C,H18*%
X75100000Y-122500000D03*
X75802944Y-120802944D03*
X75802944Y-124197056D03*
X77500000Y-120100000D03*
D19*
X77500000Y-122500000D03*
D18*
X77500000Y-124900000D03*
X79197056Y-120802944D03*
X79197056Y-124197056D03*
X79900000Y-122500000D03*
%TD*%
%TO.C,H12*%
X72851263Y-144547727D03*
X73554207Y-142850671D03*
X73554207Y-146244783D03*
X75251263Y-142147727D03*
D19*
X75251263Y-144547727D03*
D18*
X75251263Y-146947727D03*
X76948319Y-142850671D03*
X76948319Y-146244783D03*
X77651263Y-144547727D03*
%TD*%
%TO.C,H8*%
X29600000Y-126000000D03*
X30302944Y-124302944D03*
X30302944Y-127697056D03*
X32000000Y-123600000D03*
D19*
X32000000Y-126000000D03*
D18*
X32000000Y-128400000D03*
X33697056Y-124302944D03*
X33697056Y-127697056D03*
X34400000Y-126000000D03*
%TD*%
%TO.C,H11*%
X53052273Y-124748737D03*
X53755217Y-123051681D03*
X53755217Y-126445793D03*
X55452273Y-122348737D03*
D19*
X55452273Y-124748737D03*
D18*
X55452273Y-127148737D03*
X57149329Y-123051681D03*
X57149329Y-126445793D03*
X57852273Y-124748737D03*
%TD*%
%TO.C,H6*%
X71600000Y-168000000D03*
X72302944Y-166302944D03*
X72302944Y-169697056D03*
X74000000Y-165600000D03*
D19*
X74000000Y-168000000D03*
D18*
X74000000Y-170400000D03*
X75697056Y-166302944D03*
X75697056Y-169697056D03*
X76400000Y-168000000D03*
%TD*%
%TO.C,H9*%
X72851263Y-55452273D03*
X73554207Y-53755217D03*
X73554207Y-57149329D03*
X75251263Y-53052273D03*
D19*
X75251263Y-55452273D03*
D18*
X75251263Y-57852273D03*
X76948319Y-53755217D03*
X76948319Y-57149329D03*
X77651263Y-55452273D03*
%TD*%
%TO.C,H5*%
X123600000Y-168000000D03*
X124302944Y-166302944D03*
X124302944Y-169697056D03*
X126000000Y-165600000D03*
D19*
X126000000Y-168000000D03*
D18*
X126000000Y-170400000D03*
X127697056Y-166302944D03*
X127697056Y-169697056D03*
X128400000Y-168000000D03*
%TD*%
D20*
%TO.C,J6*%
X66000000Y-84000000D03*
D21*
X66000000Y-81500000D03*
%TD*%
D26*
%TO.C,J1*%
X66000000Y-93750000D03*
D17*
X66000000Y-96250000D03*
X66000000Y-98750000D03*
X66000000Y-101250000D03*
X66000000Y-103750000D03*
X66000000Y-106250000D03*
%TD*%
D27*
%TO.C,J3*%
X131500000Y-81500000D03*
D21*
X131500000Y-84000000D03*
%TD*%
D18*
%TO.C,H15*%
X122348737Y-144547727D03*
X123051681Y-142850671D03*
X123051681Y-146244783D03*
X124748737Y-142147727D03*
D19*
X124748737Y-144547727D03*
D18*
X124748737Y-146947727D03*
X126445793Y-142850671D03*
X126445793Y-146244783D03*
X127148737Y-144547727D03*
%TD*%
%TO.C,H16*%
X122348737Y-55452273D03*
X123051681Y-53755217D03*
X123051681Y-57149329D03*
X124748737Y-53052273D03*
D19*
X124748737Y-55452273D03*
D18*
X124748737Y-57852273D03*
X126445793Y-53755217D03*
X126445793Y-57149329D03*
X127148737Y-55452273D03*
%TD*%
%TO.C,H2*%
X129600000Y-30000000D03*
X130302944Y-28302944D03*
X130302944Y-31697056D03*
X132000000Y-27600000D03*
D19*
X132000000Y-30000000D03*
D18*
X132000000Y-32400000D03*
X133697056Y-28302944D03*
X133697056Y-31697056D03*
X134400000Y-30000000D03*
%TD*%
%TO.C,H1*%
X65600000Y-30000000D03*
X66302944Y-28302944D03*
X66302944Y-31697056D03*
X68000000Y-27600000D03*
D19*
X68000000Y-30000000D03*
D18*
X68000000Y-32400000D03*
X69697056Y-28302944D03*
X69697056Y-31697056D03*
X70400000Y-30000000D03*
%TD*%
%TO.C,H14*%
X142147727Y-124748737D03*
X142850671Y-123051681D03*
X142850671Y-126445793D03*
X144547727Y-122348737D03*
D19*
X144547727Y-124748737D03*
D18*
X144547727Y-127148737D03*
X146244783Y-123051681D03*
X146244783Y-126445793D03*
X146947727Y-124748737D03*
%TD*%
%TO.C,H13*%
X142147727Y-75251263D03*
X142850671Y-73554207D03*
X142850671Y-76948319D03*
X144547727Y-72851263D03*
D19*
X144547727Y-75251263D03*
D18*
X144547727Y-77651263D03*
X146244783Y-73554207D03*
X146244783Y-76948319D03*
X146947727Y-75251263D03*
%TD*%
%TO.C,H17*%
X120100000Y-122500000D03*
X120802944Y-120802944D03*
X120802944Y-124197056D03*
X122500000Y-120100000D03*
D19*
X122500000Y-122500000D03*
D18*
X122500000Y-124900000D03*
X124197056Y-120802944D03*
X124197056Y-124197056D03*
X124900000Y-122500000D03*
%TD*%
D22*
%TO.C,U2*%
X87005000Y-44000000D03*
X87005000Y-46540000D03*
D28*
X87005000Y-55430000D03*
X87005000Y-57970000D03*
X113005000Y-55430000D03*
X113005000Y-57970000D03*
D22*
X113005000Y-44000000D03*
X113005000Y-46540000D03*
D29*
X105801000Y-42954000D03*
%TD*%
D18*
%TO.C,H7*%
X29600000Y-74000000D03*
X30302944Y-72302944D03*
X30302944Y-75697056D03*
X32000000Y-71600000D03*
D19*
X32000000Y-74000000D03*
D18*
X32000000Y-76400000D03*
X33697056Y-72302944D03*
X33697056Y-75697056D03*
X34400000Y-74000000D03*
%TD*%
D27*
%TO.C,J5*%
X131500000Y-116000000D03*
D21*
X131500000Y-118500000D03*
%TD*%
D18*
%TO.C,H19*%
X75100000Y-65500000D03*
X75802944Y-63802944D03*
X75802944Y-67197056D03*
X77500000Y-63100000D03*
D19*
X77500000Y-65500000D03*
D18*
X77500000Y-67900000D03*
X79197056Y-63802944D03*
X79197056Y-67197056D03*
X79900000Y-65500000D03*
%TD*%
D24*
%TO.C,R13*%
X128960000Y-90000000D03*
D25*
X134040000Y-90000000D03*
%TD*%
D18*
%TO.C,H3*%
X165600000Y-74000000D03*
X166302944Y-72302944D03*
X166302944Y-75697056D03*
X168000000Y-71600000D03*
D19*
X168000000Y-74000000D03*
D18*
X168000000Y-76400000D03*
X169697056Y-72302944D03*
X169697056Y-75697056D03*
X170400000Y-74000000D03*
%TD*%
%TO.C,H4*%
X165600000Y-126000000D03*
X166302944Y-124302944D03*
X166302944Y-127697056D03*
X168000000Y-123600000D03*
D19*
X168000000Y-126000000D03*
D18*
X168000000Y-128400000D03*
X169697056Y-124302944D03*
X169697056Y-127697056D03*
X170400000Y-126000000D03*
%TD*%
D30*
%TO.C,L10*%
X37550000Y-98225000D03*
X36450000Y-98225000D03*
D31*
X37000000Y-101775000D03*
%TD*%
D32*
%TO.C,L6*%
X133312195Y-154148814D03*
X132762195Y-153196186D03*
D33*
X129962805Y-155447500D03*
%TD*%
D34*
%TO.C,L11*%
X46803814Y-67237805D03*
X45851186Y-66687805D03*
D35*
X44552500Y-70037195D03*
%TD*%
D36*
%TO.C,L9*%
X45028814Y-129687805D03*
X44076186Y-130237805D03*
D37*
X46327500Y-133037195D03*
%TD*%
D38*
%TO.C,R1*%
X99087500Y-46736000D03*
X100912500Y-46736000D03*
%TD*%
%TO.C,R7*%
X99087500Y-158750000D03*
X100912500Y-158750000D03*
%TD*%
D39*
%TO.C,R5*%
X153670000Y-137715000D03*
X153672500Y-135890000D03*
%TD*%
D32*
%TO.C,L12*%
X70312195Y-45028814D03*
X69762195Y-44076186D03*
D33*
X66962805Y-46327500D03*
%TD*%
D39*
%TO.C,R3*%
X155447500Y-74572500D03*
X155447500Y-72747500D03*
%TD*%
D40*
%TO.C,L7*%
X98225000Y-162450000D03*
X98225000Y-163550000D03*
D41*
X101775000Y-163000000D03*
%TD*%
D39*
%TO.C,R10*%
X37000000Y-105965000D03*
X37000000Y-104140000D03*
%TD*%
%TO.C,R2*%
X133037195Y-50593000D03*
X133037195Y-48768000D03*
%TD*%
%TO.C,R12*%
X66962805Y-50593000D03*
X66962805Y-48768000D03*
%TD*%
D34*
%TO.C,L5*%
X155923814Y-130237805D03*
X154971186Y-129687805D03*
D35*
X153672500Y-133037195D03*
%TD*%
D42*
%TO.C,R8*%
X73000000Y-155447500D03*
X73000000Y-157272500D03*
%TD*%
D39*
%TO.C,R11*%
X44552500Y-74572500D03*
X44552500Y-72747500D03*
%TD*%
D36*
%TO.C,L3*%
X154148814Y-66687805D03*
X153196186Y-67237805D03*
D37*
X155447500Y-70037195D03*
%TD*%
D39*
%TO.C,R9*%
X46330000Y-137715000D03*
X46330000Y-135890000D03*
%TD*%
D40*
%TO.C,L1*%
X98225000Y-43450000D03*
X98225000Y-44550000D03*
D41*
X101775000Y-44000000D03*
%TD*%
D42*
%TO.C,R6*%
X127000000Y-155447500D03*
X127000000Y-157272500D03*
%TD*%
D30*
%TO.C,L4*%
X163550000Y-98225000D03*
X162450000Y-98225000D03*
D31*
X163000000Y-101775000D03*
%TD*%
D43*
%TO.C,L8*%
X67237805Y-153196186D03*
X66687805Y-154148814D03*
D44*
X70037195Y-155447500D03*
%TD*%
D39*
%TO.C,R4*%
X163000000Y-105965000D03*
X163000000Y-104140000D03*
%TD*%
D43*
%TO.C,L2*%
X130237805Y-44076186D03*
X129687805Y-45028814D03*
D44*
X133037195Y-46327500D03*
%TD*%
M02*
