%TF.GenerationSoftware,KiCad,Pcbnew,8.0.1*%
%TF.CreationDate,2024-04-30T15:38:52+08:00*%
%TF.ProjectId,prototype,70726f74-6f74-4797-9065-2e6b69636164,rev?*%
%TF.SameCoordinates,Original*%
%TF.FileFunction,Legend,Bot*%
%TF.FilePolarity,Positive*%
%FSLAX46Y46*%
G04 Gerber Fmt 4.6, Leading zero omitted, Abs format (unit mm)*
G04 Created by KiCad (PCBNEW 8.0.1) date 2024-04-30 15:38:52*
%MOMM*%
%LPD*%
G01*
G04 APERTURE LIST*
G04 Aperture macros list*
%AMRoundRect*
0 Rectangle with rounded corners*
0 $1 Rounding radius*
0 $2 $3 $4 $5 $6 $7 $8 $9 X,Y pos of 4 corners*
0 Add a 4 corners polygon primitive as box body*
4,1,4,$2,$3,$4,$5,$6,$7,$8,$9,$2,$3,0*
0 Add four circle primitives for the rounded corners*
1,1,$1+$1,$2,$3*
1,1,$1+$1,$4,$5*
1,1,$1+$1,$6,$7*
1,1,$1+$1,$8,$9*
0 Add four rect primitives between the rounded corners*
20,1,$1+$1,$2,$3,$4,$5,0*
20,1,$1+$1,$4,$5,$6,$7,0*
20,1,$1+$1,$6,$7,$8,$9,0*
20,1,$1+$1,$8,$9,$2,$3,0*%
%AMFreePoly0*
4,1,26,0.335306,0.780194,0.389950,0.741421,0.741421,0.389950,0.788777,0.314585,0.800000,0.248529,0.800000,-0.248529,0.780194,-0.335306,0.741421,-0.389950,0.389950,-0.741421,0.314585,-0.788777,0.248529,-0.800000,0.000000,-0.800000,-0.248529,-0.800000,-0.335306,-0.780194,-0.389950,-0.741421,-0.741421,-0.389950,-0.788777,-0.314585,-0.800000,-0.248529,-0.800000,0.248529,-0.780194,0.335306,
-0.741421,0.389950,-0.389950,0.741421,-0.314585,0.788777,-0.248529,0.800000,0.248529,0.800000,0.335306,0.780194,0.335306,0.780194,$1*%
G04 Aperture macros list end*
%ADD10C,0.150000*%
%ADD11C,0.063500*%
%ADD12C,0.120000*%
%ADD13C,0.100000*%
%ADD14C,0.000000*%
%ADD15C,0.500000*%
%ADD16O,1.800000X1.100000*%
%ADD17O,1.450000X1.050000*%
%ADD18FreePoly0,90.000000*%
%ADD19C,1.600000*%
%ADD20RoundRect,0.200000X0.600000X-0.600000X0.600000X0.600000X-0.600000X0.600000X-0.600000X-0.600000X0*%
%ADD21C,1.574800*%
%ADD22R,1.574800X1.574800*%
%ADD23R,1.700000X1.700000*%
%ADD24C,1.700000*%
%ADD25C,1.524000*%
%ADD26O,1.700000X1.950000*%
%ADD27RoundRect,0.250000X-0.600000X-0.725000X0.600000X-0.725000X0.600000X0.725000X-0.600000X0.725000X0*%
%ADD28RoundRect,0.250000X0.725000X-0.600000X0.725000X0.600000X-0.725000X0.600000X-0.725000X-0.600000X0*%
%ADD29O,1.950000X1.700000*%
%ADD30C,6.400000*%
%ADD31R,3.800000X3.800000*%
%ADD32C,4.000000*%
%ADD33RoundRect,0.250000X-0.600000X-0.750000X0.600000X-0.750000X0.600000X0.750000X-0.600000X0.750000X0*%
%ADD34O,1.700000X2.000000*%
%ADD35O,1.700000X1.700000*%
%ADD36RoundRect,1.500000X1.500000X-1.500000X1.500000X1.500000X-1.500000X1.500000X-1.500000X-1.500000X0*%
%ADD37C,6.000000*%
%ADD38C,4.200000*%
%ADD39C,5.600000*%
%ADD40RoundRect,0.250000X0.600000X0.750000X-0.600000X0.750000X-0.600000X-0.750000X0.600000X-0.750000X0*%
%ADD41C,10.000000*%
%ADD42RoundRect,0.237500X-0.250000X-0.237500X0.250000X-0.237500X0.250000X0.237500X-0.250000X0.237500X0*%
%ADD43R,1.100000X1.000000*%
%ADD44R,1.100000X0.800000*%
G04 APERTURE END LIST*
D10*
X121249839Y-84819247D02*
X120983173Y-84819247D01*
X120868887Y-85238295D02*
X121249839Y-85238295D01*
X121249839Y-85238295D02*
X121249839Y-84438295D01*
X121249839Y-84438295D02*
X120868887Y-84438295D01*
X120526029Y-85238295D02*
X120526029Y-84438295D01*
X120526029Y-84438295D02*
X120068886Y-85238295D01*
X120068886Y-85238295D02*
X120068886Y-84438295D01*
X58130887Y-102002295D02*
X58511839Y-102002295D01*
X58511839Y-102002295D02*
X58511839Y-101202295D01*
X57864220Y-101583247D02*
X57597554Y-101583247D01*
X57483268Y-102002295D02*
X57864220Y-102002295D01*
X57864220Y-102002295D02*
X57864220Y-101202295D01*
X57864220Y-101202295D02*
X57483268Y-101202295D01*
X57140410Y-102002295D02*
X57140410Y-101202295D01*
X57140410Y-101202295D02*
X56949934Y-101202295D01*
X56949934Y-101202295D02*
X56835648Y-101240390D01*
X56835648Y-101240390D02*
X56759458Y-101316580D01*
X56759458Y-101316580D02*
X56721363Y-101392771D01*
X56721363Y-101392771D02*
X56683267Y-101545152D01*
X56683267Y-101545152D02*
X56683267Y-101659438D01*
X56683267Y-101659438D02*
X56721363Y-101811819D01*
X56721363Y-101811819D02*
X56759458Y-101888009D01*
X56759458Y-101888009D02*
X56835648Y-101964200D01*
X56835648Y-101964200D02*
X56949934Y-102002295D01*
X56949934Y-102002295D02*
X57140410Y-102002295D01*
X56530887Y-102078485D02*
X55921363Y-102078485D01*
X55273743Y-102002295D02*
X55540410Y-101621342D01*
X55730886Y-102002295D02*
X55730886Y-101202295D01*
X55730886Y-101202295D02*
X55426124Y-101202295D01*
X55426124Y-101202295D02*
X55349934Y-101240390D01*
X55349934Y-101240390D02*
X55311839Y-101278485D01*
X55311839Y-101278485D02*
X55273743Y-101354676D01*
X55273743Y-101354676D02*
X55273743Y-101468961D01*
X55273743Y-101468961D02*
X55311839Y-101545152D01*
X55311839Y-101545152D02*
X55349934Y-101583247D01*
X55349934Y-101583247D02*
X55426124Y-101621342D01*
X55426124Y-101621342D02*
X55730886Y-101621342D01*
X134426077Y-100369819D02*
X134092744Y-101369819D01*
X134092744Y-101369819D02*
X133759411Y-100369819D01*
X133235601Y-100369819D02*
X133045125Y-100369819D01*
X133045125Y-100369819D02*
X132949887Y-100417438D01*
X132949887Y-100417438D02*
X132854649Y-100512676D01*
X132854649Y-100512676D02*
X132807030Y-100703152D01*
X132807030Y-100703152D02*
X132807030Y-101036485D01*
X132807030Y-101036485D02*
X132854649Y-101226961D01*
X132854649Y-101226961D02*
X132949887Y-101322200D01*
X132949887Y-101322200D02*
X133045125Y-101369819D01*
X133045125Y-101369819D02*
X133235601Y-101369819D01*
X133235601Y-101369819D02*
X133330839Y-101322200D01*
X133330839Y-101322200D02*
X133426077Y-101226961D01*
X133426077Y-101226961D02*
X133473696Y-101036485D01*
X133473696Y-101036485D02*
X133473696Y-100703152D01*
X133473696Y-100703152D02*
X133426077Y-100512676D01*
X133426077Y-100512676D02*
X133330839Y-100417438D01*
X133330839Y-100417438D02*
X133235601Y-100369819D01*
X132378458Y-100369819D02*
X132378458Y-101179342D01*
X132378458Y-101179342D02*
X132330839Y-101274580D01*
X132330839Y-101274580D02*
X132283220Y-101322200D01*
X132283220Y-101322200D02*
X132187982Y-101369819D01*
X132187982Y-101369819D02*
X131997506Y-101369819D01*
X131997506Y-101369819D02*
X131902268Y-101322200D01*
X131902268Y-101322200D02*
X131854649Y-101274580D01*
X131854649Y-101274580D02*
X131807030Y-101179342D01*
X131807030Y-101179342D02*
X131807030Y-100369819D01*
X131473696Y-100369819D02*
X130902268Y-100369819D01*
X131187982Y-101369819D02*
X131187982Y-100369819D01*
X135029411Y-70481819D02*
X135600839Y-70481819D01*
X135315125Y-70481819D02*
X135315125Y-69481819D01*
X135315125Y-69481819D02*
X135410363Y-69624676D01*
X135410363Y-69624676D02*
X135505601Y-69719914D01*
X135505601Y-69719914D02*
X135600839Y-69767533D01*
X134648458Y-69577057D02*
X134600839Y-69529438D01*
X134600839Y-69529438D02*
X134505601Y-69481819D01*
X134505601Y-69481819D02*
X134267506Y-69481819D01*
X134267506Y-69481819D02*
X134172268Y-69529438D01*
X134172268Y-69529438D02*
X134124649Y-69577057D01*
X134124649Y-69577057D02*
X134077030Y-69672295D01*
X134077030Y-69672295D02*
X134077030Y-69767533D01*
X134077030Y-69767533D02*
X134124649Y-69910390D01*
X134124649Y-69910390D02*
X134696077Y-70481819D01*
X134696077Y-70481819D02*
X134077030Y-70481819D01*
X133791315Y-69481819D02*
X133457982Y-70481819D01*
X133457982Y-70481819D02*
X133124649Y-69481819D01*
X58636819Y-112696667D02*
X59636819Y-113030000D01*
X59636819Y-113030000D02*
X58636819Y-113363333D01*
X132639411Y-80369819D02*
X133210839Y-80369819D01*
X132925125Y-80369819D02*
X132925125Y-79369819D01*
X132925125Y-79369819D02*
X133020363Y-79512676D01*
X133020363Y-79512676D02*
X133115601Y-79607914D01*
X133115601Y-79607914D02*
X133210839Y-79655533D01*
X132258458Y-79465057D02*
X132210839Y-79417438D01*
X132210839Y-79417438D02*
X132115601Y-79369819D01*
X132115601Y-79369819D02*
X131877506Y-79369819D01*
X131877506Y-79369819D02*
X131782268Y-79417438D01*
X131782268Y-79417438D02*
X131734649Y-79465057D01*
X131734649Y-79465057D02*
X131687030Y-79560295D01*
X131687030Y-79560295D02*
X131687030Y-79655533D01*
X131687030Y-79655533D02*
X131734649Y-79798390D01*
X131734649Y-79798390D02*
X132306077Y-80369819D01*
X132306077Y-80369819D02*
X131687030Y-80369819D01*
X131401315Y-79369819D02*
X131067982Y-80369819D01*
X131067982Y-80369819D02*
X130734649Y-79369819D01*
X54509200Y-112744286D02*
X54556819Y-112887143D01*
X54556819Y-112887143D02*
X54556819Y-113125238D01*
X54556819Y-113125238D02*
X54509200Y-113220476D01*
X54509200Y-113220476D02*
X54461580Y-113268095D01*
X54461580Y-113268095D02*
X54366342Y-113315714D01*
X54366342Y-113315714D02*
X54271104Y-113315714D01*
X54271104Y-113315714D02*
X54175866Y-113268095D01*
X54175866Y-113268095D02*
X54128247Y-113220476D01*
X54128247Y-113220476D02*
X54080628Y-113125238D01*
X54080628Y-113125238D02*
X54033009Y-112934762D01*
X54033009Y-112934762D02*
X53985390Y-112839524D01*
X53985390Y-112839524D02*
X53937771Y-112791905D01*
X53937771Y-112791905D02*
X53842533Y-112744286D01*
X53842533Y-112744286D02*
X53747295Y-112744286D01*
X53747295Y-112744286D02*
X53652057Y-112791905D01*
X53652057Y-112791905D02*
X53604438Y-112839524D01*
X53604438Y-112839524D02*
X53556819Y-112934762D01*
X53556819Y-112934762D02*
X53556819Y-113172857D01*
X53556819Y-113172857D02*
X53604438Y-113315714D01*
X56144438Y-113291904D02*
X56096819Y-113196666D01*
X56096819Y-113196666D02*
X56096819Y-113053809D01*
X56096819Y-113053809D02*
X56144438Y-112910952D01*
X56144438Y-112910952D02*
X56239676Y-112815714D01*
X56239676Y-112815714D02*
X56334914Y-112768095D01*
X56334914Y-112768095D02*
X56525390Y-112720476D01*
X56525390Y-112720476D02*
X56668247Y-112720476D01*
X56668247Y-112720476D02*
X56858723Y-112768095D01*
X56858723Y-112768095D02*
X56953961Y-112815714D01*
X56953961Y-112815714D02*
X57049200Y-112910952D01*
X57049200Y-112910952D02*
X57096819Y-113053809D01*
X57096819Y-113053809D02*
X57096819Y-113149047D01*
X57096819Y-113149047D02*
X57049200Y-113291904D01*
X57049200Y-113291904D02*
X57001580Y-113339523D01*
X57001580Y-113339523D02*
X56668247Y-113339523D01*
X56668247Y-113339523D02*
X56668247Y-113149047D01*
X145748935Y-84856200D02*
X145634649Y-84894295D01*
X145634649Y-84894295D02*
X145444173Y-84894295D01*
X145444173Y-84894295D02*
X145367982Y-84856200D01*
X145367982Y-84856200D02*
X145329887Y-84818104D01*
X145329887Y-84818104D02*
X145291792Y-84741914D01*
X145291792Y-84741914D02*
X145291792Y-84665723D01*
X145291792Y-84665723D02*
X145329887Y-84589533D01*
X145329887Y-84589533D02*
X145367982Y-84551438D01*
X145367982Y-84551438D02*
X145444173Y-84513342D01*
X145444173Y-84513342D02*
X145596554Y-84475247D01*
X145596554Y-84475247D02*
X145672744Y-84437152D01*
X145672744Y-84437152D02*
X145710839Y-84399057D01*
X145710839Y-84399057D02*
X145748935Y-84322866D01*
X145748935Y-84322866D02*
X145748935Y-84246676D01*
X145748935Y-84246676D02*
X145710839Y-84170485D01*
X145710839Y-84170485D02*
X145672744Y-84132390D01*
X145672744Y-84132390D02*
X145596554Y-84094295D01*
X145596554Y-84094295D02*
X145406077Y-84094295D01*
X145406077Y-84094295D02*
X145291792Y-84132390D01*
X145025125Y-84094295D02*
X144834649Y-84894295D01*
X144834649Y-84894295D02*
X144682268Y-84322866D01*
X144682268Y-84322866D02*
X144529887Y-84894295D01*
X144529887Y-84894295D02*
X144339411Y-84094295D01*
X144034648Y-84894295D02*
X144034648Y-84094295D01*
X144034648Y-84094295D02*
X143844172Y-84094295D01*
X143844172Y-84094295D02*
X143729886Y-84132390D01*
X143729886Y-84132390D02*
X143653696Y-84208580D01*
X143653696Y-84208580D02*
X143615601Y-84284771D01*
X143615601Y-84284771D02*
X143577505Y-84437152D01*
X143577505Y-84437152D02*
X143577505Y-84551438D01*
X143577505Y-84551438D02*
X143615601Y-84703819D01*
X143615601Y-84703819D02*
X143653696Y-84780009D01*
X143653696Y-84780009D02*
X143729886Y-84856200D01*
X143729886Y-84856200D02*
X143844172Y-84894295D01*
X143844172Y-84894295D02*
X144034648Y-84894295D01*
X143234648Y-84894295D02*
X143234648Y-84094295D01*
X142701315Y-84094295D02*
X142548934Y-84094295D01*
X142548934Y-84094295D02*
X142472744Y-84132390D01*
X142472744Y-84132390D02*
X142396553Y-84208580D01*
X142396553Y-84208580D02*
X142358458Y-84360961D01*
X142358458Y-84360961D02*
X142358458Y-84627628D01*
X142358458Y-84627628D02*
X142396553Y-84780009D01*
X142396553Y-84780009D02*
X142472744Y-84856200D01*
X142472744Y-84856200D02*
X142548934Y-84894295D01*
X142548934Y-84894295D02*
X142701315Y-84894295D01*
X142701315Y-84894295D02*
X142777506Y-84856200D01*
X142777506Y-84856200D02*
X142853696Y-84780009D01*
X142853696Y-84780009D02*
X142891792Y-84627628D01*
X142891792Y-84627628D02*
X142891792Y-84360961D01*
X142891792Y-84360961D02*
X142853696Y-84208580D01*
X142853696Y-84208580D02*
X142777506Y-84132390D01*
X142777506Y-84132390D02*
X142701315Y-84094295D01*
X121639411Y-100417438D02*
X121734649Y-100369819D01*
X121734649Y-100369819D02*
X121877506Y-100369819D01*
X121877506Y-100369819D02*
X122020363Y-100417438D01*
X122020363Y-100417438D02*
X122115601Y-100512676D01*
X122115601Y-100512676D02*
X122163220Y-100607914D01*
X122163220Y-100607914D02*
X122210839Y-100798390D01*
X122210839Y-100798390D02*
X122210839Y-100941247D01*
X122210839Y-100941247D02*
X122163220Y-101131723D01*
X122163220Y-101131723D02*
X122115601Y-101226961D01*
X122115601Y-101226961D02*
X122020363Y-101322200D01*
X122020363Y-101322200D02*
X121877506Y-101369819D01*
X121877506Y-101369819D02*
X121782268Y-101369819D01*
X121782268Y-101369819D02*
X121639411Y-101322200D01*
X121639411Y-101322200D02*
X121591792Y-101274580D01*
X121591792Y-101274580D02*
X121591792Y-100941247D01*
X121591792Y-100941247D02*
X121782268Y-100941247D01*
X121163220Y-101369819D02*
X121163220Y-100369819D01*
X121163220Y-100369819D02*
X120591792Y-101369819D01*
X120591792Y-101369819D02*
X120591792Y-100369819D01*
X120115601Y-101369819D02*
X120115601Y-100369819D01*
X120115601Y-100369819D02*
X119877506Y-100369819D01*
X119877506Y-100369819D02*
X119734649Y-100417438D01*
X119734649Y-100417438D02*
X119639411Y-100512676D01*
X119639411Y-100512676D02*
X119591792Y-100607914D01*
X119591792Y-100607914D02*
X119544173Y-100798390D01*
X119544173Y-100798390D02*
X119544173Y-100941247D01*
X119544173Y-100941247D02*
X119591792Y-101131723D01*
X119591792Y-101131723D02*
X119639411Y-101226961D01*
X119639411Y-101226961D02*
X119734649Y-101322200D01*
X119734649Y-101322200D02*
X119877506Y-101369819D01*
X119877506Y-101369819D02*
X120115601Y-101369819D01*
X122639411Y-79417438D02*
X122734649Y-79369819D01*
X122734649Y-79369819D02*
X122877506Y-79369819D01*
X122877506Y-79369819D02*
X123020363Y-79417438D01*
X123020363Y-79417438D02*
X123115601Y-79512676D01*
X123115601Y-79512676D02*
X123163220Y-79607914D01*
X123163220Y-79607914D02*
X123210839Y-79798390D01*
X123210839Y-79798390D02*
X123210839Y-79941247D01*
X123210839Y-79941247D02*
X123163220Y-80131723D01*
X123163220Y-80131723D02*
X123115601Y-80226961D01*
X123115601Y-80226961D02*
X123020363Y-80322200D01*
X123020363Y-80322200D02*
X122877506Y-80369819D01*
X122877506Y-80369819D02*
X122782268Y-80369819D01*
X122782268Y-80369819D02*
X122639411Y-80322200D01*
X122639411Y-80322200D02*
X122591792Y-80274580D01*
X122591792Y-80274580D02*
X122591792Y-79941247D01*
X122591792Y-79941247D02*
X122782268Y-79941247D01*
X122163220Y-80369819D02*
X122163220Y-79369819D01*
X122163220Y-79369819D02*
X121591792Y-80369819D01*
X121591792Y-80369819D02*
X121591792Y-79369819D01*
X121115601Y-80369819D02*
X121115601Y-79369819D01*
X121115601Y-79369819D02*
X120877506Y-79369819D01*
X120877506Y-79369819D02*
X120734649Y-79417438D01*
X120734649Y-79417438D02*
X120639411Y-79512676D01*
X120639411Y-79512676D02*
X120591792Y-79607914D01*
X120591792Y-79607914D02*
X120544173Y-79798390D01*
X120544173Y-79798390D02*
X120544173Y-79941247D01*
X120544173Y-79941247D02*
X120591792Y-80131723D01*
X120591792Y-80131723D02*
X120639411Y-80226961D01*
X120639411Y-80226961D02*
X120734649Y-80322200D01*
X120734649Y-80322200D02*
X120877506Y-80369819D01*
X120877506Y-80369819D02*
X121115601Y-80369819D01*
X120353697Y-80465057D02*
X119591792Y-80465057D01*
X119353696Y-80369819D02*
X119353696Y-79369819D01*
X118877506Y-80369819D02*
X118877506Y-79369819D01*
X118877506Y-79369819D02*
X118306078Y-80369819D01*
X118306078Y-80369819D02*
X118306078Y-79369819D01*
X58690476Y-76346009D02*
X58547619Y-76393628D01*
X58547619Y-76393628D02*
X58500000Y-76441247D01*
X58500000Y-76441247D02*
X58452381Y-76536485D01*
X58452381Y-76536485D02*
X58452381Y-76679342D01*
X58452381Y-76679342D02*
X58500000Y-76774580D01*
X58500000Y-76774580D02*
X58547619Y-76822200D01*
X58547619Y-76822200D02*
X58642857Y-76869819D01*
X58642857Y-76869819D02*
X59023809Y-76869819D01*
X59023809Y-76869819D02*
X59023809Y-75869819D01*
X59023809Y-75869819D02*
X58690476Y-75869819D01*
X58690476Y-75869819D02*
X58595238Y-75917438D01*
X58595238Y-75917438D02*
X58547619Y-75965057D01*
X58547619Y-75965057D02*
X58500000Y-76060295D01*
X58500000Y-76060295D02*
X58500000Y-76155533D01*
X58500000Y-76155533D02*
X58547619Y-76250771D01*
X58547619Y-76250771D02*
X58595238Y-76298390D01*
X58595238Y-76298390D02*
X58690476Y-76346009D01*
X58690476Y-76346009D02*
X59023809Y-76346009D01*
X57833333Y-75869819D02*
X57642857Y-75869819D01*
X57642857Y-75869819D02*
X57547619Y-75917438D01*
X57547619Y-75917438D02*
X57452381Y-76012676D01*
X57452381Y-76012676D02*
X57404762Y-76203152D01*
X57404762Y-76203152D02*
X57404762Y-76536485D01*
X57404762Y-76536485D02*
X57452381Y-76726961D01*
X57452381Y-76726961D02*
X57547619Y-76822200D01*
X57547619Y-76822200D02*
X57642857Y-76869819D01*
X57642857Y-76869819D02*
X57833333Y-76869819D01*
X57833333Y-76869819D02*
X57928571Y-76822200D01*
X57928571Y-76822200D02*
X58023809Y-76726961D01*
X58023809Y-76726961D02*
X58071428Y-76536485D01*
X58071428Y-76536485D02*
X58071428Y-76203152D01*
X58071428Y-76203152D02*
X58023809Y-76012676D01*
X58023809Y-76012676D02*
X57928571Y-75917438D01*
X57928571Y-75917438D02*
X57833333Y-75869819D01*
X56785714Y-75869819D02*
X56595238Y-75869819D01*
X56595238Y-75869819D02*
X56500000Y-75917438D01*
X56500000Y-75917438D02*
X56404762Y-76012676D01*
X56404762Y-76012676D02*
X56357143Y-76203152D01*
X56357143Y-76203152D02*
X56357143Y-76536485D01*
X56357143Y-76536485D02*
X56404762Y-76726961D01*
X56404762Y-76726961D02*
X56500000Y-76822200D01*
X56500000Y-76822200D02*
X56595238Y-76869819D01*
X56595238Y-76869819D02*
X56785714Y-76869819D01*
X56785714Y-76869819D02*
X56880952Y-76822200D01*
X56880952Y-76822200D02*
X56976190Y-76726961D01*
X56976190Y-76726961D02*
X57023809Y-76536485D01*
X57023809Y-76536485D02*
X57023809Y-76203152D01*
X57023809Y-76203152D02*
X56976190Y-76012676D01*
X56976190Y-76012676D02*
X56880952Y-75917438D01*
X56880952Y-75917438D02*
X56785714Y-75869819D01*
X56071428Y-75869819D02*
X55500000Y-75869819D01*
X55785714Y-76869819D02*
X55785714Y-75869819D01*
X55214285Y-76822200D02*
X55071428Y-76869819D01*
X55071428Y-76869819D02*
X54833333Y-76869819D01*
X54833333Y-76869819D02*
X54738095Y-76822200D01*
X54738095Y-76822200D02*
X54690476Y-76774580D01*
X54690476Y-76774580D02*
X54642857Y-76679342D01*
X54642857Y-76679342D02*
X54642857Y-76584104D01*
X54642857Y-76584104D02*
X54690476Y-76488866D01*
X54690476Y-76488866D02*
X54738095Y-76441247D01*
X54738095Y-76441247D02*
X54833333Y-76393628D01*
X54833333Y-76393628D02*
X55023809Y-76346009D01*
X55023809Y-76346009D02*
X55119047Y-76298390D01*
X55119047Y-76298390D02*
X55166666Y-76250771D01*
X55166666Y-76250771D02*
X55214285Y-76155533D01*
X55214285Y-76155533D02*
X55214285Y-76060295D01*
X55214285Y-76060295D02*
X55166666Y-75965057D01*
X55166666Y-75965057D02*
X55119047Y-75917438D01*
X55119047Y-75917438D02*
X55023809Y-75869819D01*
X55023809Y-75869819D02*
X54785714Y-75869819D01*
X54785714Y-75869819D02*
X54642857Y-75917438D01*
X54214285Y-76346009D02*
X53880952Y-76346009D01*
X53738095Y-76869819D02*
X54214285Y-76869819D01*
X54214285Y-76869819D02*
X54214285Y-75869819D01*
X54214285Y-75869819D02*
X53738095Y-75869819D01*
X52833333Y-76869819D02*
X53309523Y-76869819D01*
X53309523Y-76869819D02*
X53309523Y-75869819D01*
X143210839Y-80369819D02*
X143210839Y-79369819D01*
X143210839Y-79369819D02*
X143020363Y-79369819D01*
X143020363Y-79369819D02*
X142906077Y-79417438D01*
X142906077Y-79417438D02*
X142829887Y-79512676D01*
X142829887Y-79512676D02*
X142791792Y-79607914D01*
X142791792Y-79607914D02*
X142753696Y-79798390D01*
X142753696Y-79798390D02*
X142753696Y-79941247D01*
X142753696Y-79941247D02*
X142791792Y-80131723D01*
X142791792Y-80131723D02*
X142829887Y-80226961D01*
X142829887Y-80226961D02*
X142906077Y-80322200D01*
X142906077Y-80322200D02*
X143020363Y-80369819D01*
X143020363Y-80369819D02*
X143210839Y-80369819D01*
X142410839Y-79846009D02*
X142144173Y-79846009D01*
X142029887Y-80369819D02*
X142410839Y-80369819D01*
X142410839Y-80369819D02*
X142410839Y-79369819D01*
X142410839Y-79369819D02*
X142029887Y-79369819D01*
X141420363Y-79846009D02*
X141306077Y-79893628D01*
X141306077Y-79893628D02*
X141267982Y-79941247D01*
X141267982Y-79941247D02*
X141229886Y-80036485D01*
X141229886Y-80036485D02*
X141229886Y-80179342D01*
X141229886Y-80179342D02*
X141267982Y-80274580D01*
X141267982Y-80274580D02*
X141306077Y-80322200D01*
X141306077Y-80322200D02*
X141382267Y-80369819D01*
X141382267Y-80369819D02*
X141687029Y-80369819D01*
X141687029Y-80369819D02*
X141687029Y-79369819D01*
X141687029Y-79369819D02*
X141420363Y-79369819D01*
X141420363Y-79369819D02*
X141344172Y-79417438D01*
X141344172Y-79417438D02*
X141306077Y-79465057D01*
X141306077Y-79465057D02*
X141267982Y-79560295D01*
X141267982Y-79560295D02*
X141267982Y-79655533D01*
X141267982Y-79655533D02*
X141306077Y-79750771D01*
X141306077Y-79750771D02*
X141344172Y-79798390D01*
X141344172Y-79798390D02*
X141420363Y-79846009D01*
X141420363Y-79846009D02*
X141687029Y-79846009D01*
X140887029Y-79369819D02*
X140887029Y-80179342D01*
X140887029Y-80179342D02*
X140848934Y-80274580D01*
X140848934Y-80274580D02*
X140810839Y-80322200D01*
X140810839Y-80322200D02*
X140734648Y-80369819D01*
X140734648Y-80369819D02*
X140582267Y-80369819D01*
X140582267Y-80369819D02*
X140506077Y-80322200D01*
X140506077Y-80322200D02*
X140467982Y-80274580D01*
X140467982Y-80274580D02*
X140429886Y-80179342D01*
X140429886Y-80179342D02*
X140429886Y-79369819D01*
X139629887Y-79417438D02*
X139706077Y-79369819D01*
X139706077Y-79369819D02*
X139820363Y-79369819D01*
X139820363Y-79369819D02*
X139934649Y-79417438D01*
X139934649Y-79417438D02*
X140010839Y-79512676D01*
X140010839Y-79512676D02*
X140048934Y-79607914D01*
X140048934Y-79607914D02*
X140087030Y-79798390D01*
X140087030Y-79798390D02*
X140087030Y-79941247D01*
X140087030Y-79941247D02*
X140048934Y-80131723D01*
X140048934Y-80131723D02*
X140010839Y-80226961D01*
X140010839Y-80226961D02*
X139934649Y-80322200D01*
X139934649Y-80322200D02*
X139820363Y-80369819D01*
X139820363Y-80369819D02*
X139744172Y-80369819D01*
X139744172Y-80369819D02*
X139629887Y-80322200D01*
X139629887Y-80322200D02*
X139591791Y-80274580D01*
X139591791Y-80274580D02*
X139591791Y-79941247D01*
X139591791Y-79941247D02*
X139744172Y-79941247D01*
X140748935Y-84856200D02*
X140634649Y-84894295D01*
X140634649Y-84894295D02*
X140444173Y-84894295D01*
X140444173Y-84894295D02*
X140367982Y-84856200D01*
X140367982Y-84856200D02*
X140329887Y-84818104D01*
X140329887Y-84818104D02*
X140291792Y-84741914D01*
X140291792Y-84741914D02*
X140291792Y-84665723D01*
X140291792Y-84665723D02*
X140329887Y-84589533D01*
X140329887Y-84589533D02*
X140367982Y-84551438D01*
X140367982Y-84551438D02*
X140444173Y-84513342D01*
X140444173Y-84513342D02*
X140596554Y-84475247D01*
X140596554Y-84475247D02*
X140672744Y-84437152D01*
X140672744Y-84437152D02*
X140710839Y-84399057D01*
X140710839Y-84399057D02*
X140748935Y-84322866D01*
X140748935Y-84322866D02*
X140748935Y-84246676D01*
X140748935Y-84246676D02*
X140710839Y-84170485D01*
X140710839Y-84170485D02*
X140672744Y-84132390D01*
X140672744Y-84132390D02*
X140596554Y-84094295D01*
X140596554Y-84094295D02*
X140406077Y-84094295D01*
X140406077Y-84094295D02*
X140291792Y-84132390D01*
X140025125Y-84094295D02*
X139834649Y-84894295D01*
X139834649Y-84894295D02*
X139682268Y-84322866D01*
X139682268Y-84322866D02*
X139529887Y-84894295D01*
X139529887Y-84894295D02*
X139339411Y-84094295D01*
X139034648Y-84894295D02*
X139034648Y-84094295D01*
X139034648Y-84094295D02*
X138844172Y-84094295D01*
X138844172Y-84094295D02*
X138729886Y-84132390D01*
X138729886Y-84132390D02*
X138653696Y-84208580D01*
X138653696Y-84208580D02*
X138615601Y-84284771D01*
X138615601Y-84284771D02*
X138577505Y-84437152D01*
X138577505Y-84437152D02*
X138577505Y-84551438D01*
X138577505Y-84551438D02*
X138615601Y-84703819D01*
X138615601Y-84703819D02*
X138653696Y-84780009D01*
X138653696Y-84780009D02*
X138729886Y-84856200D01*
X138729886Y-84856200D02*
X138844172Y-84894295D01*
X138844172Y-84894295D02*
X139034648Y-84894295D01*
X137777505Y-84818104D02*
X137815601Y-84856200D01*
X137815601Y-84856200D02*
X137929886Y-84894295D01*
X137929886Y-84894295D02*
X138006077Y-84894295D01*
X138006077Y-84894295D02*
X138120363Y-84856200D01*
X138120363Y-84856200D02*
X138196553Y-84780009D01*
X138196553Y-84780009D02*
X138234648Y-84703819D01*
X138234648Y-84703819D02*
X138272744Y-84551438D01*
X138272744Y-84551438D02*
X138272744Y-84437152D01*
X138272744Y-84437152D02*
X138234648Y-84284771D01*
X138234648Y-84284771D02*
X138196553Y-84208580D01*
X138196553Y-84208580D02*
X138120363Y-84132390D01*
X138120363Y-84132390D02*
X138006077Y-84094295D01*
X138006077Y-84094295D02*
X137929886Y-84094295D01*
X137929886Y-84094295D02*
X137815601Y-84132390D01*
X137815601Y-84132390D02*
X137777505Y-84170485D01*
X137053696Y-84894295D02*
X137434648Y-84894295D01*
X137434648Y-84894295D02*
X137434648Y-84094295D01*
X136787029Y-84894295D02*
X136787029Y-84094295D01*
X136329886Y-84894295D02*
X136672744Y-84437152D01*
X136329886Y-84094295D02*
X136787029Y-84551438D01*
X97814868Y-73083529D02*
X97841805Y-73002716D01*
X97841805Y-73002716D02*
X97922618Y-72921904D01*
X97922618Y-72921904D02*
X98030367Y-72868029D01*
X98030367Y-72868029D02*
X98138117Y-72868029D01*
X98138117Y-72868029D02*
X98218929Y-72894967D01*
X98218929Y-72894967D02*
X98353616Y-72975779D01*
X98353616Y-72975779D02*
X98434428Y-73056591D01*
X98434428Y-73056591D02*
X98515241Y-73191278D01*
X98515241Y-73191278D02*
X98542178Y-73272091D01*
X98542178Y-73272091D02*
X98542178Y-73379840D01*
X98542178Y-73379840D02*
X98488303Y-73487590D01*
X98488303Y-73487590D02*
X98434428Y-73541465D01*
X98434428Y-73541465D02*
X98326679Y-73595339D01*
X98326679Y-73595339D02*
X98272804Y-73595339D01*
X98272804Y-73595339D02*
X98084242Y-73406778D01*
X98084242Y-73406778D02*
X98191992Y-73299028D01*
X98084242Y-73891651D02*
X97518557Y-73325965D01*
X97518557Y-73325965D02*
X97303057Y-73541465D01*
X97303057Y-73541465D02*
X97276120Y-73622277D01*
X97276120Y-73622277D02*
X97276120Y-73676152D01*
X97276120Y-73676152D02*
X97303057Y-73756964D01*
X97303057Y-73756964D02*
X97383870Y-73837776D01*
X97383870Y-73837776D02*
X97464682Y-73864713D01*
X97464682Y-73864713D02*
X97518557Y-73864713D01*
X97518557Y-73864713D02*
X97599369Y-73837776D01*
X97599369Y-73837776D02*
X97814868Y-73622277D01*
X97033683Y-73918588D02*
X96979809Y-73918588D01*
X96979809Y-73918588D02*
X96898996Y-73945526D01*
X96898996Y-73945526D02*
X96764309Y-74080213D01*
X96764309Y-74080213D02*
X96737372Y-74161025D01*
X96737372Y-74161025D02*
X96737372Y-74214900D01*
X96737372Y-74214900D02*
X96764309Y-74295712D01*
X96764309Y-74295712D02*
X96818184Y-74349587D01*
X96818184Y-74349587D02*
X96925934Y-74403461D01*
X96925934Y-74403461D02*
X97572431Y-74403461D01*
X97572431Y-74403461D02*
X97222245Y-74753648D01*
X96683497Y-75292396D02*
X97006746Y-74969147D01*
X96845121Y-75130771D02*
X96279436Y-74565086D01*
X96279436Y-74565086D02*
X96414123Y-74592023D01*
X96414123Y-74592023D02*
X96521873Y-74592023D01*
X96521873Y-74592023D02*
X96602685Y-74565086D01*
X87385494Y-96226372D02*
X87412431Y-96145560D01*
X87412431Y-96145560D02*
X87493243Y-96064748D01*
X87493243Y-96064748D02*
X87600993Y-96010873D01*
X87600993Y-96010873D02*
X87708742Y-96010873D01*
X87708742Y-96010873D02*
X87789555Y-96037810D01*
X87789555Y-96037810D02*
X87924242Y-96118623D01*
X87924242Y-96118623D02*
X88005054Y-96199435D01*
X88005054Y-96199435D02*
X88085866Y-96334122D01*
X88085866Y-96334122D02*
X88112803Y-96414934D01*
X88112803Y-96414934D02*
X88112803Y-96522684D01*
X88112803Y-96522684D02*
X88058929Y-96630433D01*
X88058929Y-96630433D02*
X88005054Y-96684308D01*
X88005054Y-96684308D02*
X87897304Y-96738183D01*
X87897304Y-96738183D02*
X87843429Y-96738183D01*
X87843429Y-96738183D02*
X87654868Y-96549621D01*
X87654868Y-96549621D02*
X87762617Y-96441871D01*
X87654868Y-97034494D02*
X87089182Y-96468809D01*
X87089182Y-96468809D02*
X86873683Y-96684308D01*
X86873683Y-96684308D02*
X86846746Y-96765120D01*
X86846746Y-96765120D02*
X86846746Y-96818995D01*
X86846746Y-96818995D02*
X86873683Y-96899807D01*
X86873683Y-96899807D02*
X86954495Y-96980619D01*
X86954495Y-96980619D02*
X87035307Y-97007557D01*
X87035307Y-97007557D02*
X87089182Y-97007557D01*
X87089182Y-97007557D02*
X87169994Y-96980619D01*
X87169994Y-96980619D02*
X87385494Y-96765120D01*
X86577372Y-96980619D02*
X86200248Y-97357743D01*
X86200248Y-97357743D02*
X87008370Y-97680992D01*
X102894868Y-73083529D02*
X102921805Y-73002716D01*
X102921805Y-73002716D02*
X103002618Y-72921904D01*
X103002618Y-72921904D02*
X103110367Y-72868029D01*
X103110367Y-72868029D02*
X103218117Y-72868029D01*
X103218117Y-72868029D02*
X103298929Y-72894967D01*
X103298929Y-72894967D02*
X103433616Y-72975779D01*
X103433616Y-72975779D02*
X103514428Y-73056591D01*
X103514428Y-73056591D02*
X103595241Y-73191278D01*
X103595241Y-73191278D02*
X103622178Y-73272091D01*
X103622178Y-73272091D02*
X103622178Y-73379840D01*
X103622178Y-73379840D02*
X103568303Y-73487590D01*
X103568303Y-73487590D02*
X103514428Y-73541465D01*
X103514428Y-73541465D02*
X103406679Y-73595339D01*
X103406679Y-73595339D02*
X103352804Y-73595339D01*
X103352804Y-73595339D02*
X103164242Y-73406778D01*
X103164242Y-73406778D02*
X103271992Y-73299028D01*
X103164242Y-73891651D02*
X102598557Y-73325965D01*
X102598557Y-73325965D02*
X102383057Y-73541465D01*
X102383057Y-73541465D02*
X102356120Y-73622277D01*
X102356120Y-73622277D02*
X102356120Y-73676152D01*
X102356120Y-73676152D02*
X102383057Y-73756964D01*
X102383057Y-73756964D02*
X102463870Y-73837776D01*
X102463870Y-73837776D02*
X102544682Y-73864713D01*
X102544682Y-73864713D02*
X102598557Y-73864713D01*
X102598557Y-73864713D02*
X102679369Y-73837776D01*
X102679369Y-73837776D02*
X102894868Y-73622277D01*
X102302245Y-74753648D02*
X102625494Y-74430399D01*
X102463870Y-74592023D02*
X101898184Y-74026338D01*
X101898184Y-74026338D02*
X102032871Y-74053275D01*
X102032871Y-74053275D02*
X102140621Y-74053275D01*
X102140621Y-74053275D02*
X102221433Y-74026338D01*
X102032871Y-75023022D02*
X101925121Y-75130771D01*
X101925121Y-75130771D02*
X101844309Y-75157709D01*
X101844309Y-75157709D02*
X101790434Y-75157709D01*
X101790434Y-75157709D02*
X101655747Y-75130771D01*
X101655747Y-75130771D02*
X101521060Y-75049959D01*
X101521060Y-75049959D02*
X101305561Y-74834460D01*
X101305561Y-74834460D02*
X101278624Y-74753648D01*
X101278624Y-74753648D02*
X101278624Y-74699773D01*
X101278624Y-74699773D02*
X101305561Y-74618961D01*
X101305561Y-74618961D02*
X101413311Y-74511211D01*
X101413311Y-74511211D02*
X101494123Y-74484274D01*
X101494123Y-74484274D02*
X101547998Y-74484274D01*
X101547998Y-74484274D02*
X101628810Y-74511211D01*
X101628810Y-74511211D02*
X101763497Y-74645898D01*
X101763497Y-74645898D02*
X101790434Y-74726710D01*
X101790434Y-74726710D02*
X101790434Y-74780585D01*
X101790434Y-74780585D02*
X101763497Y-74861397D01*
X101763497Y-74861397D02*
X101655747Y-74969147D01*
X101655747Y-74969147D02*
X101574935Y-74996084D01*
X101574935Y-74996084D02*
X101521060Y-74996084D01*
X101521060Y-74996084D02*
X101440248Y-74969147D01*
X67065494Y-96226372D02*
X67092431Y-96145560D01*
X67092431Y-96145560D02*
X67173243Y-96064748D01*
X67173243Y-96064748D02*
X67280993Y-96010873D01*
X67280993Y-96010873D02*
X67388742Y-96010873D01*
X67388742Y-96010873D02*
X67469555Y-96037810D01*
X67469555Y-96037810D02*
X67604242Y-96118623D01*
X67604242Y-96118623D02*
X67685054Y-96199435D01*
X67685054Y-96199435D02*
X67765866Y-96334122D01*
X67765866Y-96334122D02*
X67792803Y-96414934D01*
X67792803Y-96414934D02*
X67792803Y-96522684D01*
X67792803Y-96522684D02*
X67738929Y-96630433D01*
X67738929Y-96630433D02*
X67685054Y-96684308D01*
X67685054Y-96684308D02*
X67577304Y-96738183D01*
X67577304Y-96738183D02*
X67523429Y-96738183D01*
X67523429Y-96738183D02*
X67334868Y-96549621D01*
X67334868Y-96549621D02*
X67442617Y-96441871D01*
X67334868Y-97034494D02*
X66769182Y-96468809D01*
X66769182Y-96468809D02*
X66553683Y-96684308D01*
X66553683Y-96684308D02*
X66526746Y-96765120D01*
X66526746Y-96765120D02*
X66526746Y-96818995D01*
X66526746Y-96818995D02*
X66553683Y-96899807D01*
X66553683Y-96899807D02*
X66634495Y-96980619D01*
X66634495Y-96980619D02*
X66715307Y-97007557D01*
X66715307Y-97007557D02*
X66769182Y-97007557D01*
X66769182Y-97007557D02*
X66849994Y-96980619D01*
X66849994Y-96980619D02*
X67065494Y-96765120D01*
X66472871Y-97896491D02*
X66796120Y-97573242D01*
X66634495Y-97734867D02*
X66068810Y-97169181D01*
X66068810Y-97169181D02*
X66203497Y-97196119D01*
X66203497Y-97196119D02*
X66311246Y-97196119D01*
X66311246Y-97196119D02*
X66392059Y-97169181D01*
X98527142Y-85140000D02*
X98441428Y-85168571D01*
X98441428Y-85168571D02*
X98298570Y-85168571D01*
X98298570Y-85168571D02*
X98241428Y-85140000D01*
X98241428Y-85140000D02*
X98212856Y-85111428D01*
X98212856Y-85111428D02*
X98184285Y-85054285D01*
X98184285Y-85054285D02*
X98184285Y-84997142D01*
X98184285Y-84997142D02*
X98212856Y-84940000D01*
X98212856Y-84940000D02*
X98241428Y-84911428D01*
X98241428Y-84911428D02*
X98298570Y-84882857D01*
X98298570Y-84882857D02*
X98412856Y-84854285D01*
X98412856Y-84854285D02*
X98469999Y-84825714D01*
X98469999Y-84825714D02*
X98498570Y-84797142D01*
X98498570Y-84797142D02*
X98527142Y-84740000D01*
X98527142Y-84740000D02*
X98527142Y-84682857D01*
X98527142Y-84682857D02*
X98498570Y-84625714D01*
X98498570Y-84625714D02*
X98469999Y-84597142D01*
X98469999Y-84597142D02*
X98412856Y-84568571D01*
X98412856Y-84568571D02*
X98269999Y-84568571D01*
X98269999Y-84568571D02*
X98184285Y-84597142D01*
X97984284Y-84568571D02*
X97841427Y-85168571D01*
X97841427Y-85168571D02*
X97727141Y-84740000D01*
X97727141Y-84740000D02*
X97612856Y-85168571D01*
X97612856Y-85168571D02*
X97469999Y-84568571D01*
X96898570Y-85111428D02*
X96927142Y-85140000D01*
X96927142Y-85140000D02*
X97012856Y-85168571D01*
X97012856Y-85168571D02*
X97069999Y-85168571D01*
X97069999Y-85168571D02*
X97155713Y-85140000D01*
X97155713Y-85140000D02*
X97212856Y-85082857D01*
X97212856Y-85082857D02*
X97241427Y-85025714D01*
X97241427Y-85025714D02*
X97269999Y-84911428D01*
X97269999Y-84911428D02*
X97269999Y-84825714D01*
X97269999Y-84825714D02*
X97241427Y-84711428D01*
X97241427Y-84711428D02*
X97212856Y-84654285D01*
X97212856Y-84654285D02*
X97155713Y-84597142D01*
X97155713Y-84597142D02*
X97069999Y-84568571D01*
X97069999Y-84568571D02*
X97012856Y-84568571D01*
X97012856Y-84568571D02*
X96927142Y-84597142D01*
X96927142Y-84597142D02*
X96898570Y-84625714D01*
X96355713Y-85168571D02*
X96641427Y-85168571D01*
X96641427Y-85168571D02*
X96641427Y-84568571D01*
X96155713Y-85168571D02*
X96155713Y-84568571D01*
X95812856Y-85168571D02*
X96069999Y-84825714D01*
X95812856Y-84568571D02*
X96155713Y-84911428D01*
X67604242Y-72841092D02*
X67981366Y-73595339D01*
X67981366Y-73595339D02*
X67227118Y-73218216D01*
X67604242Y-73918588D02*
X67550367Y-74026338D01*
X67550367Y-74026338D02*
X67415680Y-74161025D01*
X67415680Y-74161025D02*
X67334868Y-74187962D01*
X67334868Y-74187962D02*
X67280993Y-74187962D01*
X67280993Y-74187962D02*
X67200181Y-74161025D01*
X67200181Y-74161025D02*
X67146306Y-74107150D01*
X67146306Y-74107150D02*
X67119369Y-74026338D01*
X67119369Y-74026338D02*
X67119369Y-73972463D01*
X67119369Y-73972463D02*
X67146306Y-73891651D01*
X67146306Y-73891651D02*
X67227118Y-73756964D01*
X67227118Y-73756964D02*
X67254056Y-73676151D01*
X67254056Y-73676151D02*
X67254056Y-73622277D01*
X67254056Y-73622277D02*
X67227118Y-73541464D01*
X67227118Y-73541464D02*
X67173244Y-73487590D01*
X67173244Y-73487590D02*
X67092431Y-73460652D01*
X67092431Y-73460652D02*
X67038557Y-73460652D01*
X67038557Y-73460652D02*
X66957744Y-73487590D01*
X66957744Y-73487590D02*
X66823057Y-73622277D01*
X66823057Y-73622277D02*
X66769183Y-73730026D01*
X66688370Y-74349587D02*
X66957744Y-74618961D01*
X66580621Y-73864713D02*
X66688370Y-74349587D01*
X66688370Y-74349587D02*
X66203497Y-74241837D01*
X66580621Y-74942209D02*
X66526746Y-75049959D01*
X66526746Y-75049959D02*
X66392059Y-75184646D01*
X66392059Y-75184646D02*
X66311247Y-75211583D01*
X66311247Y-75211583D02*
X66257372Y-75211583D01*
X66257372Y-75211583D02*
X66176560Y-75184646D01*
X66176560Y-75184646D02*
X66122685Y-75130771D01*
X66122685Y-75130771D02*
X66095748Y-75049959D01*
X66095748Y-75049959D02*
X66095748Y-74996084D01*
X66095748Y-74996084D02*
X66122685Y-74915272D01*
X66122685Y-74915272D02*
X66203497Y-74780585D01*
X66203497Y-74780585D02*
X66230435Y-74699773D01*
X66230435Y-74699773D02*
X66230435Y-74645898D01*
X66230435Y-74645898D02*
X66203497Y-74565086D01*
X66203497Y-74565086D02*
X66149622Y-74511211D01*
X66149622Y-74511211D02*
X66068810Y-74484273D01*
X66068810Y-74484273D02*
X66014935Y-74484273D01*
X66014935Y-74484273D02*
X65934123Y-74511211D01*
X65934123Y-74511211D02*
X65799436Y-74645898D01*
X65799436Y-74645898D02*
X65745561Y-74753647D01*
X90477710Y-74107150D02*
X90396898Y-73649215D01*
X90800959Y-73783902D02*
X90235274Y-73218216D01*
X90235274Y-73218216D02*
X90019775Y-73433715D01*
X90019775Y-73433715D02*
X89992837Y-73514528D01*
X89992837Y-73514528D02*
X89992837Y-73568402D01*
X89992837Y-73568402D02*
X90019775Y-73649215D01*
X90019775Y-73649215D02*
X90100587Y-73730027D01*
X90100587Y-73730027D02*
X90181399Y-73756964D01*
X90181399Y-73756964D02*
X90235274Y-73756964D01*
X90235274Y-73756964D02*
X90316086Y-73730027D01*
X90316086Y-73730027D02*
X90531585Y-73514528D01*
X89669588Y-73783902D02*
X90127524Y-74241837D01*
X90127524Y-74241837D02*
X90154462Y-74322650D01*
X90154462Y-74322650D02*
X90154462Y-74376524D01*
X90154462Y-74376524D02*
X90127524Y-74457337D01*
X90127524Y-74457337D02*
X90019775Y-74565086D01*
X90019775Y-74565086D02*
X89938962Y-74592024D01*
X89938962Y-74592024D02*
X89885088Y-74592024D01*
X89885088Y-74592024D02*
X89804275Y-74565086D01*
X89804275Y-74565086D02*
X89346340Y-74107150D01*
X89642651Y-74942210D02*
X89076966Y-74376524D01*
X89076966Y-74376524D02*
X89319402Y-75265458D01*
X89319402Y-75265458D02*
X88753717Y-74699773D01*
X69632431Y-73568403D02*
X69659368Y-73487591D01*
X69659368Y-73487591D02*
X69740180Y-73406779D01*
X69740180Y-73406779D02*
X69847930Y-73352904D01*
X69847930Y-73352904D02*
X69955680Y-73352904D01*
X69955680Y-73352904D02*
X70036492Y-73379841D01*
X70036492Y-73379841D02*
X70171179Y-73460653D01*
X70171179Y-73460653D02*
X70251991Y-73541466D01*
X70251991Y-73541466D02*
X70332803Y-73676153D01*
X70332803Y-73676153D02*
X70359741Y-73756965D01*
X70359741Y-73756965D02*
X70359741Y-73864714D01*
X70359741Y-73864714D02*
X70305866Y-73972464D01*
X70305866Y-73972464D02*
X70251991Y-74026339D01*
X70251991Y-74026339D02*
X70144241Y-74080214D01*
X70144241Y-74080214D02*
X70090367Y-74080214D01*
X70090367Y-74080214D02*
X69901805Y-73891652D01*
X69901805Y-73891652D02*
X70009554Y-73783902D01*
X69901805Y-74376525D02*
X69336119Y-73810840D01*
X69336119Y-73810840D02*
X69578556Y-74699774D01*
X69578556Y-74699774D02*
X69012871Y-74134088D01*
X69309182Y-74969148D02*
X68743497Y-74403462D01*
X68743497Y-74403462D02*
X68608810Y-74538149D01*
X68608810Y-74538149D02*
X68554935Y-74645899D01*
X68554935Y-74645899D02*
X68554935Y-74753648D01*
X68554935Y-74753648D02*
X68581872Y-74834461D01*
X68581872Y-74834461D02*
X68662685Y-74969148D01*
X68662685Y-74969148D02*
X68743497Y-75049960D01*
X68743497Y-75049960D02*
X68878184Y-75130772D01*
X68878184Y-75130772D02*
X68958996Y-75157709D01*
X68958996Y-75157709D02*
X69066746Y-75157709D01*
X69066746Y-75157709D02*
X69174495Y-75103835D01*
X69174495Y-75103835D02*
X69309182Y-74969148D01*
X107732431Y-96226372D02*
X107759368Y-96145560D01*
X107759368Y-96145560D02*
X107840180Y-96064748D01*
X107840180Y-96064748D02*
X107947930Y-96010873D01*
X107947930Y-96010873D02*
X108055680Y-96010873D01*
X108055680Y-96010873D02*
X108136492Y-96037810D01*
X108136492Y-96037810D02*
X108271179Y-96118622D01*
X108271179Y-96118622D02*
X108351991Y-96199435D01*
X108351991Y-96199435D02*
X108432803Y-96334122D01*
X108432803Y-96334122D02*
X108459741Y-96414934D01*
X108459741Y-96414934D02*
X108459741Y-96522683D01*
X108459741Y-96522683D02*
X108405866Y-96630433D01*
X108405866Y-96630433D02*
X108351991Y-96684308D01*
X108351991Y-96684308D02*
X108244241Y-96738183D01*
X108244241Y-96738183D02*
X108190367Y-96738183D01*
X108190367Y-96738183D02*
X108001805Y-96549621D01*
X108001805Y-96549621D02*
X108109554Y-96441871D01*
X108001805Y-97034494D02*
X107436119Y-96468809D01*
X107436119Y-96468809D02*
X107678556Y-97357743D01*
X107678556Y-97357743D02*
X107112871Y-96792057D01*
X107409182Y-97627117D02*
X106843497Y-97061431D01*
X106843497Y-97061431D02*
X106708810Y-97196118D01*
X106708810Y-97196118D02*
X106654935Y-97303868D01*
X106654935Y-97303868D02*
X106654935Y-97411617D01*
X106654935Y-97411617D02*
X106681872Y-97492430D01*
X106681872Y-97492430D02*
X106762685Y-97627117D01*
X106762685Y-97627117D02*
X106843497Y-97707929D01*
X106843497Y-97707929D02*
X106978184Y-97788741D01*
X106978184Y-97788741D02*
X107058996Y-97815678D01*
X107058996Y-97815678D02*
X107166746Y-97815678D01*
X107166746Y-97815678D02*
X107274495Y-97761804D01*
X107274495Y-97761804D02*
X107409182Y-97627117D01*
X105434868Y-73083529D02*
X105461805Y-73002716D01*
X105461805Y-73002716D02*
X105542618Y-72921904D01*
X105542618Y-72921904D02*
X105650367Y-72868029D01*
X105650367Y-72868029D02*
X105758117Y-72868029D01*
X105758117Y-72868029D02*
X105838929Y-72894967D01*
X105838929Y-72894967D02*
X105973616Y-72975779D01*
X105973616Y-72975779D02*
X106054428Y-73056591D01*
X106054428Y-73056591D02*
X106135241Y-73191278D01*
X106135241Y-73191278D02*
X106162178Y-73272091D01*
X106162178Y-73272091D02*
X106162178Y-73379840D01*
X106162178Y-73379840D02*
X106108303Y-73487590D01*
X106108303Y-73487590D02*
X106054428Y-73541465D01*
X106054428Y-73541465D02*
X105946679Y-73595339D01*
X105946679Y-73595339D02*
X105892804Y-73595339D01*
X105892804Y-73595339D02*
X105704242Y-73406778D01*
X105704242Y-73406778D02*
X105811992Y-73299028D01*
X105704242Y-73891651D02*
X105138557Y-73325965D01*
X105138557Y-73325965D02*
X104923057Y-73541465D01*
X104923057Y-73541465D02*
X104896120Y-73622277D01*
X104896120Y-73622277D02*
X104896120Y-73676152D01*
X104896120Y-73676152D02*
X104923057Y-73756964D01*
X104923057Y-73756964D02*
X105003870Y-73837776D01*
X105003870Y-73837776D02*
X105084682Y-73864713D01*
X105084682Y-73864713D02*
X105138557Y-73864713D01*
X105138557Y-73864713D02*
X105219369Y-73837776D01*
X105219369Y-73837776D02*
X105434868Y-73622277D01*
X104842245Y-74753648D02*
X105165494Y-74430399D01*
X105003870Y-74592023D02*
X104438184Y-74026338D01*
X104438184Y-74026338D02*
X104572871Y-74053275D01*
X104572871Y-74053275D02*
X104680621Y-74053275D01*
X104680621Y-74053275D02*
X104761433Y-74026338D01*
X104195747Y-74753648D02*
X104222685Y-74672836D01*
X104222685Y-74672836D02*
X104222685Y-74618961D01*
X104222685Y-74618961D02*
X104195747Y-74538149D01*
X104195747Y-74538149D02*
X104168810Y-74511211D01*
X104168810Y-74511211D02*
X104087998Y-74484274D01*
X104087998Y-74484274D02*
X104034123Y-74484274D01*
X104034123Y-74484274D02*
X103953311Y-74511211D01*
X103953311Y-74511211D02*
X103845561Y-74618961D01*
X103845561Y-74618961D02*
X103818624Y-74699773D01*
X103818624Y-74699773D02*
X103818624Y-74753648D01*
X103818624Y-74753648D02*
X103845561Y-74834460D01*
X103845561Y-74834460D02*
X103872499Y-74861397D01*
X103872499Y-74861397D02*
X103953311Y-74888335D01*
X103953311Y-74888335D02*
X104007186Y-74888335D01*
X104007186Y-74888335D02*
X104087998Y-74861397D01*
X104087998Y-74861397D02*
X104195747Y-74753648D01*
X104195747Y-74753648D02*
X104276560Y-74726710D01*
X104276560Y-74726710D02*
X104330434Y-74726710D01*
X104330434Y-74726710D02*
X104411247Y-74753648D01*
X104411247Y-74753648D02*
X104518996Y-74861397D01*
X104518996Y-74861397D02*
X104545934Y-74942210D01*
X104545934Y-74942210D02*
X104545934Y-74996084D01*
X104545934Y-74996084D02*
X104518996Y-75076897D01*
X104518996Y-75076897D02*
X104411247Y-75184646D01*
X104411247Y-75184646D02*
X104330434Y-75211584D01*
X104330434Y-75211584D02*
X104276560Y-75211584D01*
X104276560Y-75211584D02*
X104195747Y-75184646D01*
X104195747Y-75184646D02*
X104087998Y-75076897D01*
X104087998Y-75076897D02*
X104061060Y-74996084D01*
X104061060Y-74996084D02*
X104061060Y-74942210D01*
X104061060Y-74942210D02*
X104087998Y-74861397D01*
X73817584Y-71817471D02*
X73467398Y-72167657D01*
X73467398Y-72167657D02*
X73871459Y-72194595D01*
X73871459Y-72194595D02*
X73790646Y-72275407D01*
X73790646Y-72275407D02*
X73763709Y-72356219D01*
X73763709Y-72356219D02*
X73763709Y-72410094D01*
X73763709Y-72410094D02*
X73790646Y-72490906D01*
X73790646Y-72490906D02*
X73925333Y-72625593D01*
X73925333Y-72625593D02*
X74006146Y-72652531D01*
X74006146Y-72652531D02*
X74060020Y-72652531D01*
X74060020Y-72652531D02*
X74140833Y-72625593D01*
X74140833Y-72625593D02*
X74302457Y-72463969D01*
X74302457Y-72463969D02*
X74329394Y-72383157D01*
X74329394Y-72383157D02*
X74329394Y-72329282D01*
X73305773Y-72329282D02*
X73682897Y-73083529D01*
X73682897Y-73083529D02*
X72928649Y-72706406D01*
X72793963Y-72841092D02*
X72443776Y-73191279D01*
X72443776Y-73191279D02*
X72847837Y-73218216D01*
X72847837Y-73218216D02*
X72767025Y-73299028D01*
X72767025Y-73299028D02*
X72740088Y-73379840D01*
X72740088Y-73379840D02*
X72740088Y-73433715D01*
X72740088Y-73433715D02*
X72767025Y-73514528D01*
X72767025Y-73514528D02*
X72901712Y-73649215D01*
X72901712Y-73649215D02*
X72982524Y-73676152D01*
X72982524Y-73676152D02*
X73036399Y-73676152D01*
X73036399Y-73676152D02*
X73117211Y-73649215D01*
X73117211Y-73649215D02*
X73278836Y-73487590D01*
X73278836Y-73487590D02*
X73305773Y-73406778D01*
X73305773Y-73406778D02*
X73305773Y-73352903D01*
X72955587Y-73918589D02*
X72524588Y-74349587D01*
X72039715Y-74134088D02*
X71851153Y-74322650D01*
X72066652Y-74699773D02*
X72336026Y-74430399D01*
X72336026Y-74430399D02*
X71770341Y-73864714D01*
X71770341Y-73864714D02*
X71500967Y-74134088D01*
X71824215Y-74942210D02*
X71258530Y-74376525D01*
X71258530Y-74376525D02*
X71500967Y-75265459D01*
X71500967Y-75265459D02*
X70935281Y-74699774D01*
X79773049Y-71251786D02*
X79503675Y-71521160D01*
X79988549Y-71359535D02*
X79234301Y-70982412D01*
X79234301Y-70982412D02*
X79611425Y-71736659D01*
X79422863Y-71925221D02*
X78857178Y-71359535D01*
X78857178Y-71359535D02*
X78722491Y-71494222D01*
X78722491Y-71494222D02*
X78668616Y-71601972D01*
X78668616Y-71601972D02*
X78668616Y-71709721D01*
X78668616Y-71709721D02*
X78695553Y-71790534D01*
X78695553Y-71790534D02*
X78776366Y-71925221D01*
X78776366Y-71925221D02*
X78857178Y-72006033D01*
X78857178Y-72006033D02*
X78991865Y-72086845D01*
X78991865Y-72086845D02*
X79072677Y-72113782D01*
X79072677Y-72113782D02*
X79180427Y-72113782D01*
X79180427Y-72113782D02*
X79288176Y-72059908D01*
X79288176Y-72059908D02*
X79422863Y-71925221D01*
X78480054Y-72760280D02*
X78533929Y-72760280D01*
X78533929Y-72760280D02*
X78641679Y-72706405D01*
X78641679Y-72706405D02*
X78695553Y-72652530D01*
X78695553Y-72652530D02*
X78749428Y-72544781D01*
X78749428Y-72544781D02*
X78749428Y-72437031D01*
X78749428Y-72437031D02*
X78722491Y-72356219D01*
X78722491Y-72356219D02*
X78641679Y-72221532D01*
X78641679Y-72221532D02*
X78560866Y-72140720D01*
X78560866Y-72140720D02*
X78426179Y-72059908D01*
X78426179Y-72059908D02*
X78345367Y-72032970D01*
X78345367Y-72032970D02*
X78237618Y-72032970D01*
X78237618Y-72032970D02*
X78129868Y-72086845D01*
X78129868Y-72086845D02*
X78075993Y-72140720D01*
X78075993Y-72140720D02*
X78022118Y-72248469D01*
X78022118Y-72248469D02*
X78022118Y-72302344D01*
X78480054Y-72975779D02*
X78049056Y-73406778D01*
X77375621Y-72841092D02*
X77752744Y-73595340D01*
X77752744Y-73595340D02*
X76998497Y-73218216D01*
X77052372Y-74295712D02*
X76971560Y-73837776D01*
X77375621Y-73972463D02*
X76809935Y-73406778D01*
X76809935Y-73406778D02*
X76594436Y-73622277D01*
X76594436Y-73622277D02*
X76567499Y-73703089D01*
X76567499Y-73703089D02*
X76567499Y-73756964D01*
X76567499Y-73756964D02*
X76594436Y-73837776D01*
X76594436Y-73837776D02*
X76675248Y-73918588D01*
X76675248Y-73918588D02*
X76756061Y-73945526D01*
X76756061Y-73945526D02*
X76809935Y-73945526D01*
X76809935Y-73945526D02*
X76890748Y-73918588D01*
X76890748Y-73918588D02*
X77106247Y-73703089D01*
X76513624Y-74241837D02*
X76325062Y-74430399D01*
X76540561Y-74807522D02*
X76809935Y-74538148D01*
X76809935Y-74538148D02*
X76244250Y-73972463D01*
X76244250Y-73972463D02*
X75974876Y-74241837D01*
X75813251Y-74942210D02*
X76001813Y-74753648D01*
X76298125Y-75049959D02*
X75732439Y-74484274D01*
X75732439Y-74484274D02*
X75463065Y-74753648D01*
X100354868Y-73083529D02*
X100381805Y-73002716D01*
X100381805Y-73002716D02*
X100462618Y-72921904D01*
X100462618Y-72921904D02*
X100570367Y-72868029D01*
X100570367Y-72868029D02*
X100678117Y-72868029D01*
X100678117Y-72868029D02*
X100758929Y-72894967D01*
X100758929Y-72894967D02*
X100893616Y-72975779D01*
X100893616Y-72975779D02*
X100974428Y-73056591D01*
X100974428Y-73056591D02*
X101055241Y-73191278D01*
X101055241Y-73191278D02*
X101082178Y-73272091D01*
X101082178Y-73272091D02*
X101082178Y-73379840D01*
X101082178Y-73379840D02*
X101028303Y-73487590D01*
X101028303Y-73487590D02*
X100974428Y-73541465D01*
X100974428Y-73541465D02*
X100866679Y-73595339D01*
X100866679Y-73595339D02*
X100812804Y-73595339D01*
X100812804Y-73595339D02*
X100624242Y-73406778D01*
X100624242Y-73406778D02*
X100731992Y-73299028D01*
X100624242Y-73891651D02*
X100058557Y-73325965D01*
X100058557Y-73325965D02*
X99843057Y-73541465D01*
X99843057Y-73541465D02*
X99816120Y-73622277D01*
X99816120Y-73622277D02*
X99816120Y-73676152D01*
X99816120Y-73676152D02*
X99843057Y-73756964D01*
X99843057Y-73756964D02*
X99923870Y-73837776D01*
X99923870Y-73837776D02*
X100004682Y-73864713D01*
X100004682Y-73864713D02*
X100058557Y-73864713D01*
X100058557Y-73864713D02*
X100139369Y-73837776D01*
X100139369Y-73837776D02*
X100354868Y-73622277D01*
X99573683Y-73918588D02*
X99519809Y-73918588D01*
X99519809Y-73918588D02*
X99438996Y-73945526D01*
X99438996Y-73945526D02*
X99304309Y-74080213D01*
X99304309Y-74080213D02*
X99277372Y-74161025D01*
X99277372Y-74161025D02*
X99277372Y-74214900D01*
X99277372Y-74214900D02*
X99304309Y-74295712D01*
X99304309Y-74295712D02*
X99358184Y-74349587D01*
X99358184Y-74349587D02*
X99465934Y-74403461D01*
X99465934Y-74403461D02*
X100112431Y-74403461D01*
X100112431Y-74403461D02*
X99762245Y-74753648D01*
X98846373Y-74538149D02*
X98792499Y-74592023D01*
X98792499Y-74592023D02*
X98765561Y-74672836D01*
X98765561Y-74672836D02*
X98765561Y-74726710D01*
X98765561Y-74726710D02*
X98792499Y-74807523D01*
X98792499Y-74807523D02*
X98873311Y-74942210D01*
X98873311Y-74942210D02*
X99007998Y-75076897D01*
X99007998Y-75076897D02*
X99142685Y-75157709D01*
X99142685Y-75157709D02*
X99223497Y-75184646D01*
X99223497Y-75184646D02*
X99277372Y-75184646D01*
X99277372Y-75184646D02*
X99358184Y-75157709D01*
X99358184Y-75157709D02*
X99412059Y-75103834D01*
X99412059Y-75103834D02*
X99438996Y-75023022D01*
X99438996Y-75023022D02*
X99438996Y-74969147D01*
X99438996Y-74969147D02*
X99412059Y-74888335D01*
X99412059Y-74888335D02*
X99331247Y-74753648D01*
X99331247Y-74753648D02*
X99196560Y-74618961D01*
X99196560Y-74618961D02*
X99061873Y-74538149D01*
X99061873Y-74538149D02*
X98981060Y-74511211D01*
X98981060Y-74511211D02*
X98927186Y-74511211D01*
X98927186Y-74511211D02*
X98846373Y-74538149D01*
X102894868Y-96226372D02*
X102921805Y-96145559D01*
X102921805Y-96145559D02*
X103002618Y-96064747D01*
X103002618Y-96064747D02*
X103110367Y-96010872D01*
X103110367Y-96010872D02*
X103218117Y-96010872D01*
X103218117Y-96010872D02*
X103298929Y-96037810D01*
X103298929Y-96037810D02*
X103433616Y-96118622D01*
X103433616Y-96118622D02*
X103514428Y-96199434D01*
X103514428Y-96199434D02*
X103595241Y-96334121D01*
X103595241Y-96334121D02*
X103622178Y-96414934D01*
X103622178Y-96414934D02*
X103622178Y-96522683D01*
X103622178Y-96522683D02*
X103568303Y-96630433D01*
X103568303Y-96630433D02*
X103514428Y-96684308D01*
X103514428Y-96684308D02*
X103406679Y-96738182D01*
X103406679Y-96738182D02*
X103352804Y-96738182D01*
X103352804Y-96738182D02*
X103164242Y-96549621D01*
X103164242Y-96549621D02*
X103271992Y-96441871D01*
X103164242Y-97034494D02*
X102598557Y-96468808D01*
X102598557Y-96468808D02*
X102383057Y-96684308D01*
X102383057Y-96684308D02*
X102356120Y-96765120D01*
X102356120Y-96765120D02*
X102356120Y-96818995D01*
X102356120Y-96818995D02*
X102383057Y-96899807D01*
X102383057Y-96899807D02*
X102463870Y-96980619D01*
X102463870Y-96980619D02*
X102544682Y-97007556D01*
X102544682Y-97007556D02*
X102598557Y-97007556D01*
X102598557Y-97007556D02*
X102679369Y-96980619D01*
X102679369Y-96980619D02*
X102894868Y-96765120D01*
X102302245Y-97896491D02*
X102625494Y-97573242D01*
X102463870Y-97734866D02*
X101898184Y-97169181D01*
X101898184Y-97169181D02*
X102032871Y-97196118D01*
X102032871Y-97196118D02*
X102140621Y-97196118D01*
X102140621Y-97196118D02*
X102221433Y-97169181D01*
X101574935Y-97600179D02*
X101521060Y-97600179D01*
X101521060Y-97600179D02*
X101440248Y-97627117D01*
X101440248Y-97627117D02*
X101305561Y-97761804D01*
X101305561Y-97761804D02*
X101278624Y-97842616D01*
X101278624Y-97842616D02*
X101278624Y-97896491D01*
X101278624Y-97896491D02*
X101305561Y-97977303D01*
X101305561Y-97977303D02*
X101359436Y-98031178D01*
X101359436Y-98031178D02*
X101467186Y-98085053D01*
X101467186Y-98085053D02*
X102113683Y-98085053D01*
X102113683Y-98085053D02*
X101763497Y-98435239D01*
X79850868Y-73083529D02*
X79877805Y-73002716D01*
X79877805Y-73002716D02*
X79958618Y-72921904D01*
X79958618Y-72921904D02*
X80066367Y-72868029D01*
X80066367Y-72868029D02*
X80174117Y-72868029D01*
X80174117Y-72868029D02*
X80254929Y-72894967D01*
X80254929Y-72894967D02*
X80389616Y-72975779D01*
X80389616Y-72975779D02*
X80470428Y-73056591D01*
X80470428Y-73056591D02*
X80551241Y-73191278D01*
X80551241Y-73191278D02*
X80578178Y-73272091D01*
X80578178Y-73272091D02*
X80578178Y-73379840D01*
X80578178Y-73379840D02*
X80524303Y-73487590D01*
X80524303Y-73487590D02*
X80470428Y-73541465D01*
X80470428Y-73541465D02*
X80362679Y-73595339D01*
X80362679Y-73595339D02*
X80308804Y-73595339D01*
X80308804Y-73595339D02*
X80120242Y-73406778D01*
X80120242Y-73406778D02*
X80227992Y-73299028D01*
X80120242Y-73891651D02*
X79554557Y-73325965D01*
X79554557Y-73325965D02*
X79339057Y-73541465D01*
X79339057Y-73541465D02*
X79312120Y-73622277D01*
X79312120Y-73622277D02*
X79312120Y-73676152D01*
X79312120Y-73676152D02*
X79339057Y-73756964D01*
X79339057Y-73756964D02*
X79419870Y-73837776D01*
X79419870Y-73837776D02*
X79500682Y-73864713D01*
X79500682Y-73864713D02*
X79554557Y-73864713D01*
X79554557Y-73864713D02*
X79635369Y-73837776D01*
X79635369Y-73837776D02*
X79850868Y-73622277D01*
X79069683Y-73918588D02*
X79015809Y-73918588D01*
X79015809Y-73918588D02*
X78934996Y-73945526D01*
X78934996Y-73945526D02*
X78800309Y-74080213D01*
X78800309Y-74080213D02*
X78773372Y-74161025D01*
X78773372Y-74161025D02*
X78773372Y-74214900D01*
X78773372Y-74214900D02*
X78800309Y-74295712D01*
X78800309Y-74295712D02*
X78854184Y-74349587D01*
X78854184Y-74349587D02*
X78961934Y-74403461D01*
X78961934Y-74403461D02*
X79608431Y-74403461D01*
X79608431Y-74403461D02*
X79258245Y-74753648D01*
X78611747Y-74753648D02*
X78638685Y-74672836D01*
X78638685Y-74672836D02*
X78638685Y-74618961D01*
X78638685Y-74618961D02*
X78611747Y-74538149D01*
X78611747Y-74538149D02*
X78584810Y-74511211D01*
X78584810Y-74511211D02*
X78503998Y-74484274D01*
X78503998Y-74484274D02*
X78450123Y-74484274D01*
X78450123Y-74484274D02*
X78369311Y-74511211D01*
X78369311Y-74511211D02*
X78261561Y-74618961D01*
X78261561Y-74618961D02*
X78234624Y-74699773D01*
X78234624Y-74699773D02*
X78234624Y-74753648D01*
X78234624Y-74753648D02*
X78261561Y-74834460D01*
X78261561Y-74834460D02*
X78288499Y-74861397D01*
X78288499Y-74861397D02*
X78369311Y-74888335D01*
X78369311Y-74888335D02*
X78423186Y-74888335D01*
X78423186Y-74888335D02*
X78503998Y-74861397D01*
X78503998Y-74861397D02*
X78611747Y-74753648D01*
X78611747Y-74753648D02*
X78692560Y-74726710D01*
X78692560Y-74726710D02*
X78746434Y-74726710D01*
X78746434Y-74726710D02*
X78827247Y-74753648D01*
X78827247Y-74753648D02*
X78934996Y-74861397D01*
X78934996Y-74861397D02*
X78961934Y-74942210D01*
X78961934Y-74942210D02*
X78961934Y-74996084D01*
X78961934Y-74996084D02*
X78934996Y-75076897D01*
X78934996Y-75076897D02*
X78827247Y-75184646D01*
X78827247Y-75184646D02*
X78746434Y-75211584D01*
X78746434Y-75211584D02*
X78692560Y-75211584D01*
X78692560Y-75211584D02*
X78611747Y-75184646D01*
X78611747Y-75184646D02*
X78503998Y-75076897D01*
X78503998Y-75076897D02*
X78477060Y-74996084D01*
X78477060Y-74996084D02*
X78477060Y-74942210D01*
X78477060Y-74942210D02*
X78503998Y-74861397D01*
X115305523Y-85181342D02*
X115381713Y-85152771D01*
X115381713Y-85152771D02*
X115495999Y-85152771D01*
X115495999Y-85152771D02*
X115610285Y-85181342D01*
X115610285Y-85181342D02*
X115686475Y-85238485D01*
X115686475Y-85238485D02*
X115724570Y-85295628D01*
X115724570Y-85295628D02*
X115762666Y-85409914D01*
X115762666Y-85409914D02*
X115762666Y-85495628D01*
X115762666Y-85495628D02*
X115724570Y-85609914D01*
X115724570Y-85609914D02*
X115686475Y-85667057D01*
X115686475Y-85667057D02*
X115610285Y-85724200D01*
X115610285Y-85724200D02*
X115495999Y-85752771D01*
X115495999Y-85752771D02*
X115419808Y-85752771D01*
X115419808Y-85752771D02*
X115305523Y-85724200D01*
X115305523Y-85724200D02*
X115267427Y-85695628D01*
X115267427Y-85695628D02*
X115267427Y-85495628D01*
X115267427Y-85495628D02*
X115419808Y-85495628D01*
X114924570Y-85752771D02*
X114924570Y-85152771D01*
X114924570Y-85152771D02*
X114467427Y-85752771D01*
X114467427Y-85752771D02*
X114467427Y-85152771D01*
X114086475Y-85752771D02*
X114086475Y-85152771D01*
X114086475Y-85152771D02*
X113895999Y-85152771D01*
X113895999Y-85152771D02*
X113781713Y-85181342D01*
X113781713Y-85181342D02*
X113705523Y-85238485D01*
X113705523Y-85238485D02*
X113667428Y-85295628D01*
X113667428Y-85295628D02*
X113629332Y-85409914D01*
X113629332Y-85409914D02*
X113629332Y-85495628D01*
X113629332Y-85495628D02*
X113667428Y-85609914D01*
X113667428Y-85609914D02*
X113705523Y-85667057D01*
X113705523Y-85667057D02*
X113781713Y-85724200D01*
X113781713Y-85724200D02*
X113895999Y-85752771D01*
X113895999Y-85752771D02*
X114086475Y-85752771D01*
X64525494Y-96226372D02*
X64552431Y-96145560D01*
X64552431Y-96145560D02*
X64633243Y-96064748D01*
X64633243Y-96064748D02*
X64740993Y-96010873D01*
X64740993Y-96010873D02*
X64848742Y-96010873D01*
X64848742Y-96010873D02*
X64929555Y-96037810D01*
X64929555Y-96037810D02*
X65064242Y-96118623D01*
X65064242Y-96118623D02*
X65145054Y-96199435D01*
X65145054Y-96199435D02*
X65225866Y-96334122D01*
X65225866Y-96334122D02*
X65252803Y-96414934D01*
X65252803Y-96414934D02*
X65252803Y-96522684D01*
X65252803Y-96522684D02*
X65198929Y-96630433D01*
X65198929Y-96630433D02*
X65145054Y-96684308D01*
X65145054Y-96684308D02*
X65037304Y-96738183D01*
X65037304Y-96738183D02*
X64983429Y-96738183D01*
X64983429Y-96738183D02*
X64794868Y-96549621D01*
X64794868Y-96549621D02*
X64902617Y-96441871D01*
X64794868Y-97034494D02*
X64229182Y-96468809D01*
X64229182Y-96468809D02*
X64013683Y-96684308D01*
X64013683Y-96684308D02*
X63986746Y-96765120D01*
X63986746Y-96765120D02*
X63986746Y-96818995D01*
X63986746Y-96818995D02*
X64013683Y-96899807D01*
X64013683Y-96899807D02*
X64094495Y-96980619D01*
X64094495Y-96980619D02*
X64175307Y-97007557D01*
X64175307Y-97007557D02*
X64229182Y-97007557D01*
X64229182Y-97007557D02*
X64309994Y-96980619D01*
X64309994Y-96980619D02*
X64525494Y-96765120D01*
X63555747Y-97142244D02*
X63501872Y-97196119D01*
X63501872Y-97196119D02*
X63474935Y-97276931D01*
X63474935Y-97276931D02*
X63474935Y-97330806D01*
X63474935Y-97330806D02*
X63501872Y-97411618D01*
X63501872Y-97411618D02*
X63582685Y-97546305D01*
X63582685Y-97546305D02*
X63717372Y-97680992D01*
X63717372Y-97680992D02*
X63852059Y-97761804D01*
X63852059Y-97761804D02*
X63932871Y-97788741D01*
X63932871Y-97788741D02*
X63986746Y-97788741D01*
X63986746Y-97788741D02*
X64067558Y-97761804D01*
X64067558Y-97761804D02*
X64121433Y-97707929D01*
X64121433Y-97707929D02*
X64148370Y-97627117D01*
X64148370Y-97627117D02*
X64148370Y-97573242D01*
X64148370Y-97573242D02*
X64121433Y-97492430D01*
X64121433Y-97492430D02*
X64040620Y-97357743D01*
X64040620Y-97357743D02*
X63905933Y-97223056D01*
X63905933Y-97223056D02*
X63771246Y-97142244D01*
X63771246Y-97142244D02*
X63690434Y-97115306D01*
X63690434Y-97115306D02*
X63636559Y-97115306D01*
X63636559Y-97115306D02*
X63555747Y-97142244D01*
X100354868Y-96226372D02*
X100381805Y-96145559D01*
X100381805Y-96145559D02*
X100462618Y-96064747D01*
X100462618Y-96064747D02*
X100570367Y-96010872D01*
X100570367Y-96010872D02*
X100678117Y-96010872D01*
X100678117Y-96010872D02*
X100758929Y-96037810D01*
X100758929Y-96037810D02*
X100893616Y-96118622D01*
X100893616Y-96118622D02*
X100974428Y-96199434D01*
X100974428Y-96199434D02*
X101055241Y-96334121D01*
X101055241Y-96334121D02*
X101082178Y-96414934D01*
X101082178Y-96414934D02*
X101082178Y-96522683D01*
X101082178Y-96522683D02*
X101028303Y-96630433D01*
X101028303Y-96630433D02*
X100974428Y-96684308D01*
X100974428Y-96684308D02*
X100866679Y-96738182D01*
X100866679Y-96738182D02*
X100812804Y-96738182D01*
X100812804Y-96738182D02*
X100624242Y-96549621D01*
X100624242Y-96549621D02*
X100731992Y-96441871D01*
X100624242Y-97034494D02*
X100058557Y-96468808D01*
X100058557Y-96468808D02*
X99843057Y-96684308D01*
X99843057Y-96684308D02*
X99816120Y-96765120D01*
X99816120Y-96765120D02*
X99816120Y-96818995D01*
X99816120Y-96818995D02*
X99843057Y-96899807D01*
X99843057Y-96899807D02*
X99923870Y-96980619D01*
X99923870Y-96980619D02*
X100004682Y-97007556D01*
X100004682Y-97007556D02*
X100058557Y-97007556D01*
X100058557Y-97007556D02*
X100139369Y-96980619D01*
X100139369Y-96980619D02*
X100354868Y-96765120D01*
X99762245Y-97896491D02*
X100085494Y-97573242D01*
X99923870Y-97734866D02*
X99358184Y-97169181D01*
X99358184Y-97169181D02*
X99492871Y-97196118D01*
X99492871Y-97196118D02*
X99600621Y-97196118D01*
X99600621Y-97196118D02*
X99681433Y-97169181D01*
X99223497Y-98435239D02*
X99546746Y-98111990D01*
X99385121Y-98273614D02*
X98819436Y-97707929D01*
X98819436Y-97707929D02*
X98954123Y-97734866D01*
X98954123Y-97734866D02*
X99061873Y-97734866D01*
X99061873Y-97734866D02*
X99142685Y-97707929D01*
X95032431Y-96226372D02*
X95059368Y-96145560D01*
X95059368Y-96145560D02*
X95140180Y-96064748D01*
X95140180Y-96064748D02*
X95247930Y-96010873D01*
X95247930Y-96010873D02*
X95355680Y-96010873D01*
X95355680Y-96010873D02*
X95436492Y-96037810D01*
X95436492Y-96037810D02*
X95571179Y-96118622D01*
X95571179Y-96118622D02*
X95651991Y-96199435D01*
X95651991Y-96199435D02*
X95732803Y-96334122D01*
X95732803Y-96334122D02*
X95759741Y-96414934D01*
X95759741Y-96414934D02*
X95759741Y-96522683D01*
X95759741Y-96522683D02*
X95705866Y-96630433D01*
X95705866Y-96630433D02*
X95651991Y-96684308D01*
X95651991Y-96684308D02*
X95544241Y-96738183D01*
X95544241Y-96738183D02*
X95490367Y-96738183D01*
X95490367Y-96738183D02*
X95301805Y-96549621D01*
X95301805Y-96549621D02*
X95409554Y-96441871D01*
X95301805Y-97034494D02*
X94736119Y-96468809D01*
X94736119Y-96468809D02*
X94978556Y-97357743D01*
X94978556Y-97357743D02*
X94412871Y-96792057D01*
X94709182Y-97627117D02*
X94143497Y-97061431D01*
X94143497Y-97061431D02*
X94008810Y-97196118D01*
X94008810Y-97196118D02*
X93954935Y-97303868D01*
X93954935Y-97303868D02*
X93954935Y-97411617D01*
X93954935Y-97411617D02*
X93981872Y-97492430D01*
X93981872Y-97492430D02*
X94062685Y-97627117D01*
X94062685Y-97627117D02*
X94143497Y-97707929D01*
X94143497Y-97707929D02*
X94278184Y-97788741D01*
X94278184Y-97788741D02*
X94358996Y-97815678D01*
X94358996Y-97815678D02*
X94466746Y-97815678D01*
X94466746Y-97815678D02*
X94574495Y-97761804D01*
X94574495Y-97761804D02*
X94709182Y-97627117D01*
X87654868Y-73083529D02*
X87681805Y-73002716D01*
X87681805Y-73002716D02*
X87762618Y-72921904D01*
X87762618Y-72921904D02*
X87870367Y-72868029D01*
X87870367Y-72868029D02*
X87978117Y-72868029D01*
X87978117Y-72868029D02*
X88058929Y-72894967D01*
X88058929Y-72894967D02*
X88193616Y-72975779D01*
X88193616Y-72975779D02*
X88274428Y-73056591D01*
X88274428Y-73056591D02*
X88355241Y-73191278D01*
X88355241Y-73191278D02*
X88382178Y-73272091D01*
X88382178Y-73272091D02*
X88382178Y-73379840D01*
X88382178Y-73379840D02*
X88328303Y-73487590D01*
X88328303Y-73487590D02*
X88274428Y-73541465D01*
X88274428Y-73541465D02*
X88166679Y-73595339D01*
X88166679Y-73595339D02*
X88112804Y-73595339D01*
X88112804Y-73595339D02*
X87924242Y-73406778D01*
X87924242Y-73406778D02*
X88031992Y-73299028D01*
X87924242Y-73891651D02*
X87358557Y-73325965D01*
X87358557Y-73325965D02*
X87143057Y-73541465D01*
X87143057Y-73541465D02*
X87116120Y-73622277D01*
X87116120Y-73622277D02*
X87116120Y-73676152D01*
X87116120Y-73676152D02*
X87143057Y-73756964D01*
X87143057Y-73756964D02*
X87223870Y-73837776D01*
X87223870Y-73837776D02*
X87304682Y-73864713D01*
X87304682Y-73864713D02*
X87358557Y-73864713D01*
X87358557Y-73864713D02*
X87439369Y-73837776D01*
X87439369Y-73837776D02*
X87654868Y-73622277D01*
X86873683Y-73918588D02*
X86819809Y-73918588D01*
X86819809Y-73918588D02*
X86738996Y-73945526D01*
X86738996Y-73945526D02*
X86604309Y-74080213D01*
X86604309Y-74080213D02*
X86577372Y-74161025D01*
X86577372Y-74161025D02*
X86577372Y-74214900D01*
X86577372Y-74214900D02*
X86604309Y-74295712D01*
X86604309Y-74295712D02*
X86658184Y-74349587D01*
X86658184Y-74349587D02*
X86765934Y-74403461D01*
X86765934Y-74403461D02*
X87412431Y-74403461D01*
X87412431Y-74403461D02*
X87062245Y-74753648D01*
X86011686Y-74672836D02*
X86119436Y-74565086D01*
X86119436Y-74565086D02*
X86200248Y-74538149D01*
X86200248Y-74538149D02*
X86254123Y-74538149D01*
X86254123Y-74538149D02*
X86388810Y-74565086D01*
X86388810Y-74565086D02*
X86523497Y-74645898D01*
X86523497Y-74645898D02*
X86738996Y-74861397D01*
X86738996Y-74861397D02*
X86765934Y-74942210D01*
X86765934Y-74942210D02*
X86765934Y-74996084D01*
X86765934Y-74996084D02*
X86738996Y-75076897D01*
X86738996Y-75076897D02*
X86631247Y-75184646D01*
X86631247Y-75184646D02*
X86550434Y-75211584D01*
X86550434Y-75211584D02*
X86496560Y-75211584D01*
X86496560Y-75211584D02*
X86415747Y-75184646D01*
X86415747Y-75184646D02*
X86281060Y-75049959D01*
X86281060Y-75049959D02*
X86254123Y-74969147D01*
X86254123Y-74969147D02*
X86254123Y-74915272D01*
X86254123Y-74915272D02*
X86281060Y-74834460D01*
X86281060Y-74834460D02*
X86388810Y-74726710D01*
X86388810Y-74726710D02*
X86469622Y-74699773D01*
X86469622Y-74699773D02*
X86523497Y-74699773D01*
X86523497Y-74699773D02*
X86604309Y-74726710D01*
X65131585Y-72706406D02*
X65508709Y-73460653D01*
X65508709Y-73460653D02*
X64754462Y-73083529D01*
X64646712Y-73730027D02*
X64592838Y-73837776D01*
X64592838Y-73837776D02*
X64592838Y-73891651D01*
X64592838Y-73891651D02*
X64619775Y-73972463D01*
X64619775Y-73972463D02*
X64700587Y-74053276D01*
X64700587Y-74053276D02*
X64781399Y-74080213D01*
X64781399Y-74080213D02*
X64835274Y-74080213D01*
X64835274Y-74080213D02*
X64916086Y-74053276D01*
X64916086Y-74053276D02*
X65131586Y-73837776D01*
X65131586Y-73837776D02*
X64565900Y-73272091D01*
X64565900Y-73272091D02*
X64377338Y-73460653D01*
X64377338Y-73460653D02*
X64350401Y-73541465D01*
X64350401Y-73541465D02*
X64350401Y-73595340D01*
X64350401Y-73595340D02*
X64377338Y-73676152D01*
X64377338Y-73676152D02*
X64431213Y-73730027D01*
X64431213Y-73730027D02*
X64512025Y-73756964D01*
X64512025Y-73756964D02*
X64565900Y-73756964D01*
X64565900Y-73756964D02*
X64646712Y-73730027D01*
X64646712Y-73730027D02*
X64835274Y-73541465D01*
X64000215Y-73837776D02*
X64458151Y-74295712D01*
X64458151Y-74295712D02*
X64485088Y-74376524D01*
X64485088Y-74376524D02*
X64485088Y-74430399D01*
X64485088Y-74430399D02*
X64458151Y-74511211D01*
X64458151Y-74511211D02*
X64350401Y-74618961D01*
X64350401Y-74618961D02*
X64269589Y-74645898D01*
X64269589Y-74645898D02*
X64215714Y-74645898D01*
X64215714Y-74645898D02*
X64134902Y-74618961D01*
X64134902Y-74618961D02*
X63676966Y-74161025D01*
X63973277Y-74942210D02*
X63919403Y-75049959D01*
X63919403Y-75049959D02*
X63784716Y-75184646D01*
X63784716Y-75184646D02*
X63703903Y-75211584D01*
X63703903Y-75211584D02*
X63650029Y-75211584D01*
X63650029Y-75211584D02*
X63569216Y-75184646D01*
X63569216Y-75184646D02*
X63515342Y-75130771D01*
X63515342Y-75130771D02*
X63488404Y-75049959D01*
X63488404Y-75049959D02*
X63488404Y-74996084D01*
X63488404Y-74996084D02*
X63515342Y-74915272D01*
X63515342Y-74915272D02*
X63596154Y-74780585D01*
X63596154Y-74780585D02*
X63623091Y-74699773D01*
X63623091Y-74699773D02*
X63623091Y-74645898D01*
X63623091Y-74645898D02*
X63596154Y-74565086D01*
X63596154Y-74565086D02*
X63542279Y-74511211D01*
X63542279Y-74511211D02*
X63461467Y-74484274D01*
X63461467Y-74484274D02*
X63407592Y-74484274D01*
X63407592Y-74484274D02*
X63326780Y-74511211D01*
X63326780Y-74511211D02*
X63192093Y-74645898D01*
X63192093Y-74645898D02*
X63138218Y-74753648D01*
X98441428Y-80060000D02*
X98355714Y-80088571D01*
X98355714Y-80088571D02*
X98212856Y-80088571D01*
X98212856Y-80088571D02*
X98155714Y-80060000D01*
X98155714Y-80060000D02*
X98127142Y-80031428D01*
X98127142Y-80031428D02*
X98098571Y-79974285D01*
X98098571Y-79974285D02*
X98098571Y-79917142D01*
X98098571Y-79917142D02*
X98127142Y-79860000D01*
X98127142Y-79860000D02*
X98155714Y-79831428D01*
X98155714Y-79831428D02*
X98212856Y-79802857D01*
X98212856Y-79802857D02*
X98327142Y-79774285D01*
X98327142Y-79774285D02*
X98384285Y-79745714D01*
X98384285Y-79745714D02*
X98412856Y-79717142D01*
X98412856Y-79717142D02*
X98441428Y-79660000D01*
X98441428Y-79660000D02*
X98441428Y-79602857D01*
X98441428Y-79602857D02*
X98412856Y-79545714D01*
X98412856Y-79545714D02*
X98384285Y-79517142D01*
X98384285Y-79517142D02*
X98327142Y-79488571D01*
X98327142Y-79488571D02*
X98184285Y-79488571D01*
X98184285Y-79488571D02*
X98098571Y-79517142D01*
X97898570Y-79488571D02*
X97755713Y-80088571D01*
X97755713Y-80088571D02*
X97641427Y-79660000D01*
X97641427Y-79660000D02*
X97527142Y-80088571D01*
X97527142Y-80088571D02*
X97384285Y-79488571D01*
X97155713Y-80088571D02*
X97155713Y-79488571D01*
X97155713Y-79488571D02*
X97012856Y-79488571D01*
X97012856Y-79488571D02*
X96927142Y-79517142D01*
X96927142Y-79517142D02*
X96869999Y-79574285D01*
X96869999Y-79574285D02*
X96841428Y-79631428D01*
X96841428Y-79631428D02*
X96812856Y-79745714D01*
X96812856Y-79745714D02*
X96812856Y-79831428D01*
X96812856Y-79831428D02*
X96841428Y-79945714D01*
X96841428Y-79945714D02*
X96869999Y-80002857D01*
X96869999Y-80002857D02*
X96927142Y-80060000D01*
X96927142Y-80060000D02*
X97012856Y-80088571D01*
X97012856Y-80088571D02*
X97155713Y-80088571D01*
X96555713Y-80088571D02*
X96555713Y-79488571D01*
X96155714Y-79488571D02*
X96041428Y-79488571D01*
X96041428Y-79488571D02*
X95984285Y-79517142D01*
X95984285Y-79517142D02*
X95927142Y-79574285D01*
X95927142Y-79574285D02*
X95898571Y-79688571D01*
X95898571Y-79688571D02*
X95898571Y-79888571D01*
X95898571Y-79888571D02*
X95927142Y-80002857D01*
X95927142Y-80002857D02*
X95984285Y-80060000D01*
X95984285Y-80060000D02*
X96041428Y-80088571D01*
X96041428Y-80088571D02*
X96155714Y-80088571D01*
X96155714Y-80088571D02*
X96212857Y-80060000D01*
X96212857Y-80060000D02*
X96269999Y-80002857D01*
X96269999Y-80002857D02*
X96298571Y-79888571D01*
X96298571Y-79888571D02*
X96298571Y-79688571D01*
X96298571Y-79688571D02*
X96269999Y-79574285D01*
X96269999Y-79574285D02*
X96212857Y-79517142D01*
X96212857Y-79517142D02*
X96155714Y-79488571D01*
X92734868Y-73083529D02*
X92761805Y-73002716D01*
X92761805Y-73002716D02*
X92842618Y-72921904D01*
X92842618Y-72921904D02*
X92950367Y-72868029D01*
X92950367Y-72868029D02*
X93058117Y-72868029D01*
X93058117Y-72868029D02*
X93138929Y-72894967D01*
X93138929Y-72894967D02*
X93273616Y-72975779D01*
X93273616Y-72975779D02*
X93354428Y-73056591D01*
X93354428Y-73056591D02*
X93435241Y-73191278D01*
X93435241Y-73191278D02*
X93462178Y-73272091D01*
X93462178Y-73272091D02*
X93462178Y-73379840D01*
X93462178Y-73379840D02*
X93408303Y-73487590D01*
X93408303Y-73487590D02*
X93354428Y-73541465D01*
X93354428Y-73541465D02*
X93246679Y-73595339D01*
X93246679Y-73595339D02*
X93192804Y-73595339D01*
X93192804Y-73595339D02*
X93004242Y-73406778D01*
X93004242Y-73406778D02*
X93111992Y-73299028D01*
X93004242Y-73891651D02*
X92438557Y-73325965D01*
X92438557Y-73325965D02*
X92223057Y-73541465D01*
X92223057Y-73541465D02*
X92196120Y-73622277D01*
X92196120Y-73622277D02*
X92196120Y-73676152D01*
X92196120Y-73676152D02*
X92223057Y-73756964D01*
X92223057Y-73756964D02*
X92303870Y-73837776D01*
X92303870Y-73837776D02*
X92384682Y-73864713D01*
X92384682Y-73864713D02*
X92438557Y-73864713D01*
X92438557Y-73864713D02*
X92519369Y-73837776D01*
X92519369Y-73837776D02*
X92734868Y-73622277D01*
X91953683Y-73918588D02*
X91899809Y-73918588D01*
X91899809Y-73918588D02*
X91818996Y-73945526D01*
X91818996Y-73945526D02*
X91684309Y-74080213D01*
X91684309Y-74080213D02*
X91657372Y-74161025D01*
X91657372Y-74161025D02*
X91657372Y-74214900D01*
X91657372Y-74214900D02*
X91684309Y-74295712D01*
X91684309Y-74295712D02*
X91738184Y-74349587D01*
X91738184Y-74349587D02*
X91845934Y-74403461D01*
X91845934Y-74403461D02*
X92492431Y-74403461D01*
X92492431Y-74403461D02*
X92142245Y-74753648D01*
X91414935Y-74457336D02*
X91361060Y-74457336D01*
X91361060Y-74457336D02*
X91280248Y-74484274D01*
X91280248Y-74484274D02*
X91145561Y-74618961D01*
X91145561Y-74618961D02*
X91118624Y-74699773D01*
X91118624Y-74699773D02*
X91118624Y-74753648D01*
X91118624Y-74753648D02*
X91145561Y-74834460D01*
X91145561Y-74834460D02*
X91199436Y-74888335D01*
X91199436Y-74888335D02*
X91307186Y-74942210D01*
X91307186Y-74942210D02*
X91953683Y-74942210D01*
X91953683Y-74942210D02*
X91603497Y-75292396D01*
X97525523Y-82057142D02*
X97601713Y-82028571D01*
X97601713Y-82028571D02*
X97715999Y-82028571D01*
X97715999Y-82028571D02*
X97830285Y-82057142D01*
X97830285Y-82057142D02*
X97906475Y-82114285D01*
X97906475Y-82114285D02*
X97944570Y-82171428D01*
X97944570Y-82171428D02*
X97982666Y-82285714D01*
X97982666Y-82285714D02*
X97982666Y-82371428D01*
X97982666Y-82371428D02*
X97944570Y-82485714D01*
X97944570Y-82485714D02*
X97906475Y-82542857D01*
X97906475Y-82542857D02*
X97830285Y-82600000D01*
X97830285Y-82600000D02*
X97715999Y-82628571D01*
X97715999Y-82628571D02*
X97639808Y-82628571D01*
X97639808Y-82628571D02*
X97525523Y-82600000D01*
X97525523Y-82600000D02*
X97487427Y-82571428D01*
X97487427Y-82571428D02*
X97487427Y-82371428D01*
X97487427Y-82371428D02*
X97639808Y-82371428D01*
X97144570Y-82628571D02*
X97144570Y-82028571D01*
X97144570Y-82028571D02*
X96687427Y-82628571D01*
X96687427Y-82628571D02*
X96687427Y-82028571D01*
X96306475Y-82628571D02*
X96306475Y-82028571D01*
X96306475Y-82028571D02*
X96115999Y-82028571D01*
X96115999Y-82028571D02*
X96001713Y-82057142D01*
X96001713Y-82057142D02*
X95925523Y-82114285D01*
X95925523Y-82114285D02*
X95887428Y-82171428D01*
X95887428Y-82171428D02*
X95849332Y-82285714D01*
X95849332Y-82285714D02*
X95849332Y-82371428D01*
X95849332Y-82371428D02*
X95887428Y-82485714D01*
X95887428Y-82485714D02*
X95925523Y-82542857D01*
X95925523Y-82542857D02*
X96001713Y-82600000D01*
X96001713Y-82600000D02*
X96115999Y-82628571D01*
X96115999Y-82628571D02*
X96306475Y-82628571D01*
X74954868Y-73352903D02*
X74604682Y-73703089D01*
X74604682Y-73703089D02*
X75008743Y-73730027D01*
X75008743Y-73730027D02*
X74927931Y-73810839D01*
X74927931Y-73810839D02*
X74900993Y-73891651D01*
X74900993Y-73891651D02*
X74900993Y-73945526D01*
X74900993Y-73945526D02*
X74927931Y-74026338D01*
X74927931Y-74026338D02*
X75062618Y-74161025D01*
X75062618Y-74161025D02*
X75143430Y-74187962D01*
X75143430Y-74187962D02*
X75197305Y-74187962D01*
X75197305Y-74187962D02*
X75278117Y-74161025D01*
X75278117Y-74161025D02*
X75439741Y-73999401D01*
X75439741Y-73999401D02*
X75466679Y-73918588D01*
X75466679Y-73918588D02*
X75466679Y-73864714D01*
X74443057Y-73864714D02*
X74820181Y-74618961D01*
X74820181Y-74618961D02*
X74065934Y-74241837D01*
X73931247Y-74376524D02*
X73581061Y-74726710D01*
X73581061Y-74726710D02*
X73985122Y-74753648D01*
X73985122Y-74753648D02*
X73904309Y-74834460D01*
X73904309Y-74834460D02*
X73877372Y-74915272D01*
X73877372Y-74915272D02*
X73877372Y-74969147D01*
X73877372Y-74969147D02*
X73904309Y-75049959D01*
X73904309Y-75049959D02*
X74038996Y-75184646D01*
X74038996Y-75184646D02*
X74119809Y-75211584D01*
X74119809Y-75211584D02*
X74173683Y-75211584D01*
X74173683Y-75211584D02*
X74254496Y-75184646D01*
X74254496Y-75184646D02*
X74416120Y-75023022D01*
X74416120Y-75023022D02*
X74443057Y-74942210D01*
X74443057Y-74942210D02*
X74443057Y-74888335D01*
X85114868Y-73083529D02*
X85141805Y-73002716D01*
X85141805Y-73002716D02*
X85222618Y-72921904D01*
X85222618Y-72921904D02*
X85330367Y-72868029D01*
X85330367Y-72868029D02*
X85438117Y-72868029D01*
X85438117Y-72868029D02*
X85518929Y-72894967D01*
X85518929Y-72894967D02*
X85653616Y-72975779D01*
X85653616Y-72975779D02*
X85734428Y-73056591D01*
X85734428Y-73056591D02*
X85815241Y-73191278D01*
X85815241Y-73191278D02*
X85842178Y-73272091D01*
X85842178Y-73272091D02*
X85842178Y-73379840D01*
X85842178Y-73379840D02*
X85788303Y-73487590D01*
X85788303Y-73487590D02*
X85734428Y-73541465D01*
X85734428Y-73541465D02*
X85626679Y-73595339D01*
X85626679Y-73595339D02*
X85572804Y-73595339D01*
X85572804Y-73595339D02*
X85384242Y-73406778D01*
X85384242Y-73406778D02*
X85491992Y-73299028D01*
X85384242Y-73891651D02*
X84818557Y-73325965D01*
X84818557Y-73325965D02*
X84603057Y-73541465D01*
X84603057Y-73541465D02*
X84576120Y-73622277D01*
X84576120Y-73622277D02*
X84576120Y-73676152D01*
X84576120Y-73676152D02*
X84603057Y-73756964D01*
X84603057Y-73756964D02*
X84683870Y-73837776D01*
X84683870Y-73837776D02*
X84764682Y-73864713D01*
X84764682Y-73864713D02*
X84818557Y-73864713D01*
X84818557Y-73864713D02*
X84899369Y-73837776D01*
X84899369Y-73837776D02*
X85114868Y-73622277D01*
X84333683Y-73918588D02*
X84279809Y-73918588D01*
X84279809Y-73918588D02*
X84198996Y-73945526D01*
X84198996Y-73945526D02*
X84064309Y-74080213D01*
X84064309Y-74080213D02*
X84037372Y-74161025D01*
X84037372Y-74161025D02*
X84037372Y-74214900D01*
X84037372Y-74214900D02*
X84064309Y-74295712D01*
X84064309Y-74295712D02*
X84118184Y-74349587D01*
X84118184Y-74349587D02*
X84225934Y-74403461D01*
X84225934Y-74403461D02*
X84872431Y-74403461D01*
X84872431Y-74403461D02*
X84522245Y-74753648D01*
X83767998Y-74376524D02*
X83390874Y-74753648D01*
X83390874Y-74753648D02*
X84198996Y-75076897D01*
X107732431Y-73568403D02*
X107759368Y-73487591D01*
X107759368Y-73487591D02*
X107840180Y-73406779D01*
X107840180Y-73406779D02*
X107947930Y-73352904D01*
X107947930Y-73352904D02*
X108055680Y-73352904D01*
X108055680Y-73352904D02*
X108136492Y-73379841D01*
X108136492Y-73379841D02*
X108271179Y-73460653D01*
X108271179Y-73460653D02*
X108351991Y-73541466D01*
X108351991Y-73541466D02*
X108432803Y-73676153D01*
X108432803Y-73676153D02*
X108459741Y-73756965D01*
X108459741Y-73756965D02*
X108459741Y-73864714D01*
X108459741Y-73864714D02*
X108405866Y-73972464D01*
X108405866Y-73972464D02*
X108351991Y-74026339D01*
X108351991Y-74026339D02*
X108244241Y-74080214D01*
X108244241Y-74080214D02*
X108190367Y-74080214D01*
X108190367Y-74080214D02*
X108001805Y-73891652D01*
X108001805Y-73891652D02*
X108109554Y-73783902D01*
X108001805Y-74376525D02*
X107436119Y-73810840D01*
X107436119Y-73810840D02*
X107678556Y-74699774D01*
X107678556Y-74699774D02*
X107112871Y-74134088D01*
X107409182Y-74969148D02*
X106843497Y-74403462D01*
X106843497Y-74403462D02*
X106708810Y-74538149D01*
X106708810Y-74538149D02*
X106654935Y-74645899D01*
X106654935Y-74645899D02*
X106654935Y-74753648D01*
X106654935Y-74753648D02*
X106681872Y-74834461D01*
X106681872Y-74834461D02*
X106762685Y-74969148D01*
X106762685Y-74969148D02*
X106843497Y-75049960D01*
X106843497Y-75049960D02*
X106978184Y-75130772D01*
X106978184Y-75130772D02*
X107058996Y-75157709D01*
X107058996Y-75157709D02*
X107166746Y-75157709D01*
X107166746Y-75157709D02*
X107274495Y-75103835D01*
X107274495Y-75103835D02*
X107409182Y-74969148D01*
X84845494Y-96226372D02*
X84872431Y-96145560D01*
X84872431Y-96145560D02*
X84953243Y-96064748D01*
X84953243Y-96064748D02*
X85060993Y-96010873D01*
X85060993Y-96010873D02*
X85168742Y-96010873D01*
X85168742Y-96010873D02*
X85249555Y-96037810D01*
X85249555Y-96037810D02*
X85384242Y-96118623D01*
X85384242Y-96118623D02*
X85465054Y-96199435D01*
X85465054Y-96199435D02*
X85545866Y-96334122D01*
X85545866Y-96334122D02*
X85572803Y-96414934D01*
X85572803Y-96414934D02*
X85572803Y-96522684D01*
X85572803Y-96522684D02*
X85518929Y-96630433D01*
X85518929Y-96630433D02*
X85465054Y-96684308D01*
X85465054Y-96684308D02*
X85357304Y-96738183D01*
X85357304Y-96738183D02*
X85303429Y-96738183D01*
X85303429Y-96738183D02*
X85114868Y-96549621D01*
X85114868Y-96549621D02*
X85222617Y-96441871D01*
X85114868Y-97034494D02*
X84549182Y-96468809D01*
X84549182Y-96468809D02*
X84333683Y-96684308D01*
X84333683Y-96684308D02*
X84306746Y-96765120D01*
X84306746Y-96765120D02*
X84306746Y-96818995D01*
X84306746Y-96818995D02*
X84333683Y-96899807D01*
X84333683Y-96899807D02*
X84414495Y-96980619D01*
X84414495Y-96980619D02*
X84495307Y-97007557D01*
X84495307Y-97007557D02*
X84549182Y-97007557D01*
X84549182Y-97007557D02*
X84629994Y-96980619D01*
X84629994Y-96980619D02*
X84845494Y-96765120D01*
X83741060Y-97276931D02*
X83848810Y-97169181D01*
X83848810Y-97169181D02*
X83929622Y-97142244D01*
X83929622Y-97142244D02*
X83983497Y-97142244D01*
X83983497Y-97142244D02*
X84118184Y-97169181D01*
X84118184Y-97169181D02*
X84252871Y-97249993D01*
X84252871Y-97249993D02*
X84468370Y-97465493D01*
X84468370Y-97465493D02*
X84495307Y-97546305D01*
X84495307Y-97546305D02*
X84495307Y-97600180D01*
X84495307Y-97600180D02*
X84468370Y-97680992D01*
X84468370Y-97680992D02*
X84360620Y-97788741D01*
X84360620Y-97788741D02*
X84279808Y-97815679D01*
X84279808Y-97815679D02*
X84225933Y-97815679D01*
X84225933Y-97815679D02*
X84145121Y-97788741D01*
X84145121Y-97788741D02*
X84010434Y-97654054D01*
X84010434Y-97654054D02*
X83983497Y-97573242D01*
X83983497Y-97573242D02*
X83983497Y-97519367D01*
X83983497Y-97519367D02*
X84010434Y-97438555D01*
X84010434Y-97438555D02*
X84118184Y-97330806D01*
X84118184Y-97330806D02*
X84198996Y-97303868D01*
X84198996Y-97303868D02*
X84252871Y-97303868D01*
X84252871Y-97303868D02*
X84333683Y-97330806D01*
X97814868Y-96226372D02*
X97841805Y-96145559D01*
X97841805Y-96145559D02*
X97922618Y-96064747D01*
X97922618Y-96064747D02*
X98030367Y-96010872D01*
X98030367Y-96010872D02*
X98138117Y-96010872D01*
X98138117Y-96010872D02*
X98218929Y-96037810D01*
X98218929Y-96037810D02*
X98353616Y-96118622D01*
X98353616Y-96118622D02*
X98434428Y-96199434D01*
X98434428Y-96199434D02*
X98515241Y-96334121D01*
X98515241Y-96334121D02*
X98542178Y-96414934D01*
X98542178Y-96414934D02*
X98542178Y-96522683D01*
X98542178Y-96522683D02*
X98488303Y-96630433D01*
X98488303Y-96630433D02*
X98434428Y-96684308D01*
X98434428Y-96684308D02*
X98326679Y-96738182D01*
X98326679Y-96738182D02*
X98272804Y-96738182D01*
X98272804Y-96738182D02*
X98084242Y-96549621D01*
X98084242Y-96549621D02*
X98191992Y-96441871D01*
X98084242Y-97034494D02*
X97518557Y-96468808D01*
X97518557Y-96468808D02*
X97303057Y-96684308D01*
X97303057Y-96684308D02*
X97276120Y-96765120D01*
X97276120Y-96765120D02*
X97276120Y-96818995D01*
X97276120Y-96818995D02*
X97303057Y-96899807D01*
X97303057Y-96899807D02*
X97383870Y-96980619D01*
X97383870Y-96980619D02*
X97464682Y-97007556D01*
X97464682Y-97007556D02*
X97518557Y-97007556D01*
X97518557Y-97007556D02*
X97599369Y-96980619D01*
X97599369Y-96980619D02*
X97814868Y-96765120D01*
X97222245Y-97896491D02*
X97545494Y-97573242D01*
X97383870Y-97734866D02*
X96818184Y-97169181D01*
X96818184Y-97169181D02*
X96952871Y-97196118D01*
X96952871Y-97196118D02*
X97060621Y-97196118D01*
X97060621Y-97196118D02*
X97141433Y-97169181D01*
X96306373Y-97680992D02*
X96252499Y-97734866D01*
X96252499Y-97734866D02*
X96225561Y-97815679D01*
X96225561Y-97815679D02*
X96225561Y-97869553D01*
X96225561Y-97869553D02*
X96252499Y-97950366D01*
X96252499Y-97950366D02*
X96333311Y-98085053D01*
X96333311Y-98085053D02*
X96467998Y-98219740D01*
X96467998Y-98219740D02*
X96602685Y-98300552D01*
X96602685Y-98300552D02*
X96683497Y-98327489D01*
X96683497Y-98327489D02*
X96737372Y-98327489D01*
X96737372Y-98327489D02*
X96818184Y-98300552D01*
X96818184Y-98300552D02*
X96872059Y-98246677D01*
X96872059Y-98246677D02*
X96898996Y-98165865D01*
X96898996Y-98165865D02*
X96898996Y-98111990D01*
X96898996Y-98111990D02*
X96872059Y-98031178D01*
X96872059Y-98031178D02*
X96791247Y-97896491D01*
X96791247Y-97896491D02*
X96656560Y-97761804D01*
X96656560Y-97761804D02*
X96521873Y-97680992D01*
X96521873Y-97680992D02*
X96441060Y-97654054D01*
X96441060Y-97654054D02*
X96387186Y-97654054D01*
X96387186Y-97654054D02*
X96306373Y-97680992D01*
X116221428Y-83184200D02*
X116135714Y-83212771D01*
X116135714Y-83212771D02*
X115992856Y-83212771D01*
X115992856Y-83212771D02*
X115935714Y-83184200D01*
X115935714Y-83184200D02*
X115907142Y-83155628D01*
X115907142Y-83155628D02*
X115878571Y-83098485D01*
X115878571Y-83098485D02*
X115878571Y-83041342D01*
X115878571Y-83041342D02*
X115907142Y-82984200D01*
X115907142Y-82984200D02*
X115935714Y-82955628D01*
X115935714Y-82955628D02*
X115992856Y-82927057D01*
X115992856Y-82927057D02*
X116107142Y-82898485D01*
X116107142Y-82898485D02*
X116164285Y-82869914D01*
X116164285Y-82869914D02*
X116192856Y-82841342D01*
X116192856Y-82841342D02*
X116221428Y-82784200D01*
X116221428Y-82784200D02*
X116221428Y-82727057D01*
X116221428Y-82727057D02*
X116192856Y-82669914D01*
X116192856Y-82669914D02*
X116164285Y-82641342D01*
X116164285Y-82641342D02*
X116107142Y-82612771D01*
X116107142Y-82612771D02*
X115964285Y-82612771D01*
X115964285Y-82612771D02*
X115878571Y-82641342D01*
X115678570Y-82612771D02*
X115535713Y-83212771D01*
X115535713Y-83212771D02*
X115421427Y-82784200D01*
X115421427Y-82784200D02*
X115307142Y-83212771D01*
X115307142Y-83212771D02*
X115164285Y-82612771D01*
X114935713Y-83212771D02*
X114935713Y-82612771D01*
X114935713Y-82612771D02*
X114792856Y-82612771D01*
X114792856Y-82612771D02*
X114707142Y-82641342D01*
X114707142Y-82641342D02*
X114649999Y-82698485D01*
X114649999Y-82698485D02*
X114621428Y-82755628D01*
X114621428Y-82755628D02*
X114592856Y-82869914D01*
X114592856Y-82869914D02*
X114592856Y-82955628D01*
X114592856Y-82955628D02*
X114621428Y-83069914D01*
X114621428Y-83069914D02*
X114649999Y-83127057D01*
X114649999Y-83127057D02*
X114707142Y-83184200D01*
X114707142Y-83184200D02*
X114792856Y-83212771D01*
X114792856Y-83212771D02*
X114935713Y-83212771D01*
X114335713Y-83212771D02*
X114335713Y-82612771D01*
X113935714Y-82612771D02*
X113821428Y-82612771D01*
X113821428Y-82612771D02*
X113764285Y-82641342D01*
X113764285Y-82641342D02*
X113707142Y-82698485D01*
X113707142Y-82698485D02*
X113678571Y-82812771D01*
X113678571Y-82812771D02*
X113678571Y-83012771D01*
X113678571Y-83012771D02*
X113707142Y-83127057D01*
X113707142Y-83127057D02*
X113764285Y-83184200D01*
X113764285Y-83184200D02*
X113821428Y-83212771D01*
X113821428Y-83212771D02*
X113935714Y-83212771D01*
X113935714Y-83212771D02*
X113992857Y-83184200D01*
X113992857Y-83184200D02*
X114049999Y-83127057D01*
X114049999Y-83127057D02*
X114078571Y-83012771D01*
X114078571Y-83012771D02*
X114078571Y-82812771D01*
X114078571Y-82812771D02*
X114049999Y-82698485D01*
X114049999Y-82698485D02*
X113992857Y-82641342D01*
X113992857Y-82641342D02*
X113935714Y-82612771D01*
X89925494Y-96226372D02*
X89952431Y-96145560D01*
X89952431Y-96145560D02*
X90033243Y-96064748D01*
X90033243Y-96064748D02*
X90140993Y-96010873D01*
X90140993Y-96010873D02*
X90248742Y-96010873D01*
X90248742Y-96010873D02*
X90329555Y-96037810D01*
X90329555Y-96037810D02*
X90464242Y-96118623D01*
X90464242Y-96118623D02*
X90545054Y-96199435D01*
X90545054Y-96199435D02*
X90625866Y-96334122D01*
X90625866Y-96334122D02*
X90652803Y-96414934D01*
X90652803Y-96414934D02*
X90652803Y-96522684D01*
X90652803Y-96522684D02*
X90598929Y-96630433D01*
X90598929Y-96630433D02*
X90545054Y-96684308D01*
X90545054Y-96684308D02*
X90437304Y-96738183D01*
X90437304Y-96738183D02*
X90383429Y-96738183D01*
X90383429Y-96738183D02*
X90194868Y-96549621D01*
X90194868Y-96549621D02*
X90302617Y-96441871D01*
X90194868Y-97034494D02*
X89629182Y-96468809D01*
X89629182Y-96468809D02*
X89413683Y-96684308D01*
X89413683Y-96684308D02*
X89386746Y-96765120D01*
X89386746Y-96765120D02*
X89386746Y-96818995D01*
X89386746Y-96818995D02*
X89413683Y-96899807D01*
X89413683Y-96899807D02*
X89494495Y-96980619D01*
X89494495Y-96980619D02*
X89575307Y-97007557D01*
X89575307Y-97007557D02*
X89629182Y-97007557D01*
X89629182Y-97007557D02*
X89709994Y-96980619D01*
X89709994Y-96980619D02*
X89925494Y-96765120D01*
X89225121Y-97357743D02*
X89252059Y-97276931D01*
X89252059Y-97276931D02*
X89252059Y-97223056D01*
X89252059Y-97223056D02*
X89225121Y-97142244D01*
X89225121Y-97142244D02*
X89198184Y-97115306D01*
X89198184Y-97115306D02*
X89117372Y-97088369D01*
X89117372Y-97088369D02*
X89063497Y-97088369D01*
X89063497Y-97088369D02*
X88982685Y-97115306D01*
X88982685Y-97115306D02*
X88874935Y-97223056D01*
X88874935Y-97223056D02*
X88847998Y-97303868D01*
X88847998Y-97303868D02*
X88847998Y-97357743D01*
X88847998Y-97357743D02*
X88874935Y-97438555D01*
X88874935Y-97438555D02*
X88901872Y-97465493D01*
X88901872Y-97465493D02*
X88982685Y-97492430D01*
X88982685Y-97492430D02*
X89036559Y-97492430D01*
X89036559Y-97492430D02*
X89117372Y-97465493D01*
X89117372Y-97465493D02*
X89225121Y-97357743D01*
X89225121Y-97357743D02*
X89305933Y-97330806D01*
X89305933Y-97330806D02*
X89359808Y-97330806D01*
X89359808Y-97330806D02*
X89440620Y-97357743D01*
X89440620Y-97357743D02*
X89548370Y-97465493D01*
X89548370Y-97465493D02*
X89575307Y-97546305D01*
X89575307Y-97546305D02*
X89575307Y-97600180D01*
X89575307Y-97600180D02*
X89548370Y-97680992D01*
X89548370Y-97680992D02*
X89440620Y-97788741D01*
X89440620Y-97788741D02*
X89359808Y-97815679D01*
X89359808Y-97815679D02*
X89305933Y-97815679D01*
X89305933Y-97815679D02*
X89225121Y-97788741D01*
X89225121Y-97788741D02*
X89117372Y-97680992D01*
X89117372Y-97680992D02*
X89090434Y-97600180D01*
X89090434Y-97600180D02*
X89090434Y-97546305D01*
X89090434Y-97546305D02*
X89117372Y-97465493D01*
X69632431Y-96226372D02*
X69659368Y-96145560D01*
X69659368Y-96145560D02*
X69740180Y-96064748D01*
X69740180Y-96064748D02*
X69847930Y-96010873D01*
X69847930Y-96010873D02*
X69955680Y-96010873D01*
X69955680Y-96010873D02*
X70036492Y-96037810D01*
X70036492Y-96037810D02*
X70171179Y-96118622D01*
X70171179Y-96118622D02*
X70251991Y-96199435D01*
X70251991Y-96199435D02*
X70332803Y-96334122D01*
X70332803Y-96334122D02*
X70359741Y-96414934D01*
X70359741Y-96414934D02*
X70359741Y-96522683D01*
X70359741Y-96522683D02*
X70305866Y-96630433D01*
X70305866Y-96630433D02*
X70251991Y-96684308D01*
X70251991Y-96684308D02*
X70144241Y-96738183D01*
X70144241Y-96738183D02*
X70090367Y-96738183D01*
X70090367Y-96738183D02*
X69901805Y-96549621D01*
X69901805Y-96549621D02*
X70009554Y-96441871D01*
X69901805Y-97034494D02*
X69336119Y-96468809D01*
X69336119Y-96468809D02*
X69578556Y-97357743D01*
X69578556Y-97357743D02*
X69012871Y-96792057D01*
X69309182Y-97627117D02*
X68743497Y-97061431D01*
X68743497Y-97061431D02*
X68608810Y-97196118D01*
X68608810Y-97196118D02*
X68554935Y-97303868D01*
X68554935Y-97303868D02*
X68554935Y-97411617D01*
X68554935Y-97411617D02*
X68581872Y-97492430D01*
X68581872Y-97492430D02*
X68662685Y-97627117D01*
X68662685Y-97627117D02*
X68743497Y-97707929D01*
X68743497Y-97707929D02*
X68878184Y-97788741D01*
X68878184Y-97788741D02*
X68958996Y-97815678D01*
X68958996Y-97815678D02*
X69066746Y-97815678D01*
X69066746Y-97815678D02*
X69174495Y-97761804D01*
X69174495Y-97761804D02*
X69309182Y-97627117D01*
X77225494Y-96226372D02*
X77252431Y-96145560D01*
X77252431Y-96145560D02*
X77333243Y-96064748D01*
X77333243Y-96064748D02*
X77440993Y-96010873D01*
X77440993Y-96010873D02*
X77548742Y-96010873D01*
X77548742Y-96010873D02*
X77629555Y-96037810D01*
X77629555Y-96037810D02*
X77764242Y-96118623D01*
X77764242Y-96118623D02*
X77845054Y-96199435D01*
X77845054Y-96199435D02*
X77925866Y-96334122D01*
X77925866Y-96334122D02*
X77952803Y-96414934D01*
X77952803Y-96414934D02*
X77952803Y-96522684D01*
X77952803Y-96522684D02*
X77898929Y-96630433D01*
X77898929Y-96630433D02*
X77845054Y-96684308D01*
X77845054Y-96684308D02*
X77737304Y-96738183D01*
X77737304Y-96738183D02*
X77683429Y-96738183D01*
X77683429Y-96738183D02*
X77494868Y-96549621D01*
X77494868Y-96549621D02*
X77602617Y-96441871D01*
X77494868Y-97034494D02*
X76929182Y-96468809D01*
X76929182Y-96468809D02*
X76713683Y-96684308D01*
X76713683Y-96684308D02*
X76686746Y-96765120D01*
X76686746Y-96765120D02*
X76686746Y-96818995D01*
X76686746Y-96818995D02*
X76713683Y-96899807D01*
X76713683Y-96899807D02*
X76794495Y-96980619D01*
X76794495Y-96980619D02*
X76875307Y-97007557D01*
X76875307Y-97007557D02*
X76929182Y-97007557D01*
X76929182Y-97007557D02*
X77009994Y-96980619D01*
X77009994Y-96980619D02*
X77225494Y-96765120D01*
X76309622Y-97465493D02*
X76686746Y-97842616D01*
X76228810Y-97115306D02*
X76767558Y-97384680D01*
X76767558Y-97384680D02*
X76417372Y-97734867D01*
X74685494Y-96226372D02*
X74712431Y-96145560D01*
X74712431Y-96145560D02*
X74793243Y-96064748D01*
X74793243Y-96064748D02*
X74900993Y-96010873D01*
X74900993Y-96010873D02*
X75008742Y-96010873D01*
X75008742Y-96010873D02*
X75089555Y-96037810D01*
X75089555Y-96037810D02*
X75224242Y-96118623D01*
X75224242Y-96118623D02*
X75305054Y-96199435D01*
X75305054Y-96199435D02*
X75385866Y-96334122D01*
X75385866Y-96334122D02*
X75412803Y-96414934D01*
X75412803Y-96414934D02*
X75412803Y-96522684D01*
X75412803Y-96522684D02*
X75358929Y-96630433D01*
X75358929Y-96630433D02*
X75305054Y-96684308D01*
X75305054Y-96684308D02*
X75197304Y-96738183D01*
X75197304Y-96738183D02*
X75143429Y-96738183D01*
X75143429Y-96738183D02*
X74954868Y-96549621D01*
X74954868Y-96549621D02*
X75062617Y-96441871D01*
X74954868Y-97034494D02*
X74389182Y-96468809D01*
X74389182Y-96468809D02*
X74173683Y-96684308D01*
X74173683Y-96684308D02*
X74146746Y-96765120D01*
X74146746Y-96765120D02*
X74146746Y-96818995D01*
X74146746Y-96818995D02*
X74173683Y-96899807D01*
X74173683Y-96899807D02*
X74254495Y-96980619D01*
X74254495Y-96980619D02*
X74335307Y-97007557D01*
X74335307Y-97007557D02*
X74389182Y-97007557D01*
X74389182Y-97007557D02*
X74469994Y-96980619D01*
X74469994Y-96980619D02*
X74685494Y-96765120D01*
X73877372Y-96980619D02*
X73527185Y-97330806D01*
X73527185Y-97330806D02*
X73931246Y-97357743D01*
X73931246Y-97357743D02*
X73850434Y-97438555D01*
X73850434Y-97438555D02*
X73823497Y-97519367D01*
X73823497Y-97519367D02*
X73823497Y-97573242D01*
X73823497Y-97573242D02*
X73850434Y-97654054D01*
X73850434Y-97654054D02*
X73985121Y-97788741D01*
X73985121Y-97788741D02*
X74065933Y-97815679D01*
X74065933Y-97815679D02*
X74119808Y-97815679D01*
X74119808Y-97815679D02*
X74200620Y-97788741D01*
X74200620Y-97788741D02*
X74362245Y-97627117D01*
X74362245Y-97627117D02*
X74389182Y-97546305D01*
X74389182Y-97546305D02*
X74389182Y-97492430D01*
X82332431Y-96226372D02*
X82359368Y-96145560D01*
X82359368Y-96145560D02*
X82440180Y-96064748D01*
X82440180Y-96064748D02*
X82547930Y-96010873D01*
X82547930Y-96010873D02*
X82655680Y-96010873D01*
X82655680Y-96010873D02*
X82736492Y-96037810D01*
X82736492Y-96037810D02*
X82871179Y-96118622D01*
X82871179Y-96118622D02*
X82951991Y-96199435D01*
X82951991Y-96199435D02*
X83032803Y-96334122D01*
X83032803Y-96334122D02*
X83059741Y-96414934D01*
X83059741Y-96414934D02*
X83059741Y-96522683D01*
X83059741Y-96522683D02*
X83005866Y-96630433D01*
X83005866Y-96630433D02*
X82951991Y-96684308D01*
X82951991Y-96684308D02*
X82844241Y-96738183D01*
X82844241Y-96738183D02*
X82790367Y-96738183D01*
X82790367Y-96738183D02*
X82601805Y-96549621D01*
X82601805Y-96549621D02*
X82709554Y-96441871D01*
X82601805Y-97034494D02*
X82036119Y-96468809D01*
X82036119Y-96468809D02*
X82278556Y-97357743D01*
X82278556Y-97357743D02*
X81712871Y-96792057D01*
X82009182Y-97627117D02*
X81443497Y-97061431D01*
X81443497Y-97061431D02*
X81308810Y-97196118D01*
X81308810Y-97196118D02*
X81254935Y-97303868D01*
X81254935Y-97303868D02*
X81254935Y-97411617D01*
X81254935Y-97411617D02*
X81281872Y-97492430D01*
X81281872Y-97492430D02*
X81362685Y-97627117D01*
X81362685Y-97627117D02*
X81443497Y-97707929D01*
X81443497Y-97707929D02*
X81578184Y-97788741D01*
X81578184Y-97788741D02*
X81658996Y-97815678D01*
X81658996Y-97815678D02*
X81766746Y-97815678D01*
X81766746Y-97815678D02*
X81874495Y-97761804D01*
X81874495Y-97761804D02*
X82009182Y-97627117D01*
X72145494Y-96226372D02*
X72172431Y-96145560D01*
X72172431Y-96145560D02*
X72253243Y-96064748D01*
X72253243Y-96064748D02*
X72360993Y-96010873D01*
X72360993Y-96010873D02*
X72468742Y-96010873D01*
X72468742Y-96010873D02*
X72549555Y-96037810D01*
X72549555Y-96037810D02*
X72684242Y-96118623D01*
X72684242Y-96118623D02*
X72765054Y-96199435D01*
X72765054Y-96199435D02*
X72845866Y-96334122D01*
X72845866Y-96334122D02*
X72872803Y-96414934D01*
X72872803Y-96414934D02*
X72872803Y-96522684D01*
X72872803Y-96522684D02*
X72818929Y-96630433D01*
X72818929Y-96630433D02*
X72765054Y-96684308D01*
X72765054Y-96684308D02*
X72657304Y-96738183D01*
X72657304Y-96738183D02*
X72603429Y-96738183D01*
X72603429Y-96738183D02*
X72414868Y-96549621D01*
X72414868Y-96549621D02*
X72522617Y-96441871D01*
X72414868Y-97034494D02*
X71849182Y-96468809D01*
X71849182Y-96468809D02*
X71633683Y-96684308D01*
X71633683Y-96684308D02*
X71606746Y-96765120D01*
X71606746Y-96765120D02*
X71606746Y-96818995D01*
X71606746Y-96818995D02*
X71633683Y-96899807D01*
X71633683Y-96899807D02*
X71714495Y-96980619D01*
X71714495Y-96980619D02*
X71795307Y-97007557D01*
X71795307Y-97007557D02*
X71849182Y-97007557D01*
X71849182Y-97007557D02*
X71929994Y-96980619D01*
X71929994Y-96980619D02*
X72145494Y-96765120D01*
X71364309Y-97061432D02*
X71310434Y-97061432D01*
X71310434Y-97061432D02*
X71229622Y-97088369D01*
X71229622Y-97088369D02*
X71094935Y-97223056D01*
X71094935Y-97223056D02*
X71067998Y-97303868D01*
X71067998Y-97303868D02*
X71067998Y-97357743D01*
X71067998Y-97357743D02*
X71094935Y-97438555D01*
X71094935Y-97438555D02*
X71148810Y-97492430D01*
X71148810Y-97492430D02*
X71256559Y-97546305D01*
X71256559Y-97546305D02*
X71903057Y-97546305D01*
X71903057Y-97546305D02*
X71552871Y-97896491D01*
X79765494Y-96226372D02*
X79792431Y-96145560D01*
X79792431Y-96145560D02*
X79873243Y-96064748D01*
X79873243Y-96064748D02*
X79980993Y-96010873D01*
X79980993Y-96010873D02*
X80088742Y-96010873D01*
X80088742Y-96010873D02*
X80169555Y-96037810D01*
X80169555Y-96037810D02*
X80304242Y-96118623D01*
X80304242Y-96118623D02*
X80385054Y-96199435D01*
X80385054Y-96199435D02*
X80465866Y-96334122D01*
X80465866Y-96334122D02*
X80492803Y-96414934D01*
X80492803Y-96414934D02*
X80492803Y-96522684D01*
X80492803Y-96522684D02*
X80438929Y-96630433D01*
X80438929Y-96630433D02*
X80385054Y-96684308D01*
X80385054Y-96684308D02*
X80277304Y-96738183D01*
X80277304Y-96738183D02*
X80223429Y-96738183D01*
X80223429Y-96738183D02*
X80034868Y-96549621D01*
X80034868Y-96549621D02*
X80142617Y-96441871D01*
X80034868Y-97034494D02*
X79469182Y-96468809D01*
X79469182Y-96468809D02*
X79253683Y-96684308D01*
X79253683Y-96684308D02*
X79226746Y-96765120D01*
X79226746Y-96765120D02*
X79226746Y-96818995D01*
X79226746Y-96818995D02*
X79253683Y-96899807D01*
X79253683Y-96899807D02*
X79334495Y-96980619D01*
X79334495Y-96980619D02*
X79415307Y-97007557D01*
X79415307Y-97007557D02*
X79469182Y-97007557D01*
X79469182Y-97007557D02*
X79549994Y-96980619D01*
X79549994Y-96980619D02*
X79765494Y-96765120D01*
X78634123Y-97303868D02*
X78903497Y-97034494D01*
X78903497Y-97034494D02*
X79199808Y-97276931D01*
X79199808Y-97276931D02*
X79145933Y-97276931D01*
X79145933Y-97276931D02*
X79065121Y-97303868D01*
X79065121Y-97303868D02*
X78930434Y-97438555D01*
X78930434Y-97438555D02*
X78903497Y-97519367D01*
X78903497Y-97519367D02*
X78903497Y-97573242D01*
X78903497Y-97573242D02*
X78930434Y-97654054D01*
X78930434Y-97654054D02*
X79065121Y-97788741D01*
X79065121Y-97788741D02*
X79145933Y-97815679D01*
X79145933Y-97815679D02*
X79199808Y-97815679D01*
X79199808Y-97815679D02*
X79280620Y-97788741D01*
X79280620Y-97788741D02*
X79415307Y-97654054D01*
X79415307Y-97654054D02*
X79442245Y-97573242D01*
X79442245Y-97573242D02*
X79442245Y-97519367D01*
X110514868Y-96226372D02*
X110541805Y-96145559D01*
X110541805Y-96145559D02*
X110622618Y-96064747D01*
X110622618Y-96064747D02*
X110730367Y-96010872D01*
X110730367Y-96010872D02*
X110838117Y-96010872D01*
X110838117Y-96010872D02*
X110918929Y-96037810D01*
X110918929Y-96037810D02*
X111053616Y-96118622D01*
X111053616Y-96118622D02*
X111134428Y-96199434D01*
X111134428Y-96199434D02*
X111215241Y-96334121D01*
X111215241Y-96334121D02*
X111242178Y-96414934D01*
X111242178Y-96414934D02*
X111242178Y-96522683D01*
X111242178Y-96522683D02*
X111188303Y-96630433D01*
X111188303Y-96630433D02*
X111134428Y-96684308D01*
X111134428Y-96684308D02*
X111026679Y-96738182D01*
X111026679Y-96738182D02*
X110972804Y-96738182D01*
X110972804Y-96738182D02*
X110784242Y-96549621D01*
X110784242Y-96549621D02*
X110891992Y-96441871D01*
X110784242Y-97034494D02*
X110218557Y-96468808D01*
X110218557Y-96468808D02*
X110003057Y-96684308D01*
X110003057Y-96684308D02*
X109976120Y-96765120D01*
X109976120Y-96765120D02*
X109976120Y-96818995D01*
X109976120Y-96818995D02*
X110003057Y-96899807D01*
X110003057Y-96899807D02*
X110083870Y-96980619D01*
X110083870Y-96980619D02*
X110164682Y-97007556D01*
X110164682Y-97007556D02*
X110218557Y-97007556D01*
X110218557Y-97007556D02*
X110299369Y-96980619D01*
X110299369Y-96980619D02*
X110514868Y-96765120D01*
X109922245Y-97896491D02*
X110245494Y-97573242D01*
X110083870Y-97734866D02*
X109518184Y-97169181D01*
X109518184Y-97169181D02*
X109652871Y-97196118D01*
X109652871Y-97196118D02*
X109760621Y-97196118D01*
X109760621Y-97196118D02*
X109841433Y-97169181D01*
X109060248Y-98004240D02*
X109437372Y-98381364D01*
X108979436Y-97654054D02*
X109518184Y-97923428D01*
X109518184Y-97923428D02*
X109167998Y-98273614D01*
X110514868Y-73083529D02*
X110541805Y-73002716D01*
X110541805Y-73002716D02*
X110622618Y-72921904D01*
X110622618Y-72921904D02*
X110730367Y-72868029D01*
X110730367Y-72868029D02*
X110838117Y-72868029D01*
X110838117Y-72868029D02*
X110918929Y-72894967D01*
X110918929Y-72894967D02*
X111053616Y-72975779D01*
X111053616Y-72975779D02*
X111134428Y-73056591D01*
X111134428Y-73056591D02*
X111215241Y-73191278D01*
X111215241Y-73191278D02*
X111242178Y-73272091D01*
X111242178Y-73272091D02*
X111242178Y-73379840D01*
X111242178Y-73379840D02*
X111188303Y-73487590D01*
X111188303Y-73487590D02*
X111134428Y-73541465D01*
X111134428Y-73541465D02*
X111026679Y-73595339D01*
X111026679Y-73595339D02*
X110972804Y-73595339D01*
X110972804Y-73595339D02*
X110784242Y-73406778D01*
X110784242Y-73406778D02*
X110891992Y-73299028D01*
X110784242Y-73891651D02*
X110218557Y-73325965D01*
X110218557Y-73325965D02*
X110003057Y-73541465D01*
X110003057Y-73541465D02*
X109976120Y-73622277D01*
X109976120Y-73622277D02*
X109976120Y-73676152D01*
X109976120Y-73676152D02*
X110003057Y-73756964D01*
X110003057Y-73756964D02*
X110083870Y-73837776D01*
X110083870Y-73837776D02*
X110164682Y-73864713D01*
X110164682Y-73864713D02*
X110218557Y-73864713D01*
X110218557Y-73864713D02*
X110299369Y-73837776D01*
X110299369Y-73837776D02*
X110514868Y-73622277D01*
X109922245Y-74753648D02*
X110245494Y-74430399D01*
X110083870Y-74592023D02*
X109518184Y-74026338D01*
X109518184Y-74026338D02*
X109652871Y-74053275D01*
X109652871Y-74053275D02*
X109760621Y-74053275D01*
X109760621Y-74053275D02*
X109841433Y-74026338D01*
X109167998Y-74376524D02*
X108790874Y-74753648D01*
X108790874Y-74753648D02*
X109598996Y-75076897D01*
X92465494Y-96226372D02*
X92492431Y-96145560D01*
X92492431Y-96145560D02*
X92573243Y-96064748D01*
X92573243Y-96064748D02*
X92680993Y-96010873D01*
X92680993Y-96010873D02*
X92788742Y-96010873D01*
X92788742Y-96010873D02*
X92869555Y-96037810D01*
X92869555Y-96037810D02*
X93004242Y-96118623D01*
X93004242Y-96118623D02*
X93085054Y-96199435D01*
X93085054Y-96199435D02*
X93165866Y-96334122D01*
X93165866Y-96334122D02*
X93192803Y-96414934D01*
X93192803Y-96414934D02*
X93192803Y-96522684D01*
X93192803Y-96522684D02*
X93138929Y-96630433D01*
X93138929Y-96630433D02*
X93085054Y-96684308D01*
X93085054Y-96684308D02*
X92977304Y-96738183D01*
X92977304Y-96738183D02*
X92923429Y-96738183D01*
X92923429Y-96738183D02*
X92734868Y-96549621D01*
X92734868Y-96549621D02*
X92842617Y-96441871D01*
X92734868Y-97034494D02*
X92169182Y-96468809D01*
X92169182Y-96468809D02*
X91953683Y-96684308D01*
X91953683Y-96684308D02*
X91926746Y-96765120D01*
X91926746Y-96765120D02*
X91926746Y-96818995D01*
X91926746Y-96818995D02*
X91953683Y-96899807D01*
X91953683Y-96899807D02*
X92034495Y-96980619D01*
X92034495Y-96980619D02*
X92115307Y-97007557D01*
X92115307Y-97007557D02*
X92169182Y-97007557D01*
X92169182Y-97007557D02*
X92249994Y-96980619D01*
X92249994Y-96980619D02*
X92465494Y-96765120D01*
X92142245Y-97627117D02*
X92034495Y-97734867D01*
X92034495Y-97734867D02*
X91953683Y-97761804D01*
X91953683Y-97761804D02*
X91899808Y-97761804D01*
X91899808Y-97761804D02*
X91765121Y-97734867D01*
X91765121Y-97734867D02*
X91630434Y-97654054D01*
X91630434Y-97654054D02*
X91414935Y-97438555D01*
X91414935Y-97438555D02*
X91387998Y-97357743D01*
X91387998Y-97357743D02*
X91387998Y-97303868D01*
X91387998Y-97303868D02*
X91414935Y-97223056D01*
X91414935Y-97223056D02*
X91522685Y-97115306D01*
X91522685Y-97115306D02*
X91603497Y-97088369D01*
X91603497Y-97088369D02*
X91657372Y-97088369D01*
X91657372Y-97088369D02*
X91738184Y-97115306D01*
X91738184Y-97115306D02*
X91872871Y-97249993D01*
X91872871Y-97249993D02*
X91899808Y-97330806D01*
X91899808Y-97330806D02*
X91899808Y-97384680D01*
X91899808Y-97384680D02*
X91872871Y-97465493D01*
X91872871Y-97465493D02*
X91765121Y-97573242D01*
X91765121Y-97573242D02*
X91684309Y-97600180D01*
X91684309Y-97600180D02*
X91630434Y-97600180D01*
X91630434Y-97600180D02*
X91549622Y-97573242D01*
X83275240Y-73137405D02*
X83005866Y-73406779D01*
X83490739Y-73245155D02*
X82736492Y-72868031D01*
X82736492Y-72868031D02*
X83113615Y-73622278D01*
X82089994Y-73568403D02*
X82116932Y-73487591D01*
X82116932Y-73487591D02*
X82197744Y-73406779D01*
X82197744Y-73406779D02*
X82305494Y-73352904D01*
X82305494Y-73352904D02*
X82413243Y-73352904D01*
X82413243Y-73352904D02*
X82494055Y-73379842D01*
X82494055Y-73379842D02*
X82628742Y-73460654D01*
X82628742Y-73460654D02*
X82709555Y-73541466D01*
X82709555Y-73541466D02*
X82790367Y-73676153D01*
X82790367Y-73676153D02*
X82817304Y-73756965D01*
X82817304Y-73756965D02*
X82817304Y-73864715D01*
X82817304Y-73864715D02*
X82763429Y-73972464D01*
X82763429Y-73972464D02*
X82709555Y-74026339D01*
X82709555Y-74026339D02*
X82601805Y-74080214D01*
X82601805Y-74080214D02*
X82547930Y-74080214D01*
X82547930Y-74080214D02*
X82359368Y-73891652D01*
X82359368Y-73891652D02*
X82467118Y-73783903D01*
X82359368Y-74376525D02*
X81793683Y-73810840D01*
X81793683Y-73810840D02*
X82036120Y-74699774D01*
X82036120Y-74699774D02*
X81470434Y-74134089D01*
X81766746Y-74969148D02*
X81201060Y-74403463D01*
X81201060Y-74403463D02*
X81066373Y-74538150D01*
X81066373Y-74538150D02*
X81012498Y-74645899D01*
X81012498Y-74645899D02*
X81012498Y-74753649D01*
X81012498Y-74753649D02*
X81039436Y-74834461D01*
X81039436Y-74834461D02*
X81120248Y-74969148D01*
X81120248Y-74969148D02*
X81201060Y-75049960D01*
X81201060Y-75049960D02*
X81335747Y-75130773D01*
X81335747Y-75130773D02*
X81416560Y-75157710D01*
X81416560Y-75157710D02*
X81524309Y-75157710D01*
X81524309Y-75157710D02*
X81632059Y-75103835D01*
X81632059Y-75103835D02*
X81766746Y-74969148D01*
X105434868Y-96226372D02*
X105461805Y-96145559D01*
X105461805Y-96145559D02*
X105542618Y-96064747D01*
X105542618Y-96064747D02*
X105650367Y-96010872D01*
X105650367Y-96010872D02*
X105758117Y-96010872D01*
X105758117Y-96010872D02*
X105838929Y-96037810D01*
X105838929Y-96037810D02*
X105973616Y-96118622D01*
X105973616Y-96118622D02*
X106054428Y-96199434D01*
X106054428Y-96199434D02*
X106135241Y-96334121D01*
X106135241Y-96334121D02*
X106162178Y-96414934D01*
X106162178Y-96414934D02*
X106162178Y-96522683D01*
X106162178Y-96522683D02*
X106108303Y-96630433D01*
X106108303Y-96630433D02*
X106054428Y-96684308D01*
X106054428Y-96684308D02*
X105946679Y-96738182D01*
X105946679Y-96738182D02*
X105892804Y-96738182D01*
X105892804Y-96738182D02*
X105704242Y-96549621D01*
X105704242Y-96549621D02*
X105811992Y-96441871D01*
X105704242Y-97034494D02*
X105138557Y-96468808D01*
X105138557Y-96468808D02*
X104923057Y-96684308D01*
X104923057Y-96684308D02*
X104896120Y-96765120D01*
X104896120Y-96765120D02*
X104896120Y-96818995D01*
X104896120Y-96818995D02*
X104923057Y-96899807D01*
X104923057Y-96899807D02*
X105003870Y-96980619D01*
X105003870Y-96980619D02*
X105084682Y-97007556D01*
X105084682Y-97007556D02*
X105138557Y-97007556D01*
X105138557Y-97007556D02*
X105219369Y-96980619D01*
X105219369Y-96980619D02*
X105434868Y-96765120D01*
X104842245Y-97896491D02*
X105165494Y-97573242D01*
X105003870Y-97734866D02*
X104438184Y-97169181D01*
X104438184Y-97169181D02*
X104572871Y-97196118D01*
X104572871Y-97196118D02*
X104680621Y-97196118D01*
X104680621Y-97196118D02*
X104761433Y-97169181D01*
X104087998Y-97519367D02*
X103737812Y-97869553D01*
X103737812Y-97869553D02*
X104141873Y-97896491D01*
X104141873Y-97896491D02*
X104061060Y-97977303D01*
X104061060Y-97977303D02*
X104034123Y-98058115D01*
X104034123Y-98058115D02*
X104034123Y-98111990D01*
X104034123Y-98111990D02*
X104061060Y-98192802D01*
X104061060Y-98192802D02*
X104195747Y-98327489D01*
X104195747Y-98327489D02*
X104276560Y-98354427D01*
X104276560Y-98354427D02*
X104330434Y-98354427D01*
X104330434Y-98354427D02*
X104411247Y-98327489D01*
X104411247Y-98327489D02*
X104572871Y-98165865D01*
X104572871Y-98165865D02*
X104599808Y-98085053D01*
X104599808Y-98085053D02*
X104599808Y-98031178D01*
X116307142Y-88264200D02*
X116221428Y-88292771D01*
X116221428Y-88292771D02*
X116078570Y-88292771D01*
X116078570Y-88292771D02*
X116021428Y-88264200D01*
X116021428Y-88264200D02*
X115992856Y-88235628D01*
X115992856Y-88235628D02*
X115964285Y-88178485D01*
X115964285Y-88178485D02*
X115964285Y-88121342D01*
X115964285Y-88121342D02*
X115992856Y-88064200D01*
X115992856Y-88064200D02*
X116021428Y-88035628D01*
X116021428Y-88035628D02*
X116078570Y-88007057D01*
X116078570Y-88007057D02*
X116192856Y-87978485D01*
X116192856Y-87978485D02*
X116249999Y-87949914D01*
X116249999Y-87949914D02*
X116278570Y-87921342D01*
X116278570Y-87921342D02*
X116307142Y-87864200D01*
X116307142Y-87864200D02*
X116307142Y-87807057D01*
X116307142Y-87807057D02*
X116278570Y-87749914D01*
X116278570Y-87749914D02*
X116249999Y-87721342D01*
X116249999Y-87721342D02*
X116192856Y-87692771D01*
X116192856Y-87692771D02*
X116049999Y-87692771D01*
X116049999Y-87692771D02*
X115964285Y-87721342D01*
X115764284Y-87692771D02*
X115621427Y-88292771D01*
X115621427Y-88292771D02*
X115507141Y-87864200D01*
X115507141Y-87864200D02*
X115392856Y-88292771D01*
X115392856Y-88292771D02*
X115249999Y-87692771D01*
X114678570Y-88235628D02*
X114707142Y-88264200D01*
X114707142Y-88264200D02*
X114792856Y-88292771D01*
X114792856Y-88292771D02*
X114849999Y-88292771D01*
X114849999Y-88292771D02*
X114935713Y-88264200D01*
X114935713Y-88264200D02*
X114992856Y-88207057D01*
X114992856Y-88207057D02*
X115021427Y-88149914D01*
X115021427Y-88149914D02*
X115049999Y-88035628D01*
X115049999Y-88035628D02*
X115049999Y-87949914D01*
X115049999Y-87949914D02*
X115021427Y-87835628D01*
X115021427Y-87835628D02*
X114992856Y-87778485D01*
X114992856Y-87778485D02*
X114935713Y-87721342D01*
X114935713Y-87721342D02*
X114849999Y-87692771D01*
X114849999Y-87692771D02*
X114792856Y-87692771D01*
X114792856Y-87692771D02*
X114707142Y-87721342D01*
X114707142Y-87721342D02*
X114678570Y-87749914D01*
X114135713Y-88292771D02*
X114421427Y-88292771D01*
X114421427Y-88292771D02*
X114421427Y-87692771D01*
X113935713Y-88292771D02*
X113935713Y-87692771D01*
X113592856Y-88292771D02*
X113849999Y-87949914D01*
X113592856Y-87692771D02*
X113935713Y-88035628D01*
X91904395Y-80881656D02*
X91104395Y-80881656D01*
X91104395Y-80881656D02*
X91104395Y-81038799D01*
X91104395Y-81038799D02*
X91142490Y-81133085D01*
X91142490Y-81133085D02*
X91218680Y-81195942D01*
X91218680Y-81195942D02*
X91294871Y-81227371D01*
X91294871Y-81227371D02*
X91447252Y-81258799D01*
X91447252Y-81258799D02*
X91561538Y-81258799D01*
X91561538Y-81258799D02*
X91713919Y-81227371D01*
X91713919Y-81227371D02*
X91790109Y-81195942D01*
X91790109Y-81195942D02*
X91866300Y-81133085D01*
X91866300Y-81133085D02*
X91904395Y-81038799D01*
X91904395Y-81038799D02*
X91904395Y-80881656D01*
X91485347Y-81541656D02*
X91485347Y-81761656D01*
X91904395Y-81855942D02*
X91904395Y-81541656D01*
X91904395Y-81541656D02*
X91104395Y-81541656D01*
X91104395Y-81541656D02*
X91104395Y-81855942D01*
X91485347Y-82358799D02*
X91523442Y-82453085D01*
X91523442Y-82453085D02*
X91561538Y-82484514D01*
X91561538Y-82484514D02*
X91637728Y-82515942D01*
X91637728Y-82515942D02*
X91752014Y-82515942D01*
X91752014Y-82515942D02*
X91828204Y-82484514D01*
X91828204Y-82484514D02*
X91866300Y-82453085D01*
X91866300Y-82453085D02*
X91904395Y-82390228D01*
X91904395Y-82390228D02*
X91904395Y-82138799D01*
X91904395Y-82138799D02*
X91104395Y-82138799D01*
X91104395Y-82138799D02*
X91104395Y-82358799D01*
X91104395Y-82358799D02*
X91142490Y-82421657D01*
X91142490Y-82421657D02*
X91180585Y-82453085D01*
X91180585Y-82453085D02*
X91256776Y-82484514D01*
X91256776Y-82484514D02*
X91332966Y-82484514D01*
X91332966Y-82484514D02*
X91409157Y-82453085D01*
X91409157Y-82453085D02*
X91447252Y-82421657D01*
X91447252Y-82421657D02*
X91485347Y-82358799D01*
X91485347Y-82358799D02*
X91485347Y-82138799D01*
X91104395Y-82798799D02*
X91752014Y-82798799D01*
X91752014Y-82798799D02*
X91828204Y-82830228D01*
X91828204Y-82830228D02*
X91866300Y-82861657D01*
X91866300Y-82861657D02*
X91904395Y-82924514D01*
X91904395Y-82924514D02*
X91904395Y-83050228D01*
X91904395Y-83050228D02*
X91866300Y-83113085D01*
X91866300Y-83113085D02*
X91828204Y-83144514D01*
X91828204Y-83144514D02*
X91752014Y-83175942D01*
X91752014Y-83175942D02*
X91104395Y-83175942D01*
X91142490Y-83835943D02*
X91104395Y-83773086D01*
X91104395Y-83773086D02*
X91104395Y-83678800D01*
X91104395Y-83678800D02*
X91142490Y-83584514D01*
X91142490Y-83584514D02*
X91218680Y-83521657D01*
X91218680Y-83521657D02*
X91294871Y-83490228D01*
X91294871Y-83490228D02*
X91447252Y-83458800D01*
X91447252Y-83458800D02*
X91561538Y-83458800D01*
X91561538Y-83458800D02*
X91713919Y-83490228D01*
X91713919Y-83490228D02*
X91790109Y-83521657D01*
X91790109Y-83521657D02*
X91866300Y-83584514D01*
X91866300Y-83584514D02*
X91904395Y-83678800D01*
X91904395Y-83678800D02*
X91904395Y-83741657D01*
X91904395Y-83741657D02*
X91866300Y-83835943D01*
X91866300Y-83835943D02*
X91828204Y-83867371D01*
X91828204Y-83867371D02*
X91561538Y-83867371D01*
X91561538Y-83867371D02*
X91561538Y-83741657D01*
X95032431Y-73568403D02*
X95059368Y-73487591D01*
X95059368Y-73487591D02*
X95140180Y-73406779D01*
X95140180Y-73406779D02*
X95247930Y-73352904D01*
X95247930Y-73352904D02*
X95355680Y-73352904D01*
X95355680Y-73352904D02*
X95436492Y-73379841D01*
X95436492Y-73379841D02*
X95571179Y-73460653D01*
X95571179Y-73460653D02*
X95651991Y-73541466D01*
X95651991Y-73541466D02*
X95732803Y-73676153D01*
X95732803Y-73676153D02*
X95759741Y-73756965D01*
X95759741Y-73756965D02*
X95759741Y-73864714D01*
X95759741Y-73864714D02*
X95705866Y-73972464D01*
X95705866Y-73972464D02*
X95651991Y-74026339D01*
X95651991Y-74026339D02*
X95544241Y-74080214D01*
X95544241Y-74080214D02*
X95490367Y-74080214D01*
X95490367Y-74080214D02*
X95301805Y-73891652D01*
X95301805Y-73891652D02*
X95409554Y-73783902D01*
X95301805Y-74376525D02*
X94736119Y-73810840D01*
X94736119Y-73810840D02*
X94978556Y-74699774D01*
X94978556Y-74699774D02*
X94412871Y-74134088D01*
X94709182Y-74969148D02*
X94143497Y-74403462D01*
X94143497Y-74403462D02*
X94008810Y-74538149D01*
X94008810Y-74538149D02*
X93954935Y-74645899D01*
X93954935Y-74645899D02*
X93954935Y-74753648D01*
X93954935Y-74753648D02*
X93981872Y-74834461D01*
X93981872Y-74834461D02*
X94062685Y-74969148D01*
X94062685Y-74969148D02*
X94143497Y-75049960D01*
X94143497Y-75049960D02*
X94278184Y-75130772D01*
X94278184Y-75130772D02*
X94358996Y-75157709D01*
X94358996Y-75157709D02*
X94466746Y-75157709D01*
X94466746Y-75157709D02*
X94574495Y-75103835D01*
X94574495Y-75103835D02*
X94709182Y-74969148D01*
X113054868Y-73083529D02*
X113081805Y-73002716D01*
X113081805Y-73002716D02*
X113162618Y-72921904D01*
X113162618Y-72921904D02*
X113270367Y-72868029D01*
X113270367Y-72868029D02*
X113378117Y-72868029D01*
X113378117Y-72868029D02*
X113458929Y-72894967D01*
X113458929Y-72894967D02*
X113593616Y-72975779D01*
X113593616Y-72975779D02*
X113674428Y-73056591D01*
X113674428Y-73056591D02*
X113755241Y-73191278D01*
X113755241Y-73191278D02*
X113782178Y-73272091D01*
X113782178Y-73272091D02*
X113782178Y-73379840D01*
X113782178Y-73379840D02*
X113728303Y-73487590D01*
X113728303Y-73487590D02*
X113674428Y-73541465D01*
X113674428Y-73541465D02*
X113566679Y-73595339D01*
X113566679Y-73595339D02*
X113512804Y-73595339D01*
X113512804Y-73595339D02*
X113324242Y-73406778D01*
X113324242Y-73406778D02*
X113431992Y-73299028D01*
X113324242Y-73891651D02*
X112758557Y-73325965D01*
X112758557Y-73325965D02*
X112543057Y-73541465D01*
X112543057Y-73541465D02*
X112516120Y-73622277D01*
X112516120Y-73622277D02*
X112516120Y-73676152D01*
X112516120Y-73676152D02*
X112543057Y-73756964D01*
X112543057Y-73756964D02*
X112623870Y-73837776D01*
X112623870Y-73837776D02*
X112704682Y-73864713D01*
X112704682Y-73864713D02*
X112758557Y-73864713D01*
X112758557Y-73864713D02*
X112839369Y-73837776D01*
X112839369Y-73837776D02*
X113054868Y-73622277D01*
X112462245Y-74753648D02*
X112785494Y-74430399D01*
X112623870Y-74592023D02*
X112058184Y-74026338D01*
X112058184Y-74026338D02*
X112192871Y-74053275D01*
X112192871Y-74053275D02*
X112300621Y-74053275D01*
X112300621Y-74053275D02*
X112381433Y-74026338D01*
X111411686Y-74672836D02*
X111519436Y-74565086D01*
X111519436Y-74565086D02*
X111600248Y-74538149D01*
X111600248Y-74538149D02*
X111654123Y-74538149D01*
X111654123Y-74538149D02*
X111788810Y-74565086D01*
X111788810Y-74565086D02*
X111923497Y-74645898D01*
X111923497Y-74645898D02*
X112138996Y-74861397D01*
X112138996Y-74861397D02*
X112165934Y-74942210D01*
X112165934Y-74942210D02*
X112165934Y-74996084D01*
X112165934Y-74996084D02*
X112138996Y-75076897D01*
X112138996Y-75076897D02*
X112031247Y-75184646D01*
X112031247Y-75184646D02*
X111950434Y-75211584D01*
X111950434Y-75211584D02*
X111896560Y-75211584D01*
X111896560Y-75211584D02*
X111815747Y-75184646D01*
X111815747Y-75184646D02*
X111681060Y-75049959D01*
X111681060Y-75049959D02*
X111654123Y-74969147D01*
X111654123Y-74969147D02*
X111654123Y-74915272D01*
X111654123Y-74915272D02*
X111681060Y-74834460D01*
X111681060Y-74834460D02*
X111788810Y-74726710D01*
X111788810Y-74726710D02*
X111869622Y-74699773D01*
X111869622Y-74699773D02*
X111923497Y-74699773D01*
X111923497Y-74699773D02*
X112004309Y-74726710D01*
X113054868Y-96226372D02*
X113081805Y-96145559D01*
X113081805Y-96145559D02*
X113162618Y-96064747D01*
X113162618Y-96064747D02*
X113270367Y-96010872D01*
X113270367Y-96010872D02*
X113378117Y-96010872D01*
X113378117Y-96010872D02*
X113458929Y-96037810D01*
X113458929Y-96037810D02*
X113593616Y-96118622D01*
X113593616Y-96118622D02*
X113674428Y-96199434D01*
X113674428Y-96199434D02*
X113755241Y-96334121D01*
X113755241Y-96334121D02*
X113782178Y-96414934D01*
X113782178Y-96414934D02*
X113782178Y-96522683D01*
X113782178Y-96522683D02*
X113728303Y-96630433D01*
X113728303Y-96630433D02*
X113674428Y-96684308D01*
X113674428Y-96684308D02*
X113566679Y-96738182D01*
X113566679Y-96738182D02*
X113512804Y-96738182D01*
X113512804Y-96738182D02*
X113324242Y-96549621D01*
X113324242Y-96549621D02*
X113431992Y-96441871D01*
X113324242Y-97034494D02*
X112758557Y-96468808D01*
X112758557Y-96468808D02*
X112543057Y-96684308D01*
X112543057Y-96684308D02*
X112516120Y-96765120D01*
X112516120Y-96765120D02*
X112516120Y-96818995D01*
X112516120Y-96818995D02*
X112543057Y-96899807D01*
X112543057Y-96899807D02*
X112623870Y-96980619D01*
X112623870Y-96980619D02*
X112704682Y-97007556D01*
X112704682Y-97007556D02*
X112758557Y-97007556D01*
X112758557Y-97007556D02*
X112839369Y-96980619D01*
X112839369Y-96980619D02*
X113054868Y-96765120D01*
X112462245Y-97896491D02*
X112785494Y-97573242D01*
X112623870Y-97734866D02*
X112058184Y-97169181D01*
X112058184Y-97169181D02*
X112192871Y-97196118D01*
X112192871Y-97196118D02*
X112300621Y-97196118D01*
X112300621Y-97196118D02*
X112381433Y-97169181D01*
X111384749Y-97842616D02*
X111654123Y-97573242D01*
X111654123Y-97573242D02*
X111950434Y-97815679D01*
X111950434Y-97815679D02*
X111896560Y-97815679D01*
X111896560Y-97815679D02*
X111815747Y-97842616D01*
X111815747Y-97842616D02*
X111681060Y-97977303D01*
X111681060Y-97977303D02*
X111654123Y-98058115D01*
X111654123Y-98058115D02*
X111654123Y-98111990D01*
X111654123Y-98111990D02*
X111681060Y-98192802D01*
X111681060Y-98192802D02*
X111815747Y-98327489D01*
X111815747Y-98327489D02*
X111896560Y-98354427D01*
X111896560Y-98354427D02*
X111950434Y-98354427D01*
X111950434Y-98354427D02*
X112031247Y-98327489D01*
X112031247Y-98327489D02*
X112165934Y-98192802D01*
X112165934Y-98192802D02*
X112192871Y-98111990D01*
X112192871Y-98111990D02*
X112192871Y-98058115D01*
X54718295Y-114801667D02*
X54337342Y-114535000D01*
X54718295Y-114344524D02*
X53918295Y-114344524D01*
X53918295Y-114344524D02*
X53918295Y-114649286D01*
X53918295Y-114649286D02*
X53956390Y-114725476D01*
X53956390Y-114725476D02*
X53994485Y-114763571D01*
X53994485Y-114763571D02*
X54070676Y-114801667D01*
X54070676Y-114801667D02*
X54184961Y-114801667D01*
X54184961Y-114801667D02*
X54261152Y-114763571D01*
X54261152Y-114763571D02*
X54299247Y-114725476D01*
X54299247Y-114725476D02*
X54337342Y-114649286D01*
X54337342Y-114649286D02*
X54337342Y-114344524D01*
X54184961Y-115487381D02*
X54718295Y-115487381D01*
X53880200Y-115296905D02*
X54451628Y-115106428D01*
X54451628Y-115106428D02*
X54451628Y-115601667D01*
X114728819Y-51982476D02*
X115443104Y-51982476D01*
X115443104Y-51982476D02*
X115585961Y-51934857D01*
X115585961Y-51934857D02*
X115681200Y-51839619D01*
X115681200Y-51839619D02*
X115728819Y-51696762D01*
X115728819Y-51696762D02*
X115728819Y-51601524D01*
X115728819Y-52982476D02*
X115728819Y-52411048D01*
X115728819Y-52696762D02*
X114728819Y-52696762D01*
X114728819Y-52696762D02*
X114871676Y-52601524D01*
X114871676Y-52601524D02*
X114966914Y-52506286D01*
X114966914Y-52506286D02*
X115014533Y-52411048D01*
X114728819Y-53315810D02*
X114728819Y-53934857D01*
X114728819Y-53934857D02*
X115109771Y-53601524D01*
X115109771Y-53601524D02*
X115109771Y-53744381D01*
X115109771Y-53744381D02*
X115157390Y-53839619D01*
X115157390Y-53839619D02*
X115205009Y-53887238D01*
X115205009Y-53887238D02*
X115300247Y-53934857D01*
X115300247Y-53934857D02*
X115538342Y-53934857D01*
X115538342Y-53934857D02*
X115633580Y-53887238D01*
X115633580Y-53887238D02*
X115681200Y-53839619D01*
X115681200Y-53839619D02*
X115728819Y-53744381D01*
X115728819Y-53744381D02*
X115728819Y-53458667D01*
X115728819Y-53458667D02*
X115681200Y-53363429D01*
X115681200Y-53363429D02*
X115633580Y-53315810D01*
X111388700Y-58720571D02*
X111388700Y-59863429D01*
X111388700Y-45720571D02*
X111388700Y-46863429D01*
X111960128Y-46292000D02*
X110817271Y-46292000D01*
X123400819Y-51454476D02*
X124115104Y-51454476D01*
X124115104Y-51454476D02*
X124257961Y-51406857D01*
X124257961Y-51406857D02*
X124353200Y-51311619D01*
X124353200Y-51311619D02*
X124400819Y-51168762D01*
X124400819Y-51168762D02*
X124400819Y-51073524D01*
X124400819Y-52454476D02*
X124400819Y-51883048D01*
X124400819Y-52168762D02*
X123400819Y-52168762D01*
X123400819Y-52168762D02*
X123543676Y-52073524D01*
X123543676Y-52073524D02*
X123638914Y-51978286D01*
X123638914Y-51978286D02*
X123686533Y-51883048D01*
X123400819Y-53359238D02*
X123400819Y-52883048D01*
X123400819Y-52883048D02*
X123877009Y-52835429D01*
X123877009Y-52835429D02*
X123829390Y-52883048D01*
X123829390Y-52883048D02*
X123781771Y-52978286D01*
X123781771Y-52978286D02*
X123781771Y-53216381D01*
X123781771Y-53216381D02*
X123829390Y-53311619D01*
X123829390Y-53311619D02*
X123877009Y-53359238D01*
X123877009Y-53359238D02*
X123972247Y-53406857D01*
X123972247Y-53406857D02*
X124210342Y-53406857D01*
X124210342Y-53406857D02*
X124305580Y-53359238D01*
X124305580Y-53359238D02*
X124353200Y-53311619D01*
X124353200Y-53311619D02*
X124400819Y-53216381D01*
X124400819Y-53216381D02*
X124400819Y-52978286D01*
X124400819Y-52978286D02*
X124353200Y-52883048D01*
X124353200Y-52883048D02*
X124305580Y-52835429D01*
X53702295Y-116960667D02*
X53321342Y-116694000D01*
X53702295Y-116503524D02*
X52902295Y-116503524D01*
X52902295Y-116503524D02*
X52902295Y-116808286D01*
X52902295Y-116808286D02*
X52940390Y-116884476D01*
X52940390Y-116884476D02*
X52978485Y-116922571D01*
X52978485Y-116922571D02*
X53054676Y-116960667D01*
X53054676Y-116960667D02*
X53168961Y-116960667D01*
X53168961Y-116960667D02*
X53245152Y-116922571D01*
X53245152Y-116922571D02*
X53283247Y-116884476D01*
X53283247Y-116884476D02*
X53321342Y-116808286D01*
X53321342Y-116808286D02*
X53321342Y-116503524D01*
X53702295Y-117722571D02*
X53702295Y-117265428D01*
X53702295Y-117494000D02*
X52902295Y-117494000D01*
X52902295Y-117494000D02*
X53016580Y-117417809D01*
X53016580Y-117417809D02*
X53092771Y-117341619D01*
X53092771Y-117341619D02*
X53130866Y-117265428D01*
D11*
X57577565Y-116929634D02*
X57406296Y-116929634D01*
X57491930Y-117229354D02*
X57491930Y-116929634D01*
X57306390Y-117072358D02*
X57206483Y-117072358D01*
X57163666Y-117229354D02*
X57306390Y-117229354D01*
X57306390Y-117229354D02*
X57306390Y-116929634D01*
X57306390Y-116929634D02*
X57163666Y-116929634D01*
X57035215Y-117229354D02*
X57035215Y-116929634D01*
X57035215Y-116929634D02*
X56935308Y-117143720D01*
X56935308Y-117143720D02*
X56835401Y-116929634D01*
X56835401Y-116929634D02*
X56835401Y-117229354D01*
X56735495Y-116929634D02*
X56564226Y-116929634D01*
X56649860Y-117229354D02*
X56649860Y-116929634D01*
X56335868Y-116929634D02*
X56392958Y-116929634D01*
X56392958Y-116929634D02*
X56421502Y-116943906D01*
X56421502Y-116943906D02*
X56435775Y-116958179D01*
X56435775Y-116958179D02*
X56464320Y-117000996D01*
X56464320Y-117000996D02*
X56478592Y-117058085D01*
X56478592Y-117058085D02*
X56478592Y-117172264D01*
X56478592Y-117172264D02*
X56464320Y-117200809D01*
X56464320Y-117200809D02*
X56450047Y-117215082D01*
X56450047Y-117215082D02*
X56421502Y-117229354D01*
X56421502Y-117229354D02*
X56364413Y-117229354D01*
X56364413Y-117229354D02*
X56335868Y-117215082D01*
X56335868Y-117215082D02*
X56321596Y-117200809D01*
X56321596Y-117200809D02*
X56307323Y-117172264D01*
X56307323Y-117172264D02*
X56307323Y-117100902D01*
X56307323Y-117100902D02*
X56321596Y-117072358D01*
X56321596Y-117072358D02*
X56335868Y-117058085D01*
X56335868Y-117058085D02*
X56364413Y-117043813D01*
X56364413Y-117043813D02*
X56421502Y-117043813D01*
X56421502Y-117043813D02*
X56450047Y-117058085D01*
X56450047Y-117058085D02*
X56464320Y-117072358D01*
X56464320Y-117072358D02*
X56478592Y-117100902D01*
X56121782Y-116929634D02*
X56093237Y-116929634D01*
X56093237Y-116929634D02*
X56064693Y-116943906D01*
X56064693Y-116943906D02*
X56050420Y-116958179D01*
X56050420Y-116958179D02*
X56036148Y-116986723D01*
X56036148Y-116986723D02*
X56021875Y-117043813D01*
X56021875Y-117043813D02*
X56021875Y-117115175D01*
X56021875Y-117115175D02*
X56036148Y-117172264D01*
X56036148Y-117172264D02*
X56050420Y-117200809D01*
X56050420Y-117200809D02*
X56064693Y-117215082D01*
X56064693Y-117215082D02*
X56093237Y-117229354D01*
X56093237Y-117229354D02*
X56121782Y-117229354D01*
X56121782Y-117229354D02*
X56150327Y-117215082D01*
X56150327Y-117215082D02*
X56164599Y-117200809D01*
X56164599Y-117200809D02*
X56178872Y-117172264D01*
X56178872Y-117172264D02*
X56193144Y-117115175D01*
X56193144Y-117115175D02*
X56193144Y-117043813D01*
X56193144Y-117043813D02*
X56178872Y-116986723D01*
X56178872Y-116986723D02*
X56164599Y-116958179D01*
X56164599Y-116958179D02*
X56150327Y-116943906D01*
X56150327Y-116943906D02*
X56121782Y-116929634D01*
X55836334Y-116929634D02*
X55807789Y-116929634D01*
X55807789Y-116929634D02*
X55779245Y-116943906D01*
X55779245Y-116943906D02*
X55764972Y-116958179D01*
X55764972Y-116958179D02*
X55750700Y-116986723D01*
X55750700Y-116986723D02*
X55736427Y-117043813D01*
X55736427Y-117043813D02*
X55736427Y-117115175D01*
X55736427Y-117115175D02*
X55750700Y-117172264D01*
X55750700Y-117172264D02*
X55764972Y-117200809D01*
X55764972Y-117200809D02*
X55779245Y-117215082D01*
X55779245Y-117215082D02*
X55807789Y-117229354D01*
X55807789Y-117229354D02*
X55836334Y-117229354D01*
X55836334Y-117229354D02*
X55864879Y-117215082D01*
X55864879Y-117215082D02*
X55879151Y-117200809D01*
X55879151Y-117200809D02*
X55893424Y-117172264D01*
X55893424Y-117172264D02*
X55907696Y-117115175D01*
X55907696Y-117115175D02*
X55907696Y-117043813D01*
X55907696Y-117043813D02*
X55893424Y-116986723D01*
X55893424Y-116986723D02*
X55879151Y-116958179D01*
X55879151Y-116958179D02*
X55864879Y-116943906D01*
X55864879Y-116943906D02*
X55836334Y-116929634D01*
X55550886Y-116929634D02*
X55522341Y-116929634D01*
X55522341Y-116929634D02*
X55493797Y-116943906D01*
X55493797Y-116943906D02*
X55479524Y-116958179D01*
X55479524Y-116958179D02*
X55465252Y-116986723D01*
X55465252Y-116986723D02*
X55450979Y-117043813D01*
X55450979Y-117043813D02*
X55450979Y-117115175D01*
X55450979Y-117115175D02*
X55465252Y-117172264D01*
X55465252Y-117172264D02*
X55479524Y-117200809D01*
X55479524Y-117200809D02*
X55493797Y-117215082D01*
X55493797Y-117215082D02*
X55522341Y-117229354D01*
X55522341Y-117229354D02*
X55550886Y-117229354D01*
X55550886Y-117229354D02*
X55579431Y-117215082D01*
X55579431Y-117215082D02*
X55593703Y-117200809D01*
X55593703Y-117200809D02*
X55607976Y-117172264D01*
X55607976Y-117172264D02*
X55622248Y-117115175D01*
X55622248Y-117115175D02*
X55622248Y-117043813D01*
X55622248Y-117043813D02*
X55607976Y-116986723D01*
X55607976Y-116986723D02*
X55593703Y-116958179D01*
X55593703Y-116958179D02*
X55579431Y-116943906D01*
X55579431Y-116943906D02*
X55550886Y-116929634D01*
D10*
X100228819Y-51982476D02*
X100943104Y-51982476D01*
X100943104Y-51982476D02*
X101085961Y-51934857D01*
X101085961Y-51934857D02*
X101181200Y-51839619D01*
X101181200Y-51839619D02*
X101228819Y-51696762D01*
X101228819Y-51696762D02*
X101228819Y-51601524D01*
X101228819Y-52982476D02*
X101228819Y-52411048D01*
X101228819Y-52696762D02*
X100228819Y-52696762D01*
X100228819Y-52696762D02*
X100371676Y-52601524D01*
X100371676Y-52601524D02*
X100466914Y-52506286D01*
X100466914Y-52506286D02*
X100514533Y-52411048D01*
X101228819Y-53934857D02*
X101228819Y-53363429D01*
X101228819Y-53649143D02*
X100228819Y-53649143D01*
X100228819Y-53649143D02*
X100371676Y-53553905D01*
X100371676Y-53553905D02*
X100466914Y-53458667D01*
X100466914Y-53458667D02*
X100514533Y-53363429D01*
X96888700Y-45720571D02*
X96888700Y-46863429D01*
X97460128Y-46292000D02*
X96317271Y-46292000D01*
X96888700Y-58720571D02*
X96888700Y-59863429D01*
D12*
%TO.C,U1*%
X114094000Y-95483000D02*
X114094000Y-89083000D01*
X61844000Y-89583000D02*
X61654000Y-89253000D01*
X62344000Y-89293000D02*
X61844000Y-89583000D01*
X62974000Y-89293000D02*
X62974000Y-95483000D01*
X62974000Y-89293000D02*
X62344000Y-89293000D01*
X61654000Y-89253000D02*
X61654000Y-81713000D01*
X114094000Y-81883000D02*
X114094000Y-75483000D01*
X61654000Y-81713000D02*
X61844000Y-81383000D01*
X62344000Y-81673000D02*
X62974000Y-81673000D01*
X62974000Y-81673000D02*
X62974000Y-75483000D01*
X61844000Y-81383000D02*
X62344000Y-81673000D01*
X62974000Y-75483000D02*
X62974000Y-81673000D01*
D13*
X92964000Y-86295800D02*
X95504000Y-86295800D01*
X95504000Y-78421800D01*
X92964000Y-78421800D01*
X92964000Y-86295800D01*
D12*
X113724000Y-74953001D02*
G75*
G02*
X114093944Y-75483000I-192100J-528199D01*
G01*
D14*
%TO.C,kibuzzard-6630888F*%
G36*
X77880281Y-119180992D02*
G01*
X77612161Y-119180992D01*
X77534913Y-119153199D01*
X77509163Y-119069820D01*
X77518155Y-119007695D01*
X77548401Y-118974997D01*
X77639954Y-118961918D01*
X77728237Y-118939030D01*
X77757665Y-118845025D01*
X77727420Y-118751019D01*
X77626875Y-118728131D01*
X77548401Y-118693798D01*
X77543496Y-118634943D01*
X77570471Y-118577722D01*
X77651398Y-118561373D01*
X77880281Y-118561373D01*
X77880281Y-119180992D01*
G37*
G36*
X78578373Y-119880719D02*
G01*
X78169654Y-119880719D01*
X77595812Y-119880719D01*
X76582188Y-119880719D01*
X76008346Y-119880719D01*
X75599627Y-119880719D01*
X75599627Y-118391346D01*
X76008346Y-118391346D01*
X76016520Y-118459193D01*
X76044313Y-118494343D01*
X76127692Y-118509057D01*
X76439954Y-118509057D01*
X76439954Y-119331401D01*
X76442406Y-119386986D01*
X76457120Y-119428676D01*
X76500444Y-119462191D01*
X76582188Y-119472000D01*
X76663114Y-119462191D01*
X76705621Y-119428676D01*
X76720335Y-119386169D01*
X76722787Y-119329766D01*
X76722787Y-119086169D01*
X77219790Y-119086169D01*
X77233687Y-119189257D01*
X77271016Y-119280538D01*
X77331779Y-119360011D01*
X77409436Y-119421319D01*
X77497447Y-119458104D01*
X77595812Y-119470365D01*
X78025785Y-119470365D01*
X78116520Y-119454834D01*
X78159845Y-119408240D01*
X78169654Y-119323226D01*
X78169654Y-118415869D01*
X78167202Y-118358649D01*
X78151670Y-118316142D01*
X78108346Y-118283035D01*
X78024150Y-118272000D01*
X77612161Y-118272000D01*
X77517338Y-118283626D01*
X77433414Y-118318503D01*
X77360390Y-118376632D01*
X77301352Y-118452200D01*
X77265930Y-118537213D01*
X77254123Y-118631673D01*
X77269654Y-118735079D01*
X77316248Y-118829493D01*
X77262660Y-118908876D01*
X77230508Y-118994434D01*
X77219790Y-119086169D01*
X76722787Y-119086169D01*
X76722787Y-118509057D01*
X77036684Y-118509057D01*
X77113523Y-118496796D01*
X77146221Y-118458376D01*
X77154395Y-118389711D01*
X77146221Y-118321864D01*
X77118428Y-118286714D01*
X77035049Y-118272000D01*
X76126057Y-118272000D01*
X76049218Y-118284262D01*
X76016520Y-118322681D01*
X76008346Y-118391346D01*
X75599627Y-118391346D01*
X75599627Y-117863281D01*
X76008346Y-117863281D01*
X78169654Y-117863281D01*
X78578373Y-117863281D01*
X78578373Y-119880719D01*
G37*
%TO.C,kibuzzard-663088A5*%
G36*
X73206923Y-109084774D02*
G01*
X73003092Y-109084774D01*
X73105774Y-108874812D01*
X73206923Y-109084774D01*
G37*
G36*
X72186234Y-108969831D02*
G01*
X71990065Y-108969831D01*
X71901176Y-108936115D01*
X71856732Y-108834966D01*
X71901176Y-108733050D01*
X71993130Y-108698567D01*
X72186234Y-108698567D01*
X72186234Y-108969831D01*
G37*
G36*
X74437575Y-109277877D02*
G01*
X74288916Y-109277877D01*
X74183935Y-109257379D01*
X74089682Y-109195885D01*
X74023015Y-109103356D01*
X74000793Y-108989755D01*
X74022441Y-108875770D01*
X74087383Y-108782092D01*
X74181444Y-108719448D01*
X74290448Y-108698567D01*
X74437575Y-108698567D01*
X74437575Y-109277877D01*
G37*
G36*
X76382402Y-109949142D02*
G01*
X75999261Y-109949142D01*
X75312670Y-109949142D01*
X74966310Y-109949142D01*
X74293513Y-109949142D01*
X72712670Y-109949142D01*
X71748686Y-109949142D01*
X71574739Y-109949142D01*
X71191598Y-109949142D01*
X71191598Y-109440330D01*
X71574739Y-109440330D01*
X71598494Y-109493969D01*
X71669759Y-109538414D01*
X71748686Y-109559870D01*
X71797728Y-109545310D01*
X71826080Y-109515425D01*
X71846174Y-109471662D01*
X71886021Y-109379197D01*
X71945621Y-109238031D01*
X71993130Y-109241096D01*
X72186234Y-109241096D01*
X72186234Y-109414276D01*
X72188533Y-109467149D01*
X72203092Y-109507762D01*
X72243705Y-109538797D01*
X72322632Y-109549142D01*
X72407690Y-109534966D01*
X72448303Y-109492437D01*
X72454315Y-109440330D01*
X72541789Y-109440330D01*
X72564011Y-109492820D01*
X72630678Y-109539946D01*
X72712670Y-109566000D01*
X72761713Y-109552207D01*
X72789299Y-109523088D01*
X72813054Y-109477111D01*
X72892747Y-109311594D01*
X73317268Y-109311594D01*
X73396962Y-109477111D01*
X73420716Y-109521556D01*
X73448303Y-109549908D01*
X73497345Y-109564467D01*
X73579337Y-109538414D01*
X73646004Y-109492437D01*
X73668226Y-109440330D01*
X73642172Y-109362169D01*
X73458223Y-108981326D01*
X73729529Y-108981326D01*
X73739826Y-109094017D01*
X73770716Y-109198375D01*
X73822201Y-109294400D01*
X73894280Y-109382092D01*
X73981013Y-109455176D01*
X74076464Y-109507379D01*
X74180630Y-109538701D01*
X74293513Y-109549142D01*
X74573973Y-109549142D01*
X74649835Y-109539563D01*
X74690448Y-109510828D01*
X74707977Y-109417341D01*
X74831444Y-109417341D01*
X74833743Y-109470215D01*
X74848303Y-109510828D01*
X74887766Y-109540713D01*
X74966310Y-109550674D01*
X75044088Y-109540330D01*
X75084318Y-109509295D01*
X75097345Y-109469448D01*
X75098757Y-109436498D01*
X75199261Y-109436498D01*
X75206923Y-109501632D01*
X75232977Y-109535349D01*
X75312670Y-109550674D01*
X75864395Y-109550674D01*
X75949452Y-109536115D01*
X75990065Y-109492437D01*
X75999261Y-109414276D01*
X75999261Y-108562169D01*
X75996962Y-108509295D01*
X75982402Y-108468682D01*
X75941789Y-108437648D01*
X75862862Y-108427303D01*
X75777421Y-108441479D01*
X75735659Y-108484008D01*
X75727996Y-108563701D01*
X75727996Y-109323854D01*
X75311138Y-109323854D01*
X75237575Y-109335349D01*
X75206923Y-109371364D01*
X75199261Y-109436498D01*
X75098757Y-109436498D01*
X75099644Y-109415808D01*
X75099644Y-108877877D01*
X75097345Y-108825004D01*
X75084318Y-108784391D01*
X75043705Y-108754506D01*
X74965544Y-108744641D01*
X74964778Y-108744544D01*
X74860563Y-108770598D01*
X74832977Y-108836498D01*
X74831444Y-108880943D01*
X74831444Y-109417341D01*
X74707977Y-109417341D01*
X74708839Y-109412743D01*
X74708839Y-108560636D01*
X74706540Y-108506996D01*
X74704300Y-108500866D01*
X74831444Y-108500866D01*
X74833743Y-108553739D01*
X74847536Y-108593586D01*
X74888149Y-108625004D01*
X74965544Y-108634199D01*
X75042939Y-108625004D01*
X75083552Y-108592820D01*
X75097345Y-108552207D01*
X75099644Y-108499333D01*
X75097345Y-108446460D01*
X75084318Y-108407379D01*
X75043705Y-108376345D01*
X74964778Y-108366000D01*
X74887383Y-108376345D01*
X74848303Y-108407379D01*
X74833743Y-108447992D01*
X74831444Y-108500866D01*
X74704300Y-108500866D01*
X74691981Y-108467149D01*
X74651368Y-108436115D01*
X74572441Y-108425770D01*
X74288916Y-108427303D01*
X74181157Y-108437312D01*
X74080103Y-108467341D01*
X73985755Y-108517389D01*
X73898111Y-108587456D01*
X73824356Y-108672130D01*
X73771674Y-108766000D01*
X73740065Y-108869065D01*
X73729529Y-108981326D01*
X73458223Y-108981326D01*
X73228379Y-108505464D01*
X73177038Y-108448759D01*
X73104241Y-108427303D01*
X73032211Y-108447226D01*
X72981636Y-108506996D01*
X72567843Y-109362169D01*
X72541789Y-109440330D01*
X72454315Y-109440330D01*
X72457498Y-109412743D01*
X72457498Y-108562169D01*
X72455199Y-108509295D01*
X72440640Y-108468682D01*
X72400027Y-108437648D01*
X72321100Y-108427303D01*
X71990065Y-108427303D01*
X71901006Y-108438201D01*
X71813650Y-108470896D01*
X71727996Y-108525387D01*
X71672057Y-108581326D01*
X71626847Y-108654123D01*
X71596962Y-108739946D01*
X71587000Y-108834966D01*
X71599771Y-108943607D01*
X71638086Y-109038627D01*
X71701943Y-109120023D01*
X71675378Y-109182858D01*
X71640640Y-109263063D01*
X71597728Y-109360636D01*
X71574739Y-109440330D01*
X71191598Y-109440330D01*
X71191598Y-107982858D01*
X71574739Y-107982858D01*
X75999261Y-107982858D01*
X76382402Y-107982858D01*
X76382402Y-109949142D01*
G37*
%TO.C,kibuzzard-66308915*%
G36*
X72313150Y-118350145D02*
G01*
X71911005Y-118350145D01*
X71769450Y-118350145D01*
X70365161Y-118350145D01*
X69580979Y-118350145D01*
X69058995Y-118350145D01*
X68656850Y-118350145D01*
X68656850Y-117378563D01*
X69058995Y-117378563D01*
X69067239Y-117482316D01*
X69091971Y-117581244D01*
X69133190Y-117675346D01*
X69190898Y-117764622D01*
X69264491Y-117838818D01*
X69356582Y-117897330D01*
X69463351Y-117935332D01*
X69580979Y-117948000D01*
X69698405Y-117935131D01*
X69804571Y-117896525D01*
X69895657Y-117837008D01*
X69943269Y-117787142D01*
X70226823Y-117787142D01*
X70242105Y-117875212D01*
X70287949Y-117917437D01*
X70365161Y-117927088D01*
X70439155Y-117919046D01*
X70480979Y-117899743D01*
X70503499Y-117867571D01*
X70511542Y-117783925D01*
X70511542Y-117245051D01*
X70561005Y-117309595D01*
X70628968Y-117403496D01*
X70692105Y-117491767D01*
X70727091Y-117539421D01*
X70756046Y-117577223D01*
X70795456Y-117606177D01*
X70863016Y-117624676D01*
X70928968Y-117607786D01*
X70971595Y-117574810D01*
X70984464Y-117557115D01*
X71032319Y-117494180D01*
X71111542Y-117385802D01*
X71184732Y-117285064D01*
X71214491Y-117245051D01*
X71214491Y-117787142D01*
X71216903Y-117842638D01*
X71232185Y-117883657D01*
X71275617Y-117916231D01*
X71357654Y-117927088D01*
X71437279Y-117916231D01*
X71479906Y-117883657D01*
X71495188Y-117841834D01*
X71497467Y-117787142D01*
X71626287Y-117787142D01*
X71628700Y-117843442D01*
X71643981Y-117885265D01*
X71686609Y-117917839D01*
X71769450Y-117928697D01*
X71858727Y-117913416D01*
X71901354Y-117867571D01*
X71911005Y-117785534D01*
X71911005Y-116891164D01*
X71908592Y-116835668D01*
X71893311Y-116793040D01*
X71850684Y-116760466D01*
X71767842Y-116749609D01*
X71678164Y-116764488D01*
X71634330Y-116809126D01*
X71626287Y-116892772D01*
X71626287Y-117787142D01*
X71497467Y-117787142D01*
X71497601Y-117783925D01*
X71497601Y-116891164D01*
X71495188Y-116835668D01*
X71479906Y-116793040D01*
X71436475Y-116761673D01*
X71354437Y-116751217D01*
X71279638Y-116761673D01*
X71238619Y-116783389D01*
X71228968Y-116793040D01*
X70863820Y-117272397D01*
X70761708Y-117137469D01*
X70674137Y-117022231D01*
X70601107Y-116926681D01*
X70542619Y-116850820D01*
X70498673Y-116794649D01*
X70452627Y-116762075D01*
X70369182Y-116751217D01*
X70286944Y-116762075D01*
X70244517Y-116794649D01*
X70229236Y-116838080D01*
X70226823Y-116894381D01*
X70226823Y-117787142D01*
X69943269Y-117787142D01*
X69967842Y-117761405D01*
X70024846Y-117673335D01*
X70065563Y-117579635D01*
X70089993Y-117480306D01*
X70098137Y-117375346D01*
X70098137Y-116891164D01*
X70095724Y-116834059D01*
X70080442Y-116791432D01*
X70037011Y-116757651D01*
X69954973Y-116748000D01*
X69872936Y-116757651D01*
X69831113Y-116791432D01*
X69811810Y-116892772D01*
X69811810Y-117375346D01*
X69799745Y-117471056D01*
X69763552Y-117561941D01*
X69691166Y-117634327D01*
X69576957Y-117661673D01*
X69474410Y-117639957D01*
X69401622Y-117574810D01*
X69358190Y-117481110D01*
X69343713Y-117373737D01*
X69343713Y-116881512D01*
X69327627Y-116793040D01*
X69280979Y-116757651D01*
X69204571Y-116748000D01*
X69131381Y-116756043D01*
X69089558Y-116775346D01*
X69068646Y-116809126D01*
X69058995Y-116892772D01*
X69058995Y-117378563D01*
X68656850Y-117378563D01*
X68656850Y-116345855D01*
X69058995Y-116345855D01*
X71911005Y-116345855D01*
X72313150Y-116345855D01*
X72313150Y-118350145D01*
G37*
%TO.C,kibuzzard-6630893A*%
G36*
X142598856Y-93706301D02*
G01*
X142202555Y-93706301D01*
X141763453Y-93706301D01*
X141081022Y-93706301D01*
X140423955Y-93706301D01*
X139309556Y-93706301D01*
X138721445Y-93706301D01*
X138325144Y-93706301D01*
X138325144Y-92246328D01*
X138721445Y-92246328D01*
X138745223Y-92322417D01*
X139182740Y-93210132D01*
X139235844Y-93266407D01*
X139309556Y-93287807D01*
X139325408Y-93287807D01*
X139400705Y-93266407D01*
X139453810Y-93210132D01*
X139596784Y-92920040D01*
X139978513Y-92920040D01*
X139992603Y-93026513D01*
X140034875Y-93119775D01*
X140105329Y-93199828D01*
X140197095Y-93261035D01*
X140303303Y-93297759D01*
X140423955Y-93310000D01*
X140543726Y-93297671D01*
X140649406Y-93260683D01*
X140740996Y-93199036D01*
X140785778Y-93149498D01*
X140788492Y-93145139D01*
X140942317Y-93145139D01*
X140944695Y-93201413D01*
X140961339Y-93245007D01*
X141003149Y-93279485D01*
X141081022Y-93290978D01*
X141160679Y-93283448D01*
X141207839Y-93260859D01*
X141238750Y-93146724D01*
X141238750Y-93140383D01*
X141236373Y-93084901D01*
X141221313Y-93042100D01*
X141179503Y-93006433D01*
X141101630Y-92994544D01*
X141020587Y-93002867D01*
X140969266Y-93027834D01*
X140942317Y-93138798D01*
X140942317Y-93145139D01*
X140788492Y-93145139D01*
X140825012Y-93086486D01*
X140842449Y-93045271D01*
X140845620Y-93029419D01*
X140863057Y-92943818D01*
X140849665Y-92920040D01*
X141318011Y-92920040D01*
X141332101Y-93026513D01*
X141374373Y-93119775D01*
X141444827Y-93199828D01*
X141536593Y-93261035D01*
X141642801Y-93297759D01*
X141763453Y-93310000D01*
X141883224Y-93297671D01*
X141988904Y-93260683D01*
X142080494Y-93199036D01*
X142125276Y-93149498D01*
X142164510Y-93086486D01*
X142181947Y-93045271D01*
X142185118Y-93029419D01*
X142202555Y-92943818D01*
X142163717Y-92874861D01*
X142047205Y-92851876D01*
X141963189Y-92867728D01*
X141915633Y-92950159D01*
X141828446Y-93026248D01*
X141761868Y-93035760D01*
X141688948Y-93027239D01*
X141638222Y-93001678D01*
X141598592Y-92924795D01*
X141637429Y-92849498D01*
X141729371Y-92817001D01*
X141801498Y-92813831D01*
X141842713Y-92797979D01*
X141874814Y-92757160D01*
X141885514Y-92675918D01*
X141870851Y-92587543D01*
X141826861Y-92544346D01*
X141744431Y-92536420D01*
X141654074Y-92520964D01*
X141623955Y-92474597D01*
X141655659Y-92411189D01*
X141743638Y-92381070D01*
X141833202Y-92400092D01*
X141874417Y-92438137D01*
X141883929Y-92457160D01*
X141928314Y-92516605D01*
X141988552Y-92536420D01*
X142075738Y-92507886D01*
X142135184Y-92458349D01*
X142154999Y-92401678D01*
X142118539Y-92293884D01*
X142083664Y-92243950D01*
X142017878Y-92181334D01*
X141913255Y-92132193D01*
X141842119Y-92115548D01*
X141763453Y-92110000D01*
X141642625Y-92122329D01*
X141540115Y-92159317D01*
X141455923Y-92220964D01*
X141393396Y-92298023D01*
X141355879Y-92381246D01*
X141343374Y-92470634D01*
X141357112Y-92554562D01*
X141398328Y-92621405D01*
X141467020Y-92671162D01*
X141467020Y-92682259D01*
X141420256Y-92716341D01*
X141370322Y-92767860D01*
X141331089Y-92839194D01*
X141318011Y-92920040D01*
X140849665Y-92920040D01*
X140824219Y-92874861D01*
X140707707Y-92851876D01*
X140623691Y-92867728D01*
X140576135Y-92950159D01*
X140488948Y-93026248D01*
X140422370Y-93035760D01*
X140349450Y-93027239D01*
X140298724Y-93001678D01*
X140259094Y-92924795D01*
X140297931Y-92849498D01*
X140389873Y-92817001D01*
X140462000Y-92813831D01*
X140503215Y-92797979D01*
X140535316Y-92757160D01*
X140546016Y-92675918D01*
X140531353Y-92587543D01*
X140487363Y-92544346D01*
X140404933Y-92536420D01*
X140314576Y-92520964D01*
X140284457Y-92474597D01*
X140316161Y-92411189D01*
X140404140Y-92381070D01*
X140493704Y-92400092D01*
X140534919Y-92438137D01*
X140544431Y-92457160D01*
X140588816Y-92516605D01*
X140649054Y-92536420D01*
X140736240Y-92507886D01*
X140795686Y-92458349D01*
X140815501Y-92401678D01*
X140779041Y-92293884D01*
X140744166Y-92243950D01*
X140678380Y-92181334D01*
X140573757Y-92132193D01*
X140502621Y-92115548D01*
X140423955Y-92110000D01*
X140303127Y-92122329D01*
X140200617Y-92159317D01*
X140116425Y-92220964D01*
X140053898Y-92298023D01*
X140016381Y-92381246D01*
X140003876Y-92470634D01*
X140017614Y-92554562D01*
X140058830Y-92621405D01*
X140127522Y-92671162D01*
X140127522Y-92682259D01*
X140080758Y-92716341D01*
X140030824Y-92767860D01*
X139991590Y-92839194D01*
X139978513Y-92920040D01*
X139596784Y-92920040D01*
X139891326Y-92322417D01*
X139915104Y-92246328D01*
X139891723Y-92193223D01*
X139821577Y-92144875D01*
X139741524Y-92117926D01*
X139699517Y-92124267D01*
X139672568Y-92146460D01*
X139646412Y-92188468D01*
X139625210Y-92232853D01*
X139585382Y-92320040D01*
X139534457Y-92431995D01*
X139479966Y-92550687D01*
X139425276Y-92669379D01*
X139373757Y-92781334D01*
X139334721Y-92865945D01*
X139317482Y-92902602D01*
X139000441Y-92208283D01*
X138978248Y-92160727D01*
X138908499Y-92117926D01*
X138814972Y-92144875D01*
X138744827Y-92193223D01*
X138721445Y-92246328D01*
X138325144Y-92246328D01*
X138325144Y-91713699D01*
X138721445Y-91713699D01*
X142202555Y-91713699D01*
X142598856Y-91713699D01*
X142598856Y-93706301D01*
G37*
%TO.C,kibuzzard-6630897E*%
G36*
X127266973Y-122693142D02*
G01*
X126883831Y-122693142D01*
X126476169Y-122693142D01*
X125205670Y-122693142D01*
X124618697Y-122693142D01*
X123933640Y-122693142D01*
X123279234Y-122693142D01*
X122211034Y-122693142D01*
X122076169Y-122693142D01*
X121693027Y-122693142D01*
X121693027Y-122161341D01*
X122076169Y-122161341D01*
X122078467Y-122214215D01*
X122093027Y-122254828D01*
X122132490Y-122284713D01*
X122211034Y-122294674D01*
X122286897Y-122284713D01*
X122327510Y-122254828D01*
X122342069Y-122213448D01*
X122344368Y-122158276D01*
X122344368Y-121890077D01*
X122379617Y-121791992D01*
X122469272Y-121756743D01*
X122565057Y-121789693D01*
X122612567Y-121864023D01*
X122612567Y-122161341D01*
X122614866Y-122214215D01*
X122629425Y-122254828D01*
X122668889Y-122284713D01*
X122747433Y-122294674D01*
X122825211Y-122284330D01*
X122865441Y-122253295D01*
X122878467Y-122213448D01*
X122880766Y-122159808D01*
X122880766Y-122132222D01*
X122980383Y-122132222D01*
X123001456Y-122188544D01*
X123064674Y-122241034D01*
X123161992Y-122287011D01*
X123279234Y-122302337D01*
X123373061Y-122290928D01*
X123464504Y-122256701D01*
X123553563Y-122199655D01*
X123610651Y-122142375D01*
X123656245Y-122068621D01*
X123686130Y-121982414D01*
X123696092Y-121887778D01*
X123686130Y-121793525D01*
X123656245Y-121708467D01*
X123610651Y-121635862D01*
X123599695Y-121624943D01*
X123757395Y-121624943D01*
X123767739Y-121702720D01*
X123798774Y-121742950D01*
X123839387Y-121755977D01*
X123892261Y-121758276D01*
X123991877Y-121752146D01*
X123991877Y-121963640D01*
X123978851Y-122023410D01*
X123929808Y-122041801D01*
X123874636Y-122044100D01*
X123834023Y-122058659D01*
X123798774Y-122161341D01*
X123809502Y-122239119D01*
X123841686Y-122279349D01*
X123882299Y-122292375D01*
X123933640Y-122294674D01*
X124031384Y-122286671D01*
X124112099Y-122262661D01*
X124175785Y-122222644D01*
X124221762Y-122163555D01*
X124222514Y-122161341D01*
X124483831Y-122161341D01*
X124486130Y-122214215D01*
X124500690Y-122254828D01*
X124540153Y-122284713D01*
X124618697Y-122294674D01*
X124696475Y-122284330D01*
X124736705Y-122253295D01*
X124749732Y-122213448D01*
X124752031Y-122159808D01*
X124752031Y-121621877D01*
X124751031Y-121598889D01*
X124836322Y-121598889D01*
X124860843Y-121682414D01*
X124902222Y-121782797D01*
X125070805Y-122193525D01*
X125101456Y-122250996D01*
X125147433Y-122288544D01*
X125205670Y-122299272D01*
X125273870Y-122272452D01*
X125317548Y-122218046D01*
X125329808Y-122191992D01*
X125345304Y-122151805D01*
X125375445Y-122072112D01*
X125420230Y-121952912D01*
X125439195Y-122001379D01*
X125465441Y-122073218D01*
X125503755Y-122177433D01*
X125514483Y-122205019D01*
X125527510Y-122230307D01*
X125552031Y-122262490D01*
X125636322Y-122299272D01*
X125716015Y-122272452D01*
X125758927Y-122218046D01*
X125874636Y-121936054D01*
X126066973Y-121936054D01*
X126076935Y-122029732D01*
X126106820Y-122111533D01*
X126152797Y-122178774D01*
X126211034Y-122228774D01*
X126295666Y-122273900D01*
X126384044Y-122300975D01*
X126476169Y-122310000D01*
X126546284Y-122305594D01*
X126612567Y-122292375D01*
X126716782Y-122248697D01*
X126785747Y-122200421D01*
X126830192Y-122153678D01*
X126843985Y-122136820D01*
X126883831Y-122048697D01*
X126867356Y-122003295D01*
X126817931Y-121945249D01*
X126736705Y-121908467D01*
X126685364Y-121927625D01*
X126617165Y-121985096D01*
X126555862Y-122034904D01*
X126482299Y-122058659D01*
X126403116Y-122045717D01*
X126355607Y-122006892D01*
X126339770Y-121942184D01*
X126378851Y-121883180D01*
X126476169Y-121848697D01*
X126536705Y-121834713D01*
X126601839Y-121814215D01*
X126666973Y-121788352D01*
X126727510Y-121758276D01*
X126780958Y-121716705D01*
X126824828Y-121656360D01*
X126854138Y-121579540D01*
X126863908Y-121488544D01*
X126852754Y-121402465D01*
X126819293Y-121324049D01*
X126763525Y-121253295D01*
X126688514Y-121197527D01*
X126597327Y-121164066D01*
X126489962Y-121152912D01*
X126402031Y-121158851D01*
X126322146Y-121176667D01*
X126217165Y-121224943D01*
X126178851Y-121254061D01*
X126131341Y-121329157D01*
X126168123Y-121413448D01*
X126220996Y-121470920D01*
X126275402Y-121490077D01*
X126355096Y-121459425D01*
X126372720Y-121444100D01*
X126396475Y-121424176D01*
X126478467Y-121404253D01*
X126561226Y-121428008D01*
X126594176Y-121493908D01*
X126555096Y-121562107D01*
X126457778Y-121597356D01*
X126396858Y-121609042D01*
X126330575Y-121625709D01*
X126264291Y-121646973D01*
X126203372Y-121672452D01*
X126149923Y-121710192D01*
X126106054Y-121768238D01*
X126076743Y-121844291D01*
X126066973Y-121936054D01*
X125874636Y-121936054D01*
X125990345Y-121654061D01*
X126005670Y-121594291D01*
X125983831Y-121539502D01*
X125918314Y-121497739D01*
X125838621Y-121477816D01*
X125788812Y-121490843D01*
X125761992Y-121516897D01*
X125749732Y-121543716D01*
X125726062Y-121602976D01*
X125689791Y-121699017D01*
X125640920Y-121831839D01*
X125550498Y-121583563D01*
X125516782Y-121529923D01*
X125426360Y-121485479D01*
X125347433Y-121510000D01*
X125302222Y-121559042D01*
X125289962Y-121585096D01*
X125245858Y-121707701D01*
X125215717Y-121789438D01*
X125199540Y-121830307D01*
X125106054Y-121575900D01*
X125060077Y-121502337D01*
X124995709Y-121477816D01*
X124934406Y-121493142D01*
X124860843Y-121541034D01*
X124836322Y-121598889D01*
X124751031Y-121598889D01*
X124749732Y-121569004D01*
X124736705Y-121528391D01*
X124696092Y-121498506D01*
X124617931Y-121488641D01*
X124617165Y-121488544D01*
X124512950Y-121514598D01*
X124485364Y-121580498D01*
X124483831Y-121624943D01*
X124483831Y-122161341D01*
X124222514Y-122161341D01*
X124249349Y-122082329D01*
X124258544Y-121978966D01*
X124258544Y-121752146D01*
X124321379Y-121756743D01*
X124377318Y-121730690D01*
X124399540Y-121641801D01*
X124391877Y-121550613D01*
X124370421Y-121510000D01*
X124309119Y-121490077D01*
X124258544Y-121496207D01*
X124258544Y-121338352D01*
X124256245Y-121286245D01*
X124241686Y-121249464D01*
X124235371Y-121244866D01*
X124483831Y-121244866D01*
X124486130Y-121297739D01*
X124499923Y-121337586D01*
X124540536Y-121369004D01*
X124617931Y-121378199D01*
X124695326Y-121369004D01*
X124735939Y-121336820D01*
X124749732Y-121296207D01*
X124752031Y-121243333D01*
X124749732Y-121190460D01*
X124736705Y-121151379D01*
X124696092Y-121120345D01*
X124617165Y-121110000D01*
X124539770Y-121120345D01*
X124500690Y-121151379D01*
X124486130Y-121191992D01*
X124483831Y-121244866D01*
X124235371Y-121244866D01*
X124202222Y-121220728D01*
X124123678Y-121211149D01*
X124040536Y-121225326D01*
X123999540Y-121267854D01*
X123991877Y-121346015D01*
X123991877Y-121496207D01*
X123889962Y-121490077D01*
X123837854Y-121492375D01*
X123797241Y-121506935D01*
X123767356Y-121546398D01*
X123757395Y-121624943D01*
X123599695Y-121624943D01*
X123553563Y-121578966D01*
X123466888Y-121522771D01*
X123376467Y-121489055D01*
X123282299Y-121477816D01*
X123168889Y-121493908D01*
X123087663Y-121525326D01*
X123063142Y-121540651D01*
X123020230Y-121569770D01*
X122980383Y-121639502D01*
X123012567Y-121727625D01*
X123066590Y-121790843D01*
X123118314Y-121811916D01*
X123201073Y-121778199D01*
X123280000Y-121752146D01*
X123375785Y-121788927D01*
X123420230Y-121890843D01*
X123377318Y-121991992D01*
X123286130Y-122028008D01*
X123195709Y-121999655D01*
X123127510Y-121971303D01*
X123076552Y-121991609D01*
X123015632Y-122052529D01*
X122980383Y-122132222D01*
X122880766Y-122132222D01*
X122880766Y-121243333D01*
X122878467Y-121190460D01*
X122865441Y-121151379D01*
X122824828Y-121120345D01*
X122745900Y-121110000D01*
X122668506Y-121120345D01*
X122629425Y-121151379D01*
X122614866Y-121191992D01*
X122612567Y-121244866D01*
X122612567Y-121583563D01*
X122529425Y-121513448D01*
X122433257Y-121490077D01*
X122336790Y-121503018D01*
X122251733Y-121541843D01*
X122178084Y-121606552D01*
X122121464Y-121689991D01*
X122087493Y-121785011D01*
X122076169Y-121891609D01*
X122076169Y-122161341D01*
X121693027Y-122161341D01*
X121693027Y-120726858D01*
X122076169Y-120726858D01*
X126883831Y-120726858D01*
X127266973Y-120726858D01*
X127266973Y-122693142D01*
G37*
D12*
%TO.C,R4*%
X56754724Y-115457500D02*
X56245276Y-115457500D01*
X56754724Y-114412500D02*
X56245276Y-114412500D01*
%TO.C,J13*%
X108564000Y-47582000D02*
X108564000Y-56302000D01*
X108564000Y-47582000D02*
X113984000Y-47582000D01*
X108564000Y-56302000D02*
X109864000Y-58002000D01*
X109864000Y-58002000D02*
X112684000Y-58002000D01*
X113984000Y-47582000D02*
X113984000Y-56302000D01*
X113984000Y-56302000D02*
X112684000Y-58002000D01*
%TO.C,J15*%
X116886000Y-45954000D02*
X116886000Y-58574000D01*
X116886000Y-58574000D02*
X122856000Y-58574000D01*
X117646000Y-46714000D02*
X120596000Y-46714000D01*
X117646000Y-52264000D02*
X117646000Y-46714000D01*
X117646000Y-52264000D02*
X117646000Y-57814000D01*
X117646000Y-57814000D02*
X120596000Y-57814000D01*
X120596000Y-46714000D02*
X120596000Y-45964000D01*
X120596000Y-57814000D02*
X120596000Y-58564000D01*
X121896000Y-58864000D02*
X123146000Y-58864000D01*
X122096000Y-45964000D02*
X122096000Y-47764000D01*
X122096000Y-47764000D02*
X122846000Y-47764000D01*
X122096000Y-49264000D02*
X122096000Y-55264000D01*
X122096000Y-55264000D02*
X122846000Y-55264000D01*
X122096000Y-56764000D02*
X122096000Y-58564000D01*
X122096000Y-58564000D02*
X122846000Y-58564000D01*
X122846000Y-45964000D02*
X122096000Y-45964000D01*
X122846000Y-47764000D02*
X122846000Y-45964000D01*
X122846000Y-49264000D02*
X122096000Y-49264000D01*
X122846000Y-55264000D02*
X122846000Y-49264000D01*
X122846000Y-56764000D02*
X122096000Y-56764000D01*
X122846000Y-58564000D02*
X122846000Y-56764000D01*
X122856000Y-45954000D02*
X116886000Y-45954000D01*
X122856000Y-58574000D02*
X122856000Y-45954000D01*
X123146000Y-58864000D02*
X123146000Y-57614000D01*
%TO.C,R1*%
D13*
X53960000Y-118237000D02*
X59040000Y-118237000D01*
X59040000Y-115951000D01*
X53960000Y-115951000D01*
X53960000Y-118237000D01*
D12*
%TO.C,J11*%
X94064000Y-47582000D02*
X94064000Y-56302000D01*
X94064000Y-47582000D02*
X99484000Y-47582000D01*
X94064000Y-56302000D02*
X95364000Y-58002000D01*
X95364000Y-58002000D02*
X98184000Y-58002000D01*
X99484000Y-47582000D02*
X99484000Y-56302000D01*
X99484000Y-56302000D02*
X98184000Y-58002000D01*
%TD*%
%LPC*%
D15*
%TO.C,M3*%
X56108600Y-108940600D03*
%TD*%
%TO.C,M10*%
X56108600Y-109575600D03*
%TD*%
D16*
%TO.C,U1*%
X64534000Y-88208000D03*
D17*
X67564000Y-87908000D03*
X67564000Y-83058000D03*
D16*
X64534000Y-82758000D03*
D18*
X64404000Y-94373000D03*
D19*
X66944000Y-94373000D03*
D20*
X69484000Y-94373000D03*
D19*
X72024000Y-94373000D03*
X74564000Y-94373000D03*
X77104000Y-94373000D03*
X79644000Y-94373000D03*
D20*
X82184000Y-94373000D03*
D19*
X84724000Y-94373000D03*
X87264000Y-94373000D03*
X89804000Y-94373000D03*
X92344000Y-94373000D03*
D20*
X94884000Y-94373000D03*
D19*
X97424000Y-94373000D03*
X99964000Y-94373000D03*
X102504000Y-94373000D03*
X105044000Y-94373000D03*
D20*
X107584000Y-94373000D03*
D19*
X110124000Y-94373000D03*
X112664000Y-94373000D03*
X112664000Y-76593000D03*
X110124000Y-76593000D03*
D20*
X107584000Y-76593000D03*
D19*
X105044000Y-76593000D03*
X102504000Y-76593000D03*
X99964000Y-76593000D03*
X97424000Y-76593000D03*
D20*
X94884000Y-76593000D03*
D19*
X92344000Y-76593000D03*
X89804000Y-76593000D03*
X87264000Y-76593000D03*
X84724000Y-76593000D03*
D20*
X82184000Y-76593000D03*
D19*
X79644000Y-76593000D03*
X77104000Y-76593000D03*
X74564000Y-76593000D03*
X72024000Y-76593000D03*
D20*
X69484000Y-76593000D03*
D19*
X66944000Y-76593000D03*
X64404000Y-76593000D03*
D18*
X112434000Y-88023000D03*
D21*
X94234000Y-84898800D03*
D20*
X112434000Y-85483000D03*
D22*
X94234000Y-82358800D03*
D19*
X112434000Y-82943000D03*
D21*
X94234000Y-79818800D03*
%TD*%
D23*
%TO.C,U2*%
X119918000Y-103632000D03*
X122458000Y-103632000D03*
D24*
X131348000Y-103632000D03*
X133888000Y-103632000D03*
X131348000Y-77632000D03*
X133888000Y-77632000D03*
D23*
X119918000Y-77632000D03*
X122458000Y-77632000D03*
D25*
X118872000Y-84836000D03*
%TD*%
D26*
%TO.C,J19*%
X131572000Y-70104000D03*
D27*
X129072000Y-70104000D03*
D26*
X126572000Y-70104000D03*
D27*
X124072000Y-70104000D03*
%TD*%
D28*
%TO.C,J18*%
X80247000Y-122622000D03*
D29*
X80247000Y-120122000D03*
X80247000Y-117622000D03*
X80247000Y-115122000D03*
%TD*%
D27*
%TO.C,L1*%
X67564000Y-106680000D03*
D26*
X70064000Y-106680000D03*
X72564000Y-106680000D03*
X75064000Y-106680000D03*
X77564000Y-106680000D03*
X80064000Y-106680000D03*
%TD*%
D27*
%TO.C,J17*%
X66548000Y-114808000D03*
D26*
X69048000Y-114808000D03*
X71548000Y-114808000D03*
X74048000Y-114808000D03*
%TD*%
D27*
%TO.C,J6*%
X139000000Y-82000000D03*
D26*
X141500000Y-82000000D03*
X144000000Y-82000000D03*
%TD*%
D30*
%TO.C,H2*%
X100000000Y-128000000D03*
%TD*%
D15*
%TO.C,M36*%
X114706400Y-66802000D03*
%TD*%
%TO.C,M11*%
X57404000Y-109550200D03*
%TD*%
D19*
%TO.C,R2*%
X132080000Y-111760000D03*
X132080000Y-116840000D03*
%TD*%
D31*
%TO.C,J12*%
X104024000Y-55292000D03*
D32*
X104024000Y-50292000D03*
%TD*%
D15*
%TO.C,M24*%
X83921600Y-66802000D03*
%TD*%
%TO.C,M37*%
X115824000Y-66802000D03*
%TD*%
%TO.C,M5*%
X57912000Y-109296200D03*
%TD*%
%TO.C,M38*%
X116433600Y-66802000D03*
%TD*%
%TO.C,M4*%
X57480200Y-108864400D03*
%TD*%
D33*
%TO.C,J8*%
X139000000Y-89000000D03*
D34*
X141500000Y-89000000D03*
%TD*%
D15*
%TO.C,M26*%
X85547200Y-66802000D03*
%TD*%
%TO.C,M14*%
X59436000Y-109575600D03*
%TD*%
D23*
%TO.C,J3*%
X64262000Y-101600000D03*
D35*
X66802000Y-101600000D03*
X69342000Y-101600000D03*
X71882000Y-101600000D03*
X74422000Y-101600000D03*
X76962000Y-101600000D03*
X79502000Y-101600000D03*
X82042000Y-101600000D03*
X84582000Y-101600000D03*
X87122000Y-101600000D03*
X89662000Y-101600000D03*
X92202000Y-101600000D03*
X94742000Y-101600000D03*
X97282000Y-101600000D03*
X99822000Y-101600000D03*
X102362000Y-101600000D03*
X104902000Y-101600000D03*
X107442000Y-101600000D03*
X109982000Y-101600000D03*
X112522000Y-101600000D03*
%TD*%
D30*
%TO.C,H3*%
X124748737Y-94547727D03*
%TD*%
D23*
%TO.C,J7*%
X55880000Y-73914000D03*
%TD*%
D28*
%TO.C,J14*%
X79993000Y-56054000D03*
D29*
X79993000Y-53554000D03*
X79993000Y-51054000D03*
X79993000Y-48554000D03*
%TD*%
D15*
%TO.C,M25*%
X84734400Y-66802000D03*
%TD*%
%TO.C,M8*%
X54762400Y-109575600D03*
%TD*%
%TO.C,M29*%
X114147600Y-65176400D03*
%TD*%
%TO.C,M17*%
X83058000Y-65176400D03*
%TD*%
%TO.C,M30*%
X114706400Y-65176400D03*
%TD*%
%TO.C,M23*%
X83058000Y-66802000D03*
%TD*%
%TO.C,M35*%
X114147600Y-66802000D03*
%TD*%
%TO.C,M39*%
X117602000Y-66751200D03*
%TD*%
D36*
%TO.C,J2*%
X70358000Y-56388000D03*
D37*
X70358000Y-49188000D03*
%TD*%
D15*
%TO.C,M20*%
X85547200Y-65176400D03*
%TD*%
D38*
%TO.C,H1*%
X56500000Y-121412000D03*
%TD*%
D31*
%TO.C,J10*%
X89524000Y-55292000D03*
D32*
X89524000Y-50292000D03*
%TD*%
D15*
%TO.C,M40*%
X118364000Y-66751200D03*
%TD*%
%TO.C,M22*%
X82245200Y-66802000D03*
%TD*%
%TO.C,M27*%
X95453200Y-66243200D03*
%TD*%
D19*
%TO.C,R3*%
X54356000Y-101600000D03*
X59436000Y-101600000D03*
%TD*%
D30*
%TO.C,H4*%
X144547727Y-74748737D03*
%TD*%
D15*
%TO.C,M1*%
X54762400Y-108940600D03*
%TD*%
D39*
%TO.C,H6*%
X63000000Y-62000000D03*
%TD*%
D36*
%TO.C,J1*%
X129540000Y-56134000D03*
D37*
X129540000Y-48934000D03*
%TD*%
D15*
%TO.C,M28*%
X96953200Y-66243200D03*
%TD*%
%TO.C,M16*%
X82245200Y-65176400D03*
%TD*%
D40*
%TO.C,J16*%
X125730000Y-124460000D03*
D34*
X123230000Y-124460000D03*
%TD*%
D15*
%TO.C,M32*%
X116433600Y-65176400D03*
%TD*%
%TO.C,M34*%
X118364000Y-65176400D03*
%TD*%
%TO.C,M18*%
X83921600Y-65176400D03*
%TD*%
D33*
%TO.C,J9*%
X139000000Y-96000000D03*
D34*
X141500000Y-96000000D03*
%TD*%
D15*
%TO.C,M7*%
X59563000Y-108864400D03*
%TD*%
D39*
%TO.C,H5*%
X63000000Y-43000000D03*
%TD*%
D15*
%TO.C,M15*%
X81432400Y-65176400D03*
%TD*%
%TO.C,M33*%
X117602000Y-65176400D03*
%TD*%
%TO.C,M13*%
X58420000Y-109575600D03*
%TD*%
%TO.C,M31*%
X115824000Y-65176400D03*
%TD*%
D41*
%TO.C,H9*%
X124000000Y-114000000D03*
%TD*%
D15*
%TO.C,M6*%
X58343800Y-108839000D03*
%TD*%
D23*
%TO.C,J4*%
X112522000Y-69088000D03*
D35*
X109982000Y-69088000D03*
X107442000Y-69088000D03*
X104902000Y-69088000D03*
X102362000Y-69088000D03*
X99822000Y-69088000D03*
X97282000Y-69088000D03*
X94742000Y-69088000D03*
X92202000Y-69088000D03*
X89662000Y-69088000D03*
X87122000Y-69088000D03*
X84582000Y-69088000D03*
X82042000Y-69088000D03*
X79502000Y-69088000D03*
X76962000Y-69088000D03*
X74422000Y-69088000D03*
X71882000Y-69088000D03*
X69342000Y-69088000D03*
X66802000Y-69088000D03*
X64262000Y-69088000D03*
%TD*%
D39*
%TO.C,H7*%
X137000000Y-43000000D03*
%TD*%
%TO.C,H8*%
X137000000Y-62000000D03*
%TD*%
D15*
%TO.C,M21*%
X81432400Y-66802000D03*
%TD*%
%TO.C,M19*%
X84734400Y-65176400D03*
%TD*%
D42*
%TO.C,R4*%
X57412500Y-114935000D03*
X55587500Y-114935000D03*
%TD*%
D31*
%TO.C,J13*%
X111274000Y-55292000D03*
D32*
X111274000Y-50292000D03*
%TD*%
D24*
%TO.C,J5*%
X59040000Y-111252000D03*
D23*
X56500000Y-111252000D03*
D35*
X53960000Y-111252000D03*
%TD*%
D28*
%TO.C,J15*%
X120396000Y-56014000D03*
D29*
X120396000Y-53514000D03*
X120396000Y-51014000D03*
X120396000Y-48514000D03*
%TD*%
D43*
%TO.C,R1*%
X54725000Y-117094000D03*
D44*
X58275000Y-116544000D03*
X58275000Y-117644000D03*
%TD*%
D31*
%TO.C,J11*%
X96774000Y-55292000D03*
D32*
X96774000Y-50292000D03*
%TD*%
%LPD*%
M02*
