M48
; DRILL file {KiCad 8.0.1} date 2024-04-30T15:38:52+0800
; FORMAT={-:-/ absolute / inch / decimal}
; #@! TF.CreationDate,2024-04-30T15:38:52+08:00
; #@! TF.GenerationSoftware,Kicad,Pcbnew,8.0.1
; #@! TF.FileFunction,NonPlated,1,2,NPTH
FMAT,2
INCH
; #@! TA.AperFunction,NonPlated,NPTH,ComponentDrill
T1C0.0197
; #@! TA.AperFunction,NonPlated,NPTH,ComponentDrill
T2C0.0413
; #@! TA.AperFunction,NonPlated,NPTH,ComponentDrill
T3C0.0433
%
G90
G05
T1
X2.156Y-4.289
X2.156Y-4.314
X2.209Y-4.289
X2.209Y-4.314
X2.26Y-4.313
X2.263Y-4.286
X2.28Y-4.303
X2.297Y-4.285
X2.3Y-4.314
X2.34Y-4.314
X2.345Y-4.286
X3.206Y-2.566
X3.206Y-2.63
X3.238Y-2.566
X3.238Y-2.63
X3.27Y-2.566
X3.27Y-2.63
X3.304Y-2.566
X3.304Y-2.63
X3.336Y-2.566
X3.336Y-2.63
X3.368Y-2.566
X3.368Y-2.63
X3.758Y-2.608
X3.8171Y-2.608
X4.494Y-2.566
X4.494Y-2.63
X4.516Y-2.566
X4.516Y-2.63
X4.56Y-2.566
X4.56Y-2.63
X4.584Y-2.566
X4.584Y-2.63
X4.63Y-2.566
X4.63Y-2.628
X4.66Y-2.566
X4.66Y-2.628
T2
G00X2.6521Y-3.27
M15
G01X2.6679Y-3.27
M16
G05
G00X2.6521Y-3.4609
M15
G01X2.6679Y-3.4609
M16
G05
T3
G00X2.5269Y-3.2582
M15
G01X2.5545Y-3.2582
M16
G05
G00X2.5269Y-3.4728
M15
G01X2.5545Y-3.4728
M16
G05
M30
