%TF.GenerationSoftware,KiCad,Pcbnew,8.0.1*%
%TF.CreationDate,2024-04-30T15:38:52+08:00*%
%TF.ProjectId,prototype,70726f74-6f74-4797-9065-2e6b69636164,rev?*%
%TF.SameCoordinates,Original*%
%TF.FileFunction,Profile,NP*%
%FSLAX46Y46*%
G04 Gerber Fmt 4.6, Leading zero omitted, Abs format (unit mm)*
G04 Created by KiCad (PCBNEW 8.0.1) date 2024-04-30 15:38:52*
%MOMM*%
%LPD*%
G01*
G04 APERTURE LIST*
%TA.AperFunction,Profile*%
%ADD10C,0.200000*%
%TD*%
%TA.AperFunction,Profile*%
%ADD11C,0.100000*%
%TD*%
%TA.AperFunction,Profile*%
%ADD12C,0.150000*%
%TD*%
G04 APERTURE END LIST*
D10*
X137000000Y-40000000D02*
G75*
G02*
X140000000Y-43000000I0J-3000000D01*
G01*
X52499999Y-109747611D02*
X53499999Y-109747611D01*
X108801136Y-65000000D02*
X91000000Y-65000000D01*
X86000000Y-65000000D02*
X86000000Y-67000000D01*
X52500000Y-106741276D02*
X52500000Y-100666522D01*
X60499999Y-109747611D02*
X60000000Y-109747611D01*
X121030257Y-129257353D02*
X121799657Y-132157012D01*
X52500000Y-72000000D02*
G75*
G02*
X54500000Y-70000000I2000000J0D01*
G01*
X113801136Y-65000000D02*
X108801136Y-65000000D01*
X108801136Y-67000000D02*
X113801136Y-67000000D01*
X121030257Y-129257352D02*
G75*
G02*
X111576470Y-131178720I-21030157J79256952D01*
G01*
X81000000Y-65000000D02*
X64000000Y-65000000D01*
X63000000Y-65000000D02*
G75*
G02*
X60000000Y-62000000I0J3000000D01*
G01*
X137000000Y-67000000D02*
G75*
G02*
X138000000Y-68000000I0J-1000000D01*
G01*
X61499999Y-108747611D02*
X61499999Y-109747611D01*
X60000000Y-70000000D02*
X54500000Y-70000000D01*
X136062458Y-115760941D02*
G75*
G02*
X136069403Y-112925547I1414242J1414241D01*
G01*
X118801136Y-65000000D02*
X119000000Y-65000000D01*
X111999999Y-134148674D02*
G75*
G02*
X88000000Y-134148674I-11999999J84148274D01*
G01*
X54500000Y-108747611D02*
G75*
G02*
X52499999Y-106741276I0J2000011D01*
G01*
X113000000Y-122000000D02*
X87000000Y-122000000D01*
X54499999Y-109747611D02*
X53499999Y-109747611D01*
X52499999Y-123747611D02*
X52499999Y-109747611D01*
X91000000Y-67000000D02*
X108801136Y-67000000D01*
X62000000Y-68000000D02*
G75*
G02*
X63000000Y-67000000I1000000J0D01*
G01*
X142474408Y-122172893D02*
X136062457Y-115760942D01*
X85000000Y-109000000D02*
G75*
G02*
X87000000Y-107000000I2000000J0D01*
G01*
X60000000Y-109747611D02*
X60000000Y-108747611D01*
X137000000Y-40000000D02*
X63000000Y-40000000D01*
X91000000Y-65000000D02*
X86000000Y-65000000D01*
X118801136Y-67000000D02*
X119000000Y-67000000D01*
X66000000Y-67000000D02*
X63000000Y-67000000D01*
X52499999Y-123747611D02*
X60499999Y-123747611D01*
X115000000Y-109000000D02*
X115000000Y-120000000D01*
X52500000Y-72000000D02*
X52500000Y-100666522D01*
X137000000Y-65000000D02*
X136000000Y-65000000D01*
X113801136Y-67000000D02*
X113801136Y-65000000D01*
X88423530Y-131178724D02*
X88000000Y-134148672D01*
X81000000Y-65000000D02*
X81000000Y-67000000D01*
X60000000Y-108747611D02*
X61499999Y-108747611D01*
X60000000Y-43000000D02*
G75*
G02*
X63000000Y-40000000I3000000J0D01*
G01*
X78000000Y-67000000D02*
X81000000Y-67000000D01*
X62000000Y-68000000D02*
G75*
G02*
X60000000Y-70000000I-2000000J0D01*
G01*
X61499999Y-109747611D02*
X61499999Y-124549600D01*
X147500000Y-100666500D02*
G75*
G02*
X146919295Y-102075697I-2000200J0D01*
G01*
X86000000Y-67000000D02*
X91000000Y-67000000D01*
X118801136Y-65000000D02*
X118801136Y-67000000D01*
X140000000Y-43000000D02*
X140000000Y-62000000D01*
X85000000Y-120000000D02*
X85000000Y-109000000D01*
X60000000Y-43000000D02*
X60000000Y-62000000D01*
X147500000Y-100666500D02*
X147500000Y-72000000D01*
X142264523Y-123747610D02*
G75*
G02*
X121799654Y-132157000I-42264423J73747510D01*
G01*
X78200344Y-132157012D02*
X78969744Y-129257355D01*
X115000000Y-120000000D02*
G75*
G02*
X113000000Y-122000000I-2000000J0D01*
G01*
X60499999Y-123747611D02*
X60499999Y-109747611D01*
X78200344Y-132157011D02*
G75*
G02*
X62620480Y-126339844I21799556J82156811D01*
G01*
X66000000Y-67000000D02*
X78000000Y-67000000D01*
X64000000Y-65000000D02*
X63000000Y-65000000D01*
X142474408Y-122172893D02*
G75*
G02*
X142264529Y-123747621I-707108J-707107D01*
G01*
X87000000Y-107000000D02*
X113000000Y-107000000D01*
X88423530Y-131178724D02*
G75*
G02*
X78969744Y-129257356I11576570J81179324D01*
G01*
X54499999Y-108747611D02*
X54499999Y-109747611D01*
X145500000Y-70000000D02*
X140000000Y-70000000D01*
X140000000Y-62000000D02*
G75*
G02*
X137000000Y-65000000I-3000000J0D01*
G01*
X145500000Y-70000000D02*
G75*
G02*
X147500000Y-72000000I0J-2000000D01*
G01*
X113000000Y-107000000D02*
G75*
G02*
X115000000Y-109000000I0J-2000000D01*
G01*
X119000000Y-65000000D02*
X136000000Y-65000000D01*
X137000000Y-67000000D02*
X119000000Y-67000000D01*
X87000000Y-122000000D02*
G75*
G02*
X85000000Y-120000000I0J2000000D01*
G01*
X136069403Y-112925547D02*
X146919274Y-102075676D01*
X62620481Y-126339842D02*
G75*
G02*
X61499999Y-124549600I879519J1796242D01*
G01*
X140000000Y-70000000D02*
G75*
G02*
X138000000Y-68000000I0J2000000D01*
G01*
X111999999Y-134148675D02*
X111576471Y-131178726D01*
D11*
%TO.C,U1*%
X103004000Y-92483000D02*
X106134000Y-92483000D01*
X113534000Y-92483000D02*
X106134000Y-92483000D01*
X102504000Y-91983000D02*
X102504000Y-78983000D01*
X114034000Y-91983000D02*
X114034000Y-89483000D01*
X113534000Y-88983000D02*
X111994000Y-88983000D01*
X111494000Y-82483000D02*
X111494000Y-88483000D01*
X113534000Y-81983000D02*
X111994000Y-81983000D01*
X114034000Y-78983000D02*
X114034000Y-81483000D01*
X103004000Y-78483000D02*
X106134000Y-78483000D01*
X106134000Y-78483000D02*
X113534000Y-78483000D01*
X103004000Y-92483000D02*
G75*
G02*
X102504000Y-91983000I0J500000D01*
G01*
X114034000Y-91983000D02*
G75*
G02*
X113534000Y-92483000I-500000J0D01*
G01*
X111994000Y-88983000D02*
G75*
G02*
X111494000Y-88483000I0J500000D01*
G01*
X113534000Y-88983000D02*
G75*
G02*
X114034000Y-89483000I0J-500000D01*
G01*
X111494000Y-82483000D02*
G75*
G02*
X111994000Y-81983000I500000J0D01*
G01*
X114034000Y-81483000D02*
G75*
G02*
X113534000Y-81983000I-500000J0D01*
G01*
X102504000Y-78983000D02*
G75*
G02*
X103004000Y-78483000I500000J0D01*
G01*
X113534000Y-78483000D02*
G75*
G02*
X114034000Y-78983000I0J-500000D01*
G01*
D12*
%TO.C,D1*%
X54934500Y-103848000D02*
X54934500Y-107248000D01*
X58734500Y-103848000D02*
X54934500Y-103848000D01*
X58734500Y-103848000D02*
X58734500Y-107248000D01*
X58734500Y-107248000D02*
X54934500Y-107248000D01*
%TD*%
M02*
